<svg xmlns="http://www.w3.org/2000/svg" viewBox="0 0 91.03 93.17"><defs><style>.cls-1{fill:#671213;}</style></defs><g id="Layer_2" data-name="Layer 2"><g id="l2"><path class="cls-1" d="M69.44,59.31c-.51.49-1.15.82-1.66,1.3-.07.07.09.06.13,0,.51-.49,1.15-.82,1.66-1.31.07-.06-.09-.06-.13,0Z"/><path class="cls-1" d="M68.11,58.65a9.65,9.65,0,0,1-2.29,1.61c-.1.05,0,.11.06.08a9.76,9.76,0,0,0,2.36-1.66c.07-.06-.08-.07-.13,0Z"/><path class="cls-1" d="M65.8,58.32c-1,.61-2,1-3,1.63-.09.06,0,.07.09,0,1-.61,2-1,3-1.63.09-.06-.05-.07-.1,0Z"/><path class="cls-1" d="M62.46,58a8.63,8.63,0,0,1-2.3,1.28c-.1,0,0,.11.07.07A8.83,8.83,0,0,0,62.59,58c.07-.07-.09-.07-.13,0Z"/><path class="cls-1" d="M64.79,57c-.72.71-1.28,1.56-2,2.28-.07.07.09.08.13,0,.72-.72,1.28-1.57,2-2.29.07-.07-.09-.08-.13,0Z"/><path class="cls-1" d="M68.12,55.72a17.33,17.33,0,0,0-5,5.9s.14,0,.16,0a17.28,17.28,0,0,1,5-5.86c.07,0-.09,0-.12,0Z"/><path class="cls-1" d="M70.11,55.71a30.83,30.83,0,0,0-6,7.2c0,.07.13.05.15,0a30.85,30.85,0,0,1,6-7.17c.07-.06-.09-.07-.13,0Z"/><path class="cls-1" d="M71.11,56.36a24.16,24.16,0,0,0-6,6.87c0,.07.12.06.15,0a24,24,0,0,1,6-6.84c.07-.06-.09-.08-.13,0Z"/><path class="cls-1" d="M72.44,56.37a17,17,0,0,0-6,8.18s.15,0,.16,0a16.84,16.84,0,0,1,6-8.14c.06,0-.1,0-.13,0Z"/><path class="cls-1" d="M74.1,56.69a22.59,22.59,0,0,0-6.33,7.52c0,.07.12.06.15,0a22.68,22.68,0,0,1,6.31-7.5c.07,0-.09-.06-.13,0Z"/><path class="cls-1" d="M75.42,56.71a23.09,23.09,0,0,0-6,8.5s.14,0,.16,0a23,23,0,0,1,6-8.48s-.12,0-.15,0Z"/><path class="cls-1" d="M73.09,61.61c-1.6,1.58-3,3.3-4.65,4.89,0,0,.11,0,.14,0,1.6-1.59,3.06-3.31,4.66-4.9,0,0-.12,0-.15,0Z"/><path class="cls-1" d="M70.1,62.26a37.81,37.81,0,0,0-4.66,5.22c0,.06.12,0,.15,0a37.24,37.24,0,0,1,4.66-5.22s-.12,0-.15,0Z"/><path class="cls-1" d="M66.12,63.22c-1.32,1.34-2.34,2.92-3.66,4.25-.07.06.09.06.13,0,1.32-1.33,2.33-2.91,3.66-4.24.06-.07-.1-.06-.13,0Z"/><path class="cls-1" d="M62.12,65.53a23.8,23.8,0,0,0-3,3.27s.13,0,.16,0a24.14,24.14,0,0,1,3-3.25s-.12,0-.14,0Z"/><path class="cls-1" d="M58.82,66.16l-2,1c-.09,0,.06,0,.09,0l2-1c.1,0,0,0-.09,0Z"/><path class="cls-1" d="M71.76,58.35c-1.39,2.38-2.89,4.76-3.33,7.51,0,0,.15,0,.16,0,.44-2.75,1.94-5.13,3.33-7.5,0,0-.14,0-.16,0Z"/><path class="cls-1" d="M75.09,57a29.9,29.9,0,0,0-5,10.13s.15,0,.16,0a29.87,29.87,0,0,1,5-10.11c0-.05-.12,0-.15,0Z"/><path class="cls-1" d="M76.08,56.72c-1.66,3.07-2.34,6.48-3.33,9.79,0,0,.15,0,.16,0,1-3.31,1.67-6.73,3.33-9.79,0,0-.13,0-.16,0Z"/><path class="cls-1" d="M77.74,56.72a54.94,54.94,0,0,0-3,10.12s.15,0,.16,0a54.08,54.08,0,0,1,3-10.11s-.14,0-.16,0Z"/><path class="cls-1" d="M78.41,57a38.2,38.2,0,0,0-2,10.46s.16,0,.16,0a38.06,38.06,0,0,1,2-10.44c0-.05-.15,0-.16,0Z"/><path class="cls-1" d="M79.41,56.72C78.16,60,78.08,63.4,78.08,66.84c0,.06.16,0,.16,0,0-3.44.08-6.86,1.33-10.12,0-.06-.14,0-.16,0Z"/><path class="cls-1" d="M80.4,57.06c0,2.39-.3,4.78-.33,7.18,0,0,.16,0,.16,0,0-2.39.31-4.78.34-7.18,0,0-.16,0-.17.05Z"/><path class="cls-1" d="M81.4,57.37c-.36,2.63-.9,5.21-.33,7.85,0,.07.18,0,.16,0-.57-2.63,0-5.19.33-7.82,0-.08-.15-.06-.16,0Z"/><path class="cls-1" d="M82.07,55.75c0,3.38,0,6.75.33,10.12,0,0,.16,0,.16,0-.32-3.37-.33-6.75-.33-10.12,0,0-.16,0-.16,0Z"/><path class="cls-1" d="M83.07,54.77c.64,3.78.4,7.64,1,11.42,0,0,.17,0,.16,0-.59-3.79-.35-7.64-1-11.42,0,0-.17,0-.16,0Z"/><path class="cls-1" d="M84.4,55.08a66.44,66.44,0,0,0,1,11.44c0,.07.18,0,.17,0a66.11,66.11,0,0,1-1-11.41c0-.08-.16-.06-.16,0Z"/><path class="cls-1" d="M85.06,52.81a79,79,0,0,0,1.66,15s.17,0,.17,0a78.15,78.15,0,0,1-1.67-15s-.16,0-.16,0Z"/><path class="cls-1" d="M85.73,54.12c.66,4.34,1,8.71,1.66,13.05,0,.08.17,0,.16,0-.66-4.34-1-8.72-1.66-13.06,0-.07-.17,0-.16,0Z"/><path class="cls-1" d="M86.72,54.75c.36,4.71,1,9.39,1.67,14.06,0,.07.17,0,.16,0-.68-4.66-1.31-9.32-1.66-14,0-.08-.17-.06-.17,0Z"/><path class="cls-1" d="M87.72,56.4c.63,3.89.68,7.83,1,11.75,0,.07.17,0,.16,0-.32-3.92-.37-7.86-1-11.75,0-.07-.17,0-.16,0Z"/><path class="cls-1" d="M87.72,55.41c0,3.38.32,6.74.33,10.12,0,.07.17,0,.17,0,0-3.37-.32-6.74-.34-10.12,0-.07-.16,0-.16,0Z"/><path class="cls-1" d="M86.39,50.85a62.81,62.81,0,0,1-.33,7.51s.15,0,.16,0a62.81,62.81,0,0,0,.33-7.51s-.16,0-.16,0Z"/><path class="cls-1" d="M85.73,49.87A37.09,37.09,0,0,1,83.4,57.7s.14,0,.16,0a37.18,37.18,0,0,0,2.33-7.84s-.16,0-.16,0Z"/><path class="cls-1" d="M83.73,50.52a29.68,29.68,0,0,1-4.65,8.81s.13,0,.15,0a29.53,29.53,0,0,0,4.66-8.82s-.15,0-.16,0Z"/><path class="cls-1" d="M81.74,51.82c-1.58,3.12-3,6.4-5.64,8.8-.07.06.09,0,.12,0,2.69-2.41,4.09-5.69,5.68-8.83,0,0-.14,0-.16,0Z"/><path class="cls-1" d="M78.74,52.8a24.66,24.66,0,0,1-4.65,7.82c0,.06.12.05.15,0a24.75,24.75,0,0,0,4.66-7.85c0-.06-.14,0-.16,0Z"/><path class="cls-1" d="M77.08,53.11a32.26,32.26,0,0,1-4,5.87c-.06.07.09.07.13,0a31.67,31.67,0,0,0,4-5.89c0-.07-.12-.06-.15,0Z"/><path class="cls-1" d="M75.76,53.1c-1.32,1.33-2.34,2.91-3.66,4.24-.07.07.09.09.14,0,1.32-1.33,2.33-2.91,3.65-4.24.07-.07-.08-.09-.13,0Z"/><path class="cls-1" d="M74.09,52.15a37.54,37.54,0,0,1-3.32,3.59s.12,0,.14,0a36.5,36.5,0,0,0,3.33-3.6.23.23,0,0,0-.15,0Z"/><path class="cls-1" d="M71.09,52.48a6.27,6.27,0,0,1-1.65,2.27s.11,0,.14,0a6.28,6.28,0,0,0,1.67-2.3s-.14,0-.16,0Z"/><path class="cls-1" d="M69.13,52.12l-2,1c-.09,0,.05.06.1,0l2-1c.1,0,0-.06-.09,0Z"/><path class="cls-1" d="M65.47,51.8a3.87,3.87,0,0,1-1.58.63s-.18.07-.07.07a4.1,4.1,0,0,0,1.74-.68c.1,0,0,0-.09,0Z"/><path class="cls-1" d="M62.12,51.49a1.39,1.39,0,0,1-.85.5,1.5,1.5,0,0,1-.67-.21s-.16,0-.15.06a1.4,1.4,0,0,0,.89.2,2,2,0,0,0,.92-.56s-.12,0-.14,0Z"/><path class="cls-1" d="M59.87,50.13a1.8,1.8,0,0,0-1.07.68c-.07.07.08.09.13,0,.25-.24.55-.6.92-.62.09,0,.13-.11,0-.1Z"/><path class="cls-1" d="M75.08,52.14c0,.78-.31,1.52-.33,2.29,0,.08.16,0,.16,0,0-.77.31-1.51.33-2.28,0-.08-.16-.05-.16,0Z"/><path class="cls-1" d="M76.75,52.48a17.39,17.39,0,0,0-.67,3.92s.16,0,.16,0a17.3,17.3,0,0,1,.67-3.91s-.15,0-.16,0Z"/><path class="cls-1" d="M77.74,51.18a26.18,26.18,0,0,0,0,6.85s.17,0,.16,0a26.18,26.18,0,0,1,0-6.85s-.15,0-.16,0Z"/><path class="cls-1" d="M79.74,50.51a66.32,66.32,0,0,0,0,7.85c0,.07.17,0,.16,0a68,68,0,0,1,0-7.82c0-.08-.16-.06-.16,0Z"/><path class="cls-1" d="M80.4,49.22c.34,2.49.37,5,.67,7.51,0,.06.17,0,.16,0-.3-2.5-.33-5-.66-7.51,0-.07-.17,0-.17,0Z"/><path class="cls-1" d="M81.73,48.55a55.68,55.68,0,0,0,.34,7.53c0,.06.17,0,.16,0a56.74,56.74,0,0,1-.33-7.49c0-.08-.17,0-.17,0Z"/><path class="cls-1" d="M82.4,47.91a24.29,24.29,0,0,0,.67,6.53s.16,0,.16,0a24.29,24.29,0,0,1-.67-6.53s-.16,0-.16,0Z"/><path class="cls-1" d="M83.4,45.62a35.55,35.55,0,0,0,.66,8.17c0,.06.18,0,.16,0a35.34,35.34,0,0,1-.66-8.15c0-.07-.16,0-.16,0Z"/><path class="cls-1" d="M84.4,45c.3,2.82.36,5.66.66,8.48,0,.08.17,0,.16,0-.3-2.82-.36-5.66-.66-8.49,0-.07-.17,0-.16,0Z"/><path class="cls-1" d="M85.39,44a42.14,42.14,0,0,0,.67,8.83c0,.07.18,0,.16,0a42.53,42.53,0,0,1-.66-8.8c0-.08-.17-.06-.17,0Z"/><path class="cls-1" d="M85.39,43.35c.65,3.56,1,7.16,1.33,10.77,0,0,.17,0,.17,0-.34-3.6-.69-7.2-1.33-10.77,0,0-.17,0-.17.05Z"/><path class="cls-1" d="M86.39,47.26c.33,3.27.67,6.53,1,9.8,0,0,.17,0,.16-.05-.33-3.26-.66-6.53-1-9.79,0,0-.16,0-.16,0Z"/><path class="cls-1" d="M77.76,58c-2.5,1.55-4.92,3.22-7.33,4.91,0,0,.12,0,.15,0,2.4-1.68,4.81-3.34,7.31-4.89.06,0-.1,0-.13,0Z"/><path class="cls-1" d="M80.43,58a103.19,103.19,0,0,0-9.64,6.53c-.09.06,0,.11.1.06a103.24,103.24,0,0,1,9.65-6.52c.09-.06,0-.11-.11-.07Z"/><path class="cls-1" d="M81.76,58.63C78.3,61,74.64,63.09,71.45,65.81c-.08.08,0,.12.11.07,3.18-2.72,6.85-4.82,10.31-7.18.09-.06-.05-.11-.11-.07Z"/><path class="cls-1" d="M82.1,59.94c-3.21,2.07-6.91,3.86-9.33,6.87-.06.07.09.09.13,0,2.41-3,6.11-4.78,9.3-6.85.09-.06,0-.1-.1-.06Z"/><path class="cls-1" d="M83.08,60.94c-2.76,2-5.84,3.54-8.32,5.89-.05,0,.11,0,.14,0,2.48-2.34,5.56-3.88,8.31-5.86.07-.05-.09,0-.13,0Z"/><path class="cls-1" d="M82.75,62.58a23.63,23.63,0,0,0-5.33,4.25s.12,0,.14,0a23.49,23.49,0,0,1,5.32-4.23c.07-.05-.1,0-.13,0Z"/><path class="cls-1" d="M80.77,65.17a5.82,5.82,0,0,0-2.36,2.65c0,.05.14,0,.16,0a5.72,5.72,0,0,1,2.3-2.57c.09-.06-.05-.08-.1,0Z"/><path class="cls-1" d="M82.1,66.15a2.48,2.48,0,0,0-1,1,1.44,1.44,0,0,0,.28,1.33s.18,0,.15-.06a1.49,1.49,0,0,1-.3-1.2c.1-.46.57-.79.94-1,.09,0,0-.07-.1,0Z"/><path class="cls-1" d="M0,25a30.64,30.64,0,0,0,2.49,8.82c.09.2.72,0,.65-.17a30.34,30.34,0,0,1-2.5-8.82c0-.17-.66-.05-.64.17Z"/><path class="cls-1" d="M1.05,25.6C14.41,21.06,27.57,16.05,41,11.68,51.5,8.26,62.1,5,72.48,1.21c.67-.25,1.34-.5,2-.77.4-.18,0-.55-.3-.41-3.67,1.56-7.54,2.72-11.33,4C57,6,51.15,7.87,45.29,9.78c-12.24,4-24.31,8.29-36.44,12.6q-4,1.41-7.93,2.76c-.38.13-.26.6.13.46Z"/><path class="cls-1" d="M2.77,33.64C8.83,31.13,15.11,29.21,21.28,27c6.42-2.28,12.7-4.85,19.21-6.9,6.22-2,12.55-3.58,18.68-5.81,3.28-1.2,6.51-2.45,9.87-3.38A86.51,86.51,0,0,0,78,8.18c.41-.17,0-.33-.25-.22a99.39,99.39,0,0,1-9.91,3c-3,.85-5.93,2-8.86,3.1-6.46,2.37-13.14,4.06-19.69,6.14-6.17,2-12.12,4.4-18.2,6.58S8.59,30.91,2.53,33.42c-.42.17,0,.33.24.22Z"/><path class="cls-1" d="M74,.53c1.71,1.85,2.12,4.73,3.13,7,.11.25.75.06.64-.17-1-2.27-1.43-5.18-3.18-7.06-.17-.19-.79,0-.59.26Z"/><path class="cls-1" d="M.52,25.33c.6-.14,1.23-.15,1.83-.33.07,0,.32-.09.29-.21s-.29-.05-.35,0c-.6.18-1.23.19-1.84.33-.06,0-.31.09-.28.2s.28.05.35,0Z"/><path class="cls-1" d="M.69,25.19c.55-.17,1.12-.31,1.67-.49.08,0,.31-.1.28-.23s-.28-.09-.36-.07c-.55.18-1.12.32-1.67.49-.08,0-.31.11-.28.24s.28.09.36.06Z"/><path class="cls-1" d="M.67,24.75a4.23,4.23,0,0,1,1.77-.24c.12,0,.73-.24.42-.24a6.11,6.11,0,0,0-2.55.41c-.39.18.22.13.36.07Z"/><path class="cls-1" d="M1.56,24.16a8.37,8.37,0,0,0-1,1.19c-.09.13.07.21.18.22a.49.49,0,0,0,.42-.18,7.72,7.72,0,0,1,1-1.1c.1-.09.07-.21-.07-.25a.49.49,0,0,0-.45.12Z"/><path class="cls-1" d="M2.46,24.34A4,4,0,0,0,.67,25.91c-.06.11.54.06.64-.1a3.4,3.4,0,0,1,1.53-1.37c.06,0,.22-.14.07-.18a.65.65,0,0,0-.45.08Z"/><path class="cls-1" d="M3.2,24.31A4.32,4.32,0,0,0,.84,26.57c-.06.1.55.05.63-.11a3.78,3.78,0,0,1,2-2c.43-.16,0-.24-.23-.16Z"/><path class="cls-1" d="M3.63,24.5A7.62,7.62,0,0,0,1,27.22c-.06.09.53.05.64-.11A7.16,7.16,0,0,1,4,24.61c.38-.2-.21-.2-.37-.11Z"/><path class="cls-1" d="M3.93,24.9A8.76,8.76,0,0,0,1.51,28c-.15.32.5.31.61.06a8.09,8.09,0,0,1,2.24-2.83c.33-.28-.19-.47-.43-.28Z"/><path class="cls-1" d="M4.11,26.24A4.1,4.1,0,0,0,2.49,28.5c-.06.27.59.17.65-.06a3.6,3.6,0,0,1,1.38-2c.34-.26-.19-.39-.41-.22Z"/><path class="cls-1" d="M4.5,27.22c-.21.39-.47.75-.67,1.14-.05.11.23.07.26.06s.32-.06.37-.17c.21-.39.47-.75.67-1.14,0-.1-.23-.07-.26-.06s-.32.06-.37.17Z"/><path class="cls-1" d="M3.43,26.91a10.93,10.93,0,0,0,2.34-1.24c.12-.09-.11-.1-.15-.1a.83.83,0,0,0-.43.15,9,9,0,0,1-2,1.05c-.42.17,0,.23.23.14Z"/><path class="cls-1" d="M2.54,26.39a20.65,20.65,0,0,0,4.07-1.34c.4-.19,0-.49-.27-.34A20.53,20.53,0,0,1,2.43,26c-.4.1-.29.51.11.41Z"/><path class="cls-1" d="M2.69,25.84a44.34,44.34,0,0,0,4.24-1.33c.42-.16,0-.34-.25-.23-1.33.48-2.69.92-4.07,1.27-.38.1-.3.38.08.29Z"/><path class="cls-1" d="M2.36,25.54c1.44-.46,2.87-.94,4.33-1.3.39-.1.29-.45-.1-.35-1.46.37-2.89.84-4.32,1.31-.38.12-.29.47.09.34Z"/><path class="cls-1" d="M1.43,24.79c1.78-.62,3.59-1.12,5.4-1.61.38-.1.33-.29,0-.19-1.87.5-3.74,1-5.57,1.65-.43.16,0,.23.22.15Z"/><path class="cls-1" d="M2.36,24.53c1.95-.55,3.81-1.35,5.73-2,.43-.14,0-.31-.24-.22-1.86.62-3.67,1.4-5.57,1.93-.38.11-.31.38.08.28Z"/><path class="cls-1" d="M2.49,33.61a14.1,14.1,0,0,0,.18,3.73,3.46,3.46,0,0,0,2.5,2.17,1,1,0,0,0,.61-.21,3.44,3.44,0,0,1-2.53-2.36,13.15,13.15,0,0,1-.11-3.49c0-.09-.64,0-.65.16Z"/><path class="cls-1" d="M2.9,34c-.17.11-.54.36-.48.61,0,.1.18.11.27.11a1.86,1.86,0,0,0,.73-.17s.29-.11.2-.17-.31,0-.41,0L3,34.5h0s0-.06,0-.09A.81.81,0,0,1,3.39,34c.1-.06.1-.12,0-.12A.76.76,0,0,0,2.9,34Z"/><path class="cls-1" d="M4.11,33.42A4.06,4.06,0,0,0,2.66,35.2c-.09.24.56.16.65-.07a3.44,3.44,0,0,1,1.21-1.49c.34-.26-.19-.39-.41-.22Z"/><path class="cls-1" d="M5,33.11a11.36,11.36,0,0,0-2,2.83c-.17.32.48.33.61.08a11,11,0,0,1,2-2.72c.28-.28-.33-.4-.54-.19Z"/><path class="cls-1" d="M5.22,34.14a6,6,0,0,0-1.89,2.7c-.07.2.57.11.64-.09a5.65,5.65,0,0,1,1.76-2.52C6,34,5.37,34,5.22,34.14Z"/><path class="cls-1" d="M5.52,35.35a2.68,2.68,0,0,0-1,1.69c0,.09.64,0,.64-.17a2.49,2.49,0,0,1,1-1.57c.1-.1-.09-.1-.15-.1a.83.83,0,0,0-.43.15Z"/><path class="cls-1" d="M6.16,35.87A10.14,10.14,0,0,0,5.49,37c0,.1.58,0,.64-.12a8.65,8.65,0,0,1,.66-1.14c0-.1-.23-.06-.25,0s-.32.06-.38.16Z"/><path class="cls-1" d="M7.33,36.6a1.69,1.69,0,0,0-.2.46.61.61,0,0,0,.21.53.41.41,0,0,0,.44,0c.1-.05.27-.2.15-.32a.36.36,0,0,1-.15-.3A1,1,0,0,1,8,36.66c.07-.14-.07-.24-.2-.25a.44.44,0,0,0-.42.19Z"/><path class="cls-1" d="M8.48,36.67a2.38,2.38,0,0,0-.16,1c0,.18.64.07.64-.16a2.15,2.15,0,0,1,.16-.94c.07-.13-.22-.13-.27-.12a.46.46,0,0,0-.37.2Z"/><path class="cls-1" d="M8,36.94A4.52,4.52,0,0,1,7.38,38a.14.14,0,0,0,.07.26.45.45,0,0,0,.45-.12A4.22,4.22,0,0,0,8.61,37c.15-.3-.5-.26-.61,0Z"/><path class="cls-1" d="M9.06,89.43a60.62,60.62,0,0,1-1.54-9.68l0-.5-.21-2.74c-.94-12.31-1.83-24-2.45-35.79l.33,0C5.76,52.54,6.65,64.17,7.6,76.49l.26,3.23a57.68,57.68,0,0,0,1.53,9.63Z"/><path class="cls-1" d="M15.88,93.06h-.47v-.33a108,108,0,0,0,14.82-1.26c8.64-1.14,17.18-2.38,25.44-3.59s16.8-2.44,25.45-3.59a21.51,21.51,0,0,0,2.49-.54,11.77,11.77,0,0,1,4.06-.57l0,.33a11.66,11.66,0,0,0-3.94.55,23.66,23.66,0,0,1-2.54.56C72.53,85.76,64,87,55.73,88.21s-16.8,2.44-25.45,3.59A113.2,113.2,0,0,1,15.88,93.06Z"/><path class="cls-1" d="M90.7,78.13l-.81-6.27q-.7-5.4-1.42-10.8C87,50.17,85.55,38.93,84.26,27.83c0-.22-.06-.44-.08-.67h0a1.31,1.31,0,0,1-.57-.18,1.15,1.15,0,0,0-.42-.14c-.8.16-1.64.4-2.45.64a24.39,24.39,0,0,1-2.51.66c-3.26.46-6.46.88-9.55,1.28-6,.78-11.57,1.52-17.46,2.48-10.1,1.52-20.37,3-30.3,4.49L6,38.59l-.31,0,.14-.27c.15-.32.28-.65.41-1s.26-.67.42-1l.3.14c-.15.31-.29.65-.41,1s-.19.47-.3.71l14.58-2.15c9.93-1.46,20.2-3,30.3-4.49,5.89-1,11.51-1.7,17.46-2.48,3.1-.41,6.3-.83,9.54-1.28.82-.16,1.66-.41,2.47-.65s1.67-.49,2.51-.65a1.32,1.32,0,0,1,.61.17,1.2,1.2,0,0,0,.32.13l0-.08.12-.31.18.27a.67.67,0,0,1,.06.12h0c0,.05,0,.1,0,.15a3.79,3.79,0,0,1,.14,1c0,.13,0,.26,0,.37h0c1.27,10.93,2.73,22,4.15,32.7q.7,5.4,1.42,10.81L91,78.09Z"/><path class="cls-1" d="M5.49,36c-.17.87-.32,1.74-.5,2.61l.64-.1a4.31,4.31,0,0,0-.33-2.48c-.08-.18-.58,0-.64.13A6.93,6.93,0,0,0,4.16,39l.64-.17a17.93,17.93,0,0,0-.5-2.61c0-.16-.67,0-.64.17a9.17,9.17,0,0,1,0,2l.64-.17A8.94,8.94,0,0,0,3.8,37c-.08-.17-.7,0-.64.17a23,23,0,0,0,1.66,3.42c.12.18.71-.06.65-.17A23,23,0,0,1,3.8,37l-.64.17a8.94,8.94,0,0,1,.5,1.14c.06.17.64,0,.64-.17a8.57,8.57,0,0,0,0-2l-.64.17A17.93,17.93,0,0,1,4.16,39c0,.14.64,0,.64-.17a6.94,6.94,0,0,1,.5-2.74l-.64.14A4.16,4.16,0,0,1,5,38.64c0,.19.61.07.64-.1.17-.87.32-1.74.5-2.61,0-.18-.6-.07-.64.1Z"/><path class="cls-1" d="M5.9,36a14.25,14.25,0,0,1,1.6-.94c.07,0,.21-.16.07-.21a.67.67,0,0,0-.46.07,16.55,16.55,0,0,0-1.72,1c-.11.07-.07.16.05.18A.74.74,0,0,0,5.9,36Z"/><path class="cls-1" d="M4.36,35.94a8.45,8.45,0,0,1,2.5-1.23c.38-.13.28-.53-.11-.4a9.43,9.43,0,0,0-2.81,1.38c-.35.26.18.43.42.25Z"/><path class="cls-1" d="M4.5,34.87A12.37,12.37,0,0,1,6.58,34c.24-.05.57-.31.12-.21a16.36,16.36,0,0,0-2.57,1.06c-.39.15.22.11.37.06Z"/><path class="cls-1" d="M4.33,34.38A23.7,23.7,0,0,1,7.25,33.1c.43-.15,0-.2-.22-.12A26.84,26.84,0,0,0,4,34.31c-.37.19.23.14.37.07Z"/><path class="cls-1" d="M3.45,34.19c1.79-.64,3.58-1.27,5.41-1.77.39-.11.28-.5-.11-.39C6.86,32.55,5,33.2,3.18,33.85c-.42.15-.05.45.27.34Z"/><path class="cls-1" d="M4.5,33.4c2.31-1,4.67-1.81,7-2.77.39-.17-.22-.13-.37-.07-2.31,1-4.67,1.81-7,2.77-.39.16.22.13.37.07Z"/><path class="cls-1" d="M4.44,33.53c1.28-1.65,3.49-2.27,5.48-2.62.29-.05.54-.39.1-.31-2.23.38-4.74,1.09-6.17,2.93-.16.21.48.15.59,0Z"/><path class="cls-1" d="M1.79,34.68c3.1-1.2,6.09-2.64,9.15-3.91.41-.17,0-.49-.28-.35-3.06,1.28-6,2.71-9.15,3.92-.41.16,0,.47.28.34Z"/><path class="cls-1" d="M10.17,31.26c-2-.31-3.38,1.66-4.49,2.93-.16.19.48.12.59,0,.81-.94,2.07-2.84,3.49-2.62.17,0,.76-.25.41-.3Z"/><path class="cls-1" d="M9.94,31.82A13.08,13.08,0,0,0,6,35.17c-.16.2.48.13.59,0A12.32,12.32,0,0,1,10.33,32c.37-.21-.2-.25-.39-.15Z"/><path class="cls-1" d="M9,34.11A4.64,4.64,0,0,1,7.5,35.49c-.39.2,0,.48.27.32a5.27,5.27,0,0,0,1.8-1.55c.24-.31-.38-.35-.53-.15Z"/><path class="cls-1" d="M2,32.93a9.27,9.27,0,0,0,.16,3c0,.15.64,0,.64-.17v-.82c0-.11-.64,0-.64.17v.82l.64-.17a9.5,9.5,0,0,1-.17-2.91c0-.17-.61,0-.63.11Z"/><path class="cls-1" d="M2,33.39a21,21,0,0,0-.16,3.27c0,.32.65.21.65-.06a20.89,20.89,0,0,1,.16-3.26c0-.31-.61-.21-.65,0Z"/><path class="cls-1" d="M2.16,33.9c-1.45,3,.64,4.8,2.52,6.93.14.17.76-.06.6-.24-1.83-2.08-3.9-3.85-2.48-6.77.1-.19-.54-.12-.64.08Z"/><path class="cls-1" d="M2.35,37.57a5.25,5.25,0,0,1,1.31,2.08l.58-.23A1.18,1.18,0,0,1,3.8,39l-.62.2c1,1.17,1.53,2.59,2.5,3.76.14.17.75-.06.59-.25-1-1.17-1.53-2.58-2.49-3.75-.12-.15-.71,0-.62.2a1.44,1.44,0,0,0,.56.56c.13.09.65,0,.58-.24A5.63,5.63,0,0,0,3,37.32c-.16-.16-.77.08-.6.25Z"/><path class="cls-1" d="M6.85,37.79A15.09,15.09,0,0,0,5.49,40c0,.11.55.06.64-.11a13.94,13.94,0,0,1,1.3-2.08c.14-.18-.49-.09-.58,0Z"/><path class="cls-1" d="M7,38.49a4.51,4.51,0,0,0-1.22,2.57c0,.34.64.25.65,0a4,4,0,0,1,1.11-2.33c.25-.32-.36-.43-.54-.2Z"/><path class="cls-1" d="M7.5,39.39a8,8,0,0,0-1,2.66c0,.25.42.14.52.07.25-.16.58-.16.83-.32l-.52,0a4.36,4.36,0,0,1,0,1.25c0,.28.63.16.64-.07a4.37,4.37,0,0,0,0-1.35c0-.2-.42-.09-.52,0-.25.17-.58.17-.84.33l.53.07a7.68,7.68,0,0,1,1-2.56c.16-.27-.49-.22-.61,0Z"/><path class="cls-1" d="M9.48,89a2.71,2.71,0,0,0,1,1.34.45.45,0,0,0,.42,0c.06,0,.3-.16.18-.25a2.55,2.55,0,0,1-1-1.26c-.07-.22-.71,0-.64.17Z"/><path class="cls-1" d="M9.31,89a4.14,4.14,0,0,0,1,1.81c.11.12.7-.11.61-.21a4,4,0,0,1-1-1.77c0-.14-.68,0-.65.17Z"/><path class="cls-1" d="M9,89.11a3.56,3.56,0,0,0,1.8,2.08c.25.1.74-.25.37-.41a3.18,3.18,0,0,1-1.53-1.84c-.11-.27-.75-.09-.64.17Z"/><path class="cls-1" d="M8.81,89.27a4.44,4.44,0,0,0,2.89,3c.17.06.75-.18.52-.27A4.25,4.25,0,0,1,9.46,89.1c-.05-.17-.69,0-.65.17Z"/><path class="cls-1" d="M10.72,91.17a6.8,6.8,0,0,0,2.22,1.34c.29.11.75-.29.37-.44a6.35,6.35,0,0,1-2.1-1.27c-.21-.21-.76.11-.49.37Z"/><path class="cls-1" d="M11.66,91.75a2.85,2.85,0,0,0,2.33.49c.06,0,.32-.09.29-.2s-.29,0-.35,0a2.16,2.16,0,0,1-1.67-.49c-.15-.1-.71.15-.6.23Z"/><path class="cls-1" d="M12.49,92.24a5.61,5.61,0,0,0,3.24.34c.27,0,.57-.32.12-.26A4.63,4.63,0,0,1,13.1,92c-.18-.07-.7.18-.61.23Z"/><path class="cls-1" d="M13.21,91.8a6,6,0,0,0,2,1c.24.06.76-.28.39-.37a5.78,5.78,0,0,1-1.94-1c-.19-.14-.78.13-.5.33Z"/><path class="cls-1" d="M13,92.39a5.24,5.24,0,0,0,3.49.67c.15,0,.7-.29.28-.23a4.78,4.78,0,0,1-3.16-.64c-.15-.1-.67.16-.61.2Z"/><path class="cls-1" d="M11,91.56A2.75,2.75,0,0,0,14.6,93c.41-.15.05-.49-.28-.36a2.13,2.13,0,0,1-2.7-1.21c-.12-.28-.76-.1-.64.17Z"/><path class="cls-1" d="M11.87,91.78a8.66,8.66,0,0,0,3.39,1.16c.19,0,.75-.27.39-.33a8.22,8.22,0,0,1-3.26-1.12c-.17-.1-.77.14-.52.29Z"/><path class="cls-1" d="M10.5,88.16c-.3.31-.53.68-.83,1-.14.14.17.19.27.09.3-.3.52-.67.83-1,.14-.14-.17-.19-.27-.09Z"/><path class="cls-1" d="M11.52,87.8a2.78,2.78,0,0,0-1,1.37c-.07.17.26.18.31,0a2.45,2.45,0,0,1,1-1.25c.18-.12-.08-.25-.22-.16Z"/><path class="cls-1" d="M11.81,87.91a8.93,8.93,0,0,0-1,2.12c0,.07.3,0,.31,0a9.61,9.61,0,0,1,1-2.13s-.27,0-.31.06Z"/><path class="cls-1" d="M12.31,88.54a4.56,4.56,0,0,0-1.17,2.3c0,.11.3,0,.32,0a4.48,4.48,0,0,1,1.15-2.27c.09-.09-.23-.06-.3,0Z"/><path class="cls-1" d="M12.81,88.52a6.78,6.78,0,0,0-1,2.32c0,.13.29.08.33,0a6.59,6.59,0,0,1,1-2.26c.1-.12-.23-.11-.3,0Z"/><path class="cls-1" d="M13.3,89.05a6.45,6.45,0,0,0-1,2.12c0,.07.3,0,.32,0a6.26,6.26,0,0,1,1-2.12s-.26,0-.32,0Z"/><path class="cls-1" d="M13.63,90.19a9.7,9.7,0,0,1-.5,1.3c0,.08.28.05.32,0a10.38,10.38,0,0,0,.5-1.31c0-.09-.28,0-.32,0Z"/><path class="cls-1" d="M12.81,90.17a3.58,3.58,0,0,0-.67,1c0,.08.27,0,.32,0a3.64,3.64,0,0,1,.65-1c.05-.06,0-.08-.08-.08a.3.3,0,0,0-.22.08Z"/><path class="cls-1" d="M10.14,87.57c0,.5-.15,1-.17,1.47l.32-.06a17.74,17.74,0,0,0-.83-3.1c0-.12-.3,0-.32.06a12,12,0,0,0,.17,2.8c0,.12.33.05.32-.08a12.11,12.11,0,0,1-.17-2.75L9.14,86a17.28,17.28,0,0,1,.83,3.1c0,.11.32,0,.33-.06,0-.5.14-1,.16-1.47,0-.14-.32-.09-.32,0Z"/><path class="cls-1" d="M9.3,87a.69.69,0,0,0-.18-.35c-.1-.1-.41,0-.3.14a.45.45,0,0,1,.16.3c0,.14.33.06.32-.09Z"/><path class="cls-1" d="M8.64,86c.3.92.48,1.87.83,2.77,0,.13.35.05.33-.08A13.8,13.8,0,0,0,9.13,86c0-.11-.33-.06-.32.06a10,10,0,0,0,1,3.78c0,.13.37,0,.32-.08a10.14,10.14,0,0,1-1-3.73l-.32.06a13.14,13.14,0,0,1,.66,2.61l.33-.08c-.35-.91-.54-1.86-.84-2.78,0-.13-.36,0-.32.09Z"/><path class="cls-1" d="M11,89.9a6.18,6.18,0,0,0,3,2.3c.09,0,.39-.09.25-.15a6.16,6.16,0,0,1-3-2.27c0-.09-.37,0-.3.12Z"/><path class="cls-1" d="M12.8,89.88a5.68,5.68,0,0,0,2,1.48c.08,0,.32-.09.3-.1a5.77,5.77,0,0,1-2-1.46c0-.07-.34.06-.32.08Z"/><path class="cls-1" d="M13.48,90.07a6.89,6.89,0,0,0,2.22,1.51c.14.06.37-.14.18-.22a6.46,6.46,0,0,1-2.11-1.43c-.1-.1-.41,0-.29.14Z"/><path class="cls-1" d="M90.64,78.62a4.43,4.43,0,0,1-2.73,4.3c-.21.1,0,.2.12.13A4.66,4.66,0,0,0,91,78.54c0-.1-.33,0-.32.08Z"/><path class="cls-1" d="M86.66,83.89c1.86-.53,3.89-1.76,4-3.86,0-.14-.31-.08-.32,0-.07,2-1.92,3.15-3.68,3.65-.2,0-.15.22,0,.17Z"/><path class="cls-1" d="M90.14,78.92A4.37,4.37,0,0,1,88.2,82.6c-.18.12.09.18.2.11a4.54,4.54,0,0,0,2.06-3.82c0-.14-.32-.08-.32,0Z"/><path class="cls-1" d="M89.31,80.23a30.29,30.29,0,0,1-1.82,2.92c-.08.11.24.07.29,0a30.43,30.43,0,0,0,1.85-3c0-.08-.28,0-.32,0Z"/><path class="cls-1" d="M88.48,80.24a18.44,18.44,0,0,1-2.15,2.6c-.07.06.23,0,.29,0a18.16,18.16,0,0,0,2.17-2.63s-.26,0-.31.06Z"/><path class="cls-1" d="M86.31,81.38A8.47,8.47,0,0,1,84.5,83c-.06,0,.23,0,.29,0a8.77,8.77,0,0,0,1.84-1.65s-.26,0-.32.06Z"/><path class="cls-1" d="M85,81.31a6.43,6.43,0,0,1-1.44,1.26c-.19.1,0,.27.15.18a6.68,6.68,0,0,0,1.56-1.35c.14-.14-.17-.19-.27-.09Z"/><path class="cls-1" d="M83.49,81.06a4.75,4.75,0,0,1-1,1s0,0,.08,0a.42.42,0,0,0,.21-.08,4.52,4.52,0,0,0,1-1s-.27,0-.31.06Z"/><path class="cls-1" d="M83.32,81.37v.32c0,.16.32.1.32,0v-.32c0-.16-.32-.1-.32,0Z"/><path class="cls-1" d="M84.65,80.72c-.15.48-.18,1-.34,1.47,0,.12.29.08.33,0,.15-.48.18-1,.33-1.47,0-.12-.29-.08-.32,0Z"/><path class="cls-1" d="M85.65,80.55a5.45,5.45,0,0,0-.34,1.64c0,.14.32.08.33,0A5.37,5.37,0,0,1,86,80.52c0-.12-.29-.08-.32,0Z"/><path class="cls-1" d="M86.48,80.38a11.84,11.84,0,0,0-.34,2.29c0,.17.33.13.33,0a11.82,11.82,0,0,1,.33-2.29c0-.16-.29-.12-.32,0Z"/><path class="cls-1" d="M87.31,80.09c0,.66-.15,1.3-.17,2,0,0,.32,0,.32-.09,0-.65.16-1.3.17-1.95,0,0-.32,0-.32.08Z"/><path class="cls-1" d="M87.81,80.09a4.76,4.76,0,0,1-.17,1.45c0,.09.29,0,.32-.05A4.62,4.62,0,0,0,88.13,80c0-.08-.32,0-.32.08Z"/><path class="cls-1" d="M88.64,79.93v1.3s.32,0,.32-.08V79.84s-.32,0-.32.09Z"/><path class="cls-1" d="M89.47,79.25a2.75,2.75,0,0,0,.17,1.65c0,.12.35,0,.32-.08a2.78,2.78,0,0,1-.17-1.61c0-.11-.29-.06-.32,0Z"/><path class="cls-1" d="M85.22,83.42a1.72,1.72,0,0,0,1.86-.2c.16-.14-.09-.25-.22-.15a1.3,1.3,0,0,1-1.46.13c-.14-.06-.37.14-.18.22Z"/><path class="cls-1" d="M85.16,83.21c1.19,1,2.74.14,3.77-.68.15-.12-.17-.14-.26-.07-.88.71-2.18,1.52-3.21.62-.1-.08-.4,0-.3.13Z"/><path class="cls-1" d="M10.73,30.81c2.13-1.36,4.93-1.49,7.39-1.8s5-.72,7.56-1c3.05-.35,6-1.08,9-1.63,3.36-.62,6.74-1.13,10.12-1.67C57.7,22.64,70.42,20,83.46,18.94c.17,0,.26-.21,0-.2C69.83,19.8,56.48,22.66,43,24.8c-6.56,1-13,2.51-19.65,3.27-2.5.28-5,.7-7.48,1a13.15,13.15,0,0,0-5.32,1.59c-.18.12.09.18.2.11Z"/><path class="cls-1" d="M83.15,19.54c-.17,1.79.29,3.58,0,5.38l.32-.08a27.59,27.59,0,0,0,0-5.06l-.32.08c.17,1.8.32,3.59.33,5.39l.33-.09a26.64,26.64,0,0,1-.17-4.89l-.32.08c.17,2.23.47,4.45.5,6.69,0,0,.32,0,.32-.08,0-2.24-.33-4.46-.5-6.69,0-.05-.32,0-.32.08a26.72,26.72,0,0,0,.16,4.9c0,.05.33,0,.33-.09,0-1.8-.17-3.59-.34-5.38,0-.05-.32,0-.32.08a28.5,28.5,0,0,1,0,5.06s.31,0,.32-.08c.29-1.8-.17-3.59,0-5.39,0,0-.31,0-.32.09Z"/><path class="cls-1" d="M80.22,28.08a7.63,7.63,0,0,1,3.25-.47c.18,0,.24-.24,0-.24a8.05,8.05,0,0,0-3.41.51c-.2.1,0,.27.14.2Z"/><path class="cls-1" d="M79.6,27.77a10.72,10.72,0,0,0,3.91-.17c.2-.05.14-.27-.06-.22a10.22,10.22,0,0,1-3.74.16c-.16,0-.33.21-.11.23Z"/><path class="cls-1" d="M79.69,27.24a8.17,8.17,0,0,0,3.93.17c.15,0,.27-.19,0-.16A7.67,7.67,0,0,1,80,27.09c-.09,0-.38.1-.26.15Z"/><path class="cls-1" d="M81.59,27.58A3.64,3.64,0,0,0,83,27.23c.2-.1,0-.19-.12-.13a3,3,0,0,1-1.21.31c-.11,0-.34.17-.12.17Z"/><path class="cls-1" d="M81.38,27.1a6,6,0,0,1-1.3.8c-.2.07,0,.22.14.16a6.86,6.86,0,0,0,1.37-.83c.18-.12-.09-.21-.21-.13Z"/><path class="cls-1" d="M80.21,27.75a6.29,6.29,0,0,1-1.42.77c-.19.07-.13.29.06.22a7.53,7.53,0,0,0,1.58-.85c.18-.12-.09-.23-.22-.14Z"/><path class="cls-1" d="M79,27.63A9.07,9.07,0,0,1,77.1,28.9c-.21.08,0,.18.12.12a9.35,9.35,0,0,0,2.06-1.34c.15-.11-.18-.11-.25-.05Z"/><path class="cls-1" d="M77.18,28.31a4,4,0,0,1-1,.61s-.1.08,0,.11a.28.28,0,0,0,.22,0,4.15,4.15,0,0,0,1-.69c.06-.06,0-.08-.08-.08a.3.3,0,0,0-.21.08Z"/><path class="cls-1" d="M75.35,29a.34.34,0,0,0,0,.53c.06.06.36-.05.31-.1a.29.29,0,0,1,0-.45c.07-.07-.24,0-.29,0Z"/><path class="cls-1" d="M78.86,27.47a27.14,27.14,0,0,0-2.33,2c-.13.12.19.11.26,0a29,29,0,0,1,2.33-1.95c.14-.12-.18-.11-.26-.05Z"/><path class="cls-1" d="M80.89,27a17.21,17.21,0,0,0-3.71,3.14c-.09.1.23.07.29,0A16.83,16.83,0,0,1,81.08,27c.19-.11-.1-.14-.19-.08Z"/><path class="cls-1" d="M81.92,27a8.61,8.61,0,0,0-4.08,3.65c-.07.1.25,0,.3,0,1-1.44,2.16-3,3.9-3.54.22-.07,0-.14-.12-.1Z"/><path class="cls-1" d="M82.38,27.13a19.23,19.23,0,0,0-4.54,4.28c-.08.09.24.06.3,0a18.5,18.5,0,0,1,4.44-4.21c.19-.1-.1-.12-.2-.07Z"/><path class="cls-1" d="M83,27.27c-2,1.19-3.29,3-4.7,4.78-.1.12.23.11.3,0,1.39-1.72,2.67-3.53,4.61-4.69.18-.11-.09-.17-.21-.11Z"/><path class="cls-1" d="M83.18,27.46a20.82,20.82,0,0,0-4,4.27c-.09.12.24.1.3,0a20.64,20.64,0,0,1,4-4.22c.15-.11-.17-.13-.26-.06Z"/><path class="cls-1" d="M82.83,27.83A19.65,19.65,0,0,0,80,32.09s.28,0,.32-.06a19,19,0,0,1,2.82-4.22c.06-.07-.24,0-.3,0Z"/><path class="cls-1" d="M82.33,28.79c-.33.68-.5,1.43-.83,2.12-.07.15.25.12.3,0,.33-.69.5-1.44.83-2.12.07-.15-.25-.12-.3,0Z"/><path class="cls-1" d="M82.32,28.66a26.29,26.29,0,0,0-.66,3.43c0,.09.3,0,.31-.05a26.31,26.31,0,0,1,.67-3.43c0-.08-.29,0-.32.05Z"/><path class="cls-1" d="M82.48,28.16c0,1.68-.15,3.37-.16,5.06,0,.16.32.12.32,0,0-1.69.16-3.37.17-5.06,0-.16-.32-.12-.33,0Z"/><path class="cls-1" d="M83.31,28.79c-.21-.54-.21-.21,0,1,0,.59,0,1.2,0,1.79a20.88,20.88,0,0,0,.16,2.51c0,.14.33.08.33-.05,0-1,0-2.07-.09-3.1,0-.41,0-.82,0-1.23,0-.2,0-.41,0-.62.2-.54.1-.73-.29-.58.16,2.09.48,4.17.78,6.23,0,.16.33.07.32-.08-.09-1-.21-2-.32-3A18.8,18.8,0,0,1,84,29.3c0-1-.12-.57,0,0,.31,2.11.26,4.25.65,6.36,0,.16.34.07.32-.08-.08-.73-.18-1.46-.28-2.19,0-.37-.09-.75-.13-1.12.31-1,.18-1.32-.36-1,.17,1.92.48,3.83.78,5.73,0,.15.35.07.32-.08-.33-2.12-.65-4.24-.83-6.37,0-.14-.33-.08-.32.05,0,1.71.31,3.4.5,5.09l.32-.08c-.46-2.48-.38-5-.83-7.51,0-.15-.31-.07-.33,0a31.33,31.33,0,0,0,.34,6.56l.32-.08c-.33-2.28-.65-4.56-.83-6.85,0-.14-.33-.08-.32,0,0,1.86.12,3.71.16,5.57.57,0,.63-.46.17-1.26,0-.6,0-1.21,0-1.81a17.35,17.35,0,0,0-.17-2.39c0-.14-.27-.07-.31,0a1.33,1.33,0,0,0-.18.85c0,.17.32.12.33,0Z"/><path class="cls-1" d="M8.4,38.33a5.39,5.39,0,0,0-1.89,1.52c-.13.16.18.21.27.09a5.19,5.19,0,0,1,1.76-1.42c.2-.1,0-.27-.14-.19Z"/><path class="cls-1" d="M8.18,38.9a13.72,13.72,0,0,0-2.85,2.47c-.08.09.24.06.29,0a13.88,13.88,0,0,1,2.81-2.43c.14-.09-.18-.08-.25,0Z"/><path class="cls-1" d="M8.53,39A9.31,9.31,0,0,0,5,42.66c-.07.15.25.13.31,0a8.87,8.87,0,0,1,3.44-3.54C8.92,39,8.65,39,8.53,39Z"/><path class="cls-1" d="M10,38.89a12.76,12.76,0,0,0-4.21,3.79c-.07.1.24,0,.29,0A12.51,12.51,0,0,1,10.23,39c.19-.11-.11-.11-.19-.06Z"/><path class="cls-1" d="M9.67,39.36c-1.42,1.55-2.9,3-4.16,4.73-.12.17.18.21.27.1C7,42.5,8.52,41,9.94,39.45c.13-.15-.18-.2-.27-.09Z"/><path class="cls-1" d="M10.2,40.5a15.52,15.52,0,0,0-4.71,5.1c-.07.14.25.11.3,0a15.23,15.23,0,0,1,4.61-5c.18-.13-.1-.18-.2-.1Z"/><path class="cls-1" d="M10.51,41.2a16.9,16.9,0,0,0-4.69,5.09s.26,0,.31-.06a16.81,16.81,0,0,1,4.63-5c.13-.09-.19-.05-.25,0Z"/><path class="cls-1" d="M11.19,41.8c-2.43,1.6-4.11,4-5.86,6.25-.1.12.23.11.3,0C7.36,45.85,9,43.49,11.4,41.91c.18-.12-.09-.19-.21-.11Z"/><path class="cls-1" d="M10.86,43.76a19.41,19.41,0,0,0-5,5.27c-.09.13.23.1.3,0a19.17,19.17,0,0,1,4.94-5.18c.18-.12-.1-.17-.21-.1Z"/><path class="cls-1" d="M10,45.59a20.63,20.63,0,0,0-3.35,3.94c-.07.1.25.06.29,0a20.54,20.54,0,0,1,3.31-3.9c.13-.11-.19-.08-.25,0Z"/><path class="cls-1" d="M9.32,48.22A10,10,0,0,0,8,50.36c0,.09.28,0,.32,0a9.39,9.39,0,0,1,1.32-2.1c.07-.11-.24-.07-.3,0Z"/><path class="cls-1" d="M8.81,51.51a3.38,3.38,0,0,1-.48,1c-.07.06.23,0,.29,0a3.32,3.32,0,0,0,.51-1c0-.05-.28,0-.32,0Z"/><path class="cls-1" d="M8.48,47.76C8,49.28,7.62,50.85,7,52.33l.32-.06a21.63,21.63,0,0,0,.5-6.21c0-.07-.31,0-.32.06-.31,1.52-.35,3.06-.66,4.57,0,.08.3,0,.31,0,.31-1.51.36-3.06.67-4.57l-.32.07A21.49,21.49,0,0,1,7,52.33c0,.08.29,0,.32-.06.63-1.48,1-3,1.5-4.57,0-.07-.29,0-.32.06Z"/><path class="cls-1" d="M7.13,47.85a12.47,12.47,0,0,0-.33-4.08c0-.06-.31,0-.32.07a42,42,0,0,0-.17,7.69s.33,0,.33-.09A40.17,40.17,0,0,0,6,44.1c0-.07-.31,0-.32.08A66.2,66.2,0,0,0,5.82,52s.32,0,.32-.09A66,66,0,0,1,6,44.1l-.32.08a39.4,39.4,0,0,1,.66,7.35l.33-.09c0-1.78-.14-3.55-.1-5.34,0-.34-.09-2.55.18-1.09a10.65,10.65,0,0,1,.09,2.93s.32,0,.32-.09Z"/><path class="cls-1" d="M6.14,49.81c-.2-1.92-.64-3.8-.84-5.71L5,44.18c.5,3.3.83,6.6,1,9.93,0,.16.3.11.33,0,.1-.52.19-1,.26-1.57.12-.87-.25-.55-.22.07,0,.9.18,1.81.3,2.7,0,.14.34.07.32-.08a33.33,33.33,0,0,1-.33-3.73c0-.16-.32-.11-.33,0a7.13,7.13,0,0,1-.07,1c0,.18,0,.36-.07.54-.22.55-.18.67.1.37,0-.85-.11-1.71-.17-2.56-.18-2.27-.46-4.53-.8-6.78C5.28,44,5,44,5,44.18c.2,1.92.64,3.8.84,5.71,0,.15.33.07.32-.08Z"/><path class="cls-1" d="M5.32,43.18c-.13.65-.2,1.31-.34,2,0,.12.29,0,.32,0a8.19,8.19,0,0,0,.5-3.29l-.32.09a84,84,0,0,1,.5,9c0,.09.32,0,.32-.08a84.3,84.3,0,0,0-.5-9c0-.1-.32,0-.32.09a10.1,10.1,0,0,1-.29,2.74c.3,0,.39-.15.28-.52a8,8,0,0,1,.17-1c0-.11-.3-.06-.32,0Z"/><path class="cls-1" d="M8.49,43.66a26,26,0,0,0-3.34,3.93s.27,0,.32-.05a25.59,25.59,0,0,1,3.31-3.9c.07-.08-.24,0-.29,0Z"/><path class="cls-1" d="M9.53,44.9A16,16,0,0,0,6.18,48c-.13.15.18.16.26.07A15.33,15.33,0,0,1,9.74,45c.18-.11-.09-.18-.21-.11Z"/><path class="cls-1" d="M10,45.77a14.15,14.15,0,0,0-3.53,3.46s.26,0,.32-.06a13.93,13.93,0,0,1,3.46-3.39c.13-.09-.19-.05-.25,0Z"/><path class="cls-1" d="M10,47.05a18.86,18.86,0,0,0-3.52,3.62c-.08.11.24.08.3,0a18.63,18.63,0,0,1,3.47-3.57c.15-.11-.18-.11-.25-.05Z"/><path class="cls-1" d="M10.53,47.66a18.17,18.17,0,0,0-4,4.59c-.12.17.18.21.27.1a18,18,0,0,1,4-4.55c.18-.13-.09-.23-.21-.14Z"/><path class="cls-1" d="M10.65,49.05a16.18,16.18,0,0,0-4.33,4.59s.27,0,.31-.06A16.14,16.14,0,0,1,10.94,49c.07,0-.23,0-.29,0Z"/><path class="cls-1" d="M11.19,50.44A47.16,47.16,0,0,0,7,54.38c-.14.14.17.18.26.08a50.64,50.64,0,0,1,4.13-3.89c.17-.13-.09-.23-.21-.13Z"/><path class="cls-1" d="M11,51.74A11.92,11.92,0,0,0,7.82,54.9c-.09.14.23.13.3,0a11.47,11.47,0,0,1,3.12-3c.17-.13-.09-.22-.21-.14Z"/><path class="cls-1" d="M10.32,53.61c-.94,1-1.64,2.08-2.5,3.1-.07.1.24.06.3,0,.85-1,1.55-2.15,2.49-3.1.09-.08-.23-.05-.29,0Z"/><path class="cls-1" d="M9.47,55.91l-1,2.45c-.05.11.27.07.32,0,.33-.81.66-1.63,1-2.45,0-.11-.28-.07-.33,0Z"/><path class="cls-1" d="M10,58.69c-.72,1.29-.06,2.57-.17,3.94,0,0,.31,0,.32-.09.11-1.35-.55-2.62.16-3.9,0,0-.27,0-.31,0Z"/><path class="cls-1" d="M10.06,41.23a8.17,8.17,0,0,1,3.14-1.09,14.47,14.47,0,0,1-2.95.3l-.13-.25a9,9,0,0,1,.89-.25c.4-.1.82-.16,1.23-.24a12.66,12.66,0,0,0,1.61-.41c.18-.06.06-.14-.07-.1a14,14,0,0,1-2.12.43,1.05,1.05,0,0,1-.95-.12c.32-.07.64-.11,1-.16a8.86,8.86,0,0,0,2.21-.56c.13-.06,0-.1-.07-.09-.51.07-1,.12-1.53.16-.31,0-.61,0-.92,0s-.7-.15-.89-.12c1.34-.26,2.72-.27,4.08-.41.09,0,.34-.16.13-.14-1.51.16-3,.2-4.53.5,0,0-.28.1-.16.13a7.54,7.54,0,0,0,2.84.11c.27,0,1.25-.26.11,0a10.42,10.42,0,0,1-1.22.22c-.54.09-1.08.18-1.61.31,0,0-.23.1-.12.12a5.51,5.51,0,0,0,1.9.09c.26,0,.52-.08.78-.13.09,0,1.21-.42.51-.22a26.46,26.46,0,0,0-3.82,1s-.11.08,0,.09a7.93,7.93,0,0,0,4.34-.35c.1,0,.15-.12,0-.11a8.38,8.38,0,0,0-3.82,1.18c-.18.11.11.1.19.06Z"/><path class="cls-1" d="M8,38.38c2.32-.3,4.66-.35,7-.65.18,0,.25-.27,0-.24-2.32.3-4.66.35-7,.66-.18,0-.25.26,0,.23Z"/><path class="cls-1" d="M8.7,38A25.59,25.59,0,0,0,17,37c.21-.08,0-.1-.11-.06a24.5,24.5,0,0,1-8,1c-.06,0-.36.12-.21.12Z"/><path class="cls-1" d="M10.23,38.17c3-.23,5.87-1.26,8.86-1.64.13,0,.28-.16.05-.13-3,.38-5.79,1.41-8.77,1.63-.09,0-.35.16-.14.14Z"/><path class="cls-1" d="M14.77,37.52a13.17,13.17,0,0,0-5.93,3c-.15.12.17.14.26.06a12.65,12.65,0,0,1,5.71-2.88c.2,0,.15-.21,0-.18Z"/><path class="cls-1" d="M16.43,37.37c-3.17.91-5.19,3.38-7.42,5.6-.14.13.18.13.25.05,2.17-2.15,4.14-4.61,7.22-5.49.19-.06.14-.22-.05-.16Z"/><path class="cls-1" d="M17.1,38c-3.77,1.08-6.33,4.74-8.45,7.75-.08.12.24.09.3,0,2.05-2.92,4.55-6.55,8.19-7.6.19,0,.15-.22,0-.16Z"/><path class="cls-1" d="M16.88,39.15c-3.49,2-6,5.07-8.38,8.2-.12.17.18.22.27.1,2.33-3.08,4.82-6.17,8.26-8.11.18-.11,0-.28-.15-.19Z"/><path class="cls-1" d="M16.33,40.87c-3.09,1.61-5.34,4.36-7.19,7.22,0,0,.27,0,.32-.06,1.83-2.83,4-5.57,7.12-7.16.13-.06-.19,0-.25,0Z"/><path class="cls-1" d="M15.85,42.13a24.74,24.74,0,0,0-5.7,5.76c-.09.12.23.1.3,0a24.16,24.16,0,0,1,5.61-5.67c.18-.12-.1-.17-.21-.1Z"/><path class="cls-1" d="M15.33,43.79a21.92,21.92,0,0,0-4,4.43c-.08.11.24.08.29,0a21.8,21.8,0,0,1,4-4.39c.14-.11-.18-.1-.25,0Z"/><path class="cls-1" d="M13.83,46.54a16,16,0,0,0-1.69,2.81c-.08.15.25.15.31,0a16,16,0,0,1,1.64-2.75c.13-.15-.18-.2-.26-.09Z"/><path class="cls-1" d="M13.31,49.51c-.17.33-.33.66-.5,1-.08.15.25.14.3,0l.5-1c.08-.15-.25-.13-.3,0Z"/><path class="cls-1" d="M14.46,50.68a13.42,13.42,0,0,1-.17,2.61c0,.17.3.13.33,0a14.25,14.25,0,0,0,.17-2.61c0-.18-.33-.14-.33,0Z"/><path class="cls-1" d="M13.48,42.83c-.37.71-.8,1.4-1.17,2.12-.07.14.25.11.3,0,.37-.71.8-1.4,1.17-2.12.07-.14-.25-.11-.3,0Z"/><path class="cls-1" d="M13.89,41a2.78,2.78,0,0,0-1.37,1.53c-.48.95-.78,2-1.21,2.94-.07.17.24.12.31,0A6.55,6.55,0,0,0,12.79,42c0-.13-.2-.09-.26,0a3.68,3.68,0,0,0-1.22,1.35c-.08.15.25.13.31,0a3.45,3.45,0,0,1,1.11-1.26l-.26,0a6.43,6.43,0,0,1-1.16,3.4l.31,0c.33-.76.6-1.55.92-2.31s.69-1.74,1.49-2c.21-.08,0-.22-.14-.16Z"/><path class="cls-1" d="M8.32,31.41c-1,1.59-2,3.14-3,4.73-.08.12.24.09.3,0,1-1.59,2-3.14,3-4.73.08-.12-.25-.09-.3,0Z"/><path class="cls-1" d="M9,31.53a16.33,16.33,0,0,0-3.34,5.41c-.06.17.26.15.3,0a16,16,0,0,1,3.31-5.36c.13-.15-.18-.18-.27-.08Z"/><path class="cls-1" d="M9.15,31.4c-1.12,1.62-2,3.38-3,5.06-.08.14.24.11.3,0,1-1.69,1.87-3.45,3-5.06.09-.13-.23-.11-.3,0Z"/><path class="cls-1" d="M10,31.53a41.19,41.19,0,0,0-3.18,5.25c-.08.15.24.13.31,0a38.62,38.62,0,0,1,3.14-5.2c.12-.15-.19-.17-.27-.08Z"/><path class="cls-1" d="M10.17,31.86A27.56,27.56,0,0,0,7,36.94c-.09.16.24.15.3,0a27.52,27.52,0,0,1,3.14-5c.13-.15-.17-.18-.26-.08Z"/><path class="cls-1" d="M10.5,32.18a57,57,0,0,0-3.18,5.09c-.09.15.24.15.31,0a53.45,53.45,0,0,1,3.14-5c.11-.17-.19-.21-.27-.09Z"/><path class="cls-1" d="M11.15,31.73a30.24,30.24,0,0,0-4,7c-.07.14.25.11.3,0a30.45,30.45,0,0,1,4-7c.09-.11-.23-.09-.3,0Z"/><path class="cls-1" d="M12.15,31.42a22.9,22.9,0,0,0-4.17,7s.28,0,.32-.06a22.78,22.78,0,0,1,4.14-7c.06-.06-.24,0-.29,0Z"/><path class="cls-1" d="M12.49,30.71a41.4,41.4,0,0,0-4,7.37c-.07.17.25.16.31,0a40.45,40.45,0,0,1,4-7.32c.12-.16-.18-.2-.27-.09Z"/><path class="cls-1" d="M12.48,31.08c-1.1,2.21-2,4.51-3.16,6.69-.07.13.25.1.3,0,1.17-2.18,2.06-4.49,3.16-6.69.07-.14-.25-.11-.3,0Z"/><path class="cls-1" d="M23.11,28.5a65.87,65.87,0,0,0-4,7.34c0,.06.28,0,.32-.05a66,66,0,0,1,4-7.35s-.26,0-.32.06Z"/><path class="cls-1" d="M23.64,29.26a23.17,23.17,0,0,0-4.19,7.06c0,.1.28.07.32,0a22.81,22.81,0,0,1,4.13-7c.13-.13-.18-.13-.26,0Z"/><path class="cls-1" d="M25,28a52.57,52.57,0,0,0-4.5,7.53c0,.07.27.05.32,0A51.5,51.5,0,0,1,25.25,28c.08-.1-.24-.07-.3,0Z"/><path class="cls-1" d="M25.79,27.82a50.5,50.5,0,0,0-4.34,7.37c0,.08.28,0,.32,0a51.37,51.37,0,0,1,4.31-7.33c.08-.1-.24-.06-.29,0Z"/><path class="cls-1" d="M26.12,29a66.25,66.25,0,0,0-4.49,7c-.08.14.24.12.3,0a66.25,66.25,0,0,1,4.49-7c.09-.13-.24-.11-.3,0Z"/><path class="cls-1" d="M27.14,28.44c-2.25,2.15-3.3,5.09-4.85,7.7-.08.13.25.1.3,0,1.54-2.59,2.58-5.52,4.8-7.65.14-.13-.18-.13-.25-.06Z"/><path class="cls-1" d="M28,28.59c-2.1,2-3.29,4.65-4.51,7.21-.08.16.25.16.31,0,1.2-2.53,2.38-5.18,4.47-7.15.14-.14-.17-.19-.27-.09Z"/><path class="cls-1" d="M28.45,28.81a27.51,27.51,0,0,0-4.17,6.38s.27,0,.32-.06a27.64,27.64,0,0,1,4.14-6.35c.07-.06-.24,0-.29,0Z"/><path class="cls-1" d="M29.61,27.83c-2.14,2-3.27,4.74-4.5,7.36,0,.06.28,0,.32,0,1.22-2.61,2.34-5.3,4.48-7.33.07-.07-.24,0-.3,0Z"/><path class="cls-1" d="M30.45,27.83c-2.26,1.81-3.53,4.56-4.51,7.2,0,.06.29,0,.32-.06,1-2.62,2.23-5.36,4.48-7.16.07-.06-.24,0-.29,0Z"/><path class="cls-1" d="M31,28c-2.14,1.68-3.28,4.26-4.2,6.73,0,.07.29,0,.32-.05.9-2.43,2-5,4.12-6.66.13-.1-.19-.06-.24,0Z"/><path class="cls-1" d="M31.27,27.82a34.66,34.66,0,0,0-4.5,7.69c0,.09.28.06.32,0a34.32,34.32,0,0,1,4.48-7.65c.09-.11-.23-.08-.3,0Z"/><path class="cls-1" d="M40.44,25.67a18.07,18.07,0,0,0-3,5.59c0,.12.29.08.33,0a17.64,17.64,0,0,1,3-5.5c.12-.15-.19-.15-.26-.06Z"/><path class="cls-1" d="M40.27,26.63a26.66,26.66,0,0,0-3.68,6.56c-.06.17.26.15.31,0a26.16,26.16,0,0,1,3.64-6.5c.12-.16-.19-.2-.27-.09Z"/><path class="cls-1" d="M41.44,26.33a15.83,15.83,0,0,0-4.52,7.55c0,.1.29,0,.32-.05a15.63,15.63,0,0,1,4.45-7.46c.14-.12-.18-.1-.25,0Z"/><path class="cls-1" d="M42.61,26c-2.35,1.89-3.44,4.86-4.53,7.54,0,.08.28.05.32,0,1.08-2.65,2.15-5.61,4.46-7.47.13-.11-.19-.08-.25,0Z"/><path class="cls-1" d="M43.43,26.32c-2,1.61-3.09,4.07-4,6.41,0,.11.28.07.32,0,.91-2.31,1.93-4.73,4-6.32.15-.11-.18-.11-.26-.05Z"/><path class="cls-1" d="M44.92,25.32A21.31,21.31,0,0,0,40.25,33c-.07.17.26.18.31,0a21,21,0,0,1,4.64-7.64c.14-.15-.17-.21-.28-.1Z"/><path class="cls-1" d="M46.41,25.22a21.18,21.18,0,0,0-5,7.69s.29,0,.31-.06a21.15,21.15,0,0,1,5-7.66c.06-.06-.24,0-.29,0Z"/><path class="cls-1" d="M47.24,25.54a15.9,15.9,0,0,0-4.5,7c0,.06.29,0,.32-.06a15.85,15.85,0,0,1,4.47-7c.07-.06-.23,0-.29,0Z"/><path class="cls-1" d="M47.76,26a14,14,0,0,0-4.19,6.41c0,.09.28.05.32,0A13.79,13.79,0,0,1,48,26c.15-.11-.18-.1-.25,0Z"/><path class="cls-1" d="M48.54,26.36a7,7,0,0,0,.66-1.31c.06-.14-.18-.12-.25-.07a12.84,12.84,0,0,0-4.38,7.59c0,.14.3.09.32,0a13.16,13.16,0,0,1,1.53-4,14.7,14.7,0,0,1,1.42-2.11c.25-.3.52-.58.8-.86s-.53,1-.41.81c-.08.14.24.12.31,0Z"/><path class="cls-1" d="M49.73,24.72a25.21,25.21,0,0,0-4,6.87c0,.1.29.06.32,0a25,25,0,0,1,4-6.83c.08-.11-.24-.08-.3,0Z"/><path class="cls-1" d="M49.41,26.2A31.51,31.51,0,0,0,46.57,30s.26,0,.31-.06a33,33,0,0,1,2.82-3.74c.06-.07-.25,0-.29,0Z"/><path class="cls-1" d="M41.8,26.26a3.91,3.91,0,0,0,1.11.11,4.41,4.41,0,0,1-1.09.15s-1.29-.15-1.1-.27A3.5,3.5,0,0,1,43,25.94c.57,0,.58.12,0,.22A2.06,2.06,0,0,1,41.7,26l-.16.15c.94-.17,1.89-.19,2.83-.33.14,0,.27-.18.05-.15-.94.14-1.89.16-2.83.33,0,0-.27.09-.15.14a3,3,0,0,0,2.35,0S44,26,43.86,26a4.44,4.44,0,0,0-3.55.36s-.11.08,0,.11a4.75,4.75,0,0,0,3,0s.24-.13.08-.14c-.45,0-.88-.13-1.33-.16-.08,0-.37.14-.2.15Z"/><path class="cls-1" d="M41.2,25.75a21.44,21.44,0,0,1,3.09-.32c.07,0,.37-.13.21-.13a22.12,22.12,0,0,0-3.24.34c-.12,0-.28.15-.06.11Z"/><path class="cls-1" d="M40.43,25.8c1.7-.33,3.4-.63,5.11-.81.18,0,.25-.24,0-.22-1.75.18-3.48.49-5.2.82-.21,0-.15.25,0,.21Z"/><path class="cls-1" d="M41.17,25.61c2.29-.19,4.52-.78,6.82-1,.1,0,.34-.17.13-.16-2.29.2-4.53.79-6.82,1-.1,0-.34.18-.13.16Z"/><path class="cls-1" d="M44,25.77a30.41,30.41,0,0,0,5.41-1.65c.21-.08,0-.17-.13-.11a30.71,30.71,0,0,1-5.23,1.61c-.15,0-.27.2-.05.15Z"/><path class="cls-1" d="M45.37,25.14a37.15,37.15,0,0,0,4-1c.2-.05.14-.24,0-.19a38.56,38.56,0,0,1-4,1c-.16,0-.26.23,0,.2Z"/><path class="cls-1" d="M50.06,23.93a34.84,34.84,0,0,0-4,7.18c0,.06.28,0,.31-.06a35.8,35.8,0,0,1,4-7.18s-.26,0-.31.06Z"/><path class="cls-1" d="M41.83,25.44a5.54,5.54,0,0,0-1.54,1.18,1.61,1.61,0,0,0-.55,1.24c0,.14.35.06.33-.08-.08-.45.29-.87.57-1.17a4.62,4.62,0,0,1,1.33-1c.19-.1,0-.26-.14-.18Z"/><path class="cls-1" d="M42.63,25.82a13.6,13.6,0,0,0-4,3.47c-.08.1.18.07.21.05a7.79,7.79,0,0,0,1.53-.83c.19-.12-.1-.14-.19-.08a7.4,7.4,0,0,1-1.46.8l.21.06a13.1,13.1,0,0,1,3.94-3.39c.19-.11-.1-.13-.2-.08Z"/><path class="cls-1" d="M43.56,26.31a.69.69,0,0,1-.05-.13c0-.05-.1-.05-.14,0-.71.12-1.37.93-1.9,1.31a15.41,15.41,0,0,0-3.21,3.14c-.09.11.17.08.21.06a30.56,30.56,0,0,0,6.72-4.6c.14-.12-.16-.11-.23-.07a23,23,0,0,0-6.87,5.75c-.09.12.21.07.25.05a25.2,25.2,0,0,0,5.19-3.94c.13-.13-.16-.11-.23-.07a15.82,15.82,0,0,0-5.21,4.78c-.08.13.2.07.25.05a33.35,33.35,0,0,0,4.85-3.29c.15-.11-.16-.11-.22-.07a30.07,30.07,0,0,0-5.69,4.26c-.12.12.12.12.19.09A46.68,46.68,0,0,0,41.85,31c1.27-.78-.77.48-1,.69-.93.67-1.83,1.36-2.7,2.1-.14.12.17.11.23.07a29.37,29.37,0,0,1,4.29-2.1c.21-.08,0-.18-.13-.13a25,25,0,0,0-3.86,1.87,38.59,38.59,0,0,0,4.22-3.09c.15-.11-.16-.1-.23-.07-.82.46-1.62,1-2.42,1.46a16.45,16.45,0,0,0-2.28,1.34A27,27,0,0,1,40,31.42c.57-.45,1.17-.85,1.77-1.25,0,0,1.17-.93.73-.59-.84.64-1.69,1.28-2.57,1.87-.44.3-.89.56-1.35.82.09-.05.51-.76.6-.86a13.75,13.75,0,0,1,2.26-2.12c.52-.42,1.08-.8,1.64-1.17a7.72,7.72,0,0,0-1,.77,24.84,24.84,0,0,1-2.58,2c.06,0-1.13.88-.82.49s.9-1,1.38-1.49a24.73,24.73,0,0,1,2-1.79c.55-.44,1.14-.85,1.73-1.24,0,0,1.18-.91.7-.51a34.55,34.55,0,0,1-5.29,3.77c-.67.21-.55,0,.36-.71.38-.4.81-.77,1.23-1.14,0,0,2.41-1.84,2.41-1.86s.36,0,.32-.08Z"/><path class="cls-1" d="M40.69,32.88a6.65,6.65,0,0,1,3.1-.43c.07,0,.37-.13.21-.13a7.38,7.38,0,0,0-3.55.55c-.14.08.18,0,.24,0Z"/><path class="cls-1" d="M49.56,24.25a65.81,65.81,0,0,0-3.33,7.67c0,.1.28,0,.32-.05.45-1,.88-2.09,1.34-3.13.22-.51.47-1,.71-1.5s.51-1,.8-1.42a.65.65,0,0,0-.44.67c-1,2.42-2.36,4.67-3.4,7.06,0,.09.28.05.33,0,1.19-2.76,2.76-5.35,3.82-8.16,0-.1-.27,0-.31,0a37.66,37.66,0,0,0-2.94,6l.28-.08c.13-.37.26-.74.41-1.11.28-.75.61-1.49.94-2.22.57-1.27,1.19-2.52,1.79-3.78,0-.08-.28,0-.32.05Z"/><path class="cls-1" d="M58.37,22.29a31.26,31.26,0,0,0-3.16,8.33c0,.1.3.05.32-.05a31.19,31.19,0,0,1,3.16-8.32c0-.08-.27-.05-.32,0Z"/><path class="cls-1" d="M69.36,20.81c-1.66,2.45-2,5.41-2.84,8.17,0,.09.29.05.32,0,.84-2.76,1.16-5.71,2.82-8.15.07-.1-.25-.06-.3,0Z"/><path class="cls-1" d="M58.85,22.43l0,0c.09-.1-.17-.07-.21,0a1.15,1.15,0,0,0-.62.76c0,.08.14.05.18,0a6.15,6.15,0,0,0,2.1-.87c.14-.09-.16-.09-.22-.05a13,13,0,0,0-2.36,1.65c-.09.08,0,.11.1.1A7.19,7.19,0,0,0,61,22.45c.14-.11-.17-.08-.23-.06a16.08,16.08,0,0,0-3.87,2.82c-.1.09.18.06.21.05.32-.13.66-.2,1-.33s0-.16-.12-.1c-.33.12-.67.19-1,.32l.21.05A15.71,15.71,0,0,1,61,22.47l-.23-.06a7.09,7.09,0,0,1-2.39,1.32q-.35.07,0-.15c.2-.17.41-.32.62-.47.41-.29.86-.55,1.3-.81l-.22-.05a5.58,5.58,0,0,1-1.89.77l.18,0a1,1,0,0,1,.43-.61l-.21-.05,0,0c-.08.1.24.07.3,0Z"/><path class="cls-1" d="M61.46,23a9.68,9.68,0,0,0,1.19-1c.14-.14-.15-.15-.23-.09-1.15.74-2.33,1.45-3.45,2.23-.55.39-1.66,1-1.76,1.75,0,.15.3.09.32,0,.11-.85,1.64-1.61,2.28-2,.92-.62,1.88-1.2,2.82-1.8l-.24-.09a8.61,8.61,0,0,1-1.13.95c-.18.13.09.2.2.12Z"/><path class="cls-1" d="M64.12,21.7a21,21,0,0,0-8.21,5.43c-.13.15.18.16.26.07a20.68,20.68,0,0,1,8.08-5.34c.21-.09,0-.22-.13-.16Z"/><path class="cls-1" d="M63.66,22.67A16.93,16.93,0,0,0,56.05,28c-.09.12.23.1.3,0a16.4,16.4,0,0,1,7.36-5.14c.19-.07.15-.24-.05-.18Z"/><path class="cls-1" d="M63.26,23.72c-2.62,1.22-5.33,2.78-6.88,5.27,0,0,.27,0,.31-.06,1.53-2.44,4.18-4,6.76-5.17.19-.09-.11-.08-.19,0Z"/><path class="cls-1" d="M63.76,24a24.06,24.06,0,0,0-7.37,5.27c-.09.1.23.07.29,0A23.8,23.8,0,0,1,64,24.1c.19-.09-.1-.13-.19-.08Z"/><path class="cls-1" d="M62.42,25.32a34.47,34.47,0,0,0-5.35,3.94c-.14.12.18.12.26,0a33.66,33.66,0,0,1,5.29-3.89c.19-.11-.09-.16-.2-.1Z"/><path class="cls-1" d="M61.29,26.74a12.67,12.67,0,0,0-3.89,3.15c-.13.16.18.21.27.1a12.12,12.12,0,0,1,3.76-3.06c.19-.1,0-.28-.14-.19Z"/><path class="cls-1" d="M57.55,28.31a11.91,11.91,0,0,0-2.17,2.79c0,.08.27,0,.32,0a11.47,11.47,0,0,1,2.15-2.76c.08-.08-.23-.05-.3,0Z"/><path class="cls-1" d="M57.68,27.09c-1.72.47-2.59,2.42-2.8,4,0,.09.13.06.18,0,.37-.08.46-.32.77-.54.15-.1-.18-.09-.25,0S55.2,31,55,31l.18,0c.19-1.43.95-3.4,2.52-3.82.19,0,.15-.2,0-.15Z"/><path class="cls-1" d="M57.19,28.81a9.63,9.63,0,0,0,1.5-3.13c0-.15-.24-.08-.29,0-1.39,1.43-2.92,3.55-2.86,5.61,0,.13.19.11.27,0a11.58,11.58,0,0,0,4.38-6.93c0-.16-.24-.09-.29,0a13.51,13.51,0,0,0-3.36,6.58c0,.14.21.09.27.06,2.35-1.38,3.44-4.09,4.54-6.42.07-.17-.22-.12-.29-.06a8.23,8.23,0,0,0-2.86,5.77c0,.13.2.11.27,0,2.14-1.69,3.29-4.26,4.21-6.74.06-.16-.22-.15-.29-.06A15.28,15.28,0,0,0,59,30c0,.14.21.09.27.06,2.15-1.3,3.27-3.91,4.21-6.09.07-.17-.22-.14-.29-.06-.64.66-3.95,4.78-2.65,5.51.12.07.4-.09.25-.17-1-.59,2-4.47,2.39-4.95s-.36.44-.48.69c-.24.53-.51,1-.78,1.56a16.77,16.77,0,0,1-1.18,1.83c-.23.31-1.4,1.53-1.33,1.19a11.89,11.89,0,0,1,1.69-3.76,20.61,20.61,0,0,1,1.27-1.83,8.94,8.94,0,0,0-.84,1.64,14.55,14.55,0,0,1-2.38,3.8c-.59.66-.71.6-.57-.21a7.93,7.93,0,0,1,1-2.37,9.74,9.74,0,0,1,1.23-1.69c.56-.65-.14.21-.28.5a19.55,19.55,0,0,1-2.16,3.7,6.21,6.21,0,0,1-1.45,1.35c.24-.16.37-1.33.49-1.67a14.7,14.7,0,0,1,2.22-4c.66-.85-.17.92-.21,1a12.2,12.2,0,0,1-.84,1.7,13,13,0,0,1-1.39,1.92c-.22.26-1.4,1.88-1.31.93a8.46,8.46,0,0,1,1.88-3.83c.32-.44.79-1.48.36-.23a10.62,10.62,0,0,1-1.25,2.23c-.09.14.24.14.31,0Z"/><path class="cls-1" d="M57.43,29.85a10.45,10.45,0,0,1,2-.64,1.21,1.21,0,0,1,0-.18c-.7.2-1.3.63-2,.82-.1,0-.21.18,0,.19.56,0,1.1.15,1.66.16,0-.06.05-.13.08-.19-.28,0-.55.14-.83.16,0,.06,0,.13,0,.19A3.18,3.18,0,0,0,59.26,30c.17-.07.07-.21-.09-.16-.54.16-1.12.17-1.66.33,0,.06,0,.12.05.17a3.57,3.57,0,0,1,1.08-.15c.13,0,.34-.2.12-.2a4.39,4.39,0,0,0-1.25.18c-.19.05-.15.23.05.17.54-.16,1.12-.16,1.66-.32l-.09-.17a2.73,2.73,0,0,1-.91.31c-.17,0-.26.21,0,.19s.55-.14.83-.16c.12,0,.28-.19.08-.2-.56,0-1.1-.15-1.66-.16,0,.06,0,.13,0,.19.7-.19,1.3-.63,2-.82.19-.05.14-.22,0-.18a11.07,11.07,0,0,0-2,.67c-.2.1,0,.22.13.15Z"/><path class="cls-1" d="M56.52,30.36a34.12,34.12,0,0,0,4-.5c.2,0,.15-.22,0-.17a37.49,37.49,0,0,1-3.94.48c-.17,0-.27.22,0,.19Z"/><path class="cls-1" d="M62.21,24.31l2-.48c.2,0,.15-.23,0-.18l-2,.49c-.2.05-.15.22,0,.17Z"/><path class="cls-1" d="M62.21,23.64c1-.34,2.11-.64,3.16-1,.18-.06.15-.2,0-.13-1,.34-2.11.64-3.16,1-.18,0-.15.19,0,.13Z"/><path class="cls-1" d="M61.21,22.49c1.35-.31,2.75-.36,4.11-.64.14,0,.28-.19.06-.14-1.39.29-2.82.34-4.2.66-.2.05-.16.16,0,.12Z"/><path class="cls-1" d="M60.26,22.33a22.14,22.14,0,0,0,5.44-.67c.18,0,.16-.14,0-.09a21.27,21.27,0,0,1-5.2.63c-.07,0-.37.13-.21.13Z"/><path class="cls-1" d="M60.84,22.37a21.21,21.21,0,0,0,5.54-.82c.19-.06.14-.25-.06-.2a20.46,20.46,0,0,1-5.44.81c-.18,0-.26.22,0,.21Z"/><path class="cls-1" d="M61.33,22.18c1.79-.16,3.56-.34,5.33-.65.14,0,.27-.2,0-.16-1.77.31-3.54.5-5.33.65-.15,0-.27.18-.05.16Z"/><path class="cls-1" d="M60.89,22a26.85,26.85,0,0,1,6.9-1c.15,0,.33-.21.11-.22a27.79,27.79,0,0,0-7.07,1c-.2,0-.14.25.06.2Z"/><path class="cls-1" d="M62.46,22a41.07,41.07,0,0,0,6-1c.14,0,.28-.18.06-.14a40.12,40.12,0,0,1-6,1c-.1,0-.35.15-.13.15Z"/><path class="cls-1" d="M68.65,20.87a19.12,19.12,0,0,0-5.73,2.48c-.17.13.1.2.2.12a18.5,18.5,0,0,1,5.58-2.42c.19-.06.15-.24,0-.18Z"/><path class="cls-1" d="M67,21.69c-2.56.13-4.53,2.4-6.3,4-.14.12.18.13.26,0,1.68-1.5,3.58-3.72,6-3.85.17,0,.27-.19,0-.18Z"/><path class="cls-1" d="M67.15,21.84c-3,.71-5.31,3.61-6.94,6-.1.14.23.14.3,0,1.57-2.26,3.86-5.11,6.7-5.79.2-.05.14-.25-.06-.2Z"/><path class="cls-1" d="M66.58,22.37A24.81,24.81,0,0,0,60,29c-.09.13.24.12.31,0a24.65,24.65,0,0,1,6.44-6.48c.17-.12-.09-.2-.21-.12Z"/><path class="cls-1" d="M66.24,22.69a19.82,19.82,0,0,0-5.87,6.58c-.09.15.24.16.31,0a19.49,19.49,0,0,1,5.78-6.47c.18-.12-.09-.23-.22-.14Z"/><path class="cls-1" d="M66.56,22.43a17.51,17.51,0,0,0-5.19,6.39c0,.05.27,0,.31-.05a17.51,17.51,0,0,1,5.12-6.33c.13-.1-.19-.05-.24,0Z"/><path class="cls-1" d="M66.7,22.93a19.71,19.71,0,0,0-4.5,6.22c0,.07.28,0,.32,0A19.45,19.45,0,0,1,67,22.92c.09-.08-.23-.05-.29,0Z"/><path class="cls-1" d="M67.55,21.9a16.14,16.14,0,0,0-4.18,6.23c-.07.17.26.16.3,0A16.28,16.28,0,0,1,67.81,22c.15-.13-.17-.17-.26-.08Z"/><path class="cls-1" d="M68.35,20.83a18.74,18.74,0,0,0-4.16,7.51c0,.05.3,0,.32-.06a18.5,18.5,0,0,1,4.16-7.51s-.26,0-.32.06Z"/><path class="cls-1" d="M68.36,20.8c-1.76,2.37-3.74,5.5-3.67,8.53,0,.08.32,0,.32-.09-.06-3,1.91-6.12,3.65-8.44.07-.11-.24-.07-.3,0Z"/><path class="cls-1" d="M68.52,21.93a24.34,24.34,0,0,0-3.83,7.86c0,.15.29.11.32,0A24.32,24.32,0,0,1,68.83,22c.09-.15-.23-.14-.31,0Z"/><path class="cls-1" d="M68.69,22.42a32.09,32.09,0,0,0-2.33,5.22c-.06.17.26.15.31,0A30.9,30.9,0,0,1,69,22.44c.08-.14-.24-.13-.31,0Z"/><path class="cls-1" d="M77.68,20.31a9.48,9.48,0,0,0-1.32,3c-.57,1.61-1.08,3.24-1.69,4.83,0,.1.28.06.32,0,.52-1.35,1-2.72,1.43-4.09A11.64,11.64,0,0,1,78,20.31c.09-.1-.23-.08-.29,0Z"/><path class="cls-1" d="M78,20.43c-1.32,1.49-1.94,3.88-2.35,5.77,0,.15.24.09.29,0,1.54-1.8,2.17-4.05,2.86-6.26,0-.15-.27-.09-.32,0a27.82,27.82,0,0,0-2.67,7.21c0,.14.25.09.3,0A27.65,27.65,0,0,0,79,21.37c.47-1-.25-.14-.4.15-.36.72-.7,1.46-1,2.19a29.72,29.72,0,0,0-1.43,4c0,.15.24.08.29,0,2.05-2,2.67-4.82,3.68-7.38.07-.16-.25-.14-.31,0a32.13,32.13,0,0,0-3,7.38c0,.13.21.09.27,0,2.44-1.65,3.06-5,4-7.56.06-.17-.25-.14-.31,0a26.82,26.82,0,0,0-3.17,7.7c0,.16.24.08.3,0,2.11-1.85,3.08-4.81,3.85-7.4,0-.15-.26-.09-.31,0a21.07,21.07,0,0,0-2.84,6.72c0,.16.24.08.29,0,2.13-1.9,2.82-4.79,3.68-7.38.06-.17-.24-.13-.3,0a17.65,17.65,0,0,0-2.51,6.88c0,.15.24.09.3,0,1.73-1.68,2.33-4.21,3-6.42,0-.15-.27-.1-.31,0a24.7,24.7,0,0,0-2.34,6.23c0,.15.24.11.29,0a15.92,15.92,0,0,0,1.83-3.43c.33-.45.31-.6,0-.46a10.31,10.31,0,0,1-.48,1.55,12.45,12.45,0,0,0-.59,2.15c0,.17.26.08.31,0,.37-.52.71-1.06,1-1.59.51-.8.3,1.34.3,1.59s.32.11.32,0V23.89c0-.14-.23-.11-.29,0-.3.4-.35.47-.64.88l-.54.85c-.31.45-.34.52-.1.2.21-1.26.86-2.42,1.08-3.7,0-.15-.28-.11-.32,0-.24.68-.49,1.35-.78,2-.15.34-.31.67-.49,1s-.66,1.66-.36.39a19.39,19.39,0,0,1,1.13-3.12c.15-.35.31-.7.48-1,.29-.63.12-.83-.08-.18a15.86,15.86,0,0,1-2.18,4.92c-.57.77,0-.91.1-1.22a16.91,16.91,0,0,1,1-2.84c.13-.31.28-.61.43-.91l.23-.44c.35-.33.36-.48,0-.44-.25.74-.48,1.48-.74,2.21A11.74,11.74,0,0,1,79,26.84c.46-.48.6-2,.85-2.57.34-.84.76-1.64,1.18-2.44l.51-.91-.17-.06c-.12.39-.25.79-.39,1.18-.25.74-.55,1.47-.87,2.18A15.05,15.05,0,0,1,79,26.27a7.92,7.92,0,0,1-.76,1c-.57.67-.09-.23,0-.49a24.37,24.37,0,0,1,2.38-5.65c.33-.25.36-.47.11-.67-.13.34-.25.68-.37,1q-.33,1-.69,1.95a9.3,9.3,0,0,1-2.48,4,5.41,5.41,0,0,0,.24-.81,17.64,17.64,0,0,1,.75-2.11c.35-.9.78-1.77,1.21-2.64l.51-1-.22-.11c-.11.28-.21.57-.32.85-.26.74-.52,1.48-.8,2.21a16.16,16.16,0,0,1-1,2.11A8.47,8.47,0,0,1,76.81,27c-.74.94.18-.93.2-1a43.57,43.57,0,0,1,2.46-5.49c.08-.16-.24-.15-.3,0-.94,1.79-1.55,3.73-2.52,5.51-.16.28-.53,1.26-.25.12.17-.71.4-1.4.64-2.1a27.41,27.41,0,0,1,1.52-3.53h-.21c-.1.31-.19.62-.29.93q-.3.95-.66,1.86a12.77,12.77,0,0,1-.63,1.35c-.16.32-.87,1.9-.63.93a12.48,12.48,0,0,1,2.15-5c.13-.14-.18-.18-.27-.08Z"/><path class="cls-1" d="M7.48,23.62c1.39,2.67,4.36,3.52,6.66,5.23.08.06.37-.06.3-.11C12.15,27,9.19,26.2,7.8,23.53c0-.09-.36,0-.32.09Z"/><path class="cls-1" d="M4,24.07a7.62,7.62,0,0,0-2.17,3c0,.09.22,0,.25,0a9.51,9.51,0,0,0,3.54-3.3c.08-.11-.23,0-.27,0A14.46,14.46,0,0,0,1.66,28c0,.06.27,0,.32-.05A14.34,14.34,0,0,1,5.6,23.75H5.33A9.36,9.36,0,0,1,1.89,27h.25a7.82,7.82,0,0,1,2.15-2.92c.08-.08-.23,0-.29,0Z"/><path class="cls-1" d="M3.68,26.3a2,2,0,0,0,1,3.49c1.45.49,3.39.06,3.87-1.52,1.34-4.42-7.59-2.71-4.88.92.09.13.39,0,.29-.14-2.47-3.31,5.78-4.8,4.2-.57-1,2.61-6.57.88-4.21-2.08.13-.16-.18-.22-.27-.1Z"/><path class="cls-1" d="M3.49,27.86a3.43,3.43,0,0,0,1,2.46c.06.06.36-.06.31-.11a3.43,3.43,0,0,1-1-2.43c0-.06-.32,0-.32.08Z"/><path class="cls-1" d="M3.48,27.5a15.66,15.66,0,0,0,.17,2.65c0,.13.33.06.33-.06a12.7,12.7,0,0,0-.17-2.31c0-.15-.35-.07-.32.08a16.31,16.31,0,0,1,.16,2.42c0,.16.33.11.33,0a15.7,15.7,0,0,0-.17-2.47l-.32.08a12.22,12.22,0,0,1,.16,2.26L4,30.06a14.84,14.84,0,0,1-.16-2.58c0-.17-.33-.12-.33,0Z"/><path class="cls-1" d="M3.65,26.85A19.46,19.46,0,0,0,4,30c0,.16.34.08.32-.08A19.87,19.87,0,0,1,4,26.83c0-.18-.33-.13-.33,0Z"/><path class="cls-1" d="M4.47,26.47v0c0-.1-.21-.06-.27,0a2,2,0,0,0-.38,1.08c0,.15.26.08.31,0a12.26,12.26,0,0,0,.67-1.3c.06-.17-.26-.15-.31,0-.34.87-.65,1.75-1,2.61-.07.16.25.15.3,0,.35-.87.65-1.75,1-2.61l-.31,0a11.47,11.47,0,0,1-.66,1.31h.31a2.5,2.5,0,0,1,.27-.92l-.26,0h0c0,.14.36.06.32-.08Z"/><path class="cls-1" d="M4,27.51a6.9,6.9,0,0,0,0,2.64c0,.1.31,0,.32-.07,0-.38.14-.75.16-1.14L4.15,29c.2.49.63.82.83,1.31,0,.11.37,0,.32-.09-.2-.48-.62-.82-.83-1.3,0-.1-.31,0-.32.06,0,.39-.14.76-.16,1.14l.32-.06a7,7,0,0,1,0-2.59c0-.12-.3-.07-.32,0Z"/><path class="cls-1" d="M3.85,29.05a18.91,18.91,0,0,0,1.67,1.14c.11,0,.4-.1.25-.17a15.82,15.82,0,0,1-1.66-1.15c-.11-.07-.4.08-.26.18Z"/><path class="cls-1" d="M5.46,29.9a3.46,3.46,0,0,0,1.42-.35c.2-.09,0-.28-.14-.2a2.87,2.87,0,0,1-1.25.3c-.19,0-.24.25,0,.25Z"/><path class="cls-1" d="M6.07,30a8,8,0,0,0,2.22-1.83c.07-.1-.25-.06-.3,0a7.8,7.8,0,0,1-2.11,1.76C5.7,30,6,30,6.07,30Z"/><path class="cls-1" d="M7.82,28l-1,1.46c-.09.14.23.14.31,0l1-1.46c.1-.15-.23-.14-.3,0Z"/><path class="cls-1" d="M3,26.65c-1.79,1.44-.8,4,.64,5.31.08.07.38-.05.3-.12-1.36-1.25-2.42-3.76-.68-5.14.14-.12-.19-.1-.26-.05Z"/><path class="cls-1" d="M2,27.83a6.09,6.09,0,0,0,1.68,4.3c.09.09.39,0,.29-.14A5.93,5.93,0,0,1,2.31,27.8c0-.15-.32-.09-.32,0Z"/><path class="cls-1" d="M1.82,28c.31,1.41.53,2.84.84,4.25,0,.14.35.06.32-.09-.31-1.41-.52-2.83-.83-4.24,0-.15-.36-.06-.33.08Z"/><path class="cls-1" d="M1.32,27.37c.21,1.93,1,3.76,1,5.71L2.64,33a25.19,25.19,0,0,1-1.33-4.9L1,28.19c.66,1.65,1.15,3.36,1.67,5.06,0,.07.33,0,.32-.09-.14-.65-.2-1.31-.34-2l-.31.1a3,3,0,0,1,1,1.62l.31-.1a2,2,0,0,1-.49-1.29l-.26.11a1.34,1.34,0,0,1,1,.47c.06.06.35,0,.3-.1a1.42,1.42,0,0,0-1-.5s-.28,0-.27.1a2.14,2.14,0,0,0,.51,1.32s.33,0,.31-.1a3.07,3.07,0,0,0-1-1.64s-.32,0-.31.1c.14.65.2,1.31.34,2L3,33.16c-.52-1.7-1-3.4-1.67-5.06,0-.07-.33,0-.32.09a25.09,25.09,0,0,0,1.33,4.89c0,.07.33,0,.32-.08-.05-1.95-.78-3.78-1-5.71,0-.07-.33,0-.33.08Z"/><path class="cls-1" d="M2.83,30.81A6.8,6.8,0,0,1,4.49,32c.07.06.36-.05.31-.11A6.86,6.86,0,0,0,3.13,30.7c-.08,0-.35.09-.3.11Z"/><path class="cls-1" d="M3.35,30.66a10,10,0,0,0,1.83.82c.08,0,.37-.11.26-.14a9.66,9.66,0,0,1-1.83-.82c-.07,0-.37.08-.26.14Z"/><path class="cls-1" d="M3.69,31a5.68,5.68,0,0,0,2,.83c.13,0,.39-.15.2-.19a5.59,5.59,0,0,1-2-.81c-.1-.07-.39.07-.25.17Z"/><path class="cls-1" d="M3.66,31a7,7,0,0,0,1.52.83c.07,0,.36-.09.26-.13A6.39,6.39,0,0,1,4,30.86c-.08-.05-.36.08-.31.11Z"/><path class="cls-1" d="M3.69,32a2.33,2.33,0,0,0,1.61.52c.19,0,.24-.24,0-.25a1.92,1.92,0,0,1-1.38-.46c-.11-.1-.39.06-.25.19Z"/><path class="cls-1" d="M3.19,31.81a3.4,3.4,0,0,0,2.85.3c.21-.07,0-.15-.12-.1a3,3,0,0,1-2.48-.35c-.08,0-.37.08-.25.15Z"/><path class="cls-1" d="M3.71,32.13a11.51,11.51,0,0,0,4-.5c.19,0,.15-.17,0-.12a11.08,11.08,0,0,1-3.7.48c-.09,0-.38.13-.21.14Z"/><path class="cls-1" d="M7.6,31.08c.52-.35,1-.79,1.49-1.14.13-.09-.19,0-.24,0-.53.35-1,.79-1.5,1.14-.13.09.19,0,.25,0Z"/><path class="cls-1" d="M7.41,31.81A25.2,25.2,0,0,0,10.93,28c.12-.15-.14-.21-.24-.13a15.91,15.91,0,0,0-1.52,1.66c-.14.15.16.22.27.1a17.1,17.1,0,0,1,1.47-1.6l-.25-.13A26.52,26.52,0,0,1,7.2,31.66c-.16.14.09.27.21.15Z"/><path class="cls-1" d="M10.81,27c-.84,1.38-1.36,2.93-2.33,4.24-.09.13.24.12.31,0,1-1.32,1.48-2.87,2.33-4.25.08-.14-.24-.12-.31,0Z"/><path class="cls-1" d="M10.31,27.8A20.34,20.34,0,0,0,9,31.74c0,.16.29.13.33,0a19.73,19.73,0,0,1,1.32-3.88c.08-.17-.24-.17-.31,0Z"/><path class="cls-1" d="M11,28a22.27,22.27,0,0,0-1.5,3.43c-.06.15.26.13.31,0A21.3,21.3,0,0,1,11.28,28c.09-.14-.23-.12-.3,0Z"/><path class="cls-1" d="M11.33,28.59a9.12,9.12,0,0,0-1.18,2.48c-.06.16.26.15.3,0a8.55,8.55,0,0,1,1.15-2.42c.12-.16-.19-.2-.27-.09Z"/><path class="cls-1" d="M11.82,28.47a2.76,2.76,0,0,0-.68,2.16c0,.1.34,0,.32-.08a2.66,2.66,0,0,1,.65-2.08c.08-.11-.24-.07-.29,0Z"/><path class="cls-1" d="M12.3,28.68a1.56,1.56,0,0,1,0,1.41l.3-.05a4.93,4.93,0,0,1-.82-1.77l-.29.12c1.08.57,1.73,1.66,2.64,2.43.1.08.4-.05.3-.13-.92-.78-1.59-1.89-2.68-2.46-.08,0-.32,0-.29.12a5.39,5.39,0,0,0,.84,1.82c.07.08.26,0,.3-.06a1.69,1.69,0,0,0,0-1.52c0-.12-.36,0-.32.09Z"/><path class="cls-1" d="M15.83,20.73c2.91,1.77,4.91,4.6,7.82,6.37.12.07.4-.1.24-.19-2.9-1.77-4.91-4.6-7.81-6.37-.13-.07-.41.09-.25.19Z"/><path class="cls-1" d="M23.29,18.08c2.27,1.61,3.82,4.07,6.32,5.39.09.05.36-.08.3-.12C27.41,22,25.86,19.58,23.59,18c-.08-.06-.37.06-.3.11Z"/><path class="cls-1" d="M17.29,19.68c0,.31-.26.45-.48.64s.18,0,.2,0a18.07,18.07,0,0,0,3.89-2c.15-.1-.17-.06-.22,0a9.14,9.14,0,0,0-3.89,3c0,.07.2,0,.22,0a18.29,18.29,0,0,0,4.91-2.82c.09-.08-.2,0-.24,0a9.47,9.47,0,0,0-3.72,3c-.05.07.25,0,.28,0a35,35,0,0,0,4.18-2.95c.09-.08-.22,0-.27,0a18,18,0,0,0-3.68,3.29c-.08.09.18,0,.2,0,1.84-.62,3.17-2.08,4.58-3.31.09-.08-.2,0-.24,0A11.52,11.52,0,0,0,19,22.29s0,0,0,0c.36.07.38,0,.73-.2.19-.09-.11-.09-.19-.05-.63.29.56-.92.68-1.06a10.6,10.6,0,0,1,2-1.89c1-.72,0,.06-.35.38a16.28,16.28,0,0,1-2.07,1.65c-1.4.92-.3-.19.07-.56a15.12,15.12,0,0,1,2.21-1.86c-1.33.93-2.69,1.85-4.08,2.7h.29A7.44,7.44,0,0,1,20,19.64c.2-.15.41-.29.62-.42s1.59-1.16.4-.24a14.48,14.48,0,0,1-2,1.27l-.73.38c-.34.16-1.52,1-.78.07a7.24,7.24,0,0,1,1.68-1.44c.32-.2.64-.39,1-.56.89-.46-.18.07-.24.11a15.49,15.49,0,0,1-2.65,1.3.61.61,0,0,0,.32-.48c0-.09-.31,0-.32.05Z"/><path class="cls-1" d="M22.87,19.54c.3-.2.54-.46.83-.65l-.19-.1c-.52.37-5,4.18-4.31,4.7a.2.2,0,0,0,.21,0s.3-.16.24-.18c.1,0,.39-.11.26-.15a.41.41,0,0,0-.37,0,.76.76,0,0,0-.16.11,5.81,5.81,0,0,0,.79-1,16.89,16.89,0,0,1,3.53-3.38c.18-.13-.09-.16-.19-.1-.3.2-.54.46-.84.66s.1.16.2.09Z"/><path class="cls-1" d="M23.55,19.89a1.32,1.32,0,0,0,.39-.39s0-.08,0-.1c-.45-.33-1.36.92-1.58,1.14a19.88,19.88,0,0,0-2.7,3.51c-.1.14.23.15.3,0a22.41,22.41,0,0,1,1.81-2.5c.34-.41.71-.8,1.08-1.18.07-.07.87-.92.51-.65-.17.13.09.23.22.14Z"/><path class="cls-1" d="M24.81,19.31a18.58,18.58,0,0,0-4.18,4.75c-.08.13.24.09.3,0a19,19,0,0,1,4.13-4.71c.15-.11-.17-.11-.25,0Z"/><path class="cls-1" d="M25,19.78a12.44,12.44,0,0,0-3.88,4.28c-.07.12.25.08.3,0a12.06,12.06,0,0,1,3.77-4.2c.18-.12-.1-.14-.19-.08Z"/><path class="cls-1" d="M25.47,20a23.36,23.36,0,0,0-4.18,4.75c-.08.12.24.1.3,0A23.21,23.21,0,0,1,25.73,20c.14-.11-.18-.12-.26-.05Z"/><path class="cls-1" d="M25.83,20.23a32.32,32.32,0,0,0-4.19,4.93c-.12.16.18.22.27.1A31.49,31.49,0,0,1,26,20.39c.16-.15-.09-.27-.21-.16Z"/><path class="cls-1" d="M26.5,20.57c-2,1.13-3.19,3.11-4.38,4.95-.09.14.24.13.31,0,1.16-1.8,2.34-3.74,4.27-4.84.19-.11-.08-.19-.2-.13Z"/><path class="cls-1" d="M26.82,20.89A15.44,15.44,0,0,0,23,25.67c-.09.16.23.17.31,0A15.06,15.06,0,0,1,27,21c.18-.13-.08-.25-.22-.15Z"/><path class="cls-1" d="M27,21.57a10.66,10.66,0,0,0-3.38,4.12c-.07.14.25.1.3,0a10.49,10.49,0,0,1,3.28-4c.18-.12-.1-.16-.2-.09Z"/><path class="cls-1" d="M27.16,22a9.91,9.91,0,0,0-2.88,3.48c-.08.15.25.14.31,0a9.48,9.48,0,0,1,2.78-3.38c.17-.13-.09-.22-.21-.13Z"/><path class="cls-1" d="M27.3,22.58a8.75,8.75,0,0,0-1.85,2.3c-.07.12.25.07.3,0a8.47,8.47,0,0,1,1.81-2.27c.13-.11-.19-.09-.26,0Z"/><path class="cls-1" d="M27.78,22.43a18.32,18.32,0,0,0-1.51,2.31c0,.09.28.05.32,0a18.36,18.36,0,0,1,1.49-2.26c.07-.12-.25-.08-.3,0Z"/><path class="cls-1" d="M28.13,22.72A6.86,6.86,0,0,0,27,24.54c-.08.15.24.14.3,0a7,7,0,0,1,1.14-1.76c.14-.14-.17-.17-.26-.08Z"/><path class="cls-1" d="M28.44,23.28c-.12.36-.24.93.17,1.16.08,0,.34-.08.3-.1-.39-.23-.27-.78-.16-1.12,0-.06-.29,0-.31.06Z"/><path class="cls-1" d="M32.43,14.31c1.48,2.47,4.55,3.61,6.82,5.24.08.05.36-.07.31-.11-2.26-1.62-5.34-2.76-6.81-5.21,0-.08-.35,0-.32.08Z"/><path class="cls-1" d="M41.25,11.72c2.28,1.83,3.82,4.4,6.51,5.73.1.05.39-.09.25-.16-2.67-1.31-4.19-3.88-6.46-5.69-.09-.08-.39.05-.3.12Z"/><path class="cls-1" d="M31.69,15.66c1.33,0,2.78,1.14,3.8,1.83s2.06,1.5,3.1,2.23c.09.06.38-.07.3-.12-1.34-.94-2.63-1.94-4-2.83a6,6,0,0,0-3.07-1.28c-.11,0-.35.18-.13.17Z"/><path class="cls-1" d="M31.74,15.36l-.5-.49L31,15c1.45.5,2.74,1.33,4.14,2,.08,0,.33-.1.3-.11-1.41-.63-2.71-1.46-4.18-2,0,0-.34.06-.28.12l.5.49s.35-.06.3-.11Z"/><path class="cls-1" d="M31.91,15.06a2.28,2.28,0,0,1,.58-.58.32.32,0,0,0-.38.13c-.09.08.18,0,.2,0,.53-.19,1-.43,1.54-.67-.6.28-1,1-1.41,1.45-.08.09.21,0,.24,0a11.33,11.33,0,0,0,3.21-2.16c.08-.07-.14,0-.16,0a3.79,3.79,0,0,0-2.47,2c0,.06.2,0,.21,0a11.73,11.73,0,0,0,3.75-2.5c.08-.07-.22,0-.27,0a9.1,9.1,0,0,0-3,3.14c0,.05.28,0,.32,0A7.78,7.78,0,0,1,36.4,13.4c1.17-1,0-.09-.27.14A11.27,11.27,0,0,1,34,14.94c-.53.27.4-.84.55-1,.88-.54,1.07-.61.58-.21a10.93,10.93,0,0,1-1.1.83c-.29.19-.59.36-.89.52-.61.33-.16.05,0-.14a8.18,8.18,0,0,1,1.1-1.18c.09-.07-.21,0-.24,0l-1,.47c-.82.38-.57.32-.28,0,.08-.07-.24,0-.29,0a4.72,4.72,0,0,0-.84.83s.26,0,.31,0Z"/><path class="cls-1" d="M38.31,12.43a17,17,0,0,0-3.88,3.63c-.08.11.24.08.3,0a16.15,16.15,0,0,1,3.78-3.55c.18-.12-.1-.15-.2-.09Z"/><path class="cls-1" d="M39.34,12.23a12.27,12.27,0,0,0-4.58,4.15c-.09.13.23.12.31,0a11.94,11.94,0,0,1,4.4-4c.2-.09,0-.23-.13-.16Z"/><path class="cls-1" d="M40,12.28a13.84,13.84,0,0,0-4.37,4.28c-.07.1.24.06.29,0a13.62,13.62,0,0,1,4.28-4.2c.18-.11-.11-.12-.2-.07Z"/><path class="cls-1" d="M40.64,12.27a14.14,14.14,0,0,0-4.21,4.12c-.08.12.24.08.3,0a14,14,0,0,1,4.1-4c.19-.11-.1-.14-.19-.08Z"/><path class="cls-1" d="M41.64,12.11c-2.34,1.31-4,3.51-5.54,5.59-.09.11.24.07.29,0,1.56-2,3.14-4.23,5.44-5.51.19-.11-.1-.13-.19-.08Z"/><path class="cls-1" d="M41.3,12.92a15.86,15.86,0,0,0-4.21,4.61c-.08.12.24.09.3,0A15.76,15.76,0,0,1,41.5,13c.18-.11-.1-.16-.2-.09Z"/><path class="cls-1" d="M41.77,13.27a14.34,14.34,0,0,0-4.18,4.59c-.07.12.25.08.3,0A14.18,14.18,0,0,1,42,13.31c.14-.1-.18-.09-.26,0Z"/><path class="cls-1" d="M42.16,13.68c-1.83,1-2.94,2.81-4,4.46-.12.17.18.23.27.1,1.07-1.59,2.16-3.43,3.93-4.36.19-.1,0-.28-.15-.2Z"/><path class="cls-1" d="M42.81,14.09c-2,1-3.27,3.1-4.39,4.94,0,0,.26,0,.31-.05C39.82,17.19,41,15.09,43,14.13c.19-.09-.11-.08-.18,0Z"/><path class="cls-1" d="M43.13,14.53a11.19,11.19,0,0,0-4.21,5.11c-.07.16.25.15.31,0a10.88,10.88,0,0,1,4.1-5c.19-.11-.08-.2-.2-.13Z"/><path class="cls-1" d="M43.66,15a9.71,9.71,0,0,0-4.24,4.81c-.08.15.25.14.3,0a9.47,9.47,0,0,1,4.08-4.66c.2-.09,0-.25-.14-.17Z"/><path class="cls-1" d="M44,15.21a10.51,10.51,0,0,0-3.73,4.31c0,.07.28,0,.32-.05a10.19,10.19,0,0,1,3.6-4.18c.18-.12-.1-.13-.19-.08Z"/><path class="cls-1" d="M44.66,15.16c-1.79.78-2.83,2.55-3.74,4.16-.09.15.24.14.3,0,.87-1.53,1.86-3.27,3.58-4,.2-.08,0-.23-.14-.17Z"/><path class="cls-1" d="M44.8,15.71a6.64,6.64,0,0,0-2.56,2.67c0,.05.27,0,.32-.05A6.37,6.37,0,0,1,45,15.77c.19-.1-.11-.1-.19-.06Z"/><path class="cls-1" d="M45.41,15.59a9.13,9.13,0,0,0-2.67,3.28s.28,0,.32-.06a9,9,0,0,1,2.64-3.25c.06,0-.23,0-.29,0Z"/><path class="cls-1" d="M45.6,15.87a19,19,0,0,0-2.19,2.8c-.08.13.24.1.3,0a19.68,19.68,0,0,1,2.14-2.75c.14-.13-.17-.14-.25-.06Z"/><path class="cls-1" d="M45.6,16.53a12.34,12.34,0,0,0-1.69,2.31c-.07.12.25.09.3,0a12.53,12.53,0,0,1,1.64-2.26c.13-.13-.18-.12-.25,0Z"/><path class="cls-1" d="M45.74,16.89a13.55,13.55,0,0,0-1.17,2c0,.05.27,0,.32-.06A12.69,12.69,0,0,1,46,16.87c.07-.09-.25,0-.3,0Z"/><path class="cls-1" d="M46.4,17.22a1.82,1.82,0,0,0,0,1.34c.05.12.37,0,.32-.09a1.77,1.77,0,0,1,0-1.28c0-.13-.29-.09-.32,0Z"/><path class="cls-1" d="M8.14,53.13c0,2.67-.15,5.34-.16,8,0,.14.32.08.32,0,0-2.67.15-5.34.17-8,0-.14-.33-.08-.33,0Z"/><path class="cls-1" d="M7.13,51.12a3.32,3.32,0,0,0-.23-.51c0-.06-.29,0-.32.07a4.3,4.3,0,0,0,0,2c.06,1,.17,2.06.27,3.09a27.71,27.71,0,0,1,0,6.81s.31,0,.32-.09a26.16,26.16,0,0,0,.06-6.19c-.09-1-.19-2.05-.28-3.09,0-.61-.08-1.23-.1-1.85,0-.94-.23-.66,0-.21,0,.07.35,0,.32-.08Z"/><path class="cls-1" d="M6.8,55.85c-.19-1.48-.47-2.93-.66-4.41,0-.12-.34,0-.32.09.16,1.64.38,3.28.58,4.93.1.83.19,1.67.27,2.51l.09,1.27c0,.19.42,2.28.31.89-.25-3-.78-6-1.27-9l-.32.09A120,120,0,0,1,7.65,65.07c0,.12.33.05.32-.08A120.15,120.15,0,0,0,5.8,52.09c0-.12-.34,0-.32.09.53,3.3,1.11,6.62,1.33,10,0,.11.33,0,.32-.06,0-3.57-.63-7.09-1-10.64l-.32.09c.18,1.47.47,2.93.66,4.4,0,.12.34,0,.32-.08Z"/><path class="cls-1" d="M7,58.22a44.25,44.25,0,0,0,.17,6.2c0,.06.33,0,.32-.08A47.41,47.41,0,0,0,6.8,59.6c0-.06-.33,0-.32.09a60.63,60.63,0,0,1,.33,7.5s.32,0,.32-.08A60.88,60.88,0,0,0,6.8,59.6l-.32.09a46.81,46.81,0,0,1,.67,4.73l.32-.08a44.39,44.39,0,0,1-.17-6.21s-.32,0-.32.09Z"/><path class="cls-1" d="M7.3,63.19c-.18-.7-.35-1.41-.5-2.12,0-.09-.33,0-.32.09.18,2.4.51,4.79.83,7.18,0,.09.34,0,.32-.09-.32-2.39-.65-4.77-.83-7.18l-.32.09c.15.71.32,1.41.5,2.12,0,.09.35,0,.32-.09Z"/><path class="cls-1" d="M9.34,51.63a5.48,5.48,0,0,0-2,3c0,.08.29,0,.32,0a5.3,5.3,0,0,1,2-2.9c.14-.1-.18-.07-.25,0Z"/><path class="cls-1" d="M9.82,52A11.28,11.28,0,0,0,7,56.25s.29,0,.32-.06A11.25,11.25,0,0,1,10.11,52c.07-.06-.23,0-.29,0Z"/><path class="cls-1" d="M10.33,51.76a19.42,19.42,0,0,0-3.18,5.91c-.07.17.26.17.31,0a19,19,0,0,1,3.14-5.85c.14-.15-.17-.21-.27-.1Z"/><path class="cls-1" d="M11.17,52.77A13.26,13.26,0,0,0,7.48,59c0,.09.29,0,.32-.05a13.07,13.07,0,0,1,3.62-6.16c.14-.12-.18-.09-.25,0Z"/><path class="cls-1" d="M11.15,54.43c-1.7,1.77-2.47,4.13-3.67,6.22,0,.05.27,0,.32,0,1.19-2.08,2-4.42,3.64-6.19.08-.07-.23,0-.29,0Z"/><path class="cls-1" d="M11.32,56.22a21.64,21.64,0,0,0-4,7.2c0,.1.29.06.32,0a21.56,21.56,0,0,1,4-7.16c.09-.1-.23-.07-.29,0Z"/><path class="cls-1" d="M12,57.15c-2.11,2.18-3.31,5-4.51,7.7-.08.17.25.16.3,0,1.2-2.7,2.38-5.49,4.47-7.65.14-.14-.17-.19-.26-.09Z"/><path class="cls-1" d="M11.8,58.85a43.67,43.67,0,0,0-4.15,7.51c0,.06.28,0,.31,0a44,44,0,0,1,4.16-7.51s-.26,0-.32.05Z"/><path class="cls-1" d="M11.67,60.93A16,16,0,0,0,8,67.66c0,.11.29.06.32,0A15.73,15.73,0,0,1,11.93,61c.12-.13-.19-.12-.26,0Z"/><path class="cls-1" d="M11.32,63.07a10.58,10.58,0,0,0-2.18,4.76c0,.11.3.06.32,0a10.6,10.6,0,0,1,2.15-4.72c.09-.1-.23-.08-.29,0Z"/><path class="cls-1" d="M10.64,65.66a11.56,11.56,0,0,0-1,3.3c0,.17.3.13.32,0a11.31,11.31,0,0,1,1-3.23c.09-.17-.24-.18-.31,0Z"/><path class="cls-1" d="M10.8,67.49c-.17.71-.32,1.42-.5,2.12,0,.15.3.11.33,0,.18-.71.32-1.42.5-2.12,0-.15-.29-.11-.33,0Z"/><path class="cls-1" d="M11.47,69a7.71,7.71,0,0,0-.17,1.79c0,.18.33.14.33,0a7.7,7.7,0,0,1,.16-1.79c0-.17-.29-.13-.32,0Z"/><path class="cls-1" d="M83.84,79.84c-.35.53-.64,1.1-1,1.63-.12.17.18.22.26.09.36-.53.65-1.1,1-1.63.11-.17-.18-.22-.27-.09Z"/><path class="cls-1" d="M83,79.59,81,82s.26,0,.32,0l2-2.45a.4.4,0,0,0-.31.06Z"/><path class="cls-1" d="M81.5,79.73a9.86,9.86,0,0,0-1.84,1.81s.26,0,.32-.05a9.54,9.54,0,0,1,1.81-1.78c.07,0-.23,0-.29,0Z"/><path class="cls-1" d="M79,80.36a10.05,10.05,0,0,0-1.35,1.16c-.08.08.23,0,.29,0a10.12,10.12,0,0,1,1.31-1.13c.14-.09-.19-.06-.25,0Z"/><path class="cls-1" d="M76.84,80.69a1.78,1.78,0,0,1-.75.74c-.19.1,0,.25.14.17a2.11,2.11,0,0,0,.91-.89c.08-.15-.24-.14-.3,0Z"/><path class="cls-1" d="M75.68,80.38c-.14.15-.19.34-.33.49s0,.07.08.06a.28.28,0,0,0,.21-.08c.14-.14.2-.34.33-.49s0-.06-.07-.06a.42.42,0,0,0-.22.08Z"/><path class="cls-1" d="M77.69,80a1,1,0,0,0-.19.71c0,.16.32.11.32,0a.9.9,0,0,1,.14-.6c.13-.15-.18-.19-.27-.09Z"/><path class="cls-1" d="M79,79.58a5.1,5.1,0,0,0-.33,1.49c0,.08.32,0,.32-.09a4.92,4.92,0,0,1,.33-1.45c0-.09-.28,0-.32,0Z"/><path class="cls-1" d="M80.16,79.75a3.1,3.1,0,0,0-.5,1.65c0,.06.32,0,.32-.09a3.08,3.08,0,0,1,.5-1.61c0-.06-.27,0-.32,0Z"/><path class="cls-1" d="M81.33,79.39a5,5,0,0,0-.51,2.15c0,.13.32.06.32,0a4.76,4.76,0,0,1,.49-2.1c.07-.14-.25-.1-.3,0Z"/><path class="cls-1" d="M82.32,79.1c-.16.65-.33,1.3-.5,2,0,.08.3,0,.32,0,.17-.65.33-1.31.5-2,0-.07-.3,0-.32.06Z"/><path class="cls-1" d="M83.15,79.09a8,8,0,0,0-.33,1.81c0,.07.32,0,.32-.08A7.76,7.76,0,0,1,83.47,79c0-.08-.29,0-.32,0Z"/><path class="cls-1" d="M84.33,78.9a5.44,5.44,0,0,0-.51,2.31c0,.14.32.07.32,0a5.35,5.35,0,0,1,.49-2.26c.07-.14-.26-.11-.3,0Z"/><path class="cls-1" d="M85.48,78.11a7.25,7.25,0,0,0-.5,2.61c0,.14.32.07.32,0a7.56,7.56,0,0,1,.5-2.61c0-.11-.28-.07-.32,0Z"/><path class="cls-1" d="M86.48,77.58A5.84,5.84,0,0,0,86,80.9c0,.16.34.08.32-.08a5.61,5.61,0,0,1,.49-3.2c.08-.17-.24-.17-.31,0Z"/><path class="cls-1" d="M87.14,77.8a20.26,20.26,0,0,0-.33,3.1s.32,0,.32-.08a20.26,20.26,0,0,1,.33-3.1s-.3,0-.32.08Z"/><path class="cls-1" d="M88.14,76.8a12.8,12.8,0,0,0-.5,3.42c0,.16.32.11.33,0a13.22,13.22,0,0,1,.49-3.43c0-.14-.28-.1-.32,0Z"/><path class="cls-1" d="M88.64,76.17a15.79,15.79,0,0,0-.17,3.76c0,.06.33,0,.33-.09A15.7,15.7,0,0,1,89,76.09s-.31,0-.32.08Z"/><path class="cls-1" d="M89.14,76a16.86,16.86,0,0,0-.17,4c0,.13.34,0,.32-.09A16.92,16.92,0,0,1,89.46,76c0-.15-.31-.1-.32,0Z"/><path class="cls-1" d="M89.64,75.36c0,1.41-.16,2.82-.17,4.24,0,.08.32,0,.32-.08,0-1.42.16-2.83.17-4.25,0-.08-.32,0-.32.09Z"/><path class="cls-1" d="M89.8,75.81v3.6c0,.17.33.12.33,0V75.79c0-.17-.33-.12-.33,0Z"/><path class="cls-1" d="M90,75.65v3.27c0,.16.32.11.32,0V75.63c0-.16-.32-.11-.32,0Z"/><path class="cls-1" d="M90,74.84a21.88,21.88,0,0,0,.33,4.43c0,.14.35.06.32-.08a21.45,21.45,0,0,1-.33-4.38c0-.16-.32-.11-.32,0Z"/><path class="cls-1" d="M90,73.53v5.06c0,.16.32.11.32,0v-5c0-.16-.32-.11-.32,0Z"/><path class="cls-1" d="M89.31,72.73A17,17,0,0,1,88,77.79s.27,0,.31-.06a16.6,16.6,0,0,0,1.33-5.06c0-.07-.3,0-.31.06Z"/><path class="cls-1" d="M88.14,74.51a12.2,12.2,0,0,1-1.49,3.24c-.09.14.23.14.31,0a12.54,12.54,0,0,0,1.5-3.29c.05-.15-.28-.11-.32,0Z"/><path class="cls-1" d="M87,74.64a12.73,12.73,0,0,1-1.64,2.42c-.14.14.16.21.27.1a12.59,12.59,0,0,0,1.68-2.48c.1-.15-.23-.17-.31,0Z"/><path class="cls-1" d="M85.16,75.3a10.09,10.09,0,0,1-1,1.28c-.14.14.17.18.26.08a8.23,8.23,0,0,0,1-1.33c.1-.14-.23-.14-.3,0Z"/><path class="cls-1" d="M83.66,75.68a.33.33,0,0,0-.34.3c0,.17.31.13.32,0s0,0,0,0c.19,0,.25-.26,0-.25Z"/><polygon class="cls-1" points="7.65 79.31 7.63 79.15 89.46 70.17 89.47 70.33 7.65 79.31"/><path class="cls-1" d="M10.48,48.93a15.24,15.24,0,0,0-1.16,2.94c0,.12.58.05.63-.11a15.27,15.27,0,0,1,1.17-2.94c.05-.09-.54,0-.64.11Z"/><path class="cls-1" d="M10,48.6A16.31,16.31,0,0,0,9.31,54c0,.12.66,0,.65-.17a16,16,0,0,1,.66-5.36c0-.14-.59-.05-.64.11Z"/><path class="cls-1" d="M11.64,49.08c-.16,1.09-.33,2.18-.49,3.27,0,.2.61.08.63-.1.16-1.09.34-2.17.5-3.26,0-.2-.61-.09-.64.09Z"/><path class="cls-1" d="M12.81,49.42a5.65,5.65,0,0,0-.17,2.31c0,.12.67,0,.64-.17a5.58,5.58,0,0,1,.16-2.26c0-.12-.6,0-.63.12Z"/><path class="cls-1" d="M14.31,49.09a4.88,4.88,0,0,0-.34,1.5c0,.08.64,0,.64-.17A4.79,4.79,0,0,1,14.94,49c0-.1-.58,0-.63.11Z"/><path class="cls-1" d="M15.65,49a2.46,2.46,0,0,0-.19,1c0,.3.65.18.65-.07a2.07,2.07,0,0,1,.15-.92c.15-.31-.5-.27-.61-.05Z"/><path class="cls-1" d="M17,49.39V50c0,.32.65.21.65,0v-.66c0-.31-.65-.21-.65.06Z"/><path class="cls-1" d="M8.35,80.26h3c.28,0,.67-.42.23-.42h-3c-.28,0-.67.42-.24.42Z"/><path class="cls-1" d="M7.85,79.9H10c.23,0,.68-.35.25-.35H8.1c-.24,0-.69.35-.25.35Z"/><path class="cls-1" d="M7.53,79.47a34.54,34.54,0,0,0,5.57.16c.37,0,.49-.48.05-.47A33.58,33.58,0,0,1,7.75,79c-.32-.06-.65.4-.22.47Z"/><path class="cls-1" d="M8.51,79.9c-.2.19-.46.3-.66.49s.09.13.15.13a.73.73,0,0,0,.43-.16c.2-.19.46-.3.67-.49s-.1-.13-.16-.13a.73.73,0,0,0-.43.16Z"/><path class="cls-1" d="M8.27,80.11a2.75,2.75,0,0,0-1.12,1.61c-.06.23.59.14.64-.08a2.29,2.29,0,0,1,.88-1.33c.36-.25-.19-.34-.4-.2Z"/><path class="cls-1" d="M10.09,79.91a9,9,0,0,0-2.55,2.33c-.23.33.37.42.53.18a8.81,8.81,0,0,1,2.44-2.23c.36-.24-.16-.45-.42-.28Z"/><path class="cls-1" d="M11.26,80.42a9.11,9.11,0,0,0-3.09,3.2c-.17.28.48.23.6,0a8.45,8.45,0,0,1,2.9-3c.37-.22-.18-.36-.41-.23Z"/><path class="cls-1" d="M11.84,81.22a7,7,0,0,0-1.69,2c0,.05.54,0,.63-.12a6.77,6.77,0,0,1,1.64-1.93c.12-.09-.11-.09-.15-.08a.84.84,0,0,0-.43.14Z"/><path class="cls-1" d="M9.72,80.56a27.65,27.65,0,0,0,.33,5.06s.17,0,.16,0a27.71,27.71,0,0,1-.33-5.06s-.16,0-.16,0Z"/><path class="cls-1" d="M9.22,81.33a5.84,5.84,0,0,1-.17-.81s-.16,0-.16,0a45,45,0,0,0,.83,4.73s.17,0,.16,0a34.27,34.27,0,0,0-1.16-5.39s-.17,0-.16,0c.18,1.75.48,3.48.66,5.23,0,0,.16,0,.16,0a11.76,11.76,0,0,0-1-4.41s-.17,0-.17,0c.18,1.75.49,3.48.67,5.22,0,0,.16,0,.16,0a12.62,12.62,0,0,0-1-5.38s-.16,0-.16,0C8,82,8.26,83.5,8.47,85c.08.59.2,1.27.31,1.78-.12-.56-.27-1.11-.39-1.66,0,0-.17,0-.17,0,.16.71.35,1.41.5,2.12,0,0,.17,0,.16,0-.12-1.52-.36-3-.58-4.52A8.4,8.4,0,0,0,8.07,81a16.45,16.45,0,0,1,.58,1.93,11.42,11.42,0,0,1,.27,2c.07,1.29,0-.38-.06-.63-.09-.69-.19-1.37-.29-2.06-.17-1.2-.18-1.26.21-.07a10.16,10.16,0,0,1,.39,2c.16,1.27.06-.37,0-.64-.09-.69-.2-1.38-.3-2.07-.05-.35-.41-1.8-.05-.46s.68,2.68.92,3.77c-.15-.69-.29-1.38-.41-2.07-.07-.36-.12-.72-.18-1.08s-.3-.94-.12-.23c0,0,.16,0,.16,0Z"/><path class="cls-1" d="M10.05,80.84c-.14-.31.06-.43-.35-.5,0,0-.12,0-.14,0a5.19,5.19,0,0,0-.67,2c0,.05.14,0,.15,0a5,5,0,0,0,.9-1c.17-.25.34-.5.5-.75s.32-.81.17-.35c-.47,1.5-1.12,2.94-1.72,4.39,0,0,.06,0,.07,0a.71.71,0,0,0,.58-.36c0-.05-.12,0-.14,0-.37.43-.09-.32-.07-.39.19-.44.38-.89.56-1.34.37-.89.7-1.78,1-2.7,0,0-.14,0-.16,0A14.67,14.67,0,0,1,9.26,82c-.51.56.07-.85.13-1,.19-.43.34-.48.5-.13,0,.05.17,0,.16,0Z"/><path class="cls-1" d="M11,82a10.11,10.11,0,0,0,.83-1.8c0-.09-.1-.08-.14,0a11,11,0,0,0-2.51,5.58c0,.08.15.06.16,0a15.9,15.9,0,0,1,1.08-3.41,8.16,8.16,0,0,1,1-1.65c.45-.6,0,.14,0,.24-.16.36-.38.71-.56,1.07,0,.08.12.08.15,0Z"/><path class="cls-1" d="M12.73,80.19C10.93,82.27,10,85,9.06,87.56c0,.07.14,0,.16,0,.92-2.51,1.86-5.26,3.64-7.32.07-.07-.09-.08-.13,0Z"/><path class="cls-1" d="M13.59,80.82c-1,.44-1.56,1.66-2,2.57a25.93,25.93,0,0,0-1.68,4.5c0,.07.14,0,.16,0a33.61,33.61,0,0,1,1.23-3.49c.48-1.13,1.15-2.95,2.38-3.48.1,0,0-.11-.07-.08Z"/><path class="cls-1" d="M14.22,80.84a15,15,0,0,0-3.16,6.22c0,.08.13.08.15,0a14.9,14.9,0,0,1,3.15-6.18c.07-.08-.09-.1-.14,0Z"/><path class="cls-1" d="M15.05,81a11.75,11.75,0,0,0-2.83,5.07c0,.05.14,0,.16,0A11.92,11.92,0,0,1,15.2,81s-.12,0-.15,0Z"/><path class="cls-1" d="M15.38,81.84a12.85,12.85,0,0,0-1.67,3.28s.15,0,.16,0a12.85,12.85,0,0,1,1.66-3.26c0-.06-.12,0-.15,0Z"/><path class="cls-1" d="M16,82.32a17.56,17.56,0,0,0-1.16,2.29c0,.08.13.09.15,0a16.46,16.46,0,0,1,1.17-2.29c.05-.07-.12-.08-.16,0Z"/><path class="cls-1" d="M16.54,83.16,16,84.63s.15,0,.16,0l.5-1.47s-.15,0-.16,0Z"/><path class="cls-1" d="M17.54,83.17c.15.31.18.66.33,1,0,.06.19,0,.16,0-.15-.32-.18-.67-.33-1,0-.07-.19,0-.16,0Z"/><path class="cls-1" d="M12.55,45.6a46.86,46.86,0,0,0-2.83,4.57c0,.08.13.08.16,0a42.9,42.9,0,0,1,2.83-4.57c0-.07-.12-.07-.16,0Z"/><path class="cls-1" d="M14.91,47.38c-3.08,1.91-5,5.51-6,8.85,0,.05.14,0,.16,0,1-3.31,2.91-6.9,6-8.79.09-.05-.06-.06-.1,0Z"/><path class="cls-1" d="M15.63,48.16c-1.29.13-2.12,1.53-2.75,2.49a26.06,26.06,0,0,0-2.66,5.56c0,.08.13.08.16,0a30.22,30.22,0,0,1,1.69-3.87c.66-1.29,1.84-3.92,3.55-4.08.08,0,.12-.13,0-.12Z"/><path class="cls-1" d="M16.09,48.51C12.77,50,10.87,54.71,10.22,58c0,.07.15,0,.16,0,.64-3.23,2.53-7.93,5.77-9.42.1,0,0-.11-.06-.07Z"/><path class="cls-1" d="M17.72,48c-3.77,2.77-6,7.34-7.5,11.62,0,.05.14,0,.16,0,1.48-4.26,3.71-8.81,7.47-11.57.07,0-.09,0-.13,0Z"/><path class="cls-1" d="M18.09,49.17c-1.77.65-2.87,2.32-3.79,3.85a48.77,48.77,0,0,0-3.08,6.64s.14,0,.16,0c.72-1.72,1.42-3.45,2.26-5.13,1-1.94,2.31-4.47,4.51-5.28.1,0,0-.07-.06,0Z"/><path class="cls-1" d="M18.72,49.52c-3,2.55-4.86,6.24-6.34,9.81,0,0,.14,0,.16,0,1.47-3.55,3.3-7.23,6.31-9.77.06-.06-.1-.06-.13,0Z"/><path class="cls-1" d="M19.21,50.51a25.51,25.51,0,0,0-5.83,8.66s.14,0,.16,0a25.62,25.62,0,0,1,5.81-8.64s-.11,0-.14,0Z"/><path class="cls-1" d="M18.88,52.12a15.16,15.16,0,0,0-4.34,6.55c0,.07.14,0,.16,0A15.06,15.06,0,0,1,19,52.15c.08-.06-.08-.07-.13,0Z"/><path class="cls-1" d="M19.05,53.1a12.84,12.84,0,0,0-2.68,4.43c0,.07.14,0,.17,0a12.3,12.3,0,0,1,2.64-4.38c.07-.08-.09-.09-.13,0Z"/><path class="cls-1" d="M19.55,54.07a7,7,0,0,0-1.68,3c0,.09.14.09.16,0a6.81,6.81,0,0,1,1.65-2.92c.07-.07-.08-.1-.13,0Z"/><path class="cls-1" d="M20.54,54.42a2.79,2.79,0,0,0-.67,2.64s.17,0,.16-.05a2.69,2.69,0,0,1,.66-2.59c0-.05-.12,0-.15,0Z"/><path class="cls-1" d="M21,55.72c-.15.32-.19.67-.34,1,0,.08.13.06.15,0,.15-.31.19-.66.34-1,0-.07-.13-.06-.15,0Z"/><path class="cls-1" d="M12.06,80.05a30.22,30.22,0,0,0-2.17,3.1c0,.06.13,0,.15,0a31.77,31.77,0,0,1,2.16-3.1c.05-.06-.12,0-.14,0Z"/><path class="cls-1" d="M14.72,78.91A40.51,40.51,0,0,0,11.37,82c-.71.77-1.63,1.88-1.32,3,0,.05.18,0,.16,0-.36-1.3.9-2.55,1.73-3.41s1.94-1.75,2.92-2.61c0,0-.11,0-.14,0Z"/><path class="cls-1" d="M15.24,80a12.33,12.33,0,0,0-4.85,6.23s.14,0,.16,0a12.19,12.19,0,0,1,4.79-6.18c.09,0-.06,0-.1,0Z"/><path class="cls-1" d="M16.75,79.69c-3,1.45-5,4.9-6.2,7.87,0,.06.14,0,.16,0,1.16-2.93,3.13-6.38,6.11-7.79.1-.05,0-.11-.07-.07Z"/><path class="cls-1" d="M17.24,80c-3.4,1.64-5.45,5.84-6.69,9.17,0,0,.15,0,.16,0,1.22-3.3,3.26-7.49,6.62-9.11.1,0,0-.06-.09,0Z"/><path class="cls-1" d="M17.88,80.22a37.68,37.68,0,0,0-6.16,8.33s.13,0,.16,0A38.35,38.35,0,0,1,18,80.21s-.11,0-.14,0Z"/><path class="cls-1" d="M18.39,80.36A26,26,0,0,0,11.72,90c0,.06.14,0,.16,0,1.29-3.73,3.85-6.83,6.63-9.6.07-.07-.09-.06-.12,0Z"/><path class="cls-1" d="M18.71,81a35.22,35.22,0,0,0-6.49,9.64s.14,0,.16,0A35.39,35.39,0,0,1,18.86,81s-.12,0-.15,0Z"/><path class="cls-1" d="M19.55,81c-2.82,2.8-5.51,6-6.67,9.82,0,.07.14,0,.16,0,1.16-3.81,3.83-7,6.64-9.76.07-.07-.09-.09-.13,0Z"/><path class="cls-1" d="M20,82.5c-2.57,2.69-5.2,5.45-6.49,9,0,0,.14,0,.16,0,1.28-3.53,3.91-6.28,6.48-9,0,0-.12,0-.15,0Z"/><path class="cls-1" d="M21.2,82.5A32.84,32.84,0,0,0,14.54,92s.14,0,.16,0a32.72,32.72,0,0,1,6.65-9.46s-.12,0-.15,0Z"/><path class="cls-1" d="M21.88,83.13a26.83,26.83,0,0,0-5.17,7.52c0,.08.13.06.15,0A26.87,26.87,0,0,1,22,83.16c.06-.07-.09-.07-.13,0Z"/><path class="cls-1" d="M22.2,84.46a19.82,19.82,0,0,0-4.5,6.21s.14,0,.16,0a19.59,19.59,0,0,1,4.49-6.2s-.12,0-.15,0Z"/><path class="cls-1" d="M22.7,85a13.42,13.42,0,0,0-3.17,4.58s.15,0,.16,0a13.31,13.31,0,0,1,3.16-4.56s-.12,0-.15,0Z"/><path class="cls-1" d="M23,85.57a15.08,15.08,0,0,0-2.34,3.28c0,.09.12.09.15,0a14.82,14.82,0,0,1,2.32-3.25c.07-.08-.08-.11-.13-.05Z"/><path class="cls-1" d="M23.53,86.43l-1.5,2a.21.21,0,0,0,.16,0l1.49-2s-.13,0-.15,0Z"/><path class="cls-1" d="M24.54,86.72a4,4,0,0,0-.68,1c0,.07.13,0,.15,0a3.73,3.73,0,0,1,.66-1c.07-.07-.09-.08-.13,0Z"/><path class="cls-1" d="M26.19,86.6a1.21,1.21,0,0,1-.16.79c-.05,0,.11,0,.14,0a1.22,1.22,0,0,0,.18-.84s-.16,0-.16,0Z"/><path class="cls-1" d="M20.88,84.92a18.17,18.17,0,0,1-1.33,1.8c-.07.07.08.09.13,0A16.6,16.6,0,0,0,21,85c.06-.08-.09-.11-.13,0Z"/><path class="cls-1" d="M20.88,82.81A14.44,14.44,0,0,0,18,87.56c0,.06.13,0,.16,0A14.19,14.19,0,0,1,21,82.84c.07-.07-.09-.07-.13,0Z"/><path class="cls-1" d="M19.55,83.29a28.8,28.8,0,0,0-2.67,4.91c-.05.08.12.08.15,0a29.14,29.14,0,0,1,2.65-4.88c.06-.08-.09-.11-.13,0Z"/><path class="cls-1" d="M18.55,83.13c-1.62,1.7-2.28,4.07-3,6.23,0,.06.14,0,.16,0,.73-2.14,1.37-4.48,3-6.17.07-.07-.09-.08-.13,0Z"/><path class="cls-1" d="M17.71,82.65A32.46,32.46,0,0,0,14.38,90c0,.08.13.08.16,0a32.36,32.36,0,0,1,3.32-7.34c.05-.07-.11-.08-.15,0Z"/><path class="cls-1" d="M17,82.51c-1.45,2.31-2.23,4.94-3.49,7.34,0,0,.13,0,.16,0,1.26-2.41,2-5,3.49-7.35,0,0-.14,0-.16,0Z"/><path class="cls-1" d="M16.55,82.31c-1.73,2.16-2.49,4.84-3.5,7.36,0,.08.13.07.15,0,1-2.51,1.76-5.18,3.49-7.33.06-.08-.1-.08-.14,0Z"/><path class="cls-1" d="M15.55,82a54.71,54.71,0,0,0-3.17,6.87s.14,0,.16,0A53.61,53.61,0,0,1,15.7,82c0-.07-.13-.05-.15,0Z"/><path class="cls-1" d="M14.88,81.18c-1.31,2.57-2.61,5.15-3.66,7.83,0,.09.13.09.16,0,1-2.68,2.34-5.26,3.65-7.83.05-.08-.12-.09-.15,0Z"/><path class="cls-1" d="M13.88,81.2c-1.16,2.59-2.3,5.19-3.33,7.83,0,.06.14,0,.16,0,1-2.64,2.17-5.24,3.33-7.83,0-.05-.14,0-.16,0Z"/><path class="cls-1" d="M13.05,81.53c-.84,2.14-1.69,4.27-2.66,6.36,0,0,.13,0,.16,0,1-2.09,1.82-4.22,2.66-6.36,0-.05-.14,0-.16,0Z"/><path class="cls-1" d="M12.39,81.68c-1.14,1.68-1.54,3.66-2.17,5.56,0,.06.14,0,.16,0a21.48,21.48,0,0,1,2.16-5.54c0-.06-.12-.05-.15,0Z"/><path class="cls-1" d="M11.88,80.87a19.84,19.84,0,0,0-2,5.88c0,.06.15,0,.16,0a19.84,19.84,0,0,1,2-5.88s-.13,0-.16,0Z"/><path class="cls-1" d="M13.22,80.06c-.29,1.28-.8,2.5-1.17,3.75,0,0,.15,0,.16,0,.37-1.25.88-2.48,1.16-3.76,0,0-.15,0-.15,0Z"/><path class="cls-1" d="M14.05,79.74c-.34,1.26-.83,2.48-1.17,3.75,0,0,.15,0,.16,0,.34-1.27.83-2.49,1.16-3.75,0,0-.14,0-.15,0Z"/><path class="cls-1" d="M14.71,80.36a22.66,22.66,0,0,0-1,3.12c0,.08.15.07.16,0a22.58,22.58,0,0,1,1-3.08c0-.1-.13-.1-.16,0Z"/><path class="cls-1" d="M15.54,80.38a8.91,8.91,0,0,0-.83,3.44c0,.07.17,0,.16,0a8.86,8.86,0,0,1,.83-3.41c0-.07-.14-.05-.16,0Z"/><path class="cls-1" d="M16.87,80.22a12.09,12.09,0,0,0-1.33,3.27s.15,0,.16,0A11.9,11.9,0,0,1,17,80.2s-.13,0-.16,0Z"/><path class="cls-1" d="M17.87,80.39A9.09,9.09,0,0,0,17,83.82s.16,0,.16,0A9,9,0,0,1,18,80.36s-.14,0-.16,0Z"/><path class="cls-1" d="M19.2,80.39a10.52,10.52,0,0,0-1,3.1c0,.05.16,0,.16,0a10.71,10.71,0,0,1,1-3.1s-.14,0-.16,0Z"/><path class="cls-1" d="M20.37,79.9a6.92,6.92,0,0,0-.84,2.94s.16,0,.16,0a6.92,6.92,0,0,1,.84-2.93s-.14,0-.16,0Z"/><path class="cls-1" d="M21.53,79.57a7.62,7.62,0,0,0-.67,2.61c0,.06.16,0,.16,0a7.62,7.62,0,0,1,.67-2.61s-.14,0-.16,0Z"/><path class="cls-1" d="M22.7,79.88a3.3,3.3,0,0,0-.67,2c0,.07.16,0,.16,0a3.24,3.24,0,0,1,.66-1.94c0-.06-.12,0-.15,0Z"/><path class="cls-1" d="M23.69,79.73A5.32,5.32,0,0,1,23,81.35c0,.06.12.05.15,0a5.26,5.26,0,0,0,.67-1.65c0-.06-.14,0-.16,0Z"/><path class="cls-1" d="M24.85,79.57A4.91,4.91,0,0,0,24.52,81c0,.07.16,0,.16,0A5,5,0,0,1,25,79.55c0-.06-.15,0-.17,0Z"/><path class="cls-1" d="M26,80a1.28,1.28,0,0,0-.19.43c0,.13.1.22.21.28s.2,0,.12-.1-.2-.13-.15-.26a2.06,2.06,0,0,1,.17-.33c0-.08-.12-.09-.16,0Z"/><path class="cls-1" d="M79.41,77.45c-.36.53-.65,1.1-1,1.63,0,0,.13,0,.16,0,.35-.54.64-1.11,1-1.64,0,0-.14,0-.16,0Z"/><path class="cls-1" d="M77.75,77.11a24,24,0,0,0-1.5,3s.14,0,.16,0a23,23,0,0,1,1.49-2.93c0-.07-.13,0-.15,0Z"/><path class="cls-1" d="M76.26,76.93a16,16,0,0,0-2,2.95c0,.07.12.07.15,0a16,16,0,0,1,2-2.92c.07-.08-.09-.1-.13,0Z"/><path class="cls-1" d="M73.92,77.6c-.7.83-1.62,1.45-2.32,2.28,0,.06.11.05.15,0,.7-.84,1.62-1.45,2.32-2.29.05,0-.11,0-.15,0Z"/><path class="cls-1" d="M70.61,78.24a7.21,7.21,0,0,0-1.34,1.81c0,.06.12,0,.15,0a7,7,0,0,1,1.32-1.78c.06-.07-.09-.07-.13,0Z"/><path class="cls-1" d="M70.77,77.74a1.57,1.57,0,0,0-.34,1.51c0,.07.17,0,.16,0a1.48,1.48,0,0,1,.31-1.43c.07-.07-.08-.08-.13,0Z"/><path class="cls-1" d="M73.09,77.45a1.77,1.77,0,0,0-.17,1.31s.17,0,.16,0a1.74,1.74,0,0,1,.17-1.3s-.14,0-.16,0Z"/><path class="cls-1" d="M75.09,76.46a2.88,2.88,0,0,0-.84,2.47s.17,0,.16-.05a2.82,2.82,0,0,1,.83-2.42s-.12,0-.15,0Z"/><path class="cls-1" d="M76.25,75.8a6.91,6.91,0,0,0-1.17,3.94c0,.06.17,0,.16,0a6.8,6.8,0,0,1,1.16-3.89c0-.07-.12-.06-.15,0Z"/><path class="cls-1" d="M77.08,75.64a12.59,12.59,0,0,0-1.33,4.09c0,.07.15,0,.16,0a12.41,12.41,0,0,1,1.32-4.06c0-.08-.12-.07-.15,0Z"/><path class="cls-1" d="M78.08,75.31a12.88,12.88,0,0,0-1.5,4.75c0,.07.15,0,.16,0a12.72,12.72,0,0,1,1.49-4.72c0-.07-.12-.06-.15,0Z"/><path class="cls-1" d="M78.25,76.45a7.21,7.21,0,0,0-1,3c0,.08.16,0,.17,0a7,7,0,0,1,1-2.93c0-.07-.13-.06-.15,0Z"/><path class="cls-1" d="M79.41,75.49a9.1,9.1,0,0,0-1.5,4.58s.16,0,.16,0a9,9,0,0,1,1.5-4.56s-.14,0-.16,0Z"/><path class="cls-1" d="M80.24,75.49a12.09,12.09,0,0,0-2,5.22c0,.05.16,0,.16,0a12.09,12.09,0,0,1,2-5.22s-.13,0-.16,0Z"/><path class="cls-1" d="M81.08,75.48a25.35,25.35,0,0,0-2.17,4.74s.14,0,.16,0a25.44,25.44,0,0,1,2.15-4.72c0-.07-.12,0-.14,0Z"/><path class="cls-1" d="M82.07,75.15a12.14,12.14,0,0,0-2.16,4.58s.15,0,.16,0a12,12,0,0,1,2.15-4.56c0-.05-.12,0-.15,0Z"/><path class="cls-1" d="M82.74,74.82c-.69,1.59-1.78,3-2,4.74,0,.08.15.06.16,0,.22-1.75,1.31-3.14,2-4.72,0-.08-.13-.07-.15,0Z"/><path class="cls-1" d="M83.57,74.84a28.6,28.6,0,0,0-2.33,5.06s.14,0,.16,0a30,30,0,0,1,2.32-5.06s-.13,0-.15,0Z"/><path class="cls-1" d="M84.56,74.67a27.83,27.83,0,0,0-2.33,4.9s.15,0,.16,0a27.5,27.5,0,0,1,2.33-4.9s-.13,0-.16,0Z"/><path class="cls-1" d="M85.23,74.49a11.2,11.2,0,0,0-2.33,5.24c0,.07.15,0,.16,0a11.08,11.08,0,0,1,2.32-5.21c.05-.06-.11,0-.15,0Z"/><path class="cls-1" d="M85.89,74.18c-.7,1.86-1.6,3.64-2.16,5.55,0,.06.15,0,.16,0,.56-1.9,1.46-3.69,2.16-5.55,0-.06-.14,0-.16,0Z"/><path class="cls-1" d="M86.89,73.84a50.53,50.53,0,0,0-2,5.22c0,.09.13.09.15,0a51.66,51.66,0,0,1,2-5.23c0-.08-.13-.08-.16,0Z"/><path class="cls-1" d="M87.22,73.86c-.49,1.58-1.14,3.11-1.49,4.73,0,0,.15,0,.16,0,.35-1.63,1-3.16,1.49-4.74,0,0-.14,0-.16,0Z"/><path class="cls-1" d="M87.89,72.55c-.34,1.63-.81,3.24-1,4.9,0,.06.16,0,.16,0,.19-1.66.66-3.27,1-4.9,0-.06-.15,0-.16,0Z"/><path class="cls-1" d="M88.39,71.24c-.21,1.8-.87,3.75-.5,5.56,0,0,.17,0,.16,0-.37-1.79.3-3.75.5-5.54,0-.06-.16,0-.16,0Z"/><path class="cls-1" d="M88.89,71.08a22.75,22.75,0,0,0-.5,4.73c0,.08.16,0,.16,0a23.62,23.62,0,0,1,.5-4.74c0-.07-.15,0-.16,0Z"/><path class="cls-1" d="M89.39,71.42a37.12,37.12,0,0,0,.16,5.87s.17,0,.16,0a37.12,37.12,0,0,1-.16-5.87s-.16,0-.16,0Z"/><path class="cls-1" d="M78.5,74.05a17.2,17.2,0,0,0,2.68-.66c.11,0,0-.09-.06-.07a17,17,0,0,1-2.64.65c-.1,0-.08.1,0,.08Z"/><path class="cls-1" d="M78.29,73.4a14.12,14.12,0,0,0,3.54-.49c.09,0,.07-.11,0-.09a13.51,13.51,0,0,1-3.46.49c-.06,0-.17.09-.06.09Z"/><path class="cls-1" d="M78,72.9c1.9-.48,3.92-.31,5.82-.82.09,0,.08-.09,0-.06-1.9.51-3.91.34-5.82.82-.09,0-.08.08,0,.06Z"/><path class="cls-1" d="M78.29,72.26a20.07,20.07,0,0,0,6.37-.66c.09,0,.07-.12,0-.09a19.79,19.79,0,0,1-6.28.65c-.06,0-.17.1-.06.1Z"/><path class="cls-1" d="M77.67,72.27c2.72-.46,5.49-.55,8.15-1.31.1,0,.07-.14,0-.11-2.66.76-5.43.84-8.15,1.3-.1,0-.07.14,0,.12Z"/><path class="cls-1" d="M79,72.1l8-1.47c.1,0,.07-.12,0-.1L79,72c-.1,0-.07.12,0,.1Z"/><path class="cls-1" d="M84.09,70.94c.71,0,1.42,0,2.13-.1l.88-.1c.21,0,1.94-.39.86-.16a45.28,45.28,0,0,0-5,1.12c-.11,0,0,.06.06,0,1.88-.63,3.87-.84,5.8-1.3.06,0,.1-.07,0,0a24,24,0,0,1-4.62.48s-.19.07-.11.07Z"/><path class="cls-1" d="M88.81,70.71A26.46,26.46,0,0,0,82.43,73c-.09,0,0,.06.1,0a26.2,26.2,0,0,1,6.26-2.27c.07,0,.13-.09,0-.07Z"/><path class="cls-1" d="M89.12,70.86a22,22,0,0,0-6.69,3.29c-.09.06,0,.09.1,0A21.72,21.72,0,0,1,89.15,71c.09,0,.07-.11,0-.09Z"/><path class="cls-1" d="M88.76,71.06a33.83,33.83,0,0,0-6.52,3.77s.12,0,.15,0a33.23,33.23,0,0,1,6.46-3.74c.09,0-.06,0-.09,0Z"/><path class="cls-1" d="M89.08,71.21c-2.06,1.31-4.31,2.32-6.17,3.92-.07.07.09.08.14,0,1.85-1.59,4.09-2.6,6.13-3.91.1-.06,0-.09-.1-.05Z"/><path class="cls-1" d="M88.92,71.71a17.79,17.79,0,0,0-4.52,3.12s.12,0,.15,0A17.2,17.2,0,0,1,89,71.73c.1,0-.05,0-.09,0Z"/><path class="cls-1" d="M89.08,72a19.52,19.52,0,0,0-4,3.11c-.07.07.09.08.13,0a19.17,19.17,0,0,1,4-3.09c.1-.06,0-.09-.1-.06Z"/><path class="cls-1" d="M89.07,71.87a25,25,0,0,0-2.84,2.79c0,.06.12,0,.15,0A24.59,24.59,0,0,1,89.2,71.9c.07-.06-.09-.07-.13,0Z"/><path class="cls-1" d="M89.22,72.06a2.42,2.42,0,0,1-.49.65s.12,0,.14,0a2.34,2.34,0,0,0,.51-.66.26.26,0,0,0-.16,0Z"/><path class="cls-1" d="M89.72,71.08A18.27,18.27,0,0,1,89.38,74c0,.07.16,0,.17,0a19.31,19.31,0,0,0,.33-2.94c0-.07-.16,0-.16,0Z"/><path class="cls-1" d="M90.21,71.38a3.55,3.55,0,0,1,.12-.65c-.18,0-.22.18-.11.41,0,.48,0,1,0,1.46a10.63,10.63,0,0,1-.25,1.77c-.16.72-.25.11-.31-.2a5,5,0,0,1,0-1.34c0-.37.06-.73.11-1.09q-.3.06-.12.42A37.42,37.42,0,0,1,89.39,76s.15,0,.16,0c.15-1.52.16-3,.16-4.57,0,0-.15,0-.16,0a6.29,6.29,0,0,0,.17,3.6s.15,0,.16,0a13.79,13.79,0,0,0,.5-4.57s-.16,0-.16,0c0,.33-.12.65-.17,1,0,0,.16,0,.16,0Z"/><path class="cls-1" d="M88.89,71.88c-.64,1.48-1,3.06-1.5,4.58,0,.07.14.05.16,0,.5-1.52.85-3.08,1.49-4.56,0-.08-.12-.07-.15,0Z"/><path class="cls-1" d="M87.72,71.24A24,24,0,0,1,86.06,76s.13,0,.16,0a24,24,0,0,0,1.66-4.74s-.14,0-.16,0Z"/><path class="cls-1" d="M86.56,72.05l-1.49,3.42c0,.08.12.06.15,0,.5-1.14,1-2.28,1.49-3.43,0-.07-.12-.06-.15,0Z"/><path class="cls-1" d="M85.56,72.06a20.63,20.63,0,0,1-2.16,4.07c0,.06.12.05.15,0A20.39,20.39,0,0,0,85.72,72c0-.06-.14,0-.16,0Z"/><path class="cls-1" d="M84.23,72.39a31.86,31.86,0,0,1-2.16,3.92s.14,0,.16,0a33.24,33.24,0,0,0,2.16-3.92s-.14,0-.16,0Z"/><path class="cls-1" d="M83.24,72.37c-.68,1.35-1.2,2.78-2,4.08,0,.07.12.08.15,0,.8-1.3,1.32-2.73,2-4.08,0-.09-.12-.09-.15,0Z"/><path class="cls-1" d="M82.57,72.21c-.81,1.35-1.18,2.9-2,4.24,0,.07.12,0,.15,0,.81-1.35,1.18-2.9,2-4.24,0-.07-.12-.06-.15,0Z"/><path class="cls-1" d="M81.74,72.54a27,27,0,0,1-2.33,4.08c0,.06.12,0,.15,0a27,27,0,0,0,2.33-4.08c0-.07-.13-.05-.15,0Z"/><path class="cls-1" d="M80.74,72.54c-.79,1.24-1.54,2.51-2.33,3.75,0,.06.13,0,.15,0,.79-1.24,1.54-2.51,2.33-3.75,0-.06-.12,0-.15,0Z"/><path class="cls-1" d="M79.25,72.7c-.69,1.16-1.48,2.27-2.17,3.43,0,.06.13,0,.15,0,.69-1.16,1.48-2.27,2.17-3.43,0-.06-.13,0-.15,0Z"/><path class="cls-1" d="M77.25,73.35c-.48.76-1.11,1.4-1.65,2.11-.07.07.09.09.13,0,.55-.72,1.19-1.37,1.67-2.14,0-.07-.12-.06-.15,0Z"/><path class="cls-1" d="M75.92,73.85l-1.5,2s.12,0,.15,0l1.5-2s-.12,0-.15,0Z"/><path class="cls-1" d="M74.43,74.32l-1.33,1.3c-.07.07.09.08.13,0l1.33-1.31c.07-.06-.08-.08-.13,0Z"/><path class="cls-1" d="M72.94,75a4.83,4.83,0,0,0-1.35,1.15s.13,0,.16,0A4.44,4.44,0,0,1,73.06,75c.07,0-.09,0-.12,0Z"/><path class="cls-1" d="M71.61,75c-.37.35-.8.63-1.17,1-.06.06.1.05.13,0,.37-.35.8-.63,1.16-1,.07-.06-.09,0-.12,0Z"/><path class="cls-1" d="M70.29,75.29c-.32.17-.51.49-.83.65-.1,0,.05.08.1,0,.32-.17.51-.49.83-.65.1,0,0-.08-.1,0Z"/><path class="cls-1" d="M68.79,75.62a3.36,3.36,0,0,0-.84.66c-.07.07.09.06.13,0a3.18,3.18,0,0,1,.81-.65c.1,0,0-.07-.1,0Z"/><path class="cls-1" d="M67.81,75.6a1.75,1.75,0,0,0-.87.69c0,.07.12.07.15,0a1.68,1.68,0,0,1,.79-.62c.1,0,0-.12-.07-.08Z"/><path class="cls-1" d="M66.88,75.44a3,3,0,0,0-1.24.35c-.1,0,0,0,.09,0a2.57,2.57,0,0,1,1.08-.3s.18-.07.07-.07Z"/><path class="cls-1" d="M18.19,80A.39.39,0,0,1,18,79.7s-.16,0-.16,0a.44.44,0,0,0,.17.34s.19,0,.15-.06Z"/><path class="cls-1" d="M18.29,78.37a3.76,3.76,0,0,0-2.58,1.51c0,.07.12.06.15,0a3.55,3.55,0,0,1,2.41-1.43c.08,0,.13-.11,0-.09Z"/><path class="cls-1" d="M18.71,78.91a5.77,5.77,0,0,1-1.8,1.61c-.1,0,.05,0,.09,0a5.66,5.66,0,0,0,1.86-1.65c0-.05-.13,0-.15,0Z"/><path class="cls-1" d="M19.57,79.22a6.47,6.47,0,0,0-2,1.49s.11,0,.14,0a6.53,6.53,0,0,1,2-1.45c.1,0-.06,0-.09,0Z"/><path class="cls-1" d="M20.39,79.68A3.27,3.27,0,0,0,19,81.34c0,.09.13.1.15,0a3.24,3.24,0,0,1,1.31-1.6c.09-.06,0-.13-.11-.08Z"/><path class="cls-1" d="M22.36,80.55a2.23,2.23,0,0,0-.17,1s.16,0,.16,0a2.33,2.33,0,0,1,.17-1s-.14,0-.16,0Z"/><path class="cls-1" d="M37.16,77.44c-.56,4,.76,7.81.83,11.75,0,.08.17,0,.17,0-.08-4-1.4-7.79-.84-11.75,0-.07-.15-.05-.16,0Z"/><path class="cls-1" d="M36.83,77.44c.06,3.79,1.1,7.48,1.16,11.26,0,.09.17.07.17,0C38.1,84.9,37.05,81.22,37,77.43c0-.08-.16-.06-.16,0Z"/><path class="cls-1" d="M36.42,77.23c-.65,0-.3.94-.21,1.32a52.75,52.75,0,0,1,1.29,6.58c0,.06.16,0,.16,0-.17-1.5-.45-3-.72-4.47-.06-.27-1-3.28-.54-3.3.08,0,.13-.1,0-.09Z"/><path class="cls-1" d="M63.94,74.34a49.32,49.32,0,0,0,1.5,11.77c0,.07.17,0,.16,0a49.43,49.43,0,0,1-1.5-11.73c0-.08-.16-.06-.16,0Z"/><path class="cls-1" d="M63.76,74.5c.3-.68.66.7.73.91a15.46,15.46,0,0,1,.56,3A45.21,45.21,0,0,0,65.77,84c0,.06.18,0,.16,0-.81-3.29-.36-6.82-1.83-10A.08.08,0,0,0,64,74c-.37.17-.18.06-.38.52,0,.08.13.07.15,0Z"/><path class="cls-1" d="M64.11,75.66c.32,2.29.52,4.59,1,6.86,0,0,.17,0,.16,0-.47-2.27-.67-4.57-1-6.86,0,0-.17,0-.16,0Z"/><path class="cls-1" d="M8.9,65.53a6.83,6.83,0,0,0-1.34,1.64s.14,0,.16,0A6.89,6.89,0,0,1,9,65.51s-.12,0-.14,0Z"/><path class="cls-1" d="M10.23,64.84A16.52,16.52,0,0,0,7.56,68c0,.08.12.08.16,0a15.88,15.88,0,0,1,2.65-3.09c.07-.07-.09-.1-.14,0Z"/><path class="cls-1" d="M11.22,64.87a19.65,19.65,0,0,0-3.83,4.42s.14,0,.16,0a19.51,19.51,0,0,1,3.82-4.4s-.12,0-.15,0Z"/><path class="cls-1" d="M11.39,65.53a15.68,15.68,0,0,0-3.66,4.41s.13,0,.16,0a15.53,15.53,0,0,1,3.65-4.39s-.12,0-.15,0Z"/><path class="cls-1" d="M12.24,65.82a13.18,13.18,0,0,0-4,5.08c0,.08.13.06.15,0a13,13,0,0,1,4-5c.08-.06,0-.09-.11-.05Z"/><path class="cls-1" d="M12.72,66.34A20.34,20.34,0,0,0,8.56,71.9s.13,0,.16,0a20.42,20.42,0,0,1,4.15-5.54s-.12,0-.15,0Z"/><path class="cls-1" d="M13.55,66.67a35.86,35.86,0,0,0-4.16,5.72s.13,0,.16,0a35,35,0,0,1,4.15-5.7s-.12,0-.15,0Z"/><path class="cls-1" d="M14.22,67.16a20.2,20.2,0,0,0-4.66,6.37s.13,0,.15,0a20.16,20.16,0,0,1,4.66-6.36s-.12,0-.15,0Z"/><path class="cls-1" d="M14.56,68a17.79,17.79,0,0,0-3.84,5.4c0,.07.13.06.15,0A17.77,17.77,0,0,1,14.69,68c.07-.06-.09-.07-.13,0Z"/><path class="cls-1" d="M14.72,69.12A12.43,12.43,0,0,0,11.55,74s.14,0,.16,0a12.31,12.31,0,0,1,3.15-4.88s-.11,0-.14,0Z"/><path class="cls-1" d="M15.56,69.91a18,18,0,0,0-3.17,4.58c0,.08.12.07.15,0A18.06,18.06,0,0,1,15.69,70c.07-.07-.09-.09-.13,0Z"/><path class="cls-1" d="M15.55,71.7a7.93,7.93,0,0,0-2,3.11c0,.09.13.1.15,0a7.77,7.77,0,0,1,2-3.09c.07-.07-.08-.11-.14,0Z"/><path class="cls-1" d="M16.88,71.72a7.19,7.19,0,0,0-2,3.12s.15,0,.16,0a7.08,7.08,0,0,1,2-3.09s-.12,0-.15,0Z"/><path class="cls-1" d="M17.72,72.35a7.17,7.17,0,0,0-1.51,2.3c0,.09.13.09.16,0a7.07,7.07,0,0,1,1.48-2.27c.07-.07-.08-.1-.13-.05Z"/><path class="cls-1" d="M19,72.38a3.13,3.13,0,0,0-1,2s.16,0,.16,0a3.12,3.12,0,0,1,1-1.94s-.12,0-.15,0Z"/><path class="cls-1" d="M20.05,73.33a5,5,0,0,0-.85,1.5c0,.07.14.06.16,0a4.8,4.8,0,0,1,.82-1.44c.06-.08-.09-.11-.13,0Z"/><path class="cls-1" d="M21.71,74.15c-.2.22-.22.57-.34.83,0,.08.12.08.15,0,.12-.25.13-.6.32-.81s-.08-.1-.13,0Z"/><path class="cls-1" d="M24,74a3.18,3.18,0,0,1,.49.81c0,.05.19,0,.16,0a3.28,3.28,0,0,0-.5-.82S24,74,24,74Z"/><path class="cls-1" d="M50.64,8.26c2.37,1.93,4,4.63,6.49,6.37,0,0,.18,0,.15-.06-2.54-1.74-4.12-4.44-6.49-6.37,0,0-.19,0-.15.06Z"/><path class="cls-1" d="M59,5.66c2.38,1.91,4.05,4.53,6.65,6.21.06,0,.2,0,.13-.09-2.6-1.67-4.27-4.3-6.66-6.2-.05,0-.19,0-.12.08Z"/><path class="cls-1" d="M51.63,7.6c.09.15.26.3.15.48,0,0-.25.21-.09.23s.59-.24.75-.39H52.3c0,.25-.32.47-.49.64s.1,0,.13,0c.31-.3.69-.52,1-.82l-.13,0a4.22,4.22,0,0,0-.47.56,1.27,1.27,0,0,0-.21.44c0,.06.16,0,.16,0a1.16,1.16,0,0,1,.2-.42,4.6,4.6,0,0,1,.45-.54c.07-.06-.09,0-.13,0-.31.3-.68.52-1,.82l.13,0c.18-.18.49-.41.52-.67,0-.07-.12,0-.15,0a2.09,2.09,0,0,1-.29.23l-.19.1s.08-.12.1-.14c.14-.19,0-.36-.14-.52s-.18,0-.16,0Z"/><path class="cls-1" d="M54,7.23a11,11,0,0,0-1.83,2c0,.07.11.07.15,0a11.57,11.57,0,0,1,1.82-2c.07-.07-.09-.09-.14,0Z"/><path class="cls-1" d="M54,7.74a8,8,0,0,0-1.51,1.81s.14,0,.16,0a7.56,7.56,0,0,1,1.5-1.79s-.12,0-.15,0Z"/><path class="cls-1" d="M55,7.38a6.18,6.18,0,0,0-2,2.15c0,.07.11.08.15,0a6.28,6.28,0,0,1,2-2.1c.09,0,0-.11-.11-.07Z"/><path class="cls-1" d="M55.65,7.38A9.75,9.75,0,0,0,53.13,10c-.05.07.12.07.16,0a9.62,9.62,0,0,1,2.47-2.58c.09-.06,0-.11-.11-.07Z"/><path class="cls-1" d="M56.81,6.75a10.12,10.12,0,0,0-3.18,3.61s.13,0,.16,0a9.9,9.9,0,0,1,3.14-3.57c.07,0-.09,0-.12,0Z"/><path class="cls-1" d="M57.48,6.89a12.31,12.31,0,0,0-3.85,4.27c0,.08.12.07.15,0A12,12,0,0,1,57.59,7c.08-.06-.05-.11-.11-.07Z"/><path class="cls-1" d="M58.3,6.92a10.11,10.11,0,0,0-4,4.59s.14,0,.16,0a9.94,9.94,0,0,1,4-4.55c.07,0-.1,0-.13,0Z"/><path class="cls-1" d="M59,6.93a14.94,14.94,0,0,0-4.17,4.91s.14,0,.16,0A14.82,14.82,0,0,1,59.1,6.92s-.11,0-.14,0Z"/><path class="cls-1" d="M59.81,7.23a9.64,9.64,0,0,0-4.35,5.42s.14,0,.16,0a9.56,9.56,0,0,1,4.29-5.36c.1,0,0-.06-.1,0Z"/><path class="cls-1" d="M60,7.72a20.78,20.78,0,0,0-3.83,4.59c-.05.07.12.06.15,0a20.81,20.81,0,0,1,3.81-4.56c.08-.06-.08-.08-.13,0Z"/><path class="cls-1" d="M60.46,8.06A15.66,15.66,0,0,0,56.29,13s.13,0,.16,0a15.61,15.61,0,0,1,4.14-4.87c.07-.06-.09-.05-.13,0Z"/><path class="cls-1" d="M61.12,8.24a27.66,27.66,0,0,0-4.66,5.07.27.27,0,0,0,.16,0,27.79,27.79,0,0,1,4.64-5s-.11,0-.14,0Z"/><path class="cls-1" d="M61.46,8.72c-1.59,1.26-4.2,3.21-4.34,5.41,0,0,.16,0,.16,0C57.42,11.92,60,10,61.59,8.73c.06-.06-.1,0-.13,0Z"/><path class="cls-1" d="M59.6,11.17c.37-.51.8-1,1.17-1.47,0-.06-.12,0-.15,0a13.81,13.81,0,0,0-2.5,4.09c0,.05.14,0,.16,0a9.06,9.06,0,0,1,1.5-2.72c.28-.4.57-.78.86-1.17l-.17,0-.34.42c-.23.27-.46.55-.68.84,0,.06.13,0,.15,0Z"/><path class="cls-1" d="M61.26,10.21l.49-.49c.07-.06-.09-.07-.13,0a15.47,15.47,0,0,0-2.83,3.76c0,.07.12.06.15,0a16.33,16.33,0,0,1,2.15-3l.5-.57c.09-.11.14-.3,0-.14l-.44.44c-.07.06.09.06.13,0Z"/><path class="cls-1" d="M62,9.7a29,29,0,0,0-2.33,3.59c0,.07.13.05.15,0A29,29,0,0,1,62.1,9.7c0-.06-.12,0-.15,0Z"/><path class="cls-1" d="M62.45,10a9.6,9.6,0,0,0-2.17,3.44s.15,0,.16,0A9.42,9.42,0,0,1,62.6,10s-.12,0-.15,0Z"/><path class="cls-1" d="M63,10.19a15.84,15.84,0,0,0-1.84,2.62s.14,0,.16,0a15.62,15.62,0,0,1,1.83-2.6s-.12,0-.15,0Z"/><path class="cls-1" d="M63.45,10.82c-.31.45-.68.85-1,1.3-.07.09.08.1.13.05a16.65,16.65,0,0,0,1.83-1.63l-.15,0a6.75,6.75,0,0,1-.16,2c0,.08.13.09.15,0a6.59,6.59,0,0,0,.17-2c0-.07-.11-.06-.14,0a17.62,17.62,0,0,1-1.83,1.63l.13.05c.31-.45.68-.85,1-1.3.06-.09-.09-.11-.14,0Z"/><path class="cls-1" d="M68.3,2.57C71.49,3.78,75,5.49,77.42,7.94c0,0,.2,0,.15-.07a25.86,25.86,0,0,0-9.18-5.4c-.06,0-.19.06-.09.1Z"/><path class="cls-1" d="M69.06,2.71a9.57,9.57,0,0,1,2.23-1.3c.16-.13.21-.17.13-.13l-.54.36c-.38.27-.72.57-1.09.85-.09.06,0,.1.1.06.79-.47,1.53-1,2.31-1.52a5.33,5.33,0,0,0-.85.86,9.19,9.19,0,0,1-1.06.92c-.09.07,0,.11.1.07a12.09,12.09,0,0,0,2-2c.07-.08-.07-.08-.12-.06-.65.4-1.28.85-1.92,1.27-.12.09-.25.17-.38.25l.11,0,.37-.28a8.07,8.07,0,0,1,1.24-.86c.09-.05,0-.12,0-.1A9.13,9.13,0,0,0,69,2.65c-.09.06,0,.11.1.06Z"/><path class="cls-1" d="M72.76,1.21a17,17,0,0,1-1.22,1.33,3.86,3.86,0,0,0-1,1.29c0,.06.15,0,.16,0a4.36,4.36,0,0,1,1.1-1.43,12.89,12.89,0,0,0,1.06-1.16c0-.07-.12-.05-.15,0Z"/><path class="cls-1" d="M73.77,1.37a11.09,11.09,0,0,0-2.34,2.3s.12,0,.15,0a10.86,10.86,0,0,1,2.31-2.28c.07,0-.09,0-.12,0Z"/><path class="cls-1" d="M74.43,1.53a11.88,11.88,0,0,0-2.5,2.3s.12,0,.15,0a11.4,11.4,0,0,1,2.48-2.27c.07-.05-.09,0-.13,0Z"/><path class="cls-1" d="M74.78,1.68a6.78,6.78,0,0,0-2.35,2.47c0,.07.12,0,.15,0a6.67,6.67,0,0,1,2.3-2.42c.09-.06,0-.09-.1-.05Z"/><path class="cls-1" d="M75.11,2.16a4.66,4.66,0,0,0-1.85,2.15c0,.08.13.06.15,0a4.54,4.54,0,0,1,1.8-2.1c.1-.06,0-.09-.1-.06Z"/><path class="cls-1" d="M75.26,2.83a6.1,6.1,0,0,0-1.67,2c0,.07.13,0,.15,0a6,6,0,0,1,1.65-1.95c.08-.06-.08-.06-.13,0Z"/><path class="cls-1" d="M75.76,3.31a7.66,7.66,0,0,0-1.34,1.81c0,.08.12.08.15,0A7.45,7.45,0,0,1,75.9,3.36c.07-.07-.09-.1-.14,0Z"/><path class="cls-1" d="M76.1,4a8.14,8.14,0,0,0-1.34,2.13c0,.06.07,0,.1,0a6.61,6.61,0,0,0,1.7-1h-.15a2,2,0,0,0,.34,2.31s.19,0,.15-.07a1.94,1.94,0,0,1-.33-2.26c0-.06-.12,0-.14,0a4.3,4.3,0,0,1-.79.55l-.47.24c-.16.07-.28.23-.18,0A7.42,7.42,0,0,1,76.22,4c.07-.07-.09-.06-.12,0Z"/></g></g></svg>