<svg id="clip" xmlns="http://www.w3.org/2000/svg" viewBox="0 0 190.29 103.28"><defs><style>.cls-1{fill:#671011;}.cls-2{fill:#671213;}</style></defs><g id="Layer_2" data-name="Layer 2"><g id="l2"><path class="cls-1" d="M115,31c.41,0,1-.62.35-.62-.41,0-1,.62-.35.62Z"/><path class="cls-2" d="M188.07,30.83a92.61,92.61,0,0,0-.1-18.91Z"/><path class="cls-2" d="M96.17,11.81h46.21l23.11,0L188,11.72c0-.21,0-.41-.07-.62a4.43,4.43,0,0,1,0-.62l-22.36-.08-23.11,0H96.17L50,10.5l-45.9.22a3.67,3.67,0,0,1,1,.77L50,11.7Z"/><path class="cls-2" d="M188.52,91.61v1.56c-15.38-.15-30.76-.3-46.15-.37s-30.81-.11-46.21-.16-30.82,0-46.22,0L6,92.94a3.32,3.32,0,0,1-.28.6L50,93.81c15.4,0,30.81.09,46.22,0s30.81,0,46.21-.16,30.82-.22,46.22-.37h.08V91.68Z"/><path class="cls-2" d="M4.64,11.13c-.74,3.43,1.2,5.76,2.76,8.66,2.1,3.9-.43,7-2.66,10.07C-.4,37,7.79,41.64,8.94,48.49c.69,4.08-3.33,7.32-4.18,11.12-.69,3.09,1.56,6.64,2.17,9.63C8.55,77.25,1.55,85,1,92.94c0,0,.09,0,.1,0a8,8,0,0,1,5,.69c.1,0,.37-.1.33-.11a10.56,10.56,0,0,0-4-.85c-2.07,0-.18-4.82.14-5.87C3.79,82.71,5.93,78.93,7,74.76c1-3.8,0-7.45-1.33-11-1.78-4.66,1.14-7.65,3.06-11.57,3.75-7.66-8.48-13-4.62-20.81C5.69,28.13,8.83,26,8.55,22.1,8.25,17.89,4,15.69,5,11.07c0-.07-.33,0-.35.06Z"/><path class="cls-2" d="M187.71,30c-2.82,4.39-6.1,8.24-1.58,12.79,2.24,2.26,4.57,4.94,3.57,8.31-.6,2-2.75,3.64-4.15,5.18-3.46,3.81-2.76,7.81-.51,12.08,2.36,4.45,3.3,7.77,2.88,12.84-.33,3.92-1,7.75-.58,11.7,0,.16.37.07.35-.09-.7-7.34,2.49-14.83-.82-21.8-1.43-3-3.53-5.72-3.52-9.17,0-2.79,2-5,3.84-6.87,2.37-2.44,4.17-5.06,2.37-8.42C188.38,44.37,186.43,43,185,41c-2.83-3.84,1.07-7.77,3.08-10.89.1-.17-.25-.18-.34,0Z"/><path class="cls-2" d="M3.55,88a3.93,3.93,0,0,1-.71,1.73c-.08.15.27.12.33,0A4.28,4.28,0,0,0,3.91,88c0-.15-.35-.09-.36,0Z"/><path class="cls-2" d="M4,90.05c-.37.41-.35,1-.72,1.41-.14.15.2.14.28.06.37-.41.35-1,.72-1.41C4.37,90,4,90,4,90.05Z"/><path class="cls-2" d="M5.73,90.13a1.29,1.29,0,0,1-.35,1c-.1.11.25.08.32,0A1.45,1.45,0,0,0,6.08,90c0-.1-.35,0-.35.09Z"/><path class="cls-2" d="M3.07,86.23a18,18,0,0,0-1,4.68c0,.18.35.13.36,0a17.48,17.48,0,0,1,1-4.68c.05-.16-.31-.12-.35,0Z"/><path class="cls-2" d="M3.56,87.65a24.37,24.37,0,0,0-1.21,5.64c0,.08.34,0,.35-.09a24.54,24.54,0,0,1,1.2-5.6c0-.1-.32,0-.34.05Z"/><path class="cls-2" d="M4.05,89.48a22.33,22.33,0,0,0-1,3.78c0,.15.33.1.35,0a22.72,22.72,0,0,1,1-3.71c.07-.17-.28-.15-.33,0Z"/><path class="cls-2" d="M2.6,88.78a8.08,8.08,0,0,0-1.22,4c0,.16.35.1.35,0a7.94,7.94,0,0,1,1.2-4c.09-.16-.26-.15-.33,0Z"/><path class="cls-2" d="M1.38,89.75a8,8,0,0,0-.24,3.3c0,.13.38,0,.35-.09a7.79,7.79,0,0,1,.24-3.25c0-.14-.33-.08-.35,0Z"/><path class="cls-2" d="M1.38,91.85c0,.63-.23,1.24-.24,1.87,0,.18.35.13.35,0,0-.64.22-1.25.24-1.88,0-.17-.35-.12-.35,0Z"/><path class="cls-2" d="M1.34,94.05a6.35,6.35,0,0,1,1.89-.22c.19,0,.27-.24,0-.24a6.64,6.64,0,0,0-2,.24c-.21.07-.15.29.06.22Z"/><path class="cls-2" d="M1.73,93.82a6.19,6.19,0,0,0,3.08-.75c.2-.12-.1-.2-.23-.13a5.35,5.35,0,0,1-2.72.66c-.15,0-.36.22-.13.22Z"/><path class="cls-2" d="M3.38,93.1a5.65,5.65,0,0,0,1.73.24c.14,0,.37-.2.14-.2a5.5,5.5,0,0,1-1.66-.23c-.11,0-.41.13-.21.19Z"/><path class="cls-2" d="M3.79,93.51C4.5,93.29,5.25,93.25,6,93c.24-.07,0-.1-.11-.07-.72.22-1.47.26-2.18.47-.24.07,0,.11.12.07Z"/><path class="cls-2" d="M3.38,93.54a5.64,5.64,0,0,0,2.9-.76c.15-.09-.2,0-.27,0a4.7,4.7,0,0,1-2.41.64c-.07,0-.4.14-.22.13Z"/><path class="cls-2" d="M4.63,93.34c.73,0,1.44-.21,2.18-.23.14,0,.36-.21.13-.21-.74,0-1.45.22-2.18.24-.14,0-.37.21-.13.2Z"/><path class="cls-2" d="M8.45,90.12c-.65.44-.95,1.13-1.48,1.66-.16.16.18.22.29.11.51-.52.8-1.19,1.42-1.61.19-.13-.09-.26-.23-.16Z"/><path class="cls-2" d="M7,90.41a6.88,6.88,0,0,0-1.23,1.66c-.07.14.28.1.33,0a6.88,6.88,0,0,1,1.18-1.61c.14-.14-.2-.13-.28,0Z"/><path class="cls-2" d="M6.7,89.29A18.7,18.7,0,0,0,5,92.1s.3,0,.34-.06A19.94,19.94,0,0,1,7,89.23a.52.52,0,0,0-.34.06Z"/><path class="cls-2" d="M6,88.36a15.06,15.06,0,0,0-1.69,4s.33,0,.35-.09a14.88,14.88,0,0,1,1.69-4s-.3,0-.35.06Z"/><path class="cls-2" d="M5.5,87.38C4.77,89,4.05,90.65,3.32,92.29c-.07.17.28.15.33,0L5.83,87.4c.07-.16-.28-.15-.33,0Z"/><path class="cls-2" d="M5,86.25c-.74,2.11-1.65,4.15-2.18,6.32,0,.07.33,0,.35-.06.53-2.17,1.43-4.22,2.17-6.32,0-.06-.31,0-.34.06Z"/><path class="cls-2" d="M5.26,84.12a55.11,55.11,0,0,0-3.4,8.67c0,.11.32.07.35,0a55.52,55.52,0,0,1,3.37-8.63c.08-.14-.27-.1-.32,0Z"/><path class="cls-2" d="M4.63,85.26c.17-.62.31-1.25.48-1.87,0-.13-.31-.06-.35,0-.51,1.52-1,3-1.48,4.56-.25.74-.52,1.48-.8,2.21-.63,1.63,0,.15.1-.22a65.21,65.21,0,0,1,3.5-9.4c0-.11-.3-.07-.35,0a63,63,0,0,0-3.87,11c0,.15.31,0,.35,0A42.9,42.9,0,0,0,3.88,87.2c.25-.76.48-1.52.73-2.28.55-1.74-.15-.24-.33.39,0,.12.32.07.35,0Z"/><path class="cls-2" d="M3.91,85.27a37.28,37.28,0,0,1,1.68-5.35c.07-.18-.28-.16-.34,0a39.46,39.46,0,0,0-1.7,5.41c0,.15.32.11.36,0Z"/><path class="cls-2" d="M6.7,78.76A29.69,29.69,0,0,0,1.86,91.18s.34,0,.35-.09A29.55,29.55,0,0,1,7,78.7s-.29,0-.34.06Z"/><path class="cls-2" d="M6.71,82.47c-2,3.12-2.89,6.75-3.64,10.32,0,.14.33.08.35,0C4.17,89.2,5,85.58,7,82.48c.09-.13-.26-.1-.32,0Z"/><path class="cls-2" d="M6.71,85.74a22.16,22.16,0,0,0-1.95,6.58c0,.16.34.1.35,0A22.11,22.11,0,0,1,7,85.76c.07-.16-.28-.13-.33,0Z"/><path class="cls-2" d="M7.18,86.94A13.24,13.24,0,0,0,6,91.86c0,.13.35.06.35,0A13.14,13.14,0,0,1,7.53,86.9c0-.1-.3-.06-.35,0Z"/><path class="cls-2" d="M8.15,87.18a20.25,20.25,0,0,0-1.21,5.14c0,.15.33.09.35,0A20.66,20.66,0,0,1,8.5,87.14c.05-.12-.3-.08-.35,0Z"/><path class="cls-2" d="M9.61,88.56A4.35,4.35,0,0,0,8.87,91c0,.08.35,0,.35-.09a4.11,4.11,0,0,1,.71-2.3c.08-.12-.27-.07-.32,0Z"/><path class="cls-2" d="M10.56,89.75v1.4c0,.16.35.09.35,0V89.71c0-.16-.35-.09-.35,0Z"/><path class="cls-2" d="M13,89.49a1.42,1.42,0,0,0-.25,1c0,.15.35.07.35,0a1.32,1.32,0,0,1,.23-.91c.1-.11-.25-.09-.33,0Z"/><path class="cls-2" d="M10.81,75.71A10.88,10.88,0,0,1,9.37,79c-.09.14.27.1.32,0a10.48,10.48,0,0,0,1.46-3.3c0-.13-.32-.07-.34,0Z"/><path class="cls-2" d="M9.35,75.47a20.68,20.68,0,0,1-2.64,6.06c-.1.15.25.15.33,0a21,21,0,0,0,2.67-6.12c0-.16-.32-.11-.36,0Z"/><path class="cls-2" d="M9.36,74.5c-1.49,2.9-2.92,5.84-4.59,8.66-.1.17.26.18.34,0,1.67-2.81,3.1-5.75,4.59-8.66.09-.17-.27-.19-.34,0Z"/><path class="cls-2" d="M8.15,73.61C7.15,76.47,6,79.25,4.76,82c0,.09.31,0,.35,0,1.2-2.78,2.38-5.57,3.39-8.42,0-.09-.32,0-.35,0Z"/><path class="cls-2" d="M7.66,73.37c-.43,2.23-1.4,4.34-1.93,6.56,0,.11.32.06.35-.05.53-2.21,1.5-4.32,1.93-6.55,0-.12-.32-.06-.35,0Z"/><path class="cls-2" d="M7.66,73.14l-.72,4.21c0,.12.33.05.35,0L8,73.09c0-.11-.33,0-.35,0Z"/><path class="cls-2" d="M7.9,71a11.73,11.73,0,0,1-.48,2.81c0,.14.32.09.35,0A12.26,12.26,0,0,0,8.26,71c0-.15-.35-.09-.36,0Z"/><path class="cls-2" d="M7.42,69.42c.68,1.93.25,4.31.24,6.32,0,.07.35,0,.35-.1,0-2,.44-4.38-.24-6.31,0-.1-.38,0-.35.09Z"/><path class="cls-2" d="M7.9,70.59c.24,2.26.47,4.52.73,6.78,0,.15.37.07.35-.09-.26-2.26-.49-4.52-.72-6.78,0-.15-.37-.07-.36.09Z"/><path class="cls-2" d="M8.63,71.52c.46,2.33.74,4.69,1.21,7,0,.12.37,0,.35-.09-.47-2.33-.75-4.69-1.21-7,0-.12-.37,0-.35.09Z"/><path class="cls-2" d="M10.32,73.37a38.81,38.81,0,0,0,.48,5.17c0,.13.37,0,.36-.09a38.24,38.24,0,0,1-.49-5.12c0-.15-.35-.08-.35,0Z"/><path class="cls-2" d="M12,75.74c.24,1,.25,2,.49,3,0,.06.36,0,.35-.09-.24-1-.25-2-.49-3,0-.06-.36,0-.35.1Z"/><path class="cls-2" d="M13.94,76.88a3.35,3.35,0,0,0,.25,1.43c.07.14.41,0,.35-.09a3.08,3.08,0,0,1-.24-1.38c0-.16-.36-.11-.36,0Z"/><path class="cls-2" d="M15.65,77.17l.24.23c.11.11.44,0,.33-.15L16,77c-.1-.1-.43,0-.32.15Z"/><path class="cls-2" d="M15.67,74.23a6.23,6.23,0,0,0-1.23,1.44c-.1.17.26.18.33,0A6.21,6.21,0,0,1,16,74.34c.16-.15-.18-.22-.29-.11Z"/><path class="cls-2" d="M14,73.14c-.67,1.08-1.35,2.16-1.93,3.28,0,.06.3,0,.34-.06.59-1.12,1.27-2.19,1.93-3.27,0,0-.29,0-.34,0Z"/><path class="cls-2" d="M12.75,72.16c-.69,1.13-1.13,2.4-1.92,3.47-.13.18.2.25.3.11a39.23,39.23,0,0,0,1.95-3.54c.1-.17-.25-.18-.33,0Z"/><path class="cls-2" d="M11.54,71,9.36,75.2c-.08.17.27.17.34,0L11.87,71c.09-.17-.26-.17-.33,0Z"/><path class="cls-2" d="M9.85,71,8.4,74.51c-.07.17.28.13.33,0,.48-1.17,1-2.34,1.45-3.51.07-.17-.28-.13-.33,0Z"/><rect class="cls-2" x="2.41" y="90.32" width="184.03" height="3.16"/><rect class="cls-2" x="42.64" y="12.27" width="1.93" height="78.86"/><rect class="cls-2" x="153.08" y="12.27" width="2.66" height="78.4"/><path class="cls-2" d="M39.75,15.36v.47c0,.72,1.42.52,1.42-.1v-.47c0-.72-1.42-.52-1.42.1Z"/><path class="cls-2" d="M40.05,15.59a7.35,7.35,0,0,1,.48,2.11c0,.1.35,0,.35-.09a7.35,7.35,0,0,0-.48-2.11c0-.11-.39,0-.35.09Z"/><path class="cls-2" d="M38.84,17.9A6.85,6.85,0,0,0,38.6,20c0,.16.35.1.35,0a6.81,6.81,0,0,1,.24-2.11c0-.14-.31-.09-.35,0Z"/><path class="cls-2" d="M36.92,19.52a4.37,4.37,0,0,0-.26,1.9c0,.15.35.08.35,0a4.45,4.45,0,0,1,.23-1.85c.08-.15-.27-.12-.32,0Z"/><path class="cls-2" d="M35.7,20a.91.91,0,0,1-.21.65c-.14.16.2.16.28.07a1,1,0,0,0,.28-.76c0-.15-.35-.08-.35,0Z"/><path class="cls-2" d="M37.39,14.89v.94c0,.1.35,0,.35-.09V14.8c0-.1-.35,0-.35.09Z"/><path class="cls-2" d="M39.56,13a9.35,9.35,0,0,1-1.9,3.23c-.14.15.2.14.29.06a9.83,9.83,0,0,0,2-3.33c.05-.11-.3-.07-.35,0Z"/><path class="cls-2" d="M40.3,14.15c-.76.75-1.41,1.59-2.17,2.34-.09.09.25.06.32,0,.76-.75,1.41-1.59,2.17-2.34.1-.09-.25-.06-.32,0Z"/><path class="cls-2" d="M41.8,13.86A13,13,0,0,0,38.61,17c-.1.12.25.1.33,0A12.72,12.72,0,0,1,42,14c.2-.12-.1-.17-.22-.1Z"/><path class="cls-2" d="M41.8,15a13,13,0,0,0-2.95,3.33c-.11.17.25.18.33.05A12.86,12.86,0,0,1,42,15.16c.18-.14-.09-.27-.23-.16Z"/><path class="cls-2" d="M41.8,16.17a19.41,19.41,0,0,0-3.42,4.24c-.12.18.2.24.3.11A19.35,19.35,0,0,1,42,16.33c.18-.15-.1-.28-.23-.16Z"/><path class="cls-2" d="M41.75,17.89a19.53,19.53,0,0,0-3.15,4.47c-.05.09.3.05.35-.05a19.38,19.38,0,0,1,3.13-4.42c.09-.11-.26-.08-.33,0Z"/><path class="cls-2" d="M41.53,20.43a12,12,0,0,0-2.2,2.83c-.08.15.27.12.33,0a11.38,11.38,0,0,1,2.15-2.78c.15-.15-.19-.16-.28-.07Z"/><path class="cls-2" d="M40,23.15a1.11,1.11,0,0,0-.65.31c-.16.14.18.19.29.09a.58.58,0,0,1,.32-.16c.19,0,.27-.27,0-.24Z"/><path class="cls-2" d="M38.12,20.92a22.78,22.78,0,0,0-1.22,2.6c0,.14.31.09.36,0a20.35,20.35,0,0,1,1.19-2.55c.08-.16-.27-.13-.33,0Z"/><path class="cls-2" d="M35.94,21a19.73,19.73,0,0,1-1.68,3.72c-.08.14.27.1.32,0a19.66,19.66,0,0,0,1.71-3.77c0-.12-.31-.07-.35,0Z"/><path class="cls-2" d="M33.77,21.19a12.74,12.74,0,0,1-1.68,4.43c-.08.1.26.05.32,0a12.66,12.66,0,0,0,1.7-4.46c0-.09-.32,0-.34.05Z"/><path class="cls-2" d="M30.87,23.53c-.28,1-.69,2-1,3,0,.09.32,0,.34-.05.28-1,.69-2,1-3,0-.09-.32,0-.34.05Z"/><path class="cls-2" d="M28.45,25.89v.23c0,.08.35,0,.35-.09V25.8c0-.07-.35,0-.35.09Z"/><path class="cls-2" d="M31.35,23.55c0,.19.21.27.24.47s.36,0,.35-.09-.22-.28-.24-.47-.37,0-.35.09Z"/><path class="cls-2" d="M32.55,21.21c.22.45.27.95.49,1.4.06.13.4,0,.35-.09-.22-.45-.27-.95-.49-1.4,0-.12-.4,0-.35.09Z"/><path class="cls-2" d="M33.76,19.81a12.48,12.48,0,0,0,.73,1.63c.07.15.42,0,.35-.09a12,12,0,0,1-.73-1.64c0-.15-.4-.05-.35.1Z"/><path class="cls-2" d="M34.49,18.64a9.57,9.57,0,0,0,1.45,2.8c.06.09.38,0,.35-.09a9.5,9.5,0,0,1-1.45-2.81c0-.08-.37,0-.35.1Z"/><path class="cls-2" d="M35.21,17.23a16.33,16.33,0,0,0,1.21,3c.06.11.4,0,.35-.09a16.61,16.61,0,0,1-1.21-3c0-.11-.38,0-.35.09Z"/><path class="cls-2" d="M36.18,16.53a30.85,30.85,0,0,0,1.69,4c.05.09.38,0,.35-.09a31.46,31.46,0,0,1-1.69-4c0-.09-.38,0-.35.09Z"/><path class="cls-2" d="M36.66,15.59a28.78,28.78,0,0,0,1.71,4.71c.07.15.4,0,.32-.15A28.36,28.36,0,0,1,37,15.5c0-.16-.39-.07-.35.09Z"/><path class="cls-2" d="M36.9,13.25c.71,2.27,1.47,4.52,2.18,6.79.05.15.4.06.35-.09-.71-2.27-1.47-4.52-2.18-6.79,0-.15-.39-.06-.35.09Z"/><path class="cls-2" d="M37.87,13.72c.26.78.47,1.57.73,2.34,0,.11.38,0,.35-.09-.26-.77-.47-1.57-.73-2.34,0-.11-.38,0-.35.09Z"/><path class="cls-2" d="M37.15,15.36c0,.16.12.24.27.25s.38-.12.29-.13-.21-.09-.21-.21-.36,0-.35.09Z"/><path class="cls-2" d="M35.94,14.66c.22.69.26,1.41.48,2.1,0,.1.38,0,.35-.09-.22-.69-.26-1.41-.48-2.1,0-.1-.38,0-.35.09Z"/><path class="cls-2" d="M34.73,15.59a5,5,0,0,1-.23,3.69c-.08.16.27.14.33,0a5.1,5.1,0,0,0,.25-3.8c0-.13-.39,0-.35.09Z"/><path class="cls-2" d="M33.28,15.12a14.07,14.07,0,0,1,0,4.44c0,.08.33,0,.35-.06a14.57,14.57,0,0,0,0-4.47c0-.07-.36,0-.35.09Z"/><path class="cls-2" d="M32.61,16.31h2.18c.07,0,.4-.13.23-.13H32.84c-.06,0-.39.13-.23.13Z"/><path class="cls-2" d="M34.8,15.43c.8.25,1.62.45,2.42.7.16.05.41-.17.2-.23-.8-.26-1.62-.45-2.42-.7-.15,0-.41.16-.2.23Z"/><path class="cls-2" d="M35.73,13.76a8.28,8.28,0,0,0,3.21,1c.14,0,.38-.19.14-.19A7.94,7.94,0,0,1,36,13.59c-.1-.05-.42.1-.28.17Z"/><path class="cls-2" d="M35.76,13.29a22.35,22.35,0,0,0,3.91.48c.12,0,.37-.18.14-.18A22.4,22.4,0,0,1,36,13.12c-.1,0-.41.14-.22.17Z"/><path class="cls-2" d="M35.8,13.76a28,28,0,0,0,6.13-.48c.21,0,.17-.19,0-.14a26.9,26.9,0,0,1-6,.45c-.11,0-.38.17-.14.17Z"/><path class="cls-2" d="M41.11,13.12a10.62,10.62,0,0,0-2.73,1.68c-.15.15.19.19.29.09a10.14,10.14,0,0,1,2.59-1.59c.22-.11,0-.27-.15-.18Z"/><path class="cls-2" d="M41.88,14.27a6.29,6.29,0,0,0-2.77,1.46c-.16.15.18.2.29.1a5.68,5.68,0,0,1,2.54-1.34c.22-.06.16-.28-.06-.22Z"/><path class="cls-2" d="M41.88,16.14a8.12,8.12,0,0,0-3.74,2.4c-.14.17.19.22.29.1a7.75,7.75,0,0,1,3.51-2.28c.21-.07.16-.3-.06-.22Z"/><path class="cls-2" d="M41.6,18a10.27,10.27,0,0,0-3.46,2.62c-.14.17.2.2.29.09a9.92,9.92,0,0,1,3.32-2.52c.21-.11,0-.28-.15-.19Z"/><path class="cls-2" d="M41.66,19.71a14.21,14.21,0,0,0-5.22,2.87c-.08.06.25,0,.31,0a13.59,13.59,0,0,1,4.94-2.75c.2,0,.17-.16,0-.1Z"/><path class="cls-2" d="M41.12,21.56a20.69,20.69,0,0,0-6.6,3.56c-.15.12.2.12.28.05a19.89,19.89,0,0,1,6.46-3.47c.23-.08,0-.19-.14-.14Z"/><path class="cls-2" d="M38.94,23.64a9.35,9.35,0,0,0-3.72,3.12c-.1.16.26.16.34,0a8.88,8.88,0,0,1,3.53-3c.21-.1,0-.28-.15-.19Z"/><path class="cls-2" d="M38.64,25.37a7.56,7.56,0,0,0-3.67,4c0,.08.32,0,.35-.05a7.4,7.4,0,0,1,3.59-3.95c.15-.08-.21-.05-.27,0Z"/><path class="cls-2" d="M36.19,29.57a4.28,4.28,0,0,0-1,2.14c0,.17.35.12.36,0a4.21,4.21,0,0,1,1-2.08c.11-.15-.25-.14-.33,0Z"/><path class="cls-2" d="M36.18,32.19a3.67,3.67,0,0,1-.69.89c-.14.13.2.11.28,0a4,4,0,0,0,.76-1c0-.09-.3-.06-.35,0Z"/><path class="cls-2" d="M160.15,13.25a13.1,13.1,0,0,1-.93,5.1,9.71,9.71,0,0,0-.53-2.18c-.19-.93-.38-1.85-.6-2.77,0-.07-.36,0-.35.09a22,22,0,0,1,.1,5.62c-.21,1.7-.21.76-.44.1a18.1,18.1,0,0,1-.49-1.89,15.67,15.67,0,0,1-.32-3.8c0,1.82.36,4.06.13,6.1-.12,1.05,0,.37-.08-.16s-.19-1.27-.27-1.91a36.64,36.64,0,0,1-.22-3.92s-.34,0-.35.09c0,3-.4,5.93,0,8.89,0,.06.37,0,.35-.09a41.75,41.75,0,0,1,0-7.5c0-1-.32-.85-.3,0,0,.66.07,1.31.12,2a29.81,29.81,0,0,0,.58,3.75c0,.07.34,0,.35-.09a16.92,16.92,0,0,0-.24-7.72c0-.07-.35,0-.35.09a16.86,16.86,0,0,0,1.21,7.49c0,.06.32,0,.34-.08a14.06,14.06,0,0,0,.43-5.25c0-.33-.05-.65-.08-1-.11-1.16-.17.51-.13.69.3,1.33.53,2.66.89,4,0,.07.32,0,.34-.08a11.77,11.77,0,0,0,1.21-5.63s-.34,0-.35.09Z"/><path class="cls-2" d="M158.32,12.16a11.66,11.66,0,0,0-1.14.66c-.21.14-.61.36-.65.63s.33.14.35,0,.53-.44.68-.54a8.26,8.26,0,0,1,.92-.51c.21-.11,0-.3-.16-.22Z"/><path class="cls-2" d="M158.9,12.16c-1.46.22-2.82.87-2.85,2.47,0,.16.34.09.35,0,0-1.42,1.13-2,2.46-2.21.18,0,.28-.25,0-.22Z"/><path class="cls-2" d="M160,12.65a19.31,19.31,0,0,0-2.94,1.66c-.19.14.1.23.23.14a19.65,19.65,0,0,1,2.86-1.62c.22-.11,0-.26-.15-.18Z"/><path class="cls-2" d="M161,13.37a14.52,14.52,0,0,0-5.16,4c-.1.13.25.1.32,0a14.14,14.14,0,0,1,5-3.91c.22-.1,0-.22-.14-.14Z"/><path class="cls-2" d="M160.22,14.78c-1.36.94-3.49,2.14-3.93,3.83,0,.14.31.1.35,0A4.09,4.09,0,0,1,158,16.76a23,23,0,0,1,2.44-1.85c.2-.13-.1-.22-.22-.13Z"/><path class="cls-2" d="M161.42,15.25c-2.26,1.37-4.74,3-5.85,5.43-.07.17.28.15.33,0,1.09-2.42,3.52-4,5.75-5.33.2-.12-.09-.21-.23-.13Z"/><path class="cls-2" d="M160.22,17.82a19.38,19.38,0,0,0-4.39,4.23c-.13.18.21.21.3.1A19,19,0,0,1,160.44,18c.2-.14-.09-.24-.22-.14Z"/><path class="cls-2" d="M159.49,19.91a6.62,6.62,0,0,0-2.72,3.61c0,.17.32.13.35,0a6.29,6.29,0,0,1,2.6-3.42c.19-.14-.09-.26-.23-.16Z"/><path class="cls-2" d="M160,20.9A9,9,0,0,0,157,24.69c0,.13.31.08.35,0A8.7,8.7,0,0,1,160.23,21c.16-.13-.19-.14-.28-.06Z"/><path class="cls-2" d="M159.94,22.28a13,13,0,0,0-2,3.57c0,.14.18.13.25.1.55-.21,1.15-.25,1.7-.46l-.25-.14c-.27.68-.21,1.43-.49,2.11-.07.19.28.2.34.05.27-.68.21-1.43.49-2.11.06-.15-.16-.17-.25-.13-.55.21-1.15.25-1.69.47l.25.09a12.79,12.79,0,0,1,1.91-3.44c.12-.19-.21-.26-.3-.11Z"/><path class="cls-2" d="M161.12,29.17c0,.18-.21.27-.24.46s.34,0,.35-.09.21-.27.24-.46-.34,0-.35.09Z"/><path class="cls-2" d="M157.74,16.5V17c0,.16.35.09.35,0v-.46c0-.16-.35-.1-.35,0Z"/><path class="cls-2" d="M159.44,16.71a20.07,20.07,0,0,0-1.22,4.94c0,.15.33.1.35,0a20,20,0,0,1,1.2-4.88c.07-.17-.28-.14-.33,0Z"/><path class="cls-2" d="M160.4,18.15a7,7,0,0,0-.73,3.06s.35,0,.35-.09a6.92,6.92,0,0,1,.72-3s-.3,0-.34.06Z"/><path class="cls-2" d="M161.6,18.84a7.35,7.35,0,0,0-.48,2.11c0,.15.35.09.35,0a6.91,6.91,0,0,1,.49-2.1c0-.14-.31-.09-.36,0Z"/><path class="cls-2" d="M162.81,19.54a3.07,3.07,0,0,1-.23,1.37c-.09.18.27.19.33,0a3.35,3.35,0,0,0,.26-1.44c0-.18-.36-.14-.36,0Z"/><path class="cls-2" d="M164.54,20a1,1,0,0,0-.28.75c0,.16.35.09.35,0a.91.91,0,0,1,.21-.65c.14-.16-.2-.17-.28-.07Z"/><path class="cls-2" d="M163.93,13.57a10.12,10.12,0,0,0-4.2,2.14c-.19.14.1.24.23.14a9.84,9.84,0,0,1,4-2.07c.23,0,.16-.26,0-.21Z"/><path class="cls-2" d="M164.9,12.66a49.69,49.69,0,0,0-5.12,2.12c-.22.1,0,.19.13.13a46.79,46.79,0,0,1,5-2.09c.21-.06.17-.22,0-.16Z"/><path class="cls-2" d="M161.66,13.36a9.94,9.94,0,0,0-3.43,3.57c-.09.17.26.19.34,0a9.73,9.73,0,0,1,3.33-3.45c.19-.12-.09-.26-.24-.16Z"/><path class="cls-2" d="M165.54,13.17a17.3,17.3,0,0,0-5.61,5.42c-.08.12.26.08.32,0a17.21,17.21,0,0,1,5.5-5.34c.21-.12-.11-.14-.21-.08Z"/><path class="cls-2" d="M165.26,14.8a13.49,13.49,0,0,0-3.41,4.47c-.07.18.28.18.34,0a13.26,13.26,0,0,1,3.36-4.42c.15-.15-.18-.2-.29-.09Z"/><path class="cls-2" d="M166.47,15.74a10.8,10.8,0,0,0-3.16,4.48c-.07.17.28.14.33,0a10.65,10.65,0,0,1,3.12-4.42c.16-.13-.19-.16-.29-.08Z"/><path class="cls-2" d="M166.21,18.58c-.28.5-.7.9-1,1.4-.09.16.26.15.33,0,.28-.5.69-.91,1-1.41.09-.16-.27-.14-.33,0Z"/><path class="cls-2" d="M162.6,81.49l-1.21,1.17c-.15.15.19.2.29.1l1.21-1.17c.15-.15-.18-.2-.29-.1Z"/><path class="cls-2" d="M161,80.78a18.47,18.47,0,0,0-2,.72c-.21.1.11.13.21.08a13.71,13.71,0,0,1,1.89-.68c.23-.08,0-.17-.13-.12Z"/><path class="cls-2" d="M158.72,78.74a4.87,4.87,0,0,1-1.83,1.12c-.24.08,0,.13.12.08a5.68,5.68,0,0,0,2-1.22c.07-.07-.26,0-.32,0Z"/><path class="cls-2" d="M157,77.73c-.26,0-.48.2-.72.23s-.38.17-.15.14.47-.21.72-.23c.09,0,.38-.17.15-.14Z"/><path class="cls-2" d="M156.77,76.64a47.2,47.2,0,0,1-1,5.39c0,.14.32.09.36,0a47,47,0,0,0,1-5.38c0-.15-.33-.09-.35,0Z"/><path class="cls-2" d="M155.8,82.26c0,1.64-.22,3.27-.24,4.91,0,.16.35.1.35,0,0-1.64.23-3.27.25-4.92,0-.15-.35-.09-.36,0Z"/><path class="cls-2" d="M156.77,82.27a65.41,65.41,0,0,0-1,6.55c0,.12.33.05.34,0a65.43,65.43,0,0,1,1-6.55c0-.11-.33,0-.35,0Z"/><path class="cls-2" d="M157.74,84.86c-.24,1.73-.7,3.41-1,5.13,0,.09.34,0,.35,0,.27-1.73.73-3.43,1-5.17,0,0-.34,0-.35.09Z"/><path class="cls-2" d="M159,85.78c-.48,1.64-1,3.28-1.45,4.92,0,.07.32,0,.34-.06q.74-2.46,1.45-4.92c0-.07-.32,0-.34.06Z"/><path class="cls-2" d="M159.92,87a12.18,12.18,0,0,0-1,3c0,.07.33,0,.34-.07a12.53,12.53,0,0,1,1-3s-.3,0-.34.06Z"/><path class="cls-2" d="M161.39,87.81a10.67,10.67,0,0,0-1.23,2.37c-.07.19.29.19.34,0a10.32,10.32,0,0,1,1.19-2.31c.12-.18-.21-.24-.3-.1Z"/><path class="cls-2" d="M163.57,88.28A4.68,4.68,0,0,0,162.34,90c-.07.18.28.16.33,0a4.37,4.37,0,0,1,1.19-1.61c.15-.15-.19-.18-.29-.09Z"/><path class="cls-2" d="M165.06,88.76a11,11,0,0,0-2.72,1.68c-.08.08.26,0,.32,0a10.23,10.23,0,0,1,2.61-1.6c.21-.09-.12-.1-.21-.06Z"/><path class="cls-2" d="M163.82,87.13c-1.47,1-2.75,2.17-4.11,3.28-.15.12.2.11.27,0a51.8,51.8,0,0,1,4.11-3.28c.16-.11-.19-.1-.27-.05Z"/><path class="cls-2" d="M162.35,85.77a44.14,44.14,0,0,0-4.61,4.46.55.55,0,0,0,.35-.06,42.52,42.52,0,0,1,4.57-4.43c.07-.06-.25,0-.31,0Z"/><path class="cls-2" d="M161.63,84.77a35.09,35.09,0,0,0-4.83,4.92c-.13.17.2.2.29.09a35.09,35.09,0,0,1,4.83-4.92c.17-.14-.18-.18-.29-.09Z"/><path class="cls-2" d="M160.9,83.89c-2.19,1.7-4,3.81-6,5.62-.08.06.25,0,.31,0,2.07-1.81,3.85-3.92,6-5.61.08-.06-.25,0-.31,0Z"/><path class="cls-2" d="M160.7,82.64a38,38,0,0,0-5.35,4.94c-.14.16.2.19.29.09a35.55,35.55,0,0,1,5.29-4.89c.18-.15-.1-.23-.23-.14Z"/><path class="cls-2" d="M160.19,81.75A28.06,28.06,0,0,0,155.33,86c-.09.11.26.09.33,0a27.51,27.51,0,0,1,4.81-4.19c.16-.11-.19-.11-.28,0Z"/><path class="cls-2" d="M159,81.51a43.39,43.39,0,0,0-3.38,2.81c-.15.14.2.13.28.06a41.26,41.26,0,0,1,3.38-2.81c.16-.12-.19-.12-.28-.06Z"/><path class="cls-2" d="M159,79.83a44.38,44.38,0,0,0-3.42,2.84c-.15.14.19.18.29.08,1.05-1,2.21-1.89,3.35-2.78.19-.14-.09-.24-.22-.14Z"/><path class="cls-2" d="M158.56,78.63a10.15,10.15,0,0,0-2.49,1.93c-.15.14.19.2.3.09a9.73,9.73,0,0,1,2.35-1.82c.21-.11,0-.29-.16-.2Z"/><path class="cls-2" d="M158.49,76.81c-.77.74-1.64,1.37-2.42,2.11-.15.15.19.19.3.09.77-.73,1.64-1.37,2.41-2.1.16-.15-.18-.2-.29-.1Z"/><path class="cls-2" d="M158.28,75.15a10.75,10.75,0,0,0-1.72,1.19c-.16.15.18.2.29.1a11.1,11.1,0,0,1,1.66-1.14c.2-.13-.09-.24-.23-.15Z"/><path class="cls-2" d="M157.51,74.3a1.43,1.43,0,0,1-.73.38c-.1,0-.38.16-.15.15a2.16,2.16,0,0,0,1.2-.56c.08-.07-.25,0-.32,0Z"/><path class="cls-2" d="M157.49,72.77h-.24c-.15,0-.36.22-.13.22h.24c.15,0,.37-.22.13-.22Z"/><path class="cls-2" d="M159.91,79.22c-.5,1.24-.94,2.51-1.45,3.75,0,.11.31.07.35,0,.51-1.24.95-2.5,1.45-3.74.05-.11-.3-.07-.35,0Z"/><path class="cls-2" d="M160.64,82a13,13,0,0,0-1.21,3.51c0,.12.33,0,.35-.05A12.93,12.93,0,0,1,161,82c0-.08-.3,0-.35,0Z"/><path class="cls-2" d="M161.85,83.43c-.49,1.41-1,2.81-1.45,4.22,0,.11.31.06.35-.05.48-1.4,1-2.81,1.45-4.21,0-.11-.32-.06-.35,0Z"/><path class="cls-2" d="M163.06,85a14.3,14.3,0,0,0-1.45,3.27c-.06.18.29.15.33,0a14.16,14.16,0,0,1,1.46-3.28c.1-.14-.26-.13-.34,0Z"/><path class="cls-2" d="M164.27,84.15a24.57,24.57,0,0,0-1,3.27c0,.08.32,0,.34-.06a28.7,28.7,0,0,1,1-3.28c0-.06-.31,0-.34.07Z"/><path class="cls-2" d="M166.2,84.84c-.41,1-.72,2-1.2,3-.08.16.27.12.33,0,.49-1,.8-2.05,1.22-3.07,0-.12-.31-.08-.35,0Z"/><path class="cls-2" d="M167.89,84.84a12.78,12.78,0,0,0-1.21,3c0,.11.33.05.35,0a12.45,12.45,0,0,1,1.21-3c0-.07-.3,0-.35,0Z"/><path class="cls-2" d="M169.59,85.52a9.54,9.54,0,0,0-1,2.13c0,.1.32,0,.35-.05a8.6,8.6,0,0,1,1-2.09c.07-.11-.27-.07-.33,0Z"/><path class="cls-2" d="M171.06,86.18c-.24.28-.24.67-.48.94s.2.18.29.08c.24-.28.24-.67.48-.94s-.2-.18-.29-.08Z"/><path class="cls-2" d="M173.7,86.29l.24.23c.08.07.41,0,.33-.13l-.24-.23c-.08-.08-.41,0-.33.13Z"/><path class="cls-2" d="M18.57,86.17a9.51,9.51,0,0,0-1.23,2.14c-.07.18.28.18.33,0a9.74,9.74,0,0,1,1.19-2.08c.12-.18-.2-.23-.29-.1Z"/><path class="cls-2" d="M16.19,87.58A5.82,5.82,0,0,0,15,88.77c-.14.14.2.13.28,0a5.54,5.54,0,0,1,1.17-1.15c.21-.11-.1-.15-.21-.09Z"/><path class="cls-2" d="M14.43,86.49A34.44,34.44,0,0,1,11.77,90s.29,0,.35-.07a34.8,34.8,0,0,0,2.66-3.51s-.3,0-.35.07Z"/><path class="cls-2" d="M14.21,83.9a14.24,14.24,0,0,0-3.64,4.69s.29,0,.34-.06a14.17,14.17,0,0,1,3.61-4.66c.07-.06-.25,0-.31,0Z"/><path class="cls-2" d="M12,83.63c-1.16,1.81-2.33,3.61-3.6,5.35-.13.18.2.21.29.09,1.28-1.76,2.47-3.58,3.65-5.41.09-.15-.26-.15-.34,0Z"/><path class="cls-2" d="M12,82c-1.95,2.67-3.45,5.62-5.56,8.19-.13.17.2.22.3.1,2.1-2.57,3.6-5.52,5.55-8.19.13-.18-.2-.22-.29-.1Z"/><path class="cls-2" d="M10.57,81.75c-1.67,2.54-3.33,5.09-4.83,7.73-.1.17.26.17.33,0,1.5-2.64,3.17-5.18,4.84-7.72.1-.16-.26-.17-.34,0Z"/><path class="cls-2" d="M10.33,79.89A95,95,0,0,0,5.5,88.08c-.09.16.27.15.33,0,1.47-2.81,3.09-5.53,4.83-8.19.1-.16-.26-.14-.33,0Z"/><path class="cls-2" d="M10.56,77.12A74.86,74.86,0,0,0,5.49,87c0,.09.31,0,.35,0a73.66,73.66,0,0,1,5.07-9.83c0-.08-.29,0-.35.05Z"/><path class="cls-2" d="M9.84,76.66C7,79.85,6,84.09,4.28,87.89c0,0,.31,0,.35-.06,1.67-3.81,2.72-8,5.56-11.24,0,0-.28,0-.35.07Z"/><path class="cls-2" d="M8.4,78.24A43,43,0,0,0,4.76,89.51c0,.18.33.14.36,0a42.75,42.75,0,0,1,3.61-11.2c.08-.19-.27-.2-.33-.05Z"/><path class="cls-2" d="M9.84,77.82A47.38,47.38,0,0,0,6.7,89.05c0,.14.33.08.35,0a47.59,47.59,0,0,1,3.14-11.24c.05-.11-.31-.07-.35,0Z"/><path class="cls-2" d="M10.56,82.27a41.44,41.44,0,0,0-1.93,7c0,.12.33.06.35-.05a41.44,41.44,0,0,1,1.93-7c0-.1-.3-.06-.35,0Z"/><path class="cls-2" d="M12,82.73a29,29,0,0,0-2.17,8c0,.14.34.08.35,0a29.48,29.48,0,0,1,2.17-8c.05-.12-.3-.08-.35,0Z"/><path class="cls-2" d="M13.22,84.13a51,51,0,0,0-1.69,5.39c0,.13.32.08.35,0a53.42,53.42,0,0,1,1.69-5.39c0-.12-.3-.07-.35,0Z"/><path class="cls-2" d="M14.19,84.84A13.29,13.29,0,0,0,13,89.78c0,.06.35,0,.35-.09a13,13,0,0,1,1.21-4.9c0-.07-.31,0-.35,0Z"/><path class="cls-2" d="M15.64,85.07c-.29,1.57-.72,3.11-1,4.68,0,.12.33.06.35,0,.25-1.58.68-3.12,1-4.68,0-.12-.33-.06-.35,0Z"/><path class="cls-2" d="M16.85,85.54a25.83,25.83,0,0,0-1,4c0,.16.33.11.35,0a27.17,27.17,0,0,1,1-4c.05-.14-.31-.1-.35,0Z"/><path class="cls-2" d="M18.05,86.48c-.22.68-.26,1.41-.48,2.1,0,.13.31.08.35,0,.22-.69.26-1.41.49-2.1,0-.13-.32-.09-.36,0Z"/><path class="cls-2" d="M19.27,86.48a17.65,17.65,0,0,0-.49,3.3s.35,0,.35-.09a17.32,17.32,0,0,1,.48-3.27c0-.08-.33,0-.34.06Z"/><path class="cls-2" d="M20.72,86.72a10,10,0,0,0-.49,2.35c0,.06.35,0,.35-.09a10.29,10.29,0,0,1,.48-2.32c0-.08-.32,0-.34.06Z"/><path class="cls-2" d="M21.92,87.17a5.85,5.85,0,0,0-.48,1.88c0,.15.35.09.35,0a5.86,5.86,0,0,1,.48-1.87c.05-.13-.31-.09-.35,0Z"/><path class="cls-2" d="M23.38,86.21a5.92,5.92,0,0,0-.49,1.9c0,.17.35.11.35,0a5.87,5.87,0,0,1,.47-1.84c.07-.18-.28-.17-.33,0Z"/><path class="cls-2" d="M24.61,86.64c-.24.28-.24.67-.48.94s.19.2.29.09c.24-.28.24-.67.48-.94s-.19-.19-.29-.09Z"/><path class="cls-2" d="M27.35,86.55h.24c.13,0,.37-.19.13-.19h-.24c-.13,0-.37.19-.13.19Z"/><path class="cls-2" d="M32.8,86.72a3.26,3.26,0,0,0-.25,1.42c0,.07.35,0,.35-.09a3.29,3.29,0,0,1,.24-1.39c0-.07-.3,0-.34.06Z"/><path class="cls-2" d="M34.25,86a4.77,4.77,0,0,1-.72,2.55c-.09.15.26.13.33,0A4.88,4.88,0,0,0,34.6,86c0-.16-.35-.1-.35,0Z"/><path class="cls-2" d="M35.46,85.74a7.14,7.14,0,0,0-.73,3.07c0,.17.35.11.35,0a7,7,0,0,1,.72-3c.08-.17-.27-.16-.34,0Z"/><path class="cls-2" d="M36.42,87.41c-.19.77-.24,1.58-.48,2.34,0,.13.31.09.35,0,.24-.76.29-1.56.48-2.34,0-.14-.32-.09-.35,0Z"/><path class="cls-2" d="M37.87,83.9c-.48,2.41-.73,4.85-1.21,7.26,0,.12.33.07.35,0,.48-2.4.73-4.84,1.21-7.25,0-.13-.33-.07-.35,0Z"/><path class="cls-2" d="M38.84,84.37a60.6,60.6,0,0,1-1,6.32c0,.1.33,0,.35,0,.46-2.09.72-4.2,1-6.32,0-.1-.34,0-.35.05Z"/><path class="cls-2" d="M40.53,80.39c-.69,3.81-.79,7.69-1.69,11.47,0,.13.32.08.35,0,.9-3.78,1-7.66,1.69-11.47,0-.14-.33-.08-.35,0Z"/><path class="cls-2" d="M40.77,81.09c-.26,3-.71,6.08-1,9.13,0,.15.34.09.36,0,.26-3.05.7-6.08,1-9.13,0-.15-.34-.08-.35,0Z"/><path class="cls-2" d="M41.5,83.2c-.5,3.58-1,7.16-1.21,10.76,0,.14.34.07.35,0,.25-3.6.71-7.18,1.21-10.76,0-.13-.34-.07-.35,0Z"/><path class="cls-2" d="M41.74,84.37c-.25,2.74-.71,5.46-1,8.2,0,.1.34,0,.35-.06.25-2.74.71-5.45,1-8.19,0-.1-.34,0-.35.05Z"/><path class="cls-2" d="M42.46,83.66c0,2.42.22,4.84,0,7.26,0,.16.34.1.35,0,.22-2.42,0-4.84,0-7.26,0-.16-.35-.1-.35,0Z"/><path class="cls-2" d="M42.71,83.91A63.46,63.46,0,0,1,42,90.22c0,.11.33,0,.35,0a60.61,60.61,0,0,0,.72-6.31c0-.12-.33,0-.34,0Z"/><path class="cls-2" d="M42,79.24a27.45,27.45,0,0,1-1.93,10.52c0,.07.31,0,.35-.06a27.57,27.57,0,0,0,1.93-10.55c0-.07-.35,0-.35.09Z"/><path class="cls-2" d="M42,75.27a39.29,39.29,0,0,1-3.87,16.36c0,.08.3.05.35,0a39.28,39.28,0,0,0,3.87-16.4c0-.08-.35,0-.35.09Z"/><path class="cls-2" d="M40.53,79.69a99.08,99.08,0,0,1-3.87,10.53c0,.12.31.08.35,0a99.08,99.08,0,0,0,3.87-10.53c0-.13-.32-.08-.35,0Z"/><path class="cls-2" d="M38.35,81.09a29.49,29.49,0,0,1-4.09,8.4c-.1.13.25.12.33,0a29.91,29.91,0,0,0,4.12-8.46c0-.13-.32-.08-.36,0Z"/><path class="cls-2" d="M36.92,81.77c-1.18,2.11-1.88,4.52-3.61,6.29-.14.15.2.15.29.06,1.74-1.79,2.46-4.21,3.64-6.34.09-.15-.27-.12-.32,0Z"/><path class="cls-2" d="M34.74,82.93c-1.17,1.58-2.33,3.16-3.6,4.65-.14.17.19.2.28.09,1.29-1.52,2.47-3.12,3.65-4.71.11-.14-.25-.14-.33,0Z"/><path class="cls-2" d="M31.83,83.69a6.81,6.81,0,0,0,.24,2.11c0,.08.38,0,.35-.09a6.81,6.81,0,0,1-.24-2.11c0-.06-.35,0-.35.09Z"/><path class="cls-2" d="M33.52,83.22a3.86,3.86,0,0,0,1,2.83c.06.06.39-.06.33-.12a3.81,3.81,0,0,1-1-2.8c0-.06-.35,0-.35.09Z"/><path class="cls-2" d="M35.21,82a7.59,7.59,0,0,0,.73,2.37c.06.16.4.06.35-.09a7.33,7.33,0,0,1-.72-2.3c0-.18-.36-.13-.36,0Z"/><path class="cls-2" d="M46.52,79.08c-.28,0-.43.08-.43.37s.35.11.35,0v-.14c-.06,0,0,.06.05,0s.27-.24,0-.24Z"/><path class="cls-2" d="M46.58,80.13c-.27.5-.69.9-1,1.4-.08.15.27.13.33,0,.28-.5.7-.91,1-1.4.09-.16-.27-.13-.33,0Z"/><path class="cls-2" d="M46.83,81.55a10,10,0,0,0-1.22,2.36c0,.09.31,0,.34,0a10.94,10.94,0,0,1,1.2-2.33c.08-.11-.27-.06-.32,0Z"/><path class="cls-2" d="M47.54,82.5a35.83,35.83,0,0,0-2.18,4.22c0,.07.32,0,.35-.06a34.25,34.25,0,0,1,2.18-4.21c0-.06-.3,0-.35,0Z"/><path class="cls-2" d="M48.52,83.65a18.69,18.69,0,0,0-3.16,5.4c0,.1.31.06.35,0a18.39,18.39,0,0,1,3.13-5.36c.1-.11-.25-.08-.32,0Z"/><path class="cls-2" d="M49.48,84.11a23.63,23.63,0,0,0-3.88,6.58c0,.11.31.07.36,0a23.28,23.28,0,0,1,3.85-6.53c.1-.12-.25-.1-.33,0Z"/><path class="cls-2" d="M50.21,85.53a10.9,10.9,0,0,0-2.91,4.93c0,.09.32,0,.35,0a10.85,10.85,0,0,1,2.88-4.9c.09-.08-.25-.05-.32,0Z"/><path class="cls-2" d="M50.47,86.87A10.09,10.09,0,0,0,49,89.71c-.09.18.26.18.33,0A10.17,10.17,0,0,1,50.76,87c.15-.15-.18-.21-.29-.1Z"/><path class="cls-2" d="M51.89,87.66c-.21.45-.27,1-.48,1.4,0,0,.3,0,.34-.06.22-.45.27-1,.49-1.41,0,0-.31,0-.35.07Z"/><path class="cls-2" d="M54.55,88.34v.24c0,.16.35.09.35,0v-.23c0-.16-.35-.09-.35,0Z"/><path class="cls-2" d="M55.07,88.07l-.73.7c-.14.14.2.12.28,0l.72-.7c.15-.14-.2-.13-.27-.05Z"/><path class="cls-2" d="M53.61,87.13a5.31,5.31,0,0,0-1,1.19c-.08.15.27.11.32,0a4.93,4.93,0,0,1,.95-1.14c.14-.15-.2-.14-.29-.06Z"/><path class="cls-2" d="M52.86,84.8a17.94,17.94,0,0,0-2.18,4c0,.14.3.1.35,0a17.28,17.28,0,0,1,2.17-4c.1-.15-.26-.14-.34,0Z"/><path class="cls-2" d="M50.68,85.78c-.44,1.31-.77,2.66-1.21,4,0,.11.32.06.35,0,.44-1.32.77-2.67,1.21-4,0-.11-.31-.06-.35,0Z"/><path class="cls-2" d="M49.23,84.83a59.36,59.36,0,0,1-1,6.09c0,.14.33.1.35,0a59.61,59.61,0,0,0,1-6.08c0-.16-.34-.1-.35,0Z"/><path class="cls-2" d="M48.75,82.76c-.25,2.66-.72,5.3-1.21,7.94,0,.09.33,0,.35-.06.49-2.65,1-5.29,1.21-8,0-.06-.34,0-.35.1Z"/><path class="cls-2" d="M47.78,81.79a48.79,48.79,0,0,1-1.69,7.72c-.05.16.31.12.35,0a46.44,46.44,0,0,0,1.69-7.72c0-.17-.34-.12-.35,0Z"/><path class="cls-2" d="M47.3,79.69a60.84,60.84,0,0,1-1.21,6.55c0,.14.32.09.35,0a58.48,58.48,0,0,0,1.21-6.55c0-.15-.34-.1-.35,0Z"/><path class="cls-2" d="M46.33,76.44c0,2.58-.47,5.13-.72,7.7,0,.11.33,0,.34,0,.26-2.58.69-5.15.73-7.74,0-.07-.35,0-.35.09Z"/><path class="cls-2" d="M45.84,75.47c.22,3.58,0,7.17,0,10.76,0,.19.36.14.36,0,0-3.59.21-7.18,0-10.76,0-.19-.37-.15-.36,0Z"/><path class="cls-2" d="M48,82.49a27,27,0,0,0-.24,4.21c0,.18.35.13.35,0a27,27,0,0,1,.24-4.22c0-.17-.33-.12-.35,0Z"/><path class="cls-2" d="M49.23,82.49a39,39,0,0,0,.24,5.18c0,.15.37.06.35-.09a38.08,38.08,0,0,1-.24-5.12c0-.17-.35-.11-.35,0Z"/><path class="cls-2" d="M50.44,84.6a28,28,0,0,0,.48,4.47c0,.14.38.06.35-.09a28.46,28.46,0,0,1-.48-4.41c0-.17-.35-.1-.35,0Z"/><path class="cls-2" d="M51.89,84.39a21.14,21.14,0,0,0,.72,3.52c.06.16.41.06.35-.1a20.82,20.82,0,0,1-.72-3.51c0-.16-.38-.07-.35.09Z"/><path class="cls-2" d="M53.34,84.59a9.08,9.08,0,0,0,.72,3.32c.07.16.42.06.35-.1a9,9,0,0,1-.72-3.24c0-.19-.36-.14-.35,0Z"/><path class="cls-2" d="M55,84.63a6.44,6.44,0,0,1,.48,1.87c0,.1.36,0,.35-.09a6.44,6.44,0,0,0-.48-1.87c0-.12-.39,0-.35.09Z"/><path class="cls-2" d="M57.2,84.16v.94c0,.09.36,0,.36-.1v-.93c0-.09-.36,0-.36.09Z"/><path class="cls-2" d="M59.14,84.83v.23c0,.18.35.13.35,0V84.8c0-.18-.35-.13-.35,0Z"/><path class="cls-2" d="M187.37.1H4V10h183.4Zm-173.49,8H8.08V2.44h5.8Zm12.81,0h-5.8V2.44h5.8Zm12.81,0H33.7V2.44h5.8Zm13.29,0H47V2.44h5.8Zm12.81,0H59.8V2.44h5.8Zm12.8,0H72.6V2.44h5.8Zm13.54,0h-5.8V2.44h5.8Zm12.81,0H99V2.44h5.8Zm12.8,0h-5.8V2.44h5.8Zm13.78,0h-5.8V2.44h5.8Zm12.81,0h-5.8V2.44h5.8Zm12.8,0h-5.79V2.44h5.79Zm12.81,0H164V2.44h5.8Zm12.81,0h-5.8V2.44h5.8Z"/><path class="cls-2" d="M186.21,92.72v2.81c0,.36,1.4.12,1.4-.36a15.36,15.36,0,0,1,.24-3l-1.4.28a7.91,7.91,0,0,1,0,3l1.39-.27c0-.4-.18-.78-.24-1.18l-1.4.37a9,9,0,0,1,0,6c-.15.4,1.24.22,1.39-.2a9.2,9.2,0,0,0,0-6.17c-.14-.41-1.46-.07-1.4.37s.18.77.24,1.17,1.34.07,1.4-.28a8.24,8.24,0,0,0,0-3.13c-.07-.42-1.32-.06-1.39.28a14.92,14.92,0,0,0-.25,3.13l1.4-.36V92.36c0-.36-1.4-.12-1.4.36Z"/><path class="cls-2" d="M186.21,91.32c1.48,4,.23,7.73-1,11.61-.15.49,1.22.14,1.4-.19a16,16,0,0,0,1.69-5.62c.06-.49-1.34-.23-1.4.19a15.64,15.64,0,0,1-1.69,5.62l1.4-.19c1.21-4,2.47-7.74,1-11.79-.16-.44-1.55,0-1.4.37Z"/><path class="cls-2" d="M186.45,91.32c0,1.09.23,2.18.25,3.27,0,.45,1.41.18,1.4-.36,0-1.1-.23-2.18-.25-3.28,0-.44-1.4-.17-1.4.37Z"/><path class="cls-2" d="M186.21.52a10.41,10.41,0,0,1,.73,9.51c-.15.33,1.21.19,1.39-.2a10.61,10.61,0,0,0-.72-9.68c-.22-.4-1.56.08-1.4.37Z"/><path class="cls-2" d="M187.42,3.71a39.71,39.71,0,0,0-.48,5.23c0,.37,1.39.13,1.4-.36a37.34,37.34,0,0,1,.48-5.06c.07-.49-1.33-.24-1.4.19Z"/><path class="cls-2" d="M186.68,5.06a44.24,44.24,0,0,0,0,5.15c0,.74,1.43.57,1.43-.09a40.23,40.23,0,0,1,0-5.15c.08-.73-1.35-.57-1.43.09Z"/><path class="cls-2" d="M186.93,8.81v2.34c0,.72,1.42.52,1.42-.1V8.71c0-.72-1.42-.51-1.42.1Z"/><path class="cls-2" d="M3.27.52A34,34,0,0,0,4.24,12c.09.34,1.49,0,1.4-.36A34,34,0,0,1,4.67.16c0-.24-1.37-.07-1.4.36Z"/><path class="cls-2" d="M1.82,90.29a27.33,27.33,0,0,0,0,11.32c.08.41,1.48.09,1.4-.36a27,27,0,0,1,0-11.15c.1-.44-1.3-.22-1.4.19Z"/><path class="cls-2" d="M3,91.71A33.09,33.09,0,0,0,3,100c0,.33,1.44.06,1.4-.36a33.42,33.42,0,0,1,0-8.12c.07-.4-1.33-.15-1.38.22Z"/><path class="cls-2" d="M2.55,91.25c-.69,2.71-.5,5.49-.49,8.26,0,.27,1.41.06,1.4-.36,0-2.73-.2-5.46.48-8.13.09-.35-1.29-.14-1.39.23Z"/><path class="cls-2" d="M2.07,90.79a17.37,17.37,0,0,0-.73,7.78c0,.25,1.43,0,1.4-.36a17,17,0,0,1,.71-7.66c.1-.25-1.25-.11-1.38.24Z"/><path class="cls-2" d="M1.59,90.33C.35,93.47.37,96.89.37,100.21c0,.17,1.4,0,1.4-.36,0-3.28,0-6.67,1.2-9.78.07-.18-1.25-.07-1.38.26Z"/><path class="cls-2" d="M1.1,91.93a15.15,15.15,0,0,0-.49,9.92c.14.45,1.29.06,1.4-.28a9.83,9.83,0,0,0,.48-2.34l-1.39.28a18.8,18.8,0,0,0,.24,3.27c.08.48,1.27,0,1.4-.27l.48-1.17c.16-.4-1.22-.23-1.4.19s-.32.77-.48,1.17l1.4-.28a18.87,18.87,0,0,1-.24-3.27c0-.38-1.37-.13-1.4.27a10.46,10.46,0,0,1-.48,2.34L2,101.48a14.88,14.88,0,0,1,.48-9.74c.16-.4-1.22-.23-1.39.19Z"/><path class="cls-2" d="M2.06,98.69a18.84,18.84,0,0,0-.24,3.51c0,.65,1.41.39,1.41-.13a18.89,18.89,0,0,1,.24-3.52c.11-.6-1.31-.39-1.41.14Z"/><path class="cls-2" d="M.61,100.34v2.11c0,.57,1.4.28,1.4-.17v-2.1c0-.58-1.4-.28-1.4.16Z"/><path class="cls-2" d="M.37,100.33v2.11c0,.63,1.41.36,1.41-.14v-2.11c0-.63-1.41-.36-1.41.14Z"/><path class="cls-2" d="M.42,102.38a3.34,3.34,0,0,0,2.3.55,1.38,1.38,0,0,0,.93-.35c.22-.24-.19-.3-.36-.3a2.19,2.19,0,0,1-1.56-.39c-.32-.28-1.61.23-1.31.49Z"/><path class="cls-2" d="M2,103.28a2.18,2.18,0,0,0,1.55-.52.33.33,0,0,0-.16-.58,1.09,1.09,0,0,0-1,.26c-.13.11.12,0,.11,0a1,1,0,0,0-.92.4c-.16.27.13.5.41.49Z"/><path class="cls-2" d="M3,102.83h.49a1,1,0,0,0,.91-.4c.16-.28-.13-.52-.41-.52H3.5a1,1,0,0,0-.92.4c-.15.28.13.52.41.52Z"/><path class="cls-2" d="M.91,101.42a1.11,1.11,0,0,0,.27,1.51c.12.06.43-.09.27-.19-.47-.26-.41-.88-.21-1.29.08-.17-.28-.15-.33,0Z"/><path class="cls-2" d="M2,103a3.25,3.25,0,0,0,1.35-.26c.22-.11,0-.25-.15-.17a2.41,2.41,0,0,1-1.07.21c-.14,0-.36.22-.13.22Z"/><path class="cls-2" d="M4.38,102.45a5.13,5.13,0,0,0,2.6-.74c.2-.12-.11-.15-.21-.09a4.46,4.46,0,0,1-2.24.66c-.12,0-.38.18-.15.17Z"/><path class="cls-2" d="M2.59,88.58a6.3,6.3,0,0,0,1,4.5c.07.11.41,0,.32-.14a6.16,6.16,0,0,1-1-4.4c0-.16-.34-.1-.35,0Z"/><path class="cls-2" d="M3.8,88.81a7.31,7.31,0,0,0,1,3.07c.07.14.42,0,.35-.09a7.39,7.39,0,0,1-1-3c0-.17-.36-.11-.35,0Z"/><path class="cls-2" d="M5.73,88.34a13.08,13.08,0,0,0,.73,3.07c0,.17.39.08.35-.09a13.1,13.1,0,0,1-.73-3c0-.18-.36-.13-.35,0Z"/><path class="cls-2" d="M7.42,86.94a5.63,5.63,0,0,0,1,3.33c.09.12.42,0,.32-.14a5.43,5.43,0,0,1-1-3.22c0-.17-.35-.11-.35,0Z"/><path class="cls-2" d="M9.11,85.29a4.36,4.36,0,0,0,1,3.11c.11.12.44,0,.32-.15a4.18,4.18,0,0,1-.95-3c0-.18-.36-.14-.36,0Z"/><path class="cls-2" d="M10.56,85.1a4.78,4.78,0,0,0,1,2.83c.07.09.41,0,.33-.14a4.64,4.64,0,0,1-1-2.79c0-.1-.35,0-.35.1Z"/><path class="cls-2" d="M12.74,83.69a8.15,8.15,0,0,0,.72,3.51c.06.11.4,0,.35-.09a8.15,8.15,0,0,1-.72-3.51c0-.09-.35,0-.35.09Z"/><path class="cls-2" d="M14.19,83.22a3.86,3.86,0,0,0,1,2.83c.06.06.39-.06.32-.12a3.85,3.85,0,0,1-1-2.8c0-.06-.35,0-.35.09Z"/><path class="cls-2" d="M15.64,83.2a2.16,2.16,0,0,0,.49,1.68c.09.09.42,0,.33-.13A2,2,0,0,1,16,83.16c0-.15-.35-.07-.35,0Z"/><path class="cls-2" d="M7.67,54.89C5.73,57.17,5.53,60,6,62.86c0,.06.36,0,.35-.09C5.89,60,6.09,57.1,8,54.83a.52.52,0,0,0-.34.06Z"/><path class="cls-2" d="M6.46,59.57a13.37,13.37,0,0,0,.72,6.8c0,.09.38,0,.35-.09a13.37,13.37,0,0,1-.73-6.77c0-.08-.33,0-.34.06Z"/><path class="cls-2" d="M6,57.23c-.89,2.47-.32,5.09.49,7.51,0,.07.37,0,.35-.09-.81-2.41-1.38-5-.49-7.48,0-.05-.32,0-.35.06Z"/><path class="cls-2" d="M6,59.55a19.26,19.26,0,0,0,.49,5.19c0,.16.39.07.35-.09a18.78,18.78,0,0,1-.49-5.12c0-.18-.35-.13-.35,0Z"/><path class="cls-2" d="M6,63.1a3.94,3.94,0,0,1,0,1.37l.35-.06c-1-2.67-1.85-6.1.91-8.07.19-.14-.1-.24-.23-.14-2.84,2-2.06,5.5-1,8.3,0,.14.33.06.35-.06a3.82,3.82,0,0,0,0-1.43c0-.15-.37-.06-.35.09Z"/><path class="cls-2" d="M7.18,54.18A18,18,0,0,0,5.49,59.8c0,.12.33.06.35,0a17.85,17.85,0,0,1,1.69-5.61c0-.09-.3-.06-.35,0Z"/><path class="cls-2" d="M8.66,53.4a27.48,27.48,0,0,0-3.17,7.06c-.06.19.29.2.34,0a27.38,27.38,0,0,1,3.12-7c.13-.18-.2-.25-.29-.11Z"/><path class="cls-2" d="M8.66,55a17.27,17.27,0,0,0-2.45,5.68c0,.17.32.13.36,0A16.67,16.67,0,0,1,9,55.15c.13-.18-.2-.24-.29-.11Z"/><path class="cls-2" d="M10.11,55.74a24,24,0,0,0-2.92,5.42c-.08.19.27.19.33,0a24.68,24.68,0,0,1,2.88-5.35c.13-.18-.19-.24-.29-.11Z"/><path class="cls-2" d="M12,55.59a56.62,56.62,0,0,0-2.9,4.92c0,.05.29,0,.34-.06,1-1.65,1.78-3.36,2.9-4.91,0,0-.28,0-.34.05Z"/><path class="cls-2" d="M14.26,54.12c-1.93,1-2.95,2.82-4.17,4.49-.08.12.27.08.33,0,1.18-1.63,2.17-3.44,4.05-4.41.21-.1-.11-.14-.21-.08Z"/><path class="cls-2" d="M13,52.32c-1.41,2-2.82,4.09-4.33,6.06-.08.1.26,0,.31,0,1.53-2,2.95-4,4.37-6.1,0,0-.29,0-.35.06Z"/><path class="cls-2" d="M12.27,50.88C10.82,53,9.61,55.3,8.16,57.43c-.09.13.26.1.32,0,1.45-2.14,2.66-4.42,4.11-6.55.09-.13-.26-.1-.32,0Z"/><path class="cls-2" d="M11.53,50.21c-1.59,2.26-2.76,4.76-4.35,7,0,0,.29,0,.35-.06,1.59-2.26,2.76-4.76,4.35-7,0,0-.29,0-.35.06Z"/><path class="cls-2" d="M11.32,49c-1.76,2-2.75,4.54-4.13,6.82-.09.15.26.14.33,0,1.36-2.25,2.34-4.74,4.09-6.76.14-.16-.2-.18-.29-.08Z"/><path class="cls-2" d="M10.81,49c-1.13,1.79-2,3.73-2.9,5.62,0,.06.3,0,.34-.06,1-1.88,1.77-3.82,2.9-5.62,0,0-.29,0-.34.06Z"/><path class="cls-2" d="M9.85,49.47A25.8,25.8,0,0,0,8.15,54c0,.12.31.07.35,0a25.94,25.94,0,0,1,1.68-4.42c.07-.16-.28-.12-.33,0Z"/><path class="cls-2" d="M9.61,49.47a15.59,15.59,0,0,0-1.22,3.07c0,.14.31.1.35,0a15.24,15.24,0,0,1,1.2-3c.08-.16-.27-.14-.33,0Z"/><path class="cls-2" d="M11.05,50.2c-.27,2.43-.7,4.83-1,7.26,0,.13.34.07.35-.05.27-2.42.7-4.82,1-7.25,0-.13-.34-.07-.35,0Z"/><path class="cls-2" d="M11.77,52.3a32.38,32.38,0,0,0-1,6.55c0,.18.35.12.36,0a31.67,31.67,0,0,1,1-6.56c0-.15-.32-.11-.35,0Z"/><path class="cls-2" d="M13.47,52.5A16.91,16.91,0,0,0,12,58.15c0,.18.35.14.36,0a16.84,16.84,0,0,1,1.44-5.59c.07-.18-.28-.19-.34,0Z"/><path class="cls-2" d="M14.43,52.08a18.24,18.24,0,0,0-1.21,6.1c0,.1.35,0,.35-.09A18.26,18.26,0,0,1,14.78,52c0-.11-.31-.06-.35,0Z"/><path class="cls-2" d="M15.65,53.2a7.19,7.19,0,0,0-1,4.28c0,.17.38.08.35-.09a7,7,0,0,1,1-4.14c.09-.18-.26-.19-.33,0Z"/><path class="cls-2" d="M16.61,54.42a7.1,7.1,0,0,0-.49,2.13c0,.08.35,0,.35-.09A7.14,7.14,0,0,1,17,54.37c0-.1-.31-.06-.34.05Z"/><path class="cls-2" d="M18.3,54.42a6.16,6.16,0,0,0-.49,1.87c0,.13.35.06.35,0a6.16,6.16,0,0,1,.49-1.87c0-.11-.31-.06-.35.05Z"/><path class="cls-2" d="M19.75,54.91v.7c0,.07.35,0,.35-.09v-.7c0-.07-.35,0-.35.09Z"/><path class="cls-2" d="M41,12.1A4.75,4.75,0,0,1,42,14c0,.1.38,0,.35-.09a4.78,4.78,0,0,0-1-1.88c-.07-.08-.4,0-.33.12Z"/><path class="cls-2" d="M40.77,12.79A3.06,3.06,0,0,1,41,14.16c0,.17.36.12.36,0a3.4,3.4,0,0,0-.25-1.44c-.07-.15-.42,0-.35.1Z"/><path class="cls-2" d="M40.05,12.55a6.81,6.81,0,0,1,.24,2.11s.35,0,.35-.09a6.81,6.81,0,0,0-.24-2.11c0-.07-.37,0-.35.09Z"/><path class="cls-2" d="M39.32,12.77A2.68,2.68,0,0,0,39.08,14c0,.06.35,0,.35-.09a2.56,2.56,0,0,1,.24-1.15c0-.06-.3,0-.35.06Z"/><path class="cls-2" d="M39.27,11.21c-.79.07-1.18,1.14-1.39,1.74-.07.19.28.18.33,0a7.26,7.26,0,0,1,.38-.86c.12-.22.35-.65.65-.67s.27-.27,0-.25Z"/><path class="cls-2" d="M38.14,11.29a15.34,15.34,0,0,0-1.71,2.37c-.11.15.25.15.33,0a15.77,15.77,0,0,1,1.67-2.31c.16-.15-.18-.2-.29-.09Z"/><path class="cls-2" d="M36.18,12.79c0,.18-.22.27-.24.46s.33,0,.35-.09.21-.27.24-.47c0,0-.34,0-.35.1Z"/><path class="cls-2" d="M34.26,13.44c-.13.13-.33.36-.54.39s-.3.19,0,.16a1.57,1.57,0,0,0,.91-.55c.1-.09-.25-.06-.32,0Z"/><path class="cls-2" d="M32.1,14.09l-.73.7c-.15.15.19.22.3.11l.72-.71c.16-.15-.18-.21-.29-.1Z"/><path class="cls-2" d="M29.67,14.62c-.3.26-.67.43-1,.7-.09.08.25,0,.32,0,.3-.27.67-.44,1-.7.09-.09-.25-.06-.32,0Z"/><path class="cls-2" d="M26.54,15c-.29.27-.67.44-1,.7s.18.2.29.1c.29-.26.67-.43,1-.7s-.18-.2-.29-.1Z"/><path class="cls-2" d="M29.67,13.5a1.67,1.67,0,0,1,.47.92c0,.1.36,0,.35-.09a1.7,1.7,0,0,0-.5-.95c-.07-.08-.4,0-.32.12Z"/><path class="cls-2" d="M31.35,12.55c.22.69.26,1.42.48,2.11,0,.07.37,0,.35-.09-.22-.69-.26-1.42-.48-2.11,0-.07-.37,0-.35.09Z"/><path class="cls-2" d="M32.55,12.52A9.52,9.52,0,0,0,33,15.36c.05.16.4.06.35-.09a8.78,8.78,0,0,1-.48-2.78c0-.18-.36-.13-.36,0Z"/><path class="cls-2" d="M33.76,12.29a5.12,5.12,0,0,0,1,3.09c.08.11.42,0,.33-.14a4.88,4.88,0,0,1-1-3c0-.16-.35-.09-.35,0Z"/><path class="cls-2" d="M34.73,12.05a6.67,6.67,0,0,0,.72,2.84c.07.14.42,0,.36-.09A6.46,6.46,0,0,1,35.08,12c0-.17-.35-.11-.35,0Z"/><path class="cls-2" d="M35.94,12.55a3.36,3.36,0,0,0,.33,1.19c.09.22.2.43.29.65s.06.27.25.35c.52.22.48-.35.67-.59s-.25-.09-.32,0a.69.69,0,0,0-.14.3c0,.13,0,.2-.05,0s-.11-.26-.17-.39a4.25,4.25,0,0,1-.51-1.58c0-.11-.36,0-.35.09Z"/><path class="cls-2" d="M36.9,11.35c0,1.35.07,3.19,1.53,3.84.15.07.4-.13.2-.23-1.34-.6-1.36-2.42-1.37-3.64,0-.18-.36-.13-.36,0Z"/><path class="cls-2" d="M45.62,11.34l-.73.7c-.08.09.26.06.33,0l.72-.7c.09-.09-.25-.05-.32,0Z"/><path class="cls-2" d="M45.14,12.28c-.38.37-.67.88-1.15,1.13-.21.11.11.11.2.06a6.07,6.07,0,0,0,1.27-1.21c.08-.08-.26,0-.32,0Z"/><path class="cls-2" d="M46.85,11.54a12.32,12.32,0,0,0-3.41,3.53c-.08.15.27.12.33,0a12.26,12.26,0,0,1,3.36-3.49c.16-.12-.19-.14-.28-.06Z"/><path class="cls-2" d="M47.36,12.2c-1.54,1.22-3.58,2.48-3.93,4.53,0,.17.33.12.35,0,.34-2,2.33-3.17,3.81-4.35.18-.15-.1-.26-.23-.15Z"/><path class="cls-2" d="M48.06,13c-1.94,1.39-4.74,3.06-4.87,5.66,0,.14.34.07.35,0,.12-2.57,2.88-4.19,4.8-5.57.15-.11-.2-.11-.28-.05Z"/><path class="cls-2" d="M47.85,14.8C45.66,16,43.37,17.65,42.46,20c0,.1.31.05.35-.05.88-2.31,3.11-3.91,5.25-5.08.21-.12-.11-.14-.21-.09Z"/><path class="cls-2" d="M47.82,16a10.82,10.82,0,0,0-4.39,5c0,.08.31,0,.35-.06A10.7,10.7,0,0,1,48.09,16c.16-.1-.2-.08-.27,0Z"/><path class="cls-2" d="M47.31,18.37a17.25,17.25,0,0,0-2.67,3.06s.29,0,.35-.06a16.89,16.89,0,0,1,2.64-3c.07-.07-.26,0-.32,0Z"/><path class="cls-2" d="M46.58,20.46a20.64,20.64,0,0,0-1.2,2.34c-.08.15.27.1.32,0a21.54,21.54,0,0,1,1.21-2.34c.09-.14-.26-.1-.33,0Z"/><path class="cls-2" d="M47.78,22.36A13.35,13.35,0,0,0,47.06,24c0,.09.31,0,.34-.05a12,12,0,0,1,.73-1.64c0-.07-.3,0-.35.05Z"/><path class="cls-2" d="M49.23,25.39v.94c0,.16.35.1.35,0v-.94c0-.16-.35-.1-.35,0Z"/><path class="cls-2" d="M51.4,28.7v.23c0,.08.36,0,.36-.09v-.23c0-.08-.36,0-.36.09Z"/><path class="cls-2" d="M51.16,27.5c0,.27-.26.45-.45.64s.19.19.29.09a1.42,1.42,0,0,0,.52-.76c0-.17-.34-.12-.36,0Z"/><path class="cls-2" d="M49.47,26.12a10.34,10.34,0,0,1-1,3.73s.31,0,.34-.06a10.3,10.3,0,0,0,1-3.76s-.35,0-.35.09Z"/><path class="cls-2" d="M47.78,25.16a37.08,37.08,0,0,0-.48,5.15c0,.14.35.07.35,0a37.08,37.08,0,0,1,.48-5.15c0-.13-.33-.07-.35,0Z"/><path class="cls-2" d="M47.06,24.23a50.76,50.76,0,0,1-1,5.62c0,.1.32,0,.35-.05a48.5,48.5,0,0,0,1-5.62c0-.11-.33-.05-.34.05Z"/><path class="cls-2" d="M45.84,21.88c-.45,3.2-.73,6.43-1.45,9.59,0,.18.32.14.36,0,.71-3.16,1-6.39,1.45-9.59,0-.19-.33-.15-.36,0Z"/><path class="cls-2" d="M44.88,25.17c-.25,2.27-.69,4.52-.73,6.8,0,.09.35,0,.36-.09,0-2.27.47-4.51.72-6.76,0-.12-.34-.05-.35.05Z"/><path class="cls-2" d="M44.64,27.76c-.21,3.51-.06,7-.49,10.53,0,.05.34,0,.36-.09.42-3.5.27-7,.48-10.53,0-.06-.35,0-.35.09Z"/><path class="cls-2" d="M44.89,13.42a19.59,19.59,0,0,0-.25,12.7c0,.17.39.07.35-.09a19.47,19.47,0,0,1,.23-12.57c.08-.18-.28-.19-.33,0Z"/><path class="cls-2" d="M44.88,17c.47,2.67.5,5.45,1.69,8,.08.16.42.06.35-.09-1.19-2.5-1.22-5.28-1.69-7.95,0-.17-.38-.08-.35.09Z"/><path class="cls-2" d="M46.09,16.76C46.3,19,46,23,48.3,24.3c.13.08.44-.09.27-.19-2.23-1.29-1.92-5.27-2.13-7.44,0-.15-.37-.07-.35.09Z"/><path class="cls-2" d="M48,18.4c.47,1.69.37,3.71,1.47,5.18.1.13.43,0,.32-.15-1.08-1.44-1-3.46-1.44-5.12,0-.17-.39-.08-.35.09Z"/><path class="cls-2" d="M49.47,19.34c.26,1,.51,2,.73,3,0,.15.38.06.35-.09-.22-1-.47-2-.73-3,0-.15-.39-.06-.35.09Z"/><path class="cls-2" d="M51.4,20a4.44,4.44,0,0,0,1,2.4c.07.11.41,0,.32-.15a4.17,4.17,0,0,1-1-2.28c0-.17-.36-.1-.36,0Z"/><path class="cls-2" d="M53.82,20.47a2.79,2.79,0,0,0,.74,1.94c.11.11.44,0,.32-.15a2.66,2.66,0,0,1-.71-1.81c0-.18-.35-.13-.35,0Z"/><path class="cls-2" d="M55.75,20.74a3.6,3.6,0,0,0,.49,1.41c0,.08.38,0,.35-.1a3.34,3.34,0,0,1-.48-1.4c0-.06-.36,0-.36.09Z"/><path class="cls-2" d="M58.41,20.94c0,.5,0,1,.53,1.26.13.07.44-.1.27-.2-.43-.23-.44-.65-.44-1.08,0-.18-.36-.13-.36,0Z"/><path class="cls-2" d="M60.85,18.6a6,6,0,0,1-1.64.9c-.21.1.12.09.2.05a6.64,6.64,0,0,0,1.75-1c.08-.07-.25,0-.31,0Z"/><path class="cls-2" d="M58.91,17.66A12.88,12.88,0,0,1,57,19.28c-.14.1.21.06.27,0a13.55,13.55,0,0,0,2-1.66c.08-.07-.26,0-.32,0Z"/><path class="cls-2" d="M56.49,17.65a13.58,13.58,0,0,1-2.63,2.56c-.16.11.19.1.27,0a13.82,13.82,0,0,0,2.69-2.6c.09-.11-.26-.08-.33,0Z"/><path class="cls-2" d="M55.29,16.26a19.47,19.47,0,0,0-3.64,4s.29,0,.35-.06a19.37,19.37,0,0,1,3.61-4c.07-.07-.26,0-.32,0Z"/><path class="cls-2" d="M54.34,15.05a17.7,17.7,0,0,0-3.65,4.7c-.09.15.27.12.33,0a17.53,17.53,0,0,1,3.6-4.66c.16-.13-.19-.14-.28-.06Z"/><path class="cls-2" d="M53.6,13.45A45.38,45.38,0,0,0,49,19.79c0,.06.29,0,.35-.06a46,46,0,0,1,4.58-6.3c.08-.09-.26,0-.32,0Z"/><path class="cls-2" d="M52.63,12.74a26.72,26.72,0,0,0-5.09,7.51c0,.09.3.05.35-.05A26.38,26.38,0,0,1,53,12.74c.09-.1-.25-.07-.32,0Z"/><path class="cls-2" d="M51.19,13.16a29.27,29.27,0,0,0-3.89,6.11c-.07.18.28.17.34,0a28.32,28.32,0,0,1,3.84-6.06c.14-.17-.2-.21-.29-.09Z"/><path class="cls-2" d="M50.45,12.51a66.89,66.89,0,0,0-4.12,6.57c0,.08.3.05.35,0a66,66,0,0,1,4.09-6.53c.09-.12-.26-.07-.32,0Z"/><path class="cls-2" d="M48.51,12.53c-1.19,1.84-2.37,3.68-3.39,5.62,0,.06.3,0,.35-.06,1-1.93,2.2-3.77,3.38-5.61,0-.06-.29,0-.34,0Z"/><path class="cls-2" d="M46.85,12.94a13.63,13.63,0,0,0-2.7,4.73c0,.14.32.09.36,0A13.31,13.31,0,0,1,47.13,13c.14-.16-.2-.17-.28-.07Z"/><path class="cls-2" d="M47.05,14.39c-.46,1.8-1,3.59-1.45,5.39,0,.14.32.1.36,0,.46-1.79,1-3.58,1.45-5.38,0-.15-.32-.1-.36,0Z"/><path class="cls-2" d="M48.51,16.74c-1.19,2.7-2.62,5.27-3.15,8.19,0,.11.33.05.35-.05.53-2.92,2-5.49,3.14-8.19,0-.08-.3-.05-.34,0Z"/><path class="cls-2" d="M49.24,18.81a32.28,32.28,0,0,0-3.4,11.26c0,.17.35.12.36,0a32.2,32.2,0,0,1,3.37-11.2c.08-.17-.27-.16-.33,0Z"/><path class="cls-2" d="M49.73,21.63a44.71,44.71,0,0,0-3.64,12.66c0,.13.33.07.35,0a44.33,44.33,0,0,1,3.61-12.61c.08-.15-.28-.11-.32,0Z"/><path class="cls-2" d="M51.41,20.72A49.84,49.84,0,0,0,47.06,35c0,.13.33.07.34,0a50.12,50.12,0,0,1,4.35-14.28c0-.09-.29-.05-.34,0Z"/><path class="cls-2" d="M52.86,20.67c-2.19,3.76-2.87,8-3.63,12.21,0,.17.32.13.35,0,.76-4.16,1.44-8.4,3.62-12.13.1-.17-.26-.18-.34,0Z"/><path class="cls-2" d="M54.06,22.13A25.58,25.58,0,0,0,51.16,32c0,.12.34.05.35-.05a25.5,25.5,0,0,1,2.9-9.83c0-.07-.29,0-.35.06Z"/><path class="cls-2" d="M55.52,23.77a18.1,18.1,0,0,0-2.42,7.5s.34,0,.35-.09a18.05,18.05,0,0,1,2.41-7.47s-.29,0-.34.06Z"/><path class="cls-2" d="M56.72,25.41a11,11,0,0,0-1.21,4.69c0,.06.35,0,.35-.09a10.86,10.86,0,0,1,1.21-4.66c0-.06-.3,0-.35.06Z"/><path class="cls-2" d="M57.94,27.24a7.26,7.26,0,0,0-.74,3.07c0,.15.35.08.36,0a6.86,6.86,0,0,1,.71-3c.08-.16-.28-.13-.33,0Z"/><path class="cls-2" d="M59.9,28.62c-.46.48-.48,1.1-.75,1.67-.07.15.28.11.33,0,.25-.53.27-1.16.7-1.61.14-.15-.2-.14-.28-.06Z"/><path class="cls-2" d="M62,29.87c0,.22-.15.41-.16.63s.32.32.46.33a.59.59,0,0,0,.22,0,3.37,3.37,0,0,1,.77-.21,4.36,4.36,0,0,0,.92-.26c.21-.09-.12-.08-.2,0-.54.24-1.15.23-1.69.47l.26,0c-.23-.08-.45-.17-.36-.43a2.09,2.09,0,0,0,.13-.49c0-.05-.35,0-.35.09Z"/><path class="cls-2" d="M145.66,78.06a19,19,0,0,1-1.21,3.74c0,.07.31,0,.34,0A18.64,18.64,0,0,0,146,78c0-.09-.33,0-.34.06Z"/><path class="cls-2" d="M143.27,81.26l-.73.7c-.15.15.19.19.29.09l.73-.7c.15-.15-.19-.19-.29-.09Z"/><path class="cls-2" d="M136,83.61c-.07.07-.23.38-.32.39s-.28.26,0,.23.43-.3.65-.54-.2-.18-.29-.08Z"/><path class="cls-2" d="M141.55,83.93c0,.71-.23,1.39-.24,2.1,0,.09.34,0,.34-.09,0-.71.23-1.4.25-2.11,0-.08-.35,0-.35.1Z"/><path class="cls-2" d="M143.24,83.68a19.76,19.76,0,0,0-.49,3.76s.35,0,.36-.1a18.67,18.67,0,0,1,.48-3.72c0-.08-.33,0-.35.06Z"/><path class="cls-2" d="M144.44,85.06c0,.87-.22,1.72-.24,2.58,0,.17.35.12.36,0,0-.86.22-1.71.24-2.57,0-.18-.35-.12-.36,0Z"/><path class="cls-2" d="M145.65,86.47a8.19,8.19,0,0,0-.48,2.34c0,.16.35.1.35,0a7.82,7.82,0,0,1,.49-2.34c0-.14-.31-.1-.36,0Z"/><path class="cls-2" d="M149.31,86.17a28.3,28.3,0,0,0-2.42,3c-.13.17.2.23.3.11a28.06,28.06,0,0,1,2.41-3c.16-.15-.18-.22-.29-.1Z"/><path class="cls-2" d="M146.88,87.4A10.51,10.51,0,0,1,144,90c-.15.09.2.07.28,0a10.85,10.85,0,0,0,2.92-2.6c.08-.1-.27,0-.32,0Z"/><path class="cls-2" d="M145.94,86.45c-1.33.88-2.5,2-3.87,2.8-.15.1.2.06.27,0,1.37-.82,2.53-1.93,3.86-2.81.15-.09-.2-.06-.26,0Z"/><path class="cls-2" d="M143.76,86a37.46,37.46,0,0,1-4.59,3.74c-.16.12.19.12.27.06A38.6,38.6,0,0,0,144,86c.14-.14-.2-.12-.28-.05Z"/><path class="cls-2" d="M141.32,86a43.25,43.25,0,0,1-3.6,3c-.15.12.2.09.27,0A46.65,46.65,0,0,0,141.64,86c.09-.09-.25-.06-.32,0Z"/><path class="cls-2" d="M138.2,86.67a41.84,41.84,0,0,1-4.07,2.79c-.21.11.11.12.2.07a41.59,41.59,0,0,0,4.15-2.83c.15-.1-.2-.08-.28,0Z"/><path class="cls-2" d="M135.79,85.75a21.45,21.45,0,0,0-2.44,1.89c-.08.07.25,0,.31,0a23.93,23.93,0,0,1,2.4-1.85c.14-.1-.21-.06-.27,0Z"/><path class="cls-2" d="M133.89,85a4.37,4.37,0,0,1-1.52.66c-.09,0-.38.14-.15.13a5,5,0,0,0,1.87-.75c.2-.1-.12-.08-.2,0Z"/><path class="cls-2" d="M136.48,83.88a5.49,5.49,0,0,0-.73,3.79c0,.11.37,0,.35-.09a5.35,5.35,0,0,1,.71-3.7c.08-.13-.28-.09-.33,0Z"/><path class="cls-2" d="M138.17,85.5a5.55,5.55,0,0,0-.73,3.81c0,.15.38.06.35-.09a5.39,5.39,0,0,1,.71-3.69c.1-.16-.26-.15-.33,0Z"/><path class="cls-2" d="M140.1,84.61a9.69,9.69,0,0,0-1.21,4.93c0,.07.36,0,.35-.09a9.64,9.64,0,0,1,1.2-4.9s-.3,0-.34.06Z"/><path class="cls-2" d="M141.07,85.54a9.85,9.85,0,0,0-.73,4.47c0,.09.36,0,.35-.09a9.78,9.78,0,0,1,.72-4.43c0-.09-.31,0-.34.05Z"/><path class="cls-2" d="M142.27,87.89a8.67,8.67,0,0,0-.24,2.59s.35,0,.35-.09a8.44,8.44,0,0,1,.24-2.56c0-.06-.32,0-.35.06Z"/><path class="cls-2" d="M144.69,87a7.5,7.5,0,0,0-.73,4.46c0,.07.37,0,.35-.09a7.41,7.41,0,0,1,.73-4.43s-.31,0-.35.06Z"/><path class="cls-2" d="M146.38,87.42c-.22,1.16-.26,2.35-.48,3.51,0,.09.33,0,.34-.06.23-1.16.27-2.35.49-3.51,0-.08-.33,0-.35.06Z"/><path class="cls-2" d="M148.07,86.47l-.72,4.22c0,.14.33.09.35,0l.72-4.21c0-.15-.33-.09-.35,0Z"/><path class="cls-2" d="M149.28,87a7.59,7.59,0,0,0-.48,4c0,.1.36,0,.35-.09a7.66,7.66,0,0,1,.48-4c0-.1-.31-.06-.35,0Z"/><path class="cls-2" d="M150.24,86.71a19.76,19.76,0,0,0-.48,3.51c0,.15.35.09.35,0a18.9,18.9,0,0,1,.49-3.51c0-.15-.33-.09-.36,0Z"/><path class="cls-2" d="M151.21,85.77a18.18,18.18,0,0,0-.72,4.92c0,.15.35.09.35,0a19,19,0,0,1,.72-4.91c0-.14-.31-.1-.35,0Z"/><path class="cls-2" d="M152.18,85.78A37.83,37.83,0,0,1,151,90.69c0,.11.32.06.35,0a37.83,37.83,0,0,0,1.21-4.91c0-.12-.33-.06-.35,0Z"/><path class="cls-2" d="M152.42,87.44c0,1-.22,2-.24,3,0,0,.35,0,.35-.09,0-1,.22-2,.24-3,0,0-.35,0-.35.1Z"/><path class="cls-2" d="M153.15,87.87a18.9,18.9,0,0,1-.49,3.51c0,.17.32.13.36,0a20,20,0,0,0,.48-3.52c0-.17-.35-.12-.35,0Z"/><path class="cls-2" d="M153.26,84.34a16.34,16.34,0,0,0,.31-2.18c-.06.83-.17,1.66-.29,2.49a20,20,0,0,1-1.82,6c-.09.18.27.19.34,0A25.45,25.45,0,0,0,154,81.53c0-.18-.29-.13-.34,0a15.41,15.41,0,0,0-.74,2.84c0,.17.32.13.36,0Z"/><path class="cls-2" d="M152.42,81.56a27.1,27.1,0,0,1-2.65,8.63c-.08.16.27.14.34,0a27.33,27.33,0,0,0,2.66-8.68c0-.16-.33-.11-.35,0Z"/><path class="cls-2" d="M152.18,79a48.56,48.56,0,0,1-4.1,10.74c-.08.14.28.1.33,0a49.13,49.13,0,0,0,4.12-10.79c0-.12-.32-.07-.35,0Z"/><path class="cls-2" d="M151.21,80.39a18,18,0,0,1-5,7.91c-.14.14.2.12.28,0a18.23,18.23,0,0,0,5.11-8c0-.11-.31-.07-.35,0Z"/><path class="cls-2" d="M150.49,80.16a36.32,36.32,0,0,1-6,7.24c-.09.07.25,0,.32,0a37,37,0,0,0,6.06-7.28c0-.06-.29,0-.35,0Z"/><path class="cls-2" d="M149.77,79.7a19.9,19.9,0,0,1-6.7,5.8c-.21.1.12.07.2,0a20.16,20.16,0,0,0,6.84-5.9s-.28,0-.34.06Z"/><path class="cls-2" d="M148.57,78.51a55,55,0,0,1-7.22,5.37c-.15.08.2,0,.26,0a54.87,54.87,0,0,0,7.28-5.4c.07,0-.25,0-.32,0Z"/><path class="cls-2" d="M146.45,78.68c-1.39.91-2.72,1.91-4.11,2.81-.2.13.11.17.21.1,1.4-.91,2.72-1.9,4.11-2.81.2-.13-.11-.17-.21-.1Z"/><path class="cls-2" d="M145.23,77a19.42,19.42,0,0,1-2.86,1.85c-.21.11,0,.25.15.17a21.69,21.69,0,0,0,2.94-1.9c.19-.13-.11-.2-.23-.12Z"/><path class="cls-2" d="M143.78,75.61c-.38.34-.83.59-1.21.93-.17.16.1.29.24.17.37-.34.83-.59,1.21-.93.16-.16-.11-.3-.24-.17Z"/><path class="cls-2" d="M142,73h-.49c-.1,0-.38.15-.14.15h.48c.1,0,.38-.15.15-.15Z"/><path class="cls-2" d="M145.42,75.43c-1,3.11-1.92,6.46-1,9.67,0,.16.39.07.35-.1-.94-3.16,0-6.47,1-9.52.06-.19-.29-.2-.34,0Z"/><path class="cls-2" d="M146.38,82a14.28,14.28,0,0,0,.24,6.34c0,.12.39,0,.35-.09a14.06,14.06,0,0,1-.24-6.29c0-.14-.34-.08-.35,0Z"/><path class="cls-2" d="M147.58,81.32a37.09,37.09,0,0,0,.49,6.82c0,.16.38.07.35-.09a35.6,35.6,0,0,1-.48-6.76c0-.18-.36-.13-.36,0Z"/><path class="cls-2" d="M148.56,79a39.18,39.18,0,0,0,1,7.49c0,.07.37,0,.35-.09a39.38,39.38,0,0,1-1-7.49c0-.06-.36,0-.35.09Z"/><path class="cls-2" d="M149.76,77.61c.23,2.1.26,4.21.48,6.32,0,.16.37.07.36-.1-.23-2.1-.26-4.21-.49-6.31,0-.16-.37-.08-.35.09Z"/><path class="cls-2" d="M151,76.18a43.8,43.8,0,0,0,.24,7.51c0,.12.37,0,.35-.09a43.22,43.22,0,0,1-.24-7.46c0-.15-.35-.08-.35,0Z"/><path class="cls-2" d="M151.7,74.77c-.29,2.69-1.3,6.7.25,9.18.08.12.41,0,.32-.14-1.52-2.43-.51-6.4-.22-9.07,0-.16-.34-.11-.35,0Z"/><path class="cls-2" d="M152.42,75.24c0,3.27-.22,6.55-.24,9.83,0,.16.35.11.35,0,0-3.27.22-6.55.24-9.82,0-.17-.35-.11-.35,0Z"/><path class="cls-2" d="M152.66,74.57a49.78,49.78,0,0,1-.24,11.7s.33,0,.35-.09A49.85,49.85,0,0,0,153,74.47s-.35,0-.35.1Z"/><path class="cls-2" d="M152.66,70.55c0,4.27-.06,8.51-1.44,12.61-.06.19.29.19.34,0,1.38-4.12,1.45-8.38,1.46-12.67,0-.18-.36-.13-.36,0Z"/><path class="cls-2" d="M151.7,70.82a30.23,30.23,0,0,1-2.9,10.05s.3,0,.34-.06a30.18,30.18,0,0,0,2.91-10.08s-.34,0-.35.09Z"/><path class="cls-2" d="M150,72.68c-.71,2.31-1.38,4.73-3.13,6.54-.07.06.26,0,.32,0,1.76-1.82,2.43-4.25,3.15-6.57,0-.06-.32,0-.34.06Z"/><path class="cls-2" d="M144.7,18.43a11.4,11.4,0,0,1,1.44,3.48c0,.16.39.07.35-.09A11.55,11.55,0,0,0,145,18.28c-.08-.13-.41,0-.32.15Z"/><path class="cls-2" d="M144.69,21.44a13.38,13.38,0,0,1,.48,1.64c.05.16.4.07.35-.09a13.38,13.38,0,0,0-.48-1.64c-.08-.15-.43-.06-.35.09Z"/><path class="cls-2" d="M143.48,24c0,.71.22,1.39.24,2.1,0,.11.35.05.35-.09,0-.71-.22-1.39-.24-2.1,0-.11-.35-.05-.35.09Z"/><path class="cls-2" d="M142.27,26.33c0,.63.22,1.24.24,1.87,0,.16.36.1.35,0,0-.63-.22-1.24-.24-1.87,0-.17-.35-.1-.35,0Z"/><path class="cls-2" d="M140.58,29.17a3.06,3.06,0,0,1,.24,1.37c0,.17.35.12.35,0a3.18,3.18,0,0,0-.24-1.43c-.07-.15-.41,0-.35.09Z"/><path class="cls-2" d="M139.13,32.44v1.17s.35,0,.35-.09V32.35c0-.05-.35,0-.35.09Z"/><path class="cls-2" d="M137,35.24a2.42,2.42,0,0,0-.25,1.18s.35,0,.35-.09a2.47,2.47,0,0,1,.24-1.16s-.3,0-.34.07Z"/><path class="cls-2" d="M138.18,33.87a1.43,1.43,0,0,0,.78.49c.11,0,.41-.16.21-.18a1.28,1.28,0,0,1-.67-.45c-.09-.08-.42.05-.32.14Z"/><path class="cls-2" d="M138.89,31.74a3.69,3.69,0,0,0,1.46,1.42c.09,0,.37-.1.33-.12a3.63,3.63,0,0,1-1.44-1.39c-.05-.08-.38,0-.35.09Z"/><path class="cls-2" d="M139.39,30.37a5.79,5.79,0,0,0,1.23,1.19c.14.07.44-.11.27-.2a5.32,5.32,0,0,1-1.18-1.14c-.12-.12-.45,0-.32.15Z"/><path class="cls-2" d="M140.34,29.4a4.52,4.52,0,0,0,1.7,1.42c.09,0,.38-.1.33-.12a4.38,4.38,0,0,1-1.68-1.39c-.06-.09-.38,0-.35.09Z"/><path class="cls-2" d="M140.83,27.54A6,6,0,0,0,143.51,29c.09,0,.4-.1.29-.13a5.93,5.93,0,0,1-2.64-1.4c-.07-.06-.39.06-.33.12Z"/><path class="cls-2" d="M140.14,24.77a15.22,15.22,0,0,0,4.38,2.13c.15.05.41-.17.2-.24a14.87,14.87,0,0,1-4.32-2.08c-.12-.1-.42.07-.26.19Z"/><path class="cls-2" d="M141.14,23.39c1.28.63,2.53,1.34,3.86,1.87.16.06.41-.15.2-.24-1.33-.53-2.58-1.24-3.86-1.87-.15-.07-.4.14-.2.24Z"/><path class="cls-2" d="M141.58,22.65a23.65,23.65,0,0,0,3.66,1.18c.11,0,.41-.14.21-.18a23.85,23.85,0,0,1-3.59-1.16c-.1,0-.42.1-.28.16Z"/><path class="cls-2" d="M141.62,21.49a29.57,29.57,0,0,0,4.83,1.17c.12,0,.41-.16.21-.19a29.57,29.57,0,0,1-4.83-1.17c-.12,0-.41.13-.21.19Z"/><path class="cls-2" d="M141.1,19.6A26.81,26.81,0,0,0,146.69,21c.1,0,.41-.15.21-.18a26.9,26.9,0,0,1-5.52-1.39c-.1,0-.42.11-.28.15Z"/><path class="cls-2" d="M140.16,18.2c2.1.44,4.21.77,6.25,1.4.1,0,.42-.11.29-.15-2.07-.64-4.2-1-6.32-1.41-.09,0-.41.12-.22.16Z"/><path class="cls-2" d="M139.88,16.78c2.49.46,5,.74,7.5,1.17.08,0,.37-.11.29-.12-2.49-.43-5-.71-7.49-1.17-.08,0-.38.1-.3.12Z"/><path class="cls-2" d="M140.17,15.42a41.18,41.18,0,0,0,9,1.18c.15,0,.36-.23.13-.23a40.36,40.36,0,0,1-8.9-1.16c-.14,0-.42.16-.21.21Z"/><path class="cls-2" d="M138.76,14a41,41,0,0,0,11.65.7c.19,0,.27-.27,0-.24a40.79,40.79,0,0,1-11.56-.7c-.17,0-.35.2-.12.24Z"/><path class="cls-2" d="M139.92,12.84a44.31,44.31,0,0,0,10.72.7c.18,0,.29-.22.05-.2a43.35,43.35,0,0,1-10.55-.7c-.13,0-.42.16-.22.2Z"/><path class="cls-2" d="M142.82,11.88a20.52,20.52,0,0,0,7.33,0c.16,0,.3-.2.06-.16a20.09,20.09,0,0,1-7.17,0c-.09,0-.41.13-.22.16Z"/><path class="cls-2" d="M149,10.79a17.67,17.67,0,0,0-6.64,3.1c-.16.11.2.1.27,0a17.29,17.29,0,0,1,6.41-3c.21,0,.17-.19,0-.15Z"/><path class="cls-2" d="M150.84,11a36.76,36.76,0,0,0-6.6,3.55c-.15.11.2.09.28,0A35.11,35.11,0,0,1,151,11.16c.22-.1,0-.18-.13-.12Z"/><path class="cls-2" d="M152.28,12.43a24.56,24.56,0,0,0-7.56,4c-.15.13.2.14.28.06a24.15,24.15,0,0,1,7.42-3.93c.23-.08,0-.21-.14-.15Z"/><path class="cls-2" d="M152.53,13.39c-2.93,1.17-7.06,2.31-8.32,5.46,0,.08.31,0,.34-.05,1.24-3.08,5.24-4.17,8.11-5.31.23-.09,0-.15-.13-.1Z"/><path class="cls-2" d="M151.81,15.49A31.72,31.72,0,0,0,144.24,20c-.14.12.2.09.28,0a31.16,31.16,0,0,1,7.42-4.41c.22-.1,0-.17-.13-.11Z"/><path class="cls-2" d="M153.05,16.16a18.9,18.9,0,0,0-8.33,5c-.15.14.2.15.28.07a18.44,18.44,0,0,1,8.11-4.86c.21-.05.16-.24-.06-.18Z"/><path class="cls-2" d="M152.3,17.62A18.93,18.93,0,0,0,145,22.35c-.07.07.26,0,.31,0a18.54,18.54,0,0,1,7.15-4.63c.24-.09,0-.12-.11-.07Z"/><path class="cls-2" d="M151.32,19.48a16.28,16.28,0,0,0-5.89,3.8c-.09.08.25,0,.32,0a15.67,15.67,0,0,1,5.7-3.69c.24-.08,0-.14-.13-.09Z"/><path class="cls-2" d="M149.62,22.25c-1.67.7-3.6,1.57-4.21,3.38,0,.13.31.09.35,0,.58-1.7,2.43-2.51,4-3.17.22-.1,0-.24-.15-.17Z"/><path class="cls-2" d="M148.08,25.84c-.25.45-.71.73-1,1.17-.08.14.27.1.32,0,.26-.45.72-.73,1-1.17.08-.14-.27-.11-.33,0Z"/><path class="cls-2" d="M148.56,28.91a2,2,0,0,0-.25,1.66c.05.1.39,0,.35-.09a2,2,0,0,1,.24-1.62c0-.08-.3,0-.34.05Z"/><path class="cls-2" d="M139.37,16a14.84,14.84,0,0,0-.72,1.64c0,.08.31,0,.34-.05a12,12,0,0,1,.73-1.64c0-.07-.3,0-.35,0Z"/><path class="cls-2" d="M135,16.23a15.74,15.74,0,0,0-.73,1.87c-.06.19.29.19.34,0a17.6,17.6,0,0,1,.72-1.87c.09-.18-.26-.18-.33,0Z"/><path class="cls-2" d="M132.61,17a.84.84,0,0,1-.21.42c-.15.14.2.14.28.06a1,1,0,0,0,.28-.52c0-.14-.34-.08-.35,0Z"/><path class="cls-2" d="M131.65,17.43a7.33,7.33,0,0,0-1.22,1.66s.3,0,.35-.06A6.75,6.75,0,0,1,132,17.4c.07-.06-.26,0-.32,0Z"/><path class="cls-2" d="M167,14h3.87c.07,0,.4-.14.23-.14h-3.87c-.07,0-.4.14-.23.14Z"/><path class="cls-2" d="M166.36,12.64a39,39,0,0,0,5.07-.24c.2,0,.27-.29,0-.26a39.11,39.11,0,0,1-5.07.23c-.21,0-.27.27,0,.27Z"/><path class="cls-2" d="M165.34,11.21c3.3.21,6.61.25,9.91.46.14,0,.37-.19.13-.21-3.3-.21-6.61-.25-9.91-.46-.15,0-.37.19-.13.21Z"/><path class="cls-2" d="M171.27,11.47c-4-.31-7.5,2.33-10.57,4.49-.19.14.11.19.22.11,3-2.1,6.34-4.71,10.22-4.4.13,0,.37-.18.13-.2Z"/><path class="cls-2" d="M173.89,12c-4.91.44-9.19,3.32-13.18,5.89-.2.13.1.16.21.09,3.91-2.52,8.11-5.37,12.92-5.8.17,0,.29-.21,0-.18Z"/><path class="cls-2" d="M174.81,12.89A33.9,33.9,0,0,0,160,20.43c-.15.14.19.13.28.06a33.48,33.48,0,0,1,14.62-7.43c.22-.05.17-.22,0-.17Z"/><path class="cls-2" d="M171.61,15.68A43.38,43.38,0,0,0,160.22,22c-.19.15.09.26.23.16a42.57,42.57,0,0,1,11.32-6.3c.22-.08,0-.26-.16-.2Z"/><path class="cls-2" d="M171.67,17.12A21.53,21.53,0,0,0,160.41,24c-.09.1.26.06.32,0a21,21,0,0,1,11-6.72c.2-.05.17-.18,0-.13Z"/><path class="cls-2" d="M169,19.9a20.24,20.24,0,0,0-7.8,5.2c-.14.16.2.19.29.09a19.79,19.79,0,0,1,7.67-5.11c.22-.09,0-.25-.16-.18Z"/><path class="cls-2" d="M167.75,22.27c-2.63,1-5.45,2.47-6.86,5-.08.14.27.1.33,0,1.37-2.44,4.1-3.83,6.67-4.85.23-.09,0-.2-.14-.13Z"/><path class="cls-2" d="M166.75,24.88c-2.36,1-5.21,2.43-6.11,5,0,.08.31,0,.35-.06.88-2.48,3.65-3.84,6-4.85.21-.1-.12-.1-.21-.06Z"/><path class="cls-2" d="M165.09,28.1A11.47,11.47,0,0,0,161.4,31c-.14.17.19.18.28.08a11,11,0,0,1,3.56-2.76c.21-.11,0-.25-.15-.17Z"/><path class="cls-2" d="M163.84,30.46a6.39,6.39,0,0,0-2.23,2.63c-.07.17.28.14.33,0a6.11,6.11,0,0,1,2.13-2.52c.19-.14-.1-.22-.23-.13Z"/><path class="cls-2" d="M164,33.61c.31,1.47.66,3,0,4.43,0,.07.31,0,.35,0,.66-1.44.31-3,0-4.47,0-.09-.37,0-.35.09Z"/><path class="cls-2" d="M160.39,25.39a71.15,71.15,0,0,1-1.2,7.25c0,.18.32.14.35,0a71.64,71.64,0,0,0,1.21-7.25c0-.19-.34-.15-.36,0Z"/><path class="cls-2" d="M159.19,26.57c-.25,2.43-.49,4.86-1,7.26,0,.1.33.05.35,0,.48-2.4.72-4.83,1-7.26,0-.12-.34-.05-.35.05Z"/><path class="cls-2" d="M158.22,24.92c-.25,3.67-.69,7.32-.73,11,0,.18.36.13.36,0,0-3.67.47-7.33.72-11,0-.18-.34-.13-.35,0Z"/><path class="cls-2" d="M157.26,24c-.45,4.21-.51,8.43-.73,12.65,0,.08.34,0,.35-.09.22-4.2.28-8.42.72-12.61,0-.12-.33-.05-.34.05Z"/><path class="cls-2" d="M156.29,24.49c-.26,5.07-.69,10.13-.73,15.21,0,.06.35,0,.35-.09,0-5.08.47-10.14.73-15.22,0-.05-.35,0-.35.1Z"/><path class="cls-2" d="M155.56,26.59a165.56,165.56,0,0,1-.72,18.23c0,.14.34.07.35,0a164.12,164.12,0,0,0,.72-18.28c0-.11-.35,0-.35.09Z"/><path class="cls-2" d="M160.94,25.3c-1.19.71-2.28,1.54-3.38,2.34-.19.14.09.25.23.15a39.79,39.79,0,0,1,3.38-2.34c.2-.12-.09-.23-.23-.15Z"/><path class="cls-2" d="M160.74,28.79c-1.19.68-2.85,1.28-3.7,2.39-.13.17.2.22.29.1.82-1.07,2.41-1.64,3.56-2.29.2-.12,0-.3-.15-.2Z"/><path class="cls-2" d="M161.19,31.43a19.46,19.46,0,0,0-4.64,2.62c-.09.06.25,0,.31,0a19.4,19.4,0,0,1,4.54-2.53c.21-.09-.12-.09-.21-.06Z"/><path class="cls-2" d="M163,31.85A10.8,10.8,0,0,0,156.54,35c-.08.09.26.05.33,0A10.09,10.09,0,0,1,163,32c.15,0,.3-.19.06-.16Z"/><path class="cls-2" d="M163.68,32.52c-3.14.6-5.62,2.62-7.85,4.74-.15.15.19.2.3.1,2.15-2.06,4.56-4,7.61-4.61.23,0,.16-.28-.06-.23Z"/><path class="cls-2" d="M162.44,34.46c-2.53.79-5.19,2.36-6.39,4.75,0,0,.3,0,.34-.06,1.17-2.31,3.72-3.85,6.18-4.61.23-.07,0-.12-.13-.08Z"/><path class="cls-2" d="M160,37.72a7.17,7.17,0,0,0-2.23,2.39c-.09.16.27.13.33,0a7,7,0,0,1,2.12-2.29c.19-.14-.1-.21-.22-.12Z"/><path class="cls-2" d="M180.45,64a7,7,0,0,0,.24,2.13c.05.13.4,0,.36-.09a6.62,6.62,0,0,1-.24-2.08c0-.16-.36-.09-.36,0Z"/><path class="cls-2" d="M181.68,64.7a1.39,1.39,0,0,0-.26,1c0,.07.35,0,.35-.09a1.3,1.3,0,0,1,.23-.9c.08-.09-.26-.05-.32,0Z"/><path class="cls-2" d="M182.15,63.31a4,4,0,0,0,.24,2.83c.05.1.39,0,.35-.09a4,4,0,0,1-.24-2.79c0-.1-.33,0-.35.05Z"/><path class="cls-2" d="M182.39,62.16a6.33,6.33,0,0,0,.48,3.51c0,.08.38,0,.35-.09a6.33,6.33,0,0,1-.48-3.51s-.33,0-.35.09Z"/><path class="cls-2" d="M182.87,63.8v2.34c0,.08.35,0,.35-.09V63.71c0-.08-.35,0-.35.09Z"/><path class="cls-2" d="M182.63,63.77a28.6,28.6,0,0,1-.24,4.44c0,.17.33.12.35,0a28.8,28.8,0,0,0,.24-4.45c0-.17-.35-.11-.35,0Z"/><path class="cls-2" d="M181.66,64.5a14.52,14.52,0,0,1-.72,4.43c0,.08.32,0,.35-.05a14.77,14.77,0,0,0,.72-4.47c0-.07-.35,0-.35.09Z"/><path class="cls-2" d="M180.21,66.11a7.61,7.61,0,0,1-1,3.24c-.09.18.27.18.34,0a7.93,7.93,0,0,0,1-3.31c0-.18-.36-.13-.36,0Z"/><path class="cls-2" d="M178.78,67.51a11.62,11.62,0,0,0-1.46,1.89s.28,0,.34-.06a12.76,12.76,0,0,1,1.44-1.85c.08-.08-.26,0-.32,0Z"/><path class="cls-2" d="M179.25,69.42a1.34,1.34,0,0,1,.24.93c0,.05.35,0,.35-.09a1.38,1.38,0,0,0-.24-.93c-.07-.08-.37.07-.35.09Z"/><path class="cls-2" d="M180.45,68.71c.23.69.27,1.42.49,2.11,0,.07.37,0,.35-.09-.22-.69-.26-1.42-.49-2.11,0-.07-.37,0-.35.09Z"/><path class="cls-2" d="M181.42,68.25a12.24,12.24,0,0,0,1,3c.06.12.4,0,.35-.09a12.11,12.11,0,0,1-1-3c0-.12-.37,0-.35.09Z"/><path class="cls-2" d="M181.9,67.78a12.86,12.86,0,0,0,1.21,3c0,.08.38,0,.35-.09a12.86,12.86,0,0,1-1.21-3c0-.07-.36,0-.35.09Z"/><path class="cls-2" d="M183.11,67.54a29,29,0,0,0,1,4.22c0,.14.4,0,.35-.09a29,29,0,0,1-1-4.22c0-.14-.37,0-.35.09Z"/><path class="cls-2" d="M183.6,67.08a35.72,35.72,0,0,0,1.45,5.14c0,.08.37,0,.35-.08A36.22,36.22,0,0,1,184,67c0-.07-.37,0-.35.09Z"/><path class="cls-2" d="M183.36,66.14a47.31,47.31,0,0,0,2.17,6.08c.05.12.39,0,.35-.08a49.66,49.66,0,0,1-2.18-6.09c0-.12-.37,0-.34.09Z"/><path class="cls-2" d="M183.6,66.37a42.61,42.61,0,0,1,2.65,7c0,.13.39,0,.35-.1a42.85,42.85,0,0,0-2.65-7c-.06-.13-.4,0-.35.09Z"/><path class="cls-2" d="M186.25,72.22a38.38,38.38,0,0,1,1.21,4.92c0,.11.37,0,.35-.09a37.83,37.83,0,0,0-1.21-4.91c0-.12-.38,0-.35.08Z"/><path class="cls-2" d="M186.74,76.17a7.84,7.84,0,0,0,.24,2.37c.05.15.4,0,.35-.09a7.48,7.48,0,0,1-.24-2.31c0-.16-.35-.11-.35,0Z"/><path class="cls-2" d="M185.29,72.69c.22,2.17.46,4.34.48,6.53,0,.17.35.11.35,0a65.93,65.93,0,0,0-.48-6.59c0-.15-.37-.06-.35.09Z"/><path class="cls-2" d="M184.32,72c.25,2.87.47,5.74.48,8.63,0,.18.36.13.36,0,0-2.9-.24-5.8-.49-8.69,0-.16-.36-.08-.35.09Z"/><path class="cls-2" d="M183.36,73.63a27.25,27.25,0,0,1-.25,7.49s.33,0,.35-.09a26.86,26.86,0,0,0,.24-7.49c0-.06-.35,0-.34.09Z"/><path class="cls-2" d="M182.15,77.61a16.08,16.08,0,0,1-.49,4.42c0,.12.32.07.35,0a16.44,16.44,0,0,0,.49-4.47c0-.11-.35,0-.35.09Z"/><path class="cls-2" d="M183.35,80.16c-.48,1.58-1.2,3.09-1.69,4.68,0,.13.32.08.35,0,.49-1.59,1.21-3.1,1.69-4.68.05-.13-.31-.09-.35,0Z"/><path class="cls-2" d="M184.57,79.7c-.92,2.52-1.47,5.14-2.18,7.72,0,.06.32,0,.34-.06.72-2.58,1.26-5.2,2.18-7.72,0,0-.31,0-.34.06Z"/><path class="cls-2" d="M185.77,78.52c-.3,3.16-1.16,6.23-1.69,9.36,0,.12.33.06.35,0,.53-3.13,1.39-6.2,1.69-9.36,0-.13-.34-.06-.35,0Z"/><path class="cls-2" d="M186.49,77.58c-.78,4.13-1.86,8.19-2.17,12.4,0,.17.34.13.35,0,.31-4.2,1.4-8.27,2.18-12.4,0-.17-.33-.13-.36,0Z"/><path class="cls-2" d="M187,79.68c-.71,3.42-1.44,6.84-1.94,10.3,0,.17.34.13.36,0,.49-3.46,1.22-6.87,1.93-10.3,0-.16-.32-.12-.35,0Z"/><path class="cls-2" d="M187,80.39c-.28,3.06-.93,6.07-1.21,9.13,0,.13.34.07.35,0,.28-3,.93-6.06,1.21-9.12,0-.14-.34-.07-.35,0Z"/><path class="cls-2" d="M187.46,82.49c-.27,3-.74,5.94-1.21,8.89,0,.16.33.11.36,0,.47-2.95.93-5.91,1.21-8.89,0-.16-.35-.11-.36,0Z"/><path class="cls-2" d="M187.46,84.14c-.23,2.42-.26,4.85-.72,7.25,0,.13.33.07.35,0,.46-2.4.49-4.84.72-7.26,0-.13-.34-.06-.35,0Z"/><path class="cls-2" d="M178.07,57.38a7.78,7.78,0,0,0-1.24,2.41c-.05.17.31.13.35,0a8,8,0,0,1,1.18-2.28c.12-.18-.2-.24-.29-.11Z"/><path class="cls-2" d="M179,57.92a21.68,21.68,0,0,0-1.45,3.28c0,.14.33.08.35,0a20.39,20.39,0,0,1,1.46-3.28c0-.11-.31-.07-.36,0Z"/><path class="cls-2" d="M180.21,58.87A36.25,36.25,0,0,0,178.28,64c0,.08.32,0,.35-.06a36.71,36.71,0,0,1,1.93-5.15c0-.07-.31,0-.35.06Z"/><path class="cls-2" d="M182.15,58.17a32.84,32.84,0,0,0-2.42,6.55c0,.08.33,0,.35-.06a32.81,32.81,0,0,1,2.41-6.55c0-.06-.3,0-.34.06Z"/><path class="cls-2" d="M182.88,58.37a14.7,14.7,0,0,0-1.7,6.34c0,.14.35.07.35,0a14.47,14.47,0,0,1,1.68-6.29c.07-.15-.28-.11-.33,0Z"/><path class="cls-2" d="M182.39,61.68c-.25,1-.47,2-.73,3l.35-.07a14.9,14.9,0,0,1,2.18-7s-.3,0-.35.06a15,15,0,0,0-2.18,7c0,.06.33,0,.35-.08.25-1,.47-2,.73-3,0-.08-.33,0-.35.06Z"/><path class="cls-2" d="M183,60.25A39.16,39.16,0,0,1,185.39,56c.09-.14-.26-.12-.33,0a39.3,39.3,0,0,0-2.42,4.22c-.08.15.27.12.33,0Z"/><path class="cls-2" d="M183,60.72a20,20,0,0,1,3.84-5.82c.15-.15-.19-.16-.28-.07a20.15,20.15,0,0,0-3.89,5.87c-.07.16.28.13.33,0Z"/><path class="cls-2" d="M184.16,57.26a23.53,23.53,0,0,1,3.35-3.49l-.26-.13A12.9,12.9,0,0,1,184.62,56c-.19.14.09.27.24.16a13.75,13.75,0,0,0,2.68-2.36c.13-.17-.15-.22-.26-.14a23.29,23.29,0,0,0-3.41,3.54c-.14.17.19.23.29.11Z"/><path class="cls-2" d="M184.82,54.63c-1.25,1.21-2.49,2.43-3.63,3.75-.08.1.26.06.33,0,1.13-1.31,2.37-2.53,3.62-3.75.09-.08-.25-.06-.32,0Z"/><path class="cls-2" d="M183.87,53.89,181.69,56c-.14.14.2.16.29.07L184.16,54c.15-.14-.2-.16-.29-.07Z"/><path class="cls-2" d="M183.11,52.79a13.6,13.6,0,0,0-2.17,4c0,.07.32,0,.35-.06a13.6,13.6,0,0,1,2.17-4s-.28,0-.35.06Z"/><path class="cls-2" d="M184.9,55.09A5.88,5.88,0,0,1,186.29,54c.21-.1-.12-.1-.21-.05a6.48,6.48,0,0,0-1.5,1.21c-.08.07.26,0,.32,0Z"/><path class="cls-2" d="M185.84,55.59a13.42,13.42,0,0,0,1.72-1.9c.09-.12-.27-.08-.33,0a12.13,12.13,0,0,1-1.66,1.85c-.15.14.2.12.27.05Z"/><path class="cls-2" d="M188.91,50.91c-.26.73-.7,1.38-1,2.11,0,.08.31,0,.35-.06.26-.72.7-1.38,1-2.1,0-.08-.31,0-.35,0Z"/><path class="cls-2" d="M189.16,51.38c-.52.76-.94,1.58-1.45,2.34,0,0,.29,0,.34-.06.52-.76.94-1.58,1.45-2.34,0,0-.29,0-.34.06Z"/><path class="cls-2" d="M188.69,52.06a24.38,24.38,0,0,1-2.18,2.58c-.08.08.26,0,.32,0A25.63,25.63,0,0,0,189,52c.07-.09-.27,0-.32,0Z"/><path class="cls-2" d="M188,51.8c-.7,1.09-1.6,2-2.4,3-.13.17.2.2.29.09.81-1,1.73-2,2.44-3.07.1-.16-.26-.15-.33,0Z"/><path class="cls-2" d="M182.14,32.88c-.22.93-.26,1.88-.48,2.81,0,.16.32.12.36,0,.22-.93.26-1.88.48-2.81,0-.16-.32-.12-.36,0Z"/><path class="cls-2" d="M180.94,34.78a3.49,3.49,0,0,1-.48,1.39c0,.07.3,0,.34-.06a3.3,3.3,0,0,0,.49-1.42c0-.07-.35,0-.35.09Z"/><path class="cls-2" d="M182.39,34.05a20.53,20.53,0,0,0-1,3.51c0,.15.33.1.35,0a21,21,0,0,1,1-3.51c0-.13-.3-.09-.35,0Z"/><path class="cls-2" d="M184.09,32.84a11.92,11.92,0,0,0-2,5.42c0,.17.3.13.35,0,.94-2.37,1.42-5,3.12-7,.14-.17-.19-.23-.29-.11-1.72,2-2.21,4.66-3.17,7.06h.35a11.69,11.69,0,0,1,1.92-5.35c.1-.17-.26-.18-.33,0Z"/><path class="cls-2" d="M184.18,35a12.6,12.6,0,0,1,2.16-3.71c.14-.17-.19-.24-.3-.11a13,13,0,0,0-2.2,3.78c-.06.19.29.19.34,0Z"/><path class="cls-2" d="M184.18,35.46c.93-1.57,1.85-3.14,2.88-4.65.12-.18-.2-.24-.29-.1-1.05,1.53-2,3.12-2.93,4.71-.09.17.26.17.34,0Z"/><path class="cls-2" d="M185.15,33.35a10.5,10.5,0,0,1,1.91-2.55c.15-.15-.19-.19-.29-.09a10.82,10.82,0,0,0-2,2.61c-.08.16.27.16.34,0Z"/><path class="cls-2" d="M187.57,29.8a7.92,7.92,0,0,0,.48-2.13c0-.09-.3,0-.33,0a12,12,0,0,0-1.22,2.36c0,.1.3,0,.35,0a13.46,13.46,0,0,0,1.2-3c0-.1-.32,0-.34.05a13,13,0,0,1-2.65,5.6c-.08.1.26.06.32,0A13,13,0,0,0,188.05,27l-.34.05a13.3,13.3,0,0,1-1.21,3l.35,0A11.56,11.56,0,0,1,188,27.71l-.34.05a7.56,7.56,0,0,1-.48,2.09c0,.09.32,0,.35-.05Z"/><path class="cls-2" d="M187.22,26.36a9,9,0,0,1-1.93,4s.28,0,.34-.06a9.13,9.13,0,0,0,1.94-4s-.33,0-.35.09Z"/><path class="cls-2" d="M185.54,28.64c-1,1.2-1.69,2.55-2.66,3.75-.1.13.25.11.33,0,1-1.2,1.69-2.55,2.66-3.75.1-.13-.25-.11-.33,0Z"/><path class="cls-2" d="M184.57,28.41a11.32,11.32,0,0,1-2.15,2.78c-.15.15.2.16.28.07a11.53,11.53,0,0,0,2.2-2.83c.08-.16-.27-.13-.33,0Z"/><path class="cls-2" d="M183.61,27.24a3.45,3.45,0,0,0-.5,1.43c0,.15.35.08.35,0a3.3,3.3,0,0,1,.48-1.38c.07-.15-.28-.11-.33,0Z"/><path class="cls-2" d="M185.53,25.17l-.72,4.21c0,.12.33.06.34-.05.25-1.4.49-2.81.73-4.21,0-.12-.33-.06-.35.05Z"/><path class="cls-2" d="M186,24.69a18.21,18.21,0,0,0-.24,4.94c0,.16.37.08.35-.09a18.17,18.17,0,0,1,.24-4.88c0-.17-.33-.13-.35,0Z"/><path class="cls-2" d="M186.74,22.35c-.22,2-.25,4.06-.49,6.08,0,.17.34.12.36,0,.24-2,.26-4.06.48-6.08,0-.17-.34-.12-.35,0Z"/><path class="cls-2" d="M187,22.11a13.5,13.5,0,0,0,0,4.95c0,.16.39.07.35-.09a13.57,13.57,0,0,1,0-4.88c0-.18-.33-.13-.35,0Z"/><path class="cls-2" d="M187.46,21.89c0,1.64-.22,3.27-.24,4.91,0,.15.35.08.35,0,0-1.64.23-3.27.24-4.91,0-.15-.35-.08-.35,0Z"/><path class="cls-2" d="M187.7,21.68c-.22,2.1-.26,4.21-.48,6.32l.35-.09a38.48,38.48,0,0,1,.48-4.92s-.33,0-.35.09a36.92,36.92,0,0,0-.48,4.92s.34,0,.35-.09c.23-2.11.26-4.22.48-6.32,0,0-.34,0-.35.09Z"/><path class="cls-2" d="M187.94,18.13c-.15,1.6-.23,3.2-.41,4.8-.06.46-.13.92-.22,1.38-.32.64-.3.82.07.54.06-1,.11-2,.15-3,.1-2.07.21-4.14.43-6.2-.49-.08-.62.18-.4.81,0,.52-.05,1-.07,1.58,0,1.05,0,2.1,0,3.16,0,.18.36.13.36,0,0-2.11,0-4.21.24-6.32,0-.17-.34-.13-.36,0-.43,3.57-.49,7.17-.72,10.76,0,.19.31.12.35,0a42,42,0,0,0,1-7.49c0-.18-.34-.13-.36,0Z"/><path class="cls-2" d="M187.7,12.08a81.91,81.91,0,0,1-.48,10.51c0,.11.34.05.35-.05A82.54,82.54,0,0,0,188.05,12c0-.08-.35,0-.35.09Z"/><path class="cls-2" d="M186.74,16.06a62.09,62.09,0,0,1-.73,9.13s.34,0,.35-.09a63.49,63.49,0,0,0,.73-9.13s-.35,0-.35.09Z"/><path class="cls-2" d="M186,17.45a59.26,59.26,0,0,1-.72,6.78c0,.1.33,0,.35-.05a61.77,61.77,0,0,0,.72-6.79c0-.1-.34,0-.35.06Z"/><path class="cls-2" d="M184.81,18.84c-.26,1.72-.48,3.44-.73,5.15,0,.14.33.08.35,0,.25-1.71.47-3.43.72-5.15,0-.13-.33-.07-.34,0Z"/><path class="cls-2" d="M183.59,19.31a13.44,13.44,0,0,1-.72,4.21c-.05.14.31.1.35,0a13.81,13.81,0,0,0,.73-4.22c0-.16-.35-.09-.36,0Z"/><path class="cls-2" d="M182.63,20.25c-.22.63-.5,1.24-.73,1.87,0,.11.32.06.35,0,.23-.63.51-1.24.73-1.88,0-.1-.31-.06-.35.05Z"/><path class="cls-2" d="M5.24,11.58a9.45,9.45,0,0,0,1.22,3.54c.07.15.41.05.35-.09A9.17,9.17,0,0,1,5.6,11.56c0-.18-.36-.12-.36,0Z"/><path class="cls-2" d="M4.76,11.38a19.22,19.22,0,0,0,1,3.74c0,.14.4,0,.35-.09a19.22,19.22,0,0,1-1-3.74c0-.13-.37,0-.35.09Z"/><path class="cls-2" d="M5,12.79a9.18,9.18,0,0,0,1.71,3.76c.06.08.4,0,.32-.13a8.88,8.88,0,0,1-1.67-3.73c0-.1-.38,0-.36.1Z"/><path class="cls-2" d="M5.73,13.49c.23,1.09.45,2.19.73,3.27,0,.14.38,0,.35-.09-.28-1.08-.5-2.18-.73-3.27,0-.14-.38-.05-.35.09Z"/><path class="cls-2" d="M5.25,13.72a19.87,19.87,0,0,0,1.21,4c0,.09.38,0,.35-.09a19.87,19.87,0,0,1-1.21-4c0-.08-.37,0-.35.09Z"/><path class="cls-2" d="M5.25,13.72a12.71,12.71,0,0,0,2.18,4.7c.06.07.39-.05.33-.12A12.69,12.69,0,0,1,5.6,13.63c0-.09-.38,0-.35.09Z"/><path class="cls-2" d="M5.75,14c.5,1,.93,2,1.45,3.05.06.13.4,0,.32-.15-.51-1-.95-2-1.45-3-.07-.13-.41,0-.32.15Z"/><path class="cls-2" d="M6.23,13.74a13.72,13.72,0,0,0,1.69,2.11c.09.09.42,0,.32-.14a14.13,14.13,0,0,1-1.69-2.1c-.07-.11-.41,0-.32.13Z"/><path class="cls-2" d="M6.47,13a5.59,5.59,0,0,0,2.2,1.66c.1.05.42-.1.27-.17a5.57,5.57,0,0,1-2.15-1.62c-.07-.1-.41,0-.32.13Z"/><path class="cls-2" d="M6,11.9a10.2,10.2,0,0,0,2.21,1.18c.14.05.41-.15.2-.22a9.82,9.82,0,0,1-2.14-1.15c-.12-.08-.43.08-.27.19Z"/><path class="cls-2" d="M6.49,11.64l2.17.7c.08,0,.4-.1.29-.14l-2.18-.7c-.08,0-.39.1-.28.14Z"/><path class="cls-2" d="M7,11.64c.71.22,1.47.26,2.18.47.09,0,.41-.11.28-.15-.71-.21-1.46-.25-2.18-.47-.09,0-.4.12-.28.15Z"/><path class="cls-2" d="M7,10.65A5.65,5.65,0,0,0,5.25,13c0,.06.32,0,.34-.06a5.58,5.58,0,0,1,1.68-2.32c.07-.07-.26,0-.31,0Z"/><path class="cls-2" d="M7.92,10.64a6.66,6.66,0,0,0-1.71,2.83c0,.09.32,0,.35-.05a6.57,6.57,0,0,1,1.68-2.79c.09-.09-.26-.06-.32,0Z"/><path class="cls-2" d="M9.17,11a7.33,7.33,0,0,0-2.71,3.81c-.06.18.29.18.34,0a7.1,7.1,0,0,1,2.6-3.68c.2-.13-.09-.25-.23-.16Z"/><path class="cls-2" d="M9.13,12.05a10.87,10.87,0,0,0-2.67,4c0,.05.31,0,.34-.07a10.75,10.75,0,0,1,2.65-4c.07-.07-.26,0-.32,0Z"/><path class="cls-2" d="M9.37,12.75a11,11,0,0,0-2.43,3.53c0,.06.31,0,.35-.06a10.84,10.84,0,0,1,2.4-3.49c.08-.08-.26,0-.32,0Z"/><path class="cls-2" d="M9.87,13.18a8.42,8.42,0,0,0-2.45,4.5c0,.13.33.07.35-.05a8.28,8.28,0,0,1,2.38-4.39c.15-.15-.2-.14-.28-.06Z"/><path class="cls-2" d="M10.58,13.45a10.9,10.9,0,0,0-2.67,4.7c0,.07.32,0,.34-.06a10.88,10.88,0,0,1,2.65-4.66c.07-.08-.26,0-.32,0Z"/><path class="cls-2" d="M10.35,14.81a9.26,9.26,0,0,0-2,4c0,.15.32.1.35,0a9,9,0,0,1,1.9-3.92c.13-.17-.2-.19-.29-.08Z"/><path class="cls-2" d="M10.81,16a6.56,6.56,0,0,0-1.45,4.51c0,.15.36.07.35-.09A6.45,6.45,0,0,1,11.15,16c.1-.15-.26-.15-.34,0Z"/><path class="cls-2" d="M11.05,19.09a9.8,9.8,0,0,0-1,2.34c0,.07.32,0,.35-.06a9.94,9.94,0,0,1,1-2.34c0-.05-.29,0-.34.06Z"/><path class="cls-2" d="M11.53,21.42a2,2,0,0,0,1,2.15c.1.07.42-.07.32-.13a1.9,1.9,0,0,1-.95-2.06c0-.13-.32-.07-.35,0Z"/><path class="cls-2" d="M12,22.38a12,12,0,0,1,.24,2.81c0,.1.36,0,.36-.09a11.53,11.53,0,0,0-.25-2.81c0-.12-.37,0-.35.09Z"/><path class="cls-2" d="M10.8,21.17v3.51c0,.19.36.15.36,0V21.15c0-.18-.36-.14-.36,0Z"/><path class="cls-2" d="M10.32,21.19c-.2,1.25-.24,2.51-.48,3.75,0,.08.33,0,.35-.06.24-1.24.28-2.5.48-3.75,0-.08-.33,0-.35.06Z"/><path class="cls-2" d="M9.36,20.51v4c0,.1.35,0,.35-.1v-4c0-.11-.35,0-.35.09Z"/><path class="cls-2" d="M8.87,20.51a14.08,14.08,0,0,1,.24,3.24c0,.18.36.12.36,0a14,14,0,0,0-.25-3.3c0-.16-.39-.07-.35.09Z"/><path class="cls-2" d="M8.15,19.34a18.18,18.18,0,0,0,.72,3.74c.05.12.39,0,.35-.09a18.31,18.31,0,0,1-.72-3.74c0-.12-.37,0-.35.09Z"/><path class="cls-2" d="M7.66,18.4a19.9,19.9,0,0,0,1,3.28c0,.09.38,0,.35-.09a19.9,19.9,0,0,1-1-3.28c0-.09-.37,0-.35.09Z"/><path class="cls-2" d="M7.91,19.1a9.94,9.94,0,0,1,1,2.34c0,.09.38,0,.35-.09a9.94,9.94,0,0,0-1-2.34c-.06-.09-.39,0-.35.09Z"/><path class="cls-2" d="M9.11,20.74a12.61,12.61,0,0,1,.73,1.64c0,.07.37,0,.35-.09a12,12,0,0,0-.73-1.64c0-.08-.37,0-.35.09Z"/><path class="cls-2" d="M10.08,19.57c.23,1.33.49,2.65.73,4,0,.15.37.07.35-.09-.24-1.33-.5-2.65-.73-4,0-.15-.38-.07-.35.09Z"/><path class="cls-2" d="M11.53,20.94a8.8,8.8,0,0,0,.24,2.61c.05.16.4.07.35-.09a8.34,8.34,0,0,1-.24-2.54c0-.18-.35-.13-.35,0Z"/><path class="cls-2" d="M12.74,21.88A2.4,2.4,0,0,0,13,24c.08.12.42,0,.33-.14a2.29,2.29,0,0,1-.23-2c.05-.14-.31-.1-.35,0Z"/><path class="cls-2" d="M14.19,22.6a2.48,2.48,0,0,0,.48,2.12c.05.08.38-.06.35-.09a2.44,2.44,0,0,1-.48-2.09c0-.06-.32,0-.35.06Z"/><path class="cls-2" d="M15.88,23.78a.64.64,0,0,0,.6.55c.18,0,.35-.22.12-.25a.41.41,0,0,1-.37-.39c0-.16-.37-.07-.35.09Z"/><path class="cls-2" d="M17.37,24.29l1.45.7c.1.05.42-.09.27-.16l-1.45-.71c-.1-.05-.42.1-.27.17Z"/><path class="cls-2" d="M10.56,24a14.84,14.84,0,0,1-1.2,4.18c-.08.18.27.18.34,0A15.62,15.62,0,0,0,10.92,24c0-.17-.33-.13-.36,0Z"/><path class="cls-2" d="M9.35,24.93c-.24,1.11-.67,2.17-1,3.27,0,.14.31.09.35,0,.3-1.1.72-2.17,1-3.28,0-.14-.33-.09-.36,0Z"/><path class="cls-2" d="M8.63,24.7c-.46,1.34-.91,2.67-1.45,4,0,.06.31,0,.35-.06.53-1.31,1-2.64,1.45-4,0-.06-.32,0-.35.06Z"/><path class="cls-2" d="M8.63,24.24a39.81,39.81,0,0,1-2.41,5.38c0,.05.29,0,.34-.06A38.66,38.66,0,0,0,9,24.18c0-.07-.31,0-.35.06Z"/><path class="cls-2" d="M7.91,24.89A25.13,25.13,0,0,1,5.5,29.8c-.11.16.25.16.33,0a25.17,25.17,0,0,0,2.42-4.91c.07-.19-.28-.18-.34,0Z"/><path class="cls-2" d="M6.73,27.9,4.79,29.77c-.15.15.18.21.3.1L7,28c.15-.15-.18-.21-.29-.1Z"/><path class="cls-2" d="M4.78,30.53a9.62,9.62,0,0,0-1.22,2.13c0,.08.31,0,.34-.06a9.61,9.61,0,0,1,1.2-2.08c.08-.11-.27-.06-.32,0Z"/><path class="cls-2" d="M4.28,32.42c-.26.95-.7,1.85-1,2.8,0,.14.32.09.35,0,.27-1,.71-1.86,1-2.81,0-.14-.32-.09-.35,0Z"/><path class="cls-2" d="M6.46,28.4a12.9,12.9,0,0,0-2.67,8c0,.17.37.12.36,0A12.69,12.69,0,0,1,6.8,28.44c.1-.16-.25-.16-.34,0Z"/><path class="cls-2" d="M7.93,27.43A18.22,18.22,0,0,0,5,34.51c0,.18.32.14.36,0a17.85,17.85,0,0,1,2.87-7c.13-.18-.2-.24-.3-.11Z"/><path class="cls-2" d="M9.37,27c-1.8,2.3-2.4,5-3.16,7.75,0,.12.32.07.35,0C7.31,32,7.9,29.31,9.69,27c.09-.12-.26-.09-.32,0Z"/><path class="cls-2" d="M9.6,27.93a15.16,15.16,0,0,0-2.18,6.12c0,.18.33.14.36,0A15,15,0,0,1,9.94,28c.1-.16-.25-.18-.34,0Z"/><path class="cls-2" d="M10.33,29.57a11.63,11.63,0,0,0-1.7,4.71c0,.17.33.12.35,0a11.64,11.64,0,0,1,1.68-4.65c.11-.15-.25-.15-.33,0Z"/><path class="cls-2" d="M10.56,32.64a1.29,1.29,0,0,1-.21.88c-.14.16.19.2.29.09a1.46,1.46,0,0,0,.28-1c0-.18-.36-.12-.36,0Z"/><path class="cls-2" d="M10.56,23.29a27.49,27.49,0,0,0-.72,7.28c0,.13.36.05.35-.09a27.12,27.12,0,0,1,.72-7.23c0-.14-.32-.09-.35,0Z"/><path class="cls-2" d="M11.29,24.94c-.49,2.24-.76,4.53-1.21,6.78,0,.08.33,0,.35-.06.45-2.25.71-4.54,1.21-6.78,0-.08-.33,0-.35.06Z"/><path class="cls-2" d="M12.26,24.7a35.71,35.71,0,0,0-1,6.81s.35,0,.35-.09a36.2,36.2,0,0,1,1-6.78c0-.08-.32,0-.34.06Z"/><path class="cls-2" d="M13.22,24.94a15.26,15.26,0,0,0-.72,4.69c0,.07.35,0,.35-.09a15.07,15.07,0,0,1,.72-4.66c0-.08-.32,0-.35.06Z"/><path class="cls-2" d="M14.43,25.89c0,.48-.22.93-.24,1.4,0,.05.34,0,.35-.09,0-.48.22-.92.24-1.4,0-.05-.35,0-.35.09Z"/><path class="cls-2" d="M15.88,24a11.92,11.92,0,0,0-.48,3.76c0,.09.35,0,.35-.09A11.67,11.67,0,0,1,16.23,24c0-.11-.31-.06-.35.05Z"/><path class="cls-2" d="M16.61,24.46a3.37,3.37,0,0,0,0,2.13c0,.13.38,0,.35-.09a3.22,3.22,0,0,1,0-2.08c0-.13-.32-.08-.35,0Z"/><path class="cls-2" d="M17.82,24.19a2.18,2.18,0,0,0,0,1.7c.05.15.4.06.35-.09a2.06,2.06,0,0,1,0-1.58c.09-.17-.27-.16-.33,0Z"/><path class="cls-2" d="M19.26,24a1.25,1.25,0,0,1-.21.87c-.15.17.19.23.29.11a1.43,1.43,0,0,0,.28-1c0-.18-.36-.14-.36,0Z"/><path class="cls-2" d="M20.5,23.93a1.46,1.46,0,0,0-.27,1c0,.16.35.09.35,0a1.29,1.29,0,0,1,.21-.88c.14-.16-.2-.18-.29-.08Z"/><path class="cls-2" d="M22.41,24.25c0,.29.34.29.59.29s.37-.2.13-.2-.35,0-.37-.18-.37,0-.35.09Z"/><path class="cls-2" d="M7.66,33.14c0,.33-.21.62-.24.94,0,.06.34,0,.35-.09,0-.32.22-.61.24-.94,0-.06-.34,0-.35.09Z"/><path class="cls-2" d="M7.18,32.19c-.44,1.78-.7,3.59-1,5.4,0,0,.34,0,.35-.09.27-1.8.53-3.6,1-5.37,0-.07-.33,0-.35.06Z"/><path class="cls-2" d="M6.22,33.78a8.73,8.73,0,0,0-.49,5.45c0,.15.39.06.35-.09a8.46,8.46,0,0,1,.48-5.32c.07-.18-.28-.17-.34,0Z"/><path class="cls-2" d="M5.49,35.47C5.23,36.3,5.21,37.19,5,38c0,.09.32,0,.34-.06.21-.84.22-1.73.49-2.57,0-.08-.32,0-.35.06Z"/><path class="cls-2" d="M4.52,35a7.65,7.65,0,0,0,.24,4c.06.14.4,0,.35-.09A7.67,7.67,0,0,1,4.87,35c0-.15-.33-.09-.35,0Z"/><path class="cls-2" d="M4.28,36.16a19.32,19.32,0,0,0,.48,3.54c0,.13.38,0,.35-.09a19.67,19.67,0,0,1-.48-3.49c0-.15-.35-.09-.35,0Z"/><path class="cls-2" d="M5,38.53c.76,1.51,1.27,3.13,1.94,4.68.06.14.41,0,.35-.09C6.62,41.57,6.11,40,5.36,38.44c-.08-.15-.42,0-.36.09Z"/><path class="cls-2" d="M5.49,36.65a15.71,15.71,0,0,0,1.45,4.68c.07.15.42.05.35-.09a15.71,15.71,0,0,1-1.45-4.68c0-.15-.38-.07-.35.09Z"/><path class="cls-2" d="M7.18,37.36A14.83,14.83,0,0,0,8.63,41.8c.06.12.4,0,.35-.09a14.93,14.93,0,0,1-1.45-4.44c0-.12-.37,0-.35.09Z"/><path class="cls-2" d="M8.39,36.42a8.17,8.17,0,0,0,1,2.57c.05.09.38,0,.35-.09a8.17,8.17,0,0,1-1-2.57c0-.08-.37,0-.35.09Z"/><path class="cls-2" d="M103.66,92.77a7.58,7.58,0,0,0,1,.94c.2.15-1,.69-1.32.46a7.48,7.48,0,0,1-1.41-1.4H97.41a22.82,22.82,0,0,0-3,3.17c-.33.47-1.76.47-1.34-.13a20.43,20.43,0,0,1,2.93-3H82.77c.11.45.24.9.38,1.34s-1.22.91-1.4.37-.34-1.14-.48-1.71h-78v9.92H186.64V92.77Zm-90.51,8H7.35V95.11h5.8Zm12.81,0h-5.8V95.11H26Zm12.81,0H33V95.11h5.8Zm13.29,0h-5.8V95.11h5.8Zm12.81,0h-5.8V95.11h5.8Zm12.81,0h-5.8V95.11h5.8Zm13.53,0h-5.8V95.11h5.8Zm12.81,0h-5.8V95.11H104Zm6.36-7.39-.54.53a1.25,1.25,0,0,1-1,.26c-.31-.06-.33-.27-.13-.47l.54-.52a1.22,1.22,0,0,1,1-.26C110.56,92.94,110.58,93.15,110.38,93.34Zm6.45,7.39H111V95.11h5.8Zm13.77,0h-5.8V95.11h5.8Zm12.81,0h-5.8V95.11h5.8Zm12.81,0h-5.8V95.11h5.8Zm12.81,0h-5.8V95.11H169Zm12.81,0H176V95.11h5.8Z"/></g></g></svg>