<svg id="konus" xmlns="http://www.w3.org/2000/svg" viewBox="0 0 54.67 88.2"><defs><style>.cls-1{fill:#000111;}</style></defs><g id="Layer_2" data-name="Layer 2"><g id="l2"><path class="cls-1" d="M.79,76.43a6.33,6.33,0,0,0,1.32,3.78A11.81,11.81,0,0,0,5,82.9a26.08,26.08,0,0,0,7.16,3.18A52.57,52.57,0,0,0,27.6,88a45.61,45.61,0,0,0,15.3-2.66,23.65,23.65,0,0,0,6.81-3.88,15.21,15.21,0,0,0,2.67-2.93,12.57,12.57,0,0,0,1-1.75c.15-.3.28-.61.4-.92s.12-.32.17-.48l0-.12s0-.09.11-.17.16,0,.2,0l.11.06-.13.13L42.84,39.27l-11.53-36,.12.08L22,3.69l.1-.09-10.8,36-10.9,36v0H.5a.6.6,0,0,1,.09-.15.16.16,0,0,1,.08,0s.06,0,.07.06a1.41,1.41,0,0,1,.05.35Zm0,0v-.68a1.2,1.2,0,0,0-.05-.33c0-.06-.06,0-.09,0a.51.51,0,0,0-.09.13H.38v0l10.71-36,10.8-36,0-.08H22l9.41-.35h.08l0,.08,11.4,36.07,11.52,36,.07.24-.21-.12-.1,0s-.08,0,0,0,0,0,0,0l0,.12c-.05.17-.11.33-.17.49-.12.32-.26.64-.4,1a12,12,0,0,1-1,1.77,15.07,15.07,0,0,1-2.7,3A22.87,22.87,0,0,1,43,85.59,45.88,45.88,0,0,1,27.61,88.2a53.2,53.2,0,0,1-15.46-2A26.63,26.63,0,0,1,5,83a11.53,11.53,0,0,1-2.91-2.71A6.44,6.44,0,0,1,.76,76.43Z"/><path class="cls-1" d="M22.07,5.2a2.68,2.68,0,0,0,1.34,1.17.76.76,0,0,0,.7-.2c.17-.17.09-.33-.1-.4a2.24,2.24,0,0,1-1-1c-.21-.31-1.16,0-.91.42Z"/><path class="cls-1" d="M22.2,3.52a1.93,1.93,0,0,0,.94.8.85.85,0,0,0,.69-.12c.13-.07.3-.22.11-.32a1.69,1.69,0,0,1-.76-.64c-.15-.3-1.09.07-1,.28Z"/><path class="cls-1" d="M23.19,3.72a15.56,15.56,0,0,0,4-.18c.51-.08.79-.77.11-.67a14.52,14.52,0,0,1-3.78.18c-.43,0-1,.6-.36.67Z"/><path class="cls-1" d="M21.6,1.82A1.52,1.52,0,0,0,22.12,4c.12.07.52-.14.46-.18a1.45,1.45,0,0,1-.5-2.11c0-.05-.41,0-.48.1Z"/><path class="cls-1" d="M21.78,3.13a2.93,2.93,0,0,0,1.44,1.12c.17.06.58-.2.3-.3a2.63,2.63,0,0,1-1.28-1c-.1-.15-.58,0-.46.21Z"/><path class="cls-1" d="M21.86,1.72c.9.19,1.81.35,2.72.54.13,0,.57-.2.3-.26l-2.71-.53c-.14,0-.58.19-.31.25Z"/><path class="cls-1" d="M23.17,1.87a18.91,18.91,0,0,0,3.1.18c.1,0,.56-.2.32-.2a18,18,0,0,1-3-.18c-.11,0-.53.18-.4.2Z"/><path class="cls-1" d="M22.12.69a3.09,3.09,0,0,0-.69,2.23c0,.19.46,0,.49-.1A12.82,12.82,0,0,1,22.6.67l-.44.16c.34.21.21.64.12,1s.43.12.49-.06c.13-.44.21-.9-.22-1.17a.34.34,0,0,0-.44.16,12.49,12.49,0,0,0-.68,2.15l.49-.1A2.84,2.84,0,0,1,22.58.71c.13-.21-.36-.17-.46,0Z"/><path class="cls-1" d="M22.25,1a2.77,2.77,0,0,1,1.57.51c.13.09.57-.12.46-.19A3.17,3.17,0,0,0,22.45.75c-.16,0-.53.25-.2.25Z"/><path class="cls-1" d="M23.61.82A25.63,25.63,0,0,1,27.12,1c.13,0,.58-.21.31-.25A27.35,27.35,0,0,0,23.81.57c-.15,0-.53.25-.2.25Z"/><path class="cls-1" d="M24.29.81h4.07c.15,0,.54-.23.21-.23H24.49c-.14,0-.53.23-.2.23Z"/><path class="cls-1" d="M24.82,1.07a27.79,27.79,0,0,0,5.16,0c.27,0,.37-.42,0-.38a26.42,26.42,0,0,1-5,0c-.25,0-.51.34-.17.38Z"/><path class="cls-1" d="M23.14.76a1.54,1.54,0,0,0-1.37.88c-.05.09.42.05.49-.09A.85.85,0,0,1,22.93,1a.46.46,0,0,0,.33-.13c.08-.08-.07-.1-.12-.1Z"/><path class="cls-1" d="M22.38,1.73a1,1,0,0,0-.44,1c0,.11.49,0,.49-.14s0-.63.24-.78-.17-.17-.29-.09Z"/><path class="cls-1" d="M22.46,1.92c-.14.29-.21.6-.34.9s.37.27.47.06.21-.61.34-.9-.38-.27-.47-.06Z"/><path class="cls-1" d="M23,2.38v.18c0,.11.49,0,.49-.14V2.24c0-.12-.49,0-.49.14Z"/><path class="cls-1" d="M23.64,2.36a2.89,2.89,0,0,1-.32.69c-.07.08.06.08.11.07A.55.55,0,0,0,23.76,3a2.54,2.54,0,0,0,.36-.74c0-.07-.42,0-.48.1Z"/><path class="cls-1" d="M24.14,2.34c0,.31-.15.58-.17.89s.49.14.5,0,.16-.59.17-.9-.49-.14-.5.06Z"/><path class="cls-1" d="M25,2.81c-.07.16-.17.37-.06.54s.51.1.69,0,.21-.48-.1-.38l-.14.05c-.12,0,0,0,0,.06s.07-.19.09-.24c.12-.27-.37-.29-.48-.07Z"/><path class="cls-1" d="M25.84,2.56a1.11,1.11,0,0,0,.36.74c.1.11.57-.08.46-.19a1,1,0,0,1-.32-.69c0-.13-.5,0-.5.14Z"/><path class="cls-1" d="M22.5,1.07A29.18,29.18,0,0,1,26.24.89c.28,0,.38-.38,0-.38a29.27,29.27,0,0,0-3.74.18c-.27,0-.38.42,0,.38Z"/><path class="cls-1" d="M23.18.89a44.46,44.46,0,0,1,4.76,0c.28,0,.37-.38,0-.38a42,42,0,0,0-4.76,0c-.27,0-.38.41,0,.38Z"/><path class="cls-1" d="M26.91.86C28,.7,29.18.66,30.31.5c.25,0,.39-.37.06-.32C29.24.34,28.1.37,27,.53c-.26,0-.4.38-.06.33Z"/><path class="cls-1" d="M29.36.52C30.2.24,31,.36,31.28,1.3c.08.24.57.1.49-.14a1.77,1.77,0,0,0-2.5-1c-.3.1-.21.46.09.36Z"/><path class="cls-1" d="M30.94,1.63a1.59,1.59,0,0,1-2.1,1.47c-.13,0-.57.17-.4.21a2.24,2.24,0,0,0,3-1.76c0-.15-.47-.06-.49.08Z"/><path class="cls-1" d="M26.44,3.5a5,5,0,0,0,5-1.74c.12-.15-.37-.09-.45,0a4.13,4.13,0,0,1-4.2,1.48c-.13,0-.58.2-.32.24Z"/><path class="cls-1" d="M30.48,1.7a.61.61,0,0,0,.44,0c.12-.07.24-.38.25-.38l-.38.05c.39.26-.21,1.59-.36,1.92l.49-.12a4.52,4.52,0,0,1,.51-1.94l-.49.11a9.08,9.08,0,0,1,0,2l.49-.12a3.47,3.47,0,0,1-.17-1.25L30.77,2a6.28,6.28,0,0,1,.68,3.38c0,.14.47,0,.49-.09a6.27,6.27,0,0,0-.68-3.43c-.06-.13-.49,0-.49.14a3.53,3.53,0,0,0,.17,1.25c0,.13.47,0,.49-.11a9.55,9.55,0,0,0,0-2c0-.13-.44,0-.49.12a4.73,4.73,0,0,0-.51,2c0,.13.45,0,.49-.11.15-.32.86-1.87.31-2a.59.59,0,0,0-.39.08.27.27,0,0,0-.1.08c-.16.31-.09.13.14.19-.12,0-.56.17-.4.21Z"/><path class="cls-1" d="M30.26,3.81a1,1,0,0,1-.15.67l.46-.11c-.21-.21-.48-.36-.5-.7,0-.1-.49,0-.49.14a2.56,2.56,0,0,0,.17,1.07c.06.14.53,0,.49-.13a2.64,2.64,0,0,1-.17-1.08l-.49.14c0,.35.3.52.53.74s.39,0,.45-.11a1.14,1.14,0,0,0,.19-.77c0-.09-.49,0-.49.14Z"/><path class="cls-1" d="M22.46,3.35a18.76,18.76,0,0,0-1.72,5.78c0,.26.41.2.49,0a18.12,18.12,0,0,0,1.2-4.71c0-.26-.42-.21-.48,0-.68,2-1.24,4.1-2,6.09-.12.28.38.29.47.07a9.08,9.08,0,0,0,.52-2c.05-.26-.42-.22-.48,0-.52,1.74-.72,3.54-1.22,5.29l.32,0a18.64,18.64,0,0,1,.76-2.44c.3-.82.66-1.63,1-2.44.65-1.54-.16-.6-.4.14s-.63,1.75-1,2.63a59.91,59.91,0,0,0-2.05,6.15c-.08.3.41.31.47.07.93-3.62,2.5-7,3.57-10.56.09-.3-.39-.3-.47-.07a41.19,41.19,0,0,0-2.57,7.39c0,.27.42.2.49,0a17.33,17.33,0,0,0,.92-3.48c.06-.3.12-.61.17-.91-.4-1.11-.31-1.3.28-.58.34-.86.6-1.75.87-2.63l.27-.88c.48-.58.47-.91,0-1a16.61,16.61,0,0,1-.76,3.11l.37-.13c.1-.57.2-1.13.31-1.7a9.34,9.34,0,0,1,1.18-3.08c.14-.26-.36-.28-.47-.07Z"/><path class="cls-1" d="M24.37,3.56a4.59,4.59,0,0,0-2.43,2.56c0,.09.46,0,.48-.1a4.43,4.43,0,0,1,2.33-2.46c.2-.11-.29,0-.38,0Z"/><path class="cls-1" d="M23.72,5.79a13.15,13.15,0,0,0-3,3.3c-.13.24.37.22.47,0A12.57,12.57,0,0,1,24,6c.26-.22-.15-.35-.32-.2Z"/><path class="cls-1" d="M24,6.38a19.21,19.21,0,0,0-4.28,4.87c-.12.21.38.17.46,0a18.67,18.67,0,0,1,4.22-4.8c.22-.18-.27-.2-.4-.09Z"/><path class="cls-1" d="M23.89,7.74a19,19,0,0,0-3.44,4c-.19.26.27.35.41.16A19,19,0,0,1,24.22,8c.26-.21-.14-.4-.33-.24Z"/><path class="cls-1" d="M22.79,10.23a14.83,14.83,0,0,0-2,3.4c0,.08.43,0,.49-.09a15.15,15.15,0,0,1,2-3.4.63.63,0,0,0-.48.09Z"/><path class="cls-1" d="M22.45,12.56l-.51,1.07c0,.09.42,0,.49-.09l.5-1.07c0-.08-.42-.05-.48.09Z"/><path class="cls-1" d="M22.46,14.12a3.32,3.32,0,0,0-.17,3.51c.09.14.57,0,.46-.2a3.14,3.14,0,0,1,.17-3.3c.12-.2-.37-.15-.46,0Z"/><path class="cls-1" d="M23.82,5q-1.29,3-2.4,6.13c-.07.21.41.12.48,0a15,15,0,0,0,1.55-7c0-.25-.45-.12-.5.06-1,3.77-2.06,7.54-3.22,11.28-.07.2.41.14.48,0C21.46,12.2,22,8.79,22.94,5.5c.06-.21-.43-.13-.5.06A74.67,74.67,0,0,0,19.9,14c0,.23.42.14.48,0a33,33,0,0,0,2.05-7.74c0-.25-.41-.1-.48,0-2.18,3.38-3.12,7.71-3.75,11.68,0,.24.41.11.48,0,2.12-3.78,2.85-8.16,3.75-12.4.05-.23-.44-.11-.49.06-1.36,3.88-2.27,7.91-3.57,11.82-.07.2.43.13.49-.06C20,14,20.8,10.6,21.84,7.26c.52-.65.5-1-.06-1-.17.79-.33,1.58-.5,2.36-.35,1.65-.75,3.27-1.23,4.88-.35,1.17-1.14,2.93-1.26,3.69.23-1.46.57-2.9.94-4.33a34.52,34.52,0,0,1,1.45-4.34,16,16,0,0,1,.91-1.8,6.56,6.56,0,0,0-.61,2.1c-.27,1.37-.63,2.78-.9,4.09a46,46,0,0,1,1.75-5.64c.57-.79.52-1.08-.15-.88-.26.88-.45,1.79-.66,2.69s-.41,1.81-.63,2.71l-.24.9a1.83,1.83,0,0,0-.13,1.67c.48-1.56.93-3.13,1.38-4.7.27-.94.52-1.88.78-2.82.09-.31.17-.62.26-.94.48-.6.48-1,0-1a14.67,14.67,0,0,1-1.13,5.48l.41-.19c.32-.87.64-1.73,1-2.59s.72-1.74,1.08-2.6c.11-.25-.39-.21-.46,0Z"/><path class="cls-1" d="M22.67,5.66a4.23,4.23,0,0,1,1.49.87l.33-.25c-.4,0-.73-.36-1.09-.51a2.14,2.14,0,0,0-.1.22,5.43,5.43,0,0,1,1.57-.5c.05,0,.39-.13.26-.24a2.93,2.93,0,0,1-.46-.59,1.34,1.34,0,0,0-.81-.34c-.08.09-.16.19-.25.28.74,0,1.47-.16,2.21-.18.12,0,.53-.19.25-.28-.58-.18-1.09-.48-1.65-.7,0,.06,0,.13-.05.2a1.76,1.76,0,0,1,1.86,0c.15.06.6-.17.4-.25a2.45,2.45,0,0,0-2.56.05c-.06,0-.16.15-.05.2.59.23,1.14.54,1.75.73L26,4.13c-.74,0-1.47.17-2.21.18-.11,0-.54.23-.25.29.65.13.66.49,1.11.85l.26-.24a6,6,0,0,0-1.82.58c-.07,0-.25.16-.1.22a4.16,4.16,0,0,0,1.28.56c.07,0,.47-.12.33-.24a4.41,4.41,0,0,0-1.56-.92c-.15-.06-.6.17-.39.25Z"/><path class="cls-1" d="M26,4.14a10,10,0,0,0-3.15,2c-.22.22.26.28.41.14a9.37,9.37,0,0,1,3-1.9c.31-.14,0-.39-.22-.28Z"/><path class="cls-1" d="M25.43,5.28a13.07,13.07,0,0,0-4,2.94c-.13.16.36.12.46,0a12.53,12.53,0,0,1,3.83-2.8c.3-.15-.15-.22-.3-.14Z"/><path class="cls-1" d="M25.15,6.52a12.56,12.56,0,0,0-4.21,3.14c-.13.14.36.09.45,0a11.6,11.6,0,0,1,3.94-2.95c.32-.15,0-.26-.18-.17Z"/><path class="cls-1" d="M25.1,7.64a14.44,14.44,0,0,0-4,3.1c-.11.13.36.07.45,0a14.32,14.32,0,0,1,3.82-3c.29-.17-.16-.15-.28-.08Z"/><path class="cls-1" d="M24.28,9.13A12.77,12.77,0,0,0,21,11.9c-.21.25.26.34.41.16A12,12,0,0,1,24.5,9.45c.29-.18,0-.47-.22-.32Z"/><path class="cls-1" d="M24.47,10.29a7.51,7.51,0,0,0-3.72,3c-.05.09.41.05.49-.08a6.82,6.82,0,0,1,3.41-2.75c.33-.13,0-.23-.18-.15Z"/><path class="cls-1" d="M24.51,11.43a8.14,8.14,0,0,0-3.73,3.15c-.18.27.28.37.42.17a7.47,7.47,0,0,1,3.41-2.94c.29-.11.2-.49-.1-.38Z"/><path class="cls-1" d="M23.6,13.24a14.55,14.55,0,0,0-2.48,2.23c-.22.24.26.35.42.17a13.94,13.94,0,0,1,2.28-2.07c.29-.18,0-.49-.22-.33Z"/><path class="cls-1" d="M23.9,14.25a6.13,6.13,0,0,0-2.45,2.21c-.11.18.38.1.45,0a5.76,5.76,0,0,1,2.3-2.08c.29-.16-.16-.18-.3-.11Z"/><path class="cls-1" d="M23.38,15.82a6.25,6.25,0,0,0-1.77,2.05c-.12.24.38.21.46,0A5.94,5.94,0,0,1,23.7,16c.27-.21-.14-.33-.32-.19Z"/><path class="cls-1" d="M23.16,17.8a4.81,4.81,0,0,0-1.06,2.07c-.06.26.44.21.5,0a4.26,4.26,0,0,1,1-1.87c.22-.24-.25-.34-.42-.17Z"/><path class="cls-1" d="M23.13,20.46a2.77,2.77,0,0,1-.17,1c-.06.13.42.08.49-.07a2.78,2.78,0,0,0,.17-1.11c0-.13-.49,0-.49.14Z"/><path class="cls-1" d="M1.41,74.09a48,48,0,0,1,2.33-7c0-.11-.44,0-.49.09-.85,2.28-1.54,4.63-2.21,7,0,.11.45,0,.49-.09.67-2.35,1.36-4.69,2.21-7l-.49.09a48,48,0,0,0-2.33,7c0,.13.46,0,.49-.09Z"/><path class="cls-1" d="M1.74,73.78C2.28,72.14,3,70.57,3.4,68.89c.06-.23-.42-.2-.48,0A38.18,38.18,0,0,1,1,74.13c-.12.27.38.27.47.06a38.66,38.66,0,0,0,1.9-5.25H2.9c-.42,1.64-1.11,3.18-1.63,4.79-.09.28.4.27.47.06Z"/><path class="cls-1" d="M1.87,74a31.2,31.2,0,0,1,1.18-3.41H2.57a21.43,21.43,0,0,1-1,3.18c-.1.25.39.2.46,0A20.64,20.64,0,0,0,3.06,70.5c0-.22-.42-.13-.48,0A32.81,32.81,0,0,0,1.38,74c-.06.21.44.13.49-.06Z"/><path class="cls-1" d="M2.57,71.47a24.9,24.9,0,0,1-1,2.58c0,.06.42,0,.48-.1a21.5,21.5,0,0,0,1.06-2.58c0-.08-.45,0-.49.1Z"/><path class="cls-1" d="M.65,72.46a7.22,7.22,0,0,0-.2,4.29c.11.43,1.1.15,1-.28a6.62,6.62,0,0,1,.14-3.94c.2-.52-.79-.45-.93-.07Z"/><path class="cls-1" d="M.12,73.65A8.61,8.61,0,0,0,1.5,80.2c.18.22,1.11-.13.93-.37a8.47,8.47,0,0,1-1.34-6.35c0-.31-.93-.11-1,.17Z"/><path class="cls-1" d="M2.45,69.76C-.08,71.72.29,76.32,1.38,79c.07.18.56,0,.49-.14-1.06-2.61-1.48-7.12,1-9,.23-.17-.27-.18-.39-.09Z"/><path class="cls-1" d="M1.72,72.56a3.88,3.88,0,0,0,.86,2.71c.1.1.56-.08.47-.18a3.85,3.85,0,0,1-.84-2.67c0-.1-.49,0-.49.14Z"/><path class="cls-1" d="M1.74,73.59A11.57,11.57,0,0,0,.53,75.23c-.05.07.18,0,.2,0A.47.47,0,0,0,1,75.13a10.09,10.09,0,0,1,1.17-1.58c.07-.09-.07-.09-.12-.08a.58.58,0,0,0-.33.12Z"/><path class="cls-1" d="M1.76,74A3.06,3.06,0,0,0,.7,76.5c0,.23.54.1.49-.14a2.76,2.76,0,0,1,1-2.18c.21-.24-.26-.3-.41-.15Z"/><path class="cls-1" d="M2,75.24A4.15,4.15,0,0,0,.7,77.53c-.06.24.44.18.49,0a3.72,3.72,0,0,1,1.11-2c.26-.22-.14-.38-.33-.23Z"/><path class="cls-1" d="M2.08,76.08A4.81,4.81,0,0,0,.87,78.44c0,.17.46.08.49-.08a4.69,4.69,0,0,1,1.17-2.29c.13-.14-.35-.1-.45,0Z"/><path class="cls-1" d="M2.42,77.16a3.11,3.11,0,0,0-.87,2c0,.11.49,0,.49-.14a2.93,2.93,0,0,1,.83-1.91c.12-.14-.36-.08-.45,0Z"/><path class="cls-1" d="M3.05,79.49v0l-.46.09a1.19,1.19,0,0,1,.12.26l.46-.1a2.52,2.52,0,0,1-.63-1.21l-.49.14c.35.77.66,1.56,1,2.33l.47-.18c-.49-.67-1-1.29-1.53-2-.09-.13-.55,0-.47.18a16,16,0,0,0,1.21,2.18L3.21,81a3.66,3.66,0,0,1-.51-.71l-.45.21A16.57,16.57,0,0,0,4.63,83c.14.13.6-.08.45-.21a17.63,17.63,0,0,1-2.38-2.5c-.11-.15-.56,0-.45.21a3,3,0,0,0,.51.71c.12.13.58,0,.45-.21A16.67,16.67,0,0,1,2,78.87L1.57,79c.49.68,1,1.3,1.53,2,.09.14.55,0,.47-.17-.36-.77-.66-1.56-1-2.33-.08-.18-.53-.07-.49.14a2.62,2.62,0,0,0,.66,1.28.33.33,0,0,0,.46-.09c.09-.13,0-.38-.13-.49s-.39,0-.46.09v0c-.11.24.39.2.47,0Z"/><path class="cls-1" d="M2.91,76.32c0,.19.17.26.32.28s.52-.29.18-.33c0,0,0-.06,0-.09,0-.2-.5-.08-.49.14Z"/><path class="cls-1" d="M4.44,77.89v.36c0,.25.49.15.49,0v-.36c0-.25-.49-.16-.49,0Z"/><path class="cls-1" d="M4.2,76.47a1.48,1.48,0,0,1-.65-.68c-.09-.19-.56,0-.45.21a1.57,1.57,0,0,0,.71.75c.17.09.61-.15.39-.28Z"/><path class="cls-1" d="M2.42,80.66a1,1,0,0,1,.1.38.57.57,0,0,0,.27.37c.15.09.53,0,.42-.25a5.17,5.17,0,0,0-.85-1.26l-.45.22,1,1.08c.15.15.61,0,.45-.22l-1-1.08c-.14-.14-.57,0-.45.22a4.07,4.07,0,0,0,1.56,1.65c.18.09.62-.16.39-.29a3.87,3.87,0,0,1-1.5-1.58l-.45.22,1,1.08c.15.15.61,0,.45-.22l-1-1.08c-.14-.15-.61,0-.45.22a5.17,5.17,0,0,1,.85,1.26l.42-.26c-.25-.15-.15-.46-.31-.68s-.6,0-.45.22Z"/><path class="cls-1" d="M1.91,80.29a7.27,7.27,0,0,0,2.58,2.53c.12.06.58-.14.39-.24A7.12,7.12,0,0,1,2.36,80.1c-.08-.13-.56,0-.45.19Z"/><path class="cls-1" d="M6.8,80.09c.57.46,1.1,1,1.7,1.43.09.07.3-.07.19-.15-.6-.43-1.13-1-1.7-1.43-.09-.08-.31.06-.19.15Z"/><path class="cls-1" d="M32,84.91c1.71-.19,3.4-.54,5.09-.89.11,0,.21-.17,0-.13-1.69.35-3.38.7-5.1.89-.11,0-.2.15,0,.13Z"/><path class="cls-1" d="M36,85.1c.28-.17.56-.37.85-.54s0-.2-.11-.14a9.68,9.68,0,0,1-1.18.41,6.12,6.12,0,0,1,.33-.87c0-.11-.14-.11-.2-.06-.33.31-1.4,1.46-1.15.4,0-.1-.14-.08-.18-.06a4.14,4.14,0,0,0-.93.49c-.18.15,0-.29.09-.43s-.11-.09-.15-.07-.87.46-.71.09c0-.09-.08-.12-.14-.09a7.84,7.84,0,0,0-1.58.74c-.15.09.06.17.16.11.42-.24.85-.47,1.28-.68a1.74,1.74,0,0,0-.13.46c0,.08.1.09.15.07a1.26,1.26,0,0,0,.57-.3c.51-.37.19,0,.13.41,0,.11.16.08.21,0a3.13,3.13,0,0,1,.88-.56s-.09.63-.07.52c0,.11.16.07.21,0,.41-.26.82-.5,1.22-.79,0,0-.28.53-.4.72s.09.12.14.1l1.28-.43c.09,0,0-.05-.13-.08l-.55.35c-.15.09,0,.22.11.15Z"/><path class="cls-1" d="M34.84,84.54a5.57,5.57,0,0,0,2.53-.39c.15-.07-.08-.07-.14,0a5,5,0,0,1-2.23.32s-.28.11-.16.11Z"/><path class="cls-1" d="M36.77,84.54a6.15,6.15,0,0,0,3.52-1.3s0-.06,0-.06a6,6,0,0,0-3.72.93s-.08.08,0,.08a9.31,9.31,0,0,0,5.08-1.29s.08-.08,0-.08a8.22,8.22,0,0,0-4.4,1.11s-.08.07,0,.08c2.47.24,4.74-.88,6.8-2.2.07,0,0-.07,0-.07a1.15,1.15,0,0,0-.8.22c-.14.07,0,.09.11.06a13.58,13.58,0,0,0,3.45-2.18c.11-.08-.14,0-.19,0l-1.87,1.44c-.1.08.13.06.17,0a31.18,31.18,0,0,0,3.59-2.7c.11-.08-.14-.06-.19,0-.58.46-1.15.94-1.72,1.41s-1.66,1.27-.49.28a18.1,18.1,0,0,1-9.23,4.17c-.1,0-.21.14,0,.11Z"/><path class="cls-1" d="M48.11,79.33c1-1,2.12-1.93,3-3,.11-.12-.13-.12-.2-.06l-.88.79c-.09.07,0,.06.22,0,.44-.5.81-1.07,1.22-1.59a8.12,8.12,0,0,0,.72-1.33c.54-1-.13,0-.27.38-.06.14.18.1.23,0a7.36,7.36,0,0,0,.86-2.53c0-.12-.22-.06-.25,0s-.29,1.24-.26,1c0,.33-.09.66-.14,1-.25.43-.22.58.07.45a9.7,9.7,0,0,0,.33-1.85v.8c0,.12.25.08.25,0,0-.41-.17-1.8.23-.41a5.87,5.87,0,0,1-.24-.65c.24.33.84,1.6.41.38a.92.92,0,0,1,0-.57,3.08,3.08,0,0,1,.54,2c0,.12.25.07.25,0a3.21,3.21,0,0,0-.86-2.37c-.06,0-.24,0-.24.07a2.83,2.83,0,0,0,.52,1.83c0,.08.26,0,.23-.09a3.93,3.93,0,0,0-.85-1.63c-.06-.07-.26,0-.24.09a2.86,2.86,0,0,0,.52,1.45c.06.08.24,0,.24-.09a2.69,2.69,0,0,0-.52-1.45c0-.07-.24,0-.24.07V73.4c0,.12.25.08.25,0v-.9c0-.12-.21-.08-.24,0A13,13,0,0,0,52.13,75c0,.13.22.07.25,0a18,18,0,0,0,.51-2.51c0-.12-.21-.07-.24,0a2.83,2.83,0,0,0-.35,1.1c0,.12.22.07.25,0,.11-.36.22-.72.34-1.08-.23-.16-.32,0-.26.38a5.9,5.9,0,0,1-.43,1.22h.17c.1-.29.22-.57.34-.85,0-.13-.19-.1-.23,0-.47.83-.9,1.68-1.36,2.51-.07.12.17.09.22,0a3.11,3.11,0,0,0,.52-.74c.07-.12-.17-.1-.22,0-.65.75-1.21,1.58-1.87,2.33-.1.12.14.12.21.06.29-.28.61-.53.9-.81-.2.19-.61.45-.86.7-.69.69-1.43,1.32-2.11,2-.11.11.13.13.2.06Z"/><path class="cls-1" d="M52.72,71.33c1.62.29,2,2.67,1.45,4-.05.14.19.14.24,0,.63-1.47.13-3.92-1.61-4.22-.12,0-.24.16-.08.18Z"/><path class="cls-1" d="M53.66,73.6a2.88,2.88,0,0,1-.33,2.66c0,.06.18,0,.22,0a2.87,2.87,0,0,0,.35-2.71c0-.06-.26,0-.24.07Z"/><path class="cls-1" d="M53.32,73.59l-.51,1.61.25-.06c0-.54.14-1.07.17-1.61L53,73.6a7.2,7.2,0,0,1-.34,2l.25-.06a5.88,5.88,0,0,1,.33-2.85l-.24,0c-.15,1-.33,1.92-.51,2.87l.25-.06a3.44,3.44,0,0,1,.16-1.24c0-.05-.21,0-.24,0A10.86,10.86,0,0,0,52,76.63c0,.07.23,0,.24,0a10.94,10.94,0,0,1,.68-2.33l-.24,0a3.56,3.56,0,0,0-.17,1.26c0,.05.23,0,.24-.06.19-1,.36-1.9.51-2.86,0-.07-.22,0-.24,0a5.9,5.9,0,0,0-.34,2.88c0,.06.23,0,.24-.06a7.35,7.35,0,0,0,.35-2s-.25,0-.25.07c0,.54-.14,1.07-.17,1.61,0,.05.23,0,.24,0l.51-1.61c0-.06-.22,0-.24,0Z"/><path class="cls-1" d="M52.64,73.94a13.9,13.9,0,0,1-2.53,4.26c-.09.12.15.12.2,0a14.11,14.11,0,0,0,2.58-4.34c0-.1-.22-.06-.25,0Z"/><path class="cls-1" d="M52,75a15.18,15.18,0,0,1-4.55,5c-.15.09.06.17.16.11A15.38,15.38,0,0,0,52.2,75c.07-.12-.18-.11-.23,0Z"/><path class="cls-1" d="M49.77,77.66c-1.69,1.62-3.3,3.46-5.52,4.25-.14,0-.11.2,0,.15,2.29-.82,3.94-2.67,5.69-4.35.1-.1-.14-.12-.21,0Z"/><path class="cls-1" d="M11.89,82.93a35.36,35.36,0,0,0,5.44,2c.06,0,.28-.08.19-.11a36.73,36.73,0,0,1-5.43-2c-.06,0-.29.07-.2.11Z"/><path class="cls-1" d="M12.91,82.4c2.45,1.14,5.12,1.44,7.64,2.33.08,0,.3-.09.2-.12-2.52-.9-5.19-1.2-7.64-2.33-.08,0-.3.08-.2.12Z"/><path class="cls-1" d="M11.1,82.26c4.11.75,8.15,1.79,12.2,2.86.11,0,.29-.14.14-.18-4.06-1.07-8.13-2.12-12.26-2.87-.12,0-.25.16-.08.19Z"/><path class="cls-1" d="M18,83.67a53.77,53.77,0,0,0,9,.9c.11,0,.26-.16.09-.16a54.1,54.1,0,0,1-9-.89c-.09,0-.29.13-.15.15Z"/><path class="cls-1" d="M18.85,84.54a41.18,41.18,0,0,0,11.09,0c.06,0,.27-.12.11-.1a40.45,40.45,0,0,1-11,0c-.06,0-.27.09-.21.1Z"/><path class="cls-1" d="M22.47,85.1c3.76.28,7.47-.32,11.22-.54.08,0,.26-.15.09-.14-3.74.22-7.45.81-11.21.53-.09,0-.26.13-.1.15Z"/><path class="cls-1" d="M7.8,80.24c.32.33.7.57,1,.9,0,0,.28,0,.23-.1-.32-.33-.7-.57-1-.9-.06-.06-.29,0-.23.1Z"/><path class="cls-1" d="M9.17,81.51c2,.76,3.93,1.59,6,2.15.08,0,.29-.1.15-.14a60.66,60.66,0,0,1-5.92-2.14c-.07,0-.3.09-.2.13Z"/><path class="cls-1" d="M8.47,80.41c2.75,1.86,5.9,2.18,9,2.88.06,0,.27-.09.21-.1-3.11-.7-6.26-1-9-2.86-.06,0-.27.06-.24.08Z"/><path class="cls-1" d="M7.8,81a28.91,28.91,0,0,0,11.41,2.87c.05,0,.28-.09.16-.1A28.61,28.61,0,0,1,8,80.86c-.07,0-.26.08-.23.09Z"/><path class="cls-1" d="M13.42,82.94a15.19,15.19,0,0,0,8.41,1.8c.12,0,.2-.17,0-.15a14.86,14.86,0,0,1-8.24-1.78c-.08,0-.3.08-.2.13Z"/><path class="cls-1" d="M14,83a72.36,72.36,0,0,0,8.35,2c.12,0,.25-.15.09-.19a72,72,0,0,1-8.3-2c-.1,0-.29.13-.14.17Z"/><path class="cls-1" d="M15.51,84.41a42.8,42.8,0,0,0,11.25.18c.14,0,.19-.22,0-.2a42.27,42.27,0,0,1-11.18-.18c-.13,0-.25.17-.09.2Z"/><path class="cls-1" d="M24.89,85.48a57.45,57.45,0,0,0,9.17-.71c.14,0,.19-.23,0-.2a57.46,57.46,0,0,1-9.17.72c-.14,0-.19.19,0,.19Z"/><path class="cls-1" d="M25.85,84.39c3.62.76,7.6,1.06,11-.74.16-.08,0-.18-.1-.12-3.32,1.76-7.21,1.45-10.75.7-.08,0-.29.13-.14.16Z"/><path class="cls-1" d="M31,84.23a17.92,17.92,0,0,0,5-1.1c.16-.06,0-.2-.11-.15A17.67,17.67,0,0,1,31,84c-.14,0-.19.22,0,.2Z"/><path class="cls-1" d="M33.89,69.77a4.66,4.66,0,0,0-2,1.3c-.05.06.18,0,.23,0a4.17,4.17,0,0,1,1.77-1.2c.14,0,.12-.13,0-.08Z"/><path class="cls-1" d="M35.5,69.78,33,71.93c-.12.09.13.11.2,0l2.54-2.15c.12-.09-.13-.1-.2,0Z"/><path class="cls-1" d="M34.65,69.41a6.72,6.72,0,0,1-1.82,1.21l.16.12A12.1,12.1,0,0,0,34.18,69c.07-.12-.08-.16-.16-.12-.39.2-.8.35-1.19.54l.18.07c0-.27.3-.44.34-.72,0-.13-.23-.1-.25,0,0,.27-.3.45-.34.72,0,.1.13.09.18.07.39-.2.8-.34,1.19-.54L34,68.87a11.36,11.36,0,0,1-1.19,1.79c-.09.11.09.16.16.12a7.7,7.7,0,0,0,1.92-1.29c.11-.11-.13-.16-.21-.08Z"/><path class="cls-1" d="M34,70.2a13.15,13.15,0,0,1-.34,4.29s.23,0,.25,0a13.56,13.56,0,0,0,.34-4.31s-.25,0-.25.07Z"/><path class="cls-1" d="M32.93,72.53a13.54,13.54,0,0,1-.51,2.67l.25-.06c0-.48,0-1,0-1.44,0-.26,0-.51,0-.76s0-.51.07-.77c-.28,0-.38.1-.3.43a11.12,11.12,0,0,1-1.09,3.67l.25,0a7,7,0,0,1,0-1.83c0-.27.06-.53.11-.8l-.23,0c0,.21-.07.42-.11.63a5.66,5.66,0,0,1-1.53,3l.23,0A10.87,10.87,0,0,1,30.29,75L30,75c0,.59-.13,1.82-.86,1.65-.43-.1-1,.19-1.37.24-.1,0-.22.12,0,.1.59-.07,1.15-.36,1.77,0,.05,0,.22,0,.24-.07a9.69,9.69,0,0,0,.51-2s-.23,0-.24.06a12,12,0,0,0-.18,2.16c0,.07.22,0,.24,0a6.53,6.53,0,0,0,1.71-4c0-.08-.23,0-.25,0a10.47,10.47,0,0,0-.17,3.06c0,.07.23,0,.25-.06a12.93,12.93,0,0,0,1.19-4.47c0-.08-.24,0-.25,0a27.82,27.82,0,0,0-.17,3.41c0,.06.23,0,.25,0a13.83,13.83,0,0,0,.51-2.7s-.24,0-.25.07Z"/><path class="cls-1" d="M33.3,65.56c.11-.08.23-.19.29,0a1.3,1.3,0,0,1,0,.34c0,.12.25.07.25,0s0-.45-.13-.53-.41,0-.58.15.07.14.15.09Z"/><path class="cls-1" d="M34.71,68.7a5.22,5.22,0,0,0-2.11,1.65c-.05.07.19,0,.23,0a4.71,4.71,0,0,1,2-1.57c.16-.08,0-.11-.09-.07Z"/><path class="cls-1" d="M35,70.17a31.74,31.74,0,0,0-3.06,2c-.1.07.15,0,.19,0a29,29,0,0,1,3.06-2c.1-.06-.15,0-.19,0Z"/><path class="cls-1" d="M37.19,70.3c-2.5.31-4.48,2.16-6.45,3.64,0,0,.17,0,.22,0,1.86-1.39,3.76-3.22,6.12-3.52.06,0,.27-.12.11-.09Z"/><path class="cls-1" d="M36.94,71.34a13.74,13.74,0,0,0-6.19,4c-.1.12.13.14.2.06a13.49,13.49,0,0,1,6-3.89c.15,0,.11-.21,0-.16Z"/><path class="cls-1" d="M35,73.69l-4.07,2.69c-.15.09.06.17.16.11l4.07-2.69c.15-.09-.06-.17-.16-.11Z"/><path class="cls-1" d="M36.23,73.15a16,16,0,0,0-4.8,3.44c-.1.11.14.11.2,0a15.48,15.48,0,0,1,4.7-3.37c.16-.08,0-.18-.1-.12Z"/><path class="cls-1" d="M36.21,74.07a11.5,11.5,0,0,0-3.78,3.26c0,.09.19.06.23,0a11.2,11.2,0,0,1,3.7-3.18c.14-.1-.08-.11-.15-.07Z"/><path class="cls-1" d="M37.4,74.25a12.8,12.8,0,0,0-4.29,3.8c-.06.08.19,0,.23,0a12.44,12.44,0,0,1,4.21-3.73c.14-.08-.08-.1-.15-.06Z"/><path class="cls-1" d="M37.38,77a2.92,2.92,0,0,0-1.05,1.46c0,.06.22,0,.24,0a2.74,2.74,0,0,1,1-1.4c.1-.08-.15,0-.19,0Z"/><path class="cls-1" d="M38.88,77.71a6.11,6.11,0,0,0-1,1.79c0,.06.23,0,.24,0a6.75,6.75,0,0,1,1-1.79s-.2,0-.24,0Z"/><path class="cls-1" d="M40.09,76.77c-.65.69-1.38,1.29-2,2-.09.11.15.09.2,0,.66-.68,1.38-1.28,2-2,.1-.11-.15-.09-.2,0Z"/><path class="cls-1" d="M38.2,74.84a15.22,15.22,0,0,1-2.71,3.74c-.06.07.18,0,.23,0a15.67,15.67,0,0,0,2.72-3.78c0-.06-.2,0-.24,0Z"/><path class="cls-1" d="M37.69,74.85c-1.2,1.65-2.18,3.49-3.73,4.82,0,0,.18,0,.23,0,1.55-1.33,2.54-3.19,3.74-4.84,0,0-.2,0-.24,0Z"/><path class="cls-1" d="M35.32,75.89c-.37.56-.83,1-1.19,1.61-.07.11.18.09.23,0,.37-.56.82-1,1.19-1.61.07-.1-.18-.09-.23,0Z"/><path class="cls-1" d="M34.63,75.73a10.18,10.18,0,0,1-3,4.45c-.11.08.14.07.19,0a10.43,10.43,0,0,0,3.09-4.51c0-.07-.21,0-.25,0Z"/><path class="cls-1" d="M32.76,76.27a13.43,13.43,0,0,1-3.2,4.27c-.1.09.15,0,.19,0A14,14,0,0,0,33,76.23s-.21,0-.25,0Z"/><path class="cls-1" d="M36.16,71.79A18.28,18.28,0,0,0,36.84,77c0,.12.28,0,.25-.06a18.09,18.09,0,0,1-.68-5.17c0-.14-.25-.09-.25,0Z"/><path class="cls-1" d="M37,72.71a10,10,0,0,0,1,4.47c0,.08.28,0,.25-.07a9.8,9.8,0,0,1-1-4.47c0-.07-.25,0-.25.07Z"/><path class="cls-1" d="M38.37,74.5A6.61,6.61,0,0,0,39.23,77c.06.09.3,0,.22-.12a6.69,6.69,0,0,1-.84-2.48c0-.12-.27-.06-.24.07Z"/><path class="cls-1" d="M39.56,74.83a2.67,2.67,0,0,0,.69,1.66c.06.07.3,0,.22-.11a2.6,2.6,0,0,1-.67-1.57c0-.12-.25-.08-.24,0Z"/><path class="cls-1" d="M40.92,75.39a.62.62,0,0,0,.18.38c0,.06.28,0,.22-.1a.71.71,0,0,1-.16-.35c0-.08-.25,0-.24.07Z"/><path class="cls-1" d="M42.62,75.93c.17.34.5.55.68.89,0,.09.28,0,.24-.06-.18-.35-.5-.56-.68-.9,0-.09-.28,0-.24.07Z"/><path class="cls-1" d="M32.7,65.23a2.64,2.64,0,0,0,1.08-.38c.16-.08,0-.17-.09-.12a2.14,2.14,0,0,1-1,.34c-.13,0-.2.17,0,.16Z"/><path class="cls-1" d="M30,73.42a4.87,4.87,0,0,1-.5,3s.2,0,.24,0a4.9,4.9,0,0,0,.51-3.06c0-.06-.26,0-.25.07Z"/><path class="cls-1" d="M28.69,75.16c-.16.53-.18,1.09-.34,1.61,0,.15.2.15.24,0,.15-.53.18-1.09.34-1.62,0-.14-.21-.14-.24,0Z"/><path class="cls-1" d="M27.52,76.05c-.17.21-.17.51-.34.71s.14.13.2.06.17-.51.34-.72-.14-.13-.2,0Z"/><path class="cls-1" d="M26.31,76.81c-.16.31-.36.59-.51.9,0,0,.21,0,.24,0,.15-.31.36-.58.51-.89,0,0-.21,0-.24,0Z"/><path class="cls-1" d="M24.8,77.3a3.35,3.35,0,0,1-.8.5c-.15.08,0,.19.1.13a4,4,0,0,0,.9-.57c.11-.11-.13-.13-.2-.06Z"/><path class="cls-1" d="M31.75,75.47a2.12,2.12,0,0,0-.81.4c-.14.08.08.09.15,0s.38-.31.56-.32.26-.14.1-.13Z"/><path class="cls-1" d="M32,76.72a20.88,20.88,0,0,0-6.33,4c-.11.1.13.13.2.06a20.73,20.73,0,0,1,6.24-3.9c.16-.07,0-.19-.11-.14Z"/><path class="cls-1" d="M34.88,76.58a48.94,48.94,0,0,0-8.54,4.33c-.11.06.14,0,.18,0A49.61,49.61,0,0,1,35,76.64c.16-.06,0-.09-.09-.06Z"/><path class="cls-1" d="M36.1,77.29a24.75,24.75,0,0,0-8.93,4.17c-.05,0,.17,0,.22,0a24.22,24.22,0,0,1,8.73-4.07c.15,0,.13-.1,0-.07Z"/><path class="cls-1" d="M32.64,80.34c-1.34.69-2.73,1.27-4.08,2-.14.07.08.1.15.06,1.35-.69,2.74-1.27,4.08-2,.15-.07-.08-.1-.15-.06Z"/><path class="cls-1" d="M33.86,80.85l-2,1.08c-.16.08,0,.17.1.11L34,81c.16-.08,0-.17-.09-.11Z"/><path class="cls-1" d="M35.25,81.2a11,11,0,0,0-5.35,3.09c-.1.11.14.1.2,0a10.68,10.68,0,0,1,5.18-3c.15,0,.12-.17,0-.13Z"/><path class="cls-1" d="M31.6,66.63c.9.19,1.81.35,2.71.54.06,0,.27-.08.21-.1-.91-.18-1.82-.34-2.72-.53-.06,0-.27.08-.2.09Z"/><path class="cls-1" d="M33,64.34c.33.16.69.2,1,.36.1,0,.29-.1.15-.17-.33-.16-.69-.2-1-.36-.1,0-.29.1-.15.17Z"/><path class="cls-1" d="M23.42,14.68c-1,2.41-1.87,4.9-2.84,7.33a23.53,23.53,0,0,0,1.21-7c0-.09-.22,0-.24,0-1,2.86-1.55,5.86-2.68,8.67,1.05-2.61,1.43-5.93,1.91-8.71,0-.08-.23,0-.25,0-1.08,3.86-1.85,7.8-3.36,11.51a48.46,48.46,0,0,0,3.27-10.83c0-.1-.22,0-.25,0-2.43,4.46-3.2,9.56-4.93,14.32,0,.07.22,0,.25,0a48.72,48.72,0,0,0,3.91-13.79c0-.09-.22,0-.25,0-2.48,5-3.7,10.54-5.27,15.94,0,.08.22,0,.25,0C16,27.73,17.89,23.3,18.4,18.4c0-.09-.22,0-.25,0-2,3.72-2.84,7.91-4.41,11.82,0,.06.21,0,.24,0,1.13-2.8,1.9-5.72,2.92-8.56.25-.67,1.41-4,1-1.31A31.82,31.82,0,0,1,16.4,26c-.52,1.53-1.15,3-1.76,4.51-.68,1.65-.19.66,0-.07.26-.9.5-1.81.74-2.71a76.88,76.88,0,0,1,3.22-9.76c1-2.32.09,1.66,0,2.16A43.94,43.94,0,0,1,17,25.63c-.37,1.05-1,2.95-1.19,3.58.61-1.68,1-3.43,1.52-5.16.4-1.44.82-2.87,1.29-4.28.21-.62,1.79-5,1.25-2.17-.64,3.37-2,6.56-3.08,9.79,0,.08.22,0,.25,0a56.89,56.89,0,0,0,3-9.68c0,.11.43-2.4.31-1.68-.16,1-.38,1.9-.58,2.85-.42,1.9-.89,3.78-1.3,5.68,0,.09.22,0,.25,0a52,52,0,0,0,2.49-7.76c.64-2.25.09.87,0,1.31a26.26,26.26,0,0,1-1.08,4.88c0,.07.22,0,.25,0,1.15-2.71,2.07-5.53,3.22-8.24,0-.06-.21,0-.24,0Z"/><path class="cls-1" d="M21.21,19a35.36,35.36,0,0,0-2.72,3.94s.21,0,.25,0a33.53,33.53,0,0,1,2.71-3.94s-.19,0-.24,0Z"/><path class="cls-1" d="M21.59,21.24c-1.12.85-2.18,1.77-3.25,2.7-.11.1.14.12.2.06,1.05-.92,2.1-1.83,3.21-2.67.14-.1-.07-.15-.16-.09Z"/><path class="cls-1" d="M22.28,22a17.24,17.24,0,0,0-4.46,4.15c-.07.09.18.07.23,0A17,17,0,0,1,22.43,22c.14-.09-.08-.12-.15-.07Z"/><path class="cls-1" d="M23,22.47a14.87,14.87,0,0,0-5.83,5.58c-.08.14.15.18.21.08a14.58,14.58,0,0,1,5.73-5.51c.15-.08,0-.21-.11-.15Z"/><path class="cls-1" d="M22.43,24.15a16.06,16.06,0,0,0-4.79,4.68s.21,0,.25,0a15.7,15.7,0,0,1,4.73-4.63c.1-.06-.15,0-.19,0Z"/><path class="cls-1" d="M20.72,27a21.34,21.34,0,0,0-1.87,2.15c-.09.13.14.16.21.07a21.18,21.18,0,0,1,1.87-2.15c.1-.11-.13-.15-.21-.07Z"/><path class="cls-1" d="M16.62,27.57a39,39,0,0,0-2.21,5.73c0,.08.22,0,.25,0A32.91,32.91,0,0,0,16,28.43c0-.09-.22,0-.25,0-.85,2.44-1.82,4.84-2.54,7.34,0,.09.2,0,.23,0a12.14,12.14,0,0,0,1.88-5.93c0-.09-.21,0-.24,0a44.63,44.63,0,0,0-2.55,7c0,.08.21,0,.24,0a16.61,16.61,0,0,0,1.7-6.65c0-.07-.22,0-.25.06-1,2.63-1.59,5.4-2.54,8.05,0,.08.21,0,.24,0a26.78,26.78,0,0,0,1.7-5.55c0-.09-.22,0-.24,0-.85,3.06-1.61,6.15-2.72,9.13,0,.07.21,0,.24,0,.79-2.09,1.4-4.23,2-6.39.12-.43.64-3.26.16-1.14a24,24,0,0,1-1,3.21c.68-1.76,1.26-3.72,1.83-5.6.72-2.32,0,1.28-.09,1.7-.14.59-.68,2.31-.72,2.42.28-.8.51-1.63.75-2.44a22.42,22.42,0,0,0,1.2-3,15.48,15.48,0,0,1-.71,3.17c-.68,2.11-.25,0,0-.82s.67-1.82,1-2.73c.87-2.33-.15.61-.27,1.09-.64,2.42.18-.06.39-.62.39-1.1.9-2.16,1.39-3.22,0-.06-.21,0-.25,0Z"/><path class="cls-1" d="M14.58,32.42c.17.52.35,1.07.88,1.28.07,0,.29-.08.19-.12-.5-.2-.66-.73-.82-1.23,0-.08-.27,0-.25.07Z"/><path class="cls-1" d="M15.78,30.83l.51,1.08c.05.1.29,0,.23-.12L16,30.72c-.05-.11-.28,0-.23.11Z"/><path class="cls-1" d="M15.6,29.56a3.42,3.42,0,0,0,1.73,2c.06,0,.28-.07.19-.11a3.31,3.31,0,0,1-1.67-2c0-.08-.27,0-.25.07Z"/><path class="cls-1" d="M19.05,26.82A12.51,12.51,0,0,0,16,29c0,.05.19,0,.23,0a12.1,12.1,0,0,1,3-2.13c.15-.07-.08-.06-.14,0Z"/><path class="cls-1" d="M20.26,27.3a9.49,9.49,0,0,0-4.47,3.26c-.09.13.14.17.21.08a9.32,9.32,0,0,1,4.37-3.19c.16-.06,0-.21-.11-.15Z"/><path class="cls-1" d="M20.06,28.4a38.16,38.16,0,0,0-4.94,4.14c-.11.11.13.13.2.06a37.49,37.49,0,0,1,4.9-4.1c.14-.1-.07-.16-.16-.1Z"/><path class="cls-1" d="M18.69,30.24A17.55,17.55,0,0,0,14.43,34c0,.06.18,0,.22,0a17.54,17.54,0,0,1,4.23-3.75c.1-.06-.15,0-.19,0Z"/><path class="cls-1" d="M18,31.84a16.92,16.92,0,0,0-4.09,3.6c-.06.07.18,0,.22,0a16.8,16.8,0,0,1,4.06-3.56c.1-.08-.14-.05-.19,0Z"/><path class="cls-1" d="M17.31,33.48c-1.37,1-3.12,2-3.74,3.77,0,0,.22,0,.24,0,.62-1.74,2.36-2.73,3.73-3.75,0,0-.18,0-.23,0Z"/><path class="cls-1" d="M16.66,35.19c-1.24.93-2.81,2-3.26,3.63,0,.14.2.15.24,0,.44-1.6,2-2.62,3.19-3.53.13-.11-.06-.21-.17-.13Z"/><path class="cls-1" d="M15.48,37.72a7.19,7.19,0,0,0-2.25,2.37c-.06.1.19.07.23,0a6.9,6.9,0,0,1,2.17-2.29c.14-.1-.07-.13-.15-.08Z"/><path class="cls-1" d="M14.43,40a8.92,8.92,0,0,0-1.37,2.18c-.07.13.18.14.24,0a8.64,8.64,0,0,1,1.34-2.12c.11-.12-.13-.18-.21-.09Z"/><path class="cls-1" d="M24.3,76.25a2.81,2.81,0,0,0-.74.9c-.35.53-.67,1.08-1,1.63,0,0,.21,0,.24,0,.27-.47.55-.94.84-1.4a3.43,3.43,0,0,1,.83-1.08c.1-.06-.14,0-.18,0Z"/><path class="cls-1" d="M22.25,76.41l-.51.54c-.1.11.14.1.2,0l.51-.54c.1-.1-.14-.1-.2,0Z"/><path class="cls-1" d="M21.39,76.6a3.72,3.72,0,0,1-1.64,1.55c-.15.08,0,.21.11.15a4,4,0,0,0,1.76-1.68c.06-.12-.19-.12-.23,0Z"/><path class="cls-1" d="M19.86,76.78A5,5,0,0,1,18.37,78c-.14.1.06.16.15.1a5.29,5.29,0,0,0,1.57-1.29c.07-.11-.18-.1-.23,0Z"/><path class="cls-1" d="M15.94,77c.15.35.19.73.34,1.08,0,.07.27,0,.25-.07-.15-.35-.19-.73-.34-1.07,0-.07-.27,0-.25.06Z"/><path class="cls-1" d="M17.13,77a3.78,3.78,0,0,0,.52,1.09c.05.06.28,0,.23-.09a3.44,3.44,0,0,1-.5-1.06c0-.08-.27,0-.25.06Z"/><path class="cls-1" d="M18.32,76.65a2.22,2.22,0,0,0,.52,1.44c.05.06.28,0,.23-.09a2.14,2.14,0,0,1-.5-1.42c0-.07-.25,0-.25.07Z"/><path class="cls-1" d="M19.34,76.8a1.91,1.91,0,0,0,.35,1.12c.08.09.31,0,.23-.11a1.71,1.71,0,0,1-.33-1c0-.14-.25-.09-.25,0Z"/><path class="cls-1" d="M20.36,77A6.78,6.78,0,0,0,21,78.44c0,.06.26,0,.25-.07a6,6,0,0,1-.68-1.43c0-.06-.26,0-.25.06Z"/><path class="cls-1" d="M21.21,76.47a2.89,2.89,0,0,0,1.75,2c.08,0,.29-.12.15-.15-.88-.22-1.34-1.12-1.65-1.93,0-.1-.28,0-.25.07Z"/><path class="cls-1" d="M22.76,76.32A9.58,9.58,0,0,0,24,77c.08,0,.3-.09.2-.12A9.66,9.66,0,0,1,23,76.19c-.07,0-.3.07-.2.13Z"/><path class="cls-1" d="M23.76,75.57a2.66,2.66,0,0,0,2.08,1.09c.05,0,.28-.1.16-.1a2.6,2.6,0,0,1-2-1.06c0-.06-.26,0-.24.07Z"/><path class="cls-1" d="M25,74.9c.3,0,.56.17.85.18.1,0,.26-.15.1-.16s-.56-.17-.85-.18c-.1,0-.26.15-.1.16Z"/><path class="cls-1" d="M25.82,74.35a3.53,3.53,0,0,0,1.92.54c.09,0,.26-.14.1-.14A3.28,3.28,0,0,1,26,74.22c-.07,0-.3.06-.2.13Z"/><path class="cls-1" d="M26.67,73.44a3.43,3.43,0,0,0,2.72,0c.15-.08-.08-.07-.14,0a3,3,0,0,1-2.38,0c-.06,0-.28.07-.2.1Z"/><path class="cls-1" d="M27.69,72.18A2.88,2.88,0,0,0,29.92,72c.1-.07-.14,0-.19,0a2.44,2.44,0,0,1-1.84.13c-.05,0-.27.08-.2.09Z"/><path class="cls-1" d="M29,70.45c.29,0,.56-.17.85-.18s.18-.21,0-.2-.56.16-.85.17-.19.21,0,.21Z"/><path class="cls-1" d="M29.61,69.16h.68c.08,0,.26-.14.1-.14h-.68c-.09,0-.27.14-.1.14Z"/><path class="cls-1" d="M29.9,67.72a2.56,2.56,0,0,0,1.64,0c.15,0,.12-.17,0-.12a2.27,2.27,0,0,1-1.41,0c-.08,0-.3.09-.2.12Z"/><path class="cls-1" d="M30.8,66.12h.68c.08,0,.26-.14.1-.14H30.9c-.09,0-.27.14-.1.14Z"/><path class="cls-1" d="M32,62.7h.34c.05,0,.28-.11.16-.11h-.34s-.28.11-.16.11Z"/><path class="cls-1" d="M33.17,49.68c-.41.22-.78.5-1.19.72-.15.08,0,.21.11.15.41-.22.78-.5,1.19-.72.15-.08,0-.22-.11-.15Z"/><path class="cls-1" d="M33.15,52.76a5.14,5.14,0,0,0-1.57,1.29c-.07.1.18.08.23,0a5.15,5.15,0,0,1,1.49-1.22c.14-.09-.07-.14-.15-.08Z"/><path class="cls-1" d="M27.67,5.39c.39,2,.51,3.94.85,5.91,0,.12.23,0,.24-.05a20.55,20.55,0,0,0-.21-5.59c-.29-2.24.29,1.61.35,2,.18,1.27.3,2.55.46,3.83,0,.13.23,0,.25-.05a11.92,11.92,0,0,0,.3-3.72c-.05-.51-.78-4.34-.44-2.33.43,2.48.39,5,1.42,7.35.05.11.23.07.25-.05a19.11,19.11,0,0,0-.68-8.62c0-.12-.26,0-.25.07a75.62,75.62,0,0,0,1.87,10.39c0,.11.24.06.25,0A27.54,27.54,0,0,0,30.8,4.06c0-.12-.27,0-.25.07A64.74,64.74,0,0,0,33.1,14c0,.1.26.07.25,0a19.25,19.25,0,0,0-.49-3.45c-.14-.58-.3-1.15-.47-1.72,0-.07-.87-2.1-.7-1.54,1,3.4,1.53,6.94,2.6,10.33,0,.13.27.06.25-.07-.37-2.58-.86-5.12-1.47-7.65-.21-.86-.87-2.34-1-2.8.41,1.24.7,2.52,1,3.8s.54,2.58.82,3.88c.52,2.5.12-.47,0-1.07A59.93,59.93,0,0,0,31.48,5c-.05-.12-.28,0-.25.07.74,2.43,1.46,4.86,2.12,7.31.33,1.24.63,2.49.91,3.74-.09-.4-.44-2-.65-2.72-.12-.42-1-3.11-.14-1,.47,1.12.88,2.27,1.28,3.42a63.44,63.44,0,0,1,1.92,6.93c0,.13.27.06.25-.06a64.75,64.75,0,0,0-3.91-12c0-.12-.27-.06-.25.07A47.79,47.79,0,0,0,34.46,17c0,.13.27.06.25-.06-.8-3.76-1.85-7.43-3-11.09,1,3.25,1.66,7.27,2.54,10.8,0,.12.28,0,.25-.07C33.73,13.06,33.13,9.48,32,6c0-.12-.28,0-.25.07a75.64,75.64,0,0,1,2.42,10.52A84.53,84.53,0,0,0,31.65,6.21c0-.12-.28,0-.25.07.56,2,1.2,4,1.57,6s-.43-.73-.49-.94c-.37-1.18-.64-2.39-.91-3.59-.21-.92-.4-1.85-.58-2.77,0,.06.35,1.88.49,2.47.21.89.35,1.8.48,2.71s0,3,.11,3.39a45.23,45.23,0,0,1-1.21-6.65c-.09-.6-.33-1.56-.44-2a29.07,29.07,0,0,1,.64,3.45,14.3,14.3,0,0,1,0,3.52c-.06.55-.7-1.73-.74-1.93-.4-2-.44-4.06-.88-6.06,0-.13-.26-.06-.25.06.14,1,.27,1.91.39,2.87.09.8-.15,3.16-.09,3.64a50,50,0,0,0-1.07-6.57c0-.12-.25-.07-.25,0,.09,2.14.54,4.24.47,6.4a35.52,35.52,0,0,0-.73-5c0-.13-.27-.06-.24.07Z"/><path class="cls-1" d="M29,7.54c0,.16.43,1.76.06.91S28.52,7,28.25,6.21c0-.07-.25,0-.24.07a103.58,103.58,0,0,0,1.35,12.18c0,.07.26,0,.25-.07-.31-2.33-.68-4.64-1-7-.15-1.16-.25-2.33-.33-3.5-.15-2.31.66.86.89,1.41,0,.07.26,0,.25-.07-.05-.6-.13-1.19-.17-1.79,0-.07-.25,0-.24.07Z"/><path class="cls-1" d="M28.54,5.22a1.35,1.35,0,0,0,.82,0s.13-.07,0-.08C29,5.11,28.64,5,28.26,5l-.44,0c-.08,0-.15-.63-.18-.72-.09-.3,1.11-.41,1.28-.43s.9-.14.95.15c0,0,.26,0,.25-.06-.12-.64-2.39.07-2.71.18,0,0-.1,0-.08.06a2.32,2.32,0,0,1,.17.9h0a10.23,10.23,0,0,1,1.24.14l.37,0c-.14,0-.27-.07-.41-.09s-.26.08-.2.09Z"/><path class="cls-1" d="M30.26,4.79A10.65,10.65,0,0,0,27,7.51c-.06.07.18,0,.22,0a10.4,10.4,0,0,1,3.19-2.65c.14-.08-.08-.08-.15,0Z"/><path class="cls-1" d="M29.41,7.11a15.42,15.42,0,0,0-2.23,1.44c-.11.09.14.09.2,0a15.36,15.36,0,0,1,2.18-1.42c.15-.08-.07-.12-.15-.07Z"/><path class="cls-1" d="M29.94,7.79a9.17,9.17,0,0,0-3.27,2.54c-.1.12.13.16.2.07a9.07,9.07,0,0,1,3.18-2.47c.16-.07,0-.2-.11-.14Z"/><path class="cls-1" d="M30.63,8.34a9.66,9.66,0,0,0-3.47,2.92c-.06.09.18.08.23,0a9.26,9.26,0,0,1,3.34-2.82c.15-.08,0-.17-.1-.11Z"/><path class="cls-1" d="M30.45,9.75a8.09,8.09,0,0,0-2.93,2.37c-.1.13.13.16.2.07A7.87,7.87,0,0,1,30.56,9.9c.16-.07,0-.21-.11-.15Z"/><path class="cls-1" d="M30.42,10.84a28.58,28.58,0,0,0-3.25,2.89c-.1.11.13.16.21.08A28,28,0,0,1,30.59,11c.13-.1-.06-.19-.17-.12Z"/><path class="cls-1" d="M30.09,12.1a21.28,21.28,0,0,0-3.42,3.42c-.1.13.13.16.2.07a21.19,21.19,0,0,1,3.38-3.38c.13-.1-.07-.19-.16-.11Z"/><path class="cls-1" d="M30.92,12.69A11.49,11.49,0,0,0,27,16.48s.21,0,.24-.05a11.38,11.38,0,0,1,3.88-3.74c.1-.06-.15,0-.19,0Z"/><path class="cls-1" d="M30.24,14.09A21.12,21.12,0,0,0,27,17.52c-.07.1.18.1.24,0a20.17,20.17,0,0,1,3.21-3.38c.11-.1-.13-.13-.2-.07Z"/><path class="cls-1" d="M30.26,15.14a17.19,17.19,0,0,0-3.44,3.63c-.07.12.18.12.24,0a16.38,16.38,0,0,1,3.36-3.54c.13-.12-.07-.2-.16-.12Z"/><path class="cls-1" d="M32,16.2a12.08,12.08,0,0,0-4.82,4.72c-.07.12.18.12.24,0a11.76,11.76,0,0,1,4.69-4.59c.15-.08,0-.21-.11-.15Z"/><path class="cls-1" d="M30.06,19.1c-.54.56-1.15,1-1.7,1.61-.1.12.13.16.21.08.54-.56,1.16-1.05,1.7-1.61.11-.12-.13-.16-.21-.08Z"/><path class="cls-1" d="M31.57,13.06a24.34,24.34,0,0,1-2.2,9.64c-.06.14.19.14.24,0A24.59,24.59,0,0,0,31.82,13c0-.14-.25-.1-.25,0Z"/><path class="cls-1" d="M30.63,13.57c.12-.66.18-2.46-.16-.59-.19,1-.44,2-.7,3-.5,2-1.09,3.9-1.6,5.86,0,.1.23.06.25,0,.89-3.46,2-6.84,2.55-10.39,0-.1-.23-.05-.25,0-.12.71-.21,1.43-.34,2.14,0,.11.23.06.25,0Z"/><path class="cls-1" d="M29.71,18.66c.66.87,1.22,1.81,1.87,2.68.07.09.3,0,.23-.11-.65-.87-1.22-1.81-1.87-2.68-.06-.09-.3,0-.23.11Z"/><path class="cls-1" d="M31.23,18.61a2.44,2.44,0,0,0,.88,1.86c.1.05.31-.08.19-.15a2.28,2.28,0,0,1-.82-1.73c0-.14-.25-.1-.25,0Z"/><path class="cls-1" d="M30.72,15.23c.52,1.81,1.13,3.59,1.7,5.38,0,.06.26,0,.25-.07-.43-2.08-.76-4.18-1.06-6.29a35.65,35.65,0,0,0,1.83,6.18c0,.06.26,0,.25-.07-.2-1.06-.39-2.12-.58-3.18-.15-.78-.77-2.63-.18-.51.26.93.58,2,.86,2.81a17.34,17.34,0,0,1-.64-3.11c-.06-.46-.5-2.8.18-.86.36,1,.64,2.11.93,3.17a43.86,43.86,0,0,0,2.41,7.12c0,.06.27,0,.25-.07C35.15,22,34.51,17.79,33,13.91c0-.06-.25,0-.25.07a20.18,20.18,0,0,0,1,6.27c0,.06.26,0,.25-.07-.37-1.82-.86-3.59-1.36-5.37,0-.06-.26,0-.25.07.27,1.43.66,3.74,1,4.6-.7-2-1.2-4.09-1.9-6.11,0,0-.26,0-.25.07A41.23,41.23,0,0,0,32.49,20c-.51-1.6-1.06-3.19-1.52-4.8,0-.07-.26,0-.25.06Z"/><path class="cls-1" d="M30.07,12.22a9.25,9.25,0,0,0,1.21.53c.26,0-1.88,2.07-2.06,2.25s.06.1.11.09a9.31,9.31,0,0,0,2.43-.93,11.06,11.06,0,0,0-2.54,2.09c-.08.09.06.1.11.09a8,8,0,0,0,3.48-1.66c.12-.09-.12-.08-.17-.06A9.93,9.93,0,0,0,29,17.7c0,.07.06.08.1.08a9.75,9.75,0,0,0,4.53-2.2c.11-.09-.09-.1-.14-.07a15.31,15.31,0,0,0-4.47,3.25c-.08.08.06.1.11.09A21.55,21.55,0,0,0,34,16.67c.13-.08,0-.13-.12-.09a18.73,18.73,0,0,0-4.81,3.61c-.08.09.06.1.11.09a12.68,12.68,0,0,0,5-2.73c.12-.1-.12-.09-.17-.06a14.47,14.47,0,0,0-5.48,5.23c-.05.09.13.07.17.05a20,20,0,0,0,5-3.07c.11-.09-.09-.1-.14-.08a14.06,14.06,0,0,0-5.17,4.71c-.07.1.16.06.19,0a23.24,23.24,0,0,0,4.1-2.7c.11-.09-.12-.1-.17-.06a9.8,9.8,0,0,0-3.44,4c0,.08.14,0,.17,0,1.61-.76,1.83-.89.68.84a0,0,0,0,0,0,.06c1.06.47.38,1.66,0,2.44-.05.11.19.08.23,0a6.34,6.34,0,0,0,.69-2.17s0,0,0-.05c-.88-.56,0-1.71.51-2.24.09-.11-.13-.09-.18-.06-1.22,1.16-1.62,1.11-1.19-.13-.42.69,2.15-2.38,1.27-1.72a21.72,21.72,0,0,1-2.11,1.3c-.49.28,2.19-2.76,1.43-2,.17-.18,2.54-1.94,1.7-1.31a18,18,0,0,1-2.88,1.68c-1,.49,2-2.91,1.17-2a16,16,0,0,1,2.4-2c1.69-1.24-.63.47-.88.63,0,0-3.36,1.77-1.56.09a14.74,14.74,0,0,1,2.59-2l-1.57.82a2.56,2.56,0,0,1-1.7.41,14.72,14.72,0,0,1,2.45-1.94c-1.06.7-3.27,1-.82-.8S29,16.75,30,15.69a12.22,12.22,0,0,1,2.66-1.89c.14-.07,0-.12-.12-.09l-.79.4a1.7,1.7,0,0,1-1.63.29c.63-.61,1.37-1.13,2.05-1.69.06,0,0-.09-.05-.09a4.89,4.89,0,0,1-1.82-.53c-.07,0-.29.08-.19.13Z"/><path class="cls-1" d="M34.63,19.17a36.42,36.42,0,0,1,.68,3.58c0,.13.26.06.25-.06-.19-1.66-.5-3.29-.74-4.93.15,1,1,2.94,1.29,4.27.09.34,1,4,.22,1.85a27.66,27.66,0,0,1-1.27-5c-.22-1.06-.14-1.07.23,0a24.43,24.43,0,0,1,.79,2.42c.13.47,1.36,4.84.57,2.48-.14-.41-1.21-4.93-.39-2.63a29.18,29.18,0,0,1,1.14,5.08c-.15-.95-.53-2.3-.71-3.42l.37-.08c.19.55.36,1.11.5,1.68.24.85.44,1.71.69,2.56-.17-.6-.69-2.33-1-3.32-.16-.51-1.48-5.07-.65-2.55.41,1.22.84,2.67,1.23,3.73-.59-1.61-1.3-3.16-1.94-4.74a30.49,30.49,0,0,1-1.57-4.85c.44,1.9,1.45,3.6,1.83,5.56,0,.13.27.06.25-.06a24.27,24.27,0,0,0-2.22-6.29c0-.1-.26,0-.24.09.68,3.92,2.57,7.41,3.91,11.1,0,.11.28.05.25-.07-.63-2.1-1.08-4.23-1.87-6.27-.05-.11-.27-.05-.25.07a36.58,36.58,0,0,0,2.55,8.42c.05.11.29.05.24-.07-.78-2.22-1.12-4.56-2.21-6.65,0-.08-.25,0-.24.07a19.37,19.37,0,0,0,1.19,5.93c0,.12.26.06.25-.07a31.74,31.74,0,0,0-1.87-7.52c0-.11-.26-.05-.25.07A19.57,19.57,0,0,0,37,25.44c.05.11.27.06.25-.07a33.89,33.89,0,0,0-2.39-8.08c0-.1-.25,0-.24.09a27.53,27.53,0,0,0,2,8.06c0,.12.26.06.25-.07a33.82,33.82,0,0,0-2.21-8.59c-.05-.12-.26-.06-.25.07.15,1.32.37,2.62.59,3.93.46,2.71,0-1-.17-1.68,0-.12-.28-.05-.25.07Z"/><path class="cls-1" d="M32.28,20.37a12.46,12.46,0,0,0-2.06,2.17c-.06.09.19.06.23,0a12.37,12.37,0,0,1,2-2.13c.11-.09-.13-.08-.19,0Z"/><path class="cls-1" d="M32.79,22c-.38.39-.82.69-1.19,1.08-.1.1.14.09.19,0,.38-.39.82-.69,1.19-1.08.11-.1-.14-.09-.19,0Z"/><path class="cls-1" d="M33.32,22.67A31.82,31.82,0,0,0,30.75,25c-.11.11.13.12.2.06a30.51,30.51,0,0,1,2.52-2.31c.13-.11-.07-.17-.15-.1Z"/><path class="cls-1" d="M35.89,22.13a14.91,14.91,0,0,0-5.65,4.5c-.1.12.14.12.2.05A14.71,14.71,0,0,1,36,22.24c.16-.06,0-.16-.1-.11Z"/><path class="cls-1" d="M35.69,23.38c-1.76,1.6-4.08,2.69-5.3,4.88-.07.12.18.12.23,0,1.2-2.14,3.5-3.22,5.24-4.8.12-.11-.07-.2-.17-.11Z"/><path class="cls-1" d="M32.8,27.14a22.75,22.75,0,0,0-2.06,2c-.1.12.14.14.21.07a19.57,19.57,0,0,1,2-1.95c.13-.11-.07-.18-.17-.11Z"/><path class="cls-1" d="M32.47,28.43a4.41,4.41,0,0,0-2.42,2.72c0,.08.23,0,.24,0a4.3,4.3,0,0,1,2.33-2.64c.14-.08-.08-.08-.15,0Z"/><path class="cls-1" d="M31.45,30.54a4.39,4.39,0,0,0-1.4,1.65c-.06.13.19.13.23,0a4.32,4.32,0,0,1,1.33-1.57c.14-.1-.07-.18-.16-.11Z"/><path class="cls-1" d="M30.73,33.1l-.51,1.07c-.06.12.19.1.23,0L31,33.11c.06-.12-.19-.1-.23,0Z"/><path class="cls-1" d="M35.48,20.77a10,10,0,0,1-.38,1.32c-.43,1.18-.51.15-.51-.48,0-1.26.19-2.5.12-3.76,0-.06-.24,0-.25.06A45.3,45.3,0,0,1,33,24.75c.64-1.78.57-4.23.72-6.18,0-.05-.23,0-.25.05-.28,1.54-.66,3.06-1,4.57-.34,1.31.08.19.16-.33s.19-1.3.29-1.95c0-.08-.22,0-.25,0-.66,1.56-1.32,3.12-2,4.66,0,.05.22,0,.25-.05.55-1.18,1.07-2.38,1.58-3.58s.06-.05,0,.42l-.3,2c0,.08.23,0,.25,0,.25-.95.5-1.91.74-2.86l.27-1.14.12-.57c.28-.49.25-.67-.06-.52-.15,2-.33,4-.64,6,0,.08.22,0,.25,0a26,26,0,0,0,1.4-5.74c0-.12.07-1.22.08-1a12.37,12.37,0,0,1-.05,1.61,15.07,15.07,0,0,0,0,3.22c0,.07.21,0,.24,0a7.75,7.75,0,0,0,1-2.52c0-.07-.23,0-.25,0Z"/><path class="cls-1" d="M35.41,23.17a4,4,0,0,0-2.47,2c-.06.09.09.12.14.11.5-.15,1-.21,1.53-.36l-.14-.11A11.19,11.19,0,0,1,33.62,27c-.07.12.14.13.2.08.32-.32.69-.58,1-.9l-.21-.05a5.18,5.18,0,0,1-.16,1.41c0,.14.2.14.23,0a5.13,5.13,0,0,0,.18-1.46c0-.1-.15-.11-.21-.05-.33.32-.69.58-1,.9l.2.07a10,10,0,0,0,.85-2.15c0-.09-.07-.12-.14-.1-.5.14-1,.21-1.53.36l.14.1a3.73,3.73,0,0,1,2.29-1.89c.15,0,.1-.22-.05-.18Z"/><path class="cls-1" d="M35.14,24.19a6.29,6.29,0,0,1,.34,2.31l.25-.06a8.53,8.53,0,0,1,.17-2l-.25.05c.34.94.51,1.93.85,2.87,0,.07.27,0,.25-.07-.34-.94-.51-1.93-.85-2.86,0-.08-.23,0-.25.05a9.41,9.41,0,0,0-.17,2c0,.07.24,0,.25-.05a6.68,6.68,0,0,0-.34-2.34c0-.07-.26,0-.25.07Z"/><path class="cls-1" d="M40.86,82.79a9.66,9.66,0,0,0,5.19-2.18c.1-.09,0-.17-.11-.15a16.48,16.48,0,0,0-6.17,2.36c-.12.08,0,.16.1.14a20.27,20.27,0,0,0,6.49-2.87c.15-.09,0-.21-.11-.15A55.7,55.7,0,0,0,41,82.8c-.12.08-.06.21.07.16a27.91,27.91,0,0,0,7-4c.12-.09,0-.19-.14-.14-.79.46-1.54,1.13-2.19,1.58,1.29-.88,2.47-1.9,3.69-2.88.13-.1-.07-.19-.17-.11a42.16,42.16,0,0,1-4.22,3.2c-.14.09,0,.22.11.15.82-.46,1.51-1,2.28-1.58-1.2.84-2.42,1.64-3.68,2.36-.37.2-.74.4-1.12.57-.19.1-1.86,1-.42.11,1.14-.68,2.33-1.28,3.51-1.87l-2.65,1.32a15,15,0,0,1-2.6,1,12.64,12.64,0,0,0,1.34-.79,18.44,18.44,0,0,1,3.68-1.14c-.34.08-1.19.86-1.67,1.1a9.26,9.26,0,0,1-3,.78c-.13,0-.19.2,0,.18Z"/><path class="cls-1" d="M38.91,77.19c.69-.42,1.39-.82,2.11-1.19.91-.32.91-.22,0,.29S39.27,77.4,38.41,78c-.11.08,0,.14.1.11a13.08,13.08,0,0,0,2.14-.78c.45-.2,3.12-1.83,1.19-.63s-4.18,2.38-6.14,3.81c-.11.07,0,.14.09.11a29.37,29.37,0,0,0,3-1.26c.72-.35,1.44-.72,2.15-1.09.11,0,1.92-.63,1.63-.42-2.4,1.8-5.38,2.68-8,4.07-.12.07-.05.18.07.13,1.43-.52,2.82-1.1,4.2-1.72s3.2-1,4.29-1.88c-2.8,2.14-6.29,3.21-9.41,4.73-.13.06,0,.16.07.13a57.56,57.56,0,0,0,11.59-4.85c.15-.08,0-.16-.1-.12-3.25,1.28-6.71,2.11-9.54,4.31-.07.06-.06.12,0,.13,3.19.37,6.05-1.78,8.76-3.24.12-.07,0-.18-.07-.14-2.79,1-5.63,1.8-8,3.61-.09.07,0,.13.06.12,3.42-.36,6.44-2.2,9.27-4.15.11-.07,0-.14-.1-.11-1.92.62-4,1.28-5.35,2.91-.06.07,0,.11.09.1a5.48,5.48,0,0,0,1.93-.55c.16-.08,0-.18-.1-.12-3,1.43.51-1.07,1.2-1.38s1.15-.46,1.73-.65a9.89,9.89,0,0,0-1.47,1,27.07,27.07,0,0,1-3.57,1.89,12.15,12.15,0,0,1-2.89.85c-.76.15,2.79-1.8,1.81-1.31a29.06,29.06,0,0,1,3.45-1.36c.33-.11,2.33-1,.83-.2a41.59,41.59,0,0,1-3.74,2,7.79,7.79,0,0,1-3.11.7c-.75,0,2.66-1.92,1.87-1.5a51.86,51.86,0,0,1,6.38-2.46C42.3,79.61,40,81,37.62,81.88c-1,.39-2.21.63-3.18,1.1,1.13-.55,2.29-1,3.44-1.54a28.7,28.7,0,0,0,6-3.35c.12-.1-.05-.14-.13-.11-1.68.71-3.34,1.47-5,2.23-.82.37-1.66.73-2.5,1.08-2.28.95,0,0,.39-.23,2.53-1.2,5.09-2.21,7.27-4.07.09-.07-.06-.11-.12-.09-2.26.81-4.36,2-6.55,3-.91.34-.91.25,0-.25.67-.46,1.37-.86,2.06-1.27,1.37-.81,2.75-1.58,4.09-2.46.13-.09,0-.15-.13-.1-1.12.55-2.21,1.17-3.34,1.69-1.73.79.53-.63.66-.72a18,18,0,0,0,2-1.41c.1-.08,0-.15-.1-.11a20.83,20.83,0,0,0-3.63,1.81c-.14.09.07.14.16.09Z"/><path class="cls-1" d="M40.26,76.58c-.67.58-1.29,1.2-1.91,1.84s-.25.43,0,0,.39-.73.61-1.09c.07-.11-.17-.08-.22,0-.63.7-1.2,1.46-1.83,2.16s-.12-.37,0-.68c.14-.55.28-1.09.4-1.64,0-.13-.21,0-.24,0-.55.86-1,1.79-1.5,2.67a5.6,5.6,0,0,1-.62.83,1.05,1.05,0,0,0,.31-.62l.68-1.79c0-.13-.19-.09-.23,0-.47.8-1,1.56-1.53,2.32-.07.11.18.09.23,0,.46-.64.9-1.29,1.31-2l-.18.06c-.12.3-.23.6-.34.9l-.51,1.34c0,.13.17.08.21,0a9,9,0,0,0,1.63-2.45c.12-.23.24-.46.37-.68.37-.67,0-.14,0,.15-.16.69-.36,1.37-.5,2.07,0,.12.19,0,.22,0a14.6,14.6,0,0,0,1.58-1.75l.26-.32c.34-.24.38-.35.12-.31-.28.48-.53,1-.81,1.45-.07.12.17.08.21,0,.83-.87,1.65-1.73,2.55-2.51.11-.1-.13-.12-.2-.06Z"/><path class="cls-1" d="M37.17,68.94c1.25-.44-.2,1.2-.5,1.61,0,0,.13,0,.13,0,2.07-.63,1.32,0,.22,1.41-.05.06.1,0,.12,0A12.61,12.61,0,0,0,39,71.27c-.65.31-1.31,1.66-1.67,2.32,0,.06.18,0,.19,0a8.51,8.51,0,0,0,2.12-1.36,11.27,11.27,0,0,0-2,3c0,.06.18,0,.19,0a5.63,5.63,0,0,0,2.33-1.9,13.51,13.51,0,0,0-1.84,3.15c0,.07.18,0,.19,0a4.68,4.68,0,0,0,2-1.82c.83-1.23,0-.21-.26.29a7.41,7.41,0,0,0-.55,2.26c0,.06.2,0,.22,0a7.38,7.38,0,0,0,2.4-3.25s-.21,0-.24,0a10.92,10.92,0,0,0-1.53,4.12c0,.07.19,0,.21,0a8,8,0,0,0,2.58-3.79s-.22,0-.24,0A37.2,37.2,0,0,0,41.6,79c0,.07.19,0,.21,0a7.84,7.84,0,0,0,2.41-3.78s-.22,0-.24,0a33.32,33.32,0,0,0-1.53,5c0,.07.2,0,.23,0a11.8,11.8,0,0,0,1.57-2.8c.77-1.81-.08,0-.18.26a15,15,0,0,0-.6,2.57c0,.08.2,0,.23,0a11.09,11.09,0,0,0,1.57-2.72c.69-1.58,0-.41-.14.18-.25.84-.44,1.71-.64,2.57,0,.07.21,0,.24,0a19.52,19.52,0,0,0,1.56-3.26,10.93,10.93,0,0,0-.45,2.24c0,.06.23,0,.25-.05.87-1.16,1.36-4.46.77-.86,0,.08.21,0,.24,0,.19-.25,1-2.15.78-1,0,.07.18,0,.2,0a4,4,0,0,0,1.58-1.48s-.2,0-.25,0c-1.34,1.93-1.13.75-1.11.12,0,0-.23,0-.25.06-.37,1.21-1,2.91-.6-.23,0-.06-.23,0-.24,0-.19.73-.38,1.46-.62,2.18-.64,1.94-.07-1.52,0-1.87,0-.06-.22,0-.24,0A29.78,29.78,0,0,1,45,79.44a30.46,30.46,0,0,0,1-3.57c0-.05-.22,0-.24,0-.43,1-.84,2.06-1.34,3.06-.61.58-.71.4-.28-.53a23.53,23.53,0,0,1,.84-2.58c0-.05-.22,0-.24,0-.34.75-.66,1.52-1,2.28a1.89,1.89,0,0,1-.81,1.15c.14-.57.29-1.13.46-1.69,0,0,.5-2.06.38-1.73-.23.6-2.08,3.62-1.38,1.19.12-.41.44-1.89.51-2.09-.24.62-2.27,3.63-1.65,1.28.13-.49,1.26-2.83.15-.84-1.12.5-1.39.3-.82-.6.22-.5.43-1,.64-1.51,0,0-.21,0-.24,0a11.47,11.47,0,0,1-.62,1.27c-.25,1-.7,1.33-1.34.91a26.66,26.66,0,0,1,1.69-2.94s-.2,0-.24,0a2.56,2.56,0,0,1-2,1.71,27.46,27.46,0,0,1,1.94-2.81c.06-.07-.18,0-.22,0A2.88,2.88,0,0,1,38,72.77a7.77,7.77,0,0,1,1.61-1.9c.06-.05-.17,0-.2,0-3.14,2.06-.84-.61-.48-1.08.06-.07-.13,0-.15,0-2.35,1-1.35-.12-.52-1.25,0,0-.15,0-.16,0l-1,.36c-.17.06,0,.1.08.06Z"/><path class="cls-1" d="M47.48,75.1c-.76.27-.72.25-1.46.56-2.39,1-1.43-.3-.31-1,.13-.08-.05-.15-.13-.11-2.33,1-2.13.89-.7-.8.08-.09-.05-.13-.12-.11a10.57,10.57,0,0,0-2.22.94A8.1,8.1,0,0,0,44,72.88c.08-.11-.09-.13-.15-.09a18.45,18.45,0,0,0-2.22,1.12A5,5,0,0,0,43,72c0-.11-.12-.11-.17-.08a8.16,8.16,0,0,0-1.3.76c-1.67,1.07.46-1.17.77-1.56.09-.11-.09-.12-.15-.09a10.89,10.89,0,0,0-2.75,1.78,13.23,13.23,0,0,0,2.07-2.6c.07-.11-.13-.1-.17-.08a12.49,12.49,0,0,0-2.58,1.78,7.77,7.77,0,0,0,1.73-2.24c.06-.11-.13-.1-.17-.08-.75.36-1.46.78-2.19,1.18.51-.28,1.11-1.68,1.34-2.18.06-.12-.15-.08-.2-.06-1.84,1.14-1.53.73-.82-1,0-.07,0-.1-.1-.09-1.28.19-.7-1.48-.57-2.08,0-.12-.23-.08-.25,0-.15.72-.19,1.44-.34,2.15,0,.05,0,.07.08.07,1.25.15.58,1.09.1,2.06-.06.12.15.09.19.06.47-.29,1-.52,1.44-.81-.38.23-1,1.64-1.45,2.16-.09.11.09.13.15.1.75-.36,1.47-.78,2.2-1.18a3,3,0,0,1-.8,1.31q-.45.49-.87,1c-.1.12.12.13.18.08.35-.25.69-.51,1-.79,0,0,1.71-1.19,1.09-.41s-1.12,1.32-1.63,2c-.07.11.16.09.2.06a28.63,28.63,0,0,1,2.62-1.9,11,11,0,0,0-1.46,2.2c-.07.11.16.09.2.06l1.27-.88c1.72-1.19-.28,1.17-.6,1.51-.11.12.12.12.18.08.71-.43,1.42-.81,2.16-1.18A16.36,16.36,0,0,0,42,75c-.11.11.12.12.18.08a12.5,12.5,0,0,1,1.61-.87c1.63-.78-1.13,1.59-.75,1.31-.11.08,0,.15.1.12a7.83,7.83,0,0,0,1.9-.69,5,5,0,0,0-1.19,1.5c-.06.09.1.1.14.09a36,36,0,0,0,3.57-1.25c.14-.05.11-.21,0-.16Z"/><path class="cls-1" d="M38.88,70.54c-.18,1.44-.37,2.87-.68,4.29,0,.11.16.07.2,0,.34-.28.72-.51,1.05-.8-.08.08-.16,1.94-.23,2.2s.2,0,.24,0a9.18,9.18,0,0,0,1.7-4c0-.12-.22-.07-.24,0-.32,1.62-.57,3.24-1,4.83,0,.12.2.06.24,0a19.54,19.54,0,0,0,1.35-3c.46-1.19.24-.15.21.37-.06.75-.17,1.5-.27,2.25,0,.13.2,0,.24,0a13.12,13.12,0,0,0,1.45-3,11.82,11.82,0,0,0-.33,3.32c0,.11.18.07.22,0a6.23,6.23,0,0,0,1.23-2.28c0-.06.24-1.68.24-1.1v3c0,.13.2.06.24,0a7.78,7.78,0,0,0,1.06-2.54c.46-1.85.23,1.13.23,1.65,0,.12.21.07.24,0a7.43,7.43,0,0,0,.66-1.5c.29-1.16.31-.44.46.28,0,.1.19,0,.23,0a4.23,4.23,0,0,0,.85-.89c.09-.13-.14-.14-.2-.06-.72.89-.79.22-1.14-.54,0-.09-.24-.06-.25,0-.06.71-.6,1.71-.6,2.17a20,20,0,0,0-.17-2.57c0-.11-.23,0-.25,0a16.2,16.2,0,0,1-1,3.36,17.83,17.83,0,0,0-.13-3.2c0-.13-.22-.07-.25,0q-.13.63-.3,1.26c-.13.41-.27.81-.4,1.22a1.45,1.45,0,0,1-.72,1c0-1.11.27-2.2.31-3.3,0-.12-.21-.08-.24,0a23.27,23.27,0,0,1-1.31,3c.33-.6.17-2.47.19-3.21,0-.12-.2-.07-.24,0-.47,1-.83,2-1.24,3-.66,1.58.17-1.2.25-1.62.47-2.55-.14-.59-.77.69-.79,1.6-.26-.87-.21-1.33,0-.12-.18,0-.22,0-.35.3-.72.59-1.1.86a10.29,10.29,0,0,0,.26-1.2c.17-.95.27-1.91.39-2.87,0-.12-.24-.08-.25,0Z"/><path class="cls-1" d="M45,69.29c-.24.66-.46,1.32-.66,2-.18.45-.14.48.14.12.07-.53,0-1.07.09-1.61,0-.11-.2,0-.24,0a6.49,6.49,0,0,0-1.1,2l.22-.17a7.57,7.57,0,0,0,.06-1,6.3,6.3,0,0,0-.13-1.3c0-.09-.22,0-.24.06-.18.36-.35.73-.51,1.09-.06.13-.12.26-.17.39-.29.34-.27.48,0,.42a8.31,8.31,0,0,0,.37-2.47c0-.11-.2,0-.23,0-.22.31-.45.61-.68.9l-.26.31c-.32.31-.32.38,0,.21a13.33,13.33,0,0,0,.64-2c0-.09-.19,0-.22,0-.41.38-1.34.84-1.52,1.19.31-.6.4-1.29.71-1.89.06-.11-.15-.06-.19,0a11.2,11.2,0,0,0-1.81.88c.46-.4.67-1.36,1-1.93.07-.1-.17,0-.21,0a7.36,7.36,0,0,1-1.37.7c-.33.15.2-1,.23-1.06s-.21,0-.24,0c-.24.56-.41.71-.34,1.27,0,.08.17,0,.2,0a12.41,12.41,0,0,0,1.51-.74c-.5.4-.7,1.38-1,2-.06.11.17,0,.21,0A4.94,4.94,0,0,1,40.72,68c.44-.17.31-.2.24-.06-.31.59-.4,1.29-.71,1.89-.06.11.17,0,.21,0,.49-.44,1.06-.78,1.59-1.17-.32.24-.58,1.7-.78,2-.06.1.18.06.22,0,.22-.31.45-.6.68-.89.1-.12.45-.83.44-.49a8.61,8.61,0,0,1-.5,2.47c0,.09.21,0,.24,0,.26-.67.55-1.32.85-2a1.76,1.76,0,0,0,0,.51,7.64,7.64,0,0,1-.11,1.85c0,.1.22,0,.24,0a7.69,7.69,0,0,1,.75-1.74c.24-.41.28-.42.12,0s0,1.08-.09,1.61c0,.1.22,0,.24,0a27.12,27.12,0,0,1,.85-2.69c0-.07-.21,0-.25,0Z"/><path class="cls-1" d="M40.41,68.05a6.53,6.53,0,0,0,.85,3c0,.06.26,0,.24-.07a6.74,6.74,0,0,1-.85-3s-.24,0-.24.07Z"/><path class="cls-1" d="M40.07,68.41c.66,1.23,1.21,2.53,1.87,3.76,0,.06.26,0,.24-.07-.65-1.23-1.21-2.53-1.87-3.76,0-.06-.26,0-.24.07Z"/><path class="cls-1" d="M42.11,70.74A10.17,10.17,0,0,0,43.82,74c.07.08.3,0,.22-.11a10.33,10.33,0,0,1-1.69-3.2c0-.11-.28,0-.24.07Z"/><path class="cls-1" d="M43.13,71.45A7.82,7.82,0,0,0,44.66,74c.05,0,.27,0,.23-.09a7.88,7.88,0,0,1-1.52-2.5c0-.06-.26,0-.24.07Z"/><path class="cls-1" d="M44.32,71.27a14.24,14.24,0,0,0,1.19,2.17c.06.08.29,0,.23-.1a15.32,15.32,0,0,1-1.18-2.14c0-.09-.28,0-.24.07Z"/><path class="cls-1" d="M45.18,70.76a2.81,2.81,0,0,1,.5.72c.06.11.29,0,.23-.12a3,3,0,0,0-.51-.72c-.08-.08-.32,0-.22.12Z"/><path class="cls-1" d="M46,69.86c.2.23.32.5.51.72s.32,0,.23-.11-.32-.5-.51-.72-.31,0-.23.11Z"/><path class="cls-1" d="M51,74.64a7,7,0,0,1-2.78,2.59c.06,0-1,.63-.72.39,0,0,1.62-1.18.83-.19-1.13,1.42-3,2-4.28,3.27-.07.07,0,.12.08.11,3.25-.58,6.35-4,7.61-7.06.05-.12-.2-.1-.23,0a13.84,13.84,0,0,1-5.18,6c-.31.2-1.64.56-1.8.71a12.94,12.94,0,0,1,2-1.43A7.6,7.6,0,0,0,49,76.8c.06-.1-.13-.09-.17-.07a13.63,13.63,0,0,0-1.89,1.09c-.13.09.05.14.13.1a8.14,8.14,0,0,0,4.14-3.27c.06-.11-.19-.09-.23,0Z"/><path class="cls-1" d="M52.64,70.9c-.14.65-.2,1.32-.34,2l.25-.05c0-.72-.08-1.44-.13-2.15,0-.06,0-1.11.09-1a.57.57,0,0,0,.35.2s.25-.06.19-.11-.39-.3-.19-.48l-.21,0a5.69,5.69,0,0,1,1.52,2.31c0,.08.27,0,.24-.07a5.78,5.78,0,0,0-1.53-2.34c-.05,0-.17,0-.21,0-.25.22-.08.42.15.6l.19-.11c-.42-.1-.42-.48-.85-.13-.15.11,0,.93,0,1.12,0,.71.12,1.43.13,2.15,0,.06.23,0,.25-.06.14-.65.19-1.32.33-2,0-.08-.22,0-.24,0Z"/><path class="cls-1" d="M52.65,69.67a3.56,3.56,0,0,1,1.48,2.8,6.29,6.29,0,0,1-.07,1.5,7.61,7.61,0,0,0-.69-2.24c-.07-.24-.61-1.86-.28-.71.08.24.55,2.08,0,1.1a3.67,3.67,0,0,1-.27-1.71,12.24,12.24,0,0,0,.49,1.76s.25,0,.25-.07c0-.22-.28-1.81.06-.68a2.5,2.5,0,0,1,.09.86c0-.21,0-.6,0-.88,0,.15-.05.68-.07.93a13.52,13.52,0,0,0-.27-1.66s-.25,0-.25.07a20,20,0,0,1-.09,2.05c.24,0,.27-.19.11-.49-.05-.48-.1-1-.11-1.45,0,0-.24,0-.25.06C52.55,72,52.34,73,52,74l.2-.11c.09-.33.18-.66.25-1,.11-.51.19-1,.28-1.54,0,0-.24,0-.25.07a9.91,9.91,0,0,1-1.11,3.16,10.32,10.32,0,0,0,.51-1.17c.13-.34.27-.67.41-1,.34-.35.36-.53.08-.53A13.46,13.46,0,0,1,49.58,77s.2,0,.25,0a14.13,14.13,0,0,0,2.88-5.54c0-.05-.22,0-.24,0-.49,1.19-1,2.35-1.36,3.58,0,0,.22,0,.24,0a11.46,11.46,0,0,0,1.18-2.65c0-.15.07-.31.1-.47s-.06-.06-.25.12a19.87,19.87,0,0,1-.59,2.51s.22,0,.24,0a14.81,14.81,0,0,0,.76-2.51c.19-.8,0-.6.08,0,0,.44.09.88.11,1.32,0,.05.23,0,.25-.06a11.93,11.93,0,0,0,.16-2c-.27-.14-.31,0-.11.33s.27.79.38,1.18c0,.05.24,0,.24-.07A3.5,3.5,0,0,0,53.74,71s-.25,0-.25.07a8,8,0,0,0,.17,1.61c0,.05.24,0,.24-.07a3.7,3.7,0,0,0-.33-2.15s-.25,0-.25.07,0,.36,0,.54c-.2.46-.14.62.18.5A8.47,8.47,0,0,0,52.89,70s-.24,0-.25.07a3.64,3.64,0,0,0,.68,2.87s.25,0,.25-.07a7.69,7.69,0,0,0-.51-2.69s-.26,0-.25.07A18.35,18.35,0,0,0,54,74.32c0,.05.24,0,.25-.07.31-1.74.14-3.63-1.37-4.66-.06,0-.26.06-.23.08Z"/><path class="cls-1" d="M52,70.18a10,10,0,0,1-3.88,7.31c-.11.08.14.07.19,0a10.07,10.07,0,0,0,3.94-7.37c0-.09-.24,0-.25,0Z"/><path class="cls-1" d="M51.46,71.07c-1.3,1.55-2.52,3.18-3.91,4.65,0,.06.18,0,.23,0,1.38-1.48,2.6-3.1,3.91-4.66.05-.06-.19,0-.23,0Z"/><path class="cls-1" d="M50.44,71.59a9.93,9.93,0,0,1-3,2.83c-.15.09.07.14.15.09a10.12,10.12,0,0,0,3.1-2.91c.07-.1-.18-.08-.23,0Z"/><path class="cls-1" d="M49.76,71.61a24.52,24.52,0,0,1-2.36,2c-.1.06.15,0,.19,0a23.79,23.79,0,0,0,2.4-2s-.18,0-.23,0Z"/><path class="cls-1" d="M48.59,71.23,47.06,72.3c-.11.08.14.06.19,0l1.53-1.08c.11-.07-.14-.06-.19,0Z"/><path class="cls-1" d="M51.16,72.1a16.68,16.68,0,0,0-3.78,3.08c-.05.06.07.07.1.07a8.28,8.28,0,0,0,4.19-2.2c.1-.09-.1-.09-.14-.07a12.56,12.56,0,0,0-4.15,3.09c-.06.08.11.07.13.07a8.94,8.94,0,0,0,4-2.2c.11-.1-.12-.08-.17,0a14.18,14.18,0,0,0-1.89,1.27c-.12.09.13.08.19,0,.46-.35.94-.67,1.4-1,.69-.52-.26.14-.38.25s-.51.46-.76.68c-.43.36-.88.7-1.32,1.06-.65.52.2-.09.28-.18s.39-.43.58-.64c.45-.51.89-1,1.32-1.57l.26-.31c.32-.22.37-.33.13-.33a6.91,6.91,0,0,1-.5.82.86.86,0,0,0-.28.52c.21-.33.41-.68.61-1,.41-.69.81-1.38,1.23-2l-.24,0a7,7,0,0,1-1,3.91l.24,0A15.63,15.63,0,0,0,52.55,71l-.25,0a25.38,25.38,0,0,1-1,4.65c0,.09.22,0,.25,0a26.35,26.35,0,0,0,1-4.66c0-.1-.24-.05-.25,0a14.92,14.92,0,0,1-1.36,4.29c0,.08.2,0,.24,0a7.21,7.21,0,0,0,1-4c0-.08-.21,0-.24,0-.7,1.12-1.34,2.28-2,3.4-.06.1.17.06.21,0a8.33,8.33,0,0,0,1.38-2c.06-.11-.19,0-.23,0-1,1.28-2.09,2.54-3.21,3.74-.11.11.14.09.19,0a25.36,25.36,0,0,0,3.25-2.88c.07-.09-.17-.06-.21,0a16.54,16.54,0,0,1-1.58,1.21l.18,0c.25-.19.5-.37.76-.54s.74-.6.17-.09a8,8,0,0,1-2.2,1.28c-.26.11-1.29.7-.58-.06a10.16,10.16,0,0,1,1.09-1c.59-.48,1.67-1,2.07-1.35a8.42,8.42,0,0,1-2.78,1.67c-.46.16-.53-.09-.21-.4s.5-.46.76-.68a25.11,25.11,0,0,1,2.32-1.66c.14-.09-.08-.12-.15-.07Z"/><path class="cls-1" d="M53.67,72a3.72,3.72,0,0,1,0,4.42c-.07.09.18.06.23,0a3.81,3.81,0,0,0,0-4.52c0-.07-.28,0-.23.1Z"/><path class="cls-1" d="M54,72.17a6.57,6.57,0,0,1-1.85,6.21c-.1.1.14.1.2,0a6.7,6.7,0,0,0,1.9-6.32c0-.09-.27,0-.25.07Z"/><path class="cls-1" d="M53,75.91a34.53,34.53,0,0,1-1.69,3.39c-.06.09.19.06.23,0a36.35,36.35,0,0,0,1.71-3.42c0-.07-.21,0-.25,0Z"/><path class="cls-1" d="M52.81,75.56a12.92,12.92,0,0,1-2.37,3.57s.18,0,.23,0a13,13,0,0,0,2.38-3.6s-.2,0-.24,0Z"/><path class="cls-1" d="M53,73.26a5.24,5.24,0,0,1,.55,2.35c-.13-2.39-.06.25-.06.3,0,1.77-.25-.8-.25-.74,0-.13-.25-.08-.25,0,0,.6-.09,1.19-.15,1.79a4.84,4.84,0,0,0-.11-1.48c0-.09-.25,0-.25,0a14.61,14.61,0,0,1-.18,1.87c-.18.42-.16.53.06.34,0-.46-.12-.91-.14-1.36,0-.11-.23,0-.25,0-.12.51-.25,1-.38,1.53.13.27.14.21,0-.17a5.35,5.35,0,0,1-.08-.7c0-.1-.23,0-.25,0-.13.54-.25,1.08-.38,1.61a7.89,7.89,0,0,0,0-1c0-.12-.25-.07-.25,0a7.8,7.8,0,0,1-.26,1.52c0-.1-.22,0-.24,0-.15.37-.54,1.65-1,1.21,0-.06-.17,0-.22,0a1.75,1.75,0,0,1-.76.67c-.15,0-.11.2,0,.15.43-.15.71-.75,1.06-.38a.16.16,0,0,0,.23,0c.17-.31.35-.62.53-.92s.06-.67.13-.32c0,0,0,0,.08,0l.12,0a.18.18,0,0,0,.17-.1,6.57,6.57,0,0,0,.34-1.92c0-.12-.25-.07-.25,0,0,.53.13,1.06.17,1.59,0,.11.23,0,.25,0,.13-.53.25-1.07.38-1.61q-.19-.42,0,.21c0,.18.06.37.08.56s.23,0,.25,0c.14-.48.26-1,.38-1.44,0,.11,0,.92.05,1.31,0,.1.23,0,.25-.05.12-.58.22-1.16.29-1.75.17-.39.14-.54-.1-.46.1.45.13.91.24,1.36,0,.1.24,0,.25,0,0-.57.1-1.13.15-1.7-.16-.07-.24-.06-.23,0A6.84,6.84,0,0,0,53.15,77c0,.1.21,0,.24,0a4.39,4.39,0,0,0,.18-2.73c0-.1-.24,0-.25,0a7.83,7.83,0,0,0,0,1.81c0,.11.22,0,.25,0a3.21,3.21,0,0,0-.35-2.9c-.06-.09-.29,0-.23.1Z"/><path class="cls-1" d="M33.85,11.69c1.7,0,3.41-.24,5.1-.08,2.28.23,3.17,2.88,3.83,4.82s1.76,3.9,1.37,5.95c-.5,2.62-4,3.11-5.9,4.25-.15.08.08.1.15.06,1.85-1.12,4.05-1.48,5.49-3.24,1.58-1.93-.17-5.18-.87-7.09s-1.3-3.9-3.16-4.7-4.11-.07-5.91-.11c-.08,0-.26.13-.1.14Z"/><path class="cls-1" d="M35.53,16.84a7.17,7.17,0,0,0,.73-.86c.77-.65,1.87-1.39,2.79-.59.75.65,1,2,1.24,2.95.28,1.08.51,2.51-.24,3.43a12.09,12.09,0,0,1-2.66,1.8c-.14.09.07.15.16.09.86-.58,2.27-1.09,2.86-2,.76-1.24.25-3-.11-4.24-.28-1-.67-2.13-1.66-2.5s-2.26.75-3,1.33c-.13.11.08.15.16.09a9.81,9.81,0,0,0,1.21-.91c.11-.1-.11-.13-.18-.08a15.12,15.12,0,0,0-1.55,1.45c-.1.11.14.13.2.06Z"/><path class="cls-1" d="M37.53,14.13l-1,1.08.23,0c.18-.36.34-.72.51-1.07,0-.06-.2,0-.24,0-.37.55-.82,1-1.19,1.61l.25,0c.18-.42.32-.85.5-1.26,0-.06-.21,0-.24,0a8.23,8.23,0,0,0-.85,1.61l.25-.06a5.86,5.86,0,0,1,.34-1.6c0-.06-.23,0-.25,0l-.51,1.61.25-.06a10.49,10.49,0,0,1,.17-2.31l-.25.05c0,.66-.15,1.31-.17,2l.25-.07a10.63,10.63,0,0,1-.17-2.33l-.25.07a5.85,5.85,0,0,1,0,2.32l.25-.06a4,4,0,0,1-.51-2.85l-.25.06c.21.75.64,1.4.85,2.15,0,.06.24,0,.25-.06a3.24,3.24,0,0,1,.51-1.08L36,14a7.31,7.31,0,0,0,.45.83c.18.25.67-.08.92.08.06,0,.27-.07.23-.09a1,1,0,0,0-.73,0c-.29.05-.52-.64-.62-.85s-.22,0-.25.06A3.3,3.3,0,0,0,35.48,15l.25,0c-.21-.75-.64-1.4-.85-2.15,0-.07-.24,0-.25.05a4.16,4.16,0,0,0,.51,2.88c0,.06.23,0,.25,0a6.19,6.19,0,0,0,0-2.35c0-.06-.25,0-.25.07a11.28,11.28,0,0,0,.17,2.33c0,.07.24,0,.25-.07,0-.66.15-1.31.17-2,0-.05-.24,0-.25.06a11.42,11.42,0,0,0-.17,2.34c0,.06.23,0,.25-.06l.51-1.61-.25,0a6.32,6.32,0,0,0-.34,1.62c0,.06.23,0,.25-.06a8.22,8.22,0,0,1,.84-1.61l-.24,0c-.18.41-.32.84-.51,1.25,0,.06.21,0,.25,0,.37-.56.81-1.06,1.18-1.61l-.24,0-.51,1.07c0,.06.21,0,.24,0,.33-.36.67-.71,1-1.07.06-.06-.18,0-.22,0Z"/><path class="cls-1" d="M36.89,14l.68-.72-.2-.06a4.44,4.44,0,0,0-.69,1.1c-.06.12.17.08.21,0a6.14,6.14,0,0,0,1.38-1.45l-.23,0c-.12.24-.23.48-.34.72,0,.07,0,.1.1.09a1.88,1.88,0,0,0,.7-.3c.32-.19.09.29.06.41a.83.83,0,0,0,0,.56c0,.07.13.05.17,0l.68-.36-.17,0a4.3,4.3,0,0,0,.52,1.27c.06.08.3,0,.22-.1a4.48,4.48,0,0,1-.5-1.24c0-.07-.12-.05-.17,0l-.68.36.17,0c-.09-.38.13-.69.18-1a.06.06,0,0,0,0-.06c-.38-.19-.74.29-1.1.34l.1.1.34-.72c.06-.12-.19-.1-.23,0a6,6,0,0,1-1.35,1.41l.22,0a4.42,4.42,0,0,1,.66-1.05c.11-.12-.13-.13-.2-.06l-.68.72c-.1.11.14.13.2.06Z"/><path class="cls-1" d="M42.11,20.07a7,7,0,0,1-.17,1.77l.24-.05V20.72l-.24.06a10.85,10.85,0,0,1,.17,2l.24-.06c-.14-.23-.2-.49-.34-.72,0-.07-.21,0-.24.05-.26.5-.59.94-.85,1.44l.24-.06v-.74c0-.05-.24,0-.24.07a1.33,1.33,0,0,1-.66,1.11c-.43.14-.78.59-1.16.83-.14.08.08.08.14,0,.45-.27.88-.8,1.41-.86,0,0,.17,0,.17-.08,0-.36.34-.78.34-1.11,0-.05-.24,0-.24.07v.74c0,.07.22,0,.24-.06.26-.49.59-.93.85-1.43l-.24.06c.14.23.19.49.34.71s.24,0,.24-.06a9.2,9.2,0,0,0-.17-2c0-.07-.24,0-.24.06v1.08c0,.06.23,0,.24-.06a6.79,6.79,0,0,0,.17-1.8c0-.06-.24,0-.24.07Z"/><path class="cls-1" d="M26.31,3.4c-.79,2.86.37,5.51.83,8.31.59,3.57-.48,7.07-1.23,10.51a18.89,18.89,0,0,0-.05,9.06c1.06,4,1.86,7,.81,11.21-.74,3-2.07,5.77-2.86,8.75s-.55,6.27-.54,9.4a86,86,0,0,1-.66,12.11c-.53,3.78-1.72,7.43-2.25,11.22,0,.08.24,0,.25,0,.48-3.48,1.43-6.84,2.08-10.29a59.2,59.2,0,0,0,.8-10c.08-3.84-.33-7.8.38-11.58.61-3.3,2.13-6.37,3.05-9.57a15.48,15.48,0,0,0,0-8.64C25.84,30,25.26,27.07,26,23.08c.53-2.95,1.43-5.75,1.57-8.76.18-3.73-2-7.27-1-11,0-.06-.22,0-.24,0Z"/><path class="cls-1" d="M18.5,81.61c-.18.66-.36,1.33-.52,2,0,.13.2.09.24,0,.21-.46.4-.91.58-1.38.11-.31.22-.61.32-.92.27-.36.26-.51,0-.47-.15,1-.31,2.08-.45,3.12,0,.14.2.09.24,0a18,18,0,0,0,1.37-4.15l-.25,0a20.94,20.94,0,0,0-.68,4.3c0,.14.2.09.24,0a20.29,20.29,0,0,0,1.71-5.58c0-.13-.22-.1-.24,0-.49,1.65-.69,3.36-1,5,0,.13.21.1.24,0a27.86,27.86,0,0,0,1.2-5.22c0-.13-.23-.1-.25,0-.12.54-.26,1.06-.42,1.58l-.14.39c-.19.39-.21.47,0,.24a10.69,10.69,0,0,1,.49-2.92c0-.14-.2-.14-.23,0a9.43,9.43,0,0,1-1.58,3.07A8,8,0,0,0,19.93,78c0-.13-.2-.08-.24,0-.31.58-.68,1.11-1,1.68s-.25-.15-.29-.63c0-.06-.11-.07-.15,0a2.73,2.73,0,0,0-.74.38c-.14.1.06.2.17.13.63-.43.6.37.64.87,0,.12.21,0,.24,0,.36-.7.8-1.34,1.2-2A9.51,9.51,0,0,0,19,81.1c0,.13.18.08.23,0a9,9,0,0,0,1.76-3c-.14-.11-.22-.12-.24,0a7.91,7.91,0,0,0-.19.81,10.75,10.75,0,0,0-.2,2.19c0,.13.2.09.24,0a13.36,13.36,0,0,0,.86-2.71l-.25,0a42.4,42.4,0,0,1-.88,4.35c-.25.35-.24.48,0,.38.09-.45.16-.91.24-1.37.13-.77.27-1.54.44-2.3-.06-.58-.12-.57-.17,0s-.26,1.17-.42,1.76a15.73,15.73,0,0,1-.74,2.09c-.42,1,0-.84.05-1.14.12-.8.32-1.6.51-2.39,0-.12-.22-.09-.25,0a19.73,19.73,0,0,1-1.16,3.71,13,13,0,0,0,.56-3.19c0-.13-.21-.1-.24,0-.3.94-.61,1.86-1,2.77l.11.17c.05-.21.11-.43.17-.64s.17-.67.26-1c0-.15-.2-.15-.23,0Z"/><path class="cls-1" d="M18.83,79.33a2,2,0,0,1-.17.88l.25,0c-.22-.43-.47-.83-.68-1.26,0-.07-.23,0-.25.06-.19.78-.48,1.54-.68,2.32l.25,0c-.23-.4-.62-.67-.85-1.07,0-.08-.2,0-.24,0s-.15.62-.27.67,0,.14.09.09c.29-.12.24-.52.41-.76l-.24,0c.23.4.62.67.85,1.07,0,.07.23,0,.25,0,.19-.79.48-1.54.68-2.33L18,79c.21.43.47.83.68,1.26,0,.08.22,0,.25-.06a2.17,2.17,0,0,0,.17-.91c0-.07-.25,0-.25.07Z"/><path class="cls-1" d="M18.94,78c.34-.09.45-1.37.48-1.73l-.25.05c0,.54.14,1.07.17,1.61,0,.1.23,0,.25-.05a12,12,0,0,0,.34-2.15l-.25,0A3.71,3.71,0,0,1,20,76.82c0,.11.23,0,.25,0,.45-1.47.25-3,.84-4.46.05-.12-.2-.1-.23,0-.6,1.44-.41,3-.86,4.49l.25,0a4,4,0,0,0-.34-1.08c0-.08-.25,0-.25,0a11.2,11.2,0,0,1-.34,2.15l.25,0c0-.54-.14-1.07-.17-1.61,0-.09-.24,0-.25,0,0,.62-.32,1.19-.37,1.8,0,.07.1.07.14.05h0c.15,0,.12-.18,0-.14Z"/><path class="cls-1" d="M21.45,77.13c.36-1.09.84-2.13,1.19-3.23,0-.06-.22,0-.24,0-.36,1.1-.83,2.14-1.19,3.23,0,.07.22,0,.24,0Z"/><path class="cls-1" d="M24.44,53.35a17.24,17.24,0,0,1-.24,2.15c.05-.33,0-1.26.07-1.84-.27-.08-.34.07-.21.48s-.06.65-.11,1a7.66,7.66,0,0,1-.21,1c-.26,1,0-.34,0-.52A17.47,17.47,0,0,1,24,53.66c.22-1.25-.07.78-.11,1,.12-.66.15-1.48.31-2.2a14.64,14.64,0,0,1,1.19-3c.05-.11-.2-.09-.23,0a10.52,10.52,0,0,0-1.37,5.77c0,.1.23,0,.24,0a6.64,6.64,0,0,0,.17-2.35c0-.1-.22,0-.24.05a17.87,17.87,0,0,0-.51,4.12c0,.11.21.06.24,0a10.09,10.09,0,0,0,.68-3.78c0-.11-.23-.06-.24,0a9.34,9.34,0,0,0,0,2.89c0,.09.23,0,.24-.05a17.51,17.51,0,0,0,.34-2.69c0-.11-.24-.06-.24,0Z"/><path class="cls-1" d="M26,52.44a8,8,0,0,0-.68,1.81c0,.09.22.06.24,0a8,8,0,0,1,.68-1.78c.06-.1-.19-.08-.24,0Z"/><path class="cls-1" d="M26,51.17A9.84,9.84,0,0,1,25.15,53c.47-.9.45-2.21.89-3.21.05-.13-.17-.14-.22-.06-.52.82-.59.7-.1-.58-.13.33-.57,1.2-.8,1.67-1.18,2.4-.39.4-.21-.18.28-.84.61-1.65,1-2.46,1.59-3.57-1.5,3.41-.55.57.63-1.91,1.46-3.75,2.27-5.58.06-.14-.19-.15-.24,0a68.22,68.22,0,0,0-2.89,7.16c0,.15.16.14.22.06a14.07,14.07,0,0,0,1.72-3.42c.06-.14-.19-.15-.24,0-.22.5-.42,1-.61,1.51-.05.13-.92,2.15-.65,1.29a36.79,36.79,0,0,1,1.54-3.93c.28-.65.58-1.3.87-2l-.26,0c-.21.47-.41.93-.61,1.4a49.36,49.36,0,0,0-1.81,4.89c0,.13.17.14.22,0a16.05,16.05,0,0,0,1.89-3.6c.05-.16-.18-.13-.24,0a23.69,23.69,0,0,0-2.38,5.9c0,.14.17.15.22.06a13.9,13.9,0,0,0,1.89-4c0-.16-.19-.13-.24,0a5.16,5.16,0,0,0-.68,2.36c0,.12.18.1.22,0,.78-1.23,0,.05-.15.59A7.53,7.53,0,0,0,25,53.35c0,.14.19.08.24,0a9.86,9.86,0,0,0,1-2.15c0-.14-.21-.15-.24,0Z"/><path class="cls-1" d="M27.69,46.15a14.76,14.76,0,0,0-2.4,5.23c0,.1.22.07.24,0a14.74,14.74,0,0,1,2.36-5.15c.1-.12-.14-.13-.2-.05Z"/><path class="cls-1" d="M28.19,50c-.25.28-.43.61-.68.89-.05,0,.18,0,.22,0,.25-.28.43-.62.68-.9.05-.05-.18,0-.22,0Z"/><path class="cls-1" d="M27.84,48.14c-.38.6-.77,1.2-1.19,1.79-.07.1.18.09.23,0,.42-.58.81-1.18,1.19-1.79.07-.11-.18-.1-.23,0Z"/><path class="cls-1" d="M27,47.61c-.63,1-1.17,2.09-1.87,3-.06.08.18.05.22,0,.71-1,1.24-2,1.87-3,.06-.09-.19-.05-.22,0Z"/><path class="cls-1" d="M25.12,56.22c-.11.53-.3,2.38-.13.7a11.88,11.88,0,0,0-.14-3.26c0-.09-.22,0-.24.05A19.85,19.85,0,0,0,23.76,60c0,.08.23,0,.24-.05a11.15,11.15,0,0,0,.17-5.56c0-.09-.23,0-.24,0a22.4,22.4,0,0,0,0,7.53c0,.09.23,0,.24-.05a11,11,0,0,0,.34-4.49c0-.08-.23,0-.24,0a20.48,20.48,0,0,0-.34,4.14c0,.07.23,0,.24-.06a43.85,43.85,0,0,0,.44-5.71c0,2.51,0,5-.17,7.54,0,.1.22,0,.24,0a37.54,37.54,0,0,0,.8-8.27c0-1.25-.19-.58-.19.09v7.16c0,.08.23,0,.24,0,.4-1.79.42-3.62.71-5.42a25.22,25.22,0,0,0,.24,5.47c0,.08.25,0,.24-.07-.15-2-.18-4.06-.34-6.09,0-.08-.23,0-.24.06a25.66,25.66,0,0,0-.46,3.38c0,.49-.15,3.27-.15,1.22V53.66c0-.07-.24,0-.24.05a57.69,57.69,0,0,1-.68,9c.47-2.3.24-5.17.24-7.63,0-.07-.23,0-.24,0-.2,1.43-.31,2.86-.43,4.3,0,.25,0,1.46,0,1.46a20.94,20.94,0,0,1,.19-2.75c.06-.43-.1,3,0,1.88,0-.32-.18,1.72-.24,1.27a28.46,28.46,0,0,1-.22-4.52A16,16,0,0,1,24.06,55a10.75,10.75,0,0,0,.17,1.57,10.44,10.44,0,0,1-.3,2.78,13.14,13.14,0,0,0,.16-1.66,16.92,16.92,0,0,1,.59-3.46,15.73,15.73,0,0,0,.11,2.15c0,.62-.11,1.24-.18,1.86,0,.1.22,0,.24,0a11,11,0,0,0,.51-2c0-.09-.23,0-.24,0Z"/><path class="cls-1" d="M27.69,49.36a8.31,8.31,0,0,0-2.23,3.78c0,.12.14.13.2.08l.63-.59s1.28-1.92.72-1.05A19,19,0,0,0,25,55.65c0,.13.14.12.2.07a13,13,0,0,0,3.1-4c.07-.13-.18-.12-.24,0-.66,1-1.3,2.11-1.87,3.22-.06.12.15.12.2.08.52-.45,1.68-2.15.66-.36a22.69,22.69,0,0,0-2.22,4.76c0,.12.14.13.2.07a13.29,13.29,0,0,0,3.1-4.7c.06-.13-.19-.12-.24,0a51.68,51.68,0,0,0-3.06,6.63c0,.14.17.12.22,0a22.38,22.38,0,0,0,2.25-3.57,17.56,17.56,0,0,0-1.79,5c0,.13.18.07.22,0A8.75,8.75,0,0,0,27,61.13c.88-1.48.19-.12,0,.51-.28,1.08-.25,1.94.69,2.51.1.06.31-.07.19-.15-1.45-.88-.44-3.08-.14-4.23,0-.13-.2-.07-.24,0-.17.29-1.82,3.19-1.62,2.2a18.2,18.2,0,0,1,2-4.86c.07-.13-.18-.12-.24,0-.58,1-2.2,3-2.37,3.46a35.17,35.17,0,0,1,2.38-4.95c-.14.27-3,4.5-2.11,2.24a43.54,43.54,0,0,1,2.51-4.66c.06-.12-.17-.12-.22-.05-2.53,3.25,1.35-3.22-1,.44a11.3,11.3,0,0,1-1.41,1.25,19.37,19.37,0,0,1,2.24-3.94c.09-.14-.14-.17-.2-.08-.23.31-1.55,1.47-1.61,1.67a7.12,7.12,0,0,1,2-3c.11-.12-.13-.16-.2-.08Z"/><path class="cls-1" d="M28.34,64.81c0,.5-.41,3.27-.68,1.28-.15-1.1-.23-2.2-.43-3.3,0-.1-.24,0-.24.05,0,1.59,0,3.17-.2,4.76.13-1.29-.23-3.55-.24-5.15,0-.12-.24-.07-.24,0A42.61,42.61,0,0,1,26,68.35c.27-1.84-.12-4.44-.11-6.43,0-.13-.24-.08-.24,0-.11,1.54-.19,3.08-.36,4.61-.27,2.56-.05-1.44,0-1.87,0-1.68-.15-2.81-.18-.46a14.8,14.8,0,0,1-.63,4.59,2.57,2.57,0,0,1-.3-2.28c0-1,.06-2,.11-3,0-.64.07-1.29.1-1.94l-.22-.1c0,.58,0,1.17.06,1.75a44.83,44.83,0,0,1,0,4.49c-.18,3.25-.43.46-.47-1.22s.07-3.19.11-4.78c0,1.51.12,3.36.11,5,0,.39-.31,4.71-.24,2,0-1.53.18-3.06.36-4.58-.28,2.41-.08,5.27-.58,7.86q.14,1.11-.6.75c.06-2.32.58-1.62.45-.43-.23,2-1.24,3.94-1.94,5.8-.05.13.19.11.23,0,.19-.43,1.06-3.19.73-1a35.34,35.34,0,0,1-1,4.19c0,.11.22.07.25,0C22.84,77.27,23.49,73,25,68.89c-.63,1.7-.72,4-1.18,5.85a61.23,61.23,0,0,0-1.42,6.72c0,.12.21.07.24,0,1.41-3.62,2.08-7.46,3-11.23.46-1.82,0-.65-.11,0-.22,1-.49,1.89-.74,2.83a36,36,0,0,0-1.24,6.75c0,.12.2.07.24,0a41.22,41.22,0,0,0,2.37-8.57c.13-.58.28-1.15.44-1.71-.08.28-.64,1.42-.78,1.92A33,33,0,0,0,25,77.16c0,.12.2.07.24,0a31,31,0,0,0,2-7.14c.46-2.38-.23.57-.3,1.07-.25,1.6-.46,3.2-.59,4.82,0,.12.2.07.24,0a16.18,16.18,0,0,0,.81-2.24c.43-1.47,1-2.31.47-.27,0,.11.22.08.25,0a6.07,6.07,0,0,0,.17-2.71c0-.1-.21,0-.24,0a15.08,15.08,0,0,0-.49,1.48c-.13.42-.94,3.42-.89,2.77.19-2.27.62-4.51.94-6.76,0-.12-.22-.07-.24,0a53.36,53.36,0,0,1-2,8.11,22.66,22.66,0,0,0,.36-3,42.74,42.74,0,0,1,1.2-4.61c0-.11-.21-.07-.24,0-1,3.39-1.4,7-2.69,10.28.52-1.33.5-3.52.87-5,.47-1.88,1-3.75,1.38-5.66,0-.12-.22-.07-.24,0-.57,1.86-1,3.75-1.44,5.65-.47,2.07-1.51,4.59-1.75,6.43.56-4.22,2.16-8.2,2.58-12.47,0-.12-.2-.07-.24,0a56,56,0,0,0-2.58,8.93c-.25,1.09-.49,3-.7,3.71a31.81,31.81,0,0,0,1-5.13c0-.12-.21-.07-.24,0-.15.34-.62,1.81-.66,1.91.31-.82.65-1.64.95-2.48a12,12,0,0,0,.8-4.27c0-.13-.2-.07-.25,0a5.28,5.28,0,0,0-.68,3.81c0,.1.21,0,.24,0,1.35-3.55,1.36-7.35,1.2-11.12,0-.13-.24-.08-.25,0a58.31,58.31,0,0,0-.51,7.35c0,.13.22.07.25,0a30,30,0,0,0,.16-9.87c0-.1-.24,0-.24,0a64.21,64.21,0,0,0,.17,9.51c0,.11.23,0,.25,0,.75-3.19.38-6.42.33-9.67,0-.12-.24-.08-.24,0-.05,3-.41,5.86,0,8.79,0,.11.21,0,.24,0,1.16-2.33.89-5,1-7.54,0-.13-.24-.08-.24,0C25,64.09,25,66.23,25,68.39c0,.13.22.07.24,0a30.7,30.7,0,0,0,.43-5.48,49.28,49.28,0,0,0,.18,6.43c0,.11.23,0,.24,0a24.78,24.78,0,0,0,.42-2.85c0-.65.07-1.31.08-2,.3-.62.22-1-.23-1.12a35.57,35.57,0,0,0,.34,5.26c0,.11.23,0,.24,0a34.41,34.41,0,0,0,.34-4.76,25.34,25.34,0,0,0,.44,3.91c0,.1.21,0,.24,0a10.88,10.88,0,0,0,.68-2.89c0-.12-.24-.08-.25,0Z"/><path class="cls-1" d="M26.65,67c.45,2.55.51,5.18,1.19,7.7,0,.1.2,0,.23,0,1.08-2.35.56-5.36-.16-7.74,0-.1-.24,0-.25,0a3.72,3.72,0,0,0,.69,2.9c.06.07.24,0,.24-.07a8.42,8.42,0,0,0,0-1.81c0-.1-.26,0-.24.07.19,2,.5,4.07.84,6.09,0,.11.24,0,.25,0a14.58,14.58,0,0,0,.17-2.8c0-.39-.05-.79-.09-1.18,0-.2,0-.39-.07-.59.12-.42,0-.64-.3-.66a27.46,27.46,0,0,0,1.4,5.1.15.15,0,0,0,.25,0,14.13,14.13,0,0,0-.34-5.75c0-.11-.26,0-.25.07a11.19,11.19,0,0,0,1.2,4.68c.05.07.23,0,.24-.07a12.86,12.86,0,0,0-.11-3.61c-.16-1.41.25.38.39.75a5.9,5.9,0,0,0,.84,1.49c.06.08.21,0,.24-.06a7.41,7.41,0,0,0,.34-1.62c0-.12-.24-.07-.25,0-.08.82-.08,1.86-.74.51-.34-.69-.57-1.46-.88-2.17,0-.09-.25,0-.25,0,0,.55.06,1.08.12,1.63q.07.52.12,1c0-.13.34,2.37-.25,1.12a7.63,7.63,0,0,1-.51-1.87c-.06-.33-.1-.66-.14-1-.13-1-.19-.24-.09.18a13.67,13.67,0,0,1,.25,2.85,11.49,11.49,0,0,1-.09,1.18c-.05.52-.38-.8-.37-.75-.46-1.38-.63-2.86-1-4.26,0-.11-.26,0-.24.07a23.89,23.89,0,0,1,.34,4c0,.05,0,1.25,0,1.07-.13-.74-.24-1.48-.36-2.22-.08-.56-.15-1.12-.22-1.68-.05-.37-.09-.74-.13-1.11a1.31,1.31,0,0,0-.27.89c0,.39-.46-1.07-.48-1.15-.34-1.58-.06-.75.08-.17a11.06,11.06,0,0,1,0,6.22,4.66,4.66,0,0,0-.26-1.24c-.14-.72-.22-1.45-.31-2.18-.15-1.33-.29-2.66-.53-4,0-.11-.26,0-.24.07Z"/><path class="cls-1" d="M34.85,65.66A7.93,7.93,0,0,0,32.6,68c-.06.09.19.06.23,0A15,15,0,0,0,34,65.49c0-.08-.2,0-.22,0-.54.55-1.1,1.06-1.61,1.63a6.89,6.89,0,0,0,.81-2c0-.1-.2,0-.22,0A15.49,15.49,0,0,0,30,68.48a13.81,13.81,0,0,0,2-4.06c0-.1-.21,0-.24,0a27.55,27.55,0,0,0-2.46,3.38,18.14,18.14,0,0,0,2-4.12c0-.09-.19,0-.22,0a34.69,34.69,0,0,0-2.41,3c-1.14,1.39,0-.69.16-1.14a8.66,8.66,0,0,0,.77-2.9c0-.11-.2,0-.24,0-.23.33-.45.74-.68,1.07-.06.09.19.06.23,0-.12.17.42-.6.42-.57A6.18,6.18,0,0,1,29,64.6c-.32,1-.8,1.91-1.13,2.9,0,.09.19,0,.22,0a17.41,17.41,0,0,0,2.4-2.86c.85-1.1,0,.59-.14,1-.4.88-.87,1.74-1.29,2.61,0,.08.2,0,.23,0,.44-.65.86-1.31,1.3-2,.17-.26.36-.52.54-.77,0,0,.65-1.06.53-.59-.38,1.44-1.42,2.64-1.93,4,0,.09.21,0,.24,0,.58-.83,1.14-1.66,1.76-2.46.05-.06,1.13-1.46.92-.91a12.5,12.5,0,0,1-.7,1.94c-.06.1.19,0,.23,0a13.43,13.43,0,0,1,1.25-1.36c.68-.66.06.21-.08.59s-.63,1.47,0,.57A6.65,6.65,0,0,1,35,65.72c.14-.09-.08-.11-.15-.06Z"/><path class="cls-1" d="M26.82,75.92c-.73,1.46-1.27,3-1.91,4.52a13,13,0,0,0,1-4.58c0-.07-.22,0-.24.06a19.65,19.65,0,0,0-1.55,3.58c-.21.64-.37,1.29-.53,1.94-.37,1.42-.18-.19-.23-.75,0-.08-.22,0-.24.06a5.37,5.37,0,0,0-.85,2.7c0,.06.23,0,.24-.06a14,14,0,0,0,.68-5c0-.08-.21,0-.23,0a8.57,8.57,0,0,0-2.05,5.2c0,.09.22,0,.24,0a13.49,13.49,0,0,0,1.19-4.29c0-.09-.2,0-.23,0a4.87,4.87,0,0,0-.35,5c0,.07.2,0,.23,0,1.71-1.81,2.17-4.57,2.56-7,0-.08-.22,0-.24,0a12.37,12.37,0,0,0-1,7c0,.08.21,0,.23,0,1.79-2.3,2-5.4,2.39-8.25,0-.08-.22,0-.24,0A13.9,13.9,0,0,0,24.44,84c0,.07.21,0,.23,0,2-1.92,2.19-5.45,2.39-8.09,0-.06-.22,0-.24.06a16.19,16.19,0,0,0-1.36,8.6c0,.08.21,0,.23,0,1.65-2.35,1.85-5.46,2.39-8.25,0-.08-.22,0-.24,0a14.75,14.75,0,0,0-1.53,8.25c0,.08.21,0,.23,0,1.86-2.56,2.35-6,2.56-9.16,0-.06-.22,0-.24.06a17.46,17.46,0,0,0-1.36,9c0,.08.21,0,.23,0,1.62-2.1,2-4.92,2.22-7.54,0-.06-.23,0-.24,0a20.09,20.09,0,0,0-1,7.18c0,.07.22,0,.24-.06a19.43,19.43,0,0,0,1.35-4.39A10,10,0,0,0,30.55,84c0,.07.27,0,.25-.07a18.77,18.77,0,0,1-.34-5c0-.06-.23,0-.25.06-.3,1.06-.52,2.15-.8,3.22-.71,2.71-.47-.56-.34-1.62.08-.68.23-1.34.37-2,0-.22.32-2.16.17-.68A22.7,22.7,0,0,1,29,81.35c-.13.47-1.21,3.34-1.35,1.92A14.59,14.59,0,0,1,28,79.21a21.84,21.84,0,0,1,.95-3.39,24,24,0,0,0-.56,3.51,20.18,20.18,0,0,1-.79,2.86,13.42,13.42,0,0,1-.69,1.49c-.57,1-.45-.6-.45-.77a14.63,14.63,0,0,1,.7-4.1,15.84,15.84,0,0,1,.56-1.64c.37-1,0-.26,0,.1A24.68,24.68,0,0,1,26,83.69c-.47,1-.43-1-.43-1.06A14,14,0,0,1,25.81,80a18.35,18.35,0,0,1,1-3.65c-.62,1.64-.51,3.66-1.08,5.38-.24.74-1.06,2.86-1.19,1.09a15.49,15.49,0,0,1,.34-4.13A12.54,12.54,0,0,1,25.41,77c.39-1.1.12-.16.08.17a35.28,35.28,0,0,1-.61,3.56,13.85,13.85,0,0,1-.54,1.69s-.89,1.59-.95,1.3a10.37,10.37,0,0,1,.37-4.21,17.33,17.33,0,0,1,.54-1.73,10.25,10.25,0,0,0-.3,1.05,21,21,0,0,1-.94,3.32c-.39,1-1.13,2.68-1.57.83-.27-1.18.35-2.09.49-3.08-.14,1-.71,2.24-.8,3.09a10.2,10.2,0,0,1,1-3.31c1.3-2.72.48,2.25.29,3a8.07,8.07,0,0,1,.6-1.57c0,.09.2,1.41.21,1.57s.23,0,.24,0A32,32,0,0,1,25,77.59a12.47,12.47,0,0,1,.55-1.17,7,7,0,0,1-.17,1.78,24,24,0,0,1-.78,2.91c0,.07.21,0,.24,0,.78-1.72,1.38-3.51,2.21-5.2,0-.05-.21,0-.24,0Z"/><path class="cls-1" d="M27.16,22.74a16.85,16.85,0,0,0-1,3.4c0,.07.22,0,.24,0a11.24,11.24,0,0,0,.34-2c0-.05-.24,0-.24.05-.08.82-.1,1.8.07.14,0-.08-.23,0-.24,0-.17,1.32-.21,3.94-.18.36,0,1.46-.35,2.38,0,0,0-.24.5-2.3.5-.86,0,.06.23,0,.24-.06.09-.47.34-2.1.33-2.05a31,31,0,0,1-.57,3.17c0,.07.22,0,.24,0a30.56,30.56,0,0,0,1.19-6.45c0-.08-.22,0-.24,0-.62,1.94-1,3.93-1.53,5.91,0,.07.22,0,.24,0a24,24,0,0,0,1.19-5.37c0-.09-.22,0-.24,0a18.71,18.71,0,0,0-1.7,5.19c0,.08.22,0,.24,0,.47-1.53.76-3.11,1.19-4.65,0-.07-.22,0-.24,0a35.29,35.29,0,0,0-1.7,5.73c0,.07.22,0,.24-.05.6-1.77,1-3.59,1.56-5.38s.11-.46,0,.05c-.2.9-.4,1.79-.61,2.69,0,.07.22,0,.24,0A52,52,0,0,0,28,16.73c.34-1.84-.06-.7-.22.07-.2,1-.41,1.93-.61,2.9,0,.07.22,0,.24-.05a17.33,17.33,0,0,0,.68-4.76c0,.11-.81,4.89-.39,2.08.13-.89.21-1.79.3-2.69,0,.25-.21,1.49-.23,1.94a40.82,40.82,0,0,0,.08,5.64c0,.07.22,0,.24-.06.76-2.34.55-4.73.51-7.17,0-.06-.24,0-.24.07,0,3-.29,6-.18,9,0,.07.23,0,.25-.06a12.14,12.14,0,0,0,.71-3.33c.15-1.9.08-.17.11.31.07,1,.06,1.93.12,2.9,0,.06.26,0,.25-.07-.11-1.62-.09-3.23-.34-4.83,0-.07-.24,0-.24.07-.11,1.14-.2,2.28-.37,3.42-.34,2.2-.28-1.13-.27-1.52,0-1,.07-2,.12-3,0-.48-.19-3.42-.13-1.33,0,.83,0,1.65,0,2.48,0,.46-.31,4-.46,1.25-.11-2.18.11-4.39.14-6.58,0,0-.24,0-.24.06-.18,1.8-.37,3.59-.68,5.37,0,.07.22,0,.24,0A35.8,35.8,0,0,0,28.25,13s-.24,0-.24.05c-.19,1.58-.2,3.17-.37,4.75s-.06,1,.17-.1.41-1.93.61-2.9c0-.07-.23,0-.24,0-.47,1.92-.77,3.87-1.17,5.79-.58,2.77.6-2,.73-2.61,0-.07-.22,0-.24.05a36.39,36.39,0,0,0-1.41,4.48c-.81,3.11-.17,1,.28-.71a15.94,15.94,0,0,1,.53-1.61,15.9,15.9,0,0,0-.61,2.13c-.57,2.6.61-1.56.8-2.1.71-1.93-.11,1.86-.21,2.28-.52,2.17.07.08.14-.22.23-1,.48-2,.75-2.95-.3,1.07-.35,2.53-.57,3.74-.48,2.58.3-1.67.37-2.22,0-.08-.22,0-.24,0-.18.54-.44,3.25-.44,1.74,0-.08-.22,0-.24,0a7.49,7.49,0,0,0-.85,4.13c0,.07.23,0,.24-.05a10,10,0,0,0,.34-2.88c0-.06-.23,0-.24,0a16.08,16.08,0,0,0-.17,3.6c0,.06.23,0,.24-.06.07-.51.15-3.63-.07-1.57,0,.08.22,0,.24,0,.09-.37.33-2.5-.08-.45a19,19,0,0,1,1.1-2.77c0-.05-.21,0-.24,0Z"/><path class="cls-1" d="M30.43,19.82a12.32,12.32,0,0,0-3.27,2.72c-.07.08.18.07.23,0a12.22,12.22,0,0,1,3.19-2.64c.15-.09-.07-.13-.15-.08Z"/><path class="cls-1" d="M28.37,22.51c-.42.43-.85.85-1.26,1.28a3.66,3.66,0,0,0-.8,1.07c0,.13.2.11.24,0a3.51,3.51,0,0,1,.85-1.13c.38-.4.79-.78,1.17-1.18.1-.11-.14-.13-.2-.06Z"/><path class="cls-1" d="M28,24c-.18.19-2.17,2.22-1.92,2.42a.17.17,0,0,0,.19,0c.11-.08.19-.32.32-.35s.11-.17,0-.13-.26.28-.43.4h.19c-.15-.12,1.7-2.08,1.89-2.28s-.14-.1-.2,0Z"/><path class="cls-1" d="M28.36,24.47c-.89,1.11-2,2.26-2.06,3.81,0,.14.25.11.25,0,.07-1.5,1.15-2.62,2-3.71.1-.12-.13-.18-.21-.08Z"/></g></g></svg>