<svg xmlns="http://www.w3.org/2000/svg" viewBox="0 0 34.49 49.15"><defs><style>.cls-1{fill:#323c90;}</style></defs><g id="Layer_2" data-name="Layer 2"><g id="Layer_1-2" data-name="Layer 1"><path class="cls-1" d="M32.56,29.46c.2-.53.39-1.06.56-1.61a8.85,8.85,0,0,0,.23-1c.07-.3.13-.61.19-.91a2.53,2.53,0,0,0,.07-.38s0-.07,0-.11l-.19.1.07-.41h0l.11.19a.68.68,0,0,0,.16-.44c0-.34.1-.67.14-1s.09-.94.14-1.4a.22.22,0,0,1,.08-.13l.23-.1a.21.21,0,0,0,.14-.27c0-.13-.09-.23-.25-.22s-.15-.13-.16-.23,0-.39,0-.58,0-.57-.06-.85c0-.66-.07-1.33-.14-2s-.19-1.42-.29-2.12a11.41,11.41,0,0,0-.19-1.17c-.14-.57-.3-1.13-.47-1.69s-.43-1.29-.65-1.94c-.16-.45-.32-.91-.51-1.35s-.35-.66-.53-1c-.07-.13-.11-.27-.18-.4-.34-.56-.66-1.14-1-1.68s-.78-1.08-1.18-1.61c-.13-.17-.32-.28-.47-.44s-.3-.36-.47-.53a3.89,3.89,0,0,0-.43-.38.25.25,0,0,1-.06-.33.22.22,0,0,0-.05-.29c-.13-.1-.25-.26-.45-.2a.45.45,0,0,1-.5-.1c-.23-.18-.5-.31-.75-.47s-.36-.24-.54-.35l-.87-.5a1.29,1.29,0,0,0-.19,0s-.09,0-.12,0A3.34,3.34,0,0,0,22.65.87c-.2-.08-.42-.12-.62-.22A5.35,5.35,0,0,0,20.37.18c-.54-.09-1.1-.1-1.65-.14-.31,0-.62,0-.93,0a8.46,8.46,0,0,0-1,.15A8.65,8.65,0,0,0,15.57.4a12,12,0,0,0-1.42.5c-.47.21-.88.51-1.33.74a1.46,1.46,0,0,0-.2.15c0-.07,0-.09,0-.1s.1-.2.08-.22a.58.58,0,0,0-.28-.12c-.27,0-.54,0-.82,0L9.09,1.4a11.69,11.69,0,0,0-1.32.08c-.41,0-.74.23-.79.62a1.18,1.18,0,0,0,0,.42c.14.42.3.83.45,1.24,0,.06,0,.13,0,.15-.19.12-.35.22-.5.33l-.88.7a1.24,1.24,0,0,0-.21.19c-.23.25-.49.49-.71.76s-.46.64-.7,1-.29.37-.42.56a9.35,9.35,0,0,0-.52.86C3.3,8.83,3,9.39,2.78,10S2.27,11.41,2,12.14a14.35,14.35,0,0,0-.38,1.43c-.1.42-.16.85-.22,1.28s-.12,1-.16,1.44a4.34,4.34,0,0,0,0,.72c0,.17,0,.21-.2.17H1l-.75.06c-.17,0-.19.12-.22.25s0,.13,0,.25.35.17.55.24.52.12.79.18a1.8,1.8,0,0,0-.08.39c0,.31,0,.62,0,.93,0,.52,0,1,.07,1.55s.08.9.14,1.34A12.18,12.18,0,0,0,1.77,24a10.4,10.4,0,0,0,.49,1.71,6.4,6.4,0,0,1,.23.66l.35.9c.17.4.34.79.53,1.18.09.19.2.37.3.55s.27.56.42.82.43.72.67,1.08.46.66.7,1,.4.48.61.72l.72.83a.54.54,0,0,0,.16.1A1.27,1.27,0,0,0,7,33.31c.06-.23-.14-.33-.25-.47s-.22-.23-.32-.36c-.24-.32-.49-.63-.72-1s-.62-.9-.9-1.36-.53-.91-.77-1.38-.48-.94-.69-1.43-.44-1.13-.65-1.69c0-.14-.08-.28-.14-.41A.87.87,0,0,0,2.4,25s0-.09,0-.11c.15-.2,0-.39,0-.58-.09-.53-.21-1.05-.3-1.57s-.18-1.12-.24-1.68-.06-1-.08-1.44,0-.72,0-1.07,0-.36.36-.32c.17,0,.34.07.51.08a.91.91,0,0,0,.78-.48c.1-.21.22-.42.31-.57a1.78,1.78,0,0,0,.3,0l1.17-.17c.09,0,.16,0,.16.13s.06.47.07.71c0,.54,0,1.08,0,1.62s.08.89.14,1.33.12.94.22,1.39c.15.64.32,1.27.48,1.9a.1.1,0,0,0,.07.05,24.82,24.82,0,0,1-.65-4h.06c0,.23,0,.46.1.68l.45,2.22a.68.68,0,0,1,0,.14c0,.12,0,.19.14.15a3.81,3.81,0,0,1,.17.51,1.22,1.22,0,0,1,0,.33c0,.12,0,.15.15.1l.62-.34s.07-.08.06-.11-.07-.06-.11-.09.17-.18.33-.18c-.09.1-.25.18,0,.3l-.3.17a1.32,1.32,0,0,0-.2.12s0,.08,0,.12l.11,0,.18,0a.94.94,0,0,1-.64.32L7,24.45c-.17-.13-.34,0-.42.3l-.23-.31h0a1.15,1.15,0,0,0,0,.19c.07.26.13.52.21.78,0,.05.11.08.16.11.1.7.2,1.42.32,2.2a1.53,1.53,0,0,1,.71-.57l.07.08-.17.07A1.66,1.66,0,0,0,7,28a2.15,2.15,0,0,0-.18,1.34,3.78,3.78,0,0,0,.24.79c.16.42.33.83.5,1.25,0,.08.09.15.13.22l.05,0c0-.07,0-.14-.05-.2-.16-.44-.33-.86-.47-1.31a4.07,4.07,0,0,1-.2-1,2.21,2.21,0,0,1,.42-1.35,1.07,1.07,0,0,1,.91-.45,9.08,9.08,0,0,1,.91.05v.07L9,27.42l.13.16-.65,0a1,1,0,0,0-.26-.09,1,1,0,0,0-.79.76c0,.06.07.12.14.22l-.17.11.16.13c-.09,0-.22.05-.23.1a2.63,2.63,0,0,0,0,.43l.16-.13a.39.39,0,0,1,0,.11c-.06.1-.13.19-.19.28s0,.11,0,.13c.22.25.23.59.37.87L8,31a.25.25,0,0,1,0,.07c0,.19.18.24.31.09.3-.32.58-.65.87-1s.39-.47.58-.71l.89-1.11c.15-.18.26-.38.41-.55a.44.44,0,0,1,.27-.14,1.68,1.68,0,0,0,1.18-1.36c0-.12,0-.26.06-.38s0-.09,0-.09.21-.12.28-.21l1-1.21.39-.47.07,0a3.24,3.24,0,0,1,0,.44c-.15.53-.32,1-.47,1.58s-.31,1.17-.46,1.75c-.2.73-.4,1.46-.59,2.2s-.35,1.33-.52,2c-.09.36-.17.72-.26,1.07s-.1.4-.13.6.06.16.09.24h.07a1.27,1.27,0,0,0,.12-.23c.08-.26.15-.52.23-.77s.19-.56.27-.85c.23-.82.44-1.64.68-2.46.13-.47.32-.92.46-1.39a5.81,5.81,0,0,0,.09-.58A4.76,4.76,0,0,1,14,27c.15-.59.31-1.18.43-1.78-.31.63-.38,1.34-.66,2h-.06c.08-.28.16-.56.23-.83.13-.43.25-.85.37-1.28,0-.08,0-.18.16-.18s.06-.08.08-.12l.21-.85.07-.14c.13.19.25.34.35.51a1.63,1.63,0,0,0,.64.61c.2.11.42.2.62.31a1.64,1.64,0,0,1,.84,1.39,2.55,2.55,0,0,1-.14,1.23c-.2.51-.45,1-.67,1.49s-.48,1.15-.68,1.74a4,4,0,0,0-.16,1,1.78,1.78,0,0,0,.24.89h0c0-.17-.07-.35-.09-.53a5.76,5.76,0,0,1,0-.59,1.91,1.91,0,0,1,.14-.52,7.74,7.74,0,0,0,.13,1.19,6.75,6.75,0,0,0,.53,1.08l0,0-.49-.35c.11.28.35.41.54.6-.05,0-.1,0-.14-.07a.39.39,0,0,0-.45-.1c-.61.24-1.21.47-1.81.72a2.14,2.14,0,0,0-.41.25.93.93,0,0,1-1.16-.1c-.36-.3-.7-.61-1-.93a12,12,0,0,1-1.52-2l-.71-1c0-.07-.08-.16-.13-.23s-.12-.09-.18,0-.21.22-.08.39.12.3.31.33c0,0,0,0,0,0,0,.18.17.31.22.45a2.58,2.58,0,0,0,.38.62c.37.48.77.93,1.16,1.4l.5.56c-.38.13-.72.26-1.07.36s-.81.21-1.21.32a.39.39,0,0,0-.11.06.73.73,0,0,0,.08.09.37.37,0,0,0,.5.06,2.73,2.73,0,0,1,.51-.14s.1-.06.1-.08c-.06-.27.12-.17.22-.19l0,0-.15.12c.54,0,1.15-.23,1.2-.56.21.19.39.35.59.5a2.68,2.68,0,0,0,.56.41A1.47,1.47,0,0,0,14.29,35c.3-.16.59-.36.9-.5a4.12,4.12,0,0,1,1.3-.36c.2,0,.43,0,.59-.14,0,0,.06,0,.08,0a4,4,0,0,0,1.24.14l.29,0a.11.11,0,0,1,.09.07c.14.29.26.57.39.86s.18.34.25.52.1.29.15.43a.48.48,0,0,0-.15.59,2,2,0,0,1-.41.21l-1,.24-.05,0c-.21.06-.42.14-.63.18a10.4,10.4,0,0,1-1.12.15,6.14,6.14,0,0,1-1,0c-.42,0-.84-.1-1.27-.16-.25,0-.51-.07-.76-.13a2.15,2.15,0,0,1-.32-.13L12.6,37c0,.07,0,.12,0,.19s-.06-.07-.06-.09,0-.15-.12-.19c-.54-.25-1.08-.49-1.6-.76-.32-.17-.61-.4-.92-.6a6,6,0,0,1-.53-.34l-1.7-1.45a.32.32,0,0,0-.15,0c-.05.08-.13.2-.1.25a1.88,1.88,0,0,0,.32.31l.2.19a1.21,1.21,0,0,0,.16.16l.52.4a1,1,0,0,1,.16.18c-.29,0-.29,0-.21.18-.19-.32-.39-.1-.56-.07s-.59.15-.89.23c-.11,0-.22.11-.31.09s-.1-.16-.16-.25,0,0-.09-.08c.2,0,.24-.13.29-.27s.21-.5.31-.76c0-.07,0-.17,0-.25s.06-.37.16-.45.17-.35.26-.51.09-.16.12-.24c.13-.36.39-.68.33-1.1a1.21,1.21,0,0,0,0-.14c-.33.19-.33.51-.41.8a4.32,4.32,0,0,1-.19.45l0,.06a4.83,4.83,0,0,1-.42.93c-.17.41-.32.84-.48,1.26,0,.12-.1.24-.15.37a.34.34,0,0,0,.32.48,2.47,2.47,0,0,0,1.07-.25c.08,0,.18,0,.26,0l.78-.18h.05c.26-.23.4,0,.58.15a10.72,10.72,0,0,0,.88.62,10.88,10.88,0,0,0,1.22.64,13.72,13.72,0,0,0,1.33.54,10.06,10.06,0,0,0,1.53.38c.52.07,1.05.06,1.58.08a5.1,5.1,0,0,0,.68,0c.37,0,.74-.1,1.1-.16s.53-.1.8-.16a.8.8,0,0,0,.23-.11c-.56.09-1.11.21-1.67.28a5.7,5.7,0,0,1-1.7,0,9.29,9.29,0,0,0,4.46-.94l-.19-.15.06-.22.13.11.07,0-.66-1.87.05,0,.51,1h0v-.19l0,0,.26.6a2.12,2.12,0,0,1,.11.21l0,.09a.41.41,0,0,0,.09.2s.13,0,.18,0a9.05,9.05,0,0,0,2-1.78c.15-.18.34-.33.5-.5a2,2,0,0,0,.18-.23l-.06-.06-.25.24-.53.55-.18.24-.08-.07s0-.09.08-.11a1.29,1.29,0,0,0,.52-.54s0,0,0,0c.27-.11.09-.29.05-.43s-.19-.52-.28-.78l.06,0,.22.51c.05.12.08.25.14.38s.06.06.09.09a.36.36,0,0,0,0-.14c-.11-.32-.23-.63-.33-.95,0-.15-.09-.3-.13-.44h0c.12.26.24.53.37.8s.15.35.23.54a12.36,12.36,0,0,0-1-2.72,1.42,1.42,0,0,0,0,.25c.11.31.24.63.35.94a1.29,1.29,0,0,1,0,.19c-.08-.19-.17-.38-.26-.57a1,1,0,0,0-.18-.28.58.58,0,0,0,.05.45c.07.15.12.29.18.44l-.06,0L22,31.65c0-.12-.09-.25-.14-.38a.4.4,0,0,1,0-.11h0v0l-.22-.45.1,0,.12.48v0h0l.16.23c.11-.23,0-.39-.1-.56-.15-.42-.32-.83-.48-1.24L20.79,28a1.38,1.38,0,0,1,0-.2l0,0L22,30.66l.07,0a1.76,1.76,0,0,0-.07-.33c-.18-.47-.37-.93-.56-1.4l-.68-1.71-.11-.27-.07,0,.24.72-.07,0a7.17,7.17,0,0,1-.57-1.63C20,26,20,26,19.9,26.13c-.1-.1-.2-.17-.32,0-.06-.27-.31-.38-.34-.64,0-.1-.16-.19-.27-.32s0-.22-.24-.19c.25-.2.07-.33,0-.47l-.39-.84,0-.06c-.29-.07-.14-.34-.22-.5s-.21-.45-.32-.68c0,0,0,0-.11,0a2,2,0,0,1,0,.26c0,.11,0,.18-.16.09a5,5,0,0,0,.1-.56c0-.05,0-.1-.05-.16a2.43,2.43,0,0,1-.3-.83l.34,0c-.21.12-.22.17-.09.39,0,.06.05.14.08.21l.3.67a1.29,1.29,0,0,1,.06.21s0,.08,0,.11c.15.25.31.5.44.77a3.5,3.5,0,0,1,.2.54s0,.09,0,.12a2.59,2.59,0,0,1,.41.79,4.2,4.2,0,0,0,.43.74c.08.11.26.16.41.24a.4.4,0,0,0-.05-.43,2.49,2.49,0,0,0-.16-.33.3.3,0,0,0-.09-.13c-.13-.11-.28-.2-.4-.31s0-.13-.06-.21l-.06,0c0-.28-.17-.44-.27-.65-.22-.45-.42-.9-.64-1.35-.12-.26-.26-.53-.4-.79a1.46,1.46,0,0,0-.16-.21c.12-.18.3-.18.39,0l.44.85.62,1.23c0,.08.11.14.14.22.18.42.35.85.53,1.27a.3.3,0,0,0,.16.15s0-.09,0-.13c-.12-.34-.24-.68-.38-1s-.2-.38-.29-.57-.31-.67-.45-1-.23-.6-.33-.9a1.42,1.42,0,0,1-.17-.7,4.71,4.71,0,0,1,.14-.85c.07-.16.3-.26.45-.38l.05.05s-.08.09-.12.1a.57.57,0,0,0-.36.44A2,2,0,0,0,18.69,22c.23.42.46.84.71,1.25.16.26.36.5.55.75l.18.28A14.49,14.49,0,0,0,21,25.67c.24.32.4.68.62,1s.43.64.64,1,.41.65.61,1,.53.77.78,1.17.32.6.5.89c.08.13.19.24.28.37s.1.19.16.28.08,0,.11.06a1,1,0,0,0,0-.14s0,0,0,0a.64.64,0,0,1-.17-.68,1.44,1.44,0,0,0,0-.46l-.24.1c.1-.14.17-.25.24-.36s0-.32-.19-.33l-.23,0,.39-.16v-.07c-.37,0-.75,0-1-.36a1.45,1.45,0,0,0,1-.14c.05.24.11.46.15.69.08.48.15,1,.25,1.43,0,.11.11.22,0,.34l-.12.17a.27.27,0,0,0,0,.18A14,14,0,0,0,26,29.31l.06,0a1.45,1.45,0,0,1-.08.36c-.13.31-.26.61-.41.91-.24.47-.49.94-.75,1.4s-.45.69-.67,1l-.09.19.06,0c.11-.14.24-.28.34-.43a4.87,4.87,0,0,0,.32-.47l.29-.49c.1.47.21.91.3,1.36a.9.9,0,0,1,0,.28l-.06.42.18-.39.07.33c.13.61.27,1.22.39,1.83,0,.21.06.43.09.65s.09.22.27.14.19-.13.12-.31a7.79,7.79,0,0,1-.2-1c-.06-.31-.11-.62-.16-.93-.12-.61-.23-1.22-.35-1.83a4.69,4.69,0,0,0-.19-.86c-.15-.33,0-.54.14-.8s.28-.65.41-1,.25-.68.38-1c.28.13.49,0,.72-.14,0,0,.05-.15,0-.22a.41.41,0,0,0-.57-.23c0-.06,0-.13,0-.18a14.43,14.43,0,0,0,.47-1.94c0-.13,0-.27.05-.4a1.94,1.94,0,0,1,.06-.22c.14.21.31.12.46.08.32-.07.64-.16,1-.24a5.4,5.4,0,0,0,2.05-1,8.93,8.93,0,0,0,1-1,3.43,3.43,0,0,0,.35-.55.27.27,0,0,1,.17-.13l.94-.13.43-.09c-.08.75-.14,1.47-.23,2.19a7.52,7.52,0,0,1-.19.92c-.1.46-.19.93-.31,1.38-.18.63-.37,1.25-.58,1.87s-.39,1-.61,1.55a9.63,9.63,0,0,1-.52,1c-.3.55-.62,1.09-1,1.62a8.56,8.56,0,0,1-.66.92c-.39.46-.8.9-1.21,1.33a7.82,7.82,0,0,1-1,.79c-.28.2-.58.35-.86.55a5.17,5.17,0,0,1-1.31.65l-.58.17s.08.06.11.06c.34-.09.69-.17,1-.29A7.52,7.52,0,0,0,27.48,36a12.7,12.7,0,0,0,1.07-.87,8.17,8.17,0,0,0,.92-.94q.66-.81,1.26-1.68c.3-.45.55-1,.83-1.43.08-.14.16-.28.23-.42l.07,0a.59.59,0,0,1-.06.14,3.65,3.65,0,0,1-.18.34c-.17.33-.34.66-.52,1s-.3.49-.46.73l-.8,1.17a8.69,8.69,0,0,1-1,1.08,8.61,8.61,0,0,1-1.43,1.19c-.23.16-.44.34-.67.5s-.2.09-.3.15l-.34.21.15.08a2.76,2.76,0,0,0-.08.27l-.22,0-1.34.35-.82.22-1,.28a9.64,9.64,0,0,1-1.06.26,1,1,0,0,1-.41-.07v-.05a5.42,5.42,0,0,0,.57,0,4.94,4.94,0,0,0,.55-.15v-.05l-.33-.08a.83.83,0,0,1,.49-.06,5.21,5.21,0,0,0,1-.14,6.85,6.85,0,0,0,.69-.22.34.34,0,0,1,0-.08,4.62,4.62,0,0,0,.65-.08c.2,0,.39-.12.59-.18,0,0,0,0,0,0-.36,0-.71.12-1.06.14a1.28,1.28,0,0,1-1-.42c-.28-.26-.67-.7-.65-.82l.32.22c-.07-.35-.24-.46-.52-.36a1.85,1.85,0,0,1-1.29,0,.5.5,0,0,0-.54.16c-.08.11-.25.14-.41.23l.31.78,0,0-.07-.11a.13.13,0,0,0-.09-.07l.42,1,.05,0c-.05-.16-.11-.32-.17-.48l.06,0c.07.15.15.3.23.45s0,.05,0,.08-.07.16,0,.2.17.29.36.34a1.18,1.18,0,0,0,.72,0L24,38.26l1.37-.39.69-.18,0,.06-.76.33s.06,0,.07,0c.29-.09.59-.18.88-.29s.32-.39.32-.65a.26.26,0,0,1,.15-.24l1.08-.71a4.21,4.21,0,0,0,.52-.4c.43-.42.87-.84,1.26-1.29s.88-1.11,1.3-1.69a6.93,6.93,0,0,0,.43-.75c.19-.34.41-.67.57-1C32.15,30.54,32.36,30,32.56,29.46Zm-9.57,8-.18,0c-.08,0-.18,0-.22,0s-.25,0-.36-.08l.76,0Zm-1.16.48.16,0a1.79,1.79,0,0,0,.23,0s.07,0,.11-.08-.06-.09-.11-.1l-.2,0v0l.44-.1.37.12-.36.12a.28.28,0,0,1,0,.09L23,38a.13.13,0,0,0,0,.06l-1.1,0A.25.25,0,0,1,21.83,37.93ZM25.4,31.8l.45,2.31h-.08l-.42-2.31Zm-1.74-2.34c.27.22.27.22.66.19a1.22,1.22,0,0,1,.2.07l-.3.17c-.1.06-.12.19,0,.23s.09.27.19.38l-.05,0ZM11.45,33.59A5.94,5.94,0,0,1,10.13,32Zm2.71,1.16-.31.21,0-.07.3-.2Zm1.49-.65-.85.33,0-.07.29-.1c.1,0,.19-.13.29-.17a1.35,1.35,0,0,1,.29-.05ZM12.79,31c0,.24-.11.48-.17.72l-.08,0,.19-.71Zm1-3.69a5.23,5.23,0,0,1-.47,1.74A9.52,9.52,0,0,1,13.75,27.34ZM8.2,29.24c-.07.06-.07.21-.11.34a.53.53,0,0,1,.18-.69C8.28,29,8.33,29.13,8.2,29.24Zm24.46-7.19c-.46.06-.92.14-1.38.21l-1.85.25c-.09,0-.19,0-.29,0v-.08c.78-.22,1.6-.22,2.39-.39V22l-1.8.2a.1.1,0,0,1,.05-.08l1-.14c.14,0,.21,0,.23-.19a1.61,1.61,0,0,1,.1-.36c.07-.22.17-.44.22-.66a4.59,4.59,0,0,0,.16-1.28s0-.08.06-.13.1.08.11.13a1.11,1.11,0,0,1,0,.26l-.09.79h.05c.06-.22.11-.44.17-.65l.08,0a8.51,8.51,0,0,1-.38,1.91.3.3,0,0,0,.16-.08,2.21,2.21,0,0,0,.16-.35c0-.1.08-.15.16-.09l-.13.3-.06.16.18,0,.22,0L32,22l1.32-.08v.2l-.19,0A2.45,2.45,0,0,0,32.66,22.05ZM29.9,19.8H30l.05.24c-.05.12-.07.21-.11.3s-.08,0-.1.06C29.74,20.15,30,20,29.9,19.8Zm.17,1.8-.43,0C29.76,21.61,29.88,21.42,30.07,21.6Zm-1-.78,0,.06h.28a.13.13,0,0,1,0,.06l-.49.1c0-.11,0-.23,0-.26a1.11,1.11,0,0,1,.33-.15s.06,0,.1,0Zm.3,1.32v.05l-.72.11,0-.05s.07-.05.1-.05C28.94,22.17,29.15,22.16,29.37,22.14Zm.18-.21-.49.08C29.21,21.79,29.38,21.77,29.55,21.93Zm.19,2.7c.1-.11.13-.32.39-.24l-.36.29Zm-2.57.79a3.7,3.7,0,0,1,0-.6,2.35,2.35,0,0,1,.1-.58,2.14,2.14,0,0,0,.06-.35h.05c0,.11.07.14.18.09a.47.47,0,0,1,.17,0l.75-.1.35,0v.06l-1.42.23v.08l.74-.07v0l-.75.16s0,.05,0,.07l.29,0,.29,0v0l-.61.14a.09.09,0,0,1,0,0l1.18-.15v-.08h-.35c.33-.17.73-.07,1.05-.26a.11.11,0,0,0,0,0l-1,.14s0,0,0-.06l1-.19a.06.06,0,0,1,0,0l-.2-.08c.31-.13.65-.09.93-.28l-.39,0V23.5l.57-.15V23.3l-.46,0v-.06l.21-.05c.12,0,.24,0,.36-.06s.08-.07.12-.1-.12-.05-.17,0l-.42.08c-.28.06-.57.1-.86.15l-.66.09s0,0,0-.06l.24-.05c.14,0,.32,0,.42-.1s.27-.08.42-.07a.94.94,0,0,0,.65-.15,3.57,3.57,0,0,0-.65.06.33.33,0,0,1-.34-.18l3.46-.43a.17.17,0,0,1,0,.07l-.36.09c-.33.07-.66.15-1,.2s-.53.05-.8.08a1,1,0,0,0-.22.09v.06h.21a2.13,2.13,0,0,0,.27-.07,1.36,1.36,0,0,0,.41-.05,1.32,1.32,0,0,1,.71-.08c-.12.17-.36,0-.47.27l.28,0V23l-.44.13.18.13-.3.12a.08.08,0,0,0,0,0l.24,0a1.71,1.71,0,0,1-.23.12c-.05,0-.07.1-.12.19l-.37.08h0a.94.94,0,0,1,0,.1,1.15,1.15,0,0,1-.07.24l-.3.05,0,0c.12-.12.17-.3.36-.35h0a.59.59,0,0,1,.06-.14c.15-.22.31-.42.45-.64a.55.55,0,0,0,.06-.18l-.06,0-.43.59-.05-.13-.74.79a.25.25,0,0,1-.13.05l-.23.09c-.35.16-.64.51-1.09.41l.12.14c-.15.12-.33.23-.49.17s-.19,0-.16.14c-.12,0-.24.13-.33.1S27.28,25.25,27.17,25.42ZM29,23.65l-.95.16s0-.06,0-.09l1-.11Zm-2.52,5c0-.11.07-.23.11-.35l.21.16-.26.22Zm-.28-.55-.51,0c-.28,0-.4-.19-.55-.37s0-.21,0-.33c0-.31,0-.63,0-.95s0-.27-.17-.26-.09-.17-.15-.2a1.68,1.68,0,0,0-.32-.09c-.05,0-.12,0-.13,0a.3.3,0,0,1,0-.16.31.31,0,0,0,.14,0,.6.6,0,0,1,.46-.11c.14,0,.31,0,.47,0,.34,0,.69,0,1,0a.27.27,0,0,0,.12-.09s-.09-.08-.13-.08a2.89,2.89,0,0,0-.29,0s0,0,0,0l.15-.1c-.15-.05-.24-.08-.26.09s-.09.06-.14.09l0,0a.39.39,0,0,0,.1-.08l-.09-.13c.18-.11.43,0,.59-.15a2.51,2.51,0,0,0-1.13.18l.25,0v.05l-.65.16a.16.16,0,0,1,.06-.13,5.11,5.11,0,0,0,.45-.48c.27-.34.53-.69.77-1.05a3.2,3.2,0,0,0,.26-.48c0-.05,0-.14.07-.14a.43.43,0,0,1,.19,0l-.13.21c.23.05.26,0,.21-.16a.21.21,0,0,1,0-.11l.1-.36-.48,0c-.11,0-.25,0-.28-.14l.26,0-.14-.13v0l.23,0c-.08.19,0,.22.15.22l.16,0c.29,0,.58.09.87.12l.9.07.26.05a11.57,11.57,0,0,0-1.45.26c.24.18.47-.06.75,0-.25.14-.54,0-.72.23,0,0,0,0,0,.06l1.18-.16v0l-1.34.24a3.86,3.86,0,0,1,0-.47c0-.06.05-.11.05-.14h.38V23l-.1,0c-.12,0-.24,0-.36,0s-.33,0-.33.23,0,.26,0,.39c-.08.59-.16,1.18-.25,1.76s-.16.91-.25,1.37c-.06.31-.12.63-.2.95C26.26,27.81,26.19,28,26.16,28.09Zm1.4-5.85s.05.09.08.09h.62a.5.5,0,0,1,.14.08l0,0-1.59-.13v-.09a3.13,3.13,0,0,1,.43,0c.16,0,.25,0,.24-.17s0-.18,0-.26h0c-.07-1.09-.13-2.18-.2-3.27a15,15,0,0,1,.29,2.75l.14.1c-.05.07-.16.16-.14.2s.12,0,.2,0a.21.21,0,0,1,.11,0s0,.07,0,.08l-.11,0c-.1,0-.25,0-.26.16h.2a0,0,0,0,0,0,0l-.15.06A.77.77,0,0,0,27.56,22.24Zm-.23-1c0,.1-.07.19-.1.28l-.08,0,.09-.28Zm-.48-8.37c0-.08-.05-.16-.08-.25l.24-.15v0l-.11.16,0,0,.22-.15C27,12.85,27,12.87,26.85,12.88Zm.57-.19c-.1.16,0,.39-.31.44C27.21,13,27.14,12.74,27.42,12.69Zm-.54,3.58-.08,0c-.07-.28-.15-.56-.22-.84l.06,0Zm-.36-1.08c-.05-.18-.1-.35-.14-.53h.06c0,.17.1.35.14.52Zm.25,4.13c0-.21,0-.36-.05-.55C26.88,18.91,26.89,19.05,26.77,19.32Zm-.14,1.82a.48.48,0,0,0,.08.18h.06c0,.05-.06.14-.07.14s-.14.11-.15.17,0,.16-.14.14-.07.1-.06.1,0,.16-.07.22l.27.12s0,0,0,.06l-.67-.09.29-.15h0c.07-.54.15-1.08.23-1.62h0l.06.11c.07,0,.13,0,.17,0s0,.08,0,.13S26.63,21,26.63,21.14Zm-.05-1-.11-.07-.09.18c0-.12-.06-.21.06-.24s.11,0,.16.07A.39.39,0,0,1,26.58,20.15Zm-1.44,4.64c0,.08,0,.24-.13.23a.74.74,0,0,1-.26-.1l-.21.18,0-.06a5.3,5.3,0,0,0,.42-.52c.21-.32.41-.65.59-1,0-.08,0-.2.16-.19a.42.42,0,0,1,.2.1c.05-.21.29-.29.59-.15l-.57.44c.15.19-.09.27-.11.41s-.26.06-.37.15,0,.3-.13.3S25.12,24.65,25.14,24.79Zm1.74-5.35A5.2,5.2,0,0,1,27,20.69h-.07c0-.41-.09-.83-.13-1.25ZM27,20.8A6.67,6.67,0,0,1,27,22c-.18-.21,0-.42-.13-.62s0-.38.06-.57Zm-2.63,4.55h-.06c0-.09,0-.18,0-.3C24.51,25.14,24.35,25.26,24.37,25.35Zm.48,3.12c0-.2-.05-.4-.07-.59l.33.06c.13.47.54.43,1,.34,0,.09,0,.2,0,.26a.57.57,0,0,0-.1.56.15.15,0,0,1,0,.08,2.2,2.2,0,0,0-.39.78l-.39.79-.07,0c.19-.34.05-.66,0-1S24.92,28.9,24.85,28.47ZM24,27.92l.09-.1c.48.1.34.5.4.8a.46.46,0,0,0-.37-.35C23.82,28.21,23.84,28.14,24,27.92Zm-.94.52.15,0c0-.24,0-.46,0-.69,0-.4.08-.8.12-1.21a.31.31,0,0,1,.24-.27c.18-.05.34-.12.53-.19,0,.08,0,.19,0,.34-.16-.23-.3-.06-.43,0a.24.24,0,0,0-.16.32c.08,0,.19,0,.19.05a.48.48,0,0,1,0,.24,1.25,1.25,0,0,1-.08.12c0,.08-.05.16-.09.26l.18,0-.26.58a1.5,1.5,0,0,0,0,.21.65.65,0,0,0,.18-.05c.09-.08.22-.13.24-.29s.09,0,.13-.05h0a1.89,1.89,0,0,0,.09-.21.86.86,0,0,0,.06-.23c0-.12,0-.25.12-.39,0,.21.06.38.09.55s0,.07-.07.09a2.9,2.9,0,0,1-.29.19h0c-.06.13-.1.3-.21.38a.66.66,0,0,0-.34.75h-.05ZM23.4,26c.12-.08.17-.24.37-.25C23.7,25.9,23.53,25.89,23.4,26Zm-.43.56a2.38,2.38,0,0,1,0-.34.1.1,0,0,1,.06-.07l.31-.08C23.21,26.22,23.08,26.38,23,26.51Zm-.76.64c.27,0,.53.15.75-.17a3.43,3.43,0,0,1,0,.4c0,.19-.08.37-.11.55a.36.36,0,0,0,.06.2,2.56,2.56,0,0,0,.11.24c-.21-.17-.39-.34-.28-.64,0,0,0-.11,0-.16l-.17.1C22.45,27.51,22.33,27.34,22.21,27.15Zm-.28-.95s0,0,0-.06l.38-.14a.14.14,0,0,0,0,.06C22.19,26.12,22.08,26.23,21.93,26.2Zm0,.37a.36.36,0,0,1,.22.37C21.93,26.88,21.91,26.73,21.89,26.57Zm-1.05-1.49a.05.05,0,0,1,0,0l.27.38,0,0Zm-.14-1.22-.2-.28c.39-.25.46-.47.21-.6,0-.17,0-.32-.06-.48h0c.08.21.15.44.25.65a4.36,4.36,0,0,0,.82,1.39,2.89,2.89,0,0,0,1,.62c-.26.17-.5.34-.76.49s-.35.19-.56.3l-.23-.36h.08c.23.11.24.1.35-.12s.21-.21.42-.11c0-.11-.05-.19,0-.25s0-.22-.11-.31-.17-.15-.24-.23a3.8,3.8,0,0,0-.42-.55.64.64,0,0,1-.2-.38c0-.05-.08-.09-.12-.14a.61.61,0,0,0-.12.16A1.19,1.19,0,0,0,20.7,23.86Zm-.47-.69.31-.13C20.41,23.3,20.39,23.3,20.23,23.17Zm-.53.1.42,0c-.06.07-.14.13-.13.16a2.33,2.33,0,0,0,.31.7,2.15,2.15,0,0,1,.27.52A7.76,7.76,0,0,1,19.7,23.27Zm-1.13-2.51.07-.33C18.68,20.54,18.83,20.66,18.57,20.76Zm.42,1a.21.21,0,0,0,0,.3s.08.06.1.1.13.23.19.34l.26.48,0,0c-.08-.11-.17-.22-.24-.33s-.29-.46-.43-.7a1,1,0,0,1-.14-.58C18.82,21.51,18.73,21.77,19,21.75Zm.24-.09a1,1,0,0,1,.23-.17,1,1,0,0,0,.51-.42,1.61,1.61,0,0,1,.21-.29c0,.13.06.26.08.38s-.13,0-.16,0-.27.22-.39.34A.49.49,0,0,1,19.23,21.66Zm-.09-.86-.21.12c0-.25,0-.47,0-.71C19.17,20.34,19.06,20.61,19.14,20.8Zm-.32-1.21a.71.71,0,0,1,.88.29c-.08-.06-.16-.1-.23-.16a.14.14,0,0,0-.23,0c0,.05-.12.06-.19.09s0,0,0,0l.18-.1a.09.09,0,0,0,0-.05Zm0-.46c-.05,0-.12.06-.14,0s-.06-.06-.12,0l-.52.2c.08-.28.33-.31.52-.35a1.46,1.46,0,0,1,.94.09,2.91,2.91,0,0,0,.47.13.57.57,0,0,0,.08.08s.11,0,.12.06.13.1.2.08.29-.08.44-.12.09,0,.13,0a1.05,1.05,0,0,0,.3,0c.24-.05.48-.13.72-.19s.66-.16,1-.24c.11,0,.25-.1.31-.06a.45.45,0,0,0,.45,0c.4-.13.81-.17,1.2-.31a.25.25,0,0,1,.12,0c.06,0,.11,0,.16,0l.62-.12.61-.15c.2,0,.2,0,.11-.19a.57.57,0,0,1,0-.13l-.26,0s0,0,0-.05l.27-.14-.15,0c0-.05.1-.11.09-.16-.06-.38-.13-.77-.21-1.15,0-.19-.1-.38-.14-.56S26,15.3,25.9,15s-.18-.56-.27-.83l-.3-.9c-.06-.17-.09-.35-.16-.51-.15-.37-.33-.73-.51-1.11l-.23.08.07-.1c.09-.09.17-.16,0-.28a.39.39,0,0,1-.13-.28c0-.15,0-.17-.16-.15l0-.06c0-.06,0-.12,0-.18s-.12.05-.15.09-.19.23-.28.35l-.06.13,0,0,.25-.17a.92.92,0,0,1-.17.29c-.3.31-.61.61-.91.93a2.63,2.63,0,0,0-.2.33h0l.37-.31.29-.24,0,0-1.6,1.7-.05,0,.13-.15.34-.38a3.73,3.73,0,0,0,.26-.3c.08-.1.15-.21.22-.31h0a.44.44,0,0,0-.17.07l-.76.78,0,0h0a6.54,6.54,0,0,1-.41.51c-.32.35-.65.68-1,1l-.29.27,0,0c.21-.23.41-.46.62-.68l1-1.05s.06,0,.1,0h0l0,0a3.37,3.37,0,0,1,.27-.42c.16-.18.34-.34.5-.51s.48-.48.71-.73a5.72,5.72,0,0,0,.37-.46s0,0-.05-.05l-.15.1-.85.91c-.24.25-.46.52-.69.76s-.24.19-.36.29l0-.05,2.69-2.86a3.89,3.89,0,0,1,.3.5,10.07,10.07,0,0,1,.53,1.21,8,8,0,0,0,.3.82c.09.25.19.5.28.74a5.44,5.44,0,0,1,.22.5c.06.22.07.44.12.66.14.54.29,1.08.43,1.62a3.06,3.06,0,0,1,.1.41c.07.38.12.76.18,1.13,0,.2.06.39.08.59l0,0c0-.24-.16-.27-.35-.21a1.92,1.92,0,0,1-.4.09c-.16,0-.18.08-.18.21s0,.35-.06.52h-.06l-.06-.63h-.06l-.16.2c.07,0,.14,0,.16,0a.15.15,0,0,1,0,.13c-.1.16-.21.31-.31.46s.07.1.06.11c-.15.17,0,.23.1.29a1.68,1.68,0,0,1-.14.3c-.11.13,0,.42-.28.39a.73.73,0,0,1,.07.25.43.43,0,0,0,.06.4s0,.07,0,.11H25l-.16-.1c0,.09,0,.17-.05.25l-.1.24a2,2,0,0,0-.06.23l-.06,0a.27.27,0,0,1,0-.09l.09-.39a1.55,1.55,0,0,0,0-.21,4.34,4.34,0,0,0,.14-.6c0-.55.07-1.09.1-1.63a.38.38,0,0,0,0-.19.18.18,0,0,0-.12-.08c-.26,0-.51.11-.77.15l-1.12.2c-.11,0-.2,0-.19.18a2.26,2.26,0,0,1,0,.45c0,.42-.11.84-.19,1.25a5.2,5.2,0,0,1-.21.67l-.06,0,0-.61c0-.19.22-.3.11-.55,0,.05,0,.08,0,.1a.35.35,0,0,1,0,.08,3.25,3.25,0,0,1,.39-1.42,1,1,0,0,0-.38,0c-.24,0-.47.1-.71.13s-.37,0-.5.06a1.1,1.1,0,0,1-.56.07.35.35,0,0,0-.38.23c0,.08.08.19.11.26.28,0,.24-.2.31-.33a.25.25,0,0,1,0,.38.42.42,0,0,0-.08.22.66.66,0,0,0,.22.6l-.09.09h.05l.15.27a.34.34,0,0,0,.08.09.14.14,0,0,0,.08,0c0-.07.11-.15.1-.23a.82.82,0,0,1,.22-.62c.11-.12.09-.35.14-.52a2.67,2.67,0,0,1,.09-.26h.06a.55.55,0,0,1,0,.18c0,.17-.08.34-.11.52a1.65,1.65,0,0,1-.46,1s0,.08-.05.12.1.05.13,0,.25,0,.34.12l.12.09c.12-.27.24-.51.35-.75a.13.13,0,0,1,0,.12c-.15.37-.29.73-.43,1.1,0,0,0,.09-.06.11s-.22.15-.33.23,0,.16,0,.24l0,0a1.09,1.09,0,0,1,.13.17,2.8,2.8,0,0,1,.06.28s.09.06.1.11a2,2,0,0,0,.69,1.08,1,1,0,0,0,.57.25,1.32,1.32,0,0,0,.92-.31c.17-.15.35-.27.35-.53,0,0,0,0,.07-.07a.21.21,0,0,1,0,.11,1.21,1.21,0,0,1-.05.18l.08,0,.21-.55-.05,0a1.71,1.71,0,0,1-.11.14h0c0-.12.09-.24.15-.4l.06.23a3.66,3.66,0,0,0,.2-.39,1,1,0,0,1,1.55-.34h-.37c-.24,0-.49-.08-.66.16a.88.88,0,0,1-.12.21c-.12.14-.18.27-.07.42l-.26.36-.32.54,0,.11a.24.24,0,0,0,0,.12c.22.11.06.23,0,.35-.13-.05,0-.28-.23-.28a2.69,2.69,0,0,0,.14,1.13c.05.38.16.75.24,1.12h.1c0-.28,0-.56-.07-.85l.25.05c-.06.07-.17.13-.16.19a3.37,3.37,0,0,0,.12.53.52.52,0,0,1,0,.11.47.47,0,0,0,.16.52c-.17.09-.19,0-.22-.11s-.05-.19-.08-.28l-.09,0c.12.69.25,1.38.37,2.07H24.8c-.36-1.4-.6-2.83-.9-4.25a2.81,2.81,0,0,0,.06.65c0,.13,0,.11-.09.07a1,1,0,0,0-.11-.26s0-.1,0-.11,0-.19,0-.33l-.44.43a1.89,1.89,0,0,0,.11-.25l-.54,0h0l.56-.14a.48.48,0,0,1,.07-.18c.09-.09.21-.14.29-.23a4.23,4.23,0,0,0,.32-.42l-.05,0s0,0,0,0a1.46,1.46,0,0,1-1,.58c-.11,0-.22-.05-.33-.05a.76.76,0,0,1-.52-.17c-.13-.1-.2-.3-.42-.25l0,0a4.83,4.83,0,0,1-.44-.67,10.34,10.34,0,0,1-.41-1.1L20.63,22h-.05c0,.12.05.24.07.36a.2.2,0,0,1-.07-.1c0-.15-.13-.17-.25-.06a1.41,1.41,0,0,1-.23.18.64.64,0,0,1-.51.08c.15-.09.3-.15.45-.23a.92.92,0,0,0,.32-.2,1.07,1.07,0,0,0,.11-.37l-.08,0a2.4,2.4,0,0,0-.32-1.3,6.28,6.28,0,0,1-.49.54c-.28.25-.53.35-.65.29l.35-.22-.16,0c.05-.06.11-.11.16-.1.22,0,.33-.11.4-.27A4.56,4.56,0,0,0,19.8,20c.08.09.14.18.21.27l0,0a.58.58,0,0,0-.05-.14c-.12-.19-.25-.38-.38-.55s-.29-.35-.55-.31c0,0-.06-.05-.09-.08s-.06-.07-.08-.07S18.85,19.12,18.82,19.13Zm6.75,1.37h-.06l.07-.37C25.69,20.29,25.71,20.41,25.57,20.5Zm-.48.59.06-.36.08,0C25.32,20.89,25.2,21,25.09,21.09Zm-.48,1.46c0-.23.13-.34.27-.32Zm-.21-1.43c.09.18,0,.25-.15.31a.48.48,0,0,1-.54.36.77.77,0,0,1-.6-.64,1,1,0,0,1,.34-.93.66.66,0,0,1,.53-.08.79.79,0,0,1,.42.87S24.38,21.09,24.4,21.12Zm-2.32-1c0-.18.05-.36.08-.54h.05l-.09.54Zm0,.16-.12.51-.06,0c0-.17.07-.34.1-.51Zm.25,2c.17-.1.32-.23.51-.07s.28.24.43.35l0,.06c-.25.06-.29.15-.14.37,0-.08.07-.15.1-.22h0a2.69,2.69,0,0,0,0,.4c0,.1,0,.15-.11.17s-.23.1-.35.14-.28.07-.41.12a.5.5,0,0,0-.14.1c0-.15-.12-.22-.23-.31a.25.25,0,0,1-.07-.18s.06-.06.1-.1l.08-.07s0,0,0,0l.13.05a.57.57,0,0,0,0-.14s0-.07-.06-.08-.07-.14,0-.21.08-.08.12-.11.29,0,.35.11.08.23.09.36-.13.1-.22.11-.19.09-.14.21a.24.24,0,0,0,.21.05.43.43,0,0,0,.32-.52c0-.11.05-.27-.14-.31a.44.44,0,0,1-.38-.24s0,0,0,0c-.26.16-.47.35-.31.75-.23-.21-.3-.08-.35.09l-.12-.09.26-.22c0-.13,0-.25,0-.38l-.14,0a1.08,1.08,0,0,1,.13-.15v0c.05,0,.11,0,.15,0A1.75,1.75,0,0,0,22.37,22.3Zm.53-.24a.42.42,0,0,1,.58.05l.14.08c.08,0,.18.08.21.14a4,4,0,0,1,.24.57S24,23,24,23s-.16.06-.19.11a1.35,1.35,0,0,0-.08.36,1,1,0,0,1-.29-.61l.05,0,.19.21a1.37,1.37,0,0,0,0-.23.79.79,0,0,0-.09-.23,1.11,1.11,0,0,0-.26-.27,3.65,3.65,0,0,0-.35-.14S22.88,22.08,22.9,22.06Zm1.63,0,.06,0c0,.12-.05.25-.08.38l-.09,0C24.46,22.29,24.49,22.16,24.53,22Zm.83-12,.05.05c-.13.13-.25.27-.37.4s-.12.1,0,.22,0,.23.15.31,0,.05,0,.08h0l-.28-.57C25,10.35,25.19,10.19,25.36,10Zm-.44.23-.07-.07.31-.3,0,0ZM25.45,12s0,0,0-.07c-.09-.23-.19-.46-.27-.68,0,0,0,0,0-.05l.09,0c0,.11.07.2.1.27s.16.21.16.31a2.22,2.22,0,0,0,.23.7s0,.08,0,.12-.07,0-.07,0C25.67,12.33,25.39,12.22,25.45,12Zm.34.83c.16.12.2.23.1.32,0-.1-.09-.2-.13-.29ZM26,9.7l.06.06-.48.46c-.15.15-.21.4-.5.45Zm.34,4.66-.27-.21c.11-.34-.1-.64-.13-1H26Zm-7,1.34,0,.05c-.2.22-.4.45-.61.67l-.05-.05Zm-.54.34L18.76,16l.4-.4,0,0Zm2.23,2.65c.06-.19.23-.13.35-.13s.15.09.26.16a3.57,3.57,0,0,1-.34.14s-.12,0-.12,0S21.09,18.75,21.05,18.69Zm1.11-3,.16,0,.08.18c0,.11-.06.21-.1.32C22.06,16,22.06,16,22.16,15.65Zm.16,3,0,0c0,.07,0,.14,0,.23l-.12,0a.56.56,0,0,1,0-.17A.29.29,0,0,1,22.32,18.65Zm-.15-4.77,0-.05a12,12,0,0,1,1.09-1.16l.05,0Zm.57-.3-.19.23C22.54,13.61,22.57,13.58,22.74,13.58Zm.15,4.73a.09.09,0,0,1,.09,0s0,0,0,.06,0,.09.05.16l-.17,0c0-.07,0-.12,0-.17S22.87,18.32,22.89,18.31Zm.67-4.4s0,0-.06,0-.06-.09-.05-.12.06-.07.1-.1.08.07.08.11,0,.2,0,.3h-.05C23.55,14,23.55,14,23.56,13.91Zm-.15-1.47.57-.62a.12.12,0,0,0,.05,0l-.56.63Zm.17-.41L23.51,12l.69-.7,0,0Zm-.16,6.2s-.1,0-.19.07l.11-.23h.06A.56.56,0,0,1,23.42,18.23Zm-1.56-3.32-.07-.07.45-.44,0,0Zm-.24-.46,0,0L22,14l0,0C21.88,14.17,21.75,14.31,21.62,14.45ZM20.11,15.6l.95-1,.06.06-.95,1Zm.28,0s0,0,.05,0l-.27.31-.05,0Zm.8-.85.06.06-.72.76,0,0Zm.24.1.06.06-.25.24,0,0C21.27,15.06,21.35,15,21.43,14.89Zm-.19-.49a2.16,2.16,0,0,1,.5-.5l0,0-.48.5Zm-.15,4.72-.56.12c0-.08,0-.15,0-.25a.42.42,0,0,1,.12,0l.11.1a1.3,1.3,0,0,0,.1-.15Zm-.79-1.67-.83.62c-.09.07-.15.2-.24.23a1.49,1.49,0,0,0-.6.45.78.78,0,0,1-.2.11s-.11,0-.13.05a1.12,1.12,0,0,1-.42.24c-.17.08-.23,0-.32-.09a.22.22,0,0,1,0-.31,2.85,2.85,0,0,1,.42-.43c.2-.18.48-.28.54-.59.19.09.3-.05.41-.13l.47-.44a3.79,3.79,0,0,0,.31-.37c.11-.13.2-.27.3-.4l.06,0-.23.33a.39.39,0,0,0,.2-.05l.88-.64a.16.16,0,0,1,.15,0,2.6,2.6,0,0,1,.25.33l.32-.2a.49.49,0,0,1-.15.23.23.23,0,0,1-.15.07c-.14,0-.18,0-.19.16h0c.07.12,0,.18-.1.24C20.8,17.08,20.55,17.27,20.3,17.45Zm-.89-1.09.06.05a4.09,4.09,0,0,1-.71.73l0,0C19,16.85,19.18,16.61,19.41,16.36Zm-.9.7-.05,0,.48-.5,0,0C18.83,16.73,18.67,16.9,18.51,17.06Zm1.1-.57.06.06c-.17.18-.34.37-.52.55L19.08,17ZM18,17.54l.35-.36,0,0c-.11.12-.22.25-.34.37Zm.14-.5a1.86,1.86,0,0,1,.56-.59l.06.07-.58.56Zm1.82-1.59,0,0a.6.6,0,0,0-.09.13.62.62,0,0,0-.07.16l.25-.08a.05.05,0,0,1,0,0l-.52.59,0,0c0-.2.31-.26.29-.55l-.46.4,0,0C19.53,15.88,19.74,15.67,19.94,15.45Zm-.18-.18c.57-.6,1.11-1.23,1.69-1.82l.07.08-1.7,1.8Zm4.73,2.92-.14-.08,0,0,.45-.11,0,.05-.3.15s0,0,0,0h.14s0,0,0,0l-.22.13.21.07-.2.09a0,0,0,0,1,0,0,1.91,1.91,0,0,1,0-.21h0A.83.83,0,0,1,24.49,18.19Zm.37-4.38.22-.16a2.14,2.14,0,0,1,.13.19C25.13,14,25,13.76,24.86,13.81Zm-8.15,6.93s-.06,0-.06-.07,0-.09.05-.1.11,0,.17,0a2.67,2.67,0,0,0,.46-.2c.18-.11.34-.26.55-.42,0,.12-.07.2-.1.27l0,0a1.56,1.56,0,0,0,.2-.16,3.34,3.34,0,0,1,.32-.33,1.42,1.42,0,0,1,.35-.17.43.43,0,0,1,0,.07c-.55.16-.7.75-1.12,1.06,0-.15.24-.24.1-.46a1.42,1.42,0,0,0-.17.21A.66.66,0,0,1,16.71,20.74Zm1,2.15c0,.2-.05.37-.07.54h-.07a3.6,3.6,0,0,0-.8-1.41,1,1,0,0,1,.61.65C17.41,22.81,17.43,23,17.69,22.89Zm-1.26-1.21c.07-.22.13-.39.19-.56l.12.06.1,0a.11.11,0,0,1,0,.05C16.51,21.2,16.63,21.55,16.43,21.68Zm0,.09.08,0a1.43,1.43,0,0,1-.33.62C16.27,22.21,16.35,22,16.43,21.77Zm1.06,3s0,.06.07.08l.21.18-.05.05L17,24.42l.06-.06C17.1,24.59,17.47,24.48,17.49,24.79Zm-.35-1a.14.14,0,0,1-.13,0c-.05-.13,0-.19.16-.25C17.23,23.59,17.29,23.7,17.14,23.75Zm-.32-.84.18-.16.08.05c-.09.07.12.2-.07.24S16.88,23,16.82,22.91Zm1.36,1.24-.08,0c0-.12-.07-.24-.1-.36l.07,0C18.11,23.91,18.14,24,18.18,24.15Zm.38,1.92c-.18-.16-.27-.39-.2-.51s.1-.06.12-.07C18.51,25.69,18.53,25.87,18.56,26.07Zm.3.72c0-.15,0-.25,0-.35l.06,0a1.13,1.13,0,0,1,.1.38,1.2,1.2,0,0,1-.16.35l-.15-.53,0,0Zm.17-.9c0,.16,0,.29-.05.42h0c0-.16-.07-.31-.11-.52Zm.31,2-.18,0,.06-.3h0A2.34,2.34,0,0,0,19.34,27.93Zm-.11.94c0-.06,0-.1-.07-.17.26,0,.07-.17.15-.25C19.44,28.61,19.43,28.72,19.23,28.87Zm.78,1c0,.15.07.3.11.45l-.24,0c0-.17.07-.33.1-.48Zm.28.16c0,.09,0,.15,0,.25-.29-.26,0-.48,0-.71.17,0,.15.14.16.24S20.47,30.09,20.29,30.06Zm-.08,2.43h-.06l-.09-.39.05,0A.49.49,0,0,1,20.21,32.49Zm.25-4.84-.05,0c-.13-.35-.25-.7-.37-1.05l.07,0A4.8,4.8,0,0,1,20.46,27.65Zm.44,4a2.1,2.1,0,0,0-.13.26.74.74,0,0,1,0-.82C20.82,31.31,20.86,31.51,20.9,31.68Zm.59-1.43c-.14-.12-.26-.26-.17-.47C21.38,29.94,21.44,30.1,21.49,30.25ZM19.1,34c.12.08.25.11.3.19s.25.14.4.12h.1c0,.09.05.17.07.24-.2.16-.16.41-.26.66ZM15.37,23.79a.26.26,0,0,1,0-.34l.54-.69a.16.16,0,0,1,.1-.05c-.22.29,0,.51.11.73l.05.08c.24.34.46.7.73,1a4.43,4.43,0,0,0,.51.45l.09.09.48.42a.44.44,0,0,0,0-.22c-.11-.4-.23-.8-.34-1.19a.76.76,0,0,1,0-.15c.14.12.28.23.22.41s0,.29.22.24c0,.07,0,.13,0,.2L18,24.69a.56.56,0,0,0,0,.22c.06.23.15.46.21.69l.39,1.5c.09.35.18.71.26,1.07s.12.59.19.88.21.66.3,1c0,.13,0,.26.07.39s.13.55.18.82a6.55,6.55,0,0,0,.33,1.39.63.63,0,0,1,0,.19c0,.31.22.58.19.9h0l.05-.11c.13.34.24.64.34,1l.06,0c-.06-.23-.12-.46-.19-.69l.07,0a1.22,1.22,0,0,0,.07.17l.12.21h0c0-.11,0-.22,0-.33h.06l.3,1,0,0c-.09-.22-.18-.44-.28-.66h0a3.62,3.62,0,0,0,.41,1.28c0-.11,0-.22,0-.33l.27,0s-.08.06-.09.1a.23.23,0,0,0,0,.12h.07a3.83,3.83,0,0,1,.29-.28.67.67,0,0,1,.46-.25A5.67,5.67,0,0,1,20.59,36l.17-.25c-.07,0-.16,0-.18,0a6,6,0,0,1-.28-.7c-.08-.27-.13-.54-.2-.81a.13.13,0,0,0-.07-.09,4.5,4.5,0,0,0-.48-.16l-1-.22a2.57,2.57,0,0,0-1.29-.06.07.07,0,0,1-.06,0,2.51,2.51,0,0,1-.65-.45,2.15,2.15,0,0,1-.43-1.34,3.62,3.62,0,0,1,.36-1.48c.19-.46.43-.89.65-1.34a9.71,9.71,0,0,0,.49-1,2.27,2.27,0,0,0,.11-1.32c-.05-.21-.08-.44-.14-.66a.37.37,0,0,0-.07-.12l-.05,0A2.47,2.47,0,0,1,17.43,28a7.58,7.58,0,0,0,0-1.26,9,9,0,0,0-.34-1.22l.3.29.05,0c0-.07-.06-.15-.1-.21a2,2,0,0,0-1-.73,3.83,3.83,0,0,1-.59-.24.23.23,0,0,1-.12-.12C15.58,24.22,15.49,24,15.37,23.79Zm-.17-.12c.1.22.19.41.29.6l-.05,0A.51.51,0,0,1,15.2,23.67Zm-2.66,1,.1-.05a1.42,1.42,0,0,1,.08.18s-.06,0-.09.07Zm-3.07,3,0-.07.39.11s0,0,0,.07Zm-.09-.25a.14.14,0,0,1,0-.06l.89.14s0-.06,0-.08l-.26-.1a.54.54,0,0,1,.46.12.31.31,0,0,0,.19,0s.06,0,.09,0c.24,0,.5,0,.7-.2l.35-.29c0,.06,0,.11,0,.17a.35.35,0,0,0,.2-.13,1.81,1.81,0,0,0,.23-1.38c-.06-.43-.2-.84-.27-1.27a1.52,1.52,0,0,1,.27-.94l.1,0c.22.1.22.1.08.29a1,1,0,0,0-.13.87c.05.24.15.46.22.69a3.53,3.53,0,0,1,.08.4l-.16,0a.93.93,0,0,0,0,.29.83.83,0,0,1-.06.54,3.2,3.2,0,0,1-.16.39c0,.06,0,.15-.08.19a1.9,1.9,0,0,1-1.5.58c-.36-.06-.73-.08-1.1-.12A.91.91,0,0,1,9.38,27.4ZM12,26.51a3.35,3.35,0,0,0-.21-1.63A1.61,1.61,0,0,1,12,26.51Zm-.22-1.82a1.28,1.28,0,0,1,0-1C11.82,24,11.81,24.32,11.8,24.69Zm-.69-.91s0,0,0,0l.31-.18a.2.2,0,0,0,0,.08ZM11,22.25l-1.54.8,0-.07,1.53-.8A.16.16,0,0,0,11,22.25ZM10.82,22c0-.1,0-.18,0-.26s0-.05.06-.07.05,0,.06,0S11,22,10.82,22ZM9.57,22l.13.24c-.07,0-.15,0-.16-.09a.86.86,0,0,1,0-.28.1.1,0,0,1,.08,0l.2.15,0,.06Zm.85.72a1,1,0,0,1-.54.29h0l-.41.2,0,0h0a4.37,4.37,0,0,1-.89.51l0-.05.12-.19-.15-.05s0,0,0-.06L9,23.19l0,.06-.38.24,0,.05c.19,0,.33-.14.5-.19l.24-.08s0,0,0,0h0c.11-.11.22-.23.41-.2h0A1.06,1.06,0,0,1,10.42,22.75ZM8.21,20.61a1.68,1.68,0,0,1-.8-1c-.08-.23-.13-.47-.2-.7a1.89,1.89,0,0,0-.09-.21l-.08,0c0,.13.09.27.14.41l-.08,0-.51-1.69,0,0c.12.35.24.69.35,1l.07,0c0-.25-.09-.51-.13-.75l.22.16,1.49.77a7.12,7.12,0,0,0,1.74.82l0,0a1.25,1.25,0,0,0-.7.6,1.59,1.59,0,0,1-.14.26A.93.93,0,0,1,8.21,20.61Zm1.54-.37c.06-.12.11-.25.18-.37a.64.64,0,0,1,.6-.25l0,.05-.21.11a1.18,1.18,0,0,0-.28.2c-.15.18-.27.39-.41.58a.38.38,0,0,1-.39.19A.86.86,0,0,0,9.75,20.24ZM9.65,19l-.48-.26,0-.05.47.25Zm-.8,2.69c.09-.09.09-.09.17,0l-.52.18-.06-.42.05,0a.58.58,0,0,1,.16.19C8.7,21.75,8.74,21.76,8.85,21.66Zm-.07,1.4c-.25.25-.25.25-.43.19C8.51,23.22,8.56,23,8.78,23.06Zm2-.28,0,0-.79.43,0-.06ZM9.72,23.89c.25-.07.38-.33.66-.27a.61.61,0,0,1-.22.13c-.08,0-.19.05-.14.2l.15,0a.08.08,0,0,0,0,0l-.28.12C10,23.86,9.84,23.94,9.72,23.89Zm.83-.22.07.06-.21.15a.18.18,0,0,0-.05-.07ZM9,24.07,9,24a4.69,4.69,0,0,1,1.4-.64Zm1.66,1.26a1.71,1.71,0,0,1,.11-.14l.1-.09a.58.58,0,0,1,.06.15C10.88,25.41,10.79,25.43,10.64,25.33ZM9.28,28.72c0,.13,0,.2,0,.27l-.08,0a.64.64,0,0,1-.06-.18S9.19,28.77,9.28,28.72Zm-.64-1.67a.15.15,0,0,0,0-.07l1.14.22s0,.05,0,.07Zm-.31-2.64a.08.08,0,0,0,0,0l.49-.29,0,.07ZM8,26.47l.19.35C8,26.84,7.94,26.76,8,26.47ZM8,26c.06.17.11.32.15.47C7.91,26.24,7.87,26,8,26Zm-.21-.77.45-.25,0,.07-.46.24Zm-.75.37.32-.12,0,.08-.32.12Zm-.13-.47,1.25-.65,0,.07c-.29.18-.65.24-.85.57l.53-.19.42-.25,0,.05a.77.77,0,0,1-.45.2.36.36,0,0,1-.07.1L7,25.42l0,0,.24-.24a.08.08,0,0,1,0,0l-.22,0Zm-.15-.14-.14.18H6.56a1.79,1.79,0,0,1,0-.23Zm1.88-1.06,1.21-.61,0,.06-1,.53c-.33.18-.66.38-1,.54a4.46,4.46,0,0,1-1,.48C7.43,24.52,8,24.2,8.65,23.88Zm-.31-.28L8,23.79C8.15,23.54,8.18,23.53,8.34,23.6ZM8,23.47l.23-.16C8.19,23.51,8.19,23.51,8,23.47Zm.29.37,0,.07-.78.4,0-.07Zm-.49-1.38a.56.56,0,0,1,0-.12h.06a.32.32,0,0,1,0,.13.91.91,0,0,1-.07.14h0C7.77,22.56,7.76,22.51,7.76,22.46Zm.08.28h0c0,.13,0,.25,0,.37s-.07,0-.1,0,0-.07,0-.09A2.92,2.92,0,0,1,7.84,22.74Zm-.28-.36a2.44,2.44,0,0,1,0,.26s-.17,0-.18,0S7.47,22.44,7.56,22.38Zm-.77,1.8c0-.17.18-.26.38-.25Zm-.45-1.35h.07l0,.39H6.39C6.37,23.09,6.36,23,6.34,22.83Zm-.6-4.61a2.91,2.91,0,0,1,.08-.93H6c.36.05.46.18.53.52a6.58,6.58,0,0,0,.28.89c0,.06.1.12.1.17a2,2,0,0,0,.24,1A2.12,2.12,0,0,0,8,20.89a5.54,5.54,0,0,0,.65.29s0,0-.06,0a4.24,4.24,0,0,0-1.17.33s0,0,0,0a.67.67,0,0,0-.6.28,1.16,1.16,0,0,0-.32.75c0,.05,0,.1,0,.18,0-.21-.06-.39-.09-.56s-.16-.6-.2-.9c-.09-.55-.14-1.1-.22-1.65,0-.2-.1-.4-.12-.6S5.74,18.49,5.74,18.22Zm.11-1.09,0,0c0-.23,0-.47,0-.73a1,1,0,0,1,.4.64C6.1,17.05,5.89,16.75,5.85,17.13ZM5.5,18.41h.08c0,.39,0,.78.08,1.17H5.57C5.55,19.19,5.52,18.8,5.5,18.41Zm0-.11c0-.17,0-.33,0-.49h.06c0,.16,0,.32,0,.49ZM3.73,17.12a2,2,0,0,1,.56-1,.9.9,0,0,1,.7-.27.75.75,0,0,1,.37.11s.07.05.06.07c0,.22-.06.44-.11.66,0,0-.08.06-.12.07l-.68.09a2.49,2.49,0,0,1-.37.09C4,16.92,3.83,16.92,3.73,17.12Zm-.16-.26a1.43,1.43,0,0,1,.9-1.06A2.45,2.45,0,0,0,3.57,16.86Zm-1.86.95c0-.18,0-.34,0-.48.24.2.51.05.76,0s.53,0,.73-.22a1.84,1.84,0,0,1-.1.42.65.65,0,0,1-.53.42c-.22,0-.43-.08-.65-.12Zm-.1,0-.82-.18.44-.11s.06,0,.08,0Zm.14.21a.43.43,0,0,1,0,0,2.44,2.44,0,0,1-1-.25.07.07,0,0,0,0,0Zm1-6.93c-.07.16,0,.36-.22.51.06-.21.1-.37.15-.53Zm.39-1c-.08.22-.17.43-.25.65l0,0c.07-.22.15-.44.23-.66ZM7.66,1.74v0a.12.12,0,0,1,0,.05.56.56,0,0,0-.23.69c.13.38.24.76.37,1.13.21.57.43,1.13.64,1.7,0,.12.07.24.11.37l-.07,0c-.14-.31-.28-.62-.43-.93-.06-.13-.15-.26-.22-.39h0a.76.76,0,0,0,0,.26c.09.28.18.57.3.85.28.65.57.94,1.21,1,.07,0,.15,0,.22,0s.34.09.52.11a1.28,1.28,0,0,1,.7.31.9.9,0,0,1,.36.45,2.85,2.85,0,0,0,.24.5,1.19,1.19,0,0,0-.15-.69c.1.09.23.17.27.28a2.67,2.67,0,0,1,.17.73,1,1,0,0,1-.28,1s0,0,0,.06-.13.31-.2.47-.2.52-.31.77c-.19.42-.39.82-.58,1.23-.07.15-.1.3-.16.45a3,3,0,0,0-.2.49A2.78,2.78,0,0,0,10,14.35a1.3,1.3,0,0,0,.15.2l0,0c0-.06,0-.14,0-.18a1.7,1.7,0,0,1-.2-.88.74.74,0,0,1,.07-.32c0-.05.13-.07.15-.12s.07-.28.12-.42.1-.25.15-.37.12-.21.17-.32a.84.84,0,0,1,0-.17c.15-.32.32-.63.47-1s.33-.71.5-1.07a2.68,2.68,0,0,1,.18-.28h0a.82.82,0,0,1,0-.26,2.6,2.6,0,0,0,0-1.21,2.64,2.64,0,0,0-.3-.81c-.07-.07-.06-.2-.09-.3h0A3,3,0,0,1,12,7.8l-.22-.16A7.8,7.8,0,0,0,12.62,9h0c.19.26.39.52.57.79a1.91,1.91,0,0,1,.16.32l0,0-.24-.38-.41-.57a.58.58,0,0,1,0-.19h0a.38.38,0,0,1-.16-.11c-.15-.22-.3-.46-.44-.69l-.09,0a.66.66,0,0,0,0,.2,4.86,4.86,0,0,0,.33.54c.14.21.31.41.46.62a.84.84,0,0,1,.09.19l-.06,0C12.5,9.41,12.26,9,12,8.67l-.09.05a4.25,4.25,0,0,0,.21.43c.21.34.42.69.65,1s.38.51.56.78.21.33.31.5a8.13,8.13,0,0,0,.67,1.05c.19.22.31.48.49.7a.66.66,0,0,1,.08.21l-.06,0-.63-1c-.22-.34-.44-.68-.67-1a5.92,5.92,0,0,0-.66-1l-.06,0a1.34,1.34,0,0,0,.13.27c.25.39.5.78.76,1.17s.5.75.76,1.12c.08.12.2.23.29.35a.88.88,0,0,1,.11.24,1.18,1.18,0,0,1,.07.2H15a.3.3,0,0,0,0-.13c0-.12-.1-.24.06-.33a.48.48,0,0,0-.05-.19c-.24-.38-.48-.75-.73-1.12-.14-.22-.29-.43-.44-.65,0,0-.07-.11-.11-.17l0,0,.37.54.42.61L15,13s.08.06.12.09,0-.13,0-.17a1.31,1.31,0,0,0-.27-.35.26.26,0,0,1-.1-.28h0a2.28,2.28,0,0,1-.49-.74,3.37,3.37,0,0,1,.33.44c.06.1.11.2.16.3h0c.05,0,.12.09.17.15s.13.26.2.37.09,0,.14.05,0-.15,0-.19l-.55-.78s0-.05,0-.14c.3.32.42.71.75.94V13a.51.51,0,0,0-.34.53,7,7,0,0,0,0,.8,7.84,7.84,0,0,0,.18.81c0,.18.12.36.17.54a.47.47,0,0,1,0,.25,3.35,3.35,0,0,0-.44-1c-.09.25.05.4.1.57a3.5,3.5,0,0,1,.14.46c0,.16.07.19.2.11a.75.75,0,0,1-.19.63.39.39,0,0,0,.06.61c.15.1.25.06.3-.11a2.83,2.83,0,0,1,.15-.35c.06.2.1.39.16.58a.53.53,0,0,0,.13.2.23.23,0,0,0,.14-.08.38.38,0,0,0,0-.21A1.42,1.42,0,0,0,16,16.9a.42.42,0,0,1-.08-.5.14.14,0,0,0,0-.11c-.12.26-.23.51-.36.76,0,0-.08.07-.13.11s-.06-.13,0-.17.12-.28.18-.41.2-.36.09-.57a.11.11,0,0,1,0-.08c.27-.21.16-.46.07-.68a3.78,3.78,0,0,1-.25-1,1.86,1.86,0,0,1,.09-.88A1.29,1.29,0,0,1,16,12.7s.07,0,.14,0l-.12.2a4.33,4.33,0,0,1,.42-.22,1.11,1.11,0,0,1,.37-.05c.1,0,.2,0,.3,0s.33,0,.47.11.12,0,.18,0l.25.07.26.05.28.06V13a.91.91,0,0,1-.33,0c-.16-.06-.24,0-.33.13,0-.06,0-.12,0-.18-.35-.12-.42-.11-.67.17s-.26.27-.38.42a.31.31,0,0,0-.07.21c.07.68.16,1.35.23,2a7.44,7.44,0,0,1,0,.94c0,.11-.06.23-.06.33a1.77,1.77,0,0,0,.09.52c.08.18.33.2.54.09a.4.4,0,0,0,.17-.46c0-.12-.08-.24-.11-.36s0-.08,0-.12h.05a1.27,1.27,0,0,0,0,.2.67.67,0,0,0,.09.14.36.36,0,0,0,.11-.1c.14-.26.28-.53.43-.79s.36-.52.49-.81a3.44,3.44,0,0,1,.44-.74s0,0,0-.08l0,0c-.13.09-.2,0-.32-.06a1.1,1.1,0,0,1-.43-1.07l.24-.11a.83.83,0,0,0,.16-.09l-.13-.12s0,0-.06-.06h.16c.22,0,.44,0,.65.06,0,0,.1.08.14.11l0,0-.21-.07,0,.06.28.16c.17-.16.17-.16.06-.35l.18,0c0,.15,0,.27,0,.4h0l.09-.09.19-.29a.64.64,0,0,0,.06-.11c-.08-.21.09-.28.2-.38a3.31,3.31,0,0,1,.26-.27c.06-.05.16-.06.21-.11a3.07,3.07,0,0,0,.24-.29h0l.66-.63c.18-.18.37-.37.54-.56.31-.34.6-.69.9-1h0l.22-.2.09-.08a.39.39,0,0,1,.08.1L24,10c.07.14.13.28.17.37l-4.86,5.15,0,0,.12-.24a1.66,1.66,0,0,0-.81.93h.14c-.17.2-.31.34-.44.5S18,17,18,17.1a.46.46,0,0,1-.12.32l-.1.17a.39.39,0,0,1-.39.26.54.54,0,0,1-.52-.28,1.36,1.36,0,0,1-.06-.57,4.51,4.51,0,0,1,.09-.53l0,0-.14.09c0-.09,0-.21,0-.21s.11-.12.09-.22a5.67,5.67,0,0,1-.1-.57c0-.43,0-.86-.08-1.29s-.07-.77-.11-1.15a1.36,1.36,0,0,0,0-.2c0-.11-.08-.15-.17-.09s-.33.26-.48.39a.43.43,0,0,0-.12.53.18.18,0,0,1,0,.13c-.09.1-.05.18,0,.28a.68.68,0,0,1,0,.2,1.5,1.5,0,0,0,0,.2c.07.25.15.5.22.75a1.36,1.36,0,0,1,.06.87.71.71,0,0,0,0,.38c.08.25.2.5.28.76s0,.42-.29.45l-.06,0a.11.11,0,0,0,0,.05l.17.05a2.9,2.9,0,0,0,.07.34c.08.19.18.36.25.56s.18.25.08.41a.6.6,0,0,0,0,.49c.08-.16-.09-.36.16-.44a.44.44,0,0,1,.49.11c0-.21-.12-.23-.21-.27a1,1,0,0,0-.35,0l0-.06.26-.11c.08.16.14-.11.22-.09s.12.17.17.25a4.74,4.74,0,0,1,.26.5c0,.06,0,.14,0,.22h0a2.29,2.29,0,0,0-.1-.23.25.25,0,0,0-.07.16l-.06.47s.05,0,.07.07h0c.15-.21.28-.43.43-.64a1.45,1.45,0,0,1,.18-.17l0,0c-.07.12-.13.25-.21.37a3,3,0,0,1-.27.35.34.34,0,0,1-.16.05h0a.4.4,0,0,1-.55.18c.09-.06.23-.1.29-.2s-.08-.19-.13-.29l0,0c0-.08,0-.16-.05-.23h-.06c0,.16,0,.34-.2.41,0,0,0,.08,0,.12l0,.19c-.07.33,0,.41.33.49a.68.68,0,0,0,.14,0v0a1.38,1.38,0,0,1-.35,0c-.09,0-.13,0-.12.08.07.43-.27.71-.36,1.09a1.7,1.7,0,0,1-.43.71,5.76,5.76,0,0,1-.68.62c-.18.14-.39.27-.58.39a.32.32,0,0,1-.14,0,1.25,1.25,0,0,0-.19,0c-.19.05-.19,0-.17-.16h-.19l.06.13a2.68,2.68,0,0,1-.58,0,2.92,2.92,0,0,1-.55-.29l.14-.08-.46-.36v0l.16.05a.23.23,0,0,0-.24-.17,1.21,1.21,0,0,1-.32-.11l-.09-.07-.07,0c.27.22.4.44.06.69,0-.06,0-.13,0-.16s.1-.19,0-.28-.11-.13-.15-.12-.23,0-.24.22l.28,0v0l-.81.43,0-.05.5-.33,0-.06-.64.25,0-.06c.25-.12.49-.27.74-.37a.35.35,0,0,0,.24-.25c.11,0,.07-.1,0-.16l-.15-.18c0,.12.07.22.1.34l-.32.09-.3.17A.3.3,0,0,1,11,23c.19-.18.46-.21.59-.42l0-.06-.35.1c0-.07.09-.1.13-.14a.64.64,0,0,0,.1-.13h-.17l-.67.33,0,0a2.82,2.82,0,0,1,.36-.24,1.19,1.19,0,0,1,.33,0h0l.11-.21.23.21c0-.07-.05-.15-.09-.23a2.29,2.29,0,0,1-.14-.27c0-.18-.08-.36-.14-.54a2.37,2.37,0,0,0-.13-.34h0l.06.41H11c-.15-.27.07-.57,0-.85,0,0-.09.1-.13.11l-1,.22L9.57,21l-.4.11v0l-.4,0A.66.66,0,0,1,9,21a1.31,1.31,0,0,0,1-.79.94.94,0,0,1,.21-.28c.2-.2.45,0,.67-.13,0,.23,0,.43,0,.63H11v-.52c0-.17.09-.37-.15-.47,0,0,0,0,0,0a.53.53,0,0,0-.13-.16l-.86-.44-2.08-1c-.28-.14-.56-.3-.85-.41a.53.53,0,0,1-.29-.24,5.45,5.45,0,0,0-.29-.53c-.16-.22-.34-.41-.5-.62a.45.45,0,0,1-.09-.29c0-.29.12-.57.16-.87.08-.5.14-1,.22-1.5s.19-1,.3-1.52.27-1,.41-1.58c.07-.26.16-.53.24-.8a1.09,1.09,0,0,1,.13.11c.18.22.35.45.54.67s.36.35.52.54.43.55.66.82c.1.11.23.2.34.32s.22.28.33.42a1.37,1.37,0,0,0,.18.16,1.12,1.12,0,0,0,.12-.35,1,1,0,0,0-.15-.36l.24.17c0-.08,0-.15,0-.18l-.51-.8c-.14-.2-.3-.38-.43-.58l-.8-1.27a.74.74,0,0,0-.12-.13L8.1,9a.71.71,0,0,0,.07.22l.3.4.66,1,.55.87.05.1-.08.06-.14-.23L9.22,11l-.36-.55c-.12-.19-.21-.41-.34-.6s-.42-.62-.62-.92l-.36-.54L7,7.6l0,0c.21.06.15.39.41.44,0,0,0-.08,0-.11-.11-.2-.22-.4-.35-.59,0,0-.11,0-.13,0s0,.11,0,.15a1.12,1.12,0,0,0-.2.94,6.19,6.19,0,0,0,.15.65,2.39,2.39,0,0,0-.24.44c-.18.55-.35,1.1-.5,1.66-.18.71-.34,1.43-.49,2.14-.06.31-.1.63-.14.94s-.11.78-.15,1.17c0,.13-.06.16-.18.12a1,1,0,0,0-.27-.09,1.48,1.48,0,0,0-1.35.93,4.93,4.93,0,0,1-.32.73c-.09-.21-.2-.2-.33-.17a.59.59,0,0,1-.24.07.4.4,0,0,0-.42.1.12.12,0,0,1-.08,0l-.47,0s0-.06,0-.11c0-.39.06-.79.11-1.19s.14-1,.21-1.48a4.86,4.86,0,0,1,.1-.55c.18-.68.38-1.36.56-2a14.18,14.18,0,0,1,1-2.52c.21-.44.42-.87.66-1.29A7.2,7.2,0,0,1,5,7,16.36,16.36,0,0,1,6,5.7a14.45,14.45,0,0,0,1.2-1.15l.09-.06.32-.19.14.1h0a.48.48,0,0,0,0-.12c-.14-.43-.26-.87-.43-1.29a2.06,2.06,0,0,1-.13-.81A.48.48,0,0,1,7.66,1.74ZM7,7.92a.21.21,0,0,1,0-.11l0,0c.08.11.17.22.24.33.27.42.54.84.8,1.26.09.15.17.31.25.47h0v0a3.11,3.11,0,0,1,.23.28,3.89,3.89,0,0,1,.62,1,2,2,0,0,1-.26-.25c-.19-.29-.36-.59-.53-.88a1.47,1.47,0,0,1-.06-.14v0h0s-.11-.1-.15-.15-.23-.39-.35-.57C7.51,8.72,7.24,8.33,7,7.92Zm.71,1.41c.14.19.27.38.4.58L8,9.94l-.38-.58Zm.56.85.49.72-.05,0c-.17-.23-.33-.47-.5-.71Zm1,1.08.21.32-.07.05-.21-.33Zm9.5,3.31a.48.48,0,0,1-.53,0,1,1,0,0,1-.26-.9c.08-.21.22-.33.36-.3C18,14,18.14,14.47,18.76,14.57ZM17.8,16s-.06,0-.09,0a1.46,1.46,0,0,1,.07-.19.1.1,0,0,1,0,0l.06,0A1,1,0,0,1,17.8,16Zm-.66-1,0-.21.1,0a.76.76,0,0,1,0,.21ZM15.61,9a2.65,2.65,0,0,0-.17-.22c0-.1.06-.22.09-.33C15.72,8.67,15.57,8.87,15.61,9Zm.26,3.43-.37.21C15.58,12.48,15.66,12.36,15.87,12.47ZM15.26,4.3a2.06,2.06,0,0,0,.12.26C15.16,4.56,15.14,4.51,15.26,4.3Zm-.2,1.77c-.07-.33-.07-.33,0-.38C15.07,5.82,15.07,6,15.06,6.07Zm-.61.68c-.15-.17,0-.27.1-.38C14.67,6.47,14.64,6.56,14.45,6.75Zm-.89,2.83.35.54,0,0L13.66,10c0,.13,0,.19,0,.31l-.22-.3C13.87,9.91,13.5,9.74,13.56,9.58Zm.17,1.57-.07,0L12.91,10,13,10Zm-.66-2.09A.84.84,0,0,0,13,8.92l-.2-.38a1.22,1.22,0,0,1,.23.19,3.65,3.65,0,0,1,.18.34s0,0,0,.08a1.76,1.76,0,0,0-.12.2l-.15-.22Zm-.75-4.18c0-.2-.09-.38.08-.53C12.55,4.55,12.53,4.68,12.32,4.88Zm.18-3.12a1.22,1.22,0,0,1-.82.55c-.33-.22-2.95.71-3.74,1.38a1.68,1.68,0,0,1-.17-.32c-.09-.28-.13-.56-.23-.83A.43.43,0,0,1,7.9,1.9l.56,0c.37,0,.74-.07,1.12-.09s.77,0,1.16-.06a.85.85,0,0,1,.17,0c.31,0,.62,0,.93,0A1.34,1.34,0,0,1,12.5,1.76ZM26.81,3.19a2.2,2.2,0,0,1-.55.13c-.12,0-.26.09-.34-.08s-.05,0-.08,0l-.49.07-1.93.37a7.37,7.37,0,0,1-.9.22,1.5,1.5,0,0,0-1.13.63c-.2.26-.36.56-.54.84l-.12.17h-.07c.18-.23,0-.32-.13-.4L20.34,5a9.05,9.05,0,0,0-2-1.36c-.55-.27-1.11-.53-1.68-.75a9.79,9.79,0,0,0-1.39-.45c-.51-.12-1-.17-1.54-.25-.15,0-.28,0-.33.05l-.47,0-.55,0v0A1.25,1.25,0,0,1,12.69,2c.24,0,.47,0,.63-.2a.14.14,0,0,1,.11,0c.15,0,.25-.1.25-.22l.4-.17.15,0,.3-.07c.19-.08.36-.18.54-.25A8.66,8.66,0,0,1,16.66.6c.32-.06.65-.15,1-.18a4.83,4.83,0,0,1,.76,0,12.74,12.74,0,0,1,1.85.18,13.58,13.58,0,0,1,2,.51c.13.05.24.11.34,0s.1,0,.17-.06c-.08.27-.07.28.16.37A9.7,9.7,0,0,1,24.07,2c.55.32,1.08.68,1.6,1a.56.56,0,0,0,.54.08h.05v.15ZM22,4.22l-.57.53A.75.75,0,0,1,22,4.22Zm8.21,3.9c.26.42.48.86.72,1.29.07.14.12.29.18.43.2.44.41.87.58,1.32.28.79.54,1.59.8,2.4a11.71,11.71,0,0,1,.37,1.32c.13.62.23,1.24.34,1.87.07.46.13.92.18,1.39s.06.67.08,1,0,.83,0,1.25,0,.79,0,1.18c0,.12-.06.17-.18.17l-.42.05-.55,0c.14-.38.29-.72.39-1.07a6.91,6.91,0,0,0,.22-1.1,10.24,10.24,0,0,0-.06-2.28,9.41,9.41,0,0,0-.83-2.86,7.05,7.05,0,0,0-1.75-2.34,5.9,5.9,0,0,0-1.88-1.13.44.44,0,0,1-.23-.17,11.81,11.81,0,0,0-1.34-1.4.26.26,0,0,0-.12-.05.23.23,0,0,0,.06.14c.16.16.31.32.47.47a14.83,14.83,0,0,0,1.12,1.26s0,.06.06.09c.16.25.31.52.49.76s.34.31.5.48a5.12,5.12,0,0,1,.89,1.08s.1,0,.17.07v-.21s.07.06.06.08a.73.73,0,0,0,.13.54,5.21,5.21,0,0,1,.2.5c0,.07,0,.19.17.15s.06,0,.08.07l.09.11a1,1,0,0,0,.08-.23.19.19,0,0,0,0-.16c-.15-.16-.11-.38-.17-.58.06,0,.13.06.15.11.11.24.21.49.3.74a3,3,0,0,0,.16.45A3.09,3.09,0,0,1,32,16.41a3.62,3.62,0,0,1,.18,1.27c0,.25,0,.52,0,.78s.13.51,0,.75c0,0,0,.05,0,.07l-.09,1.06c0,.15,0,.29,0,.45S32,20.91,32,21s0,.13-.14.15a.25.25,0,0,1,0-.09,3.64,3.64,0,0,0,.14-.79,5.25,5.25,0,0,1,0-.69.7.7,0,0,0-.08-.26c0-.07-.08-.17-.05-.21a.53.53,0,0,0,0-.53c0-.06,0-.14,0-.21s0-.39,0-.58-.08-.46-.12-.69,0-.28-.07-.42h0a1.34,1.34,0,0,0,0,.2c0,.37.07.73.08,1.1s0,.75,0,1.12c0,.06-.05.11-.09.16s-.09,0-.09,0a.45.45,0,0,1-.05-.19c0-.62,0-1.25-.12-1.87A5.51,5.51,0,0,0,31,15.67c-.21-.5-.44-1-.67-1.51a6.61,6.61,0,0,0-1-1.47,1.24,1.24,0,0,0-.18-.14,1.1,1.1,0,0,0,.12.29,13.64,13.64,0,0,1,.64,1.4c.09.35.28.67.35,1a3.57,3.57,0,0,1,.16,1,3.42,3.42,0,0,0,0,.44.54.54,0,0,1,0,.1l-.17.36a.47.47,0,0,1-.13.15.38.38,0,0,1-.11.08,1.42,1.42,0,0,1-.36.26,8.09,8.09,0,0,1-1.81.43,2,2,0,0,0-.42.07l-.28.1c-.1-.56-.22-1.15-.34-1.74h.07c.08.31.16.62.24.95l.23,0-.19.17h.24v0l-.19.09v0l.26,0-.28.18,0,0c.13,0,.27-.18.38,0l.3-.16v0h.19l.34-.07a.92.92,0,0,0,.24-.11c0-.22.13-.16.22-.19l.66-.21s0,0,0-.09c-.22,0-.39.22-.58.11l.2-.18a1.53,1.53,0,0,1,.11-.16A.45.45,0,0,1,29.5,17s0,0,0-.05h-.27v0l.63-.19v0l-.21.15.18.09-.16.13.12,0c0,.11,0,.21,0,.3l.28-.25-.1,0c.08-.08.21-.13.23-.21a3.29,3.29,0,0,0-.14-1.89c-.17-.47-.36-.93-.55-1.39S29.19,13,29,12.62s-.39-.58-.58-.87c-.08-.12-.14-.25-.22-.37s-.37-.5-.58-.73-.66-.7-1-1.05a.43.43,0,0,0-.18-.15.6.6,0,0,0-.23.06s0,0,0-.07a.76.76,0,0,0,0-.15.37.37,0,0,0-.14,0,.86.86,0,0,0-.13.14l-.31.31s0-.08,0-.09.27-.25.39-.39a.28.28,0,0,0,.08-.15s0-.06,0-.06L26,9.17l-.5.5,0,0,.49-.52c.07-.07.1-.13,0-.19l-.25-.13L24.56,10l.05.06c.05,0,.11,0,.14,0l.86-.9L25.73,9l0,0-1.09,1.16-.09-.12-.48-.84a2.9,2.9,0,0,0-.44-.69,6.26,6.26,0,0,1-.46-.59c-.42-.5-.82-1-1.25-1.52a2.86,2.86,0,0,0-.54-.5.32.32,0,0,0-.3,0c-.11.09,0,.18.08.26s.41.46.61.7l1.13,1.41a5.62,5.62,0,0,1,.35.5,2.67,2.67,0,0,1,.25.43s0,.1,0,.15l-.15.28a.84.84,0,0,0-.23.12l-1.63,1.77c-.09.1-.16.22-.25.33l-.36.25a.85.85,0,0,1,.2-.45.23.23,0,0,0,.05-.23,1.61,1.61,0,0,1,0-.44,3.81,3.81,0,0,0,1-1.47L21.07,10.7c-.13-.44-.24-.87-.39-1.27s-.36-.79-.54-1.18l-.07,0c0,.11.07.22.11.32.15.38.31.75.46,1.13s.2.54.3.82a1.65,1.65,0,0,1,0,.91,1.14,1.14,0,0,1-.06.33,3.06,3.06,0,0,1-.33.52,1.36,1.36,0,0,1-.78.55c-.1,0-.2,0-.3,0s-.2-.05-.11-.19l-.31-.09.24-.13c-.1-.22-.19-.46-.29-.69a.9.9,0,0,1,.37.61.75.75,0,0,0,.06.13.81.81,0,0,0,.12-.14s0-.08,0-.12,0-.17.07-.27l-.12,0c-.27-.44-.55-.88-.83-1.32s-.52-.78-.78-1.18l-.54-.8L17,8.15A13.14,13.14,0,0,1,16.26,7a1.41,1.41,0,0,1-.09-.55c-.1-.71-.19-1.41-.28-2.11a.76.76,0,0,0-.06-.16h-.05c0,.18,0,.37,0,.55,0,.53.12,1.07.17,1.6a10.09,10.09,0,0,0,.12,1.09,1.89,1.89,0,0,0,.57.94,1.17,1.17,0,0,1,.17.26c.1.15.18.31.28.45.2.32.42.63.63.94l1.16,1.76L19,12c-.24.09-.46.16-.68.26s-.23.09-.13.26l-1.77-.3c0-.36-.06-.76-.1-1.17l-.18-1.72c-.07-.74-.13-1.48-.21-2.23,0-.44-.1-.88-.14-1.33s-.07-.86-.11-1.29a.67.67,0,0,0-.09-.38c-.2-.22-.15-.54-.34-.77a.89.89,0,0,0-.63-.26c-.15,0-.34-.07-.46.11h-.06a1,1,0,0,0-.81.26,1.73,1.73,0,0,1-.31.14l-1.57.73q-.3.15-.6.33a3.48,3.48,0,0,0-.36.22.38.38,0,0,0-.14.19h-.21a2,2,0,0,0,.09.22c.14.22.28.45.43.66s.41.53.61.79l0,0s0-.09,0-.13h0l.09.28c-.06,0-.14,0-.18-.06A2.36,2.36,0,0,0,10,6.19c-.15,0-.32,0-.47,0a5.35,5.35,0,0,1-.67-.24c-.06,0-.08-.13-.14-.22a.37.37,0,0,0,.38-.26,1.84,1.84,0,0,0,.25-.13c.18-.18.35-.38.53-.57l.66-.65,1.31-1.25A1.09,1.09,0,0,0,12,2.73a.16.16,0,0,0,0-.12s-.05,0-.07,0a1.69,1.69,0,0,0-.34.09,6.49,6.49,0,0,0-.83.53A9.22,9.22,0,0,0,9.16,4.92l-.32.49a1.89,1.89,0,0,0-.11.25,1,1,0,0,1-.31-.6c-.11-.35-.24-.7-.36-1,0,0,0-.13,0-.14l.72-.34.67-.31a9.37,9.37,0,0,1,.89-.31,3.38,3.38,0,0,1,1.28-.34,1.36,1.36,0,0,0,.53,0,1.42,1.42,0,0,1,.62-.08,1.84,1.84,0,0,0,.41,0s0,0,.07.09a1,1,0,0,0-.18,0s-.09,0-.1,0a.11.11,0,0,0,0,.11c.09.16.18.32.28.47s.22.16.36,0a.3.3,0,0,0,0-.25,4.41,4.41,0,0,0-.29-.4.47.47,0,0,1,.16,0c.48.06,1,.11,1.44.18a8.55,8.55,0,0,1,1.54.41,13,13,0,0,1,2,1,12.58,12.58,0,0,1,1.22.84,6.09,6.09,0,0,1,.61.53,2.25,2.25,0,0,1,.24.3l-.16.37-.6,1.2a1.5,1.5,0,0,0-.07,1.44c.25.53.5,1.06.73,1.61a1.28,1.28,0,0,1,.11.88,1.55,1.55,0,0,0-.24.19,3.14,3.14,0,0,1-.48.54.43.43,0,0,0-.17.6l0,0-.18.07c.08.06.3,0,.33,0s0-.05,0-.06,0-.12.05-.16l.39-.32c.06-.06.11-.15.17-.22l.05,0c-.11.16-.23.33-.35.52h.09a2.39,2.39,0,0,0,.48-.64A2.4,2.4,0,0,0,20.56,10c-.21-.5-.43-1-.65-1.51A.52.52,0,0,1,20,8l.08.17.07,0c0-.07,0-.13,0-.2a2,2,0,0,1,.1-.55c.21-.48.47-.93.7-1.39.09-.2.16-.42.24-.63a1,1,0,0,1,.1-.18c.17-.18.34-.37.53-.54a2.52,2.52,0,0,1,.51-.34,5.28,5.28,0,0,1,1.48-.38l.56-.08,1.51-.25c.23,0,.46-.09.69-.14l.05,0c-.31.1,0,.17,0,.25s0,.21-.1.31a3.9,3.9,0,0,1-.28.49c-.16.2-.37.37-.53.57-.31.38-.61.77-.91,1.15l-.83,1-.42.53a.27.27,0,0,0-.05.29L24,7.8a.76.76,0,0,0,.26-.16c.24-.28.47-.57.7-.86s.32-.43.49-.64.54-.63.79-1,.51-.72.77-1.11a2.54,2.54,0,0,1,.23.2c.24.24.47.48.69.73.43.5.88,1,1.28,1.52A19,19,0,0,1,30.19,8.12ZM25.61,5.66l-.07-.06c.08-.09.16-.19.25-.28l.05,0ZM10.42,3.87l0,0L10,4.35l0,0ZM18,10.21l-.18-.29.08-.05c0,.1.1.21.16.31Zm10.26,5.5.22,0c0,.28-.08.52-.09.76s-.06.15-.16.13A1.51,1.51,0,0,0,28.3,15.71Zm1.76.26a.55.55,0,0,1-.51.11A.51.51,0,0,1,30.06,16Zm.92-2c-.17-.25-.34-.49-.5-.74a.33.33,0,0,1,.19.13c.07.08.13.17.19.25s.12.22.19.32Zm-2.07-2.42.1,0,.52.37c.15.12.19.34.42.4.06,0,.08.21.13.34l-1.31-1a.2.2,0,0,1,0-.07C28.87,11.63,28.94,11.66,28.91,11.51Zm1.37,1.11.09.37a3.45,3.45,0,0,0-.32-.21Zm3.18,5c0-.29-.08-.58-.13-.86l-.15-.9c-.07-.34-.12-.68-.21-1s-.25-.92-.38-1.37-.34-1.2-.55-1.79-.45-1.14-.69-1.7-.46-1-.69-1.49c-.06-.14-.13-.27-.19-.41l0,0a.76.76,0,0,1,.11.14c.3.55.6,1.1.89,1.65a7.51,7.51,0,0,1,.34.77c.19.51.37,1,.55,1.54s.37,1.14.56,1.7c0,.11,0,.21.07.32.06.3.12.61.19.92s.13.48.17.72,0,.75.09,1.12.13,1,.19,1.47l.09.71h-.08a.58.58,0,0,1,0-.14C33.57,18.51,33.52,18.06,33.46,17.6Zm-.37,9.18a1.62,1.62,0,0,0,0-.19c0-.07.07-.14,0-.19-.09-.24.11-.38.16-.58l0,0c-.08.32-.16.63-.23.95Z"/><path class="cls-1" d="M28.39,24.69h0l.19-.13v0l-.26,0-.49.06-.16.06s0,0,0,.05l.71,0Zm0,0Z"/><polygon class="cls-1" points="24.25 21.42 24.25 21.43 24.25 21.43 24.25 21.42"/><path class="cls-1" d="M12.52,43.19c-.11.1-.18.18-.27.25s0,.21,0,.37a1,1,0,0,1-.12-.15c-.06-.1-.15-.11-.19,0s-.24.1-.16.27l-.11,0a.54.54,0,0,0-.18.11A2.56,2.56,0,0,0,11,45.57a1.27,1.27,0,0,0,.43.91,5.5,5.5,0,0,0,1.83,1.09c.32.13.66.22,1,.32l1.08.35c.16,0,.33.06.49.1l1,.23c.35.07.7.12,1.06.18l1.14.17a3.87,3.87,0,0,0,.48,0l1.43.11c.6,0,1.21.07,1.82.09.36,0,.72,0,1.08,0,.19,0,.37,0,.55,0,.36,0,.71-.06,1.06-.09.2,0,.4,0,.59,0,.52-.05,1-.09,1.56-.16s1.1-.15,1.64-.26c.35-.07.68-.2,1-.3s.5-.14.74-.24a2.45,2.45,0,0,0,1.52-1.38,1.22,1.22,0,0,0,.08-.47,3.49,3.49,0,0,0-.11-.91,2,2,0,0,0-.57-.88,5,5,0,0,0-1.6-1c-.49-.19-1-.4-1.46-.55a10.16,10.16,0,0,0-1.24-.29.68.68,0,0,1-.55-.37c-.18-.33-.41-.65-.58-1s-.38-.86-.57-1.3a3.68,3.68,0,0,0-.15-.35,5.2,5.2,0,0,1-.37-1.2c0-.12-.09-.2-.23-.13s-.54.08-.74.3c0,0-.06,0-.09,0a.71.71,0,0,0-.14,0l-.64.19-.59.18c-.33.1-.67.19-1,.26a5.28,5.28,0,0,1-.56,0s-.06,0-.12-.07h.38v0a2.66,2.66,0,0,0-.39-.16.92.92,0,0,1-.59-.55c-.19-.42-.37-.84-.55-1.27-.08-.17-.14-.34-.21-.51a.41.41,0,0,0-.1-.13l0,0c.08.25.16.5.25.75l-.05,0a.41.41,0,0,0-.07-.11s-.08-.08-.1-.08c-.19.09-.42,0-.57.23,0,0-.05,0-.05.07-.12.29-.22.58-.33.87s-.19.52-.28.78-.13.27-.19.41-.08.2-.13.3l-.16.37c-.05.11-.07.23-.12.33a2,2,0,0,1-.16.24l-.3.45-.15.22c0,.08-.15.14-.06.26s0,.09,0,.09l-.15,0-.48.38.3,0c-.08.14.1.36-.13.48,0-.06,0-.11,0-.16h-.05l0,.19-.23.09c0,.15,0,.29,0,.43h0a.45.45,0,0,1-.1-.14c0-.11-.11-.1-.21-.07s-.12.06-.07.16-.05.12-.08.19l.15.12.11.13s-.09.07-.13.06-.07-.07-.12-.11-.08,0-.23.28c.07.08.15.16.06.3a3.32,3.32,0,0,0-.24-.32.25.25,0,0,0-.09,0s0,.09,0,.1,0,.26,0,.38a1.82,1.82,0,0,1-.19.45c-.11-.13,0-.41-.3-.44,0,0-.07.12-.06.18s-.05.19-.2.19c0,0,0-.09.05-.13a.25.25,0,0,0-.32-.06s-.1-.06-.17-.1c.19-.15.38-.27.55-.43s.33-.35.5-.52.21-.16.31-.25.22-.22.33-.33a.11.11,0,0,0,0-.09c-.09-.08-.32,0-.37.13l.17.06-.19.13c0-.1-.06-.19-.08-.27l-.27,0a.13.13,0,0,0,0-.06l.19,0,.21,0c.13,0,.2,0,.14-.18a.7.7,0,0,0,.26.08.39.39,0,0,0,.27-.15c.06-.07.25-.13.15-.26a5.3,5.3,0,0,0-1,.36A11.26,11.26,0,0,0,12.52,43.19Zm2.37,0c0-.06,0-.16.07-.19a.54.54,0,0,1,.22,0,.64.64,0,0,1,0,.07l-.25.16Zm-.59-.36s0-.07.07-.08l.21,0-.07.15,0,.1Zm.06,2-.06-.1c.15-.07,0-.22.11-.32C14.58,44.55,14.56,44.71,14.36,44.87Zm.26,1.79c-.24-.15-.09-.36-.11-.54C14.54,46.3,14.58,46.48,14.62,46.66Zm1.15-1.31-.58.32h-.06a.45.45,0,0,0-.36.18l-.14.12,0,0a.64.64,0,0,1,.13-.19c.17-.14.18-.13,0-.3.08,0,.14,0,.17,0a.33.33,0,0,0,.37,0l.29-.11A1,1,0,0,1,15.77,45.35Zm.77-1.29a.19.19,0,0,1,0,.07l-.39,0,0-.06a.68.68,0,0,1,.22-.12A.65.65,0,0,1,16.54,44.06Zm.29.13c0,.19,0,.35,0,.54C16.6,44.55,16.59,44.42,16.83,44.19Zm-.09-.53c0-.14.05-.28.08-.46A.27.27,0,0,1,16.74,43.66Zm1.54-2.42a1.73,1.73,0,0,1-.17.21L18,41.36l.21-.23S18.29,41.23,18.28,41.24Zm.07,3.23.17-.26C18.65,44.35,18.62,44.41,18.35,44.47Zm1.09-2.57-.35,0a1.58,1.58,0,0,1,0-.21s.07,0,.09,0,.2,0,.15-.14,0-.09,0-.14h.06C19.33,41.58,19.51,41.72,19.44,41.9Zm-.3,3.66a.57.57,0,0,0,.13,0,.24.24,0,0,1,.3,0,.15.15,0,0,1,0,.07l-.66-.07s0,0,0-.07Zm.81-.18a.62.62,0,0,1-.19.07c-.11,0-.22,0-.33,0s0,0,0,.05l-.14-.17.66,0Zm.44-1.74c-.26.11-.26.11-.33,0s0,0,0-.06Zm-.19-2.12.31.12C20.2,41.75,20.17,41.74,20.2,41.52ZM20.9,39a1.1,1.1,0,0,1-.52-.83Zm.41,2.68v0H21C21.08,41.53,21.19,41.67,21.31,41.67ZM23.5,39.1c-.49.08-.73.07-.82,0Zm.22.28a.15.15,0,0,0,0,.07c-.53-.05-1.05,0-1.57,0v-.08l.2,0a6.32,6.32,0,0,0,1.23,0S23.67,39.36,23.72,39.38Zm.08.25a5,5,0,0,1-2.19,0,.93.93,0,0,1,.22,0,1.31,1.31,0,0,1,.28,0l.77,0h.54Zm.63,1.1-.11.21s-.08-.08-.08-.1a1.51,1.51,0,0,1,.1-.17Zm1.11,5c-.38.13-.38.13-.55,0C25.05,45.65,25.37,45.63,25.54,45.71ZM26,42.2s-.09,0-.1,0-.09-.17.08-.26C26,42,26,42.12,26,42.2Zm.75,3.4c-.19.18-.22.17-.3,0Zm.64.51,0,.17-.37.16c-.2.08-.44-.12-.62.07a0,0,0,0,1-.05,0,1.37,1.37,0,0,0-1.38,0l0,0,.86,0v0l-.12,0-.78.06-1.12.08-1,.07H21.57s-.07,0-.1,0c-.31-.18-.65,0-1-.11l-.09,0c.12.09.24.16.39.26h-.25c0,.17-.12.15-.21.11a.46.46,0,0,1-.13-.2,2.25,2.25,0,0,1-.09-.3l-.19.19-.13-.08c-.21.17.09.24.07.39l-.19.1a1.31,1.31,0,0,1-.06-.41c0-.12,0-.16-.12-.16s-.19-.06-.18-.18h0l-.22.15-.17-.11-.08.42-.13-.11a1.89,1.89,0,0,0-.25-.31c-.08-.07-.21-.07-.3-.1s-.15.3-.39.27a1.4,1.4,0,0,0,.18-.3.6.6,0,0,0-.27-.67,1.92,1.92,0,0,0-1-.35c-.23,0-.45,0-.7,0,0,0,.06-.07.08-.07a2.57,2.57,0,0,1,2,.55c-.15.11,0,.18.11.26-.1.13,0,.22.1.24l1,.16h0l.08-.06-1.11-.3a.11.11,0,0,1,0,0l.3,0,.5,0s.06-.06.1-.09S19.14,46,19.1,46l-.33-.07c.46-.05.6,0,.61,0l-.11.12a1.9,1.9,0,0,0,1.29.08c-.35-.13-.7,0-1-.16.06,0,.08-.07.1-.07.22,0,.43,0,.65,0l.29,0s0-.1,0-.1l-.28,0h0l-.15,0s0-.06,0-.09h.24l.28,0-.06-.21c.27,0,.07-.32.24-.4,0,0,0-.09-.08-.1h-.2l-.16,0s0-.06,0-.08l.28,0c.06,0,.17,0,.18-.08s-.05-.13-.14-.13l-.25,0v-.07a2,2,0,0,1,.55,0,.31.31,0,0,0,.3,0l.17.12a1.55,1.55,0,0,0,0-.17s-.05,0-.07,0H21s-.08,0-.12-.06.09-.15.15-.23L20.85,44c.16-.12.4.11.58-.16l-.37-.09a.09.09,0,0,0,0,0h.16a.42.42,0,0,0,.16,0c.06,0,.1-.07.17,0s.08,0,.1,0,0-.08,0-.09a.14.14,0,0,0-.11,0s-.05,0-.08.06l-.13-.11h-.2l0-.07.17,0,.23-.07v-.08l-.35-.07v0l.36-.08V43l-.29-.12c.08-.09.27,0,.26-.17-.15,0-.3-.06-.45-.07s-.22,0-.23.14-.08,0-.12.08,0-.2,0-.28c.24-.11.53,0,.76-.14v0l-.56-.09,0-.06c.24,0,.48,0,.73,0a5.36,5.36,0,0,0,.69-.06.13.13,0,0,0,0-.06L21.25,42v-.06l1.14-.06v-.05a3.69,3.69,0,0,0-.46-.08,4.87,4.87,0,0,0-.54,0v-.06c.21-.1.48.06.72-.16a2.27,2.27,0,0,0-.71-.13l1-.08v-.07a1.78,1.78,0,0,0-.44-.08c-.32,0-.34,0-.48-.1l.93,0V41c-.3-.12-.66,0-1-.18l1-.05v-.09l-1,0V40.5a7,7,0,0,1,1.21-.06v-.09a5.48,5.48,0,0,0-1.46,0,.86.86,0,0,1,0-.13l2.18-.05,0,0c-.05,0-.09-.1-.14-.1l-.71,0a3.7,3.7,0,0,1-.47,0l-.54,0s0,0,0-.05a.18.18,0,0,1,.09,0h2.25l-.27.22.24.16-.51,0-.49,0v.09c.37.16.79-.09,1.14.1a1.6,1.6,0,0,1,.05.21s0,.12-.06.13a3.55,3.55,0,0,1-.47.06l-.58,0c0,.11.32.17.51.16a5.43,5.43,0,0,1,.57,0v.08l-.37,0H23a.09.09,0,0,0-.06.07s0,.06.06.07l.41,0,.43,0v.1h-.51c-.09,0-.18,0-.16.11s.12.09.18.09h.84s.05,0,.11,0l-.13,0c-.27,0-.54,0-.8,0-.06,0-.12.07-.17.11l.18.08h.2c-.07.24-.35,0-.39.2a.65.65,0,0,0,.75,0L23.66,42a.43.43,0,0,1,0,0l.66,0s0,0,0,.06l-.15,0-.18,0c0,.29.28,0,.39.2-.07,0-.14.07-.18.05-.22-.11-.41.09-.63,0-.05,0-.15.05-.24,0s-.09,0-.13,0,0,.09,0,.1a.25.25,0,0,0,.14,0s.1,0,.13-.07a5.2,5.2,0,0,0,1.11.09c-.34.13-.71,0-1,.2a.31.31,0,0,0,.19.08c.1,0,.2,0,.3,0h.32v.05l-.51.06-.22,0c0,.08,0,.16.06.27a1.28,1.28,0,0,1,0,.13,1.55,1.55,0,0,0,.23.07.75.75,0,0,0,.21,0s0,.06,0,.09h-.24a.46.46,0,0,0-.16.07s0,.09,0,.09a.29.29,0,0,0,.15,0c.22-.09.42,0,.62,0a.24.24,0,0,1-.09.06.94.94,0,0,1-.5,0s-.11,0-.16.07l.16.13S24,44,24,44s.27,0,.42,0c-.25.16-.25.16-.08.32l-.09.12c-.16-.11-.24-.1-.4.06l.61.06v.06l-.26.07-.26,0v.09h.28l.25,0s0,.06,0,.09h-.2c-.11,0-.23,0-.3.1a.23.23,0,0,0,.3.07.23.23,0,0,1,.29,0c0,.07-.07.17-.05.18a.34.34,0,0,0,.2.06c.17,0,.35-.1.5.05-.14.15-.33,0-.5.06a.34.34,0,0,0-.14,0s0,.08,0,.09a.66.66,0,0,0,.15,0l.18,0v.06l-.11,0c-.16,0-.32,0-.48,0s-.08,0-.12.08l.13.09a.09.09,0,0,0,.07,0,.63.63,0,0,1,.52,0A.14.14,0,0,0,25,46c.17-.14.33,0,.51,0,0,0,0,0-.05,0a3.38,3.38,0,0,0-.45,0,.61.61,0,0,0-.26.08s0,.09,0,.09a.6.6,0,0,0,.22.06c.2,0,.4,0,.61,0l.91-.07.78-.08Zm-6,1.06-.14.23a2.35,2.35,0,0,0-.11-.24Zm6.44-2.27s.07,0,.07.05a2.26,2.26,0,0,1,0,.26h-.08a1,1,0,0,1-.07-.23S27.79,44.91,27.82,44.9Zm.25-1.48c-.06.09-.12.15-.19.25,0-.18-.05-.35-.08-.56Zm.2.79-.16-.09c0-.13,0-.22,0-.31C28.32,43.85,28.35,43.91,28.27,44.21Zm.76.72c-.19-.18-.19-.28,0-.38C29,44.66,29,44.78,29,44.93Zm.5-1.24c-.06.12-.08.24-.14.28s-.33-.09-.35-.19,0-.11.05-.22C29.18,43.74,29.19,43.74,29.53,43.69Zm.94.51c-.44,0-.86-.13-1.24.17l0-.08c.06,0,.11-.14.18-.15s.42,0,.63,0a.82.82,0,0,0,.23,0C30.38,44,30.4,44.08,30.47,44.2Zm-.78,1.18-.08-.05a.51.51,0,0,1,.31-.94,2.65,2.65,0,0,1,1.44.31c.12.06.24.12.28.26s-.16,0-.19.1a.66.66,0,0,1-.43.18c-.05,0-.13,0-.13,0s-.14-.09-.22-.1a.53.53,0,0,1-.52-.42s-.07-.13-.12-.13-.2,0-.23.06,0,.16.05.24A.74.74,0,0,0,30,45a2.48,2.48,0,0,0,1.45.51c.36,0,.45-.1.35-.42l0,0c.26.2.37.5.23.67s-.32.18-.39.1c.11,0,.25-.08.21-.3a1,1,0,0,1-.23.14c-.16.05-.15.31-.43.25A2.75,2.75,0,0,1,29.69,45.38Zm-17.61-.46L12,45a1.71,1.71,0,0,0-.13-.23l.09-.06Zm.54,1,.25.1.58.33a.14.14,0,0,0,.07,0,2.06,2.06,0,0,1,.12-.26c.08.11.2.21.18.26s0,.16.12.19.22.1.33.13.37.2.52,0a.51.51,0,0,1,.28-.73,2.14,2.14,0,0,1,1-.28,2.66,2.66,0,0,1,1.45.19.46.46,0,0,1,.13.76,1.09,1.09,0,0,1-.17.13l0,0,.27-.08c-.11.22-.26.27-.44.17a.13.13,0,0,0-.1,0l-.39.15a3.54,3.54,0,0,1-.45.08s0,0-.06,0a2,2,0,0,0-.44-.18,1.07,1.07,0,0,1-.82-.35.14.14,0,0,0,0-.06.78.78,0,0,0,0-.16.53.53,0,0,0-.17,0,.15.15,0,0,0,0,.25,1.06,1.06,0,0,0,.31.21c.13,0,.21.11.17.26.4.08.78.15,1.16.24a4.85,4.85,0,0,0,1.42.17l.08,0a1.28,1.28,0,0,0,.28.07,1.67,1.67,0,0,0,.32,0l1.85.14,1,.06a12.54,12.54,0,0,0,1.49.09c.23,0,.45,0,.67,0s.53,0,.8,0,.78,0,1.17,0,.91,0,1.36-.1c.74-.11,1.47-.24,2.2-.38a8.64,8.64,0,0,0,.83-.24l.89-.22a3.06,3.06,0,0,1-.55.26,3.82,3.82,0,0,1-.66.19c-.11,0-.19.16-.3.2s-.35.07-.52.12a1.69,1.69,0,0,0-.31.13s-.07.08-.09.07a.2.2,0,0,0-.27.16L28,48c0,.2-.15.11-.22.17a.7.7,0,0,1-.53.17l0,0c-.16.07-.3.2-.51.07-.06,0-.21.05-.32.09s0,.06-.08.07c-.24,0-.49,0-.72.09a.8.8,0,0,1-.59,0c-.08,0-.23.07-.3-.09s-.09,0-.13,0l-.42.14a.78.78,0,0,1-.21,0,2.47,2.47,0,0,0-.66,0,.42.42,0,0,1-.43-.12s-.07,0-.09.07a.24.24,0,0,1-.33.1c-.09,0-.23-.07-.31.06s-.11,0-.12,0-.16-.08-.25,0l-.14,0-.35-.32c0,.16-.09.2-.21.18s-.11-.06-.16-.06H20l0,0a.17.17,0,0,1-.27-.06.43.43,0,0,0-.19-.16,1.69,1.69,0,0,0-.32-.11.35.35,0,0,1-.39-.11.27.27,0,0,0-.22-.09c-.16.07-.21,0-.22-.1s-.22-.11-.27-.07c-.2.12-.35,0-.51-.06a2.64,2.64,0,0,0-.29-.15l-.21-.07s-.08,0-.09,0c-.18-.15-.44,0-.6-.16,0,0-.11,0-.16,0a4.34,4.34,0,0,0-.66-.38s-.05,0-.08,0l-.12.06a.71.71,0,0,1,0-.16c-.09,0-.2-.05-.28,0s-.33,0-.44-.17l-.09,0c0,.07,0,.1,0,.14l0,0-.39-.29a1.76,1.76,0,0,1-.33-.05,5.4,5.4,0,0,1-.67-.25,4.93,4.93,0,0,0-.46-.23c-.14,0-.26,0-.25-.18s-.24-.08-.26-.14a1.09,1.09,0,0,0-.4-.47.78.78,0,0,1-.36-.64.3.3,0,0,1,.06-.18s.1,0,.11,0a1.23,1.23,0,0,1,0,.2c0,.08,0,.18,0,.24a1.43,1.43,0,0,0,.3.35,5.48,5.48,0,0,0,.46.34A1.53,1.53,0,0,0,12.62,45.91Zm1.55-2.33s-.07,0-.08-.08a.82.82,0,0,1,0-.22.51.51,0,0,1,.09-.16l0,0a2,2,0,0,1,0,.34S14.19,43.55,14.17,43.58ZM13.79,45h-.1a2.21,2.21,0,0,1,.11-.21L14,45Zm-.9.18c-.2-.21.09-.32.1-.5h0c0,.24.05.47.08.73l-.16,0-.2.14-.06-.07Zm-.09-1.9c.06.14.14,0,.25-.14s.06,0,.09,0h.24a1.48,1.48,0,0,1,.21,0s.05.08.07.12l-.1,0c-.15,0-.3,0-.44,0s-.22.07-.13.27l.17-.07-.07.35-.25.07C12.79,43.64,12.51,43.57,12.8,43.23Zm.6.35a.58.58,0,0,1,.06.63A.75.75,0,0,1,13.4,43.58Zm0,.94a1.45,1.45,0,0,1,0,.28h0a2.38,2.38,0,0,1,0-.26.44.44,0,0,1,0-.1S13.43,44.5,13.43,44.52Zm.06.85-.12.24,0,0-.06-.23Z"/><path class="cls-1" d="M25.21,34.21a.64.64,0,0,0,.05-.24,1,1,0,0,0-.2.28A3.16,3.16,0,0,1,24,35.59a1.82,1.82,0,0,1-.79.41c-.17,0-.19.13-.07.27l.32.33,0,0h-.16l0,0,.44.4.06-.06-.28-.35.84.52.09-.13.24.13a1.09,1.09,0,0,0,.08-.14.67.67,0,0,0,.17.07c.14,0,.23-.06.21-.2,0-.35-.06-.7-.11-1s-.11-.46-.14-.69a.63.63,0,0,1,0-.36C25,34.63,25.1,34.43,25.21,34.21Zm-1.12,2.48c0-.2,0-.37,0-.56C24.28,36.29,24.28,36.31,24.09,36.69Z"/><path class="cls-1" d="M25.26,34h0v0Z"/><path class="cls-1" d="M22.62,36.13a.41.41,0,0,1-.52-.06c0,.06-.05.12-.08.17l-.21-.14s0,.11-.06.12-.17-.27-.12-.3c.22-.14.3-.41.55-.5a.22.22,0,0,0,.12-.11c.12-.21.34-.25.54-.32a1.73,1.73,0,0,1,.1-.24.68.68,0,0,1,.12-.12.83.83,0,0,1,.11.15c.14.25.12.56.3.8,0,0,0,.15,0,.17A3.74,3.74,0,0,1,23,36a.09.09,0,0,0,0,0l-.33-.14c.07.11.14.18.13.23S22.68,36.09,22.62,36.13Z"/><path class="cls-1" d="M20.86,26.9l.54,1.4.18.45c.16.43.32.88.49,1.31s.28.65.41,1,.36.9.52,1.36c.1.25.17.51.26.77l-.06,0c-.05-.14-.1-.28-.16-.41s-.21-.42-.29-.64c-.17-.43-.3-.86-.46-1.29s-.36-.93-.54-1.39c-.26-.66-.52-1.32-.77-2-.1-.25-.21-.49-.3-.74a3.71,3.71,0,0,1-.1-.48,1.21,1.21,0,0,1,.1.14C20.75,26.57,20.8,26.74,20.86,26.9Z"/><polygon class="cls-1" points="20.57 26.25 20.58 26.26 20.57 26.25 20.57 26.25"/><path class="cls-1" d="M23.53,32.5l-.09,0-2.37-6.16.09,0C21.93,28.4,22.77,30.43,23.53,32.5Z"/><polygon class="cls-1" points="21.23 27.38 21.22 27.38 21.23 27.37 21.23 27.38"/><path class="cls-1" d="M21.64,28.26c.24.62.47,1.26.71,1.89.14.35.3.7.44,1.06s.31.79.46,1.19a2.1,2.1,0,0,1,.06.24l0,0-.13-.27c-.09-.25-.18-.5-.28-.74s-.24-.57-.35-.86-.19-.55-.29-.83-.26-.65-.38-1-.23-.58-.34-.88-.17-.49-.26-.73c0,0,.07,0,.08,0Q21.49,27.84,21.64,28.26Z"/><path class="cls-1" d="M23.23,34.59c0-.14-.07-.15-.19-.07v-.05a2.15,2.15,0,0,1,.19-.22,7.3,7.3,0,0,1,.4,1.28.48.48,0,0,1-.12-.17C23.42,35.1,23.3,34.85,23.23,34.59Z"/><path class="cls-1" d="M23.77,35.37c-.11-.26-.22-.53-.32-.8a1.46,1.46,0,0,1-.07-.3h.06a.18.18,0,0,1,.07.08c.13.33.25.67.37,1,0,0,0,.06,0,.09S23.78,35.4,23.77,35.37Z"/><path class="cls-1" d="M23.56,32.15c-.19-.48-.38-1-.56-1.45l.09,0a15,15,0,0,1,.53,1.46Z"/><path class="cls-1" d="M22.91,30.44c-.19-.49-.38-1-.56-1.47a1.14,1.14,0,0,1,.15.17c.11.26.21.52.31.79s.1.33.16.49Z"/><polygon class="cls-1" points="20.13 26.07 20.13 26.07 20.13 26.07 20.13 26.07 20.12 26.06 20.13 26.07"/><path class="cls-1" d="M20.21,25.77l.33,1-.05,0a1.09,1.09,0,0,1-.08-.15c-.1-.19-.19-.39-.28-.58l0-.29Z"/><path class="cls-1" d="M19.63,23.79a4.5,4.5,0,0,1,.47,1.13l-.06,0-.45-1.13Z"/><path class="cls-1" d="M20.23,24.84a1.57,1.57,0,0,1,.39.9l-.06,0Z"/><path class="cls-1" d="M23.63,34.2l.07,0c.11.31.22.61.32.92l-.08,0A7.1,7.1,0,0,1,23.63,34.2Z"/><path class="cls-1" d="M22.3,28.63c0,.11,0,.23.05.34a2,2,0,0,1-.29-.86A2.71,2.71,0,0,1,22.3,28.63Z"/><path class="cls-1" d="M20.56,26.24a2.2,2.2,0,0,1-.33-.86A2.44,2.44,0,0,1,20.56,26.24Z"/><path class="cls-1" d="M20.57,26.25Z"/><path class="cls-1" d="M23.62,31.67l-.31-.9.05,0,.35.89Z"/><path class="cls-1" d="M24.42,34.78l-.08,0-.25-.69.07,0Z"/><path class="cls-1" d="M20.09,36.39c-.1-.24-.18-.44-.27-.64A.66.66,0,0,1,20.09,36.39Z"/><path class="cls-1" d="M23.9,37.12l.48.2C24.16,37.39,23.89,37.25,23.9,37.12Z"/><path class="cls-1" d="M24,34.52l.06,0,.15.5-.06,0C24.13,34.86,24,34.72,24,34.52Z"/><path class="cls-1" d="M23.16,30.25l-.06,0-.23-.59.06,0C23,29.86,23.09,30.05,23.16,30.25Z"/><path class="cls-1" d="M24,33.48l-.31.39,0,0C23.71,33.7,23.75,33.51,24,33.48Z"/><path class="cls-1" d="M23.93,34.41c0-.13-.09-.25-.13-.37l.09,0,.12.37Z"/><path class="cls-1" d="M24.72,31.69c-.07.11-.14.21-.2.32l-.07,0c.06-.11.13-.22.2-.33Z"/><path class="cls-1" d="M22.6,29l0,0,.2.47-.06,0Z"/><path class="cls-1" d="M21.22,27.37h0Z"/><path class="cls-1" d="M21.12,27a.41.41,0,0,1,.1.37c0-.11-.11-.23-.17-.34Z"/><path class="cls-1" d="M23.46,30.29c0,.15.08.26.12.38C23.41,30.52,23.38,30.43,23.46,30.29Z"/><path class="cls-1" d="M11.22,20.12a2.78,2.78,0,0,0,.2,1.17,3.65,3.65,0,0,1,.18.56,2.42,2.42,0,0,0,.55.82,2.13,2.13,0,0,0,1,.59,1.59,1.59,0,0,0,1,.07.93.93,0,0,0,.61-.31c0-.07.19-.07.23-.13.2-.3.56-.45.68-.84A3.81,3.81,0,0,0,15.88,21a9.73,9.73,0,0,0,0-1.08,5.31,5.31,0,0,0-.19-.88h0v.08c0,.05,0,.1,0,.16a.54.54,0,0,1-.19-.07s0-.1,0-.14a.38.38,0,0,0-.14-.44c0,.23,0,.23-.37.2-.15,0-.19-.1-.2-.3a.72.72,0,0,0-.18-.48s0,0,0,0c0,.25,0,.24-.24.25a.91.91,0,0,0-.32.06l.37,0s.06,0,.08,0l.21.12-.19.08h-.06c0,.12,0,.19-.21.17s-.25.08-.2.23a.84.84,0,0,1,.21-.11.13.13,0,0,1,.13,0,1.6,1.6,0,0,1,.26.26c0,.06,0,.16,0,.23h-.17l.18.08-.19,0v0l-.29-.12a1.26,1.26,0,0,1-.34-.13,3.36,3.36,0,0,1-.38-.24l.25-.05.2,0s0-.09,0-.09h-.19c0-.3.22-.6,0-.89l-.2,0a1.2,1.2,0,0,0,.15-.16l-.08-.15a1.1,1.1,0,0,0-.12.17c-.13.31-.15.32-.46.26a1.6,1.6,0,0,0,0,.21c.27,0,.27,0,.26.32,0,.12,0,.23,0,.38a2.41,2.41,0,0,1-.45-.16,1.36,1.36,0,0,0-.58-.28c-.06,0-.12-.11-.17-.17h0c-.08,0-.17.07-.23.05s-.19,0-.22.11a4.89,4.89,0,0,0-.21.72A5.56,5.56,0,0,0,11.22,20.12Zm2,.48c0,.14,0,.25,0,.36l-.3-.31c0,.26,0,.28-.26.18l-.09,0c-.19.05-.19-.09-.21-.21s0-.17,0-.29c.25-.15.05-.29-.06-.43.26-.07.34,0,.33.23s0,.25,0,.37,0,.06.06.09a.41.41,0,0,0,0-.09s0-.1.05-.1a.21.21,0,0,1,.13.05s0,.07,0,.1l.2.2Zm-.24,1s0,.05,0,.07c0,.17,0,.19-.16.13s-.1,0-.16,0C12.65,21.61,12.89,21.74,13,21.65Zm2.57-2.26a0,0,0,0,0,0,0l-.44,0s0-.1,0-.18l-.23,0c0,.06,0,.14,0,.15a.82.82,0,0,1-.22,0l0,0c.2-.11.09-.23,0-.36a1.72,1.72,0,0,1-.07-.21l.33.11a2.38,2.38,0,0,1,.26,0s.12.09.11.13.08.21.21.24ZM14.82,22A.21.21,0,0,1,15,22l.15.11.05-.06A1.29,1.29,0,0,1,15,21.9a.57.57,0,0,1-.11-.27c0-.05.09-.11.14-.16l.13.14.24-.1a.83.83,0,0,0,.16-.09l-.08-.12c0-.05-.05-.1-.08-.14a.87.87,0,0,1-.18.11l-.24,0c-.05-.16-.17-.18-.3-.16-.3,0-.38,0-.42-.26a1.56,1.56,0,0,1-.14.19A1.4,1.4,0,0,0,14,20.9c-.26.21-.45,0-.65-.06a1.3,1.3,0,0,1,.11-.19l.32.29c.24-.16-.13-.18-.09-.31h.09c.22.05.44.12.66.16s.27,0,.31.15c.18,0,.34-.09.5-.11s.1.08.13.13,0,.08,0,.11l.15-.12c0,.11.14.22.13.33s-.13.24-.15.37-.13.21-.27.19a.64.64,0,0,0-.14,0,1.1,1.1,0,0,1,.12.16,2.47,2.47,0,0,1,.1.29h-.22c0,.1-.05.2-.08.3-.28-.11-.1-.27-.08-.4l-.05,0s-.11,0-.13-.05S14.79,22,14.82,22Zm-.45.83a2.81,2.81,0,0,1,.24-.2.11.11,0,0,1,.06.18.38.38,0,0,1-.16.15s-.11,0-.15,0A.12.12,0,0,1,14.37,22.83ZM14,21.64c.1-.26.18-.3.43-.22.05,0,.11,0,.16,0l.21.11c0,.07-.09.13-.15.22l-.11-.24C14.31,21.79,14.31,21.79,14,21.64Zm-.54-.14c0-.09,0-.22.09-.24a.67.67,0,0,1,.31,0s.07.06.1.09a.23.23,0,0,1-.1.07s-.06,0-.12-.09,0,.16,0,.18a.26.26,0,0,1-.16.07S13.45,21.53,13.45,21.5Zm-.15.55.12-.31h.06c0,.11-.06.22-.08.33Zm0-.56-.48,0c0-.08,0-.16,0-.26.1.12.2.16.26,0h.06C13.2,21.26,13.24,21.37,13.29,21.49Zm-.45.82c-.17,0-.13-.1-.12-.21l.13.16c.12-.18.26-.16.35-.06s0,.23,0,.32C13,22.44,13,22.32,12.84,22.31Zm-.36.16a1.85,1.85,0,0,1,.31.11.62.62,0,0,1,.22.17s0,.13,0,.24C12.78,22.79,12.55,22.73,12.48,22.47Zm-.36-1.38c.05-.05.14-.05.21-.08v0h.06c.08,0,.19,0,.19.08a.45.45,0,0,1-.12.29.12.12,0,0,1-.21-.07s0-.05-.08-.06S12.06,21.15,12.12,21.09Zm-.45.08c0-.05.08-.15.12-.14s.12.14.11.26S11.67,21.3,11.67,21.17Zm-.27-.72a.5.5,0,0,1-.08-.2c0-.21,0-.43.06-.65,0,0,0,0,0-.09l.1.22.19-.12c0,.24,0,.43,0,.63h.07c0-.05.06-.1.08-.15a2.1,2.1,0,0,1,.06-.24.43.43,0,0,1,.09-.1s.08.07.09.11a3.58,3.58,0,0,1,.09.45c0,.12,0,.25,0,.38-.1-.1-.13-.25-.21-.28s-.14.16-.27.23l-.15-.47h0l0,.26Z"/><path class="cls-1" d="M10.91,15.06l-.19-.23c.27.1.56.2.83.32a2,2,0,0,1,.55.32,3.47,3.47,0,0,1,.66,1.17s0,.08,0,.12-.08,0-.1-.07-.08-.22-.14-.32a3.7,3.7,0,0,0-.25-.43l0,0c.11.32.23.64.35,1l.51-.17a1,1,0,0,1-.13-.17l.54-.17c-.2-.38-.48-.71-.65-1.09l.08-.05q.31.53.63,1a.25.25,0,0,0,.12.11l.67.12.21.08c.09,0,.19.05.28.09a.69.69,0,0,1,.13.11.21.21,0,0,0,0,.06,3.17,3.17,0,0,0-.38-.17,1.61,1.61,0,0,0-.44-.05c-.13,0-.27,0-.41,0v.05a2.54,2.54,0,0,1,.37.1,3,3,0,0,1,1.13.8,7.94,7.94,0,0,1,.6.91,3.83,3.83,0,0,1,.46,1.81,5.26,5.26,0,0,1-.33,1.8,2.55,2.55,0,0,1-.27.58,4,4,0,0,1-.33.39,1.24,1.24,0,0,1-.79.51.36.36,0,0,1,.12-.15c.1-.07.21-.11.29-.18a3.41,3.41,0,0,0,.37-.48,1.43,1.43,0,0,0,.37-.67.12.12,0,0,1,0-.08,2,2,0,0,0,.35-1.19,3.68,3.68,0,0,0-.18-1.71,3.18,3.18,0,0,0-.37-.82,5,5,0,0,0-.63-.68c-.17-.17-.34-.34-.52-.5A1.44,1.44,0,0,0,13,17a.23.23,0,0,0-.08.17.72.72,0,0,1,0,.44c0-.14-.08-.29-.13-.45a.94.94,0,0,0-.28.05,4.69,4.69,0,0,0-.64.54,2.76,2.76,0,0,0-.67,1.43c0,.09,0,.24-.17.27a.39.39,0,0,1,0-.06,6.14,6.14,0,0,1,.53-1.45,3.37,3.37,0,0,1,.76-.92c.09-.07.14-.16.08-.26-.19-.34-.38-.67-.58-1a.86.86,0,0,0-.29-.19,5.54,5.54,0,0,1-.68-.25,3,3,0,0,1-.54-.48s0-.11,0-.16l.06,0C10.46,14.78,10.6,15,10.91,15.06Z"/><polygon class="cls-1" points="23.91 10.21 23.91 10.21 23.91 10.21 23.91 10.21"/><path class="cls-1" d="M20.33,14.13c.26-.29.51-.58.78-.86.58-.63,1.17-1.25,1.76-1.87.2-.2.39-.4.58-.61s.3-.39.46-.58c.16.06.18.12.06.24l-1.2,1.26-1,1c-.4.42-.81.84-1.2,1.27s-.57.65-.86,1c-.07.07-.16.13-.24.2l-.05,0,.2-.33a1.37,1.37,0,0,0,.23-.17Z"/><polygon class="cls-1" points="23.91 10.21 23.91 10.21 23.91 10.21 23.91 10.21"/><path class="cls-1" d="M22.72,11.38l-.7.77-1.25,1.33-.28.25-.06-.06c1.15-1.21,2.27-2.45,3.43-3.65l0,0v.16c-.14.13-.29.24-.42.38S23,11.11,22.72,11.38Z"/><path class="cls-1" d="M7.92,7.67l.8,1.24.84,1.28.69,1.07a.38.38,0,0,1,0,.12H10.2c-.25-.37-.48-.74-.72-1.11S8.94,9.42,8.66,9c-.41-.62-.84-1.24-1.26-1.86a1.29,1.29,0,0,1-.05-.21l.06,0,.13.14Z"/><path class="cls-1" d="M12.57,10.45c.2.31.42.6.63.9.4.59.8,1.19,1.19,1.8,0,0,0,.12,0,.18h-.06l-.09-.1c-.16-.27-.32-.54-.49-.8-.29-.45-.59-.89-.89-1.34-.13-.2-.25-.41-.38-.62l-.65-1c.05,0,.13,0,.15.08C12.19,9.83,12.37,10.15,12.57,10.45Z"/><path class="cls-1" d="M20.91,12.87h0v0Z"/><path class="cls-1" d="M22.59,11.2c-.26.28-.54.55-.81.83l-.16.18c-.24.21-.47.43-.7.65a.3.3,0,0,1,0-.08c.24-.24.47-.48.7-.73l.79-.9c.29-.32.59-.63.9-1,.12-.13.27-.25.4-.37l0,0c-.06.08-.11.16-.18.24Z"/><path class="cls-1" d="M14.2,13.55c-.82-1.28-1.67-2.5-2.41-3.79A28.22,28.22,0,0,1,14.2,13.55Z"/><path class="cls-1" d="M11.2,13.87h0l.14.36c-.37-.27-1-1.25-.93-1.47l.13.19.66.92h0Z"/><path class="cls-1" d="M11.71,14.34a3.67,3.67,0,0,1,.53.92c-.34-.21-.38-.69-.77-.84a.53.53,0,0,0-.27-.54L10.73,13l-.3-.47.09-.05.59.89C11.31,13.71,11.53,14,11.71,14.34Z"/><path class="cls-1" d="M19.41,14.22a.3.3,0,0,1-.52-.09l.32-.13c.16-.07.13-.22.1-.32s-.16-.1-.25-.09a1.57,1.57,0,0,0-.35.11c-.09-.19,0-.25.17-.33s.16-.21.3-.07.22.15.24.24a3.4,3.4,0,0,1,0,.64Z"/><path class="cls-1" d="M9,9.9l-.1-.1L8.13,8.69c-.32-.48-.63-1-.94-1.45,0,0,0-.1,0-.15l.08,0C7.81,8,8.47,8.91,9,9.86Z"/><path class="cls-1" d="M21.66,11.78a11.67,11.67,0,0,1,2-2.12C23,10.4,22.35,11.11,21.66,11.78Z"/><path class="cls-1" d="M14.3,14.2c-.11-.2-.21-.41-.33-.6-.32-.49-.65-1-1-1.44-.09-.14-.17-.29-.25-.43l.06,0L14.37,14a1.57,1.57,0,0,1,.12.3l0,0A1.14,1.14,0,0,1,14.3,14.2Z"/><path class="cls-1" d="M11.18,9.37,9.66,7A9.81,9.81,0,0,1,11.18,9.37Z"/><path class="cls-1" d="M13.22,16.45l-1.31-2a9.37,9.37,0,0,1,1.36,2Z"/><polygon class="cls-1" points="19.6 14.81 19.6 14.82 19.6 14.82 19.6 14.81 19.6 14.81 19.6 14.81"/><path class="cls-1" d="M20.45,13.77l-.32.38-.53.66-.13.1c-.09.09-.17.19-.25.28l0,0A4,4,0,0,1,20.45,13.77Z"/><path class="cls-1" d="M11.87,14.28a8.52,8.52,0,0,1-1.24-2l1.28,2Z"/><path class="cls-1" d="M11.31,12.44l1.41,2.19-.07,0L11.24,12.5Z"/><path class="cls-1" d="M10.13,11.61A10.69,10.69,0,0,1,9.05,10l.08,0A17.24,17.24,0,0,1,10.13,11.61Z"/><path class="cls-1" d="M14.48,17.53s.07,0,.11,0a.69.69,0,0,1,0,.2.13.13,0,0,1-.11.08h-.52a.82.82,0,0,1,.26-.57c0,.16-.06.3-.09.45h.05l.06-.13c0-.06,0-.12,0-.17a.3.3,0,0,1,.11-.07.28.28,0,0,1,0,.12,1.25,1.25,0,0,1,0,.19h.05A.45.45,0,0,1,14.48,17.53Z"/><path class="cls-1" d="M11.91,9.11,12,9a.59.59,0,0,0,.06.14c.23.36.47.71.71,1.07,0,0,0,.13,0,.19l-.09,0A14.37,14.37,0,0,1,11.91,9.11Z"/><path class="cls-1" d="M10.42,7.79a4.69,4.69,0,0,1-.21-.46,3.22,3.22,0,0,1,.24.28l.69,1.08.14.27,0,0-.08-.09Z"/><path class="cls-1" d="M10,6.73l.1-.06c.3.46.6.91.89,1.37l-.08.06Z"/><path class="cls-1" d="M13.89,14.38c-.4-.62-.8-1.24-1.21-1.86a.18.18,0,0,0,.07,0L14,14.34Z"/><path class="cls-1" d="M14.05,14.19l.07,0a4.56,4.56,0,0,1,.72,1.12l-.07,0Z"/><path class="cls-1" d="M9.48,7.18l.08,0,1,1.55-.07,0Z"/><path class="cls-1" d="M9.28,8.91l.94,1.46-.07,0L9.2,9Z"/><path class="cls-1" d="M13.39,17.47s-.09,0-.13,0,0,0,0-.06a.4.4,0,0,1,0-.16.57.57,0,0,1,.11-.16l.06.16a.08.08,0,0,1,0,0c.07-.08.14-.22.18-.21s0,.18,0,.28S13.46,17.37,13.39,17.47Z"/><path class="cls-1" d="M13.3,12.88l-.08,0-.85-1.31.07,0C12.73,12,13,12.44,13.3,12.88Z"/><path class="cls-1" d="M10.14,13.21c.1.42.2.84.29,1.25C10.23,14.21,10,13.56,10.14,13.21Z"/><path class="cls-1" d="M12.44,11.28c-.26-.4-.52-.8-.79-1.2l.09-.06c.26.41.51.82.77,1.22Z"/><path class="cls-1" d="M9.16,7.51a.45.45,0,0,1-.1-.09l-.52-.77a1.75,1.75,0,0,1-.18-.29s0-.11,0-.16h.05l.77,1.28Z"/><path class="cls-1" d="M9.62,9.85l.76,1.2-.07,0L9.53,9.91Z"/><path class="cls-1" d="M8.31,8,7.52,6.82l.09-.06c.25.41.51.82.77,1.23Z"/><path class="cls-1" d="M12.06,14.2l.07,0,.7,1.07-.07.06C12.52,14.92,12.29,14.56,12.06,14.2Z"/><path class="cls-1" d="M14.59,19.7a.42.42,0,0,1-.11.15,3.52,3.52,0,0,1-.39.18c0-.11,0-.24,0-.32l.3,0A.62.62,0,0,1,14.59,19.7Z"/><path class="cls-1" d="M10.38,6.85l.08,0c.16.29.5.46.54.84l-.06,0Z"/><path class="cls-1" d="M11.74,18.14l-.06-.05c.19-.22.37-.44.57-.64,0-.05.16-.08.18-.06a.93.93,0,0,1,.08.2c-.24-.09-.34.07-.45.17A4,4,0,0,0,11.74,18.14Z"/><path class="cls-1" d="M13.28,15.21l.08-.05.61.94-.07,0Z"/><path class="cls-1" d="M9,8.18,8.25,7.05,8.3,7l.76,1.11Z"/><path class="cls-1" d="M12.73,14.79l.07,0,.62.93-.08.06C13.13,15.42,12.93,15.1,12.73,14.79Z"/><path class="cls-1" d="M12.16,12.6c-.24-.37-.48-.74-.73-1.11l.07-.05c.24.38.49.75.73,1.12Z"/><path class="cls-1" d="M14,14l-.06,0a6.89,6.89,0,0,1-.61-1l.07,0Z"/><path class="cls-1" d="M8.12,8.87A1.16,1.16,0,0,1,7.58,8C7.77,8.32,8,8.59,8.12,8.87Z"/><path class="cls-1" d="M12.67,17.23c.05.22.09.45.14.69C12.59,17.82,12.47,17.38,12.67,17.23Z"/><path class="cls-1" d="M11.72,11.35c.24.36.47.72.7,1.08l-.05,0c-.24-.35-.47-.71-.71-1.07Z"/><path class="cls-1" d="M20.31,13.15a5.05,5.05,0,0,1,.7-.76.12.12,0,0,1,0,0l-.71.75Z"/><path class="cls-1" d="M9.46,7.88l.57.9-.06,0c-.19-.29-.38-.59-.58-.88Z"/><path class="cls-1" d="M15.31,18.49c-.09-.14-.12-.34-.34-.37,0,0,0-.07,0-.11a.08.08,0,0,1,.07-.07s.06,0,.08.07l.17.22c.07.1.17.18.13.36Z"/><path class="cls-1" d="M19.63,14a.64.64,0,0,1,.12-.55A.4.4,0,0,1,19.63,14Z"/><path class="cls-1" d="M11.94,14c-.15-.26-.4-.45-.47-.75l.06,0,.45.75Z"/><path class="cls-1" d="M12.81,18.13a.28.28,0,0,1,0,.09l-.82,0A1.63,1.63,0,0,1,12.81,18.13Z"/><path class="cls-1" d="M9.14,8.8a1.31,1.31,0,0,1-.42-.64A1.33,1.33,0,0,1,9.14,8.8Z"/><path class="cls-1" d="M8.72,8.16h0v0Z"/><path class="cls-1" d="M13.49,15v0h0Z"/><path class="cls-1" d="M13.87,15.7,13.5,15a1.57,1.57,0,0,1,.44.64Z"/><path class="cls-1" d="M13.87,17.15s.07.05.06.07-.08.29-.12.43l-.06,0c-.11-.15,0-.3,0-.44A.07.07,0,0,1,13.87,17.15Z"/><path class="cls-1" d="M8.19,7.28l0,0a1.88,1.88,0,0,1-.41-.66l.06,0C7.92,6.84,8.05,7.06,8.19,7.28Z"/><path class="cls-1" d="M9,9.05c-.14-.21-.28-.43-.41-.65l.07,0L9,9Z"/><path class="cls-1" d="M20.27,13.62l-.44.51A.64.64,0,0,1,20.27,13.62Z"/><path class="cls-1" d="M8.68,7.15l.5.77L9.12,8l-.48-.77Z"/><path class="cls-1" d="M13.42,15.83l.08-.05c.1.18.21.36.32.54l-.09,0Z"/><path class="cls-1" d="M11.91,13l.41.62-.07,0-.4-.62Z"/><path class="cls-1" d="M11.28,8.68,11,8.21A.41.41,0,0,1,11.28,8.68Z"/><path class="cls-1" d="M10.41,8.9l-.05,0c-.16-.22-.31-.44-.46-.67l.06,0Z"/><path class="cls-1" d="M12.38,11.49l-.06,0L11.94,11l.07,0Z"/><path class="cls-1" d="M11.31,11.72l0,0c.1.19.32.3.3.57Z"/><path class="cls-1" d="M8.35,7.47l.36.66a2,2,0,0,1-.43-.63Z"/><path class="cls-1" d="M13.72,14.54l0,0,.4.6-.06,0Z"/><rect class="cls-1" x="12.76" y="13.82"/><path class="cls-1" d="M12.33,13.28l.05,0,.38.57a.13.13,0,0,1-.09,0C12.56,13.63,12.44,13.46,12.33,13.28Z"/><path class="cls-1" d="M14.62,17.81l.1-.14a.72.72,0,0,1,.18.1.36.36,0,0,1,0,.15h-.13A1.06,1.06,0,0,1,14.62,17.81Z"/><path class="cls-1" d="M9.25,8.46,9.62,9l-.06,0L9.19,8.5Z"/><path class="cls-1" d="M9.78,9l-.35-.53.07,0,.34.54Z"/><path class="cls-1" d="M13.76,15l.06,0,.33.53-.06,0Z"/><path class="cls-1" d="M14.82,15.73l0,0a1.18,1.18,0,0,1,.3.49l0,0Z"/><path class="cls-1" d="M12.25,13l-.07,0-.34-.55.06,0Z"/><path class="cls-1" d="M11.15,7.8l.24.42-.09,0-.22-.43Z"/><path class="cls-1" d="M14.09,14.56c.13.2.26.38.38.58l-.06,0L14,14.6Z"/><path class="cls-1" d="M9.49,9.83l-.28-.45s0,0,0-.05l.31.45Z"/><path class="cls-1" d="M11.36,13.14l-.24-.44.05,0c.09.14.18.27.28.4Z"/><path class="cls-1" d="M20.91,12.87h0Z"/><path class="cls-1" d="M20.56,13.3l-.06-.06.4-.36A.83.83,0,0,1,20.56,13.3Z"/><path class="cls-1" d="M11.57,12.57,11.21,12l0,0,.37.59Z"/><path class="cls-1" d="M14.64,16.41l-.31-.5.08,0,.28.51Z"/><path class="cls-1" d="M9.12,6.61l.06,0,.3.49-.06,0Z"/><path class="cls-1" d="M9.89,9.54l0,0,.32.45-.06,0Z"/><path class="cls-1" d="M13.08,23.54s.07.08.1.12-.08.07-.1.06a.75.75,0,0,1-.17-.1l0-.05C13,23.56,13,23.52,13.08,23.54Z"/><path class="cls-1" d="M13.18,14.15l.06,0c.08.11.15.23.22.35l-.07,0Z"/><path class="cls-1" d="M10.27,10.44c.08.13.16.26.23.39a.1.1,0,0,0-.05,0l-.24-.39Z"/><path class="cls-1" d="M12.36,11.9l.27.4-.05,0-.28-.4Z"/><path class="cls-1" d="M13.49,15h0v0Z"/><path class="cls-1" d="M13.25,14.54c.08.14.15.29.22.44l-.3-.39Z"/><path class="cls-1" d="M9.31,7.35c-.09-.13-.17-.26-.26-.38l.07,0c.08.13.16.26.25.39Z"/><path class="cls-1" d="M13.7,14.43l0,0c-.1-.14-.21-.28-.31-.43l.09,0Z"/><path class="cls-1" d="M10.19,7.3h0v0Z"/><path class="cls-1" d="M9.94,7l.07,0,.18.36C10,7.26,10,7.11,9.94,7Z"/><path class="cls-1" d="M9.87,9.06l0,0,.27.45A.91.91,0,0,1,9.87,9.06Z"/><path class="cls-1" d="M13,14.28c-.1-.14-.24-.25-.22-.46l.27.43Z"/><path class="cls-1" d="M12.76,13.07l-.26-.42,0,0,.28.41Z"/><path class="cls-1" d="M21.15,12.25a.49.49,0,0,1,.27-.28l0,0-.27.29Z"/><path class="cls-1" d="M13.08,13.9l-.05,0-.24-.38.07,0Z"/><path class="cls-1" d="M13,14.77l0,0c.09.09.18.17.18.29l-.08,0A2.59,2.59,0,0,0,13,14.77Z"/><path class="cls-1" d="M10.19,9.5v0h0Z"/><path class="cls-1" d="M10.37,9.85c0-.13-.24-.16-.18-.35l.24.31Z"/><path class="cls-1" d="M22.52,10.06l.8-.84a.25.25,0,0,1,.09,0l0,0-.11.13L22,10.76c-.1.1-.23.19-.34.28l-.31.39-.08-.07.39-.33a4.17,4.17,0,0,1,.26-.37C22.12,10.45,22.32,10.26,22.52,10.06Z"/><path class="cls-1" d="M23.11,9.12l.06.06L21.82,10.6l-.05,0A9.05,9.05,0,0,1,23.11,9.12Z"/><path class="cls-1" d="M24.51,9.74a9.07,9.07,0,0,1,1-1.14C25.59,8.81,24.76,9.7,24.51,9.74Z"/><path class="cls-1" d="M10.66,6.18l-.07.06a.58.58,0,0,1-.12-.1c-.19-.27-.37-.55-.55-.83,0,0,0-.09,0-.14s.1,0,.12.06.22.34.33.51Z"/><path class="cls-1" d="M24.36,9.52l.9-1s.08,0,.12,0l0,.05-1,1Z"/><path class="cls-1" d="M24.26,9.34a3,3,0,0,1,.91-.95A3.3,3.3,0,0,1,24.26,9.34Z"/><path class="cls-1" d="M22.23,9.76a3.73,3.73,0,0,1,.91-1A4.29,4.29,0,0,1,22.23,9.76Z"/><path class="cls-1" d="M31.54,15.6c0,.17.17.32,0,.5l-.33-.81A.34.34,0,0,1,31.54,15.6Z"/><path class="cls-1" d="M24,8.86l.72-.78C24.76,8.26,24.24,8.81,24,8.86Z"/><path class="cls-1" d="M9.73,5.25a3,3,0,0,1,.56.88A1.55,1.55,0,0,1,9.73,5.25Z"/><path class="cls-1" d="M25.79,8.65l.06-.07.83.72-.06.08C26.34,9.14,26.06,8.9,25.79,8.65Z"/><path class="cls-1" d="M24.06,8.59s-.07,0-.11.05l0-.05c.18-.19.35-.39.53-.57,0,0,.09,0,.14,0s0,.09,0,.11S24.23,8.44,24.06,8.59Z"/><path class="cls-1" d="M9.58,5.41c.14.21.27.41.42.66A.73.73,0,0,1,9.58,5.41Z"/><path class="cls-1" d="M24.13,9.11a.83.83,0,0,1,.46-.46C24.54,8.85,24.27,9.11,24.13,9.11Z"/><path class="cls-1" d="M9.32,5.66a.35.35,0,0,1,.28.43Z"/><path class="cls-1" d="M23.93,8.21l.3-.29.06.06-.28.3Z"/><path class="cls-1" d="M31.59,16.5c0-.11,0-.21,0-.25l.14.18Z"/><path class="cls-1" d="M31.71,16.44h0l.08-.05Z"/><path class="cls-1" d="M20.65,34.67c.06.18.11.36.17.54l-.07,0c-.05-.18-.11-.36-.16-.54Z"/><path class="cls-1" d="M20.61,35.23l-.06,0-.13-.48C20.65,34.91,20.56,35.09,20.61,35.23Z"/><path class="cls-1" d="M20.44,34.63l-.06,0c-.06-.14-.11-.27-.16-.41l.07,0Z"/><path class="cls-1" d="M21.17,21.71l.18.22-.16.28a1.19,1.19,0,0,1-.18-.33S21.11,21.77,21.17,21.71Z"/><path class="cls-1" d="M21.37,23.27c.13.28.26.56.38.84l.05.11c-.35-.27-.38-.68-.55-1l.05,0,.08.06A.07.07,0,0,0,21.37,23.27Z"/><polygon class="cls-1" points="21.38 23.21 21.38 23.2 21.38 23.2 21.38 23.21 21.38 23.21 21.38 23.21"/><path class="cls-1" d="M19.77,19.31c-.17.1-.22,0-.29-.09a.21.21,0,0,0,0-.06Z"/><path class="cls-1" d="M26.25,24.12l.28-.09v0l-.11-.09a1.07,1.07,0,0,1,.17-.3.21.21,0,0,1,.32,0,.47.47,0,0,1-.12.09l-.12,0v.05l.15.05-.15.09.13.12C26.64,24.18,26.34,24.22,26.25,24.12Z"/><path class="cls-1" d="M26.66,24.3a.9.9,0,0,1-.59.12A.54.54,0,0,1,26.66,24.3Z"/><path class="cls-1" d="M26.6,24.71l-.73.11v-.07l.73-.1Z"/><path class="cls-1" d="M26.16,25l-.45.09,0-.11.46-.06S26.16,24.94,26.16,25Z"/><path class="cls-1" d="M26.25,24.53c.25-.13.25-.13.4,0l-.39,0A.09.09,0,0,1,26.25,24.53Z"/><path class="cls-1" d="M27.35,24.87l.6-.07v.06l-.58.12S27.36,24.91,27.35,24.87Z"/><path class="cls-1" d="M27.77,25.09l-.44.08A.32.32,0,0,1,27.77,25.09Z"/><path class="cls-1" d="M21,16.82a3.35,3.35,0,0,1-1.08.7s0,0-.06.06l-.5.43-.87.64c-.15.11-.24.33-.49.29a1.09,1.09,0,0,0-.08-.15s0,.08,0,.09a1,1,0,0,1-.21.15s-.09-.07-.08-.09a1.55,1.55,0,0,1,.12-.22s0,0,0,0,.33-.06.43-.23.14,0,.19-.05a1.94,1.94,0,0,0,.27-.23l.83-.67,1-.85c.09-.08.17-.19.29-.32,0,.23.16.31.33.3A.59.59,0,0,1,21,16.82Z"/><path class="cls-1" d="M25.9,28.64a.22.22,0,0,0,0,.08c-.1,0-.19.06-.28.07s-.36,0-.44.22c0,0-.06.06-.1.1l-.06,0,.17-.41Z"/><polygon class="cls-1" points="24.25 21.42 24.25 21.43 24.25 21.43 24.25 21.42"/><path class="cls-1" d="M23.92,21.63l.33-.2c0-.19.14-.35.06-.55s-.12-.35-.2-.5a.39.39,0,0,0-.48-.1.93.93,0,0,0-.34,1.09,1.2,1.2,0,0,0,.28.27A.27.27,0,0,0,23.92,21.63Zm-.05-.1a.83.83,0,0,1-.17-.65s.06-.07.1-.11.07.06.07.09Z"/><path class="cls-1" d="M22.86,40.63l1.05,0,0,.08c-.06,0-.11.1-.17.1H23a.33.33,0,0,1-.16-.07S22.86,40.65,22.86,40.63Z"/><path class="cls-1" d="M24.23,46.26s0-.08,0-.09l.26-.1.15.13a.55.55,0,0,1-.15.08A1.06,1.06,0,0,1,24.23,46.26Z"/><path class="cls-1" d="M24.09,45.42s-.06-.06-.06-.08,0-.09.07-.08a2.85,2.85,0,0,1,.29,0v.1Z"/><path class="cls-1" d="M23.82,44.14c.1-.11.19,0,.28,0a.2.2,0,0,1-.26.1S23.8,44.16,23.82,44.14Z"/><path class="cls-1" d="M24.09,45.64a.12.12,0,0,1,0-.09c.11,0,.24-.06.32.11a1.19,1.19,0,0,1-.26.05S24.11,45.67,24.09,45.64Z"/><path class="cls-1" d="M21.91,43.25a.11.11,0,0,1,0,.08.15.15,0,0,1-.09,0,.43.43,0,0,1-.16,0l-.13-.09,0,0,.25,0A.13.13,0,0,1,21.91,43.25Z"/><path class="cls-1" d="M23.64,45.87a1.07,1.07,0,0,1,.25,0s.06,0,.07.08a.07.07,0,0,1,0,.07C23.85,46.08,23.69,46,23.64,45.87Z"/><path class="cls-1" d="M23.77,45.78l-.15-.13a.67.67,0,0,1,.18-.11s.1.07.09.1S23.83,45.72,23.77,45.78Z"/><path class="cls-1" d="M24,46.3l-.33,0a.25.25,0,0,0,0-.08.68.68,0,0,1,.23,0c.05,0,.09.08.14.12Z"/><path class="cls-1" d="M21.9,42.49a.26.26,0,0,1-.15,0l-.11-.08,0,0h.22l.11,0s0,.07,0,.08A.15.15,0,0,1,21.9,42.49Z"/><path class="cls-1" d="M23.51,44.84s0-.07,0-.11l.27,0C23.7,44.91,23.6,44.88,23.51,44.84Z"/><path class="cls-1" d="M23.55,45.39a.13.13,0,0,1,0-.06c.09,0,.18-.11.27,0s0,.12,0,.12Z"/><path class="cls-1" d="M23.75,45.12c-.09.06-.18.06-.27-.11h.28S23.77,45.11,23.75,45.12Z"/><path class="cls-1" d="M21.16,45a1.21,1.21,0,0,1-.14.1s-.08,0-.11-.08L21,44.9Z"/><path class="cls-1" d="M23.39,44.24s0-.07,0-.1h.25s0,.1,0,.1Z"/><path class="cls-1" d="M23.42,44.48c.07-.11.16-.1.26,0s0,.09,0,.1S23.47,44.6,23.42,44.48Z"/><path class="cls-1" d="M21.65,42.76s0-.08,0-.08a.56.56,0,0,1,.22,0s.07,0,.1.06-.07.07-.1.07A1,1,0,0,1,21.65,42.76Z"/><path class="cls-1" d="M20.9,45.36s0-.08,0-.12h.22C21.05,45.39,21,45.45,20.9,45.36Z"/><path class="cls-1" d="M21.08,44.17s0-.07,0-.11l.21,0s0,.07,0,.1Z"/><path class="cls-1" d="M23.34,43.88s.08-.06.12-.06a.39.39,0,0,1,.14.08l-.14.1Z"/><path class="cls-1" d="M23.25,42.7l.22,0v.12h-.23S23.24,42.7,23.25,42.7Z"/><path class="cls-1" d="M23.29,43.37a.14.14,0,0,1,0-.06s.1-.07.14-.06.09,0,.13.09l0,0Z"/><path class="cls-1" d="M21,44.69l.2,0s0,.07,0,.1l-.22,0A.34.34,0,0,1,21,44.69Z"/><path class="cls-1" d="M15.52,45.91a.78.78,0,0,0,0,.14c0,.11,0,.21.13.23a2.56,2.56,0,0,0,.55,0,5.82,5.82,0,0,0,.6,0,1.73,1.73,0,0,0,.13-.21,1.09,1.09,0,0,0,0-.26h.24c0,.1-.06.17-.1.29l.23-.09c0,.06,0,.13,0,.14a2.37,2.37,0,0,1-.47.2c-.22,0-.46.06-.68.11a1,1,0,0,1-.67-.06.5.5,0,0,1-.24-.26C15.19,46,15.36,45.93,15.52,45.91Z"/><path class="cls-1" d="M16.9,46.8l0,0,.56-.47C17.48,46.49,17.25,46.7,16.9,46.8Z"/><path class="cls-1" d="M16.48,45.85l.14-.11.13.12c-.05,0-.09.1-.14.1S16.53,45.89,16.48,45.85Z"/><path class="cls-1" d="M30.92,44.8a1,1,0,0,1,.21,0,.61.61,0,0,1,.18,0,.8.8,0,0,1-.13.22s-.11,0-.17,0a.89.89,0,0,1-.19-.1l.2-.08Z"/><path class="cls-1" d="M29.55,45c.13-.16.19-.14.36.11C29.65,45.18,29.65,45.18,29.55,45Z"/><path class="cls-1" d="M11.85,18.67s.13,0,.15.06a.72.72,0,0,1-.08.63A.51.51,0,0,1,11.85,18.67Z"/></g></g></svg>