<svg xmlns="http://www.w3.org/2000/svg" id="curly" viewBox="0 0 52.78 11.68"><g id="Layer_2" data-name="Layer 2"><g id="Layer_1-2" data-name="Layer 1"><path class="cls-1" d="M51.76,4.12A11.78,11.78,0,0,0,47,3.39a.82.82,0,0,1-.89-.6,5.82,5.82,0,0,0-.82-1.61A4.22,4.22,0,0,0,43.74.07a.73.73,0,0,0-1,.91,11.92,11.92,0,0,0,.75,1.92,6.86,6.86,0,0,0,.37.67c-.52.11-.94.19-1.34.29s-.75,0-1-.53A20.75,20.75,0,0,0,40.27,1C39.93.47,39.2.17,38.81.42a1.19,1.19,0,0,0-.43,1.41A13.33,13.33,0,0,0,39,3.62c.47,1.1.49,1.1-.7,1.37l-.06,0a.49.49,0,0,1-.7-.41A11.78,11.78,0,0,0,37,3,3.81,3.81,0,0,0,35.24.82.81.81,0,0,0,34,1.45a1.47,1.47,0,0,0,0,.69c.39,1.12.78,2.24,1.22,3.34.12.31.25.53-.12.72-.57.28-1.13.57-1.69.86s-.74.07-1-.37-.53-1.05-.8-1.57-.48-.89-.73-1.33l-.16.08A8,8,0,0,0,31.89,7c.22.44.36.73-.22,1a16.15,16.15,0,0,0-2.29,1.55c-.67.52-1.28,1.13-1.91,1.71l.12.15a2.71,2.71,0,0,0,.49-.22c1.36-.84,2.71-1.68,4.05-2.54.4-.26.65-.18,1,.14a6.69,6.69,0,0,0,1.62,1.25,1.89,1.89,0,0,0,2.8-1.38,3.17,3.17,0,0,1,.12-.41C40,9.86,41.08,9.69,42.2,7.51a4,4,0,0,0,2.68.6,2.15,2.15,0,0,0,1.55-2.36c.12,0,.22.25.27.27a7.78,7.78,0,0,0,5,.47,1.33,1.33,0,0,0,1.09-1.16A1.43,1.43,0,0,0,51.76,4.12ZM34.63,2c.07-.15,0-.59.29-.6s.47.24.57.43c.51,1,1,2.05,1.44,3.11a.73.73,0,0,1-.29.65A.69.69,0,0,1,36,5.42,7.58,7.58,0,0,1,34.63,2ZM36.49,9.2a1,1,0,0,1-1.31.29,3.47,3.47,0,0,1-1.81-1.61c.76-.39,1.46-.77,2.17-1.1.3-.14,1.25.5,1.28,1A2.79,2.79,0,0,1,36.49,9.2Zm.23-2.56c-.06-.1-.36-.26,0-.41s.38.09.43.2a5.55,5.55,0,0,1,.21,1A3.41,3.41,0,0,1,36.72,6.64ZM39,1.52a.47.47,0,0,1,.14-.42.49.49,0,0,1,.44.11,5.39,5.39,0,0,1,1.36,2.57c0,.14,0,.47-.44.64s-.57-.33-.64-.51C39.53,3.13,39.26,2.32,39,1.52Zm2.29,6.24a1.39,1.39,0,0,1-1.44.89C38.56,8.52,38,7.9,37.94,6.5c-.19-.59.2-.76.71-1,.8-.29,1.21-.46,1.78.37.1.15.28.33.48.58C41.27,7,41.56,7.21,41.28,7.76Zm.35-1.42L40.57,5c.4-.06.78-.27.91-.16A2.19,2.19,0,0,1,41.63,6.34Zm1.7-5.16c-.1-.37.22-.43.32-.47a.47.47,0,0,1,.4,0A4.47,4.47,0,0,1,45.52,3a.38.38,0,0,1-.19.32c-.23,0-.61.08-.69,0C44.16,2.63,43.75,1.88,43.33,1.18Zm2.29,5.51a1.31,1.31,0,0,1-1.42.81,8.7,8.7,0,0,1-1.43-.57c-.61-.25-.47-.8-.52-1.29-.11-1-.12-1,.94-1.24l.6-.08A1.6,1.6,0,0,1,45.62,6.69Zm4.17-.62a8.38,8.38,0,0,1-2.57-.59c-.59-.19-1.12-.61-1.14-1.15,0-.37.47-.24.84-.24a13,13,0,0,1,4.52.67c.23.08.79.25.78.61S50.9,6.13,49.79,6.07Z"/><path class="cls-1" d="M20.73,7.77c-.39-.32-.59-.52-.27-1.06a19.13,19.13,0,0,0,1.2-2.5,4.35,4.35,0,0,0,.16-1l-.18,0a4.57,4.57,0,0,0-.29.47c-.51,1-1,1.93-1.53,2.88-.11.18-.41.43-.54.39-.67-.21-1.3-.51-2-.8.31-.48.61-.86.83-1.28a20.39,20.39,0,0,0,1.09-2.32,1.18,1.18,0,0,0-.29-1A1.11,1.11,0,0,0,18,1.43a3.57,3.57,0,0,0-1.84,1.63c-.29.51-.62,1-1,1.48-.49.68-.61.69-1.41.16.11-.19.24-.37.35-.56.41-.8.88-1.57,1.21-2.4a.61.61,0,0,0-.7-.88,2.43,2.43,0,0,0-1.3.64,27.88,27.88,0,0,0-1.89,2.28c-.43.55-.77.59-1.38.1.17-.28.34-.57.5-.86a10.24,10.24,0,0,0,.74-1.38,1.1,1.1,0,0,0-.06-.93A1,1,0,0,0,10.3.58a3,3,0,0,0-1.18.78c-.6.64-1.1,1.37-1.67,2a1,1,0,0,1-.65.33c-.79,0-1.59-.08-2.39-.12a8.36,8.36,0,0,0-3.64.52c-.89.37-1,1.18-.27,1.74a4.59,4.59,0,0,0,2.66,1c.81,0,1.63,0,2.44-.08a.73.73,0,0,1,.83.39,1.76,1.76,0,0,0,1.93.86c.58-.09,1.14-.21,1.75-.32,1,2.25,2.62,1.49,4.17.81.79,1.83,2.07,2.3,3.44,1.27A14.53,14.53,0,0,0,19.24,8.4c.25-.25.32-.62.69-.36,1.1.8,2.36,1.72,3.44,2.55a15.08,15.08,0,0,1,1.18,1.09.93.93,0,0,0,.14-.14,4.67,4.67,0,0,0-.66-1C23,9.62,21.86,8.68,20.73,7.77ZM6.11,6.3a12.93,12.93,0,0,1-1.69,0,6.19,6.19,0,0,1-2.86-.59A4,4,0,0,1,.9,5a2.54,2.54,0,0,1,.79-.51,11.37,11.37,0,0,1,5,0A8.43,8.43,0,0,1,6.11,6.3ZM12,4a8.35,8.35,0,0,1,2.48-2.54c.18-.06.24,0,.23.15-.22.45-.41.92-.66,1.35a6.89,6.89,0,0,1-.89,1.43c-.24.23-.52,0-.86.09S11.83,4.29,12,4ZM10.55,1.08c.19,0,.14.24.13.27A27.26,27.26,0,0,1,9.15,3.76c-.13.17-.68,0-1.18,0A6,6,0,0,1,10.55,1.08ZM8.39,4.64C8,5,7.35,5.55,7,5.87c0-.51.09-1.1.42-1.31S8.05,4.54,8.39,4.64Zm.84,2.59c-.23,0-.79.17-1.13.21a1.85,1.85,0,0,1-.62-.14A1.37,1.37,0,0,1,7,6.71c0-.06.28-.28.45-.42.54-.49,1.1-1,1.64-1.45.29-.26,1-.16,1.68.14.08,0-.11.29-.22.59C10.28,6.21,10.13,7.05,9.23,7.23Zm1.51-.51a4,4,0,0,1,.51-1.62c.13-.13.58,0,.82,0,0,.08.18,0,.22.12C12,5.51,11.07,6.42,10.74,6.72Zm3.77-.2c-.14,1.48-.83,2.06-2.48,2a1.07,1.07,0,0,1-.45-.05c-.24-.15-.52-.34-.59-.57a.93.93,0,0,1,.17-.78,23,23,0,0,1,1.76-1.51c.49-.39,1-.08,1.41.13C14.48,5.85,14.53,6.27,14.51,6.52Zm1.27-1.81a6.59,6.59,0,0,1,2-2.61,2.09,2.09,0,0,1,.72-.22c.26.19.11.55,0,.74-.53.94-1.1,1.87-1.68,2.78a.93.93,0,0,1-.4.26C15.59,5.58,15.48,5.39,15.78,4.71Zm-.54,1.43c.1-.1.45.14.64.14,0,.06.22,0,.25.1-.2.22-1.09,1.25-1.29,1.46A5,5,0,0,1,15.24,6.14Zm3.59,1.74A3.74,3.74,0,0,1,16.4,9.73c-.78.14-1.37-.38-1.32-1.37a3.49,3.49,0,0,1,.37-.54,8.07,8.07,0,0,1,1-1,.82.82,0,0,1,.63-.13,15.71,15.71,0,0,1,1.86.75C19.05,7.55,18.9,7.78,18.83,7.88Z"/></g></g></svg>