<svg xmlns="http://www.w3.org/2000/svg" viewBox="0 0 40.4 46.68"><defs><style>.cls-1{fill:#323c90;}</style></defs><g id="Layer_2" data-name="Layer 2"><g id="Layer_1-2" data-name="Layer 1"><path class="cls-1" d="M15.94,33a4.37,4.37,0,0,0-1-.22c-.33,0-.65-.18-1,0-.06,0-.13.07-.14.11s.05.1.08.15.19.22.28.34c-.24-.09-.49-.17-.72-.28a.22.22,0,0,0-.34.09c.23.13.48.2.55.49a2.33,2.33,0,0,1-.71-.27c-.21-.13-.23,0-.27.09l.38.2c-.12.23-.37-.12-.44.2l.13,0,.58.34c.06,0,.11.14.16.14a3.31,3.31,0,0,0,.53-.06l-.12-.22c.18,0,.33,0,.42.07s.28,0,.38-.12c-.11-.15-.2-.23-.37-.08s-.26-.07-.37-.14,0-.14,0-.18h.68c-.08-.08-.18-.07-.25-.11a.82.82,0,0,1-.18-.19l1,.12c.15,0,.31.07.46.1s.37.08.36.34a2.61,2.61,0,0,0-1.14.47l0,.1,1.07.12s0-.06,0-.09l-.57-.23a2.75,2.75,0,0,0,.33-.15,1.94,1.94,0,0,0,.26-.23c.49,0,1-.07,1.48-.12a1.89,1.89,0,0,1,1.09.3c.26.13.59.2.61.58.44.21.55.7.86,1a17.79,17.79,0,0,1,1.29,1.68c.12.15.23.31.36.45A7.28,7.28,0,0,1,23,40.28a12,12,0,0,1,.76,2.77c.08.65.24,1.28.32,2a1.5,1.5,0,0,1-.24-.18,2.2,2.2,0,0,1-.45-1.14,9.2,9.2,0,0,0-.26-1c-.14-.56-.26-1.11-.39-1.67-.05-.19-.1-.38-.17-.57A9.77,9.77,0,0,0,22,39.08a6.51,6.51,0,0,0-.87-1.16,18.76,18.76,0,0,0-1.42-1.4,6.24,6.24,0,0,0-.86-.54,6.53,6.53,0,0,1-.56-.35,3.44,3.44,0,0,0-2.05-.58c-.41,0-.75-.22-1.15-.21s-.63,0-.95,0c-.15,0-.29,0-.43-.07s0,0-.06,0a2.88,2.88,0,0,1-1.27-.13c-.11,0-.24.05-.35,0s-.46,0-.69-.08a3.56,3.56,0,0,0-.82-.18,3.66,3.66,0,0,1-1.68-.47c-.59-.29-1.21-.55-1.81-.83-.15-.07-.28-.2-.44-.29a13.22,13.22,0,0,1-2-1.27l-.17-.14c-.28-.24-.55-.5-.84-.73s-.87-.65-1.31-1-.74-.48-1.13-.71a1.72,1.72,0,0,0-.89-.36c-.1,0-.19-.23-.29-.35a.79.79,0,0,1,.8-.13l.12.09c.32-.27.72,0,1.07-.2a2.93,2.93,0,0,1,.76-.14c.32-.07.63-.19,1-.25.48-.09,1-.15,1.45-.23.14,0,.28-.07.43-.1a4.21,4.21,0,0,0,.51-.12,11.86,11.86,0,0,0,1.8-.52,4.35,4.35,0,0,1,1.17-.27,8.13,8.13,0,0,1,1-.14c.71,0,1.43-.08,2.14-.07a2.82,2.82,0,0,1,.77.23,6.05,6.05,0,0,1,.73.2,9.83,9.83,0,0,1,1.39.66,10.68,10.68,0,0,1,.88.78c.17.14.41.19.6.32s.59.42.87.65.6.52.88.8a4.16,4.16,0,0,1,.41.51c.17.23.31.47.48.68a6.94,6.94,0,0,1,1.22,2.13c.14.4.35.78.52,1.18a3.4,3.4,0,0,1,.12.34,17.7,17.7,0,0,0,1.08,2.72,1.22,1.22,0,0,0,.17.15.6.6,0,0,0,.08-.21c0-.46-.09-.92-.11-1.38,0-1.13-.07-2.26-.1-3.4,0-.63,0-1.27,0-1.9a5,5,0,0,0-.34-1.88c-.23-.6-.44-1.2-.68-1.8a2.55,2.55,0,0,0-.83-1c-.07-.05-.16-.08-.2-.15a3.57,3.57,0,0,0-1.08-1l-.41-.23A6.45,6.45,0,0,0,16.91,24a14.49,14.49,0,0,1-1.7-.52c-.53-.19-1-.4-1.54-.63-.28-.13-.52-.33-.8-.47-.46-.23-.94-.42-1.4-.65a4.52,4.52,0,0,1-.82-.55c-.43-.34-.82-.72-1.26-1.05A5.22,5.22,0,0,1,8.3,19c-.29-.39-.66-.72-.93-1.11a11.8,11.8,0,0,1-1.54-2.23c-.11-.28-.24-.56-.37-.84A17.14,17.14,0,0,0,3.61,12c-.25-.33-.52-.64-.82-1a.92.92,0,0,1,.3,0c.62.15,1.25.32,1.87.46a6.82,6.82,0,0,0,.79.1c.47.05,1,.08,1.42.14s.76.12,1.13.18a1.37,1.37,0,0,0,.28,0,6.85,6.85,0,0,1,1.86.33c.21.06.43.07.64.12a11.89,11.89,0,0,1,3.8,1.77,10,10,0,0,1,1.19,1.07c.33.33.61.72.94,1s.62.55.93.84a5.58,5.58,0,0,1,1.25,1.36c.3.53.62,1,.89,1.58a9.26,9.26,0,0,1,.26.9,11.11,11.11,0,0,1,.39,1.8c.16.78.43,1.54.65,2.31.15.49.29,1,.46,1.46a8.41,8.41,0,0,0,.35.82l.11,0c0-.28,0-.55,0-.83.06-1,.16-1.95.19-2.93a18.16,18.16,0,0,0-.07-1.95,6.74,6.74,0,0,0-.13-1.1c-.12-.55-.28-1.09-.43-1.63-.1-.37-.19-.75-.32-1.11s-.25-.5-.36-.75a1.71,1.71,0,0,1-.09-.27l.84.29c-.3-1.68-.55-3.33-1.85-4.62a1.8,1.8,0,0,1,1.38.29,12,12,0,0,0-.72-2.43l-.26.38a2.7,2.7,0,0,1-.23-.55,2.06,2.06,0,0,0-.87-1.26,5.34,5.34,0,0,0-.77-.6,8.36,8.36,0,0,0-1.29-.49c-.24-.08-.23-.19-.1-.35s.38-.46.56-.7a.53.53,0,0,0,.08-.23c0-.07,0-.18-.07-.2a.32.32,0,0,0-.23,0c-.17.09-.33.21-.5.29a1.45,1.45,0,0,1-1.27-.09.2.2,0,0,0-.11,0h-.12A2,2,0,0,1,15,7.76a2.16,2.16,0,0,1-1,.7.16.16,0,0,0-.09.12s0,.07.07.09a2,2,0,0,1,1,1.52,3.85,3.85,0,0,1,0,.68c0,.16.19.23.37.17a3.14,3.14,0,0,1,1.91-.23.82.82,0,0,0,.22,0c.32,0,.34,0,.34-.35a1.14,1.14,0,0,1,.16-.63,1.54,1.54,0,0,1,.63-.56.44.44,0,0,0,.31-.58,2.57,2.57,0,0,1,.21.19,3,3,0,0,1,.3.32c.06.07.15.15.13.2a.27.27,0,0,1-.19.17,1.61,1.61,0,0,0-.9.47,1,1,0,0,0-.06,1.24,1.14,1.14,0,0,1,.08.33c-.3-.14-.53-.27-.78-.36a2.56,2.56,0,0,0-1.79,0,2.14,2.14,0,0,0-1,.49c-.05.06-.19,0-.29.07a.83.83,0,0,1,0-.27,2.46,2.46,0,0,0-1.16-2.82,4.41,4.41,0,0,0-.54-.24s0-.08,0-.12l.83-.24a.42.42,0,0,0,.16,0l.86-.7A.83.83,0,0,0,15,6.51a2,2,0,0,1,0-.42c0-.27.21-.36.42-.2a1.22,1.22,0,0,0,1.19.2,4.74,4.74,0,0,1,.85-.17s0-.07,0-.09c-.46-.35-.91-.74-1.4-1.06a1.79,1.79,0,0,0-.81-.18c-.55,0-1.1,0-1.65,0-.27,0-.55.07-.83.09a.31.31,0,0,1-.23-.1s0-.17,0-.23c.29-.34.59-.67.87-1,0,0,0-.18-.06-.24a1.63,1.63,0,0,1-.34-1L14.68,2c-.15-.54-.3-1-.47-1.62l.54.18c.59.21,1.18.43,1.78.63.34.11.45,0,.64-.32a2.74,2.74,0,0,1,.75-.64c.33-.24,1.36-.28,1.6,0a2,2,0,0,0,.15.18,2,2,0,0,0-.93,1,2.9,2.9,0,0,0,0,1.65c.13.59.17.6.79.55a3.24,3.24,0,0,0,.76-.18,1.73,1.73,0,0,0,1-1.12.55.55,0,0,1,.26-.28c.17-.07.27.06.33.22a8,8,0,0,0,.32.81,2.84,2.84,0,0,0,1.52,1.38A2.1,2.1,0,0,0,25,4.7a.45.45,0,0,0,.19-.11A3.6,3.6,0,0,0,25.93,3a1.46,1.46,0,0,0-.1-.57,2.92,2.92,0,0,0-.74-1.37A.31.31,0,0,1,25,.78s.15-.09.21-.07c.23.06.46.15.69.23a2.51,2.51,0,0,1,1.6,1.22.44.44,0,0,0,.51.27c.21,0,.46,0,.53.21a.78.78,0,0,1-.12.54c-.16.28-.37.53-.57.81.23.08.48.14.72.24a1.37,1.37,0,0,1,.4.24c.14.11.09.24,0,.32s-.38.24-.58.34-.29.25-.07.43A1.68,1.68,0,0,1,28.39,8c-.12.11-.23.21-.43.14a2.38,2.38,0,0,0-.61,0,2.93,2.93,0,0,1,.17-.38c.35-.49.16-.8-.18-1.1a1.89,1.89,0,0,1-.2-.2c-.12-.19-.29-.17-.47-.12s-.27.08-.4.1a6.25,6.25,0,0,1-.86.08,7.93,7.93,0,0,1-1-.09c-.22,0-.31,0-.38.28a2.6,2.6,0,0,0,0,1.61,1.41,1.41,0,0,0,.21.38c.09.15.22.29.3.45a.3.3,0,0,1,0,.29.37.37,0,0,1-.3.1c-.36-.1-.71-.23-1.06-.35-.18-.06-.3,0-.36.18a6.21,6.21,0,0,0-.22,2.27,5.44,5.44,0,0,0,.18.68c.27-.34.49-.63.72-.91l0,0c0,.88-.12,1.77-.11,2.65a19.56,19.56,0,0,0,.28,2.63l.11,0,.25-.44a2.06,2.06,0,0,1,.17-.33c0-.06.14-.08.22-.12s.07.19,0,.25A11.3,11.3,0,0,0,24,18.91a8.44,8.44,0,0,0,0,1.33L24,25v.3h.08c.28-.66.57-1.31.82-2A9,9,0,0,0,25.25,22c.07-.38.08-.78.12-1.17s.06-.65.13-1c.21-.94.42-1.87.65-2.81a9.79,9.79,0,0,1,.4-1c.05-.15.09-.31.15-.45s.22-.44.32-.65l.19-.4a5.33,5.33,0,0,1,1.13-1.69,7,7,0,0,0,.88-.84,7.56,7.56,0,0,1,1.09-1.17,6,6,0,0,1,1.91-1.13,3.09,3.09,0,0,0,1.29-.79,1.79,1.79,0,0,1,1-.69c.32-.06.58-.37.9-.48a2.34,2.34,0,0,0,1-.75,2,2,0,0,1,.42-.26,3,3,0,0,1,1.29-.55c.14,0,.28-.15.41-.24l.59-.43c.33-.21.66-.42,1-.61a.33.33,0,0,1,.27,0,.31.31,0,0,1,0,.27c-.26.58-.54,1.14-.79,1.72-.15.36-.26.73-.39,1.1-.22.6-.43,1.21-.67,1.8s-.53,1.14-.78,1.71-.54,1.24-.8,1.86c-.18.43-.32.89-.53,1.3a7.37,7.37,0,0,1-.7,1.08c-.3.43-.64.84-1,1.25s-.69.9-1.06,1.32a8.71,8.71,0,0,1-.84.77l-.93.81c-.15.12-.29.25-.45.36-.57.43-1.14.86-1.73,1.27C29,22,28.18,22.5,27.4,23a6.13,6.13,0,0,0-.7.65,9.94,9.94,0,0,0-.81.78,6.68,6.68,0,0,0-1.34,2.17,9,9,0,0,0-.46,1.56A30.12,30.12,0,0,0,23.86,33c0,.6,0,1.2,0,1.8s.18,1.2.27,1.8a5.25,5.25,0,0,0,0,.56c.12.63.26,1.26.38,1.88.07.33.12.67.19,1s.17.68.25,1,.19.93.32,1.39c.07.25.2.48.28.72q.3.82.57,1.65c.17.53.33,1.06.49,1.6a.64.64,0,0,1,0,.3c-.33-.29-.79-.29-1.13-.61a2.08,2.08,0,0,1-.53-.8c0-.07-.18-.1-.3-.15.05-.14.1-.3.16-.46,0,0-.06,0-.09,0l-.29.07c0-.12.07-.23.1-.35l.07-.18h-.47c.11-.2.19-.37.32-.6l-.35.14c-.07-.17-.08-.28.09-.39a1.37,1.37,0,0,0,.23-.38L24,43c.05-.17.11-.34.16-.51-.36-.11-.37-.16-.09-.57a1.11,1.11,0,0,1-.33-.15c0-.05,0-.2.07-.3-.33-.14-.38-.52-.1-1h-.32c0-.12.06-.21.09-.32-.2-.1-.22-.22,0-.38a1.68,1.68,0,0,0,.25-.35l-.42.13c0-.14.07-.28.1-.43L23.19,39c.09-.38-.35-.8.08-1.18l-.16,0c-.17-.26.18-.36.18-.56-.29-.11-.29-.17-.07-.4a.28.28,0,0,0,.06-.23l-.17.1-.07,0c.06-.12.11-.24.16-.36-.33-.15-.34-.32,0-.69l-.09,0-.22-.07a1.57,1.57,0,0,1,.12-.26,1.3,1.3,0,0,1,.22-.19l-.05-.06-.22.1c-.3-.37.26-.39.24-.67l-.36-.13.21-.21L23.2,34c-.14-.08-.28-.11-.34-.2s.07-.18.11-.29c-.42-.31.1-.46.22-.73l-.32.12c0-.12,0-.22,0-.31s0-.1,0-.11c-.22-.22,0-.3.07-.36s-.14-.27-.11-.34.2-.19.32-.3l-.08,0-.29,0,.2-.29.19-.21-.05-.06-.33.16c0-.29.05-.53.08-.8-.24-.13-.09-.3.05-.49h-.25l-.18-.39-.11,0c.15,3.26.14,6.52.55,9.8a.88.88,0,0,1-.67-.6,4,4,0,0,0-.61-.9,4.56,4.56,0,0,0-.41-.6,14.73,14.73,0,0,1-.89-1.19s-.05,0-.05-.06c-.15-.7-.8-1.08-1.11-1.67a6.52,6.52,0,0,1-.36-1c-.17-.46-.32-.92-.48-1.38,0-.1-.08-.18-.12-.28s-.15-.35-.22-.53l-.13.05.72,2.15-.05.07a.75.75,0,0,1-.31-.15c-.55-.64-1.08-1.3-1.63-1.95s-1-1.13-1.46-1.69c-.2-.22-.37-.46-.55-.69l-.1.08.37.46,0,.06c-.09,0-.21,0-.26-.06-.32-.35-.8-.4-1.2-.6s-.67-.38-1-.56l-.15,0-.84-.82-.08.05a1.14,1.14,0,0,0,.16.31A3.77,3.77,0,0,0,12,28a.67.67,0,0,0,.25.08,1.12,1.12,0,0,0,.7.69c.34.15.71.23,1,.37a4.69,4.69,0,0,1,1.89,1.4c.16.19.34.37.51.56a2.07,2.07,0,0,1,.15.25l0,.08L16,31.27c-.67-.26-1.33-.52-2-.76-.47-.16-1-.27-1.43-.44a1.53,1.53,0,0,1-.4-.33,8.59,8.59,0,0,1-1.13-1,9.57,9.57,0,0,0-1.37-1.26c-.08-.07-.13-.16-.21-.22l-.3-.17a.86.86,0,0,0-.07.1c.26.23.51.49.79.7a2.26,2.26,0,0,1,.76.85L8,27.9a3.55,3.55,0,0,0,1.71.68,2.56,2.56,0,0,1,.92.36,7.37,7.37,0,0,1,1,.67,2.63,2.63,0,0,1,.42.52l-2-.28a1.06,1.06,0,0,0-.47,0,1.45,1.45,0,0,1-1.08-.21,3.08,3.08,0,0,1-.81-.58,5.27,5.27,0,0,0-.87-.58l-.11-.11c-.15-.22-.22-.21-.35,0l.81.62c.23.17.46.34.7.5.09,0,.2,0,.29.1a.27.27,0,0,1,.15.18s-.09.13-.15.15a2.61,2.61,0,0,1-1.44,0l-1.09-.26a.66.66,0,0,1-.25-.13c-.37-.36-.71-.74-1.07-1.1a.94.94,0,0,0-1-.21c.07,0,.11.08.14.08a1.05,1.05,0,0,1,.86.44c.16.18.37.32.54.49s.23.24-.07.43l1.42.45c-.16.5-.59.54-1,.72a.34.34,0,0,0,.51,0,3.17,3.17,0,0,1,2.14-.54,4.41,4.41,0,0,0,1-.21,6.32,6.32,0,0,1,1-.06,2,2,0,0,1,.42.06l2,.26a.29.29,0,0,1,.13.08c-.4.26-.78.54-1.18.77a3.74,3.74,0,0,1-1.12.46A3.66,3.66,0,0,1,9,31.61c-.33,0-.66-.12-1-.17a2.56,2.56,0,0,0-.94-.1,1,1,0,0,1-.93-.22.25.25,0,0,0-.17,0,.57.57,0,0,0-.16.11.69.69,0,0,0,.13.11,2.13,2.13,0,0,1,.47.29c-.48.11-.8-.24-1.12-.45s-.41-.59-.66-1c-.29-.07-.49-.55-1-.57.11.25.49.24.44.57-.2-.09-.4-.17-.58,0a.93.93,0,0,0,.75.37c-.06-.13-.12-.28-.18-.42.22.16.46.3.67.48a.41.41,0,0,1,.1.36c-.08.21,0,.3.16.43.29-.31.41.1.62.16,0,0,0,.14,0,.27l.18.12c.13-.27.23-.29.46-.09l.46.35.07-.09-.37-.34c.22-.16.39,0,.53.09s.23.17.08.32,0,.14.07.18.29.18.27.45.27.29.49.29a1.62,1.62,0,0,0-.09-.35.52.52,0,0,0-.22-.22.35.35,0,0,1-.22-.35c0-.1-.09-.2-.14-.3s-.09-.14-.08-.16a.27.27,0,0,1,.18-.1c.4,0,.8.06,1.2.12s.81.14,1.21.21l.08,0a1.48,1.48,0,0,1-1.49.46l0,.06c.08.05.16.14.24.13a8,8,0,0,0,1-.16,5.84,5.84,0,0,0,1.54-.82,13.26,13.26,0,0,1,1.81-.9,2,2,0,0,1,1.44.09c.51.24,1,.41,1.56.66a12.6,12.6,0,0,1,1.2.75s0,.07.06.1l0,0A1.93,1.93,0,0,0,16,32.17c-.15,0-.31,0-.46,0a4.55,4.55,0,0,0-.52,0,9.82,9.82,0,0,0-1.86.27,5.1,5.1,0,0,1-1.41,0,10.48,10.48,0,0,1-1.07-.14c0,.25-.12.31-.33.23s-.24,0-.37.06l.1.19H9l0,.08,1.14.75a.31.31,0,0,0-.05.1c-.16-.05-.37-.05-.45-.15s-.48-.27-.7-.44a1,1,0,0,1-.2-.16.31.31,0,0,0-.38-.14s-.13-.07-.19-.11l-.12-.12s-.07.07-.06.08a.31.31,0,0,0,.11.16c.36.2.74.39,1.12.58,0,.21-.14.22-.29.13s-.45-.26-.67-.39l-.06.08a4,4,0,0,0,.47.34,5.15,5.15,0,0,0,.54.23c.14.05.28.07.25-.17.29.11.56.15.7.46,0,.07.26.05.39.07,0-.2-.06-.35-.1-.54l-.23-.28.09-.1.55.39-.11.12.27.42h.19v0l-.1-.07L11,33.89c.06,0,.14-.09.18-.08a1.29,1.29,0,0,1,.5.29c.16.2.33.18.57.14l-.58-.38a.61.61,0,0,1,.7.18,3.48,3.48,0,0,0,.52.38.86.86,0,0,1,.07-.1l-.94-.69c.24-.2.48-.41.74-.6a4.44,4.44,0,0,1,1.4-.59,5.31,5.31,0,0,1,3.58.59l.07,0,.65.71c-.29,0-.55-.09-.82-.1s-.51,0-.76,0-.73-.15-1.1-.23l-.78-.2-.24-.12,0-.11L16,33.2c0-.06,0-.12,0-.18l.63.21c0-.06,0-.12,0-.23l.5.12,0-.07-.63-.44c0,.3-.1.35-.28.24a1.29,1.29,0,0,0-.21-.06.73.73,0,0,0-.84-.15c.09.06.15.13.22.14h.63ZM38,7.21c-.23,0-.44-.06-.54.23,0,0-.11.07-.18.11s-.21.06-.24.13A1.42,1.42,0,0,0,37,8c.1,0,.21,0,.27-.08.25-.24.49-.5.72-.76l.57-.62-.07-.09-.88.29C37.76,6.92,38,6.94,38,7.21ZM16.2,21.84l.38.15c0-.15,0-.24,0-.31l.5.32c-.09-.38-.26-.66-.67-.65,0,.08-.06.18-.09.28l-1-.57c0,.15,0,.24,0,.33l-.23,0a1,1,0,0,0-.77-.63,2.72,2.72,0,0,0,.32.35.85.85,0,0,1,.09.24c-.09,0-.21,0-.26-.07s-.27-.35-.43-.51a2.35,2.35,0,0,0-.37-.24l-.08.1c.06.06.11.15.18.18a.26.26,0,0,1,.18.35h0l-.63-.37h-.5c0,.21-.15.19-.34.1a1.5,1.5,0,0,0-.27-.07c0,.08,0,.1,0,.11l.72.89s.07.07.07.08c-.16.26.11.28.24.42-.08-.23,0-.28.27-.28a1.35,1.35,0,0,1-.73-.93l.88.84s0,.07,0,.1a.65.65,0,0,0,0,.2,2.2,2.2,0,0,0,.21.32.35.35,0,0,0,.43.17.23.23,0,0,1,.18,0l1,.55a.93.93,0,0,0,.24,0l0-.11a3.21,3.21,0,0,0-.54-.22.62.62,0,0,1-.43-.58l.48.31c.16.11.34.2.5.31a1,1,0,0,1,.28.26.52.52,0,0,0,.5.25l.9.41,0-.08c0-.09-.08-.18-.13-.27l.06-.06c.17.08.39.06.49.31a.43.43,0,0,0,.2.2,3.68,3.68,0,0,0,.47.15c0-.21-.38-.24-.24-.54.3.31.57.59.85.86l.89.85.16-.19a.89.89,0,0,1-.66-.79.45.45,0,0,0-.33-.28.48.48,0,0,1-.49-.46l.37.23.05-.06-.6-.65-.06.06c0,.09,0,.19,0,.35-.24-.19-.44-.33-.62-.49-.34-.3-.41-.34-.64-.26.25.21.5.4.74.61.05,0,.06.12.09.19-.63-.26-1-.81-1.69-1,0,.14,0,.24,0,.34.37,0,.54.21.72.45a.36.36,0,0,1-.25,0c-.07,0-.14-.09-.2-.09a.52.52,0,0,1-.44-.19c-.12-.12-.26-.29-.42-.32a1,1,0,0,1-.6-.42c-.06-.09-.18-.14-.26-.22s-.21-.23-.32-.35l.07-.06.56.32a.43.43,0,0,1,0-.07l-.57-.59.28,0c.12.15.22.36.37.41s.46.35.69,0ZM9.5,30.51h0c-.12,0-.23-.11-.35-.1a2.2,2.2,0,0,0-.43.09l-.15,0a1.22,1.22,0,0,0,.32.22,1.94,1.94,0,0,1,.23.26l-.07.06c-.43,0-.68-.6-1.2-.41l.18.26a.74.74,0,0,1-.72-.37l-.14.15c.19.08.32.17.17.38-.2-.16-.39-.29-.65-.48,0,.15,0,.25,0,.31a.58.58,0,0,0,.76.24.38.38,0,0,1,.33,0c.29.18.32.18.41-.19.4.09.71.57,1.18.31l-.21-.21L9.27,31l.66.28-.33.19c.32.24.51-.14.78-.07,0-.08-.08-.13-.1-.19a.64.64,0,0,1,0-.2l.45.23s0,0,0,0c.2-.07.36-.13,0-.27,0,0,0-.12-.08-.19l.48.09c-.7-.5-.74-.52-1-.39l.42.19,0,.12-.36-.07ZM27.8,15a.84.84,0,0,0-.17.05l-.39.25a.38.38,0,0,0-.15.23c0,.09,0,.24,0,.27.28.19.07.33-.05.47a2.5,2.5,0,0,0-.35.38c-.06.1-.07.36,0,.38.26.12.11.24,0,.35s-.21.15-.26.25-.07.26,0,.3c.24.24.25.25-.05.42a.45.45,0,0,0-.2.56c.26-.16.32-.52.67-.59-.13.57-.43.84-.73.72,0,.14.06.29.1.46l.65-.43a.11.11,0,0,0,0-.08c-.11-.27.08-.42.22-.59s.15-.25.23-.38l-.1-.06a.74.74,0,0,1-.16.19.62.62,0,0,1-.19.07c0-.07-.05-.16,0-.2a2.8,2.8,0,0,1,.31-.28c.05,0,.13-.07.16-.12s.13-.27.19-.41l.06-.22-.25.08a1.53,1.53,0,0,0-.21.14.35.35,0,0,0-.05-.08c.12-.23.21-.49.55-.5a1.28,1.28,0,0,0,.22-.09l-.16-.22.6-.9c-.31-.06-.48-.16-.48-.43s.16-.31.11-.38,0-.25.07-.35.14-.13.21-.2L28.1,14a2,2,0,0,0-.3.21C27.5,14.46,27.67,14.74,27.8,15ZM6.32,14.24l.39.31c0-.2,0-.3,0-.4l-.42.09L6,13.94l0,0,.36.09c-.2-.44-1.17-1.07-1.57-.94l.53.55h0a4.1,4.1,0,0,0,.29.4c.1.09.21.13.09.28a.1.1,0,0,0,0,.09c.14.31.29.61.44.92a3.45,3.45,0,0,1,.14.34c0,.12,0,.28.07.38.32.46.66.91,1,1.36.11.14.21.32.48.3l-.29-.33c.44-.09.64.15.77.49l.09-.07c0-.21-.07-.42-.11-.63.49.11.95.21,1.41.33a2.18,2.18,0,0,1,.38.18l-.34.26s0,0,0,0l-.92.3A2,2,0,0,0,8.52,18a2.23,2.23,0,0,0-.44-.13.26.26,0,0,0-.15,0,.17.17,0,0,0,0,.12.4.4,0,0,0,.17.09c.43,0,.47.06.47.51,0,.21,0,.4.33.4a1.44,1.44,0,0,1,.05-.24l.07,0,.35.55-.05.07-.37-.13,0,0,.65.56c0-.11,0-.19,0-.27l.07,0c.12.25.56.28.41.71a.08.08,0,0,0,0,.08l.39.26.05,0-.13-.35a.42.42,0,0,1,.57-.07s.07,0,.11,0,.07.22.12.22.43.09.47-.2l.51.12,0-.09c-.18-.12-.21-.44-.55-.38V20l-.51-.32.15.35-.24,0c-.08-.08-.16-.17-.25-.25s-.14-.24,0-.29a1.46,1.46,0,0,1,.65-.11,11.4,11.4,0,0,1,1.25.31,1.22,1.22,0,0,1,.45.24s-.06.22-.08.34,0,.05,0,0a1.28,1.28,0,0,0,.43,0,2.4,2.4,0,0,1,1.21.2c.32.08.6.31.92.38s.88.08,1.31.14a1,1,0,0,1,.82.45,4.1,4.1,0,0,0,.47.56c.14.17.28.33.41.5l0,.06-.54-.09a.24.24,0,0,0,0,.08l.28.14a2.37,2.37,0,0,1,.69.27,2.81,2.81,0,0,1,.52.66c.23.32.44.65.67,1L21,25.81a1.73,1.73,0,0,1,.21.34c.21.6.41,1.21.62,1.82.09.24.19.49.27.68a1.24,1.24,0,0,0,0-.38c-.13-.48-.28-1-.44-1.44a8.25,8.25,0,0,0-1.09-2.13c-.12-.17-.25-.32-.36-.49s-.39-.55-.57-.83a3.53,3.53,0,0,1-.45-.83c-.2-.71-.33-1.44-.47-2.17-.08-.38,0-.38-.37-.47.19.79.39,1.59.59,2.44-.09,0-.18,0-.21-.08l-.8-1c-.21-.26-.38-.56-.6-.8-.36-.4-.76-.75-1.12-1.14a2.49,2.49,0,0,1-.37-.58c-.17-.36-.3-.74-.47-1.09s-.32-.59-.47-.88-.25-.49-.37-.72l-.28.32a5.33,5.33,0,0,1,1.27,2.34.62.62,0,0,1-.2,0A4.76,4.76,0,0,0,14,17.82a2.42,2.42,0,0,1-1.4-1.53A10,10,0,0,0,12,14.91a.72.72,0,0,0-.18-.21,3.39,3.39,0,0,1-.87-1.27c0-.08-.11-.13-.16-.2l-.07,0c.15.63.67,1.06.94,1.67l-.46,0c0-.05-.06-.11-.1-.15L9.8,13.53c-.24-.23-.49-.44-.73-.66L9,13a1.28,1.28,0,0,0,.15.25c.46.46.9.93,1.39,1.36a3.09,3.09,0,0,0,.65.35,5.76,5.76,0,0,1,.51.35,1.37,1.37,0,0,1,.38.38c.21.4.38.83.56,1.25,0,0,0,.1,0,.19l-.94-.49c-.31-.18-.61-.38-.94-.54a2,2,0,0,1-.9-.71A6.84,6.84,0,0,0,8.41,13.8,4.47,4.47,0,0,0,8,13.48l0,0L9.42,15.2l-.06.09c-.27,0-.6,0-.79-.1a14.75,14.75,0,0,1-1.29-1.08,5,5,0,0,0-.48-.32l-.08.1,1.24,1a.72.72,0,0,1,.12.21c-.08,0-.18.08-.25.06A4.11,4.11,0,0,1,6,14.26Zm28-4.67h0c0,.26,0,.53,0,.79a1.36,1.36,0,0,1,0,.17,1,1,0,0,1-.14.41c-.23.26-.56.44-.72.73s-.6.34-1,.45l.5-.77-.09-.08a1.32,1.32,0,0,0-.25.21c-.13.18-.22.39-.35.57a6.72,6.72,0,0,1-.51.57s-.11,0-.12,0-.06-.13,0-.17c.21-.47.43-.93.63-1.4a6.35,6.35,0,0,0,.23-.7l.44,0c0-.12,0-.25,0-.43a.9.9,0,0,0-.2.14,3.62,3.62,0,0,0-.2.33c-.14.13-.29.24-.36-.06a9.19,9.19,0,0,0-.83.42,4.41,4.41,0,0,0-.52.45h0c-.23.2-.45.4-.67.58.21.38-.17.49-.26.71,0,.06-.23,0-.35,0a.14.14,0,0,1,0-.07l-.33.4.07.07.42-.27.07.07-.51.75a.71.71,0,0,0-.22-.13c-.1,0-.23-.09-.31-.05s-.11.17-.16.26l.08.06.26-.1c0,.09,0,.17.06.33l.28-.38c.16.1.14.17,0,.42a5.77,5.77,0,0,0-.72,1.6c0,.19-.06.39-.11.58-.18.67-.36,1.34-.53,2,0,.06-.05.11-.07.16a2.78,2.78,0,0,0-.25.62,7.24,7.24,0,0,1-.6,1.88l-.28.56c-.28.56-.54,1.13-.83,1.69s-.61,1-.89,1.57c-.36.7-.7,1.41-1.05,2.12-.15.32-.33.63-.48.95s-.14.39-.23.57-.14.13-.22.19-.12-.15-.11-.22a4.16,4.16,0,0,1,.15-.47l-.06,0c.09-.25.16-.48.24-.71-.25-.07-.26-.11-.06-.36-.21-.06-.2-.16,0-.29a4.44,4.44,0,0,0,.37-.38l0,0-.35.17L22.86,26l.46-.59-.43.15c.15-.33.25-.57.37-.85l-.35.14.23-.38c0-.2-.07-.36-.1-.53s.15-.44.24-.68c-.25-.09-.24-.22,0-.38.06,0,.09-.11.16-.18l-.29.08-.05-.08c.12-.15.24-.29.37-.43l0-.05-.32.12c-.08-.3.27-.33.33-.58l-.32.08c-.11-.36.43-.31.37-.67l-.48.25a.27.27,0,0,0-.07-.08c.16-.15.31-.29.46-.45a.7.7,0,0,0,.11-.21,1.89,1.89,0,0,0-.23,0l-.27.17a1.05,1.05,0,0,1,.06-.35.42.42,0,0,0,0-.25.94.94,0,0,1,0-.82.76.76,0,0,0,.09-.18l-.32.08A1.92,1.92,0,0,0,23,18.9a5.07,5.07,0,0,0,0-.66l-.3.09a1.82,1.82,0,0,1,0-.62c.07-.18.27-.31.41-.46a.2.2,0,0,1,0-.08c-.52.55-1,.32-1.44-.09a1,1,0,0,0,.08.41,6,6,0,0,1,.43.88,9,9,0,0,1,.58,2.4c0,1.17,0,2.35,0,3.52,0,1-.13,2-.18,3,0,.58,0,1.16,0,1.74a1.39,1.39,0,0,0,0,.23,3.06,3.06,0,0,0,.43-.54c.31-.62.59-1.25.89-1.87.13-.29.28-.56.41-.84.26-.51.5-1,.78-1.53s.58-.93.9-1.39.78-1.12,1.22-1.64a8.44,8.44,0,0,1,1.06-1,1.39,1.39,0,0,1,.81-.45,2.17,2.17,0,0,0,1.31-.55,8.82,8.82,0,0,1,.82-.53c.22-.15.44-.3.65-.47.05,0,.06-.15.1-.28-.16.15-.26.29-.39.33s-.26,0-.44-.06c.18.19.1.27-.05.33l-.17.09-1.4.84s-.11,0-.19,0,0-.11,0-.13a7.12,7.12,0,0,1,.58-.64c.47-.44,1-.86,1.43-1.28.12-.11.22-.24.33-.36l1-.26c0-.09,0-.19,0-.34a1.19,1.19,0,0,1-.22.2c-.06,0-.19.06-.2,0-.12-.19-.19-.08-.27,0l-.24.33H31.5c0-.1.06-.17.08-.25s-.17.15-.25.16c-.24,0-.2.15-.13.26A39.9,39.9,0,0,1,27,21.18c.12-.33.3-.62.41-.94a5.43,5.43,0,0,1,1-1.74,9,9,0,0,1,1.51-1.18,1.41,1.41,0,0,1,.6-.32,3.94,3.94,0,0,0,1.27-.51c.58-.27,1.17-.51,1.75-.77.2-.1.37-.25.57-.35a3.05,3.05,0,0,0,1.66-1.54.42.42,0,0,0-.45.31.45.45,0,0,1-.11.23,11,11,0,0,1-1.13.8c-.55.32-1.14.59-1.71.88h0c0-.06,0-.13,0-.24-.2.11-.41.15-.51.28-.32.42-.84.43-1.25.65a5.51,5.51,0,0,0-1,.5c-.19.14-.36.29-.54.44L29,17.62a2,2,0,0,1,.09-.22c.2-.3.39-.62.61-.9a7,7,0,0,1,1.58-1.8,17.73,17.73,0,0,0,1.56-1.18,3.81,3.81,0,0,1,1.55-.62c.33-.08.67-.14,1-.25a6,6,0,0,0,.85-.4c.25-.14.49-.3.74-.45l0-.1a8.87,8.87,0,0,1-3,1.05c0-.07,0-.14,0-.18l-1.31.91c-.44.29-.75.76-1.26,1a.33.33,0,0,1,.11-.21c.1-.12.22-.23.32-.35.28-.34.55-.7.84-1a13.38,13.38,0,0,1,1-1c.3-.27.63-.5.89-.7a1.14,1.14,0,0,1,.13-.36c.27-.33.55-.66.85-1s.9-.87,1.35-1.31c0,0,0-.09.07-.18l-.4.24-.08-.05a2.21,2.21,0,0,1,.12-.27c0-.05.13-.08.18-.13A.33.33,0,0,0,36.7,8s-.05-.08-.06-.07a.38.38,0,0,0-.15.09,3,3,0,0,0-.27.35c0,.06-.09.15-.07.2A.34.34,0,0,1,36,9c-.13.12-.24.25-.37.38l-.83.82-.07-.06,1.07-1.5-.34-.15c-.09.13-.18.26-.28.38l-.08-.08c0-.08,0-.17.09-.3-.07,0-.11,0-.13.05a1.85,1.85,0,0,1-1.1.66c-.09,0-.18.13-.24.22s.09.13.14.19l.26-.24.05,0c0,.06-.05.13-.09.22Zm-10-4.5a3.11,3.11,0,0,1-2.71-2.48A2.65,2.65,0,0,1,18,3.7a.81.81,0,0,0,.1.38,1.77,1.77,0,0,1,.39,1.75,5.2,5.2,0,0,1-.51,1c-.11.19-.16.33.09.44s.24.13.37.18a3.88,3.88,0,0,1,1.17.88,3.48,3.48,0,0,1,.57.64c.25.4.35.45.72.17a3,3,0,0,1,1.47-.5,8.55,8.55,0,0,1,1.24,0l.23,0C23.42,7.37,23.29,6.14,24.3,5.07ZM13.47,2.45l.42.8a.37.37,0,0,1-.19.53c-.25.16-.49.34-.73.51l0,.08a5.84,5.84,0,0,0,1.4-.19.77.77,0,0,1,.72,0l0-.08-.28-.31.33-.24c.17,0,.4.21.59.17a.84.84,0,0,1,.75.25,4.83,4.83,0,0,0,.5.29c-.08-.4-.54-.37-.56-.78l1.11.71c-.3-.48-.83-.63-1.06-1.06L16.63,3l.72.6.08-.06c-.05-.1-.1-.2-.16-.3s-.25-.41-.36-.63c0,0,0-.11,0-.17a.36.36,0,0,1,.15.08c.1.14.18.31.29.45a1,1,0,0,0,.24.16c-.08-.31-.14-.56-.21-.8l.11,0,.45.82.07,0A.53.53,0,0,1,18,3c0-.21-.1-.5,0-.6s.16-.38.18-.58a1.67,1.67,0,0,1,.45-1.1,1.6,1.6,0,0,0,.16-.19c-.6-.16-1.2.27-1.46,1-.18,0-.37-.08-.56-.1a3.63,3.63,0,0,1-1.44-.32,3.48,3.48,0,0,0-.76-.2l.82,1.62C14.71,2.82,14.1,2.28,13.47,2.45Zm12.1-1.37a1.5,1.5,0,0,0,.11.22,2.38,2.38,0,0,1,.6,1.84,2,2,0,0,1-.7,1.58s0,.11,0,.17l.34,0s0,.05,0,.07l-.65.19a.2.2,0,0,1,0,.07l.88-.11,0,.12L25,5.54a.28.28,0,0,1,0,.09l1.66-.23-.26.29.74-.09s0,.08,0,.12l-.47.14a5.52,5.52,0,0,1,.8.31c.39.21.47.63.59,1s-.19.29-.25.45l0,.08a.63.63,0,0,0,.75-.58,1.55,1.55,0,0,0-.59-1.63c-.36-.26-.35-.35,0-.61.12-.08.26-.14.38-.22a.46.46,0,0,0,.09-.14c-.3-.13-.57-.23-.83-.35a.21.21,0,0,1-.1-.36c.19-.27.37-.55.56-.85h-.14c-.27,0-.51-.09-.58-.42a1.05,1.05,0,0,0-.22-.45A4.06,4.06,0,0,0,25.57,1.08ZM22.24,13.55c-.33-.37.14-.51.14-.77l-.21,0c0-.21,0-.39,0-.59-.25,0-.19-.18,0-.33L22,11.71l.08,0c0-.19,0-.4,0-.6L21.79,11l.28-.42L22,10.56l-.36.34-.08-.05.52-.86L22,10l-.47.58-.09,0,.13-.38-.22,0c.08-.2.16-.35.23-.51-.21.12-.46.22-.39.5.15.58.34,1.14.47,1.72.09.4.12.82.18,1.24l-.1.05a1.66,1.66,0,0,0-1-.51c.19.38.36.7.5,1a17.34,17.34,0,0,1,.82,1.94,11.32,11.32,0,0,1,.25,1.65c0,.07.08.13.12.2s.11-.11.16-.16l.26-.3.17-.17s0,0,0,0l-.43.2-.07-.08.47-.65-.57.19.4-1.08a1,1,0,0,1-.24.1.52.52,0,0,1-.17,0c0-.06,0-.14.06-.17a1.59,1.59,0,0,1,.22-.13,2.41,2.41,0,0,0,.21-.24l-.07-.06-.49.34c0-.37.34-.44.41-.71l-.37.11,0-.07c.06-.07.13-.14.19-.22a2.06,2.06,0,0,0,.12-.26l-.06,0-.25.22C22.09,14,22,13.77,22.24,13.55ZM12.62,32l.05-.07c.15.07.31.12.45.2s.41,0,.51-.19-.2-.15-.25-.28-.12,0-.16,0a2,2,0,0,1-.16-.24l0,0,.66.32c0,.1,0,.19,0,.3l.38,0c0-.19,0-.32,0-.46.46,0,.47,0,.49.34a1.18,1.18,0,0,1,.41-.07c.14,0,.27.13.41.14s.27-.08.16-.27c-.35.2-.61.06-.67-.31a5.57,5.57,0,0,1-.73-.19c-.13,0-.23-.17-.35-.25a.42.42,0,0,0-.22-.05s-.09.11-.07.13a.82.82,0,0,0,.2.17l.21.14-.06.11a3.73,3.73,0,0,0-1.2-.34c.14.12.23.19.31.27l0,.09-.67-.14v.2h-.46c-.05.24-.09.41-.11.53L11,32v.15c.31-.2.69.34,1-.14l.71.24,0-.06ZM34.67,11l.06.1a4.14,4.14,0,0,0,.55-.38,7.12,7.12,0,0,1,1.79-1.13c.18-.09.45-.27.44-.37s.09-.3.2-.42.19-.26.29-.39a1,1,0,0,1,0-.1c-.3.15-.3-.06-.37-.21-.13.12-.27.19-.11.37a.26.26,0,0,1,0,.24,3.58,3.58,0,0,1-.31.45,3.75,3.75,0,0,1-.28.27c0-.12,0-.19-.05-.22-.14.12-.26.3-.42.36a2.84,2.84,0,0,0-.93.63L35,10.7A3.17,3.17,0,0,1,34.67,11ZM34,12.43l.12,0c.44-.31.86-.62,1.31-.9a6.16,6.16,0,0,1,.74-.33c.34-.17.68-.37,1-.57a1.6,1.6,0,0,0,.26-.26l-.07-.07c-.1,0-.23.13-.27.1-.28-.22-.28,0-.29.17a.1.1,0,0,1-.06.08c-.33.15-.62.48-1,.28a1.07,1.07,0,0,1-.17.3,4.59,4.59,0,0,1-.52.33A2.75,2.75,0,0,0,34,12.43ZM15.84,16.9l.09,0c.05.15.05.35.16.43s.37.42.56.57a7.18,7.18,0,0,1,.85,1,10,10,0,0,1,.66.9c0-.53-2.15-3.2-2.54-3.17.18.21.05.3-.17.35l.06.07Zm2.39,17.66a.69.69,0,0,1,.05-.13,2.2,2.2,0,0,0-.26-.15l-.46-.17L17.33,34c.08.15.12.24.17.32l-.05.06L17,34.16a2.29,2.29,0,0,0-.28-.08l-.06.3h-.41c0,.17,0,.38.24.33l.51-.09-.07-.2a.56.56,0,0,1,.57.57l.53-.17a1.39,1.39,0,0,1-.33-.2.63.63,0,0,1-.1-.2,1.81,1.81,0,0,1,.23,0ZM12.06,14.38,14,16.05a6.2,6.2,0,0,0-1.79-1.88c0,.06.06.11.09.18Zm3.46,8,2.36.14a.34.34,0,0,0,0-.1,8.19,8.19,0,0,0-1.18-.23A1.77,1.77,0,0,0,15.52,22.4Zm4.62,12.45a3,3,0,0,0-.52-2ZM33.69,14.38l.1.09c.33-.32.75-.55,1-1-.15.2-.31.27-.54.07v.32l-.06,0ZM14.39,28.71c-.07-.44-1-1.2-1.3-1.12ZM28.3,13.91c0,.16,0,.3,0,.38s-.15.31,0,.46l-.16.27c.34-.16.42-.33.34-.62a.39.39,0,0,1,.05-.23c0-.08.09-.15.15-.26ZM3.16,29.1c.11.34,1,.59,1.39.43Zm10.29-15a3.69,3.69,0,0,0,.88,1.55C14,15.23,14,14.57,13.45,14.12ZM3.13,29.91l.1-.08-.38-.6-.06.08-.4.12ZM36.39,7.58l0,.08c.11,0,.31,0,.33,0a.74.74,0,0,1,.51-.42c.05,0,.08-.11.16-.24A2,2,0,0,0,36.39,7.58Zm-3.12,2.68-.26.29c-.07.06-.17.16-.25.15-.27,0-.38.09-.34.37A1,1,0,0,0,33.27,10.26ZM4.57,29.84c.13.15.29.24.33.38a.39.39,0,0,0,.62.22C5.1,30.4,5.09,29.76,4.57,29.84ZM26,20.49c-.18.13-.23.29-.07.46a.23.23,0,0,1,0,.36.78.78,0,0,0-.11.18c.48,0,.22-.5.41-.66C26.15,20.71,26.07,20.61,26,20.49Zm2.62.27-.07,0-.37.54.27,0,.23.29c.07-.25.11-.42.17-.62l-.27.22-.06,0C28.54,21,28.58,20.89,28.61,20.76ZM8,32.36l.13,0,.21-.05a.73.73,0,0,0-.7-.49ZM12.1,14l.06,0-.34-.89-.19.1c.09.25.14.45.23.64S12,14,12.1,14Zm.68,8,0,0-.69-.79c-.12-.14-.24-.16-.35,0ZM32.92,17.4l-.32.47.31,0a1.87,1.87,0,0,0,.07.22l.07,0,.34-.59-.43.29C32.94,17.64,32.93,17.54,32.92,17.4Zm-21.4,3.12,0,.09a1.18,1.18,0,0,0,.3.1,2.16,2.16,0,0,0,.44-.1l.51-.14,0-.08ZM38.71,7.72l-.6,1A1,1,0,0,0,38.71,7.72ZM26,20.09l.77,0c-.07-.12-.11-.21-.16-.3C26.2,19.89,26,20,26,20.09ZM32.42,18l-.46.87C32.32,18.83,32.42,18.51,32.42,18ZM18,34.71c.08.26.44.31.83.12ZM33.23,17.1l.61,0c0-.1.08-.24.13-.38a.53.53,0,0,0-.21.12c-.06,0-.16.09-.19.07C33.24,16.66,33.31,17.07,33.23,17.1Zm0-2.11a.43.43,0,0,1,0-.07c-.35.14-.46.5-.68.76l.08.07Zm5.28-8a.54.54,0,0,0,.59-.58ZM18.17,18,18,18l.3,1,.11,0C18.35,18.65,18.26,18.32,18.17,18ZM5.51,12.65l-.06.06.76.63C6.12,12.94,5.8,12.81,5.51,12.65Zm28.33,1.21c0-.15.07-.31.12-.54l-.59.44ZM4.32,12.11l.73.65C5.07,12.52,4.55,12.1,4.32,12.11ZM1.8,28.79l.7.41A.53.53,0,0,0,1.8,28.79ZM9.28,12.42a.82.82,0,0,0,.93.26ZM7.81,27.86a.56.56,0,0,0-.56-.31s-.07.11-.11.18ZM33.42,11c-.33,0-.43.2-.28.62C33.25,11.35,33.33,11.18,33.42,11ZM6.07,29.44l0,.09.5-.2C6.37,29.09,6.31,29.1,6.07,29.44Zm8.75-13.82c.15,0,.25.07.33,0s.17-.13.27-.22l-.21-.12ZM11.82,27a.43.43,0,0,0,0-.11,3.09,3.09,0,0,0-.43-.14s-.09.06-.13.1.06.1.1.11Zm5.67,3.07-.07,0,.44.76.1-.06C17.89,30.52,17.64,30.33,17.49,30.08ZM8,12.93,8,13l.31.06c0-.17-.07-.34-.1-.51l-.06,0Zm8,3.48.07-.05,0-.4H16c0,.07-.05.14-.08.23l-.28-.14C15.57,16.39,15.9,16.24,16,16.41ZM6.32,28.14l.06-.09a5.2,5.2,0,0,0-.44-.35l-.14.13Zm-.91,1.94a.41.41,0,0,0,.6.21Zm9.86-13.64c.16-.25.1-.39,0-.48s-.13,0-.19.06Zm-4,4.11,0-.08c-.11,0-.28,0-.32,0s-.16.27,0,.33ZM38,9.47c-.37,0-.33.3-.47.44C37.82,9.93,37.79,9.62,38,9.47ZM14,17.23a.83.83,0,0,0,0-.15L13.47,17l0,.12Zm16.75.3-.06-.09c-.28-.07-.3.16-.38.31l.07.08ZM38,8.75c-.15.18-.28.32-.41.46C38,9.23,38.1,9.12,38,8.75Zm-7.32,7.48.1,0c0-.17.06-.34.09-.55l-.22.05C30.69,15.91,30.71,16.07,30.72,16.23Zm1.17-.56c.38,0,.42,0,.31-.46Zm-2.15,2.66-.48.32C29.72,18.71,29.77,18.68,29.74,18.33ZM5,28.1c-.39-.15-.53-.07-.5.22Zm8.6,1.75,0,.11.54.13C14,29.72,13.75,29.85,13.57,29.85Zm6.48,6.47,0-.06a3.45,3.45,0,0,0-.26-.28s-.11,0-.17,0,0,.15,0,.17S19.93,36.27,20.05,36.32Zm-1.17-.66.14-.11-.33-.39-.09.08ZM17.71,17.91c-.1-.37-.2-.44-.57-.42ZM37.14,8.47l-.08-.07c0,.07-.11.14-.1.19a.81.81,0,0,0,.12.29s.1,0,.16,0a1.18,1.18,0,0,1-.07-.2A1.62,1.62,0,0,1,37.14,8.47Zm-31,20.3,0,.14.53.13,0-.14ZM14.61,17l-.43-.17C14.32,17.23,14.36,17.24,14.61,17ZM34,14.93c.33,0,.42-.18.26-.48C34.14,14.61,34.06,14.75,34,14.93Zm-19.2,2.83.05-.09-.37-.24c0,.16,0,.24,0,.33Zm19.07-1.52,0,.09a1.48,1.48,0,0,0,.31-.15s0-.14-.05-.29Zm5.21-9.17-.44.43C39,7.62,38.9,7.2,39.05,7.07ZM11.1,27.65l.06-.08-.39-.22a.89.89,0,0,0-.08.17Zm.58,2.9h-.46C11.5,30.82,11.56,30.82,11.68,30.55Zm-3.09-1.2.45,0-.15-.33Zm9.44-7,.08-.11-.4-.25-.08.13C17.76,22.17,17.89,22.25,18,22.32Zm11.53-1.55-.08-.06-.27.28,0,.07h.29C29.55,21,29.55,20.86,29.56,20.77Zm-16-4c0-.36-.16-.26-.32-.25a.2.2,0,0,1,0,.08ZM12.82,14c.13.1.21.21.27.2s.16-.12.23-.19l0-.05ZM11.16,28.27A1.25,1.25,0,0,0,11,28a.4.4,0,0,0-.18-.1s-.09.07-.08.09a.21.21,0,0,0,.09.15C10.94,28.17,11,28.2,11.16,28.27ZM8.75,12.61l-.44-.41A.41.41,0,0,0,8.75,12.61Zm26.12,1.54.05.09.33-.13.09-.11c-.07,0-.17-.1-.22-.08A1.34,1.34,0,0,0,34.87,14.15Zm1.06-.72c.1-.09.18-.14.25-.21a.21.21,0,0,0,0-.13s-.07-.08-.1-.07a.19.19,0,0,0-.11.09A1.79,1.79,0,0,0,35.93,13.43ZM20.62,25.56c-.07.28.08.49.3.48ZM8.84,27.7a.61.61,0,0,1,.05-.12l-.55-.24,0,.09ZM38.13,7.61,38,7.51a2.56,2.56,0,0,0-.2.26s.06.08.09.12Zm-3.25,6.27a.27.27,0,0,1-.08-.07c-.1.13-.2.25-.29.38l.11.08ZM19.5,21c-.13.23-.09.3.31.51Z"/><path class="cls-1" d="M16.47,9.67c0-.17,0-.34,0-.55l-.28.25c-.05-.17-.09-.3-.15-.47l.37-.21H15.5L16.39,8l-.32,0a.69.69,0,0,1,.9-.3l.9.42c.33.15.32.14.17.45-.05.08,0,.2-.05.36l-.41-.16.23.45,0,.07-.3-.18c-.18.2-.37.42-.6.7l-.09-.46-.25.37Z"/><path class="cls-1" d="M12.53,32.93a6.18,6.18,0,0,0-.56.43.31.31,0,0,1-.49,0c-.07-.08-.06-.24-.09-.37l.08,0-.26-.14c0,.14,0,.23,0,.35l-.69-.32c0,.11,0,.2,0,.29a.88.88,0,0,1-.86,0s0-.11-.08-.21c.14,0,.27,0,.33,0,.27.21.35-.07.5-.16a.43.43,0,0,1,.23-.1c.53,0,1.07,0,1.61,0C12.3,32.69,12.41,32.84,12.53,32.93Z"/><path class="cls-1" d="M11.44,33.73l-.75-.42c.08-.06.16-.14.19-.12.22.13.43.27.64.41Z"/><path class="cls-1" d="M14.46,33.24,14.1,33a.37.37,0,0,0,.05-.11,3.65,3.65,0,0,1,.35.14s0,.13.05.19Z"/><path class="cls-1" d="M30.65,11.18a.77.77,0,0,0,.75-.32c.25-.28.36-.39.61-.1-.24.54-.49,1.07-.7,1.61s-.25.9-.43,1.33-.51,1.08-.77,1.62a.31.31,0,0,1-.2.16c0-.09,0-.17,0-.26a.62.62,0,0,1,0-.19.43.43,0,0,1,.05-.23l.61-.91a.44.44,0,0,0,0-.14l-.73-.2.46-.38a.12.12,0,0,1,.1,0c.45.09.52,0,.61-.43l0-.22h0c0-.05.07-.1.06-.15a.74.74,0,0,0-.11-.24c-.16-.23,0-.32.17-.37a.93.93,0,0,0,.5-.82c-.2.19-.37.36-.55.52s-.08.09-.13.09l-.56.07c.07-.14.16-.29.24-.43Z"/><path class="cls-1" d="M29.56,14.94c.12.27.21.49.32.75a11.92,11.92,0,0,0-1.95,3l-.07,0a3.23,3.23,0,0,1,0-.62c.16-.58.32-1.16.53-1.72a3.93,3.93,0,0,1,1-1.35A.17.17,0,0,1,29.56,14.94Zm-.67,1.17c-.45.19-.41.49-.19.83l.29-.39-.29,0Z"/><path class="cls-1" d="M30.87,14.29a1.48,1.48,0,0,1,.21-.37c.14-.12.25-.19.18-.44s.13-.32.21-.52c.18.15.33.23.41,0l-.19-.07.55-.71c.12.12.31.12.6.07L31,14.35Z"/><path class="cls-1" d="M29.86,14.14c-.19.21-.37.43-.55.64l-.54.63-.09-.06c.05-.12.09-.24.15-.36l.84-1.72a1.51,1.51,0,0,1,.12-.26.4.4,0,0,1,.2-.12s.11.06.11.09,0,.19-.07.24c-.31.28-.33.33-.17.71a.85.85,0,0,1,0,.22Z"/><path class="cls-1" d="M34.29,9.57a.72.72,0,0,1,.6-.57,2.22,2.22,0,0,0,.3-.11.42.42,0,0,1-.33.46,4,4,0,0,0-.58.21Z"/><path class="cls-1" d="M31,12.5a.68.68,0,0,0-.12.12c-.21.32-.24.32-.65.1l.33-.41.12.2a.3.3,0,0,1,0-.08l.28.07Z"/><path class="cls-1" d="M30.73,11.79a3,3,0,0,1-.18.3,2.57,2.57,0,0,1-.35.39s-.11,0-.16.06-.06-.14,0-.17c.19-.22.4-.43.6-.64Z"/><path class="cls-1" d="M29.85,14.15l.36-.16c.05.36-.25.46-.38.66l-.08,0c0-.16.07-.33.11-.49Z"/><path class="cls-1" d="M34.48,10.08c-.1-.3,0-.46.34-.51Z"/><path class="cls-1" d="M14.78,19.73l-.14.58-.33-.1c-.59-.24-1.17-.51-1.77-.71a4.49,4.49,0,0,0-2-.25c-.23,0-.37-.06-.43-.34l.33.07c0-.28.15-.28.36-.09a.4.4,0,0,0,.29,0,1.81,1.81,0,0,0,.35-.16.76.76,0,0,0-.77-.5c0,.24.48.14.32.5a1.09,1.09,0,0,1-.27-.11c-.11-.09-.18-.15-.29,0s-.21,0-.31-.06a2.06,2.06,0,0,0-.33-.2.49.49,0,0,1,0,.11c0,.08,0,.17.05.26s-.24,0-.28-.1-.2-.26-.39-.1-.14,0-.21,0l0-.07a1.46,1.46,0,0,1,.33-.24,8.77,8.77,0,0,1,1.34-.34,3,3,0,0,1,.93.13,9.37,9.37,0,0,1,.92.19,8.1,8.1,0,0,1,1.94.42,6.42,6.42,0,0,1,.81.28,9.17,9.17,0,0,1,1.14.92,9.28,9.28,0,0,1,.71.82,2.13,2.13,0,0,1,.12.29l-.66-.16c-.06,0-.14-.07-.19-.06-.46.15-.8-.19-1.2-.27,0,0-.06-.05-.1-.07-.3-.12-.3-.12-.12-.39,0,0,.06-.14,0-.17A.78.78,0,0,0,14.78,19.73Zm-1.48-.58-.58-.64-.16.26-.89-.44c.47.93.47.93.82.84l-.57-.41a.76.76,0,0,0,.08-.11l.92.6.06,0c0-.09-.07-.18-.13-.35l.46.29a2,2,0,0,0,0,.27l.59.36c.1-.08.19-.12.24-.2a1.56,1.56,0,0,0,.12-.35l.8.48c.13.07.3.24.39.21.36-.13.47.17.67.32a.31.31,0,0,1-.25,0c-.26-.15-.33-.14-.52.11.82.21.82.21,1,0l.42.18a.3.3,0,0,0,0-.08c-.08-.05-.2-.09-.24-.17-.22-.34-.61-.41-.91-.61a.71.71,0,0,0-.26,0c-.08,0-.19,0-.24,0a1,1,0,0,1-.25-.36c-.09-.24-.2-.31-.4-.11-.32-.3-.32-.3-.44,0l-.57-.36-.06.09.35.35a.88.88,0,0,1,.1.22,1,1,0,0,1-.24-.07A3.15,3.15,0,0,1,13.3,19.15Z"/><path class="cls-1" d="M10.92,16.87a.48.48,0,0,0-.5-.36,1.6,1.6,0,0,1-.93-.37c-.12-.07-.18-.15-.3,0s-.21,0-.29,0-.29-.23-.44-.33-.15,0-.22-.08l-.07.09.45.24-.1.09c-.14,0-.64-.18-.64-.31s-.2-.23-.33-.31l-.18-.15,0-.08.64.13c.18,0,.37,0,.55.08s.31.1.47.15,0,0,.07,0c.58,0,.95.4,1.43.61.75.33,1.47.75,2.2,1.14.47.25.93.52,1.4.79,0,0,0,0,0,.12l-.55-.14L12.84,18l-1.18-.27a.69.69,0,0,0-.24,0,2.27,2.27,0,0,1-1.14-.26,10.3,10.3,0,0,0-1.12-.32c-.25-.07-.5-.13-.75-.22-.08,0-.13-.15-.21-.22L8,16.45a1.36,1.36,0,0,1-.1-.21c.07,0,.16,0,.21,0a1.46,1.46,0,0,1,.35.3.44.44,0,0,0,.52.2l-.33-.37c.22,0,.64.14.68.34s.24.21.37.26a6.75,6.75,0,0,0,.68.19,1.51,1.51,0,0,0-.11-.22c.21-.29.45-.16.69-.06l-.16.2c.15.05,0,.45.36.35,0-.07,0-.13,0-.19h.23C11.41,16.82,11.12,16.91,10.92,16.87Z"/><path class="cls-1" d="M6.82,16.27l.44.17c.14-.24,0-.28-.18-.37l-.58-.4s0-.1,0-.16c.66.23,1.33.93,1.2,1.22C7.36,16.69,7,16.75,6.82,16.27Z"/><path class="cls-1" d="M9.28,16.42c.47-.15.6.21.9.42A1,1,0,0,1,9.28,16.42Z"/><path class="cls-1" d="M9.79,19.41l-.49-.66.06,0C9.88,19,10,19.08,9.79,19.41Z"/><path class="cls-1" d="M10,19.38a.43.43,0,0,1,.5.41C10.23,19.84,10.06,19.7,10,19.38Z"/><path class="cls-1" d="M7.75,15.87a.6.6,0,0,1-.7-.44Z"/><path class="cls-1" d="M6.38,14.93l.65.52C6.67,15.48,6.33,15.19,6.38,14.93Z"/><path class="cls-1" d="M5.38,13.59c0-.08,0-.15-.07-.24.38.09.59.27.57.5l-.51-.27Z"/><path class="cls-1" d="M8.11,17.22l-.53-.28c.24-.13.38-.08.57.19A.36.36,0,0,0,8.11,17.22Z"/><path class="cls-1" d="M22.7,7.43c-.3,0-.48-.44-.86-.34l.44.36,0,.08L22,7.43l-.08.37-.23-.5-.08,0c0,.25.07.49.1.74l-.08,0-.2-.34c0,.12-.06.22-.09.33l-.07,0-.19-.42a1.9,1.9,0,0,1,0,.4c0,.06-.09.1-.13.14a.49.49,0,0,1-.11-.14l-.13-.58-.38.14-.05-.06.24-.35,0,0-.52.31c0-.1,0-.18-.06-.29l-.23-.07.46-.21a.29.29,0,0,1,0-.09L19.39,7s0,0,.27-.3l.39-.32-.25,0-.24,0a.25.25,0,0,0,0-.08l.55-.06c-.05-.08-.07-.14-.12-.17s-.28-.18-.2-.4c0,0-.05-.13-.08-.19l-.14-.29A3.59,3.59,0,0,1,19.93,5c.31,0,.45.17.57.4l.07,0c0-.18-.07-.37-.11-.56l.06,0,.59.52c0-.05,0-.16,0-.24L21.38,5l.17.36c.12-.12.23-.15.27.11s.28.12.44.12a.34.34,0,0,1,.18,0s0,.12,0,.21l.24,0,0,.47-.08,0,.15.1-.29.24-.32-.07,0,.07.55.31a.25.25,0,0,1,0,.07L22.3,7l0,.06a2.4,2.4,0,0,1,.27.16,1.92,1.92,0,0,1,.22.18Z"/><path class="cls-1" d="M13.26,21.05c.23.19.47.38.69.58,0,0,0,.13,0,.29-.34-.28-.65-.46-.79-.8Z"/><path class="cls-1" d="M14.75,22.41l-.46-.49C14.64,21.92,14.8,22.08,14.75,22.41Z"/><path class="cls-1" d="M14,21.19l.6.37c-.36.12-.58-.06-.59-.38Z"/><path class="cls-1" d="M14.06,22.09c.16.11.36.17.39.41l-.08.08L14,22.19Z"/><path class="cls-1" d="M27.59,15.27c.07.18.14.34.23.54-.14.13-.18.43-.46.49a.27.27,0,0,1-.08-.07l.34-.53-.31.09C27.19,15.51,27.42,15.42,27.59,15.27Z"/><path class="cls-1" d="M27,17.34c.14.34-.17.37-.27.56C26.63,17.65,26.7,17.52,27,17.34Z"/><path class="cls-1" d="M26.78,16.81l.31-.4C27.24,16.71,27.17,16.83,26.78,16.81Z"/><path class="cls-1" d="M9.5,30.51c.1.08.21.15.31.24a.48.48,0,0,1,.09.14c-.05,0-.12.09-.16.07a1.14,1.14,0,0,1-.37-.22c-.14-.16,0-.2.14-.22Z"/><path class="cls-1" d="M12.45,31.5l.78.29c-.18.14-.63,0-.81-.19Z"/><path class="cls-1" d="M12.45,32,12,31.86c.21-.11.39-.14.51.06A.42.42,0,0,1,12.45,32Z"/><path class="cls-1" d="M13.73,34.19,13.22,34c.14-.23.35-.18.54.09Z"/><path class="cls-1" d="M16.2,21.84c-.39.07-.45,0-.7-.42.33,0,.5.24.7.42Z"/></g></g></svg>