<svg xmlns="http://www.w3.org/2000/svg" viewBox="0 0 48.03 24.41"><defs><style>.cls-1{fill:#323c90;}</style></defs><g id="Layer_2" data-name="Layer 2"><g id="Layer_1-2" data-name="Layer 1"><path class="cls-1" d="M0,2.23a4.83,4.83,0,0,0,.12.85.62.62,0,0,0,.25.33c.17.12.42.2.52.45s.24.2.38.27a2.6,2.6,0,0,0,.4.1l.41.13c.11,0,.25,0,.31.08s.33.1.5.16a1.11,1.11,0,0,0,.26.07,1,1,0,0,1,.5.09,1,1,0,0,0,.5,0c.25,0,.49,0,.73-.08s.19-.12.31-.2c.24.3.61.14.94.16a5.72,5.72,0,0,1,1.11.12A7.22,7.22,0,0,0,9,4.89,3.27,3.27,0,0,0,9.92,5a.48.48,0,0,0,.18,0,.27.27,0,0,1,.32,0,.29.29,0,0,0,.22,0c.13-.06.23-.17.35-.23s.12,0,.18.06.11.09.18.12.25.07.33.15.29.07.43,0l.24,0-.09.14.16.06.5.17c.05,0,.15.05.17,0s.21-.08.33-.09.16-.05.25-.06a.28.28,0,0,1,.15,0s0,.1-.06.12c-.19.12-.4.22-.59.34a.3.3,0,0,0-.11.14.11.11,0,0,0,0,.12.11.11,0,0,0,.11,0c.31-.28.8-.3,1.05-.69a.3.3,0,0,1,.2,0l.37,0c-.12.17-.06.29,0,.34s.3-.17.44-.23.59-.22.88-.33h.08A.77.77,0,0,0,16.88,5c.09,0,.22.07.34.11l.21,0s.08,0,.1,0,.27.29.38.44a.4.4,0,0,1-.28.66.66.66,0,0,0-.2.11l-.06,0-.52.06h-.91a.41.41,0,0,0-.16,0,.58.58,0,0,1-.6-.13.72.72,0,0,1-.24-.47h0c0,.07-.05.14,0,.19a3.75,3.75,0,0,1,0,.67s0,.11.07.12.14.18.16.3.05.16.07.23a2.16,2.16,0,0,0-.37-.19c-.23-.07-.33.13-.45.24a.74.74,0,0,1-.38.2,3.63,3.63,0,0,0-.75.29L13,8.13s0,0-.06.11c.25,0,.47.07.71-.06a1.42,1.42,0,0,1,.81-.26c.16,0,.34.07.5-.08s.2,0,.3,0,.06,0,.1,0l-.11-.16h0a3.73,3.73,0,0,0,.3.26,4.74,4.74,0,0,0,.5.26s.08,0,.1,0c.14.18.34.17.55.18a2.67,2.67,0,0,1,.34.11c.1,0,.19.06.27-.06s.08,0,.13-.05a.53.53,0,0,1,0,.12c0,.11.08.12.14.06s.26,0,.38.06,0,.17,0,.25a2.81,2.81,0,0,1,0,.29s.05.06.07.09.06-.05.07-.08.08-.28.13-.41.09-.16.2-.09l.15.07a.13.13,0,0,0,0-.06l.32-.09c.06,0,.13,0,.16,0s.26-.09.42,0a.87.87,0,0,0-.07.61h.08A1.42,1.42,0,0,1,19.55,9a4.43,4.43,0,0,1,.17-.47c0-.05.1-.08.15-.11l.08.16a2.43,2.43,0,0,0,.16.37c.15-.24-.05-.61.37-.75,0,.11,0,.24,0,.31s0,.42,0,.63c0,.45.4.71.59,1.07,0,0,.05,0,.08,0l.6.15-.66.61L21,10.7c.06,0,.13,0,.17,0a1.12,1.12,0,0,0,.2-.17.75.75,0,0,0-.18-.13,2.44,2.44,0,0,1-.76-.74,1.47,1.47,0,0,1-.13-.42A.52.52,0,0,0,20.2,9a.17.17,0,0,0-.14,0s0,.08,0,.12a1.64,1.64,0,0,0,.42,1c.1.12,0,.22-.1.26a2.1,2.1,0,0,0-.19-.27,1.27,1.27,0,0,1-.42-.64c0-.05-.11-.09-.16-.13s-.06.2,0,.28a1.62,1.62,0,0,0,.22.46.9.9,0,0,0,.26.17c0,.16,0,.34.18.43,0,.13-.08.17-.18.07s-.35-.34-.51-.53a2.45,2.45,0,0,1-.24-.38l-.06,0c0,.06-.06.13,0,.18a2.14,2.14,0,0,0,.49.87,4,4,0,0,0,.47.33,1.33,1.33,0,0,0,.19.14.34.34,0,0,0,.2,0c.1-.06.14-.12,0-.2a1.72,1.72,0,0,1-.33-.22l0-.07.29.07.44.14a2.77,2.77,0,0,1-.34.36.42.42,0,0,1-.32.09,1,1,0,0,1-.36-.21,6.33,6.33,0,0,1-.56-.49c-.13-.13-.24-.3-.36-.44a1.22,1.22,0,0,0-.17-.15l0,0c.19.33.37.66.57,1l-.4,0c.2-.13.17-.23,0-.35s-.18-.2-.29-.29a.44.44,0,0,0-.17-.08l-.19-.32-.07,0c.06.21.13.41.19.62h0a.7.7,0,0,1,.35.31.32.32,0,0,1-.35-.31h0a1.39,1.39,0,0,1-.19-.15c-.09-.1-.2-.13-.29,0A.22.22,0,0,0,18,11c.18.19.34.4.51.59l0,0a1.1,1.1,0,0,1-.14-.09c-.11-.14-.23-.25-.42-.13l-.07,0,.11-.15c-.2-.25-.39-.51-.59-.77l-.05,0c.13.33.27.66.41,1-.11.05-.16,0-.23-.07-.17-.25-.37-.47-.56-.7l-.08,0a1.16,1.16,0,0,0,0,.33c.09.15.22.28.31.43a.73.73,0,0,1,.06.21c-.07,0-.16,0-.2-.07s-.37-.32-.41-.59a.19.19,0,0,0-.13-.07.12.12,0,0,0-.09.1c0,.13-.05.28.13.35s0,.07.08.12l-.36,0c.13-.14.08-.24-.06-.34s-.11-.2-.19-.28-.11,0-.16-.06-.07.15-.05.2c.13.24.28.47.42.71-.07,0-.27-.07-.34-.18s-.24-.34-.37-.53c-.22.31.06.48.09.74l-.16-.14c-.18-.21-.34-.43-.52-.64,0,0-.13,0-.19-.08a1.51,1.51,0,0,0,0,.28s.07.08.12.13.05.21.08.31l-.29-.05c0,.13,0,.26,0,.4h-.41v0l.19-.11c-.11-.17-.2-.33-.3-.5a1.94,1.94,0,0,0-.15-.24.22.22,0,0,0-.17-.08.93.93,0,0,0-.25.16L13,10.57a.28.28,0,0,0-.08-.11s-.08,0-.13-.05a.34.34,0,0,0,0,.14.94.94,0,0,0,.06.15.32.32,0,0,1,0,.17.88.88,0,0,1-.47-.48c-.05-.23-.07-.25-.31-.2l-.1,0,.27-.17,0-.05s0-.09-.06-.11A.28.28,0,0,0,12,9.76s-.06.07-.09.1l-.11.12a1.1,1.1,0,0,1-.09-.14s0-.09,0-.11a.23.23,0,0,0-.14-.08.15.15,0,0,0-.07.12,3,3,0,0,0,.11.31c-.43-.18-.61-1-.56-1.61a1.35,1.35,0,0,0-.28,0,.18.18,0,0,0-.14.14A1.4,1.4,0,0,0,10.7,9a.74.74,0,0,0,.17.25c-.11.14,0,.3.06.48s0,.16,0,.23.16.38.43.38l-.09.15A2,2,0,0,0,13,11.91l.14-.1c-.12.23,0,.28.14.34l.71.3.09,0a2.86,2.86,0,0,1,.83.18,5.79,5.79,0,0,0,.72,0h.8a1.25,1.25,0,0,0,.26-.07l.16,0,1.08,0a.73.73,0,0,0,.31-.09c.22-.09.34,0,.4.19s.06.12.14,0,0,0,0,0c.23-.19.3-.18.42.1s.1.26.31.34c-.18.16-.07.26,0,.37a.54.54,0,0,1,.1.16s-.09.07-.11.06a.44.44,0,0,1-.14-.13c-.07-.14-.18-.09-.28-.07a.39.39,0,0,0,0,.18l.25.42a.16.16,0,0,0,.09.05c.2,0,.25.14.23.32h0a2.15,2.15,0,0,1,.27.1c.16.11.3.26.53.24.06,0,.13.08.19.13l0,.07a1.19,1.19,0,0,1-.22-.05,3.49,3.49,0,0,0-.55-.27.21.21,0,0,1-.19-.22h0a1.25,1.25,0,0,1-.28-.15c-.17-.14-.34-.11-.41.08.14.13.27.27.41.39a.74.74,0,0,0,.49.22.21.21,0,0,1,.1,0l.31.26s0,0-.05,0-.29,0-.41-.15a1,1,0,0,0-.35-.17h0c-.13-.09-.24-.27-.45-.1.06-.33,0-.4-.25-.46l.42-.47a2.48,2.48,0,0,0-.37-.14s-.09.08-.09.12a1.35,1.35,0,0,0,.08.24.21.21,0,0,1-.32,0,.93.93,0,0,0-.18-.16.12.12,0,0,0-.1,0,.09.09,0,0,0,0,.1,3.51,3.51,0,0,0,.4.53,2,2,0,0,0,.81.61.53.53,0,0,1,.15.11s0,0,0,.06-.11,0-.14,0l-1.11-.76c-.1-.07-.21-.11-.25-.25s-.14-.08-.22-.11-.08.09-.07.11a.9.9,0,0,0,.15.19s.12,0,.12.08c.06.24.24.27.42.28,0,.08,0,.16,0,.26s-.06,0-.08,0l-.48-.37a.71.71,0,0,0-.22-.13c-.18,0-.27-.16-.39-.27a.23.23,0,0,0-.16,0,.16.16,0,0,0-.07.14.18.18,0,0,0,.11.13c.1,0,.19,0,.18.16s.08,0,.12,0a.67.67,0,0,0,.16-.06.54.54,0,0,0,.31.56c-.18.1-.25,0-.33-.09s-.34-.2-.5-.3S17.05,15,17,15s-.25-.17-.38-.24-.12,0-.13,0,0,.13,0,.16a2.6,2.6,0,0,0,.33.25,1.49,1.49,0,0,1,.12.14l0,.06-.15-.05c-.2-.12-.36-.33-.64-.28h-.06c0-.18-.21-.18-.28-.3s-.08-.05-.12-.07,0,.11,0,.14.18.22.25.34,0,.13,0,.19a.84.84,0,0,1-.17,0l-.71-.57s-.07-.09-.11-.12a.47.47,0,0,0-.12-.07.37.37,0,0,0,0,.15,1.83,1.83,0,0,0,.13.16c.07.11.12.22.19.33a.18.18,0,0,0,.08.07l.88.46c-.09,0-.18.09-.22.07a5.26,5.26,0,0,1-1.2-.78c-.08-.07-.16-.16-.25-.23s-.11,0-.17,0a.66.66,0,0,0,0,.15c.14.14.2.35.42.44s.22.22.33.33c-.09,0-.19.06-.34-.06a2.86,2.86,0,0,1-.6-.7.28.28,0,0,0-.21-.11c-.3.06-.43-.16-.58-.33A.36.36,0,0,0,13,14.3s-.11,0-.16-.05a1.74,1.74,0,0,0,.67.95.4.4,0,0,0,.11,0,.21.21,0,0,1,.21.29.18.18,0,0,0-.07-.05l-.11,0s0,.08,0,.1a3.17,3.17,0,0,0,.5.47,2.55,2.55,0,0,0,.59.25s.06-.05.09-.05.26,0,.3.05.18.13.31.16.35.12.52.16a3.91,3.91,0,0,0,.82.14,2.29,2.29,0,0,0,.61-.16s.1-.05.13,0c.32.15.6,0,.9-.12L19.72,16s0,0,0,0l-.14-.1a.11.11,0,0,0,0-.05.38.38,0,0,1,.19.05.22.22,0,0,0,.27,0,6.88,6.88,0,0,1,.77-.38l.09-.08.28-.28c.07.2.1.36.16.5s.1.07.15.1l0,0-.19-.54c-.05-.17.1-.25.19-.32.29-.23.6-.44.9-.67.12-.09.22-.2.36-.32,0,.12,0,.2.05.26s.09.1.13.09.1-.09.09-.13a3.34,3.34,0,0,0-.14-.41s.12-.12.15-.1a.55.55,0,0,1,.19.21c0,.08,0,.18.08.26.12.23.19.23.34,0-.08-.18-.15-.35-.22-.53l0-.06c0-.07-.13-.19-.11-.2s.15-.28.35-.26a.59.59,0,0,1,0,.26.76.76,0,0,0,.07.47c.07.16.14.19.24,0l.2.17L24,14a2.3,2.3,0,0,0,.91,1c-.1.15-.24.17-.38,0s-.43-.32-.52-.59a.34.34,0,0,0-.22-.19c-.08,0-.19.33-.12.41a4.43,4.43,0,0,0,.69.68.76.76,0,0,0,.83,0l-.1-.17a.45.45,0,0,0,.32-.61c0-.05,0-.12.06-.19s.05-.07,0-.09-.06,0-.09-.05-.18.11-.24,0,.19-.26.29-.27l-.06-.1.31-.7c-.41.14-.51.57-.8.82l0,0c.08-.18.15-.36.23-.57-.19,0-.48.27-.47.38s.06.37.08.55a.63.63,0,0,1-.2-.73,2.55,2.55,0,0,1,.48-1c.08-.09.17-.16.29,0s.08,0,.13,0a1.09,1.09,0,0,1,.25.1.93.93,0,0,1,.3.29,1.18,1.18,0,0,1,.17.52.9.9,0,0,1-.13.4c-.09.21-.2.41-.3.62l-.07.11c0,.05-.08.11-.07.15s.1.06.15.09l.07,0a4.11,4.11,0,0,1-.21.42,3,3,0,0,1-.23.27c-.14.2-.26.41-.41.6s-.22.25-.33.37a.12.12,0,0,1-.1,0c-.15-.13-.32-.09-.49-.09a.24.24,0,0,1-.13-.05.13.13,0,0,1,0-.1.32.32,0,0,1,.14,0c.14,0,.29.06.43.07s.1-.08.15-.12L24.51,16l-.2-.15c.17,0,.3,0,.41-.07a1.35,1.35,0,0,0,.22-.14l-.21-.08a1.24,1.24,0,0,1-.73-.34c-.13-.16-.22-.13-.32.09.21.13.42.27.66.44-.22.09-.33,0-.45-.11s-.06-.07-.1-.08l-.25-.07c0,.1,0,.21,0,.3s.08.11.1.19a.69.69,0,0,1-.41-.2c-.1-.12-.19-.25-.38-.16-.06-.14-.06-.31-.27-.28s-.15.08-.09.18v0a5.07,5.07,0,0,1,.64.58,1.25,1.25,0,0,0,.66.35l.07,0c.12.13.26.21.43.06,0,0,.06,0,.12,0l-.28.38c-.05-.28-.24-.28-.41-.35a4.16,4.16,0,0,1-.52-.25c-.19-.11-.33-.3-.57-.33,0,0-.05-.06-.09-.08l-.24-.13s-.06.13,0,.16c.24.25.49.49.74.73,0,0,.13,0,.2.1s-.07,0-.1,0a2.62,2.62,0,0,1-.48-.22c-.25-.18-.48-.37-.72-.57,0,0,0-.08-.06-.11a.31.31,0,0,0-.15-.08s-.11,0-.1.05a.22.22,0,0,0,.06.14c.07.07.17.11.24.19a4.09,4.09,0,0,0,.72.72.41.41,0,0,0,.22,0c.06,0,.11,0,.17,0a.23.23,0,0,1,.12.06s0,.06,0,.06l-.13,0a.18.18,0,0,0-.13,0l.29.21,0,.07a3,3,0,0,1-.42-.15,3.35,3.35,0,0,1-.8-.55.38.38,0,0,0-.29-.05c.08.15.1.31.27.39s.2.24.33.32a1.67,1.67,0,0,0,.43.15c0,.17.12.23.31.25l0,.06c-.1,0-.2,0-.3-.05l-.73-.31s-.08,0-.08-.06c0-.25-.24-.27-.41-.34L21.15,17l0,.05a5.8,5.8,0,0,0,.52.58c.18.16.4.28.61.47-.08,0-.17,0-.22,0-.26-.18-.51-.37-.76-.56,0,0-.06,0-.09,0l-.32-.15a1.1,1.1,0,0,0-.14-.09s-.06,0-.09,0a.26.26,0,0,0,.05.09l.19.18c.05,0,.1.13.15.13.23,0,.25.2.35.33a1.94,1.94,0,0,0,.27.23l0,.07c-.06,0-.14,0-.18,0s-.25-.24-.38-.34a.69.69,0,0,0-.19-.1l-.32-.2s-.1,0-.12,0a.15.15,0,0,0,0,.13,1.24,1.24,0,0,0,.57.48,1.37,1.37,0,0,0,.27.27,1.1,1.1,0,0,0,.32.11v.09c-.06,0-.14,0-.19,0s-.41-.23-.6-.36a1,1,0,0,0-.72-.13l.47.49h0A.65.65,0,0,1,21,19a.16.16,0,0,1,0,.07l-.43-.32h0a1.39,1.39,0,0,1-.28-.12c-.14-.09-.26-.22-.45-.19l-.09,0a1.12,1.12,0,0,0,.64.62,3.81,3.81,0,0,1,.45.23v.06s-.09,0-.13,0a7,7,0,0,1-.75-.32c-.19-.12-.34-.3-.52-.43a.57.57,0,0,0-.22-.07.93.93,0,0,0,0,.23.83.83,0,0,0,.15.23,2.31,2.31,0,0,0,.23.18.58.58,0,0,1,.1.12h0l.43.11c-.17.12-.28.08-.43-.11h0a.51.51,0,0,1-.35-.2c0-.06-.14-.07-.2-.11l-.64-.45a.17.17,0,0,0-.1,0s0,.08,0,.11a2.12,2.12,0,0,0,1.11.79v.05a1.07,1.07,0,0,1-.31,0,1.61,1.61,0,0,1-.33-.2c-.2-.11-.42-.21-.61-.34a1.11,1.11,0,0,1-.3-.31c-.07-.1-.12-.22-.28-.21a3.07,3.07,0,0,0,1.18,1.22c-.06.13-.15.12-.23.05l-1-.89c-.09-.09-.15-.22-.24-.31a.48.48,0,0,0-.18-.07c0,.06-.05.14,0,.18a3.64,3.64,0,0,0,.35.52s.15,0,.25,0,0,0,0,0,0,.19,0,.28-.18-.06-.23-.12a5.45,5.45,0,0,1-.66-.78,1.82,1.82,0,0,0-.35-.42l0,0c-.38-.05-.08-.25,0-.32a.42.42,0,0,0-.11-.6c0,.08-.06.15-.08.22h-.05a1,1,0,0,1,0-.14c.05-.32,0-.33-.23-.23,0,0-.05-.1-.07-.14s-.1.09-.1.13,0,.21.06.31,0,.27,0,.41.07.34.11.51a2.37,2.37,0,0,0,.09.36.23.23,0,0,0,.11.11c.24.1.27.15.11.36.12.15.25.31.36.47a2.09,2.09,0,0,0,.17.28,1.44,1.44,0,0,0,.68.41,1.81,1.81,0,0,1,.35.16l.11,0a5,5,0,0,0,1.22.12,4.69,4.69,0,0,0,.53,0c.25,0,.49-.13.74-.19s.34-.08.51-.12l.41-.15.48-.19.63-.25a2,2,0,0,1,.51-.17,1.92,1.92,0,0,0,.63-.19,1,1,0,0,1,.44,0c.2,0,.41.11.61.16a5.7,5.7,0,0,1,1.2.3,3,3,0,0,0,.8.15l0,0-.08-.16h.26c-.13.21-.1.26.13.31s.33.13.5.17a2.19,2.19,0,0,0,.36,0l.29,0-.17.15a2.13,2.13,0,0,0,.36.15l.6.13a.67.67,0,0,1,.15.06c.05,0,.11,0,.14,0s.28,0,.41.07a.42.42,0,0,0,.16,0A2,2,0,0,0,30,21l.23,0a2.46,2.46,0,0,1,.28,0c.17,0,.34.08.5.12l.36.09.09,0,.47,0s.06,0,.1-.08a.91.91,0,0,0,.63.23c.47,0,.93.06,1.39.11.16,0,.32.07.48.08a2.12,2.12,0,0,0,.43,0,1.47,1.47,0,0,1,.75,0,.71.71,0,0,0,.29,0l0,0c.27.14.51-.11.77-.06.07,0,.16-.07.19-.08l.62-.09s0,0,0,0c.26.14.46-.05.68-.12s.22,0,.25.18a8.28,8.28,0,0,0,.16.84,1.23,1.23,0,0,0,.23.58.29.29,0,0,0,.34.12h.21V23h-.16c-.13,0-.2.07-.12.18a3.89,3.89,0,0,0,.41.5,4.42,4.42,0,0,0,.47.39,1.31,1.31,0,0,0,.36.21,3.58,3.58,0,0,0,.65.14,1.55,1.55,0,0,0,.43,0,1.65,1.65,0,0,0,.32-.07l.15,0a4.91,4.91,0,0,1,.77,0c.13,0,.23.07.34,0s.07,0,.1,0a.27.27,0,0,0,.35,0,.42.42,0,0,1,.12,0h.58a1,1,0,0,1,.24,0,.41.41,0,0,0,.15,0,1.72,1.72,0,0,1,1,0,2.37,2.37,0,0,0,.46,0,2.64,2.64,0,0,1,.63,0,.58.58,0,0,0,.78-.55,1.43,1.43,0,0,1,.07-.28.51.51,0,0,0,0-.24c0-.15-.13-.29-.16-.45a3.2,3.2,0,0,1,0-.54s0-.05,0-.07c.19-.12.21-.22.07-.39a.57.57,0,0,1-.08-.13c.29-.07.28-.09.29-.42s-.2-.75-.14-1.15c0-.14-.11-.28-.15-.43a.49.49,0,0,1,0-.24,5.64,5.64,0,0,1,.21-.7,2.1,2.1,0,0,1,.22-.3.4.4,0,0,0-.27-.6l0,0s0,0,0,0c.26,0,.28,0,.26-.29a1.09,1.09,0,0,0-.51-1,2.1,2.1,0,0,1-.37-.31l.06-.07a1.13,1.13,0,0,0,.2.13.53.53,0,0,0,.27.1c.08,0,.06-.33,0-.41a1,1,0,0,0-.18-.17l-.73-.62c-.2-.17-.4-.34-.58-.52a1.11,1.11,0,0,1-.22-.34s0-.07,0-.11.09,0,.11,0,.08.12.13.16c.46.35.75.87,1.23,1.19.06,0,.16.08.2.06a.41.41,0,0,0,.09-.2c0-.15,0-.31.1-.46s-.06-.25-.17-.32a4.08,4.08,0,0,1-.89-.72,3,3,0,0,0-.58-.47,2,2,0,0,0-.25-.14.08.08,0,0,1,0-.06c0-.13,0-.26,0-.38.29.28.56.56.85.83a3.88,3.88,0,0,0,.48.3l.54.42a1.3,1.3,0,0,0,.2.15.54.54,0,0,0,.18,0,.66.66,0,0,0,0-.21c0-.06-.11-.09-.17-.13-.27-.19-.55-.36-.8-.57s-.42-.4-.63-.59l-.32-.26s0-.1-.06-.15.14,0,.17,0c.19.16.35.34.54.48s.58.36.87.53a.12.12,0,0,0,.1,0,1.48,1.48,0,0,0,.13-.35c0-.05,0-.13-.09-.17l-.57-.55a.25.25,0,0,0-.09,0,.56.56,0,0,1-.36-.25,2.25,2.25,0,0,0-.46-.41c-.18-.16-.38-.32-.54-.49s-.09-.2-.23-.2,0-.06,0-.1a1.51,1.51,0,0,1,.74.54.2.2,0,0,0,.07.06c.27.24.54.48.83.7,0,0,.16,0,.25,0s0-.09-.05-.14l.25-.09a1.23,1.23,0,0,1-.29-.17,4.44,4.44,0,0,0-1-.78s-.07-.1-.11-.15l.07-.06c.27.2.55.39.82.6a3.57,3.57,0,0,1,.38.33c.07-.23.14-.41.18-.6s-.12-.3-.33-.3l0-.24a1.09,1.09,0,0,0,.21.09,1.2,1.2,0,0,0,.2,0c0-.07,0-.15,0-.19a.59.59,0,0,0-.24-.17c-.14-.06-.27-.1-.33-.27s-.14-.09-.21-.15L45.29,8.89c-.06-.05-.1-.11-.16-.16s-.09-.05-.13,0-.17,0-.19-.15a1.56,1.56,0,0,0-.19-.39,1.69,1.69,0,0,1,0-.24l.07,0c.07.14.15.28.21.38a3.59,3.59,0,0,1,.47.27,3.73,3.73,0,0,1,.35.34l.4.32.48.42.73.64a.42.42,0,0,0,.13,0,.39.39,0,0,0,0-.15c0-.18,0-.37,0-.56s0-.29-.25-.37S47,9.13,47,9.09l-.29-.2c-.17-.11-.35-.19-.5-.31s-.42-.36-.64-.53-.51-.38-.78-.55-.17.06-.24.17l-.27-.84h0c.21.16.41.33.61.5h0c.31,0,.36.32.58.44s.4.35.63.43.58.46.91.63a1.38,1.38,0,0,0,.29.08s.07,0,.07-.06,0-.08-.05-.08-.23-.15-.34-.24a3,3,0,0,0-.41-.28l-.29-.21c-.27-.19-.55-.38-.81-.58s-.47-.41-.71-.6-.29-.18-.42-.29-.12-.14-.1-.18.14-.09.22,0a1.21,1.21,0,0,0,.2.19c.3.22.61.43.92.64l.15.11a.89.89,0,0,0,.69.29.26.26,0,0,0,.22.31.84.84,0,0,1,.35.21.42.42,0,0,0,.46.11c.19,0,.22-.18.1-.33a.39.39,0,0,1-.06-.11h0a1.43,1.43,0,0,1-.72-.44.73.73,0,0,0-.08-.09c-.27-.16-.54-.31-.8-.48s-.54-.41-.8-.61c0,0,0-.08-.07-.14a1.45,1.45,0,0,1,.79.39c.24.17.46.42.8.43l0,0L46.56,7c.27.16.53.3.77.47.08.06.11.19.16.29h0a1,1,0,0,0,.23.08,1.51,1.51,0,0,0,.3,0c0-.08,0-.19-.08-.24-.34-.28-.68-.55-1-.81s-.67-.43-1-.65l0-.06.1,0a2.12,2.12,0,0,1,.74.36l.74.62a.7.7,0,0,0,.28.12c.17.05.22,0,.18-.22l-.08,0-.08,0,0-.28.21-.07-.39-.42c.22-.17.23-.22.11-.49a1.65,1.65,0,0,1,0-1c0-.11.1-.22.13-.33s0-.15,0-.18-.07-.31-.09-.47a2.42,2.42,0,0,0-.13-.53c0-.05-.14-.07-.24-.11l.23-.07a3.91,3.91,0,0,0-.07-.39.22.22,0,0,0-.08-.13,1.71,1.71,0,0,0-.23-.13l0-.06.07,0c.37.14.48-.16.63-.38A.33.33,0,0,0,48,1.76c0-.13-.18-.15-.32-.14H47c-.05,0-.1,0-.13,0-.2.15-.42.09-.63.11a1.11,1.11,0,0,0-.25.05c-.05,0-.11.05-.14,0-.32-.13-.63.07-1,0a2.27,2.27,0,0,0-.62.09s-.05.05-.08.07l-.11.06c-.15-.19-.39.09-.54-.1,0,0,0,0,0,0-.16.16-.41,0-.56.12a.88.88,0,0,1-.52.09,9.52,9.52,0,0,0-1.06.11,2.62,2.62,0,0,0-.43.18,1.66,1.66,0,0,1-.35.13,3.11,3.11,0,0,0-1.07.51,3.32,3.32,0,0,0-.42.32,3.78,3.78,0,0,0-.49.49,2.69,2.69,0,0,0-.47.82A2.1,2.1,0,0,1,38,5l-.17-.13a4.1,4.1,0,0,0-1-.64c-.18-.08-.34-.19-.52-.29l-.05,0A4.14,4.14,0,0,1,35,3.37c-.37-.16-.71-.36-1.07-.53-.15-.07-.31-.08-.46-.14s-.32-.15-.49-.22l-.49-.2L31.91,2l-.41-.18a4.78,4.78,0,0,0-.74-.3c-.23-.05-.49-.27-.74,0,0,0-.13,0-.2,0a.43.43,0,0,0,0-.05l.22-.08-.2-.11-.19-.08L29.17,1s-.07-.05-.1,0a1.74,1.74,0,0,1-.74-.2c-.26-.1-.55-.15-.81-.24s-.65-.29-1-.41C26.36.06,26.12,0,26,0a.74.74,0,0,1-.54.05A3.65,3.65,0,0,0,24.35,0c-.39,0-.79,0-1.19,0l-2,.07H19.88a1,1,0,0,0-.15,0s0,.07.05.07a2.48,2.48,0,0,0,.84.1,1.42,1.42,0,0,1,.71,0,4.48,4.48,0,0,0,1,.11c.34,0,.69,0,1,0a1.85,1.85,0,0,0,.23,0L23.41.26a.43.43,0,0,0,0-.05L24,.35c0,.05-.08.12-.12.13-.3.08-.32.35-.42.56s-.07.21-.12.31a.17.17,0,0,1-.14,0c-.26-.09-.25-.09-.39.14l-.07,0c-.09-.19.09-.47-.22-.59a.46.46,0,0,1-.55.21c-.05.22-.09.43-.14.63,0,0-.05.06-.08.09h0a1,1,0,0,1-.09.21s-.07,0-.11,0,0-.1,0-.12.13-.08.2-.13h0c0-.15,0-.31,0-.47-.17-.06-.27,0-.31.19a1.4,1.4,0,0,1-.13.34c-.08-.18-.14-.34-.34-.41-.08.17,0,.41-.21.49l-.21-.42-.1,0,.11.15c-.24.18-.28.5-.1.61l-.14.25c0-.08-.09-.2-.17-.25s-.22-.09-.26.11a2.33,2.33,0,0,0-.19-.22.16.16,0,0,0-.15,0s-.06.08-.06.12.05.24.07.36a.74.74,0,0,1,0,.21.14.14,0,0,1-.09.08S19.33,3,19.32,3s-.05-.15-.08-.23l-.06-.21a.46.46,0,0,0-.3.46c-.18,0-.26-.13-.24-.35s0-.17-.08-.15-.12.09-.12.14,0,.32,0,.47-.06.09-.09.14-.1-.07-.1-.11S18.16,3,18.05,3s-.16.08-.16.19v.26H17.8c0-.18-.07-.36-.11-.54s-.08-.22-.12-.34c-.29.22-.29.29-.11.38V3.8h-.05c-.09-.29-.19-.59-.28-.89-.28.2-.28.31-.05.45,0,.1,0,.2-.07.3l-.05,0-.26-.42a.39.39,0,0,1,0-.44s-.06-.16-.09-.24l-.1,0V3.76h-.06c-.08-.22-.17-.45-.26-.66,0,0-.09,0-.14-.08s-.06.12,0,.17.06.35.08.52,0,0,0,.08H16l-.18-.44-.15.08V3.29h-.07a.73.73,0,0,0,.07.63l0,0c.08,0,.14,0,.13.09s-.06.09-.08.08a.34.34,0,0,1-.2,0,2.22,2.22,0,0,1-.25-.83c0-.06-.09-.14-.14-.2s-.09,0-.1.06a.63.63,0,0,0,0,.27c.08.24.19.47.26.72,0,.06-.06.16-.11.28a4.18,4.18,0,0,0-.45-1l-.07,0V4l-.08,0-.3-.76s-.07-.06-.1-.09-.08.08-.07.11.06.3.08.46a1.56,1.56,0,0,1,0,.26c-.23-.12-.24-.32-.32-.48s-.14-.19-.27-.11c0,.14,0,.26,0,.37a2.14,2.14,0,0,0,.09.27s0,.09,0,.13a.1.1,0,0,1-.1,0,.18.18,0,0,1-.1-.09c-.08-.25-.15-.5-.24-.74,0,0-.09-.08-.14-.12s-.09.1-.09.15,0,.32,0,.48l-.05,0c-.11-.23-.22-.45-.34-.67-.16,0-.19.1-.13.26a1.29,1.29,0,0,1,.07.4c-.15,0-.26-.07-.26-.23a.13.13,0,0,0,0-.09s-.09,0-.1,0a.16.16,0,0,0,0,.12c0,.11.08.23.12.34l-.07,0c-.05-.06-.13-.1-.15-.16s-.16-.38-.24-.57-.06-.22-.1-.33a1.33,1.33,0,0,0-.15-.32.38.38,0,0,0,0,.41c0,.06.08.15.06.18-.15.23,0,.38.15.55l-.16.1s-.06-.09-.08-.14a1.33,1.33,0,0,0-.1-.28c-.09-.17-.2-.16-.3,0l-.1.15c-.09-.29-.17-.53-.25-.77a1,1,0,0,0-.15-.23c-.37.21-.08.57-.22.84l-.09-.06c-.14-.15-.25-.14-.3.06s-.24.14-.31.26a.54.54,0,0,1-.12-.09s0-.08,0-.11-.13-.15-.19-.14-.12.1-.19.18c-.22-.08-.34,0-.39.32a.21.21,0,0,1-.2-.22.39.39,0,0,0-.12-.24c-.09-.08-.2,0-.21.1A.39.39,0,0,0,8.47,4a.64.64,0,0,1,.11.2l-.08,0c-.08-.12-.16-.24-.25-.35a.27.27,0,0,0-.08-.1c-.12-.08-.27-.12-.14-.31a.24.24,0,0,0-.1-.1.2.2,0,0,0-.17,0s0,.1,0,.15,0,.05.06.07.17.24.1.45c-.06-.07-.13-.12-.15-.18-.12-.32-.2-.34-.43-.13l-.09.06A3.45,3.45,0,0,0,7,3.46a.67.67,0,0,0-.21-.09.44.44,0,0,0-.07.19c0,.14,0,.25-.2.15a.21.21,0,0,0-.13,0,.15.15,0,0,1-.27,0A1.57,1.57,0,0,1,6,3.29a4.64,4.64,0,0,1-.11-.65c0-.15-.1-.31,0-.46a.09.09,0,0,0,0-.1,1.14,1.14,0,0,0-.32-.22c-.06,0-.16.08-.23.14a.16.16,0,0,0,0,.12,1.18,1.18,0,0,0,.27,0s0-.07,0-.1l.07.05c0,.06,0,.15-.08.19-.23.18-.12.42-.11.64s0,.35,0,.52,0,.09-.05.13l-.34-.45c-.15.11-.24.2-.12.37a.91.91,0,0,1,.11.41S5.05,3.85,5,3.8s0-.11-.09-.15c-.22-.23-.22-.23-.35.05,0,0-.05.08-.08.08a.13.13,0,0,1-.1-.06s0-.1,0-.15a1.21,1.21,0,0,0-.09-.2.38.38,0,0,0-.17.08c0,.07-.08.17,0,.23s.14.17,0,.27-.21,0-.3-.1l.21-.1a.91.91,0,0,0-.16-.11l0,0a.92.92,0,0,0-.09-.23s-.13,0-.2,0,0,.25,0,.41-.09,0-.15-.09a1.09,1.09,0,0,1-.21-.48A.26.26,0,0,0,3,3.15a.4.4,0,0,0-.12.22.79.79,0,0,0,.1.28l-.05,0-.12-.11c-.07-.05-.13-.13-.2-.13s-.13.11-.12.22a.57.57,0,0,1,0,.22c-.2-.23-.56-.32-.52-.73,0-.11-.08-.22-.14-.35-.11.1-.2.13-.14.32s.19.25.3.36c-.21.11-.28.08-.35-.1A2.13,2.13,0,0,0,1.4,3c0-.05-.18,0-.28,0l0,.21.07.18-.45-.2-.06.09c-.09,0-.25-.12-.25-.16,0-.26-.15-.42-.23-.62s0-.21.05-.3l.26-.43a.11.11,0,0,0,0-.08.22.22,0,0,0-.14,0A.56.56,0,0,0,0,2.23Zm46.91,10.6a1.18,1.18,0,0,1,.27,0s0,.11.09.22a1.22,1.22,0,0,1-.34-.11S46.92,12.88,46.92,12.83ZM47.25,15s.11-.06.16-.09l0,.05c0,.08-.07.16-.11.23h0C47.27,15.17,47.23,15.1,47.25,15ZM16.89,19.38l-.4-.49A.46.46,0,0,1,16.89,19.38Zm.83.67v.09l-.23,0s0-.07,0-.1Zm2.73-.31-.16.14-.14-.13a.65.65,0,0,1,.17-.08S20.41,19.71,20.45,19.74Zm.9-.32c-.26.24-.33.23-.42,0Zm1.12.07-.13.1-.17,0s0-.06,0-.06a.45.45,0,0,1,.14-.1.9.9,0,0,1,.16,0Zm1.19-2.43,0,.07-.19-.07L23.22,17C23.43,16.83,23.53,17,23.66,17.06Zm.4,0c-.13.17-.24.33-.37.48s-.19.16-.33-.06c.27,0,.31,0,.4-.32S23.92,17,24.06,17.07Zm1,1.88-.25.06a.29.29,0,0,1,0-.09l.26-.05S25.09,18.93,25.09,19Zm.82-1.17s0,0,0,.07c-.23.07-.31,0-.35-.16Zm.17-1.5-.2.09-.05-.08.19-.12Zm-8.65-.23a.14.14,0,0,1,0,.06c-.28.1-.55,0-.57-.27Zm0-.37a.33.33,0,0,1-.38-.25Zm.62.18s0,.05,0,.07S18.05,16,18,16a.59.59,0,0,1-.23,0c-.09-.05-.17-.13-.27-.2.06,0,.1,0,.13,0A2.8,2.8,0,0,1,18.07,15.86Zm.54,0a.14.14,0,0,1-.15,0L18,15.54a.82.82,0,0,1,.61.22A.15.15,0,0,1,18.61,15.89Zm.59-.13L19,15.55l0-.05a1.29,1.29,0,0,1,.21.06S19.2,15.65,19.2,15.76ZM16,11.93a2,2,0,0,1-.25.14s-.07,0-.13-.08l.33-.1Zm4.93-1.34c-.24,0-.31,0-.33-.21ZM15.67,7.11c.09.1.16.22.25.34-.14,0-.41-.18-.41-.31s0-.07,0-.07S15.65,7.08,15.67,7.11ZM16.05,7c-.11.16-.18.16-.3,0Zm8-6.38-.14.5c0,.06-.06.11-.08.17a.86.86,0,0,0-.11.24c0,.13-.08.14-.21.1.05-.06.09-.09.1-.13.05-.22.09-.45.12-.68A.23.23,0,0,1,24.08.59ZM24.7.48a1.17,1.17,0,0,1-.06.2c0,.09-.09.17-.14.26s-.16.46-.38.6l-.07,0,.19-.29s.05-.05.05-.07c.05-.18.08-.36.13-.53a.26.26,0,0,1,.11-.17S24.64.47,24.7.48Zm.55.15C25.18.75,25.1.86,25,1L25,1c0-.16-.08-.34.1-.46s.11,0,.17,0S25.27.59,25.25.63Zm.54-.1-.23.34-.08,0a.77.77,0,0,1,0-.27.55.55,0,0,1,.23-.11Zm.45.11c0,.18-.22.16-.25.3l-.06,0,.24-.3A.18.18,0,0,1,26.24.64Zm.65-.05c-.21.32-.23.33-.38.22C26.72.53,26.72.53,26.89.59ZM31.42,2c-.11,0-.33.16-.29-.18Zm.75.75c-.06.22-.19.19-.37.12C31.92,2.76,32,2.68,32.17,2.76Zm.77.33,0,0-.29-.2.07-.08Zm1.13.05-.19.14-.13-.11c.06,0,.11-.11.17-.13S34,3.11,34.07,3.14Zm1.26,1.25c-.14.07-.35,0-.49-.27Zm4.34,1.3c.16.21.3.43.45.65l.3.38a.28.28,0,0,0,.11,0l.27.06a.11.11,0,0,1,0,0,.19.19,0,0,1-.08,0,.7.7,0,0,1-.14,0l0,.18.06.13-.06,0a2.86,2.86,0,0,1-.35-.43,4.33,4.33,0,0,0-.64-.94,1.71,1.71,0,0,1-.11-.14l0,0S39.65,5.66,39.67,5.69Zm.2.91c.06.11.1.2.15.28l-.05,0C39.79,6.75,39.79,6.75,39.87,6.6Zm.33,3.45a1.14,1.14,0,0,1,.17-.15c.08-.05.15-.07.18,0s.07.26.1.39a.76.76,0,0,1,0,.19c-.21-.19-.32-.08-.43.07a2.41,2.41,0,0,1-.21.24c-.17.19-.34.39-.52.57s-.24.13-.3.23a1.72,1.72,0,0,1-.47.5c-.16.1-.22.11-.32-.06l.17-.11a1.29,1.29,0,0,0,.58-.48,1.28,1.28,0,0,1,.1-.17c.14-.13.28-.24.42-.36s.21-.23.13-.4C39.92,10.37,40.37,10.44,40.2,10.05ZM38.61,12.7l-.16,0h-.11a.21.21,0,0,1,.15,0,1.63,1.63,0,0,0,.45-.09,3.51,3.51,0,0,0,.34-.33,1.12,1.12,0,0,1,.24-.13l0,.06c-.21.18-.41.38-.63.56s-.46.32-.66.51a2.62,2.62,0,0,1-.69.49,7,7,0,0,0-.71.39l0-.06,1-.68.69-.5S38.58,12.75,38.61,12.7ZM38,12.62c0,.26-.2.14-.32.16.12-.12.24-.25.38-.37s.13,0,.19-.05l0,.07C38.18,12.5,38,12.55,38,12.62Zm-.77.47A1.68,1.68,0,0,1,37.5,13c-.16.26-.46.27-.58.53-.29,0-.54.3-.86.34,0,0,0,0,0-.06l.16-.09-.12-.14h.22a1,1,0,0,0,.3-.05C36.82,13.39,37,13.23,37.23,13.09Zm-.57-.21,0-.07.27-.13C36.88,12.88,36.8,12.94,36.66,12.88Zm-.73,1.83s.08,0,.14.08a1.7,1.7,0,0,0-.31.18l-1.19.92c-.3.24-.62.45-.94.67a5,5,0,0,1-.54.35,9.1,9.1,0,0,0-1.38.73l-.05,0-.45.12-.37.13-.59.19a3,3,0,0,0-.42.16.39.39,0,0,1-.39,0,1.28,1.28,0,0,1,.25-.15c.26-.13.59-.09.82-.3,0,0,0,0,.07,0l.54-.25.22-.09a1.29,1.29,0,0,0,.21-.06c.4-.2.81-.38,1.2-.6a5.58,5.58,0,0,0,.64-.44l.17-.11c.23-.15.48-.3.71-.46s.24-.22.36-.32.5-.36.73-.56A.9.9,0,0,1,35.93,14.71Zm-.64-1c.12,0,.2-.2.36-.1C35.53,13.66,35.45,13.82,35.29,13.71Zm-2.58,4.41h.44a.46.46,0,0,0,.39-.22.38.38,0,0,1,.16-.11,4.6,4.6,0,0,0,.55-.25c.31-.22.6-.46.89-.69L36.4,15.8c.14-.12.27-.24.42-.35s.35-.25.53-.37a2.29,2.29,0,0,1,.27-.14l.89-.5a.43.43,0,0,0,0,.07L38,15l-.47.38-.37.34A21,21,0,0,0,35.5,17l-.12.09-1.13.7-.12.05c-.13.06-.27.11-.4.18-.34.17-.6.5-1,.49a.42.42,0,0,0-.16,0l-.84.37c-.05,0-.12,0-.19,0s.06-.1.33-.22l.66-.29c.08,0,.17,0,.22-.1S32.72,18.21,32.71,18.12Zm1.57,1s0-.09,0-.1.33-.22.5-.33a2.82,2.82,0,0,1,.38-.21c.21-.11.44-.2.64-.33.36-.23.69-.52,1.06-.73a4.73,4.73,0,0,0,.66-.44,13.62,13.62,0,0,0,1.31-1.1c.33-.35.69-.69,1-1,.09-.09.27-.13.3-.24s.22-.14.38-.1a1,1,0,0,1-.2.24c-.11.1-.27.15-.34.26a1.72,1.72,0,0,1-.48.49A5.79,5.79,0,0,0,39,16c-.28.26-.57.52-.87.77a3.13,3.13,0,0,1-.92.69c-.05,0-.08.08-.12.11a1.43,1.43,0,0,1-.24.19c-.08.05-.18.07-.26.12l-.55.32c0,.12-.12.17-.22.22s-.5.26-.76.38l-.68.29A.17.17,0,0,1,34.28,19.09Zm.14.53c.18-.08.38-.13.56-.23s.54-.31.81-.46c.11-.06.23-.1.33-.16l.49-.33.62-.39,1-.7.15-.11a7.59,7.59,0,0,0,.65-.46,6.29,6.29,0,0,0,.51-.52l.06,0c0,.05,0,.12,0,.15-.21.2-.43.39-.65.58s-.24.08-.26.16c-.07.24-.34.26-.47.43a.43.43,0,0,1-.2.15,3.48,3.48,0,0,0-.85.56c-.08.06-.13.15-.2.2-.36.19-.72.37-1.07.57a4,4,0,0,0-.4.28l-.38.19c-.19.09-.39.18-.6.26,0,0-.13,0-.19,0S34.36,19.65,34.42,19.62Zm6.51-6.55c0-.05,0-.11.08-.13a.13.13,0,0,1,.12,0,2.16,2.16,0,0,1,.1.25l-.18.06Zm.14.69v.33C40.92,13.87,40.92,13.84,41.07,13.76Zm-.23-2.54c.12,0,.12,0,.23-.27,0,.2.06.4.08.6,0,0-.07,0-.09.06Zm.14-.76h-.07c0-.37,0-.74,0-1.17A2,2,0,0,1,41,10.46Zm-.15-1.27c0-.21-.25-.34-.12-.55a1.28,1.28,0,0,0,.17.22.18.18,0,0,0,.17.05s0-.1.05-.16a.9.9,0,0,0,0-.23.9.9,0,0,1,.17.39c.05.27.09.55.13.82a.06.06,0,0,0,0,0c.14.16.09.35.1.54v.45c0,.06,0,.14.06.16s.11,0,.16,0l.2-.07c0,.07,0,.1-.05.11a.67.67,0,0,0-.26.65.48.48,0,0,0,0,.12s0,.08,0,.12a.86.86,0,0,1,0,.23,1.22,1.22,0,0,1-.06.26c0,.08,0,.16,0,.23h-.06a1,1,0,0,1,0-.17c0-.2,0-.4,0-.6,0-.41-.06-.83-.1-1.23,0-.22-.1-.44-.14-.62s0-.25,0-.35a1.55,1.55,0,0,1,0-.21c0-.21,0-.34-.29-.31A1.47,1.47,0,0,0,40.83,9.19Zm.84,6.46c-.11,0-.24.2-.35,0s0,0,0-.08Zm-.18-.42h0v-.39h.08C41.52,15,41.51,15.1,41.49,15.23Zm.62-2.75s0,.06,0,.06l-.32.16s0,0,0-.06l.19-.16A.17.17,0,0,1,42.11,12.48Zm0-3.42-.32-.24c.15,0,.25-.07.32.06S42.09,9,42.09,9.06Zm-1-.91-.07,0c-.05,0-.12-.08-.13-.13s-.1-.16-.21-.19-.09-.06-.14-.09l0,0,.16.11c0-.1,0-.18,0-.26h.07C40.93,7.76,41,8,41.1,8.15ZM40.53,5.7l0,0c.22.11.51.5.48.7Zm-.86,7.87a1.15,1.15,0,0,1-.46.3l0,0c.12-.12.25-.24.37-.37l.7-.78a.43.43,0,0,1,.4-.21v.48a1.11,1.11,0,0,0-.31.05A7.32,7.32,0,0,0,39.67,13.57Zm.91-.34.06,0c0,.19-.07.37-.09.5L40,14Zm-1.78.35-.2.13c0-.09,0-.12,0-.14a5.31,5.31,0,0,0,.69-.65c.13-.21.38-.3.52-.53a4.5,4.5,0,0,1,.76-.75c.17.19.06.43-.21.5a.33.33,0,0,0-.21.11c-.2.26-.46.46-.66.72A3.94,3.94,0,0,1,38.8,13.58ZM39.62,12c.32-.42.64-.85,1-1.27a.1.1,0,0,0,0,0,.46.46,0,0,1-.17.52,1.36,1.36,0,0,0-.4.35C40,11.83,39.73,11.83,39.62,12Zm1-3.74c-.07-.08-.19-.15-.12-.3h.05c0,.1.09.19.13.29Zm.48-1.82.09,0c0,.1.11.19.16.28l-.08,0Zm-.35,11a2.35,2.35,0,0,1-.11.35h-.06c0-.16,0-.33,0-.49h.05C40.67,17.29,40.74,17.35,40.73,17.39Zm-1-1.17,0,0a.78.78,0,0,1,.09-.21c.21-.24.44-.47.67-.72l.19.07Zm-5.46,2.3-.54.29-.1,0-.28.08-.23,0,.31-.26a.2.2,0,0,1,.08,0c.25-.12.51-.22.75-.36s.6-.4.89-.6.74-.47,1.08-.74L37.43,16c.33-.25.65-.52,1-.79a4.25,4.25,0,0,1,1.49-1,.8.8,0,0,1-.13.13A3.83,3.83,0,0,0,39,15a3.34,3.34,0,0,1-.4.35A6.35,6.35,0,0,0,38,16c-.22.27-.64.33-.76.71l-.07,0a.84.84,0,0,0-.21.11c-.18.14-.33.3-.52.42s-.55.29-.83.44l-.12.08c-.19.12-.39.23-.57.36l-.53.36Zm6.14-13L40,5.17l0,0c.1.14.34.15.37.35Zm1.66-3,0,.07-.28-.16C41.92,2.36,42,2.42,42.06,2.55Zm1.09,1-.29.13a.59.59,0,0,0,0-.08l.29-.13Zm.53.74A.57.57,0,0,1,43.14,4,.44.44,0,0,1,43.68,4.3Zm.81-1c-.27.09-.45,0-.43-.23Zm1-.1,0,0L45,3V2.93a.61.61,0,0,1,.25-.08C45.49,2.88,45.4,3.09,45.47,3.21Zm1.14,0s-.09,0-.13,0-.13-.09-.2-.11S46,3.06,45.8,3c0,0,0,0,0-.08s.18-.11.24-.09a3.88,3.88,0,0,1,.52.3S46.59,3.21,46.61,3.25Zm.13.84a.09.09,0,0,1-.07,0l-.4-.25a.48.48,0,0,1,.48.17S46.75,4.08,46.74,4.09Zm.58-.94L47,3.27s0,0,0-.06C47.12,3,47.18,3,47.32,3.15Zm.06,1.42-.19-.14-.34-.24,0-.07.34.16.36.23C47.52,4.58,47.48,4.66,47.38,4.57Zm-.25,1.81,0-.06.24.08a.42.42,0,0,0,0,.1Zm-.08-1.12-.22,0L46.74,5a.37.37,0,0,1,.52.3A1.28,1.28,0,0,0,47.05,5.26Zm-1.21-.39,1,.61A1.48,1.48,0,0,1,45.84,4.87ZM44.9,3.7a1,1,0,0,1,.34.06c.27.15.53.32.79.49,0,0,0,.11,0,.17s-.12,0-.16,0Zm.5.9.2-.13,0,0,0,.19Zm-.11-.12A1.08,1.08,0,0,1,45,4.41c-.26-.16-.51-.33-.76-.5s-.2-.11-.33-.2h.64c0,.11,0,.23,0,.26a2.56,2.56,0,0,0,.45.27l.34.17Zm-1,.46c.14-.18.2-.18.34-.05a1.59,1.59,0,0,0,.24.2l.39.25-.06.09ZM44,5.41l-.24-.09,0,.21c-.24-.15-.32-.31-.23-.51a.78.78,0,0,0,.24.09c.3,0,.39.25.56.41h0l.66.16v0a1.46,1.46,0,0,1-.42,0c-.09,0-.16-.11-.24-.18h0Zm2.54,4.83,0,0,.39.32A.38.38,0,0,1,46.52,10.24Zm-.71-.48a.67.67,0,0,1,.64.41C46.24,10.18,45.8,9.89,45.81,9.76Zm-.41.76,0,0c0-.11-.09-.23-.12-.34a.14.14,0,0,1,0-.11s.08,0,.1,0a1,1,0,0,1,.29.23.32.32,0,0,0,.49.15l0,0-.17.16.13.18a.59.59,0,0,1,0,.14s-.1,0-.13,0-.28-.24-.43-.36A1.11,1.11,0,0,0,45.4,10.52Zm.3,2c-.18-.17-.33-.37-.5-.56l0,0,.35,0c.12.17.24.35.4.56C45.87,12.57,45.75,12.6,45.7,12.55Zm-.28,7.32c0,.06.07.12.06.18s-.06.08-.13.15v-.31Zm.36.67s-.09,0-.09,0l-.16-.35C45.71,20.27,45.83,20.44,45.78,20.54Zm.07-3.88.11.14-.15.09,0-.2Zm1,1.81s0,0,0,.06-.2-.07-.28-.15l0-.06Zm-.21-1.63.32.23A.24.24,0,0,1,46.66,16.84ZM46.59,19l-.4-.3C46.44,18.65,46.64,18.81,46.59,19ZM46,16.26l0,0,.48.56C46.35,16.85,46,16.55,46,16.26Zm-.06,1.42c.14.21.42.24.49.53C46,18.11,45.9,18,45.94,17.68Zm.18,1c-.06.09-.09.16-.13.17s-.16,0-.17-.15ZM47,16l0,0L46.82,16a5,5,0,0,1-.58-.41c-.17-.16-.46-.27-.36-.63Zm.13,1.56c-.2.2-.25.18-.34-.14Zm.25,1.66s-.08.14-.14.16-.11-.06-.16-.09l.22-.15ZM46.85,22c.22-.16.38-.13.51.12Zm-.2,1.75.06-.1.19.11,0,.09Zm-.12-1,.08-.09.11.16-.09.06A.64.64,0,0,1,46.53,22.74Zm-.67-3.49,0-.07.19.11c.17.13.31.33.57.23,0,0,.06,0,.09,0l0,.05-.24.12Zm-.17,1.51c.15.08.27.16.4.24C45.81,21,45.7,21,45.69,20.76Zm-.19,1.67s0-.05,0-.07,0,0,.06-.06a1.72,1.72,0,0,1,.36.09s0,.12.07.19a.38.38,0,0,1-.15,0ZM45.31,24l0-.09.21.08,0,.1A1.21,1.21,0,0,1,45.31,24Zm-.26-2.1c0-.19.07-.41.11-.64,0,.32.3.43.51.64Zm.1-7.6V14h.05v.31Zm-.1-4.76c0-.23-.09-.43-.14-.65l.85.73,0,.06-.55-.31A1.36,1.36,0,0,1,45.05,9.53ZM43.86,23l0,0c.12-.26.23-.53.35-.8l.07,0c-.08.25-.15.49-.24.74C44,23,43.91,23,43.86,23Zm-.44.44a2.07,2.07,0,0,1,.19-.29.47.47,0,0,1,.2-.1s.09.05.09.07,0,.13-.08.15A2.53,2.53,0,0,1,43.42,23.45ZM43,24h.42c-.14.16-.28.06-.42.05Zm-.28-.72a1,1,0,0,1-.45.1,2.15,2.15,0,0,1-.5-.07.05.05,0,0,1,0,0c-.23-.31-.47-.61-.68-.93s-.28-.37-.1-.62a.65.65,0,0,0,.09-.3c0-.07,0-.16,0-.19s-.07-.24,0-.36.06-.08.06-.11c0-.3,0-.59,0-.9h.16l-.1.17c.13.06.2.08.27-.07.14-.31.1-.67.31-1,.11-.14.08-.38.11-.58s.09-.57.14-.85l.18-.83c0-.14,0-.27,0-.4s.05-.22.07-.33-.15-.39.1-.53c0,0,0,0,0-.07l.06-.29c0-.06,0-.12,0-.19a3.51,3.51,0,0,0,0-.86,4.68,4.68,0,0,1,.05-.74,3.12,3.12,0,0,1,0-.62,2.38,2.38,0,0,0,0-.84.58.58,0,0,1,0-.14c0-.43,0-.85,0-1.28a1.4,1.4,0,0,0,0-.29c0-.31-.07-.61-.1-.91a.76.76,0,0,0,0-.15c-.1-.3-.2-.59-.31-.89A.39.39,0,0,0,42,8c-.06,0-.17,0-.32,0l.35-.24s0,0,0,0-.13-.33-.21-.49a3.67,3.67,0,0,0-.26-.48c-.18-.29-.38-.57-.57-.86s-.38-.55-.59-.8A2.8,2.8,0,0,0,40,4.72a.59.59,0,0,1,.78-.08,1.33,1.33,0,0,0,.69.26s.08,0,.12,0l.78.52a1.37,1.37,0,0,1,.26.28c.12.18.22.37.33.56s.19.34.28.51a1.55,1.55,0,0,0,.24.44.61.61,0,0,1,.2.52.16.16,0,0,0,0,.09,2.77,2.77,0,0,1,.38,1.37c0,.12,0,.19.16.22a.39.39,0,0,1,.16.1l0,0h-.16c0,.15,0,.28.07.41a2.4,2.4,0,0,1,.12.44,2.9,2.9,0,0,1,0,.51c0,.35,0,.4.32.48-.25.42-.24.64,0,.76a.57.57,0,0,0,0,.18c0,.05,0,.09,0,.14s0,.35,0,.53c0,.42.1.84.06,1.26v0c0,.25,0,.49,0,.74s-.14.28.07.38c0,0,0,0,0,.07a1.2,1.2,0,0,1-.1.37.24.24,0,0,0,0,.28.52.52,0,0,1,0,.25c0,.15,0,.3-.07.45a3.38,3.38,0,0,0-.09.41,1.53,1.53,0,0,0,0,.3,1.06,1.06,0,0,1,0,.25c0,.08-.06.17-.07.26s0,.32,0,.49a6.12,6.12,0,0,0-.11,1.14s0,.07,0,.11l-.09.38c0,.06,0,.14,0,.18-.19.23-.08.46,0,.7-.17,0-.16.12-.19.24A4.54,4.54,0,0,1,44,22c0,.13-.16.24-.17.37a.61.61,0,0,1-.28.46A7.71,7.71,0,0,1,42.76,23.27Zm-3.71-2a.34.34,0,0,1,.19-.24c.24-.11.49-.2.74-.29a1.16,1.16,0,0,1,.61,0c0,.32-.05.63-.07.92l-.17,0a1.6,1.6,0,0,0,0,.21s0,.06,0,.1a1.69,1.69,0,0,0,.38.74,1.51,1.51,0,0,0,.62.46,1.93,1.93,0,0,0,1,.32l.11,0a1,1,0,0,1-.38.16c-.11,0-.24.09-.3-.09h-.14a.67.67,0,0,1-.2,0c-.24-.08-.44-.28-.73-.22l0,0a3,3,0,0,1-.79-1.06,2.12,2.12,0,0,0-.66-1c0,.12,0,.22,0,.3a7.58,7.58,0,0,0,.4.74c.13.19.29.37.43.55a.39.39,0,0,1,.05.14l0,0a.79.79,0,0,1-.17-.14l-.53-.72-.24-.3a.1.1,0,0,0,0-.07C39,21.67,39.06,21.47,39.05,21.29Zm.17-2.77.1,0c-.12.07-.26.14-.39.23l-.25.19c-.25.17-.5.34-.76.5,0,0-.13,0-.15,0a.2.2,0,0,1,0-.15,1.08,1.08,0,0,1,.18-.11,4.78,4.78,0,0,0,.42-.26c.2-.13.38-.28.58-.41a2.53,2.53,0,0,1,.36-.2h0a2.26,2.26,0,0,1,.4-.51.73.73,0,0,0,.3-.44l.21.11a.9.9,0,0,0-.14.19.66.66,0,0,1-.36.39,2.19,2.19,0,0,0-.41.26h0Zm-1.6,1.8c.05,0,.1,0,.14-.07.33-.28.66-.57,1-.83a3,3,0,0,0,.68-.66.42.42,0,0,1,.44-.19.42.42,0,0,1-.14.4.31.31,0,0,0-.08.15,1.79,1.79,0,0,1-.29,1c-.08.09-.14.14-.25.12a.22.22,0,0,0-.18,0l-.48.4a.54.54,0,0,1-.17.08v-.06c.16-.19.26-.44.52-.55a1.35,1.35,0,0,0,.76-.81.76.76,0,0,0,0-.21.91.91,0,0,0-.17.09,2.41,2.41,0,0,1-.74.6,5,5,0,0,0-.64.42,2.43,2.43,0,0,1-.37.16S37.63,20.33,37.62,20.32Zm-2.18.3L36,20.5h0a.31.31,0,0,1,.07-.09c.36-.24.73-.48,1.11-.71a.7.7,0,0,1,.16,0,.6.6,0,0,1,0,.16.45.45,0,0,1-.13.1c-.3.17-.61.34-.92.49a1,1,0,0,1-.24.07h0a2.9,2.9,0,0,1-.33.2.54.54,0,0,1-.25,0Zm-.89-.14a.09.09,0,0,1,0,0s0,0,0,0l1.37-.67A7,7,0,0,0,37,19a8.18,8.18,0,0,1,.79-.51c.24-.14.45-.41.4-.62.17.17.29.05.42-.05l.15-.1c.31-.27.63-.52.92-.8a5.55,5.55,0,0,0,.49-.58l.13-.11.06,0c0,.07,0,.17-.06.22a4.21,4.21,0,0,1-.37.36c-.2.19-.33.43-.54.62a6.71,6.71,0,0,1-1.07.84c-.32.18-.59.44-.92.61s-.48.34-.72.5c-.07.05-.17.06-.25.11l-.86.56a.32.32,0,0,1-.09,0l-.47.19Zm-.32.22a1.34,1.34,0,0,1,.27-.07s.06,0,.07.07,0,.07,0,.07l-.29,0ZM33.82,20l.31-.15C34,20.07,34,20.08,33.82,20Zm-.53-.4c.35-.28.53-.34.71-.23C33.78,19.46,33.61,19.71,33.29,19.59Zm-.26.47.3-.1,0,.07-.3.11Zm-.56-.17.55-.17s0,0,0,.06A.44.44,0,0,1,32.47,19.89Zm-.28.86c.09.25-.25.13-.25.3C31.83,20.87,31.83,20.87,32.19,20.75Zm-.34-.7.55-.12s0,0,0,.05,0,.06-.05.07l-.35.11S31.93,20.11,31.85,20.05Zm-1.55-.26.63-.15.33-.1a5.38,5.38,0,0,0,.69-.18c.25-.09.47-.25.71-.35a1.67,1.67,0,0,1,.39-.05V19a1,1,0,0,0-.2.11.9.9,0,0,1-.65.25c-.07,0-.16.05-.24.08a2,2,0,0,1-.34.13c-.16,0-.35-.08-.47.12,0,0-.08,0-.11,0a.25.25,0,0,0-.15,0C30.71,19.9,30.51,19.82,30.3,19.79Zm.09-.55a2.51,2.51,0,0,1,1-.23A1.16,1.16,0,0,1,30.39,19.24Zm-1-.36.93-.28a.94.94,0,0,1-.14-.13.83.83,0,0,0,.56,0,6.3,6.3,0,0,1,1-.38,2.21,2.21,0,0,0,.6-.29l.37-.19.24-.14.64-.36s0-.05.07-.06a2,2,0,0,0,.88-.58c.15-.12.38-.19.42-.43,0,0,.07-.05.11-.05.2,0,.33-.08.28-.28a5.63,5.63,0,0,0,.6-.38c.18-.12.34-.28.51-.41a.19.19,0,0,1,.13,0l.38,0a.39.39,0,0,1-.08.14,5.29,5.29,0,0,0-.5.32c-.35.28-.67.6-1,.89-.18.14-.38.25-.57.37s-.38.26-.58.38l-.57.34a4.45,4.45,0,0,1-1,.52l-.23.1-.74.29-.69.26a5.52,5.52,0,0,1-.53.18,2.89,2.89,0,0,1-.58.14c-.11,0-.23,0-.33.09s-.08,0-.12,0A.64.64,0,0,0,29.43,18.88Zm-.3-.24c.17-.21.22-.21.32-.06Zm-.89-.1a.67.67,0,0,1,.21-.1c.16,0,.32-.07.48-.12a1.09,1.09,0,0,0,.25-.1l0,.08C29,18.59,28.6,18.55,28.24,18.54ZM28,18s0-.08.06-.09l.44-.1a5.44,5.44,0,0,0,1-.22,4,4,0,0,1,.69-.22c.14-.05.3-.07.43-.13s.51-.29.77-.44l.22-.08a.36.36,0,0,0,.29-.4.76.76,0,0,0,.34,0,7.06,7.06,0,0,0,.69-.42,5.82,5.82,0,0,1,1-.69c.07,0,.1-.11.16-.17L33.87,15s0,0,0,0a.33.33,0,0,1,.19,0l.24,0a2.23,2.23,0,0,0,.4-.16c.13-.06.17,0,.21.08a2.53,2.53,0,0,1-.31.28l-1,.71c-.33.22-.63.45-1,.66a13.08,13.08,0,0,0-1.28.7h0a3.28,3.28,0,0,0-.54.24.91.91,0,0,1-.61.19.57.57,0,0,0-.26,0c-.17,0-.33.13-.5.17a4.62,4.62,0,0,1-.63.11l-.08,0a5.07,5.07,0,0,1-.56.13S28,18,28,18Zm-.57,0h.42v.06l-.42,0Zm-.13-.54a.6.6,0,0,1,.15-.09l.88-.16.05,0c.17-.06.33-.15.5-.2a5.31,5.31,0,0,0,1-.31l.46-.21c.29-.12.6-.21.89-.35s.78-.44,1.15-.69.66-.51,1-.76c0,0,.14,0,.21,0s0,.15-.06.19-.42.35-.63.52a1.63,1.63,0,0,1-.29.23L31.9,16a2.62,2.62,0,0,1-.34.24,7.05,7.05,0,0,1-1.08.5c-.07,0-.14.08-.21.1L29,17.14c-.17,0-.33.07-.49.12s-.48.14-.72.19-.23,0-.33.09-.12,0-.19,0ZM27,17.31l.22-.07,0,.08-.23.1S27,17.31,27,17.31Zm-.44-.16s0-.1,0-.11.32-.09.48-.12l.74-.12h0l.54-.2.44-.13c.14-.06.28-.14.42-.19s.3-.07.43-.13c.5-.23,1-.47,1.49-.73s.71-.43,1.06-.63c.12-.06.22-.21.4-.1,0,0,0,.06-.07.07l-.52.32-.78.51a2,2,0,0,1-.36.23,7.64,7.64,0,0,0-.94.37,4.53,4.53,0,0,1-1.06.4l-.93.27c-.21.06-.41.12-.62.16Zm5.47-3.66c.09-.11.19-.2.34-.14l0,.07-.34.15Zm.28.65a.47.47,0,0,1-.44.15C32,14.09,32.14,14.07,32.34,14.14Zm-.68.44a2.2,2.2,0,0,1-.3.37,1.44,1.44,0,0,1-.31.13l-.94.42-.57.25-.63.27a3.72,3.72,0,0,1-.64.22,2.46,2.46,0,0,1-.47,0v-.07l.9-.26.29-.08.39-.11c.17,0,.25-.13.22-.29.52,0,1.4-.43,1.45-.64L31,14.6C31.23,14.73,31.42,14.41,31.66,14.58Zm-.81-1,0-.07c.06-.19.21-.13.39-.1Zm-.44.87.05.06c0,.11.07.24-.14.26s-.17.09-.26.13c-.29.14-.57.28-.87.39a9.37,9.37,0,0,1-.89.31,4.76,4.76,0,0,1-.52.1l0-.07a.82.82,0,0,1,.47-.19c.13,0,.29,0,.36-.17,0,0,.08,0,.12,0l.78-.23a1.4,1.4,0,0,0,.33-.15C30,14.71,30.21,14.57,30.41,14.43Zm-.43.1-.31,0v0H30Zm-.88-.08s.12,0,.18,0-.06.13-.1.15a5.7,5.7,0,0,1-.78.3,2.17,2.17,0,0,1-.51,0v-.07h.16a.38.38,0,0,0,.15,0Zm-1.22-.09c.22-.16.22-.16.36-.08l.25-.08A.42.42,0,0,1,27.88,14.36Zm1.05-.44.4-.15,0,.08C29.21,13.8,29.15,14.08,28.93,13.92Zm2.32.11.28-.25C31.49,14,31.43,14.09,31.25,14Zm.24-.87L31.7,13l.07,0c0,.06,0,.16-.05.17a.53.53,0,0,1-.22,0ZM27.14,16.4c-.22.19-.34.22-.5.12l.21-.21Zm-.35-5-.05-.09.2-.1s0,.07,0,.08Zm-.47-2.52v0h.34v0Zm-.06,10c.21,0,.3.06.25.28ZM24.91,12s.09,0,.13,0l-.5.71A1,1,0,0,1,24.91,12Zm-.56-5.69a.52.52,0,0,1,.21,0c.08,0,.19,0,.24,0a.6.6,0,0,1,.77,0C25.16,6.24,24.77,6.52,24.35,6.34Zm-.43,6.28s.12.06.14.1c.08.26.08.26.33.32,0,.09-.09.17-.16.3a5.5,5.5,0,0,1-.41-.47S23.89,12.71,23.92,12.62Zm-1.1-.6a1.34,1.34,0,0,1-.24-.12c-.13-.08-.28-.17-.22-.35a4,4,0,0,1,.25-.65c.08-.18.21-.35.28-.53.13-.36.29-.44.62-.26,0,0,.09.06.13.06.27,0,.27.23.32.42s.13.36.22.59c-.1.33-.11.82-.72.84-.11-.23.13-.34.21-.53-.28,0-.28.39-.58.33a4,4,0,0,0,.4-.5c.09-.17.26-.31.26-.52l-.07-.05-.73.71-.08-.05.62-1-.07-.06s-.09,0-.09.07-.14.2-.22.29a1.33,1.33,0,0,0-.14.19.9.9,0,0,1-.2.19c-.13.09-.27.32-.2.42L23,12A.43.43,0,0,1,22.82,12Zm.52-4.8c.21-.09.23-.08.37.24C23.5,7.48,23.48,7.25,23.34,7.22Zm.34,2,0,.07-.25.12C23.46,9.18,23.58,9.19,23.68,9.19Zm0-3,.43.12C23.93,6.45,23.8,6.39,23.67,6.21ZM22.77,10l.39-.37.05.06c-.1.15-.19.32-.38.37Zm.05.18-.34.31-.06-.08C22.58,10.32,22.53,10,22.82,10.13Zm-.2,2.38c-.1.19-.2.23-.28.12a2.33,2.33,0,0,1-.17-.26.76.76,0,0,1,0-.16c.09,0,.18.06.18.09C22.33,12.52,22.48,12.51,22.62,12.51Zm-.37,1.13-.13-.1L22,13.42l0-.05a.38.38,0,0,0,.46,0l-.19-.26h.42a1.93,1.93,0,0,1-.2.36,4.51,4.51,0,0,1-.37.39s-.09,0-.14,0l.1-.09Zm-.32-2.23a.31.31,0,0,1,.06-.56.49.49,0,0,1,.12.45.81.81,0,0,0,0,.22,1.85,1.85,0,0,1,0,.24.14.14,0,0,1-.09.09s-.09,0-.09-.07S21.93,11.55,21.93,11.41Zm-.39,2.73h.35c0,.23-.19.14-.27.23C21.59,14.28,21.56,14.21,21.54,14.14Zm0-1.19s.11,0,.13,0l.37.3c-.16,0-.26.08-.31-.09s-.08,0-.11-.07Zm-.23,1.72.05-.35s.11,0,.14,0,0,.12,0,.17A1.63,1.63,0,0,1,21.27,14.67Zm-.14-.78s0-.07,0-.11l.27.14C21.25,14,21.17,14,21.13,13.89Zm-1,.26.36.26a.86.86,0,0,0,.2.13l.45.1c-.1.21-.18.27-.34.14a2.39,2.39,0,0,0-.59-.36C20,14.36,20.07,14.31,20.12,14.15Zm.71-1.31c.09-.05.17-.07.2.06s.06.21.08.31C21,13.23,21,13.21,20.83,12.84Zm.22,1.43-.05.05c-.29,0-.33-.08-.21-.3Zm-.53-1.06-.43-.37c.12-.05.28-.11.3,0s.11.29.3.26c0,.27,0,.28-.2.31l-.11,0h0c0,.22-.15.41-.28.37.06-.1.11-.21.17-.32a.58.58,0,0,1,.11,0h0c0-.07.05-.15.08-.22ZM20,11.65c-.2.1-.25,0-.32-.1l0-.07Zm.17,1-.27.05c-.13-.42-.13-.42-.26-.5a1.26,1.26,0,0,0,0,.37,2.79,2.79,0,0,0,.15.3c.05.1.07.21.11.31-.16,0-.3-.14-.63-.79.1-.07.19-.18.3-.21a2.24,2.24,0,0,1,.52,0s0,0,0,.06S20.13,12.5,20.16,12.66Zm.66.06c-.14,0-.25,0-.3-.1a5.52,5.52,0,0,1-.33-.54l.28-.16Zm.32-.35s-.09,0-.11,0-.1-.08-.09-.11c0-.18,0-.32-.22-.36l0-.07.15-.09c.1-.07.16-.08.19.08s.08.28.11.43A.2.2,0,0,1,21.14,12.37Zm.1,1,.09,0c.05.1.23.15.06.33Zm.64-1c.05.13,0,.21-.09.22a2.54,2.54,0,0,1-.23-.22.25.25,0,0,1,0-.13c0-.12-.07-.24-.1-.36a2,2,0,0,1-.14-.38c-.05-.23.19-.13.31-.21,0,.1,0,.21,0,.31a1,1,0,0,0,.08.3C21.73,12.12,21.82,12.27,21.88,12.43Zm-.33-3.21A.2.2,0,0,1,21.38,9c0-.09,0-.18,0-.27a.61.61,0,0,1,0-.13.5.5,0,0,0,.13,0,.26.26,0,0,0,.17,0s0-.07.06-.11l.57-.69a.39.39,0,0,0,0-.16l-.05,0-.67.73-.07,0c.12-.24.35-.44.48-.74l-.46.13c.13-.21.15-.23.34-.19s.19,0,.25-.1.11-.18.17-.27l.06.07.12.1a1.29,1.29,0,0,1-.07.21h.06a.61.61,0,0,1,.16-.12.48.48,0,0,1,.65.33.86.86,0,0,0,.14.29.77.77,0,0,1,0,1,6.36,6.36,0,0,1-.57.46c-.05,0-.12,0-.18,0a.59.59,0,0,1,.07-.2l.57-.65s0-.09,0-.13-.09,0-.1,0c-.18.26-.53.35-.64.67s-.18.14-.32.08a.64.64,0,0,1,.14-.2,3.05,3.05,0,0,0,.8-.95s0-.08,0-.08a.12.12,0,0,0-.1,0,.9.9,0,0,0-.09.1,7.82,7.82,0,0,0-.63.66c-.15.19-.45.3-.38.62-.14,0-.25,0-.32-.1A.18.18,0,0,0,21.55,9.22Zm.84-2.59,0-.07c.09-.07.14-.23.34-.11ZM21.84,7c0-.27.08-.32.32-.24l0,.06Zm-1.2,1.17c.17-.1.34-.18.52-.27l.06.06c-.22.18-.19.42-.2.65a.28.28,0,0,1,0,.12c-.09.18-.07.23.07.29a1.32,1.32,0,0,0,.55.8c-.07,0-.15.06-.17,0a3.51,3.51,0,0,1-.37-.41,1.3,1.3,0,0,1-.35-.94s-.06-.1-.07-.15S20.61,8.2,20.64,8.18Zm0-.7.38.11C20.92,7.74,20.85,7.72,20.64,7.48ZM17,7.89l0,.05a.67.67,0,0,1-.14-.09c-.23-.2-.32-.53-.65-.63a.27.27,0,0,1,.43.13.78.78,0,0,0,.11.2Zm.12-.76a1.06,1.06,0,0,0,.41.56.26.26,0,0,1,0,.12l-.08.06-.62-.7A.58.58,0,0,1,17,7.06S17.11,7.1,17.12,7.13Zm.58-.26a1,1,0,0,0,.35.66,1.89,1.89,0,0,1,.25.31l-.06,0c-.44-.22-.63-.69-1-1,.07-.07.1-.12.15-.16A.18.18,0,0,1,17.7,6.87Zm.38-2.19c.41-.24.82-.46,1.22-.72s.81-.59,1.22-.87c.14-.1.31-.17.45-.27s.06-.11.09-.17l-.06,0-.16.07,0-.06.29-.18c.06.21.14.18.28.09a1.38,1.38,0,0,1,.51-.15c.28,0,.57,0,.85-.07s.46-.1.69-.14.16,0,.24,0a4.5,4.5,0,0,1,.49-.14c.4,0,.73-.37,1.16-.31,0,0,0,0,0,0,.25-.06.5-.14.74-.19a2.12,2.12,0,0,1,.71,0c.25,0,.5,0,.76,0l1.47.1a.49.49,0,0,1,.25.07A1.27,1.27,0,0,0,29.7,2a5.94,5.94,0,0,1,.57.27c.21.09.44.15.64.26.36.2.71.43,1.08.64s.62.33.94.49a2,2,0,0,0,.32.11c0-.08,0-.17.09-.19s.11,0,.17,0-.07.14-.12.25l1.26.66c.19-.16.27-.16.37,0l-.28,0v.06c.17.1.35.19.52.3s.45.33.68.48L37,6.06c.11.06.24.08.35.13l0-.06c0-.08,0-.19-.1-.23s-.39-.25-.57-.39a3.15,3.15,0,0,1-.37-.36l0,0,.29.17.71.53c.21.14.44.25.66.39s.41.28.62.4a.69.69,0,0,0,.29,0l0,0-.09-.09-.45-.34L38,5.8l-.35-.26-.91-.66-.4-.22A2.27,2.27,0,0,1,36,4.44s-.09-.1-.14-.14l.05,0,.41.28.1,0a3.56,3.56,0,0,1,.51.27c.24.18.47.38.7.57s.25.16.37.24a2.44,2.44,0,0,1,.43.28c.14.13.26.2.41.05l0,0a4.17,4.17,0,0,0,.36.47c.11.11.23.19.18.37a.12.12,0,0,0,0,.08c.17.06.18.2.18.34s0,.27-.06.4,0,.09,0,.1a.15.15,0,0,0,.11,0,.34.34,0,0,0,.15-.07c.13.13.32.23.22.44s-.09.39-.28.52a.23.23,0,0,0-.11.15,1.07,1.07,0,0,1-.33.66,5.07,5.07,0,0,0-.36.54c-.09.14-.21.26-.3.4s-.17.29-.1.54h0l.22-.09s0,0,0-.06l-.24,0c.08,0,.11-.06.14-.06a.43.43,0,0,0,.5-.22c.15-.21.37-.37.39-.66,0,0,.06-.07.1-.09s.32-.31.26-.42.09-.31.16-.44.17,0,.2.07a.47.47,0,0,1-.12.42.91.91,0,0,0-.09.17.94.94,0,0,1-.1.23,2.35,2.35,0,0,0-.26.29c-.09.15-.29.29-.14.46-.13.1-.26.17-.37.27s-.23.26-.34.38-.16.09-.18.15a.19.19,0,0,1-.2.14.17.17,0,0,0-.12,0l-.42.6a1.11,1.11,0,0,0-.65.35c-.08.07-.16.13-.27.07l.23-.25c.05-.05.12-.08.18-.13a3.37,3.37,0,0,0,.38-.28c.08-.08.11-.21.19-.28a3.14,3.14,0,0,1,.39-.24.31.31,0,0,0,.18-.37h0c-.17,0-.34-.11-.49.06s-.33.34-.51.51l.14.11-.1,0a.94.94,0,0,0-.71.41,1.17,1.17,0,0,1-.33.24c-.16.09-.33.16-.49.27s-.28.23-.43.35a.42.42,0,0,1-.12,0l-.42.14a.43.43,0,0,0,0,0l.19.09a7,7,0,0,1-2.83-.34l.85-.13v0l-.19.09a1,1,0,0,0,.88,0c.11-.06.22-.21.42-.12l-.14.14c-.12.12-.1.24.06.25a1.11,1.11,0,0,0,.51-.06,2.13,2.13,0,0,0,.46-.27l.73-.46a1.07,1.07,0,0,1,.27-.16.55.55,0,0,0,.4-.35c.24-.19.45-.34.64-.5,0,0,.06-.1.09-.15s.12-.28.18-.28c.21,0,.29-.16.4-.27a4.39,4.39,0,0,0,.41-.5c-.12,0-.2-.06-.25,0a1.61,1.61,0,0,0-.31.19c-.13.1-.25.22-.37.32s-.21.16-.07.33c-.14.06-.29.1-.42.17s-.13.13-.2.19l-.34.3a3.22,3.22,0,0,1-.28.24,2.91,2.91,0,0,0-.54.34.44.44,0,0,1-.41.21s-.05,0-.08.06-.27.22-.46.11l.06-.22c.29.08.68-.2.65-.43a1.42,1.42,0,0,0,.47-.2c.17-.13.39-.21.51-.41a.72.72,0,0,1,.18-.21l.66-.54a.18.18,0,0,0,0-.16.16.16,0,0,0-.13-.06.92.92,0,0,0-.42.15c-.2.19-.36.42-.55.63a.17.17,0,0,1-.11.08c-.2,0-.29.1-.4.23a2.88,2.88,0,0,1-.27.22l-.25.19L35,12c-.14.09-.34.14-.41.27a.3.3,0,0,1-.28.18l-.38.08a.13.13,0,0,0,0-.05c.21-.13.43-.23.63-.37s.49-.38.72-.58.15-.23.25-.25a1.13,1.13,0,0,0,.59-.41,3.26,3.26,0,0,1,.29-.36c.22-.2.45-.38.7-.58L37,9.83a1.38,1.38,0,0,0,.31-.2c.1-.12.11-.33.34-.32,0,0,.05-.05.08-.08L38,8.84l-.12-.14c.09,0,.17,0,.21,0a.6.6,0,0,0,.21-.21s0-.12-.06-.12-.2,0-.24.06-.21.35-.32.52c0,0,0,.05,0,.05-.22,0-.26.23-.36.37a.45.45,0,0,0-.49.39c0,.18-.11.22-.23.22a.26.26,0,0,0-.28.2s0,.07,0,.11h.12l.16,0a.14.14,0,0,1,0,.06l-.3.14a.66.66,0,0,1-.2,0c0,.06,0,.12,0,.2-.28,0-.45.17-.65.32s-.27.54-.65.45c0,0,0,0,0,0a10,10,0,0,1-.87.57c-.41.22-.84.39-1.26.6-.14.07-.41.07-.26.39l-.69-.12c.06-.1.08-.17-.06-.2a1.78,1.78,0,0,1-.38-.1.94.94,0,0,1-.21-.15.44.44,0,0,1,.49.07c.29.24.38.25.71.07a.57.57,0,0,1,.22-.07,1.26,1.26,0,0,0,.67-.23c.34-.21.68-.4,1-.62a1,1,0,0,0,.2-.21.73.73,0,0,0,.53-.27c.12-.15.22-.31.33-.46a.11.11,0,0,1,.08,0c.24.06.36-.1.5-.25s.23-.19.17-.39a.57.57,0,0,0,.55-.37c0-.05.08-.09.12-.14l.09-.22h-.26a.28.28,0,0,0-.09.07,1.37,1.37,0,0,0-.51.42c0,.05-.1.08-.1.13s0,.1.06.15a1.33,1.33,0,0,0-.85.54l.15.09s0,0,0,.06c-.51,0-.8.34-1.18.59l0,.13a1.84,1.84,0,0,0-.42.07c-.22.1-.44.24-.67.34s-.44.17-.66.25l0,0,.33-.2-.09-.14c.09,0,.15,0,.19,0a3.73,3.73,0,0,0,1-.45c.17-.1.22-.36.47-.36,0,0,.05-.06,0-.07a.14.14,0,0,0-.07-.08h-.12a.19.19,0,0,1,0-.07c.52.13.78-.22,1.14-.54-.25,0-.49-.07-.63,0s-.62.23-.77.56c0,0,0,0-.08,0l-.32.17c-.16.1-.31.21-.47.3q-.49.27-1,.51a.8.8,0,0,1-.31,0v-.06c.1-.05.21-.08.31-.14a5.48,5.48,0,0,0,.91-.52,1.82,1.82,0,0,1,.6-.35.87.87,0,0,0,.44-.51,1.62,1.62,0,0,0,.82-.5,1.85,1.85,0,0,1,.41-.38,4.51,4.51,0,0,0,.5-.41c-.32-.19-.51.07-.72.16a.27.27,0,0,0-.16.41l-.16,0c-.1,0-.22,0-.29.05-.24.16-.45.35-.67.53-.06.05-.1.14-.16.18a4.85,4.85,0,0,0-.49.29A2,2,0,0,1,32,11a.82.82,0,0,1-.22,0l0-.06a1.87,1.87,0,0,1,.37-.23.68.68,0,0,0,.45-.41,1.92,1.92,0,0,0,.93-.66l-.08-.11c.41-.08.71-.29.76-.57a.59.59,0,0,0-.51.08c-.27.2-.39.63-.83.6-.25.28-.67.35-.86.69,0,0-.06.08-.08.07a.72.72,0,0,0-.52.23l-.1,0a5.16,5.16,0,0,0-.78.28,1.36,1.36,0,0,1-.65.16l-.18,0c-.15.09-.14.2,0,.32a.44.44,0,0,0,.48.05,1.22,1.22,0,0,0,.17-.07l.71-.24.5-.2s.09,0,.14,0a.22.22,0,0,0,0,.08L30,11.78c.18,0,.26.24.44.13s.21-.16.24.07c0,0,.08.09.12.15l.12.19,0,0-.12,0a2.11,2.11,0,0,0-.38-.17,2.68,2.68,0,0,1-.94-.54,1.75,1.75,0,0,0-.24-.11l0,0,.08-.15c-.35-.31-.7-.61-1-.93-.12-.11-.2-.27-.32-.39A5.2,5.2,0,0,1,27,8.77c-.11-.21-.1-.46-.29-.63,0,0,0-.07,0-.11h0a3.73,3.73,0,0,1-.26-.3l-.28-.4a.23.23,0,0,0,.07-.07,1.21,1.21,0,0,1,.14.1s0,.08.07.11a.68.68,0,0,0,.81,0A5.1,5.1,0,0,1,27.92,7c.12,0,.24-.1.22-.27s0-.08.06-.08c.17,0,.26-.17.4-.22a.19.19,0,0,0,.15-.23c0-.14,0-.26.2-.23a.22.22,0,0,0,.14-.09c.07-.1.12-.21.18-.31-.29-.19-.69.09-.78.56a1.18,1.18,0,0,0-.63.51.73.73,0,0,1-.66.27c.29-.21.68-.28.7-.7.3-.08.4-.24.24-.42.17-.12.4-.18.45-.43,0,0,0-.1,0-.13a.11.11,0,0,0-.11,0,1.15,1.15,0,0,0-.27.21c-.1.12-.16.3-.28.37a1.41,1.41,0,0,0-.47.47c-.08.14-.18.12-.31.09L27.36,6a.05.05,0,0,1,.05,0c.2,0,.27-.19.37-.32s.09-.39.3-.49c0,0,0-.12,0-.18S28,5,28,5a4.11,4.11,0,0,0-.3.29c-.06.07-.08.18-.15.21A1.2,1.2,0,0,0,27,6c0,.07-.14.11-.22.15s-.07,0-.07-.06a1.76,1.76,0,0,1,.14-.23c.14-.17.38-.25.43-.5,0,0,0-.1,0-.15s-.14,0-.19,0a.6.6,0,0,0-.21.18,1.69,1.69,0,0,0-.17.29h-.06a1.69,1.69,0,0,1,.07-.38,3,3,0,0,1,.31-.42c-.15-.05-.27-.13-.37-.11s-.13.17-.11.3a.38.38,0,0,1,0,.1.66.66,0,0,0-.09.19c0,.11-.08.16-.18.13a1.19,1.19,0,0,0,0-.38c-.07-.15-.07-.23.11-.27s.05-.1.08-.15l-.12-.06a.24.24,0,0,0-.29.16c0,.06,0,.16.06.26-.21.07,0,.31-.14.46,0-.19-.14-.32-.39-.3a2.3,2.3,0,0,1,.16-.2s0,0,0-.06l-.38,0c.09.17.26.28.09.43l-.32,0c.14-.08.18-.14.1-.28s-.23-.06-.33,0,0,.15,0,.24a4.3,4.3,0,0,1,.24.48l-.05,0c-.13-.18-.34-.27-.38-.52a.24.24,0,0,0-.16-.13s-.12,0-.14.09,0,.12.05.18.11.1.11.14a.42.42,0,0,0,.16.32.45.45,0,0,1,.08.17l-.06,0A.88.88,0,0,1,24.62,6c-.21-.31-.43-.61-.62-.94C23.92,5,23.83,5,23.73,5a.18.18,0,0,0,0,.29c.13.19.24.39.36.59l0,0c-.05,0-.12-.07-.14-.12-.15-.26-.39-.44-.46-.76a1.59,1.59,0,0,0-.34-.5s-.1,0-.12,0-.08.1-.07.13a3.47,3.47,0,0,0,.17.45c.05.11.1.22.16.33l-.09.05-.64-1a1.2,1.2,0,0,0,0,.14.45.45,0,0,0,0,.11c-.21.06-.21,0-.38-.1a.7.7,0,0,0-.23-.06.66.66,0,0,0,0,.24A.64.64,0,0,0,22,5s.09.05.14.07l0-.16h.15a1.36,1.36,0,0,0-.15.33,1.51,1.51,0,0,0,.06.36h0c-.2-.17-.4-.34-.61-.5a.38.38,0,0,0-.16,0s0,.1,0,.12c.23.26.25.68.62.85a.18.18,0,0,1-.18,0c-.24-.18-.46-.38-.7-.56-.07,0-.22-.12-.27-.08s0,.15.08.22a0,0,0,0,1,0,0l.48.67.08.14c-.08,0-.12,0-.14-.06l-.55-.43c-.13-.09-.26-.19-.45,0l.83,1c-.07,0-.11,0-.13,0a2.11,2.11,0,0,0-.59-.48s0-.07-.07-.08a1.2,1.2,0,0,0-.34-.17c-.1,0-.14.05-.08.14s.18.21.26.32l.35.45-.05.06L20.29,7c-.16-.15-.3-.31-.47-.45a.27.27,0,0,0-.23,0s0,.14,0,.19.27.35.41.52l.13.17,0,.05a1.25,1.25,0,0,1-.22-.16c-.22-.19-.43-.38-.66-.56-.05,0-.15,0-.22,0s0,.16,0,.21c.15.21.32.41.48.62-.46-.24-.78-.68-1.25-.94,0,0,0,.07,0,.1l.21.41s.09.07.11.12a.74.74,0,0,0,.69.48s0,0,0,0-.09.09-.15.1a.27.27,0,0,1-.2,0c-.16-.14-.31-.3-.46-.44L18,7c-.05-.06-.13-.17-.11-.2a.61.61,0,0,1,.24-.3c.14,0,.29-.14.26-.28a2,2,0,0,0-.42-1A.39.39,0,0,1,18.08,4.68Zm8.85,2.46s0,.06,0,.09l-.31,0s0-.06,0-.08Zm5.07,5a.35.35,0,0,1-.43.2ZM17.79,4.18c.14-.07.21-.32.44-.2C18.09,4.08,18,4.3,17.79,4.18Zm-1.07.32c.19-.06.35-.11.56-.16A.4.4,0,0,1,16.72,4.5ZM10,4s0-.1,0-.13a.67.67,0,0,1,.19-.14V4Zm-1.09.11.37,0v.13L9,4.32C9,4.24,9,4.15,8.94,4.08Z"/><polygon class="cls-1" points="0.78 3.14 0.78 3.14 0.77 3.14 0.78 3.14"/><path class="cls-1" d="M19.24.34H16.41l-.16,0A.68.68,0,0,1,16,.44c-.17,0-.35-.08-.52-.09-.39,0-.77,0-1.15,0h-.74c-.16,0-.31.08-.47.09s-.44,0-.66,0-.55.05-.83.09l-.34.08h-.09a1.5,1.5,0,0,0-.29-.06c-.34,0-.68,0-1,0s-.62.06-.93.08c-.16,0-.38.07-.45,0S8.18.51,8,.45l0,0,.06.14A.57.57,0,0,1,7.37.44C7.69.4,8,.35,8.3.32a5.42,5.42,0,0,1,.57,0,1,1,0,0,1,.57.09s.15,0,.23-.06A1,1,0,0,1,10,.23h1c.24,0,.49-.07.63.17.07-.07.11-.16.17-.17l1-.09c.73-.07,1.48,0,2.22,0h3.61a5,5,0,0,1,.66.1s0,0,.07.05S19.26.33,19.24.34Z"/><path class="cls-1" d="M6.18.75A6,6,0,0,1,5.33.8,3.74,3.74,0,0,0,3.77.89c-.1,0-.22,0-.32,0l-.75.22a4,4,0,0,1-.59.08l-.25.06a3.53,3.53,0,0,1-.46.15c-.16,0-.33,0-.52.06,0-.07,0-.14.1-.19s.31-.14.47-.19A1.2,1.2,0,0,1,2,1c.28.07.46-.13.7-.16S2.91.77,3,.76l1-.12s.05,0,.09,0A2.5,2.5,0,0,1,4.8.44c.72,0,1.44,0,2.16,0l.2,0,0,.08A4.45,4.45,0,0,1,6.18.75Z"/><path class="cls-1" d="M12.9,12.4a.5.5,0,0,1,.08-.14c0,.06,0,.12,0,.18a.28.28,0,0,1-.07.13.47.47,0,0,0,.12.53l.2-.4.07,0c0,.13-.07.26-.1.39l.06,0c0-.05,0-.12.08-.16a.29.29,0,0,1,.16-.07s.1,0,.1.07.11.34-.05.5a.21.21,0,0,0,0,.19c.2.24-.08.41,0,.62h-.1c0-.24-.08-.47-.11-.7a1.15,1.15,0,0,0,0-.19.15.15,0,0,0-.09-.1s-.07,0-.1.07,0,.27,0,.38.1.18,0,.26-.16.11-.22.09a.26.26,0,0,1-.17-.28,4.09,4.09,0,0,0-.07-.6.5.5,0,0,1,0-.21C12.76,12.8,12.83,12.6,12.9,12.4Z"/><path class="cls-1" d="M23.31,15.58c-.21,0-.22-.18-.23-.35-.2,0-.27-.12-.31-.28s0-.14-.06-.14-.16-.12-.17-.22,0-.21,0-.32,0-.06.07-.06a.13.13,0,0,1,.09,0c0,.15.09.3.14.46a.4.4,0,0,1,.36.43c.15,0,.31.09.31.27S23.37,15.59,23.31,15.58Z"/><path class="cls-1" d="M15.36,5.64A4.91,4.91,0,0,1,16,5.47c.27-.07.54-.12.77-.17h.31s0,0,.06.07,0,0-.06,0l-.4.11-1.07.31a.46.46,0,0,1-.2,0,.25.25,0,0,1-.12-.13S15.33,5.65,15.36,5.64Z"/><path class="cls-1" d="M11.21,7.49a.14.14,0,0,0,0-.06s.06-.1.1-.12c.28-.12.44-.37.67-.54l.55-.46a1.37,1.37,0,0,1,.37-.15l0,.08a1.64,1.64,0,0,1-.25.22,2.35,2.35,0,0,0-.62.51,1.85,1.85,0,0,1-.39.35A2.29,2.29,0,0,1,11.21,7.49Z"/><path class="cls-1" d="M6.48,3.22c.08.13,0,.24-.08.27s-.19-.06-.22-.12A.69.69,0,0,1,6.1,3c0-.25,0-.51,0-.78.2,0,.24.11.21.23a.54.54,0,0,0,.07.58C6.41,3.1,6.44,3.16,6.48,3.22Z"/><path class="cls-1" d="M11.05,8.26a1,1,0,0,1-.3-.13s0-.05,0-.07l.39-.51c0,.24.15,0,.26.06-.07.17-.13.33-.21.49S11.09,8.27,11.05,8.26Z"/><path class="cls-1" d="M23.24.68s.08.1.07.14-.1.28-.16.45l-.28-.21A2.66,2.66,0,0,1,23.1.71.14.14,0,0,1,23.24.68Z"/><path class="cls-1" d="M20.1,18.07a.13.13,0,0,1-.1,0,.61.61,0,0,1-.44-.52l.5.35S20.09,18,20.1,18.07Z"/><path class="cls-1" d="M23.22,14.81a1.62,1.62,0,0,1-.13-.39.12.12,0,0,1,.2-.1C23.44,14.43,23.43,14.66,23.22,14.81Z"/><path class="cls-1" d="M47.84,12.57c-.09,0-.2.13-.27.11s-.15-.15-.22-.24C47.7,12.32,47.7,12.33,47.84,12.57Z"/><polygon class="cls-1" points="47.35 12.44 47.34 12.45 47.34 12.44 47.35 12.44 47.35 12.44"/><path class="cls-1" d="M11.18,2.84h.09c.09.1.18.22.12.35a.23.23,0,0,1-.2.1c-.1,0-.15-.09-.06-.19s0-.09,0-.14h0A.35.35,0,0,1,11.18,2.84Z"/><path class="cls-1" d="M13.66,10.84s-.07.08-.11.13l-.28-.31c.09-.07.14-.15.18-.14S13.63,10.71,13.66,10.84Z"/><path class="cls-1" d="M18,2.2s.07.09.08.14a.34.34,0,0,1-.21.4c0-.15,0-.3,0-.44S18,2.24,18,2.2Z"/><path class="cls-1" d="M23.73,14.9c-.16.25-.27.25-.42,0C23.51,14.67,23.53,14.67,23.73,14.9Z"/><path class="cls-1" d="M7.29,3.48c-.12,0-.14-.07-.12-.17s0-.21.13-.19.13.13.19.2S7.37,3.46,7.29,3.48Z"/><path class="cls-1" d="M11.6,9.43s0,.07-.08.08-.1,0-.1,0,0-.29,0-.44l.12,0C11.54,9.15,11.58,9.29,11.6,9.43Z"/><path class="cls-1" d="M13.38,12.37l.21.08a1,1,0,0,1,.17.07l-.1.16-.32-.09C13.35,12.54,13.37,12.46,13.38,12.37Z"/><path class="cls-1" d="M19.07,9.36a.63.63,0,0,1,0-.64l.11.2C19.13,9.08,19.1,9.2,19.07,9.36Z"/><path class="cls-1" d="M4.73,3.32c-.14.13-.19,0-.27-.1V3.13l.3-.08C4.75,3.15,4.78,3.28,4.73,3.32Z"/><path class="cls-1" d="M6.83,3.19s-.14.07-.16.05a.28.28,0,0,1,0-.37C6.86,2.92,6.89,3.05,6.83,3.19Z"/><path class="cls-1" d="M19.05,2.48s-.13,0-.16,0,0-.25.16-.36A.35.35,0,0,1,19.05,2.48Z"/><path class="cls-1" d="M20,2c.12,0,.13.1.12.18s-.06.1-.09.14l-.22-.16C19.86,2,19.9,2,20,2Z"/><path class="cls-1" d="M2.64,3.32c-.2.11-.27,0-.34-.11a.24.24,0,0,1,.1-.15C2.6,3,2.5,3.26,2.64,3.32Z"/><path class="cls-1" d="M11.37,8.49c0-.05.05-.09.07-.13a.57.57,0,0,1,.08.13s0,.06,0,.09,0,.05,0,.07l-.09.13a.75.75,0,0,1-.07-.12A.47.47,0,0,1,11.37,8.49Z"/><path class="cls-1" d="M14.11,11.07l-.17-.15.12-.18a1.66,1.66,0,0,1,.16.21S14.15,11,14.11,11.07Z"/><path class="cls-1" d="M4,3.24C4,3.14,4,3,4,2.87l.27.25Z"/><path class="cls-1" d="M15.4,10.93s-.08.1-.13.16a2.29,2.29,0,0,0-.15-.24.9.9,0,0,0,.1-.12A1.12,1.12,0,0,1,15.4,10.93Z"/><path class="cls-1" d="M12.7,10.2,12.53,10l.13-.17a1.21,1.21,0,0,1,.14.2S12.73,10.16,12.7,10.2Z"/><path class="cls-1" d="M14.5,10.43c.05.14.09.27.15.45-.09,0-.2-.05-.21-.08S14.34,10.55,14.5,10.43Z"/><path class="cls-1" d="M12.13,9.38,12,9.54c-.05-.08-.11-.16-.15-.24s.07-.09.08-.09Z"/><path class="cls-1" d="M15.7,3s-.07.07-.11.11L15.44,3l.15-.14A.84.84,0,0,1,15.7,3Z"/><path class="cls-1" d="M8.36,3.35l-.17-.17L8.31,3c0,.07.1.13.14.21Z"/><path class="cls-1" d="M14.59,3.25c-.13-.17-.12-.22,0-.34a1.33,1.33,0,0,1,.14.19Z"/><path class="cls-1" d="M21.54,16.49s-.07.07-.1.1l-.19-.25c.06,0,.14-.08.15-.07A.64.64,0,0,1,21.54,16.49Z"/><path class="cls-1" d="M9,3.56c-.06,0-.13,0-.16,0a.16.16,0,0,1,0-.25l.09,0A2.68,2.68,0,0,0,9,3.56Z"/><path class="cls-1" d="M14.32,12.63c-.05.06-.1.16-.14.16s-.13-.08-.19-.13l0-.08Z"/><path class="cls-1" d="M18.09,9.56c0,.11,0,.21,0,.32l0,0H18V9.57Z"/><path class="cls-1" d="M22.05,15.67c-.05-.06-.11-.11-.15-.17s0-.07.06-.16a1.49,1.49,0,0,1,.18.24S22.08,15.64,22.05,15.67Z"/><path class="cls-1" d="M21.11,16.2c-.09-.07-.12-.16,0-.31.05.13.09.22.12.32S21.14,16.22,21.11,16.2Z"/><path class="cls-1" d="M7.82,3.07s-.07.09-.1.08-.1,0-.15-.07A.93.93,0,0,0,7.52,3c.05,0,.12-.07.15,0S7.77,3,7.82,3.07Z"/><path class="cls-1" d="M16.29,10.94l-.12-.28s.08,0,.1,0S16.44,10.79,16.29,10.94Z"/><path class="cls-1" d="M13.73,3.13s-.05.07-.1.14l-.15-.15s.09-.1.12-.09S13.7,3.09,13.73,3.13Z"/><path class="cls-1" d="M19,18.52s-.08,0-.09,0a3,3,0,0,1-.24-.26l.05-.05.28.23S19,18.5,19,18.52Z"/><path class="cls-1" d="M18.58,9.2a1.57,1.57,0,0,1-.09.23s0-.09-.09-.16l.1-.16S18.58,9.18,18.58,9.2Z"/><path class="cls-1" d="M19.08,13.34s0,.06-.08.09a.58.58,0,0,1-.13-.14s0-.09,0-.14l.09,0C19,13.25,19.08,13.29,19.08,13.34Z"/><path class="cls-1" d="M17.13,2.66l0,.06c-.06,0-.15,0-.17-.05a.85.85,0,0,1,0-.22H17Z"/><path class="cls-1" d="M.59,2.85c.2,0,.2.15.18.28A.23.23,0,0,1,.59,2.85Z"/><polygon class="cls-1" points="0.78 3.14 0.77 3.14 0.77 3.13 0.78 3.14"/><path class="cls-1" d="M17.7,10.3V10h.07v.31Z"/><path class="cls-1" d="M2.18,2.87a.93.93,0,0,1,.15-.13s.06.08,0,.1-.07.08-.12.15S2.17,2.87,2.18,2.87Z"/><path class="cls-1" d="M25.26,12.59h.13c0,.06,0,.13,0,.2h-.09C25.27,12.73,25.27,12.66,25.26,12.59Z"/><path class="cls-1" d="M30.65,6.76a.19.19,0,0,1,0,.16c-.12.13-.22.32-.45.24l-.07,0,.09.13c-.07.07-.17.12-.18.18,0,.22-.2.31-.36.41s-.32.14-.45.24-.35.15-.4.37a.56.56,0,0,0,.66-.18,1.21,1.21,0,0,1,.2-.19,4.33,4.33,0,0,0,.47-.38c.22-.21.39-.47.72-.53,0,0,.05,0,.07,0s.27-.32.42-.47a.89.89,0,0,1,.27-.15.1.1,0,0,1,.09,0,.17.17,0,0,1,0,.12c-.14.13-.28.26-.43.38s-.2.13-.19.28-.06.1-.1.12c-.21.11-.33.36-.59.4,0,0,0,0,0,0a1.05,1.05,0,0,1-.73.54,2.11,2.11,0,0,0-.15.23.23.23,0,0,0,0,.15s.08.1.1.09.18,0,.21-.11a1,1,0,0,1,.6-.46.66.66,0,0,0,.17-.12c.22-.23.4-.53.77-.5,0-.09,0-.19.07-.23s.34-.27.51-.41a.27.27,0,0,1,.35,0l-.11.19c-.2.29-.53.45-.76.72a5.92,5.92,0,0,1-.95.77.07.07,0,0,1-.07,0c-.18-.05-.28,0-.35.2s-.09.09-.14.12c-.37.2-.74.42-1.12.6a2.88,2.88,0,0,1-.66.15A.21.21,0,0,1,28,9.76s0-.15.07-.16a5.6,5.6,0,0,1,.54-.17A2.67,2.67,0,0,0,29,9.3c.1,0,.17-.09.28,0s.08,0,.12,0,0-.1-.06-.12L28.92,9a2.42,2.42,0,0,1-.35-.12A.42.42,0,0,0,28,9c.21.07.49-.1.64.19a.54.54,0,0,1-.42.26,2.3,2.3,0,0,0-.28.06.22.22,0,0,1-.34-.18c0-.16,0-.27-.21-.3s-.14-.1-.14-.14a.28.28,0,0,1,.14-.18,1.05,1.05,0,0,1,.38-.12,2,2,0,0,0,.71-.28,1.27,1.27,0,0,1,.34,0,.79.79,0,0,1,.17,0c-.12-.25-.11-.25.1-.41a6,6,0,0,0,.48-.4.4.4,0,0,0,.08-.16c.05-.14.18-.14.29-.2s.37-.25.56-.36A.21.21,0,0,1,30.65,6.76Z"/><path class="cls-1" d="M29.16,10.75l.5-.13a2.9,2.9,0,0,0,.6-.12,3.06,3.06,0,0,0,1-.49,1,1,0,0,1,.29-.15l.41-.12s0-.05,0-.07.05-.13.1-.16c.23-.17.46-.32.7-.48,0,0,0-.11,0-.14s.28-.29.44-.31a.47.47,0,0,0,.42-.29.88.88,0,0,1,.59-.39s.12-.06.12-.1c0-.22.19-.3.32-.44s.27-.12.47-.06c-.15.17-.22.34-.42.45s-.28.32-.43.48a1,1,0,0,1-.16.13,1.45,1.45,0,0,0-.17.18c-.05.06-.07.13-.12.19a.75.75,0,0,1-.55.29s-.07.05-.1.09a2.3,2.3,0,0,1-.39.43,3.86,3.86,0,0,0-.67.44,2.71,2.71,0,0,1-.64.38c-.07,0-.18,0-.24.09a2.48,2.48,0,0,1-.85.41c-.16.06-.32.09-.48.14s-.33.13-.5.18a.24.24,0,0,1-.17-.06A.66.66,0,0,1,29.1,11C29,10.88,29,10.79,29.16,10.75Z"/><path class="cls-1" d="M29,10.3c.19-.06.38-.1.56-.17s.48-.21.72-.32l.48-.26c.13-.08.27-.15.39-.24s.34-.09.45-.29A.82.82,0,0,1,32,8.69c.14,0,.19-.15.28-.22a2.31,2.31,0,0,1,.54-.36.5.5,0,0,0,.34-.26.76.76,0,0,1,.19-.25,1.52,1.52,0,0,1,.33-.18.55.55,0,0,1,.17,0,.43.43,0,0,1,0,.16c-.21.23-.41.45-.64.67s-.27.39-.55.37c0,0,0,0-.06.06a5.28,5.28,0,0,1-.36.44,3.48,3.48,0,0,1-.39.28l-.28.19c-.13.09-.28.15-.4.25a1.47,1.47,0,0,1-1,.48l-.07,0a1.71,1.71,0,0,1-.81.31,1,1,0,0,0-.25.08c-.11,0-.37-.07-.37-.22s0-.05,0-.06A1.79,1.79,0,0,1,29,10.3Z"/><path class="cls-1" d="M26.68,7.83a.16.16,0,0,1,.11-.1.83.83,0,0,0,.61-.23l.05,0,1-.38L28.27,7,29,6.59s.11,0,.12,0a.13.13,0,0,1,0,.13,3.2,3.2,0,0,1-.27.25l-.24.22a2.49,2.49,0,0,1-.52.46,1.42,1.42,0,0,0-.61.44.54.54,0,0,0,.18,0,5,5,0,0,0,.54-.31,2.11,2.11,0,0,0,.48-.32c.27-.29.6-.52.89-.79a4.83,4.83,0,0,1,.58-.43.18.18,0,0,0,.07.05c0,.06,0,.14,0,.18-.2.24-.41.47-.6.71a6.48,6.48,0,0,1-.68.6,3.68,3.68,0,0,1-.87.53,1.74,1.74,0,0,1-.86.24s-.08,0-.12-.06a.34.34,0,0,1,.11-.07.25.25,0,0,1,.12,0v0L27,8.33c0-.06,0-.11,0-.13A2.6,2.6,0,0,0,26.68,8,1.47,1.47,0,0,1,26.68,7.83Z"/><path class="cls-1" d="M28.72,9.87a4.22,4.22,0,0,0,.73-.27c.43-.23.83-.5,1.24-.76a.41.41,0,0,1,.58.14l-.44.26a2.65,2.65,0,0,0-.44.25A2.1,2.1,0,0,1,30,9.8a9,9,0,0,1-1.33.43c-.09,0-.23-.08-.34-.13s0-.11,0-.12Z"/><path class="cls-1" d="M35.66,9.06c.07-.28.37-.25.55-.39a.39.39,0,0,1,.14,0,.53.53,0,0,1-.38.53c-.16.06-.31.1-.29.32,0,0,0,.08-.06.11l-.43.34a.68.68,0,0,1-.68,0c.2-.19.39-.39.58-.58h0C35.41,9.48,35.44,9.13,35.66,9.06Z"/><path class="cls-1" d="M38.73,8.31c.14-.08.23,0,.35.1l-.46.48c.05.13,0,.27-.17.44s-.3.3-.45.46-.23.28-.36.41a.18.18,0,0,1-.16,0c-.25-.12-.25-.21,0-.38a1.45,1.45,0,0,0,.36-.28,2.07,2.07,0,0,1,.69-.72A.55.55,0,0,1,38.73,8.31Z"/><path class="cls-1" d="M32.14,8.18c-.14,0-.23.25-.35.36a.61.61,0,0,1-.24.15.75.75,0,0,1-.3,0,.48.48,0,0,1-.2-.07.12.12,0,0,1,0-.11c.16-.13.29-.32.54-.31.05,0,.14,0,.14-.06s.11-.22.22-.28.17-.12.25-.17l.27-.16.26.07a1.09,1.09,0,0,1-.13.17C32.47,7.92,32.37,8.11,32.14,8.18Z"/><path class="cls-1" d="M38.8,9.45a1.19,1.19,0,0,1,.43-.74.17.17,0,0,1,.17,0,.15.15,0,0,1,0,.14,1.92,1.92,0,0,1-.25.38c-.1.12-.32.17-.21.41l0,0c-.09.27-.34.34-.58.43,0,0-.09,0-.13,0a2.15,2.15,0,0,1,.21-.35A2.88,2.88,0,0,1,38.8,9.45Z"/><path class="cls-1" d="M35.46,8.4c.13-.07.25-.25.48-.11-.17.17-.31.32-.46.45s-.14,0-.2,0a.45.45,0,0,1,0-.16C35.35,8.53,35.39,8.43,35.46,8.4Z"/><path class="cls-1" d="M37.2,8.55c.13,0,.19.11.1.19a3.52,3.52,0,0,1-.5.36s-.1,0-.14,0A1.11,1.11,0,0,1,37.2,8.55Z"/><path class="cls-1" d="M36,8.12s-.09,0-.13,0,0-.1,0-.11l.41-.38s.11,0,.13,0a.15.15,0,0,1,0,.13A3.7,3.7,0,0,1,36,8.12Z"/><path class="cls-1" d="M27.63,4.65l.14.06c-.05.06-.09.12-.14.17a1.12,1.12,0,0,1-.2.17.3.3,0,0,1-.16,0S27.22,5,27.21,5C27.2,4.78,27.34,4.66,27.63,4.65Z"/><path class="cls-1" d="M34.72,8.42s.08,0,.1,0,0,.1,0,.12a1.37,1.37,0,0,1-.2.13l-.14.09L34.25,9a.79.79,0,0,1-.09-.2C34.35,8.67,34.45,8.42,34.72,8.42Z"/><path class="cls-1" d="M35.34,7.69l.08,0s0,.13,0,.15a4.12,4.12,0,0,1-.35.37s-.11,0-.16,0,0-.08,0-.09Z"/><path class="cls-1" d="M36.35,8.41c.15-.13.31-.25.49-.39a.55.55,0,0,1-.37.56s-.12,0-.13,0A.25.25,0,0,1,36.35,8.41Z"/><path class="cls-1" d="M39.35,7.61a.65.65,0,0,1,0,.14s-.08.09-.08.14-.08.16-.19.16S39,8,38.94,8a.23.23,0,0,1,0-.16.87.87,0,0,1,.23-.2S39.3,7.61,39.35,7.61Z"/><path class="cls-1" d="M37.69,8s.09,0,.13,0,0,.11,0,.14-.2.24-.31.35a.69.69,0,0,1-.17.05.25.25,0,0,0,0-.07C37.44,8.24,37.56,8.09,37.69,8Z"/><path class="cls-1" d="M38.66,7.77l.06,0-.28.41a.16.16,0,0,1-.12,0,.11.11,0,0,1,0-.09C38.27,8.05,38.55,7.78,38.66,7.77Z"/><path class="cls-1" d="M39.34,8.46c.06-.11.11-.21.17-.3a.16.16,0,0,1,.12,0s.07.08.06.1a1.36,1.36,0,0,1-.13.3.14.14,0,0,1-.14,0S39.36,8.5,39.34,8.46Z"/><path class="cls-1" d="M30.82,6.62s-.09-.06-.18-.12L31,6.29l.07.1A1.15,1.15,0,0,1,30.82,6.62Z"/><path class="cls-1" d="M29.5,6.11a.23.23,0,0,1-.05.17.68.68,0,0,1-.24.12s-.05-.05,0-.06A3.33,3.33,0,0,1,29.41,6C29.46,6.06,29.51,6.09,29.5,6.11Z"/><path class="cls-1" d="M33,7.39s-.09,0-.09,0a.11.11,0,0,1,0-.11A2.88,2.88,0,0,1,33.17,7c0,.1,0,.19,0,.22A.78.78,0,0,1,33,7.39Z"/><path class="cls-1" d="M23.69,4.54s.06,0,.06,0,0,.22,0,.37c-.16-.1-.22-.29-.17-.37A.12.12,0,0,1,23.69,4.54Z"/><path class="cls-1" d="M24.58,5c-.07.06-.13.13-.16.12S24.29,5,24.29,5s.09-.12.14-.17Z"/><path class="cls-1" d="M25.68,4.76s-.07.09-.11.14l-.19-.19.14-.11C25.58,4.66,25.65,4.7,25.68,4.76Z"/><path class="cls-1" d="M24.9,4.67a1,1,0,0,1,.16.12s-.07.12-.11.12a.59.59,0,0,1-.17-.11C24.84,4.73,24.89,4.66,24.9,4.67Z"/><path class="cls-1" d="M39.19,7.26l.13-.1c.06,0,.11.11.16.16a.26.26,0,0,1-.1.07Z"/><path class="cls-1" d="M42.42,23a2.28,2.28,0,0,0,.45-.26.67.67,0,0,0,.4-.71.18.18,0,0,1,.09-.16c.13-.08.13-.17.09-.3a2.88,2.88,0,0,1-.1-.51.83.83,0,0,0-.64-.8l-.37-.1s0,.05,0,.08l.19.07c-.17.1-.27.08-.36,0-.3.1-.38.38-.5.61A2,2,0,0,0,41.37,22a4.69,4.69,0,0,0,.17.72s0,0,0,0C41.87,22.79,42.09,23.09,42.42,23Zm.06-1.75a.15.15,0,0,1-.07-.13.2.2,0,0,1,.11-.11.68.68,0,0,1,.63.55c0,.05,0,.11,0,.15a1,1,0,0,1-.17.18c0-.05-.12-.1-.11-.14C42.87,21.47,42.69,21.35,42.48,21.25Zm-.16,1.52.22-.14.06.1-.22.11S42.34,22.8,42.32,22.77Z"/><path class="cls-1" d="M44.13,16.9v-.66a6.57,6.57,0,0,1,.11-1.77c0-.1,0-.17-.06-.24a.33.33,0,0,1,0-.23,3.05,3.05,0,0,0,.05-.41c0-.39-.05-.78-.08-1.17a1.57,1.57,0,0,1,0-.25c.06.07.09.09.09.11s0,.24,0,.36.07.25.08.37,0,.33,0,.49c0,.37.08.74.1,1.11s0,.85,0,1.27a.77.77,0,0,1,0,.15,2.31,2.31,0,0,0-.08.43.53.53,0,0,1-.17.44Z"/><path class="cls-1" d="M43.44,8.43a.17.17,0,0,1,.14,0,4.34,4.34,0,0,1,.24.69c.08.4.13.81.2,1.22,0,.17.09.35.13.53a3.37,3.37,0,0,1-.1.34s0,0-.08.07-.06-.06-.06-.09a3.4,3.4,0,0,0-.09-.64,7.5,7.5,0,0,1-.14-1.16.83.83,0,0,0,0-.22c-.07-.19-.15-.37-.22-.56A.27.27,0,0,1,43.44,8.43Z"/><path class="cls-1" d="M44,18.38c0-.18,0-.37,0-.56h-.05c.06-.23.11-.46.17-.69,0,0,.08-.1.11-.09a.16.16,0,0,1,.12.09.39.39,0,0,1,0,.21c0,.24-.06.48-.1.72s-.08.23-.12.34,0,.1-.07.15A.51.51,0,0,1,44,18.38Z"/><path class="cls-1" d="M42.63,6.61c-.14-.17-.22-.39-.45-.47a.06.06,0,0,0,0,0c-.07-.12-.15-.23-.23-.35l-.12-.19s0,0,0,0L42,5.6l.28.33.45.58a.13.13,0,0,1,0,.1Z"/><path class="cls-1" d="M44,19.14c.15.18.25.3.12.48s0,.11,0,.16-.09.24-.14.39c-.12-.13-.12-.13-.09-.72C43.81,19.35,43.89,19.27,44,19.14Z"/><path class="cls-1" d="M40.31,21.13c.09,0,.17,0,.15.14s.07.26-.11.28-.11-.14-.19-.24C40.23,21.23,40.26,21.14,40.31,21.13Z"/><path class="cls-1" d="M22.22,8.42a.44.44,0,0,1,0,.16l-.39.53a.26.26,0,0,1-.15,0,.17.17,0,0,1,0-.14Z"/><path class="cls-1" d="M22.27,8.25a5.44,5.44,0,0,1,.42-.41.42.42,0,0,1,.17,0l0,.06-.53.52s-.08,0-.13,0S22.24,8.27,22.27,8.25Z"/></g></g></svg>