<svg xmlns="http://www.w3.org/2000/svg" viewBox="0 0 16.23 55.51"><defs><style>.cls-1{fill:#323c90;}</style></defs><g id="Layer_2" data-name="Layer 2"><g id="Layer_1-2" data-name="Layer 1"><path class="cls-1" d="M6,7H6Z"/><path class="cls-1" d="M6,7Z"/><polygon class="cls-1" points="13.68 8.31 13.68 8.31 13.68 8.32 13.68 8.31"/><path class="cls-1" d="M5.68,9.64c.1-.05.26-.34,0,0Z"/><path class="cls-1" d="M16.13,10.11a2.71,2.71,0,0,0-.7-1.45,5.68,5.68,0,0,0-1.19-1c-.17-.11-.31-.29-.48-.38s-.36-.17-.34-.05a11.06,11.06,0,0,1,0-1.41,7.29,7.29,0,0,0-.28-1.67,6.38,6.38,0,0,0-1.46-2.45A4.77,4.77,0,0,0,9.46.17a6.21,6.21,0,0,0-3,0A5.24,5.24,0,0,0,2.75,3.37a4.61,4.61,0,0,0-.27,2.51,7.54,7.54,0,0,1,.2.82c.07.4-.08.39-.44.53a3.19,3.19,0,0,0-1,.87A4.33,4.33,0,0,0,.4,9.32a4.2,4.2,0,0,0-.22,3,5.87,5.87,0,0,0,1.63,2.4A5.32,5.32,0,0,0,4.2,15.75a4.46,4.46,0,0,0,1,.22c.21,0-.18-.81-.3-.91s-.25-.05-.37,0A1.9,1.9,0,0,1,3.86,15a3.76,3.76,0,0,1-1.29-.66C1.08,13.17.13,11,1.31,9.3A4.65,4.65,0,0,1,3.58,7.44a4.33,4.33,0,0,1,1.56-.13c.44,0,1-.12,1.38.15a2.77,2.77,0,0,1-1.15.08A4.8,4.8,0,0,0,4,7.72,4.1,4.1,0,0,0,2,8.78,3.35,3.35,0,0,0,1.13,11a3.55,3.55,0,0,0,.78,2.22l.31.45s.11,0,.15,0a3.89,3.89,0,0,1,.63.43,3,3,0,0,0,1.64.72c.22,0,.09-.22.05-.37s-.13-.49-.21-.74a12.56,12.56,0,0,1-.33-1.93,1.9,1.9,0,0,1,.21.56c.09.25.17.51.25.76.18.52.33,1,.51,1.56a14.3,14.3,0,0,0,.59,1.4,1.82,1.82,0,0,0,.27.54c0,.05.08,0,.09.08s0,.18.08.13c-.09,0,.42.87.47,1a3,3,0,0,1,.44,1.63c-.33-.68-.68-1.36-1-2-.18.14-.2.16-.1.39s.24.54.37.8a4.53,4.53,0,0,1,.43,1.65,3.4,3.4,0,0,0,.12.71c.06.22.24.48.17.71a5.41,5.41,0,0,0-.13,1.75c0,1.19,0,2.38,0,3.57,0,.2-.16,1.1.19,1.06a3.14,3.14,0,0,1-.08.86,1,1,0,0,0,0,.66.58.58,0,0,0,.11-.39,2.49,2.49,0,0,1,.13-.66,1.79,1.79,0,0,0-.28-1.2c.05,0,.48-.6.39-.61s-.11.15-.19.1.24-.32.21-.38-.12.09-.13.1a.55.55,0,0,1,0-.18c0-.07.11-.09.14-.16a4.31,4.31,0,0,0,.23-.89,6.55,6.55,0,0,1,.29-1c.19-.42.37-.85.56-1.28-.13-.31.1-.76-.14-1-.38.53-.21,1.38-.43,2-.13.38-.31.73-.42,1.12a2.51,2.51,0,0,1-.31,1,3.72,3.72,0,0,1,0-.67.86.86,0,0,0-.09-.27l.06-.33h0a.66.66,0,0,0,.21-.33,3.67,3.67,0,0,1,.14-.72c.09-.29.19-.57.29-.86s.1-.33.16-.49S8.12,22,8,22a1.22,1.22,0,0,0,.37-.16c.13-.11.19-.28.35-.35s.24,0,.29-.11l.18-.56L9,21a5.66,5.66,0,0,1,.22-1,6,6,0,0,0,.4-.9,4.59,4.59,0,0,0-.54.54c0-.29.21-.56.35-.79s.44-.7.65-1.05.38-.63.59-.94a3.41,3.41,0,0,0,.56-1c-.14,0-.38,0-.48.1s-.37.7-.26.73L9.24,18.6a10.86,10.86,0,0,0-.68,1c-.06,0-.22.09-.26,0s0-.21.07-.28c.17-.26.36-.5.53-.76s.31-.43.47-.65a1.53,1.53,0,0,0,.19-.3.42.42,0,0,0,0-.14c0-.07.25-.38.29-.43.21-.29.39-.59.59-.88h-.09l.19-.27c-.32-.14-.42,0-.54.26a7,7,0,0,1-.66,1.12c-.26.39-.51.79-.76,1.19a6.1,6.1,0,0,1-.38.6,1,1,0,0,1-.45.25l0-.29s0,0,0,.06L9,17.3l.31-.45a1.19,1.19,0,0,0,.22-.33c0-.13,0-.09.08-.21s.2-.25.14-.28-.95,1.24-1,1.38a.14.14,0,0,0,0-.06L8.26,18c-.32-.62-.74-1.19-1-1.83a.45.45,0,0,1,.26-.6,4,4,0,0,1,.67-.37c.26-.08.68.24.92.34a2.38,2.38,0,0,0,.74.31c.31,0,0-.16-.1-.19a5.36,5.36,0,0,1-1-.47c.05-.12.56.12.65.15a2,2,0,0,0,1.12.24c0,.1.35.06.46.07a5.86,5.86,0,0,0,.59,0,4.07,4.07,0,0,0,1.08-.28l.87-.41,0,0c.1.06.42-.25.49-.31a2,2,0,0,1,.27-.17.38.38,0,0,0,.17-.16s0-.12,0-.14c.09.17.19,0,.28-.14a2.78,2.78,0,0,0,.26-.34,3.81,3.81,0,0,0,.42-.89,5.41,5.41,0,0,0,.29-2.07,3.62,3.62,0,0,0-.84-1.83,3.57,3.57,0,0,0-.69-.71,2.26,2.26,0,0,1-.67-.6c.38,0,.75.32,1,.53a4,4,0,0,1,1,1.12,3.11,3.11,0,0,1,.49,1.7c-.07.49-.07,1-.17,1.48a2.89,2.89,0,0,1-.6,1.29,9.79,9.79,0,0,1-1.09,1.14,2.76,2.76,0,0,1-.61.39c-.13.07-.38.15-.33.35.27-.17.6-.31.89-.51a5.33,5.33,0,0,0,1.07-1c0-.07.11-.14.16-.19s.12-.25.19-.37.13-.07.18-.14a1.61,1.61,0,0,0,.17-.45,5.88,5.88,0,0,0,.26-.91,4.14,4.14,0,0,1,.1-.93h0C16.3,11,16.15,10.21,16.13,10.11ZM6,7H6C4.14,7,1.87,7.45.94,9.25A3.9,3.9,0,0,0,.6,12.09a5.07,5.07,0,0,0,1.73,2.44,4.51,4.51,0,0,0,1.27.79c.22.08.45.14.68.21s.22,0,.2.14L4,15.58a4.11,4.11,0,0,1-2.41-1.36A4.35,4.35,0,0,1,.36,11.71,3.7,3.7,0,0,1,.87,8.86a4.94,4.94,0,0,1,3.41-2A7.92,7.92,0,0,1,6.56,6.8L7,6.9c.1,0,.31.22.08.2S6.38,7,6,7Zm6.44-.46v0h0s0-.1,0-.16h0v0h0a6.15,6.15,0,0,0-.56-2.72,5.07,5.07,0,0,0-2-1.89,4.28,4.28,0,0,0-2.85-.43A5.53,5.53,0,0,0,4.44,2.69a4.53,4.53,0,0,0-1,2.59,3.11,3.11,0,0,0,.22,1.38c-.34.16-.42-1.1-.41-1.31a4.68,4.68,0,0,1,1-2.78A5.42,5.42,0,0,1,6.75,1,3.48,3.48,0,0,1,8.35.88a6.18,6.18,0,0,1,1.51.54,4.85,4.85,0,0,1,2.18,2,4.86,4.86,0,0,1,.6,1.36,5.23,5.23,0,0,1,0,1.58c0,.57-.07,1.15-.16,1.72a2.55,2.55,0,0,1-.27.79c-.09.16-.19.49-.35.57a4.17,4.17,0,0,1,.34-1.3A5.42,5.42,0,0,0,12.45,6.54ZM4.33,14.29a3.34,3.34,0,0,1-1.16-.47,13.74,13.74,0,0,1-1.18-1,2.2,2.2,0,0,1-.53-1.26A3.38,3.38,0,0,1,1.52,10,3.44,3.44,0,0,1,3.31,8.1a4.73,4.73,0,0,1,1.42-.37,2.14,2.14,0,0,1,1.42.18c-.46.11-1,0-1.43.1a5.23,5.23,0,0,0-1.35.39c-.64.28-1.58.83-1.33,1.67l.47-.71c.12-.18.37-.64.62-.67s.13.27.16.35c.09.31.31.6.42.91s.17.51.26.77a1.66,1.66,0,0,1,0,.91,5.89,5.89,0,0,0,.19,2.17,3.58,3.58,0,0,1-2.11-2A2.44,2.44,0,0,1,2,11.18c0-.09,0-.62-.2-.5s.07.68.08.8,0,.59.21.71c-.2.14.33.45.29.52s-.05.18.12.29l.61.42Zm2.39-1.63h0a3.63,3.63,0,0,1,.37.46c.07.08.24.2.16.29l-.38-.27a7,7,0,0,1-1.24-1.3,8.34,8.34,0,0,1-1-1.52A3.51,3.51,0,0,1,4,8.52c.48.64.79,1.42,1.21,2.1.23.36.47.7.73,1,.13.17.27.34.41.5s.27.43.42.52ZM6.89,14l.84-.58c-.39.28,0,0,0,0a3.43,3.43,0,0,0,.48-.33l.71-.68.63-.54a3,3,0,0,1,.73-.61c0,.23-.22.44-.35.62a5.07,5.07,0,0,1-.58.64,17.91,17.91,0,0,1-1.49,1.25,8.09,8.09,0,0,1-.73.46c-.12.07-.58.31-.7.24S6.81,14.08,6.89,14Zm.42-1.22c-.18-.18-.36-.35-.53-.54a8.79,8.79,0,0,1-.92-1.19c-.28-.45-.54-.92-.79-1.39s-.56-.85-.36-1.22c.57.85.93,1.82,1.52,2.65h0c.25.35.53.68.79,1a3.82,3.82,0,0,1,.73,1C7.58,13.15,7.43,12.92,7.31,12.8Zm.6,8.86h0a.19.19,0,0,1,0,.07l0-.07a5.35,5.35,0,0,0-.4,1.27,4.25,4.25,0,0,1-.36,1.33c-.18-.09,0-.91.07-1.1l-.16.25.18-.83c0-.14.07-.29.11-.43.08-.3-.12.06-.16.13s-.13-.12,0-.18l.28-.27c.15-.14.29-.34.49-.4A1.89,1.89,0,0,1,7.91,21.66Zm.88-.54c-.11.1-.26.18-.24.12l-.82.14a.43.43,0,0,1,0-.05l0,.08A1.89,1.89,0,0,1,7,20.87c.24-.07.66,0,.62.06h.72c.08.07.26,0,.35,0s.47-.12.15.18C9.22,20.72,8.72,21.18,8.79,21.12ZM9.1,20c.12.12,0,.12,0,.24s-.16.21-.18.2a1.28,1.28,0,0,1-.63.27,2,2,0,0,1-.64,0,1,1,0,0,1-.72-.33c.48,0,1,.15,1.44-.11l-.09.14.53-.15c-.06.09.05.13.11.2A1.67,1.67,0,0,0,9.1,20Zm-.7-.21c-.24,0,0,0,0,0a.2.2,0,0,0,0,.07l.21-.11a.29.29,0,0,1,0,.09c.18,0,.26-.07.39.05a1.93,1.93,0,0,1-2.16,0,1.28,1.28,0,0,1,.55,0c.21,0,.26-.13.36-.28a3.38,3.38,0,0,0-.08.34ZM13.68,8.31s0,0,0,0a3.76,3.76,0,0,1,.74.59,4.8,4.8,0,0,1,.63.85,3.41,3.41,0,0,1,.44,1.87,4.38,4.38,0,0,1-2.37,3.23,4.56,4.56,0,0,1-2.25.59,3.61,3.61,0,0,1-1.17-.26c-.26-.1-.78-.52-1-.38s-.74.38-1.11.57-.66.26-.49.69.34.69.51,1,.44.86.29,1.15a2.69,2.69,0,0,1-.28-.53c-.07-.13-.4,0-.06-.15a29.22,29.22,0,0,1-1.71-3,9.42,9.42,0,0,1-.52-1.37,3.32,3.32,0,0,1-.1-.77.8.8,0,0,0-.41-.56,3.16,3.16,0,0,0,.29,1.33l.49,1.44s.14-.09.17,0l-.12.09c.06.12.13.24.2.36l.33.59c.21.39.43.78.65,1.17s.41.74.62,1.11c.06.31.24.75.07,1-.1-.23-.2-.45-.31-.68l0,0c-.17-.39-.37-.82-.58-1.27l0,.08c-.27-.61-.63-1.18-.92-1.81a11.22,11.22,0,0,1-.79-2.19,9.94,9.94,0,0,0-.45-2c-.17-.35-.32-.73-.47-1.09a2.09,2.09,0,0,1-.33-1.12A24.29,24.29,0,0,0,5,11.55a11.48,11.48,0,0,0,.86,1.12c.17.2.33.4.51.59s.41.36.46.58c-.25,0-.58-.46-.76-.63a7.14,7.14,0,0,0-.83-.72,4.07,4.07,0,0,0,.57,1.41c.09.19.51,1.31.8,1.12s.83-.62,1.24-.92a6,6,0,0,0,1.18-.94,6.64,6.64,0,0,1,1.08-.89c.19-.14.39-.26.57-.41s.2-.26.11-.5a5.06,5.06,0,0,0-.59-1.13,2.69,2.69,0,0,0-1.12-.92c0,.18,0,.35.23.32.08,0,.31.29.38.35a.87.87,0,0,1,.3,1.08,6,6,0,0,1-1.2,1.28,2,2,0,0,1-.54.46.4.4,0,0,1-.24,0c-.1,0-.22-.13-.3-.13h0a4.82,4.82,0,0,1-.39-.55l-.65-.84a5.67,5.67,0,0,1-.6-.79c-.15-.29.29-.58.46-.73l.78-.67.4-.34c.1-.08-.15-.1-.19-.06l-.84.67c-.16.13-.63.65-.84.58a2,2,0,0,1,.38-.54l.64-.55A6.9,6.9,0,0,1,8.32,8c.82-.4,2.23-1,3-.28a2.84,2.84,0,0,1-.87.1c-.16,0-.75,0-.85.06s.44.26.5.29A3.24,3.24,0,0,1,11,8.6c.08.07.31.4.43.23a2.76,2.76,0,0,0,.28-.91c.09-.32.53-1.18,0-1.23a7.28,7.28,0,0,0-3.52.42A5,5,0,0,0,6.68,8a6.25,6.25,0,0,0-.58.57,2.43,2.43,0,0,1-.55.6,2.72,2.72,0,0,1,.7-1.11A4.33,4.33,0,0,1,7.4,7.2a5.82,5.82,0,0,1,2.9-.82,6.32,6.32,0,0,1,1.44.12c.26.06.22-.2.07-.21l-.94-.1a6.36,6.36,0,0,0-1.51,0,12,12,0,0,0-1.47.46,3.61,3.61,0,0,1-1.39,0c-.56-.05-1.13,0-1.7,0s-.61-.48-.59-.87a5.92,5.92,0,0,1,.22-1.46A3,3,0,0,1,6.22,2.35a4.53,4.53,0,0,1,1.33-.49A3,3,0,0,1,9,2.15a3.71,3.71,0,0,1,1.86,1.54,10.17,10.17,0,0,1,.68,1.21c.17.4,0,.84.26,1.23a2.13,2.13,0,0,0-.16-1.6,5.6,5.6,0,0,0-.84-1.44A4.17,4.17,0,0,0,7.88,1.68a4.23,4.23,0,0,0-1.74.48,3.42,3.42,0,0,0-1.38,1A3.63,3.63,0,0,0,4.1,4.7C4,5,4,5.35,4,5.67s.16.57.13.87C4,6.43,3.93,6.16,3.88,6a1.8,1.8,0,0,1-.07-.73,4.91,4.91,0,0,1,.25-1.57,2.36,2.36,0,0,1,.36-.53c.13-.17.23-.35.37-.51a3.1,3.1,0,0,1,1.06-.73,4,4,0,0,1,2.87-.34,7.76,7.76,0,0,1,1.31.6,3,3,0,0,1,1.11.77,6.71,6.71,0,0,1,1,2.68,4.15,4.15,0,0,1,.05,1.53,4.89,4.89,0,0,1-.16.76,2,2,0,0,1-.26.74.66.66,0,0,0,0,.9,3.48,3.48,0,0,1,.28.39c0,.08.13.33.25.35s.18-.21.21-.26a1.6,1.6,0,0,1,.41-.49c.45-.32.73-.11,1.07.22.1.11.19.31.31.22a6.28,6.28,0,0,0-.48-.64,1.78,1.78,0,0,0-.69-.5c-.14,0-.18.16-.22.25a2.44,2.44,0,0,1-.51.64,8.05,8.05,0,0,0,.42-5.28,5.49,5.49,0,0,0-.44-1.1c-.2-.36-.49-.66-.7-1A3.7,3.7,0,0,0,9.55.86,5.46,5.46,0,0,0,6.78.59,5.26,5.26,0,0,0,4.46,1.84,5,5,0,0,0,3.12,4.12a4.12,4.12,0,0,0-.19,1.35A6.66,6.66,0,0,1,3,6.88a2.45,2.45,0,0,1-.3-1.32A4.66,4.66,0,0,1,2.8,4.17,5.09,5.09,0,0,1,4,1.94,5.62,5.62,0,0,1,6,.56,4.66,4.66,0,0,1,7.26.19,5.45,5.45,0,0,1,8.82.36a4.73,4.73,0,0,1,2.42,1.11,6.45,6.45,0,0,1,1.53,2.29A4.15,4.15,0,0,1,13.2,5c.05.5,0,1,.05,1.52a9.5,9.5,0,0,1-.06,1.31c0,.32.29.33.49.45Zm-8,1.33a11,11,0,0,1,1-1.24,5.75,5.75,0,0,1,1.6-1A4.6,4.6,0,0,1,10,6.89c.48,0,1.32-.1,1.66.28a2.37,2.37,0,0,1-.84,0,4.93,4.93,0,0,0-.86,0,4,4,0,0,0-1.63.55,16.83,16.83,0,0,0-1.48,1,3.81,3.81,0,0,0-.64.5A1.93,1.93,0,0,1,5.68,9.64Z"/><path class="cls-1" d="M6.23,11.12h0C6.17,11,6.12,11,6.23,11.12Z"/><path class="cls-1" d="M9.1,20c-.06.13,0,0,0,0Z"/><path class="cls-1" d="M6.1,7Z"/><path class="cls-1" d="M12.44,6.35h0v0Z"/><path class="cls-1" d="M4.33,14.29c-.73-.5-.34-.11,0,0Z"/><path class="cls-1" d="M12.44,6.31Z"/><path class="cls-1" d="M6.23,11.12Z"/><path class="cls-1" d="M6.91,35.17c0,.34.08.66.09,1H7c0,.31,0,.13,0,0,0,1,0,1.92,0,2.88a5.27,5.27,0,0,0,0,.56c0,.25.08.5.12.74a3.33,3.33,0,0,1,.08.76,1.83,1.83,0,0,0,.06.74,7,7,0,0,0,.45-1.54c.19-.53.53-1,.68-1.53,0-.13.21-.57.09-.61s-.33.59-.39.74c-.26.58-.51,1.16-.76,1.74-.12-.25,0-.53.13-.78s.19-.62.29-.94.51-.7.61-1.12A5.42,5.42,0,0,0,8.38,37c-.15,0-.36.73-.42.88l-.75,1.9a7.34,7.34,0,0,1,.2-1,3.62,3.62,0,0,0,.2-.91c-.21.16-.29.49-.41.73a3.46,3.46,0,0,1,.26-1.26c.14-.44.29-.88.41-1.32.16-.61.79-1.18.51-1.87a3.4,3.4,0,0,0-.32.84l-.31.88a16,16,0,0,1-.62,1.68v-.88l0,.1c.06-.25.11-.5.17-.75s.17-.45.1-.55c.26,0,.72-1.79.92-1.71,0-.48.07-1,.1-1.46C8,33.53,7.59,34.7,7.17,35.87a8.3,8.3,0,0,1,.94-3.43c.1.25.18,0,.21-.14s0-.16.07-.23.15-.21-.05-.27a2,2,0,0,1-.11.42c0-.21-.05-.4.16-.48,0-.27.12-.66,0-.9a1.53,1.53,0,0,0-.23.73,3.86,3.86,0,0,1-.2.76c-.24.6-.5,1.18-.72,1.79a2.16,2.16,0,0,1,0-.67c0-.11,0-.58.08-.61l0,.12.42-1.27L8,31c0-.08,0-.23.11-.28s.15-.09.16-.21,0-.38.08-.56l0-.38c0-.16,0-.12-.13-.16-.14.5-.29,1-.43,1.5.21-.15,0,.14,0,.14l0,0c-.2.57-.38,1.06-.56,1.58,0-.11-.1-.75,0-.76.07.41.16-.54.14-.55s.14-.38.17-.5l.12-.62a.61.61,0,0,1,0,.11c.09-.29.18-.57.28-.86L8.12,29a5,5,0,0,0,.2-.75c0-.09,0-.34,0-.42s-.12-.33-.21-.17c.14.07,0,.28,0,.42s-.8,2.54-.74,2.62h0s-.11.11-.12,0,0-.26,0-.38l.12.13c0-.26-.06-.43-.09-.64a.7.7,0,0,1,.08.12c.09-.39.84-3.2,1-3.67.06-.26.1-.63.16-.88-.17-.05-.17.13-.21.27s-.07.25-.11.38c-.14.51-.28,1-.41,1.53,0,.13,0,.24-.17.26s0,.24,0,.36a1.48,1.48,0,0,1-.09.35A6.31,6.31,0,0,0,7,30.49a8.69,8.69,0,0,0,0,1c0,.18,0,.35,0,.52s.11.14.09.24c-.25-.09-.12.61-.11.76a9.39,9.39,0,0,1,0,1.06A7.81,7.81,0,0,0,6.91,35.17Zm.09,1Z"/><path class="cls-1" d="M7.08,52.12Z"/><path class="cls-1" d="M8,41.63c-.14.44-.33.86-.51,1.28-.07.15-.18.29-.1.44.19-.11.22-.36.29-.56a9.57,9.57,0,0,1,.5-1.29A7.47,7.47,0,0,1,8,42.74l-.15.63c0,.16-.16.41-.11.57.11-.07.16-.29.21-.41s.2-.44.29-.66c.12.05-.25,1.27-.29,1.46-.24,1-.49,2.05-.73,3.07v-.86c0-.3.07-.55-.15-.76-.17.23-.07.6-.06.87,0,.42,0,.83,0,1.24,0,.77,0,1.55,0,2.33,0,.37,0,.73,0,1.1,0,.15-.09.72.14.8.43.15.46-.61.52-.87.14-.55.21-1.14.37-1.68s.4-.72.49-1.13a5.15,5.15,0,0,0,0-.68c0-.11,0-.22.05-.34a.64.64,0,0,0-.15-.4A12.64,12.64,0,0,0,7.86,49c-.2.74-.45,1.48-.68,2.22a15.46,15.46,0,0,1,.75-3.56A5.13,5.13,0,0,0,8.47,46c0-.28-.05-.55,0-.83s.12-.57,0-.78c-.18.21-.17.71-.22,1s-.13.77-.21,1.16c-.16.77-.43,1.52-.61,2.29-.15-.24,0-.75,0-1s.12-.71.18-1.07a18.5,18.5,0,0,1,.52-2.2,6.78,6.78,0,0,0,.36-2,7.22,7.22,0,0,0-.1-2.13A4.76,4.76,0,0,0,8,41.63Z"/><path class="cls-1" d="M8.44,52.33h0c0,.22,0,0,0,0a4.84,4.84,0,0,1-.08,1.32c-.12.37-.62.32-.94.32a4.7,4.7,0,0,0,.13-1.55l-.18.25c0-.12-.18-.21-.27-.3a2.35,2.35,0,0,0-.17,1.46c.05.27.11.31.38.32a2.81,2.81,0,0,1,.82,0c.27.11.07.87-.16,1s-.25.06-.38-.16-.26-.47-.39-.71c-.3.22-.19.71,0,1a.76.76,0,0,0,1,.11c.42-.3.38-.91.39-1.37,0-.3,0-.6,0-.91a1.74,1.74,0,0,0-.08-.91S8.44,52.26,8.44,52.33Z"/><path class="cls-1" d="M8.44,52.33Z"/><path class="cls-1" d="M8.51,48.8a6.9,6.9,0,0,0-.45,1.63,9.46,9.46,0,0,0-.41,1.73c.19-.15.34-.18.42-.43s.19-.59.27-.89A5.46,5.46,0,0,0,8.51,50c0-.16,0-.32,0-.48s-.08-.36.06-.37l-.06-.31C8.53,48.9,8.46,48.88,8.51,48.8Z"/><path class="cls-1" d="M11.54,16.16c-.07.05,0,0,0,0-.14.1-.59.71-.45.79-.32.18-.52.63-.73.94a4,4,0,0,0-.58,1.05c.2,0,.22-.28.37-.38h0c.13,0,.26-.35.34-.46l.42-.63a10.46,10.46,0,0,0,.82-1.26S11.58,16.13,11.54,16.16Z"/><path class="cls-1" d="M7.53,42.15Z"/><path class="cls-1" d="M8.39,39.92a1.06,1.06,0,0,0,0-.7,2.44,2.44,0,0,0-.3.79c-.14.33-.27.66-.41,1s-.27.66-.4,1c-.06.14.1.48.21.17a5.73,5.73,0,0,1,.56-1.48A1.7,1.7,0,0,0,8.39,39.92Z"/><path class="cls-1" d="M7.63,37.76a5.43,5.43,0,0,0,.57-.92,3,3,0,0,0,.16-1.26A5.77,5.77,0,0,0,8,36.5a6.18,6.18,0,0,0-.34,1.26C7.64,37.64,7.69,37.69,7.63,37.76Z"/><path class="cls-1" d="M8.61,51c0-.1-.07-.21-.11-.32,0,.11-.05.12,0,0a6.24,6.24,0,0,0-.33,1.42c.3,0,.46,0,.44-.31C8.61,51.69,8.52,51,8.61,51Z"/><path class="cls-1" d="M5.18,16.12a3.14,3.14,0,0,0,.68,1.35,1.12,1.12,0,0,0,0-.31v0h0a2.56,2.56,0,0,0-.32-.64C5.45,16.29,5.41,16.2,5.18,16.12Z"/><path class="cls-1" d="M5.89,17.16h0Z"/><path class="cls-1" d="M5.89,17.15v0Z"/><path class="cls-1" d="M12.85,15.53Z"/><path class="cls-1" d="M12.85,15.53h0c-.08,0-.12.11-.2.13l-.49.1a1.05,1.05,0,0,0-.66.29,5.77,5.77,0,0,0,1.4-.31l0-.1.18,0C13.07,15.52,12.92,15.51,12.85,15.53Z"/><path class="cls-1" d="M12.85,15.53Z"/><path class="cls-1" d="M7.13,42.52a1.14,1.14,0,0,0-.1.6c0,.18.12.27.19,0s.13-.38.19-.57-.21-.32-.28-.07Z"/><path class="cls-1" d="M7.13,42.52Z"/><path class="cls-1" d="M7,44.32c0,.06.07.18.12.3a2.22,2.22,0,0,0,.2-.41c0-.14-.06-.25-.13-.36a.67.67,0,0,0-.19.47C7,44.18,7,44.38,7,44.32Z"/><path class="cls-1" d="M6.94,45.47c0,.27.19.24.23,0a.79.79,0,0,0-.09-.58A.89.89,0,0,0,6.94,45.47Z"/><polygon class="cls-1" points="8.41 23.58 8.41 23.59 8.41 23.58 8.41 23.58"/><path class="cls-1" d="M7.41,26.87c0,.17-.18.65,0,.72L7.57,27a5.15,5.15,0,0,1,.15-.53v0l.1-.45c0-.05.1-.05.11-.08l.3-.84c0-.07.18-1,.23-1.27s0-.13-.05-.24C8.28,24,8.05,25,8,25l-.37,1.12a1.35,1.35,0,0,1,0,.18h0c-.07.22-.14.41-.18.6Z"/><path class="cls-1" d="M7.41,26.87Z"/><polygon class="cls-1" points="7.41 26.87 7.41 26.87 7.41 26.87 7.41 26.87"/><path class="cls-1" d="M7.75,44.09c-.1-.08-.15-.06-.16.07s-.12.29-.17.44.1.14.13.07l.12-.35Z"/><path class="cls-1" d="M7.55,44.67Z"/><path class="cls-1" d="M10.1,13.1a1.43,1.43,0,0,1,.63-.31,6.15,6.15,0,0,1-1.23,1.4,3.8,3.8,0,0,0,1.86.29,4.14,4.14,0,0,0,1.78-.69,3.25,3.25,0,0,0,1.19-1.25,2.12,2.12,0,0,0,.26-.74c0-1.35-.24-1.54-.43-1.59,0,.12,0,.47.14.55s.06.3.07.4a1.93,1.93,0,0,1-.12,1.09,3.2,3.2,0,0,1-.75,1c-.15.15-.31.29-.47.43s-.32.12-.47.17c0-.62.22-1.22.21-1.85a3.83,3.83,0,0,0-.13-.89c0-.1-.13-.8-.31-.52-.09.13.08.58.1.74a3.94,3.94,0,0,1,.08,1,6.77,6.77,0,0,1-.15,1c0,.22,0,.67-.24.81a.66.66,0,0,1,0-.34,2.16,2.16,0,0,0,0-.62c0-.46,0-.91,0-1.37a3.71,3.71,0,0,0-.83-2.19,5.58,5.58,0,0,0-.7-.76c-.27-.25-.61-.38-.89-.61A1.13,1.13,0,0,0,9.44,8c-.13,0-.42.11-.54.15l-.6.23c-.11,0-.47.12-.52.23s.59.33.72.4A3.4,3.4,0,0,1,9,9.25c.28.19-.07-.17-.13-.22s-.31-.18-.2-.31.35.16.47.26c.34.28.69.55,1,.83a3.36,3.36,0,0,1,1.16,2,4.39,4.39,0,0,1,0,1.2,2.25,2.25,0,0,1-.1.64,3.24,3.24,0,0,1-.28.47c-.13-.11-.22-.11-.11-.27a1.38,1.38,0,0,0,.12-.64,4.8,4.8,0,0,0,0-1.31c-.39.17-.68.65-1,.95a7,7,0,0,1-1.1,1c-.38.26-.77.47-1.17.69s-.91.37-1,.7a.29.29,0,0,0,.11.31c.12.06.29-.06.38-.13.39-.3.8-.58,1.2-.88s.79-.64,1.17-1ZM11.29,11s0,0,0,0a3.58,3.58,0,0,1-.06-.37.63.63,0,0,0-.17-.32c-.23-.28-.46-.56-.7-.83a3.24,3.24,0,0,0-.72-.61c-.3-.19-.57-.28-.74-.6a4.39,4.39,0,0,1,2.61,2.11A4,4,0,0,1,12,12.19a6.72,6.72,0,0,1-.11,1.1c0,.21-.07.42-.11.63s-.11.21-.26.32c.08-.57.12-1.16.15-1.73a2.9,2.9,0,0,0,0-.78c0-.13-.07-.26-.11-.38s-.12-.17-.2-.3Z"/><polygon class="cls-1" points="11.29 11.04 11.3 11.04 11.29 11.04 11.29 11.04"/><path class="cls-1" d="M13.2,8.25c0,.13,0,0,0,0s-.2.36-.11.44.3.1.44.18a3.17,3.17,0,0,1,.82.85,2.7,2.7,0,0,1,.47,1A5.41,5.41,0,0,1,14.77,12a2.44,2.44,0,0,1-.93,1.59,3,3,0,0,1-.76.61,2.51,2.51,0,0,0-.82.5c-.09-.15-.74,0-.93.07a3,3,0,0,1-.94,0c-.54-.1-1-.74-1.46-.17a2.29,2.29,0,0,1,.67.22,4.75,4.75,0,0,0,.83.19A4,4,0,0,0,12,15a5.08,5.08,0,0,0,2.48-1.69A2.69,2.69,0,0,0,15.15,12,3.75,3.75,0,0,0,15,10.43a2.84,2.84,0,0,0-.73-1.25l-.58-.57S13.24,8.16,13.2,8.25Z"/></g></g></svg>