<svg xmlns="http://www.w3.org/2000/svg" viewBox="0 0 16.84 47.22"><defs><style>.cls-1{fill:#323c90;}</style></defs><g id="Layer_2" data-name="Layer 2"><g id="Layer_1-2" data-name="Layer 1"><path class="cls-1" d="M5.66,25.25v.06c0,.08,0,.16,0,.24C5.67,25.45,5.67,25.35,5.66,25.25Z"/><path class="cls-1" d="M16.83,44.91a14.73,14.73,0,0,0-.36-1.85,19.91,19.91,0,0,0-1.92-4.54,25.44,25.44,0,0,0-1.86-3A13.44,13.44,0,0,0,11.38,34a1.42,1.42,0,0,0-1.77-.32,10.22,10.22,0,0,0-1,.66l.8-.39a1.68,1.68,0,0,1,0,.2l-1.07.43c-.39.32-1,.39-1.24.88,0,0-.19,0-.27,0A1.36,1.36,0,0,1,6,34c0-1.6.11-3.2.14-4.81,0-1.93.07-3.87.08-5.81,0-1.63,0-3.26,0-4.89,0-.75,0-1.5-.08-2.25a7.11,7.11,0,0,1,0-2.64l-.23.6H5.74c0-.29-.1-.63,0-.84a1.42,1.42,0,0,1,.78-.58c1-.22,1.94-.37,2.91-.55a.18.18,0,0,1,.1,0c.2.18.2.18.29-.11.37.4.87.2,1.26.34l.39.31.15-.19.14.26a.41.41,0,0,0,.05-.09l.39.14.17-.22v.51c.08-.06.21-.11.22-.18a3.6,3.6,0,0,0,0-.57h.06l.06.53.09,0,.06-.17c0,.41.24.35.48.26a1.06,1.06,0,0,1,.27-.61.29.29,0,0,1,.37-.08h0s.05-.09.07-.14,0,.1-.07.14v.22a4.21,4.21,0,0,0,1-1.88,24.35,24.35,0,0,0,1.41-6.14,12.37,12.37,0,0,0,0-3A1.7,1.7,0,0,0,14.8,0a15.12,15.12,0,0,0-4.35.34A11.65,11.65,0,0,0,7,1.65c-.54.33-1.15.55-1.69.88a3.06,3.06,0,0,0-.95.87,6.46,6.46,0,0,0-.49,1.38C3.22,6.67,2.58,8.54,2,10.44c-.4,1.37-.71,2.77-1,4.17-.17.75-.28,1.51-.39,2.27-.19,1.33-.4,2.65-.52,4C0,21.91,0,23,0,24s0,2.37.08,3.55c0,1,.1,2,.23,2.92.2,1.46.42,2.93.74,4.37.38,1.73.86,3.45,1.34,5.15.41,1.45.88,2.87,1.34,4.3a1,1,0,0,0,.35.56,25.85,25.85,0,0,0,2.61,1.36,12.32,12.32,0,0,0,6.09.93,6.43,6.43,0,0,0,1,0,10.72,10.72,0,0,0,2.05-.68A1.56,1.56,0,0,0,16.83,44.91ZM16.35,1.58h0l.12,1.09-.32.08C16.24,2.35,16.3,2,16.35,1.58Zm-2,9.3c0-.16.08-.32.11-.49a1.36,1.36,0,0,1,.12-.49,3.2,3.2,0,0,0,0,1.12c.16.42-.06.66-.2,1,0,.06-.11.08-.17.12s-.05,0-.05,0H14.1a.36.36,0,0,1,0-.09C14.16,11.66,14.25,11.27,14.35,10.88Zm-.3,1.17s0,.1,0,.15h.07v.08H14a.17.17,0,0,1,0-.07h-.07Zm-.49-5.41h0A6.32,6.32,0,0,1,13.69,8a6.37,6.37,0,0,1-.42,1.15l-.14,0C13.27,8.25,13.41,7.45,13.56,6.64ZM13,7.5c-.08.42-.17.92-.26,1.42l-.56-.12c-.44-.1-.61-.47-.82-.81,0,0,.12-.23.22-.26a5.87,5.87,0,0,1,.83-.19A5.65,5.65,0,0,1,13,7.5ZM12.16.21s0,.07,0,.1l-.24,0c-.38.06-.78.1-1.16.19a5.17,5.17,0,0,0-1.95.68,6.21,6.21,0,0,1-1.29.56C7.93,1.21,9.6.44,12.16.21ZM6.63,35.59l.32.14a1.07,1.07,0,0,1-1.17-.55,4.6,4.6,0,0,1-.29-.91c0,.07.09.12.1.19A1.62,1.62,0,0,0,6.63,35.59ZM5.82,16.66h.11c0,.45.1.9.11,1.35,0,.93.08,1.86.06,2.79,0,.66-.14,1.32-.19,2a1.41,1.41,0,0,0,.12.42s0,.12,0,.14a1.2,1.2,0,0,0-.11,1.27,7.41,7.41,0,0,1,0,1.88l-.06-.28-.07,0,.19,1.12-.33-.14c.47.38.31.83.3,1.24,0,.7,0,1.39-.06,2.09a3.1,3.1,0,0,1-.1.42c-.23-.14-.28-.21-.25-.46a12.85,12.85,0,0,0-.06-1.64c0-.35,0-.69,0-1h.16a6.68,6.68,0,0,1-.1-2.52c-.23-2.56.14-5.14-.12-7.7h.12c0,.19,0,.39,0,.65C5.74,17.69,5.78,17.18,5.82,16.66ZM5.61,4.44c.21-.52.48-1,.74-1.53.09-.18.12-.16.24,0a1.42,1.42,0,0,1-.08.18c-.26.18-.45.4-.36.68-.36.46-.34,1-.66,1.46A3.43,3.43,0,0,1,5.61,4.44Zm-.14,28v1.75c0-.58,0-1.16-.08-1.74ZM4.74,28a1.26,1.26,0,0,1,.13-.55V32.8h.07c0-2.15.09-4.29.14-6.43h.06a.83.83,0,0,1,.06.21c0,1.44,0,2.89,0,4.33,0,.81-.09,1.62-.12,2.43,0,.33,0,.66.07,1a.86.86,0,0,1,0,.23.64.64,0,0,1-.21.34,5.73,5.73,0,0,1-.18-1C4.72,32,4.73,30,4.74,28Zm-.18-.93h.07V29H4.56ZM2.94,40.74c0-.17-.11-.34-.17-.52l-.1,0,.22-.43c.07.38.11.65.16.93ZM3.7,29.68a4.26,4.26,0,0,1,.1.78c0,.16.39.33.05.42.13.5.3,1,.38,1.44.13.81.18,1.64.3,2.45,0,.23.09.53.44.53H5l0,0H5l0,0v0h0a1,1,0,0,0,.2.3,1.21,1.21,0,0,0,.33.16l-.89,1.06.5-1a2.23,2.23,0,0,0-.76,1.48l.13-.23-.13.23c-.08.22-.16.43-.25.69C3.54,37.18,3.64,31.94,3.7,29.68ZM6.1,45.57l.69.4a10.35,10.35,0,0,1-2.06-3.11c0,.3.26.58,0,.87a1.57,1.57,0,0,1-.5-1.08,5.69,5.69,0,0,0-.07-1.16,3.42,3.42,0,0,1,.17-1.57A4.2,4.2,0,0,1,5,38.63a3.42,3.42,0,0,1,.26-.4s.07,0,.17,0a5.14,5.14,0,0,0-.29.57c0,.1,0,.22,0,.33A2.22,2.22,0,0,1,6,38.22c0,.55-.36.76-.65,1,.12.11.09.14,0,.25a1.83,1.83,0,0,0-.28,1.66.33.33,0,0,1-.08.31c-.24.22-.09.36.06.52a.49.49,0,0,1,.15.27,4.41,4.41,0,0,0,1.27,2.84c.5.57,1.08,1.06,1.57,1.54A3.38,3.38,0,0,1,6.1,45.57Zm4.29-12a3.4,3.4,0,0,1,.34.12c.23.15.46.28.67.44a3.63,3.63,0,0,1,.28.27c.24.2.39.41.17.72a.1.1,0,0,0,0,.09l.3.65v.07h.06s0,0,0-.07a.3.3,0,0,0,.08.08h-.08V36h.08c-.1.14.41.13.07.32-.05-.1-.1-.21-.16-.31h0l-.06-.06v0h0v0a1,1,0,0,1-.07.15,3.15,3.15,0,0,1-.36-.77,1.43,1.43,0,0,0-.58-.88s-.16,0-.19,0A3.15,3.15,0,0,1,10.6,34c-.07.13-.11.25-.32.11s-.34,0-.53,0C9.68,33.68,9.94,33.44,10.39,33.54Zm2.35,8.66a4,4,0,0,0-.33-.37,1.4,1.4,0,0,0-.3-.15c0,.65-.5.8-1,.93-.24.06-.55,0-.56.53-.29-.62-.53-1.13-.75-1.58.43-.29.77-.55,1.13-.75.09-.06.28,0,.41,0,.29.11.58.23.64.6,0,0,.08.05.12.08a1.19,1.19,0,0,0-.15-.4c-.16-.17-.17-.3.05-.45l.81,1.48Zm.46,0-1-1.88.12-.07C12.54,41,13.33,41.35,13.2,42.24Zm2.18.46L15,42.12l-.31-.59-.23-.18h.06c0-.2,0-.4,0-.6h0l.06-.06-.06,0v-.07l.07,0-.22-.51a1.43,1.43,0,0,1-.08.22l.09.15.06.09h-.06v0h.06a.13.13,0,0,1,0-.06l.06.06h-.06a.08.08,0,0,1,0,.07.07.07,0,0,1-.06,0l-.16.15c-.06-.1-.11-.21-.16-.31l.23.08a.09.09,0,0,1,0-.07c0-.08,0-.16,0-.24h0l-.15-.15h0L14,40.06h0l.08.08a1.4,1.4,0,0,1,.1-.16L14,39.91V40h-.07a1.13,1.13,0,0,1-.1.13c-.13-.25-.26-.5-.38-.75l-.15-.32c0-.15,0-.31,0-.46-.26-.16-.16-.38-.1-.6a2.93,2.93,0,0,1-.89-1.32v0a2,2,0,0,0,.07-.23c.16.18.34.34.49.53s.48.61.71.92a.34.34,0,0,1,.05.14,7.29,7.29,0,0,1,.61.88c.28.54.52,1.1.76,1.66A1.19,1.19,0,0,1,15,41l.32.83c.08.28.17.56.26.84Zm-.91-2v.06l-.07-.06Zm2.06,4.24c-.06-.35-.13-.71-.18-1l.15-.39C16.8,44.2,16.79,44.8,16.53,44.91Z"/><path class="cls-1" d="M10.92,12.92l1.59.45-.11-.17-1.46-.33S10.93,12.9,10.92,12.92Z"/><polygon class="cls-1" points="12.4 13.2 12.4 13.2 12.4 13.2 12.4 13.2 12.4 13.2 12.4 13.2 12.4 13.19 12.39 13.19 12.4 13.2"/><polygon class="cls-1" points="14.54 41.34 14.54 41.34 14.54 41.34 14.54 41.34"/><path class="cls-1" d="M14,12.22v0h0Z"/><path class="cls-1" d="M14,12.2v0h0Z"/><path class="cls-1" d="M12.18,35.91h0Z"/><path class="cls-1" d="M14.71,41.15v-.1a.06.06,0,0,1,0,0S14.71,41.1,14.71,41.15Z"/><path class="cls-1" d="M13.22,38.3l0,.05a.06.06,0,0,1,0,0Z"/><path class="cls-1" d="M13.87,39.74l-.07.07h.06A.2.2,0,0,1,13.87,39.74Z"/><path class="cls-1" d="M13.8,39.81h0Z"/><path class="cls-1" d="M13.87,39.84v0h0Z"/><path class="cls-1" d="M13.93,39.89h0v0Z"/><path class="cls-1" d="M13.87,39.89h.06l-.06,0Z"/><path class="cls-1" d="M13.2,38.26h0a.05.05,0,0,0,0,0l0,0Z"/><path class="cls-1" d="M13.78,39.84v0Z"/><path class="cls-1" d="M13.78,39.81v0h0Z"/><path class="cls-1" d="M13.78,39.86v0h0Z"/><path class="cls-1" d="M13.86,39.9h0Z"/><path class="cls-1" d="M13.86,40s0,0,0-.06h0Z"/><path class="cls-1" d="M14.32,40.65a0,0,0,0,1,0,0h-.07Z"/><path class="cls-1" d="M14.29,40.5h0a.13.13,0,0,1,0-.06l-.06.06Z"/></g></g></svg>